<?xml version="1.0"?>
<svg xmlns="http://www.w3.org/2000/svg" xmlns:xlink="http://www.w3.org/1999/xlink" version="1.1" id="Layer_1" x="0px" y="0px" viewBox="0 0 504 504" style="enable-background:new 0 0 504 504;" xml:space="preserve" width="512px" height="512px" class=""><g><g>
	<g>
		<path d="M377.6,0H126C56.8,0,0,56.8,0,126.4V378c0,69.2,56.8,126,126,126h251.6c69.6,0,126.4-56.8,126.4-126.4V126.4    C504,56.8,447.2,0,377.6,0z M319.6,252H272v156h-60V252h-32v-64h28v-27.2c0-25.6,12.8-66,66.8-66H324V148h-34.8    c-5.6,0-13.2,3.6-13.2,16v24h49.2L319.6,252z" data-original="#000000" class="active-path" data-old_color="#000000" fill="#0E2A47"/>
	</g>
</g></g> </svg>
