<svg width="316" height="97" viewBox="0 0 316 97" fill="none" xmlns="http://www.w3.org/2000/svg">
<path d="M8.40553 11.508H10.6875C10.6428 9.29634 8.7571 7.73029 5.97017 7.73029C3.22159 7.73029 1.15695 9.27717 1.16335 11.5911C1.16335 13.4703 2.49928 14.5506 4.6534 15.1067L6.14275 15.4902C7.55539 15.8482 8.48863 16.2892 8.49502 17.3056C8.48863 18.4242 7.42755 19.1721 5.88068 19.1721C4.39772 19.1721 3.24715 18.5073 3.15127 17.133H0.818176C0.914057 19.7346 2.85085 21.1983 5.89985 21.1983C9.03835 21.1983 10.8601 19.6323 10.8665 17.3248C10.8601 15.0556 8.98721 14.0201 7.01846 13.5534L5.79119 13.2466C4.71732 12.9909 3.55397 12.5371 3.56676 11.4441C3.57315 10.4597 4.45525 9.73739 5.9382 9.73739C7.35085 9.73739 8.28408 10.3958 8.40553 11.508Z" fill="white"/>
<path d="M17.161 21.1919C20.0375 21.1919 21.8656 19.1657 21.8656 16.1294C21.8656 13.0868 20.0375 11.0542 17.161 11.0542C14.2846 11.0542 12.4565 13.0868 12.4565 16.1294C12.4565 19.1657 14.2846 21.1919 17.161 21.1919ZM17.1738 19.3382C15.5822 19.3382 14.8024 17.9192 14.8024 16.123C14.8024 14.3269 15.5822 12.8887 17.1738 12.8887C18.7399 12.8887 19.5197 14.3269 19.5197 16.123C19.5197 17.9192 18.7399 19.3382 17.1738 19.3382ZM13.8436 10.057H15.774L17.1674 8.88086L18.5545 10.057H20.4785L17.8769 7.95401H16.4323L13.8436 10.057ZM19.7946 8.77859H21.2711L23.2463 6.41992H21.2136L19.7946 8.77859Z" fill="white"/>
<path d="M33.1971 11.182H31.2603V8.82973H28.9464V11.182H27.5529V12.9718H28.9464V18.4306C28.9336 20.2779 30.2759 21.1855 32.0146 21.1344C32.6729 21.1152 33.1268 20.9874 33.3761 20.9043L32.9861 19.0953C32.8583 19.1273 32.5962 19.1848 32.3086 19.1848C31.7269 19.1848 31.2603 18.9803 31.2603 18.0471V12.9718H33.1971V11.182Z" fill="white"/>
<path d="M35.1323 21.0002H37.4462V11.182H35.1323V21.0002ZM36.2956 9.78853C37.0307 9.78853 37.6316 9.22603 37.6316 8.53569C37.6316 7.83896 37.0307 7.27646 36.2956 7.27646C35.5541 7.27646 34.9533 7.83896 34.9533 8.53569C34.9533 9.22603 35.5541 9.78853 36.2956 9.78853Z" fill="white"/>
<path d="M44.1722 21.1919C46.4606 21.1919 48.033 20.0733 48.4421 18.3667L46.2816 18.1238C45.9684 18.9547 45.2013 19.3894 44.2042 19.3894C42.7084 19.3894 41.7177 18.405 41.6985 16.7239H48.538V16.0144C48.538 12.5691 46.467 11.0542 44.0508 11.0542C41.2383 11.0542 39.4038 13.1188 39.4038 16.1486C39.4038 19.2296 41.2127 21.1919 44.1722 21.1919ZM41.7049 15.1642C41.7752 13.9114 42.7021 12.8567 44.0827 12.8567C45.4123 12.8567 46.3072 13.8283 46.32 15.1642H41.7049ZM44.6964 7.99237H43.2454L40.6758 10.0953H42.587L43.9869 8.91921L45.3675 10.0953H47.2915L44.6964 7.99237ZM39.9279 6.45188H37.9016L39.8959 8.81694H41.3405L39.9279 6.45188Z" fill="white"/>
<path d="M52.8095 15.2473C52.8095 13.8283 53.666 13.0101 54.8869 13.0101C56.0822 13.0101 56.7981 13.7963 56.7981 15.1067V21.0002H59.112V14.7488C59.1184 12.3965 57.7761 11.0542 55.7498 11.0542C54.2797 11.0542 53.2697 11.7573 52.8223 12.8503H52.7072V11.182H50.4956V21.0002H52.8095V15.2473Z" fill="white"/>
<path d="M68.2431 7.90927H65.9291V21.0002H68.2431V7.90927Z" fill="white"/>
<path d="M73.4478 21.1983C74.9883 21.1983 75.9087 20.476 76.3306 19.6515H76.4073V21.0002H78.6317V14.4292C78.6317 11.834 76.516 11.0542 74.6431 11.0542C72.5785 11.0542 70.9932 11.9746 70.4819 13.7644L72.6424 14.0712C72.8725 13.4 73.5245 12.8248 74.6559 12.8248C75.7297 12.8248 76.3178 13.3745 76.3178 14.3397V14.378C76.3178 15.0428 75.6211 15.0748 73.8888 15.2601C71.984 15.4647 70.1623 16.0336 70.1623 18.2452C70.1623 20.1756 71.5749 21.1983 73.4478 21.1983ZM72.8661 9.98668C72.8661 9.40501 73.1857 9.01509 73.6395 9.01509C74.0231 9.01509 74.2851 9.20046 74.5664 9.40501C74.918 9.6543 75.3079 9.92916 75.9854 9.92276C77.1232 9.91637 78.0117 9.03427 78.0245 7.51296L76.6502 7.45543C76.6438 8.02433 76.337 8.43342 75.8512 8.43342C75.4805 8.43342 75.1928 8.24166 74.8796 8.03711C74.5089 7.79421 74.1062 7.52575 73.5053 7.52575C72.3611 7.52575 71.4663 8.43342 71.4663 9.95473L72.8661 9.98668ZM74.0486 19.498C73.0834 19.498 72.3931 19.057 72.3931 18.2069C72.3931 17.3184 73.1665 16.9476 74.202 16.8006C74.8093 16.7175 76.0238 16.5641 76.3242 16.3212V17.4782C76.3242 18.5712 75.4421 19.498 74.0486 19.498Z" fill="white"/>
<path d="M80.9584 21.0002H83.2724V11.182H80.9584V21.0002ZM82.1218 9.78853C82.8569 9.78853 83.4577 9.22603 83.4577 8.53569C83.4577 7.83896 82.8569 7.27646 82.1218 7.27646C81.3803 7.27646 80.7795 7.83896 80.7795 8.53569C80.7795 9.22603 81.3803 9.78853 82.1218 9.78853Z" fill="white"/>
<path d="M94.3993 21.1919C96.8666 21.1919 98.4391 19.7282 98.6053 17.6444H96.3936C96.1955 18.699 95.4348 19.3063 94.4185 19.3063C92.9739 19.3063 92.0406 18.0982 92.0406 16.0911C92.0406 14.1096 92.9931 12.9206 94.4185 12.9206C95.5307 12.9206 96.2147 13.6365 96.3936 14.5826H98.6053C98.4455 12.454 96.7836 11.0542 94.3865 11.0542C91.5101 11.0542 89.6948 13.1316 89.6948 16.1294C89.6948 19.1017 91.4654 21.1919 94.3993 21.1919Z" fill="white"/>
<path d="M104.788 21.1919C107.664 21.1919 109.493 19.1657 109.493 16.1294C109.493 13.0868 107.664 11.0542 104.788 11.0542C101.912 11.0542 100.083 13.0868 100.083 16.1294C100.083 19.1657 101.912 21.1919 104.788 21.1919ZM104.801 19.3382C103.209 19.3382 102.429 17.9192 102.429 16.123C102.429 14.3269 103.209 12.8887 104.801 12.8887C106.367 12.8887 107.147 14.3269 107.147 16.123C107.147 17.9192 106.367 19.3382 104.801 19.3382ZM103.944 9.8908H105.676L104.251 6.96964H101.982L103.944 9.8908Z" fill="white"/>
<path d="M113.77 15.2473C113.77 13.8283 114.627 13.0101 115.848 13.0101C117.043 13.0101 117.759 13.7963 117.759 15.1067V21.0002H120.073V14.7488C120.079 12.3965 118.737 11.0542 116.711 11.0542C115.241 11.0542 114.231 11.7573 113.783 12.8503H113.668V11.182H111.456V21.0002H113.77V15.2473Z" fill="white"/>
<path d="M3.50284 31.9093H1.18891V45.0002H3.50284V31.9093Z" fill="white"/>
<path d="M8.70756 45.1983C10.248 45.1983 11.1685 44.476 11.5904 43.6515H11.6671V45.0002H13.8915V38.4292C13.8915 35.834 11.7757 35.0542 9.90287 35.0542C7.83824 35.0542 6.25301 35.9746 5.74165 37.7644L7.90216 38.0712C8.13227 37.4 8.78426 36.8248 9.91566 36.8248C10.9895 36.8248 11.5776 37.3745 11.5776 38.3397V38.378C11.5776 39.0428 10.8809 39.0748 9.14861 39.2601C7.24378 39.4647 5.42205 40.0336 5.42205 42.2452C5.42205 44.1756 6.83469 45.1983 8.70756 45.1983ZM9.30841 43.4981C8.34321 43.4981 7.65287 43.057 7.65287 42.2069C7.65287 41.3184 8.42631 40.9476 9.46182 40.8006C10.0691 40.7175 11.2836 40.5641 11.584 40.3212V41.4782C11.584 42.5712 10.7019 43.4981 9.30841 43.4981ZM9.91566 48.5286C10.6507 48.5286 11.2516 47.9661 11.2516 47.2757C11.2516 46.579 10.6507 46.0165 9.91566 46.0165C9.17418 46.0165 8.57333 46.579 8.57333 47.2757C8.57333 47.9661 9.17418 48.5286 9.91566 48.5286Z" fill="white"/>
<path d="M16.2182 45.0002H18.5321V35.182H16.2182V45.0002ZM17.3816 33.7885C18.1166 33.7885 18.7175 33.226 18.7175 32.5357C18.7175 31.839 18.1166 31.2765 17.3816 31.2765C16.6401 31.2765 16.0392 31.839 16.0392 32.5357C16.0392 33.226 16.6401 33.7885 17.3816 33.7885Z" fill="white"/>
<path d="M25.3764 48.682H27.6903V43.4533H27.7862C28.1506 44.1692 28.9112 45.1728 30.5987 45.1728C32.9126 45.1728 34.6449 43.3382 34.6449 40.1039C34.6449 36.8311 32.8615 35.0542 30.5923 35.0542C28.8601 35.0542 28.1378 36.0961 27.7862 36.8056H27.652V35.182H25.3764V48.682ZM27.6456 40.0911C27.6456 38.1863 28.4638 36.9526 29.9531 36.9526C31.4936 36.9526 32.2862 38.263 32.2862 40.0911C32.2862 41.932 31.4808 43.2743 29.9531 43.2743C28.4766 43.2743 27.6456 41.9959 27.6456 40.0911Z" fill="white"/>
<path d="M38.9403 39.2473C38.9403 37.8283 39.8224 37.0101 41.0625 37.0101C42.277 37.0101 42.9929 37.7836 42.9929 39.1067V45.0002H45.3068V38.7488C45.3068 36.3773 43.9645 35.0542 41.9254 35.0542C40.4169 35.0542 39.4581 35.7381 39.0043 36.8503H38.8892V31.9093H36.6264V45.0002H38.9403V39.2473Z" fill="white"/>
<path d="M50.4908 45.1983C52.0312 45.1983 52.9517 44.476 53.3736 43.6515H53.4503V45.0002H55.6747V38.4292C55.6747 35.834 53.5589 35.0542 51.6861 35.0542C49.6214 35.0542 48.0362 35.9746 47.5249 37.7644L49.6854 38.0712C49.9155 37.4 50.5675 36.8248 51.6989 36.8248C52.7727 36.8248 53.3608 37.3745 53.3608 38.3397V38.378C53.3608 39.0428 52.6641 39.0748 50.9318 39.2601C49.027 39.4647 47.2053 40.0336 47.2053 42.2452C47.2053 44.1756 48.6179 45.1983 50.4908 45.1983ZM51.0916 43.4981C50.1264 43.4981 49.4361 43.057 49.4361 42.2069C49.4361 41.3184 50.2095 40.9476 51.245 40.8006C51.8523 40.7175 53.0668 40.5641 53.3672 40.3212V41.4782C53.3672 42.5712 52.4851 43.4981 51.0916 43.4981ZM52.6768 33.8013V33.2132C53.3608 33.111 54.032 32.7466 54.0256 31.9348C54.032 30.8738 52.9197 30.2218 50.8104 30.2218L50.7528 31.3659C51.4943 31.3659 52.0632 31.5194 52.0568 31.9796C52.0632 32.3375 51.7244 32.5357 50.8232 32.574L50.9126 33.8013H52.6768Z" fill="white"/>
<path d="M58.0014 45.0002H60.3153V35.182H58.0014V45.0002ZM59.1648 33.7885C59.8999 33.7885 60.5007 33.226 60.5007 32.5357C60.5007 31.839 59.8999 31.2765 59.1648 31.2765C58.4233 31.2765 57.8224 31.839 57.8224 32.5357C57.8224 33.226 58.4233 33.7885 59.1648 33.7885Z" fill="white"/>
<path d="M72.0623 35.182H70.1255V32.8297H67.8116V35.182H66.4181V36.9718H67.8116V42.4306C67.7988 44.2779 69.1411 45.1855 70.8798 45.1344C71.5382 45.1152 71.992 44.9874 72.2413 44.9043L71.8514 43.0953C71.7235 43.1273 71.4615 43.1848 71.1738 43.1848C70.5921 43.1848 70.1255 42.9803 70.1255 42.0471V36.9718H72.0623V35.182Z" fill="white"/>
<path d="M73.9975 45.0002H76.3114V39.2282C76.3114 37.9817 77.2511 37.0996 78.5231 37.0996C78.913 37.0996 79.3988 37.1699 79.5969 37.2338V35.1053C79.386 35.0669 79.0217 35.0414 78.766 35.0414C77.641 35.0414 76.7013 35.6806 76.3434 36.8184H76.2411V35.182H73.9975V45.0002Z" fill="white"/>
<path d="M83.7662 45.1983C85.3066 45.1983 86.2271 44.476 86.649 43.6515H86.7257V45.0002H88.9501V38.4292C88.9501 35.834 86.8343 35.0542 84.9615 35.0542C82.8968 35.0542 81.3116 35.9746 80.8002 37.7644L82.9608 38.0712C83.1909 37.4 83.8428 36.8248 84.9742 36.8248C86.0481 36.8248 86.6362 37.3745 86.6362 38.3397V38.378C86.6362 39.0428 85.9394 39.0748 84.2072 39.2601C82.3024 39.4647 80.4806 40.0336 80.4806 42.2452C80.4806 44.1756 81.8933 45.1983 83.7662 45.1983ZM84.367 43.4981C83.4018 43.4981 82.7115 43.057 82.7115 42.2069C82.7115 41.3184 83.4849 40.9476 84.5204 40.8006C85.1277 40.7175 86.3421 40.5641 86.6426 40.3212V41.4782C86.6426 42.5712 85.7605 43.4981 84.367 43.4981ZM85.9522 33.8013V33.2132C86.6362 33.111 87.3073 32.7466 87.3009 31.9348C87.3073 30.8738 86.1951 30.2218 84.0858 30.2218L84.0282 31.3659C84.7697 31.3659 85.3386 31.5194 85.3322 31.9796C85.3386 32.3375 84.9998 32.5357 84.0985 32.574L84.188 33.8013H85.9522Z" fill="white"/>
<path d="M171.437 28.3709C174.339 28.3709 176.218 27.1052 177.177 25.2771H177.33V28.0001H182.495V14.7558C182.495 10.0768 178.532 8.10809 174.16 8.10809C169.455 8.10809 166.361 10.3581 165.607 13.9376L170.644 14.3467C171.015 13.0427 172.178 12.0839 174.134 12.0839C175.988 12.0839 177.049 13.0172 177.049 14.628V14.7047C177.049 15.9703 175.707 16.1365 172.293 16.4689C168.407 16.8268 164.917 18.1308 164.917 22.5158C164.917 26.4021 167.691 28.3709 171.437 28.3709ZM172.996 24.6123C171.322 24.6123 170.12 23.8325 170.12 22.3368C170.12 20.8027 171.386 20.0484 173.303 19.78C174.492 19.6138 176.435 19.3325 177.087 18.8979V20.9817C177.087 23.0399 175.387 24.6123 172.996 24.6123Z" fill="url(#paint0_linear)"/>
<path d="M201 23.091C201.013 26.2359 203.02 28.9078 206.766 28.9078C210.473 28.9078 212.544 26.2359 212.531 23.091V21.7104C212.544 18.5399 210.524 15.8936 206.766 15.8936C203.071 15.8936 201.013 18.5655 201 21.7104V23.091ZM187.564 8.10809C187.577 11.253 189.584 13.8993 193.317 13.8993C197.037 13.8993 199.108 11.2785 199.095 8.10809V6.72741C199.108 3.55695 197.088 0.910645 193.317 0.910645C189.66 0.910645 187.577 3.55695 187.564 6.72741V8.10809ZM188.817 28.0001H192.153L210.153 1.81831H206.817L188.817 28.0001ZM204.72 21.7104C204.733 20.4575 205.232 19.1663 206.766 19.1663C208.376 19.1663 208.798 20.4575 208.785 21.7104V23.091C208.798 24.3439 208.325 25.6095 206.766 25.6095C205.206 25.6095 204.733 24.3055 204.72 23.091V21.7104ZM191.31 6.72741C191.322 5.51292 191.795 4.18337 193.317 4.18337C194.928 4.18337 195.362 5.47457 195.349 6.72741V8.10809C195.362 9.36093 194.876 10.6266 193.317 10.6266C191.808 10.6266 191.322 9.36093 191.31 8.10809V6.72741Z" fill="url(#paint1_linear)"/>
<path d="M229.892 12.7487H217.952V17.0697H229.892V12.7487Z" fill="url(#paint2_linear)"/>
<path d="M234.085 23.3979H246.652V28.0001H251.945V23.3979H255.192V18.9618H251.945V1.81831H245.016L234.085 19.0385V23.3979ZM246.754 18.9618H239.659V18.7572L246.55 7.85241H246.754V18.9618Z" fill="url(#paint3_linear)"/>
<path d="M273.211 23.091C273.224 26.2359 275.231 28.9078 278.977 28.9078C282.684 28.9078 284.755 26.2359 284.742 23.091V21.7104C284.755 18.5399 282.735 15.8936 278.977 15.8936C275.282 15.8936 273.224 18.5655 273.211 21.7104V23.091ZM259.775 8.10809C259.788 11.253 261.795 13.8993 265.528 13.8993C269.248 13.8993 271.319 11.2785 271.306 8.10809V6.72741C271.319 3.55695 269.299 0.910645 265.528 0.910645C261.871 0.910645 259.788 3.55695 259.775 6.72741V8.10809ZM261.028 28.0001H264.364L282.364 1.81831H279.028L261.028 28.0001ZM276.931 21.7104C276.944 20.4575 277.442 19.1663 278.977 19.1663C280.587 19.1663 281.009 20.4575 280.996 21.7104V23.091C281.009 24.3439 280.536 25.6095 278.977 25.6095C277.417 25.6095 276.944 24.3055 276.931 23.091V21.7104ZM263.521 6.72741C263.533 5.51292 264.006 4.18337 265.528 4.18337C267.138 4.18337 267.573 5.47457 267.56 6.72741V8.10809C267.573 9.36093 267.087 10.6266 265.528 10.6266C264.019 10.6266 263.533 9.36093 263.521 8.10809V6.72741Z" fill="url(#paint4_linear)"/>
<path fill-rule="evenodd" clip-rule="evenodd" d="M141.972 15.1405C139.385 15.3566 136.724 15.5787 134.043 15.6358C132.938 15.6593 132.024 14.7831 132 13.6788C131.977 12.5745 132.853 11.6602 133.957 11.6367C136.51 11.5824 139.05 11.3704 141.662 11.1525C141.864 11.1356 142.066 11.1188 142.268 11.1019C145.07 10.8692 147.95 10.644 150.867 10.644C151.972 10.644 152.867 11.5395 152.867 12.644C152.867 13.7486 151.972 14.644 150.867 14.644C148.136 14.644 145.408 14.8549 142.599 15.0882C142.391 15.1056 142.181 15.123 141.972 15.1405Z" fill="white"/>
<path fill-rule="evenodd" clip-rule="evenodd" d="M132 22.5659C132 21.4613 132.895 20.5659 134 20.5659H151.86C152.964 20.5659 153.86 21.4613 153.86 22.5659C153.86 23.6705 152.964 24.5659 151.86 24.5659H134C132.895 24.5659 132 23.6705 132 22.5659Z" fill="white"/>
<path d="M175.74 58.1818H176.776L176.682 56.4559L178.131 57.4062L178.651 56.5028L177.099 55.7272L178.651 54.9517L178.131 54.0483L176.682 54.9985L176.776 53.2727H175.74L175.838 54.9985L174.389 54.0483L173.869 54.9517L175.416 55.7272L173.869 56.5028L174.389 57.4062L175.838 56.4559L175.74 58.1818Z" fill="#292D32"/>
<path d="M179.993 54.598H182.69V62H184.259V54.598H186.956V53.2727H179.993V54.598Z" fill="#292D32"/>
<path d="M187.55 62H189.093V58.1519C189.093 57.321 189.719 56.7329 190.567 56.7329C190.827 56.7329 191.151 56.7798 191.283 56.8224V55.4034C191.143 55.3778 190.9 55.3608 190.729 55.3608C189.979 55.3608 189.353 55.7869 189.114 56.5454H189.046V55.4545H187.55V62Z" fill="#292D32"/>
<path d="M194.894 62.1278C196.811 62.1278 198.03 60.7769 198.03 58.7528C198.03 56.7244 196.811 55.3693 194.894 55.3693C192.976 55.3693 191.757 56.7244 191.757 58.7528C191.757 60.7769 192.976 62.1278 194.894 62.1278ZM194.902 60.892C193.841 60.892 193.321 59.946 193.321 58.7485C193.321 57.5511 193.841 56.5923 194.902 56.5923C195.946 56.5923 196.466 57.5511 196.466 58.7485C196.466 59.946 195.946 60.892 194.902 60.892Z" fill="#292D32"/>
<path d="M200.882 58.1647C200.882 57.2187 201.453 56.6733 202.267 56.6733C203.064 56.6733 203.541 57.1974 203.541 58.071V62H205.084V57.8323C205.088 56.2642 204.193 55.3693 202.842 55.3693C201.862 55.3693 201.189 55.838 200.891 56.5667H200.814V55.4545H199.339V62H200.882V58.1647Z" fill="#292D32"/>
<path d="M209.499 64.5909C211.267 64.5909 212.571 63.7812 212.571 62.1065V55.4545H211.05V56.5369H210.964C210.73 56.0639 210.24 55.3693 209.085 55.3693C207.572 55.3693 206.384 56.5539 206.384 58.7059C206.384 60.8409 207.572 61.9062 209.081 61.9062C210.202 61.9062 210.726 61.3054 210.964 60.8238H211.041V62.0639C211.041 63.0269 210.402 63.4233 209.524 63.4233C208.595 63.4233 208.186 62.9843 207.999 62.6008L206.609 62.9375C206.891 63.8536 207.832 64.5909 209.499 64.5909ZM209.511 60.696C208.493 60.696 207.956 59.9034 207.956 58.6974C207.956 57.5085 208.484 56.6349 209.511 56.6349C210.504 56.6349 211.05 57.4573 211.05 58.6974C211.05 59.946 210.496 60.696 209.511 60.696Z" fill="#292D32"/>
<path d="M219.558 62.115C220.683 62.115 221.19 61.446 221.433 60.9687H221.526V62H223.043V54.9644H223.849V53.9886H223.043V53.2727H221.496V53.9886H219.766V54.9644H221.496V56.5369H221.433C221.198 56.0639 220.717 55.3693 219.562 55.3693C218.049 55.3693 216.86 56.5539 216.86 58.7358C216.86 60.892 218.015 62.115 219.558 62.115ZM219.988 60.8494C218.969 60.8494 218.433 59.9545 218.433 58.7272C218.433 57.5085 218.961 56.6349 219.988 56.6349C220.981 56.6349 221.526 57.4573 221.526 58.7272C221.526 59.9971 220.972 60.8494 219.988 60.8494Z" fill="#292D32"/>
<path d="M227.542 62.1278C229.46 62.1278 230.679 60.7769 230.679 58.7528C230.679 56.7244 229.46 55.3693 227.542 55.3693C225.625 55.3693 224.406 56.7244 224.406 58.7528C224.406 60.7769 225.625 62.1278 227.542 62.1278ZM227.551 60.892C226.49 60.892 225.97 59.946 225.97 58.7485C225.97 57.5511 226.49 56.5923 227.551 56.5923C228.595 56.5923 229.115 57.5511 229.115 58.7485C229.115 59.946 228.595 60.892 227.551 60.892ZM226.95 54.5937H228.105L229.413 52.6463H227.904L226.95 54.5937Z" fill="#292D32"/>
<path d="M233.799 60.8068H232.435L232.406 61.284C232.333 62.4389 232.031 63.615 231.907 64.1306H232.947C233.151 63.5937 233.624 62.3494 233.744 61.2755L233.799 60.8068Z" fill="#292D32"/>
<path d="M240.118 62.1321C241.145 62.1321 241.758 61.6505 242.039 61.1008H242.091V62H243.573V57.6193C243.573 55.8892 242.163 55.3693 240.914 55.3693C239.538 55.3693 238.481 55.9829 238.14 57.1761L239.581 57.3806C239.734 56.9332 240.169 56.5497 240.923 56.5497C241.639 56.5497 242.031 56.9161 242.031 57.5596V57.5852C242.031 58.0284 241.566 58.0497 240.412 58.1733C239.142 58.3096 237.927 58.6889 237.927 60.1633C237.927 61.4502 238.869 62.1321 240.118 62.1321ZM240.518 60.9985C239.875 60.9985 239.414 60.7045 239.414 60.1377C239.414 59.5454 239.93 59.2983 240.62 59.2002C241.025 59.1448 241.835 59.0426 242.035 58.8806V59.6519C242.035 60.3806 241.447 60.9985 240.518 60.9985Z" fill="#292D32"/>
<path d="M249.774 60.3636C249.778 61.3778 250.422 62.2429 251.619 62.2429C252.812 62.2429 253.468 61.3778 253.464 60.3636V59.9034C253.468 58.8806 252.829 58.0241 251.619 58.0241C250.439 58.0241 249.778 58.8892 249.774 59.9034V60.3636ZM245.338 55.3693C245.342 56.3835 245.985 57.24 247.187 57.24C248.376 57.24 249.032 56.392 249.028 55.3693V54.909C249.032 53.8863 248.393 53.0298 247.187 53.0298C246.011 53.0298 245.342 53.8863 245.338 54.909V55.3693ZM245.721 62H246.791L252.791 53.2727H251.721L245.721 62ZM250.886 59.9034C250.89 59.4517 251.082 58.9957 251.619 58.9957C252.181 58.9957 252.348 59.4517 252.343 59.9034V60.3636C252.348 60.8153 252.164 61.2627 251.619 61.2627C251.073 61.2627 250.89 60.811 250.886 60.3636V59.9034ZM246.458 54.909C246.463 54.4616 246.646 54.0014 247.187 54.0014C247.75 54.0014 247.912 54.4573 247.907 54.909V55.3693C247.912 55.821 247.733 56.2684 247.187 56.2684C246.642 56.2684 246.463 55.821 246.458 55.3693V54.909Z" fill="#292D32"/>
<path d="M259.769 53.2727H258.226V62H259.769V53.2727Z" fill="#292D32"/>
<path d="M263.239 62.1321C264.266 62.1321 264.879 61.6505 265.16 61.1008H265.212V62H266.695V57.6193C266.695 55.8892 265.284 55.3693 264.035 55.3693C262.659 55.3693 261.602 55.9829 261.261 57.1761L262.702 57.3806C262.855 56.9332 263.29 56.5497 264.044 56.5497C264.76 56.5497 265.152 56.9161 265.152 57.5596V57.5852C265.152 58.0284 264.687 58.0497 263.533 58.1733C262.263 58.3096 261.048 58.6889 261.048 60.1633C261.048 61.4502 261.99 62.1321 263.239 62.1321ZM263.639 60.9985C262.996 60.9985 262.535 60.7045 262.535 60.1377C262.535 59.5454 263.051 59.2983 263.741 59.2002C264.146 59.1448 264.956 59.0426 265.156 58.8806V59.6519C265.156 60.3806 264.568 60.9985 263.639 60.9985ZM263.541 54.5937H264.696L263.746 52.6463H262.233L263.541 54.5937Z" fill="#292D32"/>
<path d="M276.396 57.1846C276.183 56.0767 275.296 55.3693 273.762 55.3693C272.185 55.3693 271.111 56.1448 271.116 57.3551C271.111 58.3096 271.7 58.9403 272.957 59.2002L274.073 59.4346C274.674 59.5667 274.955 59.8096 274.955 60.1804C274.955 60.6278 274.469 60.9644 273.736 60.9644C273.029 60.9644 272.569 60.6576 272.437 60.0696L270.933 60.2144C271.124 61.4162 272.134 62.1278 273.741 62.1278C275.377 62.1278 276.532 61.2798 276.536 60.0397C276.532 59.1065 275.931 58.5355 274.695 58.267L273.579 58.0284C272.914 57.8792 272.65 57.6491 272.654 57.2698C272.65 56.8267 273.14 56.5198 273.783 56.5198C274.495 56.5198 274.87 56.9076 274.989 57.338L276.396 57.1846Z" fill="#292D32"/>
<path d="M280.663 62.1278C282.581 62.1278 283.8 60.7769 283.8 58.7528C283.8 56.7244 282.581 55.3693 280.663 55.3693C278.746 55.3693 277.527 56.7244 277.527 58.7528C277.527 60.7769 278.746 62.1278 280.663 62.1278ZM280.672 60.892C279.611 60.892 279.091 59.946 279.091 58.7485C279.091 57.5511 279.611 56.5923 280.672 56.5923C281.716 56.5923 282.236 57.5511 282.236 58.7485C282.236 59.946 281.716 60.892 280.672 60.892ZM278.452 54.7045H279.739L280.668 53.9204L281.592 54.7045H282.875L281.141 53.3025H280.178L278.452 54.7045ZM282.419 53.8522H283.403L284.72 52.2798H283.365L282.419 53.8522Z" fill="#292D32"/>
<path d="M288.086 64.4545H289.628V60.9687H289.692C289.935 61.446 290.442 62.115 291.567 62.115C293.11 62.115 294.265 60.892 294.265 58.7358C294.265 56.5539 293.076 55.3693 291.563 55.3693C290.408 55.3693 289.926 56.0639 289.692 56.5369H289.603V55.4545H288.086V64.4545ZM289.598 58.7272C289.598 57.4573 290.144 56.6349 291.137 56.6349C292.164 56.6349 292.692 57.5085 292.692 58.7272C292.692 59.9545 292.155 60.8494 291.137 60.8494C290.152 60.8494 289.598 59.9971 289.598 58.7272Z" fill="#292D32"/>
<path d="M297.128 58.1647C297.128 57.2187 297.716 56.6733 298.543 56.6733C299.353 56.6733 299.83 57.1889 299.83 58.071V62H301.372V57.8323C301.372 56.2514 300.478 55.3693 299.118 55.3693C298.113 55.3693 297.473 55.8252 297.171 56.5667H297.094V53.2727H295.586V62H297.128V58.1647Z" fill="#292D32"/>
<path d="M304.828 62.1321C305.855 62.1321 306.469 61.6505 306.75 61.1008H306.801V62H308.284V57.6193C308.284 55.8892 306.874 55.3693 305.625 55.3693C304.249 55.3693 303.192 55.9829 302.851 57.1761L304.292 57.3806C304.445 56.9332 304.88 56.5497 305.634 56.5497C306.35 56.5497 306.742 56.9161 306.742 57.5596V57.5852C306.742 58.0284 306.277 58.0497 305.122 58.1733C303.853 58.3096 302.638 58.6889 302.638 60.1633C302.638 61.4502 303.58 62.1321 304.828 62.1321ZM305.229 60.9985C304.586 60.9985 304.125 60.7045 304.125 60.1377C304.125 59.5454 304.641 59.2983 305.331 59.2002C305.736 59.1448 306.546 59.0426 306.746 58.8806V59.6519C306.746 60.3806 306.158 60.9985 305.229 60.9985ZM306.171 53.3281H305.203L303.49 54.7301H304.765L305.698 53.946L306.618 54.7301H307.901L306.171 53.3281ZM302.992 52.3011H301.641L302.971 53.8778H303.934L302.992 52.3011Z" fill="#292D32"/>
<path d="M311.378 58.1647C311.378 57.2187 311.949 56.6733 312.763 56.6733C313.56 56.6733 314.037 57.1974 314.037 58.071V62H315.58V57.8323C315.584 56.2642 314.689 55.3693 313.338 55.3693C312.358 55.3693 311.685 55.838 311.387 56.5667H311.31V55.4545H309.836V62H311.378V58.1647Z" fill="#292D32"/>
<path d="M177.061 71.4545H175.77V69.8863H174.227V71.4545H173.298V72.6477H174.227V76.2869C174.219 77.5184 175.114 78.1235 176.273 78.0894C176.712 78.0767 177.014 77.9914 177.18 77.936L176.92 76.7301C176.835 76.7514 176.66 76.7897 176.469 76.7897C176.081 76.7897 175.77 76.6534 175.77 76.0312V72.6477H177.061V71.4545Z" fill="#292D32"/>
<path d="M178.351 78H179.894V74.1519C179.894 73.321 180.52 72.7329 181.368 72.7329C181.628 72.7329 181.952 72.7798 182.084 72.8224V71.4034C181.944 71.3778 181.701 71.3608 181.53 71.3608C180.78 71.3608 180.154 71.7869 179.915 72.5454H179.847V71.4545H178.351V78Z" fill="#292D32"/>
<path d="M184.864 78.1321C185.891 78.1321 186.504 77.6505 186.785 77.1008H186.837V78H188.32V73.6193C188.32 71.8892 186.909 71.3693 185.66 71.3693C184.284 71.3693 183.227 71.9829 182.886 73.1761L184.327 73.3806C184.48 72.9332 184.915 72.5497 185.669 72.5497C186.385 72.5497 186.777 72.9161 186.777 73.5596V73.5852C186.777 74.0284 186.312 74.0497 185.158 74.1733C183.888 74.3096 182.673 74.6889 182.673 76.1633C182.673 77.4502 183.615 78.1321 184.864 78.1321ZM186.572 69.2045C186.568 69.6221 186.33 69.9929 185.729 69.9929C185.119 69.9929 184.889 69.6136 184.889 69.2045H183.743C183.739 70.2017 184.51 70.875 185.729 70.875C186.956 70.875 187.727 70.2017 187.727 69.2045H186.572ZM185.264 76.9985C184.621 76.9985 184.16 76.7045 184.16 76.1377C184.16 75.5454 184.676 75.2983 185.366 75.2002C185.771 75.1448 186.581 75.0426 186.781 74.8806V75.6519C186.781 76.3806 186.193 76.9985 185.264 76.9985Z" fill="#292D32"/>
<path d="M189.871 78H191.413V74.0198C191.413 73.2144 191.95 72.669 192.615 72.669C193.267 72.669 193.714 73.1079 193.714 73.7812V78H195.227V73.9176C195.227 73.1804 195.666 72.669 196.412 72.669C197.034 72.669 197.528 73.0355 197.528 73.8451V78H199.075V73.6065C199.075 72.1448 198.232 71.3693 197.03 71.3693C196.08 71.3693 195.355 71.838 195.065 72.5667H194.997C194.746 71.8252 194.111 71.3693 193.229 71.3693C192.351 71.3693 191.695 71.821 191.422 72.5667H191.345V71.4545H189.871V78Z" fill="#292D32"/>
<path d="M205.159 69.2727H203.617V78H205.159V69.2727Z" fill="#292D32"/>
<path d="M208.629 78.1321C209.656 78.1321 210.27 77.6505 210.551 77.1008H210.602V78H212.085V73.6193C212.085 71.8892 210.675 71.3693 209.426 71.3693C208.05 71.3693 206.993 71.9829 206.652 73.1761L208.092 73.3806C208.246 72.9332 208.68 72.5497 209.435 72.5497C210.151 72.5497 210.543 72.9161 210.543 73.5596V73.5852C210.543 74.0284 210.078 74.0497 208.923 74.1733C207.653 74.3096 206.439 74.6889 206.439 76.1633C206.439 77.4502 207.381 78.1321 208.629 78.1321ZM208.241 70.6576C208.241 70.2698 208.455 70.0099 208.757 70.0099C209.013 70.0099 209.187 70.1335 209.375 70.2698C209.609 70.436 209.869 70.6193 210.321 70.615C211.08 70.6108 211.672 70.0227 211.68 69.0085L210.764 68.9701C210.76 69.3494 210.555 69.6221 210.232 69.6221C209.984 69.6221 209.793 69.4943 209.584 69.3579C209.337 69.196 209.068 69.017 208.668 69.017C207.905 69.017 207.308 69.6221 207.308 70.6363L208.241 70.6576ZM209.03 76.9985C208.386 76.9985 207.926 76.7045 207.926 76.1377C207.926 75.5454 208.442 75.2983 209.132 75.2002C209.537 75.1448 210.347 75.0426 210.547 74.8806V75.6519C210.547 76.3806 209.959 76.9985 209.03 76.9985Z" fill="#292D32"/>
<path d="M213.636 78H215.179V71.4545H213.636V78ZM214.412 70.5255C214.902 70.5255 215.303 70.1505 215.303 69.6903C215.303 69.2258 214.902 68.8508 214.412 68.8508C213.918 68.8508 213.517 69.2258 213.517 69.6903C213.517 70.1505 213.918 70.5255 214.412 70.5255Z" fill="#292D32"/>
<path d="M219.81 78H221.327V76.9687H221.417C221.659 77.446 222.167 78.115 223.292 78.115C224.834 78.115 225.989 76.892 225.989 74.7358C225.989 72.5539 224.8 71.3693 223.287 71.3693C222.132 71.3693 221.651 72.0639 221.417 72.5369H221.353V69.2727H219.81V78ZM221.323 74.7272C221.323 73.4573 221.868 72.6349 222.861 72.6349C223.888 72.6349 224.417 73.5085 224.417 74.7272C224.417 75.9545 223.88 76.8494 222.861 76.8494C221.877 76.8494 221.323 75.9971 221.323 74.7272Z" fill="#292D32"/>
<path d="M229.184 78.1321C230.211 78.1321 230.825 77.6505 231.106 77.1008H231.157V78H232.64V73.6193C232.64 71.8892 231.229 71.3693 229.981 71.3693C228.604 71.3693 227.548 71.9829 227.207 73.1761L228.647 73.3806C228.8 72.9332 229.235 72.5497 229.989 72.5497C230.705 72.5497 231.097 72.9161 231.097 73.5596V73.5852C231.097 74.0284 230.633 74.0497 229.478 74.1733C228.208 74.3096 226.994 74.6889 226.994 76.1633C226.994 77.4502 227.935 78.1321 229.184 78.1321ZM229.585 76.9985C228.941 76.9985 228.481 76.7045 228.481 76.1377C228.481 75.5454 228.996 75.2983 229.687 75.2002C230.092 75.1448 230.901 75.0426 231.102 74.8806V75.6519C231.102 76.3806 230.513 76.9985 229.585 76.9985ZM229.989 80.3522C230.479 80.3522 230.88 79.9772 230.88 79.517C230.88 79.0525 230.479 78.6775 229.989 78.6775C229.495 78.6775 229.094 79.0525 229.094 79.517C229.094 79.9772 229.495 80.3522 229.989 80.3522Z" fill="#292D32"/>
<path d="M235.734 74.1647C235.734 73.2187 236.305 72.6733 237.119 72.6733C237.915 72.6733 238.393 73.1974 238.393 74.071V78H239.935V73.8323C239.94 72.2642 239.045 71.3693 237.694 71.3693C236.714 71.3693 236.04 71.838 235.742 72.5667H235.665V71.4545H234.191V78H235.734V74.1647Z" fill="#292D32"/>
<path d="M246.909 78.115C248.034 78.115 248.541 77.446 248.784 76.9687H248.878V78H250.395V70.9644H251.2V69.9886H250.395V69.2727H248.848V69.9886H247.118V70.9644H248.848V72.5369H248.784C248.55 72.0639 248.068 71.3693 246.913 71.3693C245.401 71.3693 244.212 72.5539 244.212 74.7358C244.212 76.892 245.366 78.115 246.909 78.115ZM247.339 76.8494C246.321 76.8494 245.784 75.9545 245.784 74.7272C245.784 73.5085 246.312 72.6349 247.339 72.6349C248.332 72.6349 248.878 73.4573 248.878 74.7272C248.878 75.9971 248.324 76.8494 247.339 76.8494Z" fill="#292D32"/>
<path d="M253.922 78.1321C254.949 78.1321 255.563 77.6505 255.844 77.1008H255.895V78H257.378V73.6193C257.378 71.8892 255.968 71.3693 254.719 71.3693C253.343 71.3693 252.286 71.9829 251.945 73.1761L253.385 73.3806C253.539 72.9332 253.973 72.5497 254.728 72.5497C255.444 72.5497 255.836 72.9161 255.836 73.5596V73.5852C255.836 74.0284 255.371 74.0497 254.216 74.1733C252.946 74.3096 251.732 74.6889 251.732 76.1633C251.732 77.4502 252.674 78.1321 253.922 78.1321ZM254.323 76.9985C253.679 76.9985 253.219 76.7045 253.219 76.1377C253.219 75.5454 253.735 75.2983 254.425 75.2002C254.83 75.1448 255.64 75.0426 255.84 74.8806V75.6519C255.84 76.3806 255.252 76.9985 254.323 76.9985Z" fill="#292D32"/>
<path d="M260.472 74.1647C260.472 73.2187 261.043 72.6733 261.857 72.6733C262.654 72.6733 263.131 73.1974 263.131 74.071V78H264.674V73.8323C264.678 72.2642 263.783 71.3693 262.432 71.3693C261.452 71.3693 260.779 71.838 260.48 72.5667H260.404V71.4545H258.929V78H260.472V74.1647Z" fill="#292D32"/>
<path d="M269.088 80.5909C270.857 80.5909 272.161 79.7812 272.161 78.1065V71.4545H270.64V72.5369H270.554C270.32 72.0639 269.83 71.3693 268.675 71.3693C267.162 71.3693 265.973 72.5539 265.973 74.7059C265.973 76.8409 267.162 77.9062 268.671 77.9062C269.792 77.9062 270.316 77.3054 270.554 76.8238H270.631V78.0639C270.631 79.0269 269.992 79.4233 269.114 79.4233C268.185 79.4233 267.776 78.9843 267.588 78.6008L266.199 78.9375C266.48 79.8536 267.422 80.5909 269.088 80.5909ZM269.101 76.696C268.083 76.696 267.546 75.9034 267.546 74.6974C267.546 73.5085 268.074 72.6349 269.101 72.6349C270.094 72.6349 270.64 73.4573 270.64 74.6974C270.64 75.946 270.086 76.696 269.101 76.696Z" fill="#292D32"/>
<path d="M276.718 80.4545H278.261V76.9687H278.325C278.568 77.446 279.075 78.115 280.2 78.115C281.743 78.115 282.897 76.892 282.897 74.7358C282.897 72.5539 281.708 71.3693 280.196 71.3693C279.041 71.3693 278.559 72.0639 278.325 72.5369H278.235V71.4545H276.718V80.4545ZM278.231 74.7272C278.231 73.4573 278.777 72.6349 279.77 72.6349C280.797 72.6349 281.325 73.5085 281.325 74.7272C281.325 75.9545 280.788 76.8494 279.77 76.8494C278.785 76.8494 278.231 75.9971 278.231 74.7272Z" fill="#292D32"/>
<path d="M285.761 74.1647C285.761 73.2187 286.349 72.6733 287.176 72.6733C287.985 72.6733 288.463 73.1889 288.463 74.071V78H290.005V73.8323C290.005 72.2514 289.11 71.3693 287.751 71.3693C286.745 71.3693 286.106 71.8252 285.804 72.5667H285.727V69.2727H284.218V78H285.761V74.1647Z" fill="#292D32"/>
<path d="M293.461 78.1321C294.488 78.1321 295.102 77.6505 295.383 77.1008H295.434V78H296.917V73.6193C296.917 71.8892 295.507 71.3693 294.258 71.3693C292.882 71.3693 291.825 71.9829 291.484 73.1761L292.924 73.3806C293.078 72.9332 293.512 72.5497 294.267 72.5497C294.983 72.5497 295.375 72.9161 295.375 73.5596V73.5852C295.375 74.0284 294.91 74.0497 293.755 74.1733C292.485 74.3096 291.271 74.6889 291.271 76.1633C291.271 77.4502 292.213 78.1321 293.461 78.1321ZM293.862 76.9985C293.218 76.9985 292.758 76.7045 292.758 76.1377C292.758 75.5454 293.274 75.2983 293.964 75.2002C294.369 75.1448 295.179 75.0426 295.379 74.8806V75.6519C295.379 76.3806 294.791 76.9985 293.862 76.9985ZM294.919 70.534V70.142C295.375 70.0738 295.822 69.8309 295.818 69.2897C295.822 68.5823 295.081 68.1477 293.674 68.1477L293.636 68.9105C294.13 68.9105 294.51 69.0127 294.505 69.3196C294.51 69.5582 294.284 69.6903 293.683 69.7159L293.743 70.534H294.919Z" fill="#292D32"/>
<path d="M298.468 78H300.011V71.4545H298.468V78ZM299.244 70.5255C299.734 70.5255 300.135 70.1505 300.135 69.6903C300.135 69.2258 299.734 68.8508 299.244 68.8508C298.75 68.8508 298.349 69.2258 298.349 69.6903C298.349 70.1505 298.75 70.5255 299.244 70.5255Z" fill="#292D32"/>
<path d="M177.061 87.4545H175.77V85.8863H174.227V87.4545H173.298V88.6477H174.227V92.2869C174.219 93.5184 175.114 94.1235 176.273 94.0894C176.712 94.0767 177.014 93.9914 177.18 93.936L176.92 92.7301C176.835 92.7514 176.66 92.7897 176.469 92.7897C176.081 92.7897 175.77 92.6534 175.77 92.0312V88.6477H177.061V87.4545Z" fill="#292D32"/>
<path d="M178.351 94H179.894V90.1519C179.894 89.321 180.52 88.7329 181.368 88.7329C181.628 88.7329 181.952 88.7798 182.084 88.8224V87.4034C181.944 87.3778 181.701 87.3607 181.53 87.3607C180.78 87.3607 180.154 87.7869 179.915 88.5454H179.847V87.4545H178.351V94Z" fill="#292D32"/>
<path d="M184.864 94.1321C185.891 94.1321 186.504 93.6505 186.785 93.1008H186.837V94H188.32V89.6193C188.32 87.8892 186.909 87.3693 185.66 87.3693C184.284 87.3693 183.227 87.9829 182.886 89.1761L184.327 89.3806C184.48 88.9332 184.915 88.5497 185.669 88.5497C186.385 88.5497 186.777 88.9161 186.777 89.5596V89.5852C186.777 90.0284 186.312 90.0497 185.158 90.1732C183.888 90.3096 182.673 90.6889 182.673 92.1633C182.673 93.4502 183.615 94.1321 184.864 94.1321ZM185.264 92.9985C184.621 92.9985 184.16 92.7045 184.16 92.1377C184.16 91.5454 184.676 91.2983 185.366 91.2002C185.771 91.1448 186.581 91.0426 186.781 90.8806V91.6519C186.781 92.3806 186.193 92.9985 185.264 92.9985ZM186.321 86.534V86.142C186.777 86.0738 187.224 85.8309 187.22 85.2897C187.224 84.5823 186.483 84.1477 185.077 84.1477L185.038 84.9105C185.533 84.9105 185.912 85.0127 185.908 85.3196C185.912 85.5582 185.686 85.6903 185.085 85.7159L185.145 86.534H186.321Z" fill="#292D32"/>
<path d="M194.39 90.1647C194.39 89.2187 194.961 88.6732 195.775 88.6732C196.572 88.6732 197.049 89.1974 197.049 90.071V94H198.592V89.8323C198.596 88.2642 197.701 87.3693 196.35 87.3693C195.37 87.3693 194.697 87.838 194.398 88.5667H194.322V87.4545H192.847V94H194.39V90.1647Z" fill="#292D32"/>
<path d="M203.006 96.5909C204.775 96.5909 206.079 95.7812 206.079 94.1065V87.4545H204.558V88.5369H204.472C204.238 88.0639 203.748 87.3693 202.593 87.3693C201.08 87.3693 199.891 88.5539 199.891 90.7059C199.891 92.8409 201.08 93.9062 202.589 93.9062C203.709 93.9062 204.234 93.3054 204.472 92.8238H204.549V94.0639C204.549 95.0269 203.91 95.4232 203.032 95.4232C202.103 95.4232 201.694 94.9843 201.506 94.6008L200.117 94.9375C200.398 95.8536 201.34 96.5909 203.006 96.5909ZM203.019 92.696C202.001 92.696 201.464 91.9034 201.464 90.6974C201.464 89.5085 201.992 88.6349 203.019 88.6349C204.012 88.6349 204.558 89.4573 204.558 90.6974C204.558 91.946 204.004 92.696 203.019 92.696Z" fill="#292D32"/>
<path d="M209.543 94.1321C210.57 94.1321 211.184 93.6505 211.465 93.1008H211.516V94H212.999V89.6193C212.999 87.8892 211.589 87.3693 210.34 87.3693C208.964 87.3693 207.907 87.9829 207.566 89.1761L209.006 89.3806C209.16 88.9332 209.594 88.5497 210.349 88.5497C211.065 88.5497 211.457 88.9161 211.457 89.5596V89.5852C211.457 90.0284 210.992 90.0497 209.837 90.1732C208.567 90.3096 207.353 90.6889 207.353 92.1633C207.353 93.4502 208.295 94.1321 209.543 94.1321ZM209.543 86.6704L210.408 85.5795L211.273 86.6704H212.624V86.6107L211.013 84.7698H209.808L208.192 86.6107V86.6704H209.543ZM209.944 92.9985C209.3 92.9985 208.84 92.7045 208.84 92.1377C208.84 91.5454 209.356 91.2983 210.046 91.2002C210.451 91.1448 211.261 91.0426 211.461 90.8806V91.6519C211.461 92.3806 210.873 92.9985 209.944 92.9985Z" fill="#292D32"/>
<path d="M216.093 90.1647C216.093 89.2187 216.664 88.6732 217.478 88.6732C218.275 88.6732 218.752 89.1974 218.752 90.071V94H220.295V89.8323C220.299 88.2642 219.404 87.3693 218.053 87.3693C217.073 87.3693 216.4 87.838 216.102 88.5667H216.025V87.4545H214.55V94H216.093V90.1647Z" fill="#292D32"/>
<path d="M226.382 90.1647C226.382 89.2187 226.97 88.6732 227.797 88.6732C228.607 88.6732 229.084 89.1889 229.084 90.071V94H230.626V89.8323C230.626 88.2514 229.732 87.3693 228.372 87.3693C227.366 87.3693 226.727 87.8252 226.425 88.5667H226.348V85.2727H224.839V94H226.382V90.1647Z" fill="#292D32"/>
<path d="M234.082 94.1321C235.109 94.1321 235.723 93.6505 236.004 93.1008H236.055V94H237.538V89.6193C237.538 87.8892 236.128 87.3693 234.879 87.3693C233.503 87.3693 232.446 87.9829 232.105 89.1761L233.545 89.3806C233.699 88.9332 234.134 88.5497 234.888 88.5497C235.604 88.5497 235.996 88.9161 235.996 89.5596V89.5852C235.996 90.0284 235.531 90.0497 234.376 90.1732C233.107 90.3096 231.892 90.6889 231.892 92.1633C231.892 93.4502 232.834 94.1321 234.082 94.1321ZM234.483 92.9985C233.839 92.9985 233.379 92.7045 233.379 92.1377C233.379 91.5454 233.895 91.2983 234.585 91.2002C234.99 91.1448 235.8 91.0426 236 90.8806V91.6519C236 92.3806 235.412 92.9985 234.483 92.9985ZM234.385 86.5937H235.54L234.589 84.6463H233.077L234.385 86.5937Z" fill="#292D32"/>
<path d="M240.632 90.1647C240.632 89.2187 241.203 88.6732 242.017 88.6732C242.814 88.6732 243.291 89.1974 243.291 90.071V94H244.834V89.8323C244.838 88.2642 243.943 87.3693 242.592 87.3693C241.612 87.3693 240.939 87.838 240.641 88.5667H240.564V87.4545H239.089V94H240.632V90.1647Z" fill="#292D32"/>
<path d="M249.249 96.5909C251.017 96.5909 252.321 95.7812 252.321 94.1065V87.4545H250.8V88.5369H250.714C250.48 88.0639 249.99 87.3693 248.835 87.3693C247.322 87.3693 246.134 88.5539 246.134 90.7059C246.134 92.8409 247.322 93.9062 248.831 93.9062C249.952 93.9062 250.476 93.3054 250.714 92.8238H250.791V94.0639C250.791 95.0269 250.152 95.4232 249.274 95.4232C248.345 95.4232 247.936 94.9843 247.749 94.6008L246.359 94.9375C246.641 95.8536 247.582 96.5909 249.249 96.5909ZM249.261 92.696C248.243 92.696 247.706 91.9034 247.706 90.6974C247.706 89.5085 248.234 88.6349 249.261 88.6349C250.254 88.6349 250.8 89.4573 250.8 90.6974C250.8 91.946 250.246 92.696 249.261 92.696Z" fill="#292D32"/>
<path fill-rule="evenodd" clip-rule="evenodd" d="M148.488 38.9662C149.19 39.4055 149.437 40.3505 149.038 41.0769C147.17 44.4854 146.518 47.0263 146.745 49.158C146.967 51.2476 148.067 53.251 150.385 55.5344C150.567 55.7145 150.992 56.0142 151.625 56.3768C152.223 56.7195 152.902 57.0589 153.5 57.3328C153.718 57.4324 153.915 57.519 154.088 57.5917C154.405 57.5471 154.741 57.6119 155.042 57.8002C155.157 57.872 155.282 57.9548 155.394 58.0432C155.447 58.0851 155.534 58.1573 155.625 58.2546C155.626 58.2557 155.627 58.2572 155.629 58.259C155.675 58.3077 155.954 58.603 156.046 59.0806C156.108 59.4069 156.085 59.8424 155.83 60.2394C155.599 60.5982 155.289 60.7511 155.116 60.8142C154.815 60.9245 154.548 60.9008 154.485 60.8952L154.481 60.8948C154.297 60.8788 154.13 60.8317 154.043 60.8064C153.653 60.692 153.034 60.4378 152.397 60.1461C151.737 59.8441 150.976 59.4643 150.282 59.067C149.623 58.6895 148.903 58.2285 148.417 57.7497C145.817 55.1877 144.17 52.5326 143.839 49.4143C143.512 46.3381 144.502 43.1215 146.495 39.4862C146.893 38.7598 147.785 38.527 148.488 38.9662ZM154.776 57.8527C154.777 57.8528 154.773 57.852 154.766 57.85C154.773 57.8515 154.776 57.8525 154.776 57.8527Z" fill="white"/>
<path fill-rule="evenodd" clip-rule="evenodd" d="M154.48 53.062C155.02 52.4469 155.944 52.4226 156.544 53.0077C156.866 53.3212 157.192 53.6439 157.52 53.969C158.967 55.4016 160.464 56.8837 161.886 57.8595C162.065 57.9823 162.211 58.0803 162.332 58.1604C162.352 58.1735 162.371 58.1866 162.391 58.1996C162.483 58.2608 162.572 58.3198 162.641 58.3676C162.643 58.369 162.646 58.3708 162.649 58.3731C162.699 58.4074 162.893 58.5396 163.052 58.7208C163.053 58.7218 163.054 58.7228 163.055 58.7239C163.119 58.7974 163.463 59.1876 163.468 59.8055C163.475 60.6036 162.951 61.0072 162.764 61.1242C162.581 61.2378 162.41 61.2852 162.368 61.297C162.366 61.2973 162.365 61.2977 162.364 61.298C162.308 61.3136 162.253 61.3257 162.232 61.3303L162.229 61.3311C162.173 61.3433 162.163 61.3459 162.152 61.3494M154.48 53.062C153.94 53.677 153.989 54.65 154.589 55.235L154.48 53.062ZM154.589 55.235C154.864 55.5029 155.157 55.7929 155.463 56.0964L154.589 55.235ZM155.463 56.0964C156.594 57.2188 157.912 58.527 159.234 59.5933L155.463 56.0964ZM159.234 59.5933C159.015 59.7173 158.764 59.8552 158.482 60.0052C157.54 60.5069 156.383 61.0762 155.249 61.5926C154.11 62.1117 153.027 62.5627 152.223 62.8382C151.897 62.9501 151.652 63.0207 151.486 63.0583C151.133 62.9605 150.748 62.999 150.411 63.1975C149.715 63.6069 149.482 64.5416 149.891 65.2853C150.308 66.0444 151.046 66.1341 151.213 66.1512C151.48 66.1786 151.733 66.1475 151.914 66.1169C152.296 66.0525 152.747 65.9189 153.2 65.7635C154.126 65.446 155.302 64.9533 156.475 64.4187C157.654 63.8814 158.862 63.2872 159.86 62.756C160.799 62.2568 161.701 61.7362 162.151 61.3496M151.32 63.0884C151.32 63.0884 151.321 63.0883 151.323 63.0882C151.321 63.0884 151.32 63.0884 151.32 63.0884Z" fill="white"/>
<defs>
<linearGradient id="paint0_linear" x1="188.741" y1="0.723407" x2="253.024" y2="56.187" gradientUnits="userSpaceOnUse">
<stop stop-color="#ECEFF0"/>
<stop offset="1" stop-color="white"/>
</linearGradient>
<linearGradient id="paint1_linear" x1="188.741" y1="0.723407" x2="253.024" y2="56.187" gradientUnits="userSpaceOnUse">
<stop stop-color="#ECEFF0"/>
<stop offset="1" stop-color="white"/>
</linearGradient>
<linearGradient id="paint2_linear" x1="188.741" y1="0.723407" x2="253.024" y2="56.187" gradientUnits="userSpaceOnUse">
<stop stop-color="#ECEFF0"/>
<stop offset="1" stop-color="white"/>
</linearGradient>
<linearGradient id="paint3_linear" x1="188.741" y1="0.723407" x2="253.024" y2="56.187" gradientUnits="userSpaceOnUse">
<stop stop-color="#ECEFF0"/>
<stop offset="1" stop-color="white"/>
</linearGradient>
<linearGradient id="paint4_linear" x1="188.741" y1="0.723407" x2="253.024" y2="56.187" gradientUnits="userSpaceOnUse">
<stop stop-color="#ECEFF0"/>
<stop offset="1" stop-color="white"/>
</linearGradient>
</defs>
</svg>
