<svg width="198" height="90" viewBox="0 0 198 90" fill="none" xmlns="http://www.w3.org/2000/svg">
<g filter="url(#filter0_d)">
<path d="M20.2722 22.4545H16.3517V37H20.2722V22.4545Z" fill="url(#paint0_linear)"/>
<path d="M25.3095 37.1705C26.7299 37.1705 27.8024 36.6875 28.4629 35.4659H28.5481V37H32.2129V29.5284C32.2129 27.5114 30.3024 25.9489 27.1845 25.9489C23.9245 25.9489 22.3194 27.6534 22.1845 29.642H25.7924C25.8848 28.9673 26.3819 28.6477 27.1277 28.6477C27.8095 28.6477 28.2924 28.9602 28.2924 29.5284V29.5568C28.2924 30.1889 27.5964 30.3878 25.764 30.5227C23.5126 30.6861 21.7583 31.5952 21.7583 33.9886C21.7583 36.1619 23.2214 37.1705 25.3095 37.1705ZM26.0197 24.7273H28.6049L27.2413 21.5455H23.889L26.0197 24.7273ZM26.5879 34.6989C25.9203 34.6989 25.4515 34.3722 25.4515 33.7614C25.4515 33.2003 25.8493 32.767 26.7583 32.625C27.3833 32.5256 27.9089 32.3977 28.3208 32.2273V33.1364C28.3208 34.1307 27.4757 34.6989 26.5879 34.6989Z" fill="url(#paint1_linear)"/>
<path d="M43.3262 37.1989C46.5577 37.1989 48.5392 35.3452 48.5819 32.4545H44.9455C44.8603 33.598 44.2424 34.2159 43.383 34.2159C42.3532 34.2159 41.6784 33.3352 41.6784 31.5455C41.6784 29.7557 42.3532 28.875 43.383 28.875C44.2495 28.875 44.839 29.4929 44.9455 30.6364H48.5819C48.5605 27.7955 46.5364 25.9489 43.3262 25.9489C39.775 25.9489 37.6728 28.2216 37.6728 31.5739C37.6728 34.9261 39.775 37.1989 43.3262 37.1989Z" fill="url(#paint2_linear)"/>
<path d="M53.2392 37.1705C54.6596 37.1705 55.7321 36.6875 56.3926 35.4659H56.4778V37H60.1426V29.5284C60.1426 27.5114 58.2321 25.9489 55.1142 25.9489C51.8542 25.9489 50.2491 27.6534 50.1142 29.642H53.7221C53.8145 28.9673 54.3116 28.6477 55.0573 28.6477C55.7392 28.6477 56.2221 28.9602 56.2221 29.5284V29.5568C56.2221 30.1889 55.5261 30.3878 53.6937 30.5227C51.4423 30.6861 49.688 31.5952 49.688 33.9886C49.688 36.1619 51.1511 37.1705 53.2392 37.1705ZM53.921 24.7273H56.5062L58.6369 21.5455H55.2846L53.921 24.7273ZM54.5176 34.6989C53.85 34.6989 53.3812 34.3722 53.3812 33.7614C53.3812 33.2003 53.7789 32.767 54.688 32.625C55.313 32.5256 55.8386 32.3977 56.2505 32.2273V33.1364C56.2505 34.1307 55.4054 34.6989 54.5176 34.6989Z" fill="url(#paint3_linear)"/>
<path d="M67.2715 37.1989C70.503 37.1989 72.4846 35.3452 72.5272 32.4545H68.8908C68.8056 33.598 68.1877 34.2159 67.3283 34.2159C66.2985 34.2159 65.6238 33.3352 65.6238 31.5455C65.6238 29.7557 66.2985 28.875 67.3283 28.875C68.1948 28.875 68.7843 29.4929 68.8908 30.6364H72.5272C72.5059 27.7955 70.4817 25.9489 67.2715 25.9489C63.7203 25.9489 61.6181 28.2216 61.6181 31.5739C61.6181 34.9261 63.7203 37.1989 67.2715 37.1989Z" fill="url(#paint4_linear)"/>
<path d="M85.9132 27H89.6916C89.6774 24.1449 87.4757 22.2557 83.953 22.2557C80.4941 22.2557 78.051 24.1165 78.0723 26.8864C78.0652 29.1591 79.6419 30.4233 82.22 30.9773L83.6689 31.2898C85.2882 31.6449 85.8421 32.0497 85.8564 32.7102C85.8421 33.4276 85.1887 33.9318 83.9245 33.9318C82.4118 33.9318 81.5169 33.2216 81.453 31.8864H77.7029C77.7171 35.5369 80.1887 37.1705 83.9814 37.1705C87.6674 37.1705 89.8762 35.5795 89.8905 32.7102C89.8762 30.4943 88.5552 28.9389 85.345 28.25L84.1518 27.9943C82.774 27.7031 82.1561 27.2983 82.1916 26.6023C82.1987 25.9631 82.7314 25.4943 83.953 25.4943C85.2314 25.4943 85.8351 26.0554 85.9132 27Z" fill="url(#paint5_linear)"/>
<path d="M96.6767 37.1989C99.7022 37.1989 101.648 35.75 102.018 33.4773H98.438C98.2108 34.0952 97.5645 34.4432 96.7619 34.4432C95.5971 34.4432 94.9153 33.6761 94.9153 32.625V32.4545H102.018V31.5455C102.018 28.0724 99.8869 25.9489 96.5914 25.9489C93.2108 25.9489 91.0517 28.1932 91.0517 31.5739C91.0517 35.1037 93.1824 37.1989 96.6767 37.1989ZM94.9153 30.2955C94.9366 29.3509 95.7179 28.7045 96.6767 28.7045C97.6497 28.7045 98.3883 29.358 98.4096 30.2955H94.9153Z" fill="url(#paint6_linear)"/>
<path d="M107.538 30.8636C107.545 29.7841 108.156 29.1307 109.129 29.1307C110.116 29.1307 110.698 29.7841 110.691 30.8636V37H114.612V30.0398C114.619 27.6676 113.12 25.9489 110.805 25.9489C109.2 25.9489 107.928 26.7869 107.453 28.1648H107.339V26.0909H103.617V37H107.538V30.8636Z" fill="url(#paint7_linear)"/>
<path d="M116.547 37H120.468V26.0909H116.547V37ZM118.507 24.9545C119.573 24.9545 120.439 24.152 120.439 23.1648C120.439 22.1776 119.573 21.375 118.507 21.375C117.442 21.375 116.575 22.1776 116.575 23.1648C116.575 24.152 117.442 24.9545 118.507 24.9545Z" fill="url(#paint8_linear)"/>
<path d="M127.721 37.1989C131.272 37.1989 133.374 34.9261 133.374 31.5739C133.374 28.2216 131.272 25.9489 127.721 25.9489C124.17 25.9489 122.067 28.2216 122.067 31.5739C122.067 34.9261 124.17 37.1989 127.721 37.1989ZM127.749 34.3011C126.698 34.3011 126.073 33.2571 126.073 31.5455C126.073 29.8338 126.698 28.7898 127.749 28.7898C128.743 28.7898 129.368 29.8338 129.368 31.5455C129.368 33.2571 128.743 34.3011 127.749 34.3011Z" fill="url(#paint9_linear)"/>
<path d="M134.965 37H138.885V31.3182C138.885 30.0682 139.745 29.2443 140.903 29.2443C141.307 29.2443 141.961 29.3082 142.351 29.4432V26.098C142.039 26.0057 141.698 25.9489 141.357 25.9489C140.192 25.9489 139.283 26.6307 138.885 28.1648H138.772V26.0909H134.965V37Z" fill="url(#paint10_linear)"/>
</g>
<path d="M143.418 55.9543C143.423 54.8293 144.094 54.1702 145.071 54.1702C146.043 54.1702 146.628 54.8066 146.622 55.8748V60.9998H149.043V55.443C149.043 53.4089 147.849 52.1589 146.031 52.1589C144.736 52.1589 143.798 52.7952 143.406 53.8123H143.304V52.2725H140.997V60.9998H143.418V55.9543Z" fill="url(#paint11_linear)"/>
<path d="M153.439 61.1646C154.729 61.1646 155.564 60.6021 155.99 59.7896H156.058V60.9998H158.354V55.1134C158.354 53.0339 156.592 52.1589 154.649 52.1589C152.558 52.1589 151.183 53.1589 150.848 54.7498L153.087 54.9316C153.251 54.3521 153.768 53.9259 154.638 53.9259C155.462 53.9259 155.933 54.3407 155.933 55.0566V55.0907C155.933 55.6532 155.337 55.7271 153.82 55.8748C152.092 56.0339 150.541 56.6134 150.541 58.5623C150.541 60.2896 151.774 61.1646 153.439 61.1646ZM155.865 49.2271C155.865 49.7611 155.547 50.2441 154.74 50.2441C153.911 50.2441 153.604 49.7498 153.609 49.2271H151.933C151.933 50.6021 153.018 51.5225 154.74 51.5225C156.462 51.5225 157.547 50.6021 157.553 49.2271H155.865ZM154.132 59.4941C153.388 59.4941 152.854 59.1475 152.854 58.4827C152.854 57.8009 153.416 57.4657 154.268 57.3464C154.797 57.2725 155.661 57.1475 155.95 56.9543V57.8805C155.95 58.7952 155.195 59.4941 154.132 59.4941Z" fill="url(#paint12_linear)"/>
<path d="M160.232 60.9998H162.652V55.7611C162.652 54.7952 163.266 54.1532 164.072 54.1532C164.868 54.1532 165.402 54.6986 165.402 55.5566V60.9998H167.749V55.6702C167.749 54.7668 168.266 54.1532 169.146 54.1532C169.919 54.1532 170.499 54.6361 170.499 55.6077V60.9998H172.913V55.1305C172.913 53.2384 171.788 52.1589 170.163 52.1589C168.885 52.1589 167.891 52.8123 167.533 53.8123H167.442C167.163 52.8009 166.271 52.1589 165.072 52.1589C163.896 52.1589 163.004 52.7839 162.641 53.8123H162.538V52.2725H160.232V60.9998Z" fill="url(#paint13_linear)"/>
<path d="M103.966 80.9998H106.386V78.2271L107.04 77.4827L109.42 80.9998H112.256L108.852 76.0509L112.091 72.2725H109.313L106.517 75.585H106.386V69.3634H103.966V80.9998Z" fill="url(#paint14_linear)"/>
<path d="M113.278 80.9998H115.699V72.2725H113.278V80.9998ZM114.494 71.1475C115.216 71.1475 115.807 70.5964 115.807 69.9202C115.807 69.2498 115.216 68.6986 114.494 68.6986C113.778 68.6986 113.188 69.2498 113.188 69.9202C113.188 70.5964 113.778 71.1475 114.494 71.1475Z" fill="url(#paint15_linear)"/>
<path d="M120.058 75.9543C120.064 74.8293 120.734 74.1702 121.712 74.1702C122.683 74.1702 123.268 74.8066 123.263 75.8748V80.9998H125.683V75.443C125.683 73.4089 124.49 72.1589 122.672 72.1589C121.376 72.1589 120.439 72.7952 120.047 73.8123H119.945V72.2725H117.638V80.9998H120.058V75.9543Z" fill="url(#paint16_linear)"/>
<path d="M130.011 75.9543C130.017 74.8293 130.705 74.1702 131.693 74.1702C132.676 74.1702 133.256 74.8009 133.25 75.8748V80.9998H135.67V75.443C135.676 73.3975 134.472 72.1589 132.653 72.1589C131.33 72.1589 130.443 72.7839 130.045 73.8123H129.943V69.3634H127.591V80.9998H130.011V75.9543Z" fill="url(#paint17_linear)"/>
<path d="M143.699 75.9543C143.705 74.8293 144.375 74.1702 145.352 74.1702C146.324 74.1702 146.909 74.8066 146.903 75.8748V80.9998H149.324V75.443C149.324 73.4089 148.131 72.1589 146.313 72.1589C145.017 72.1589 144.08 72.7952 143.688 73.8123H143.585V72.2725H141.278V80.9998H143.699V75.9543Z" fill="url(#paint18_linear)"/>
<path d="M155.163 84.4543C157.658 84.4543 159.43 83.318 159.43 81.085V72.2725H157.027V73.7384H156.936C156.612 73.0282 155.902 72.1589 154.442 72.1589C152.527 72.1589 150.908 73.6475 150.908 76.6191C150.908 79.5225 152.482 80.8748 154.447 80.8748C155.839 80.8748 156.618 80.1759 156.936 79.4543H157.038V81.0509C157.038 82.2498 156.271 82.7157 155.22 82.7157C154.152 82.7157 153.612 82.2498 153.413 81.7214L151.175 82.0225C151.464 83.3975 152.811 84.4543 155.163 84.4543ZM155.214 79.0566C154.027 79.0566 153.379 78.1134 153.379 76.6077C153.379 75.1248 154.016 74.085 155.214 74.085C156.391 74.085 157.05 75.0793 157.05 76.6077C157.05 78.1475 156.379 79.0566 155.214 79.0566Z" fill="url(#paint19_linear)"/>
<path d="M163.777 75.9543C163.783 74.8293 164.47 74.1702 165.459 74.1702C166.442 74.1702 167.021 74.8009 167.016 75.8748V80.9998H169.436V75.443C169.442 73.3975 168.237 72.1589 166.419 72.1589C165.095 72.1589 164.209 72.7839 163.811 73.8123H163.709V69.3634H161.357V80.9998H163.777V75.9543Z" fill="url(#paint20_linear)"/>
<path d="M171.341 80.9998H173.761V72.2725H171.341V80.9998ZM172.557 71.1475C173.278 71.1475 173.869 70.5964 173.869 69.9202C173.869 69.2498 173.278 68.6986 172.557 68.6986C171.841 68.6986 171.25 69.2498 171.25 69.9202C171.25 70.5964 171.841 71.1475 172.557 71.1475Z" fill="url(#paint21_linear)"/>
<path d="M179.678 81.1702C181.837 81.1702 183.291 80.1191 183.632 78.4998L181.393 78.3521C181.149 79.0168 180.524 79.3634 179.717 79.3634C178.507 79.3634 177.74 78.5623 177.74 77.2611V77.2555H183.683V76.5907C183.683 73.6248 181.888 72.1589 179.581 72.1589C177.013 72.1589 175.348 73.9827 175.348 76.6759C175.348 79.443 176.99 81.1702 179.678 81.1702ZM178.382 71.2384L179.524 69.8521L180.666 71.2384H182.729V71.1589L180.422 68.6589H178.621L176.32 71.1589V71.2384H178.382ZM177.74 75.7555C177.791 74.7611 178.547 73.9657 179.621 73.9657C180.672 73.9657 181.399 74.7157 181.405 75.7555H177.74ZM179.524 84.2725C180.246 84.2725 180.837 83.7214 180.837 83.0452C180.837 82.3748 180.246 81.8236 179.524 81.8236C178.808 81.8236 178.217 82.3748 178.217 83.0452C178.217 83.7214 178.808 84.2725 179.524 84.2725Z" fill="url(#paint22_linear)"/>
<path d="M185.263 80.9998H187.683V75.7611C187.683 74.7952 188.297 74.1532 189.104 74.1532C189.899 74.1532 190.433 74.6986 190.433 75.5566V80.9998H192.78V75.6702C192.78 74.7668 193.297 74.1532 194.178 74.1532C194.95 74.1532 195.53 74.6361 195.53 75.6077V80.9998H197.945V75.1305C197.945 73.2384 196.82 72.1589 195.195 72.1589C193.916 72.1589 192.922 72.8123 192.564 73.8123H192.473C192.195 72.8009 191.303 72.1589 190.104 72.1589C188.928 72.1589 188.036 72.7839 187.672 73.8123H187.57V72.2725H185.263V80.9998Z" fill="url(#paint23_linear)"/>
<path d="M112.17 62.9116H115.511V54.7383H123.685V51.3974H115.511V43.2241H112.17V51.3974H103.997V54.7383H112.17V62.9116Z" fill="url(#paint24_linear)"/>
<path d="M83.733 80.4769C91.5739 80.4769 97.1818 76.1644 97.1648 70.1985C97.1818 65.8519 94.4205 62.7496 89.2898 62.1019V61.8292C93.1932 61.1303 95.8864 58.369 95.8693 54.4485C95.8864 48.9428 91.0625 44.6133 83.8352 44.6133C76.6761 44.6133 71.2898 48.8065 71.1875 54.8406H78.2614C78.3466 52.1815 80.7841 50.4599 83.8011 50.4599C86.7841 50.4599 88.7784 52.2667 88.7614 54.8917C88.7784 57.636 86.4432 59.494 83.0852 59.494H79.8295V64.9144H83.0852C87.0398 64.9144 89.5114 66.8917 89.4943 69.7042C89.5114 72.4826 87.125 74.3917 83.75 74.3917C80.4943 74.3917 78.0568 72.6871 77.9205 70.1303H70.4886C70.608 76.2326 76.0625 80.4769 83.733 80.4769Z" fill="url(#paint25_linear)"/>
<path d="M17.4545 11.9999C20.5568 11.9999 22.3963 10.0808 22.3963 6.89902C22.3963 3.72714 20.5568 1.81805 17.5241 1.81805H14.0043V6.09859H12.5376V7.23708H14.0043V11.9999H17.4545ZM15.8487 10.404V7.23708H17.3004V6.09859H15.8487V3.41393H17.4197C19.4879 3.41393 20.5668 4.56734 20.5668 6.89902C20.5668 9.24063 19.4879 10.404 17.3651 10.404H15.8487Z" fill="#292D32"/>
<path d="M27.4002 12.149C29.6374 12.149 31.0593 10.573 31.0593 8.21152C31.0593 5.84504 29.6374 4.26407 27.4002 4.26407C25.163 4.26407 23.7411 5.84504 23.7411 8.21152C23.7411 10.573 25.163 12.149 27.4002 12.149ZM27.4102 10.7073C26.1722 10.7073 25.5657 9.60356 25.5657 8.20654C25.5657 6.80953 26.1722 5.69092 27.4102 5.69092C28.6282 5.69092 29.2347 6.80953 29.2347 8.20654C29.2347 9.60356 28.6282 10.7073 27.4102 10.7073ZM24.82 3.4885H26.3214L27.4052 2.57373L28.484 3.4885H29.9805L27.957 1.85285H26.8335L24.82 3.4885ZM29.4485 2.49418H30.5969L32.1332 0.659668H30.5522L29.4485 2.49418Z" fill="#292D32"/>
<path d="M32.5868 11.9999H34.3865V4.3635H32.5868V11.9999ZM33.4917 3.2797C34.0634 3.2797 34.5307 2.8422 34.5307 2.30526C34.5307 1.76336 34.0634 1.32586 33.4917 1.32586C32.915 1.32586 32.4476 1.76336 32.4476 2.30526C32.4476 2.8422 32.915 3.2797 33.4917 3.2797Z" fill="#292D32"/>
<path d="M43.5231 4.3635H42.0167V2.53396H40.217V4.3635H39.1332V5.75555H40.217V10.0013C40.207 11.4381 41.2511 12.144 42.6033 12.1043C43.1154 12.0894 43.4684 11.9899 43.6623 11.9253L43.359 10.5183C43.2596 10.5432 43.0558 10.5879 42.832 10.5879C42.3796 10.5879 42.0167 10.4288 42.0167 9.70299V5.75555H43.5231V4.3635Z" fill="#292D32"/>
<path d="M52.7044 3.97075C52.6994 4.92529 52.6149 5.4324 51.725 5.55171V4.3635H49.9252V8.78822C49.9252 9.95157 49.095 10.5283 48.2995 10.5283C47.4345 10.5283 46.8578 9.91677 46.8578 8.94731V4.3635H45.0581V9.22572C45.0581 11.0602 46.1021 12.0993 47.6035 12.0993C48.747 12.0993 49.5524 11.4977 49.9004 10.6426H49.9799V11.9999H51.725V6.46152C53.3457 6.33225 53.8578 5.48708 53.8627 3.97075H52.7044Z" fill="#292D32"/>
<path d="M61.1064 3.87629C61.1064 4.61208 61.0119 5.16393 60.6191 5.43737C59.9828 4.69163 59.0382 4.26407 57.8748 4.26407C55.6376 4.26407 54.2157 5.84504 54.2157 8.21152C54.2157 10.573 55.6376 12.149 57.8748 12.149C60.112 12.149 61.5339 10.573 61.5339 8.21152C61.5339 7.46578 61.3947 6.79958 61.1312 6.23779C61.9565 5.85498 62.3095 5.0297 62.3095 3.87629H61.1064ZM57.8848 10.7073C56.6468 10.7073 56.0403 9.60356 56.0403 8.20654C56.0403 6.80953 56.6468 5.69092 57.8848 5.69092C59.1028 5.69092 59.7093 6.80953 59.7093 8.20654C59.7093 9.60356 59.1028 10.7073 57.8848 10.7073ZM57.8798 14.7442C58.4515 14.7442 58.9189 14.3067 58.9189 13.7698C58.9189 13.2278 58.4515 12.7904 57.8798 12.7904C57.3031 12.7904 56.8358 13.2278 56.8358 13.7698C56.8358 14.3067 57.3031 14.7442 57.8798 14.7442Z" fill="#292D32"/>
<path d="M65.0389 7.52544C65.0389 6.42174 65.7051 5.78538 66.6547 5.78538C67.5843 5.78538 68.1412 6.39688 68.1412 7.41606V11.9999H69.9409V7.13765C69.9458 5.30811 68.9018 4.26407 67.3258 4.26407C66.1823 4.26407 65.3968 4.81095 65.0488 5.66109H64.9593V4.3635H63.2392V11.9999H65.0389V7.52544Z" fill="#292D32"/>
<path d="M75.0914 15.0226C77.1547 15.0226 78.676 14.078 78.676 12.1242V4.3635H76.9011V5.62629H76.8017C76.5282 5.07444 75.9565 4.26407 74.6092 4.26407C72.8443 4.26407 71.4572 5.64617 71.4572 8.15683C71.4572 10.6476 72.8443 11.8905 74.6042 11.8905C75.9118 11.8905 76.5233 11.1895 76.8017 10.6277H76.8912V12.0744C76.8912 13.198 76.1454 13.6604 75.1213 13.6604C74.0375 13.6604 73.5602 13.1483 73.3414 12.7009L71.7207 13.0936C72.0488 14.1625 73.1475 15.0226 75.0914 15.0226ZM75.1064 10.4786C73.9181 10.4786 73.2917 9.55384 73.2917 8.14688C73.2917 6.75981 73.9082 5.74063 75.1064 5.74063C76.2647 5.74063 76.9011 6.70015 76.9011 8.14688C76.9011 9.60356 76.2548 10.4786 75.1064 10.4786Z" fill="#292D32"/>
<path d="M86.1905 12.154C87.3887 12.154 88.1046 11.5922 88.4327 10.9509H88.4924V11.9999H90.2225V6.88907C90.2225 4.87061 88.5769 4.26407 87.1202 4.26407C85.5144 4.26407 84.2814 4.97998 83.8837 6.37203L85.5641 6.61066C85.7431 6.08865 86.2502 5.6412 87.1301 5.6412C87.9654 5.6412 88.4228 6.06876 88.4228 6.81947V6.8493C88.4228 7.36635 87.8809 7.3912 86.5336 7.53538C85.052 7.69447 83.6351 8.13694 83.6351 9.85711C83.6351 11.3585 84.7338 12.154 86.1905 12.154ZM86.6578 10.8315C85.9071 10.8315 85.3702 10.4885 85.3702 9.82728C85.3702 9.13623 85.9718 8.84788 86.7772 8.73353C87.2495 8.6689 88.1941 8.54958 88.4277 8.36066V9.26052C88.4277 10.1107 87.7417 10.8315 86.6578 10.8315ZM86.5087 3.35924H87.856L89.3823 1.08723H87.6223L86.5087 3.35924Z" fill="#292D32"/>
<path d="M92.0321 14.8635H93.8319V10.7967H93.9064C94.1898 11.3536 94.7814 12.1341 96.0939 12.1341C97.8936 12.1341 99.2409 10.7073 99.2409 8.19163C99.2409 5.64617 97.8539 4.26407 96.089 4.26407C94.7417 4.26407 94.1799 5.07444 93.9064 5.62629H93.802V4.3635H92.0321V14.8635ZM93.797 8.18169C93.797 6.70015 94.4334 5.74063 95.5918 5.74063C96.7899 5.74063 97.4064 6.75981 97.4064 8.18169C97.4064 9.6135 96.78 10.6575 95.5918 10.6575C94.4434 10.6575 93.797 9.66322 93.797 8.18169Z" fill="#292D32"/>
<path d="M107.089 12.1341C108.401 12.1341 108.993 11.3536 109.276 10.7967H109.385V11.9999H111.155V1.81805H109.351V5.62629H109.276C109.003 5.07444 108.441 4.26407 107.094 4.26407C105.329 4.26407 103.942 5.64617 103.942 8.19163C103.942 10.7073 105.289 12.1341 107.089 12.1341ZM107.591 10.6575C106.403 10.6575 105.776 9.6135 105.776 8.18169C105.776 6.75981 106.393 5.74063 107.591 5.74063C108.749 5.74063 109.385 6.70015 109.385 8.18169C109.385 9.66322 108.739 10.6575 107.591 10.6575Z" fill="#292D32"/>
<path d="M117.94 8.78822C117.94 9.95157 117.11 10.5283 116.315 10.5283C115.45 10.5283 114.873 9.91677 114.873 8.94731V4.3635H113.073V9.22572C113.073 11.0602 114.117 12.0993 115.619 12.0993C116.762 12.0993 117.567 11.4977 117.915 10.6426H117.995V11.9999H119.74V4.3635H117.94V8.78822ZM116.628 14.7442C117.2 14.7442 117.667 14.3067 117.667 13.7698C117.667 13.2278 117.2 12.7904 116.628 12.7904C116.051 12.7904 115.584 13.2278 115.584 13.7698C115.584 14.3067 116.051 14.7442 116.628 14.7442Z" fill="#292D32"/>
<path d="M123.39 7.52544C123.39 6.42174 124.057 5.78538 125.006 5.78538C125.936 5.78538 126.493 6.39688 126.493 7.41606V11.9999H128.292V7.13765C128.297 5.30811 127.253 4.26407 125.677 4.26407C124.534 4.26407 123.748 4.81095 123.4 5.66109H123.311V4.3635H121.591V11.9999H123.39V7.52544Z" fill="#292D32"/>
<path d="M133.443 15.0226C135.506 15.0226 137.028 14.078 137.028 12.1242V4.3635H135.253V5.62629H135.153C134.88 5.07444 134.308 4.26407 132.961 4.26407C131.196 4.26407 129.809 5.64617 129.809 8.15683C129.809 10.6476 131.196 11.8905 132.956 11.8905C134.263 11.8905 134.875 11.1895 135.153 10.6277H135.243V12.0744C135.243 13.198 134.497 13.6604 133.473 13.6604C132.389 13.6604 131.912 13.1483 131.693 12.7009L130.072 13.0936C130.4 14.1625 131.499 15.0226 133.443 15.0226ZM133.458 10.4786C132.27 10.4786 131.643 9.55384 131.643 8.14688C131.643 6.75981 132.26 5.74063 133.458 5.74063C134.616 5.74063 135.253 6.70015 135.253 8.14688C135.253 9.60356 134.606 10.4786 133.458 10.4786Z" fill="#292D32"/>
<path fill-rule="evenodd" clip-rule="evenodd" d="M27.179 54.0263C28.2571 54.2669 28.9865 55.3455 28.8082 56.4356C27.9624 61.607 28.2735 65.1335 29.5204 67.7469C30.743 70.3093 33.0457 72.3643 37.0174 74.2277C37.3331 74.3758 38.0095 74.5666 38.9767 74.7434C39.8915 74.9107 40.9063 75.0378 41.79 75.1174C42.1138 75.1466 42.406 75.1681 42.6594 75.1831C43.0391 74.9844 43.4921 74.9158 43.9562 75.0193C44.134 75.059 44.3295 75.1078 44.5105 75.1695C44.5962 75.1987 44.7386 75.2508 44.8954 75.3332C44.8973 75.3341 44.8997 75.3354 44.9027 75.3369C44.9823 75.3778 45.4643 75.6254 45.7916 76.1853C46.0153 76.5678 46.1792 77.1258 46.0344 77.7383C45.9036 78.2918 45.5819 78.6215 45.3929 78.7775C45.0622 79.0504 44.7166 79.1389 44.6343 79.16L44.629 79.1613C44.3908 79.2226 44.1581 79.238 44.0374 79.2446C43.4919 79.2741 42.5924 79.229 41.6516 79.1442C40.6783 79.0565 39.5414 78.9153 38.4825 78.7217C37.476 78.5377 36.3566 78.2753 35.5271 77.8861C31.0763 75.798 27.7973 73.1662 25.9807 69.3588C24.1884 65.6025 24.0027 61.0763 24.9042 55.5646C25.0825 54.4745 26.101 53.7858 27.179 54.0263ZM43.6489 75.2054C43.6491 75.2055 43.6446 75.206 43.6346 75.2067C43.6436 75.2057 43.6486 75.2053 43.6489 75.2054Z" fill="white"/>
<path fill-rule="evenodd" clip-rule="evenodd" d="M41.1398 69.2386C41.5456 68.2256 42.697 67.7848 43.7116 68.2539C44.2607 68.5078 44.8191 68.7715 45.3821 69.0373C47.8632 70.2088 50.4325 71.4218 52.6792 72.0245C52.9617 72.1003 53.192 72.1591 53.3811 72.2068C53.4121 72.2147 53.4431 72.2225 53.4739 72.2303C53.6184 72.2666 53.7576 72.3017 53.8665 72.3314C53.8697 72.3323 53.8739 72.3334 53.8791 72.3348C53.9586 72.356 54.2614 72.4365 54.5423 72.5938L54.5472 72.5965C54.6612 72.6602 55.2667 72.9984 55.5475 73.7731C55.9102 74.7737 55.431 75.5137 55.2468 75.7442C55.0678 75.9681 54.8737 76.1037 54.8252 76.1376C54.8237 76.1386 54.8224 76.1395 54.8212 76.1404C54.7574 76.1851 54.6934 76.2249 54.6689 76.2401L54.6646 76.2427C54.6001 76.2829 54.5873 76.2913 54.5737 76.3013C54.5719 76.3027 54.5705 76.3037 54.5694 76.3046C54.1741 76.9951 53.2606 78.0618 52.2904 79.1192C51.2606 80.2416 49.9921 81.5384 48.735 82.7499C47.4843 83.9552 46.2115 85.1083 45.1781 85.9266C44.6721 86.3272 44.1607 86.6982 43.7054 86.9507C43.4896 87.0705 43.1831 87.2227 42.8341 87.3071C42.6159 87.3598 41.6479 87.5743 40.7855 86.8048C39.9411 86.0513 39.8189 84.7728 40.5124 83.9491C40.8499 83.5483 41.3184 83.3291 41.8078 83.2964C42.0031 83.1737 42.2845 82.973 42.6517 82.6822C43.5498 81.971 44.7249 80.9114 45.9398 79.7405C47.1484 78.5758 48.3635 77.333 49.3367 76.2723C49.6368 75.9452 49.9011 75.6491 50.1286 75.3871C47.9631 74.6248 45.6895 73.5487 43.7389 72.6254C43.2138 72.3769 42.712 72.1394 42.2421 71.9221C41.2276 71.453 40.734 70.2515 41.1398 69.2386ZM41.6123 83.4077C41.6123 83.4076 41.6135 83.4071 41.6158 83.4061C41.6135 83.4072 41.6123 83.4077 41.6123 83.4077Z" fill="white"/>
<defs>
<filter id="filter0_d" x="0.35174" y="13.375" width="158" height="47.8239" filterUnits="userSpaceOnUse" color-interpolation-filters="sRGB">
<feFlood flood-opacity="0" result="BackgroundImageFix"/>
<feColorMatrix in="SourceAlpha" type="matrix" values="0 0 0 0 0 0 0 0 0 0 0 0 0 0 0 0 0 0 127 0" result="hardAlpha"/>
<feOffset dy="8"/>
<feGaussianBlur stdDeviation="8"/>
<feComposite in2="hardAlpha" operator="out"/>
<feColorMatrix type="matrix" values="0 0 0 0 0 0 0 0 0 0 0 0 0 0 0 0 0 0 0.08 0"/>
<feBlend mode="normal" in2="BackgroundImageFix" result="effect1_dropShadow"/>
<feBlend mode="normal" in="SourceGraphic" in2="effect1_dropShadow" result="shape"/>
</filter>
<linearGradient id="paint0_linear" x1="22.4334" y1="10" x2="84.4575" y2="43.7355" gradientUnits="userSpaceOnUse">
<stop stop-color="#D6E0E2"/>
<stop offset="1" stop-color="#E8EAEC"/>
</linearGradient>
<linearGradient id="paint1_linear" x1="22.4334" y1="10" x2="84.4575" y2="43.7355" gradientUnits="userSpaceOnUse">
<stop stop-color="#D6E0E2"/>
<stop offset="1" stop-color="#E8EAEC"/>
</linearGradient>
<linearGradient id="paint2_linear" x1="22.4334" y1="10" x2="84.4575" y2="43.7355" gradientUnits="userSpaceOnUse">
<stop stop-color="#D6E0E2"/>
<stop offset="1" stop-color="#E8EAEC"/>
</linearGradient>
<linearGradient id="paint3_linear" x1="22.4334" y1="10" x2="84.4575" y2="43.7355" gradientUnits="userSpaceOnUse">
<stop stop-color="#D6E0E2"/>
<stop offset="1" stop-color="#E8EAEC"/>
</linearGradient>
<linearGradient id="paint4_linear" x1="22.4334" y1="10" x2="84.4575" y2="43.7355" gradientUnits="userSpaceOnUse">
<stop stop-color="#D6E0E2"/>
<stop offset="1" stop-color="#E8EAEC"/>
</linearGradient>
<linearGradient id="paint5_linear" x1="22.4334" y1="10" x2="84.4575" y2="43.7355" gradientUnits="userSpaceOnUse">
<stop stop-color="#D6E0E2"/>
<stop offset="1" stop-color="#E8EAEC"/>
</linearGradient>
<linearGradient id="paint6_linear" x1="22.4334" y1="10" x2="84.4575" y2="43.7355" gradientUnits="userSpaceOnUse">
<stop stop-color="#D6E0E2"/>
<stop offset="1" stop-color="#E8EAEC"/>
</linearGradient>
<linearGradient id="paint7_linear" x1="22.4334" y1="10" x2="84.4575" y2="43.7355" gradientUnits="userSpaceOnUse">
<stop stop-color="#D6E0E2"/>
<stop offset="1" stop-color="#E8EAEC"/>
</linearGradient>
<linearGradient id="paint8_linear" x1="22.4334" y1="10" x2="84.4575" y2="43.7355" gradientUnits="userSpaceOnUse">
<stop stop-color="#D6E0E2"/>
<stop offset="1" stop-color="#E8EAEC"/>
</linearGradient>
<linearGradient id="paint9_linear" x1="22.4334" y1="10" x2="84.4575" y2="43.7355" gradientUnits="userSpaceOnUse">
<stop stop-color="#D6E0E2"/>
<stop offset="1" stop-color="#E8EAEC"/>
</linearGradient>
<linearGradient id="paint10_linear" x1="22.4334" y1="10" x2="84.4575" y2="43.7355" gradientUnits="userSpaceOnUse">
<stop stop-color="#D6E0E2"/>
<stop offset="1" stop-color="#E8EAEC"/>
</linearGradient>
<linearGradient id="paint11_linear" x1="127.753" y1="52.0213" x2="178.255" y2="80.4452" gradientUnits="userSpaceOnUse">
<stop stop-color="#ECEFF0"/>
<stop offset="1" stop-color="white"/>
</linearGradient>
<linearGradient id="paint12_linear" x1="127.753" y1="52.0213" x2="178.255" y2="80.4452" gradientUnits="userSpaceOnUse">
<stop stop-color="#ECEFF0"/>
<stop offset="1" stop-color="white"/>
</linearGradient>
<linearGradient id="paint13_linear" x1="127.753" y1="52.0213" x2="178.255" y2="80.4452" gradientUnits="userSpaceOnUse">
<stop stop-color="#ECEFF0"/>
<stop offset="1" stop-color="white"/>
</linearGradient>
<linearGradient id="paint14_linear" x1="127.753" y1="52.0213" x2="178.255" y2="80.4452" gradientUnits="userSpaceOnUse">
<stop stop-color="#ECEFF0"/>
<stop offset="1" stop-color="white"/>
</linearGradient>
<linearGradient id="paint15_linear" x1="127.753" y1="52.0213" x2="178.255" y2="80.4452" gradientUnits="userSpaceOnUse">
<stop stop-color="#ECEFF0"/>
<stop offset="1" stop-color="white"/>
</linearGradient>
<linearGradient id="paint16_linear" x1="127.753" y1="52.0213" x2="178.255" y2="80.4452" gradientUnits="userSpaceOnUse">
<stop stop-color="#ECEFF0"/>
<stop offset="1" stop-color="white"/>
</linearGradient>
<linearGradient id="paint17_linear" x1="127.753" y1="52.0213" x2="178.255" y2="80.4452" gradientUnits="userSpaceOnUse">
<stop stop-color="#ECEFF0"/>
<stop offset="1" stop-color="white"/>
</linearGradient>
<linearGradient id="paint18_linear" x1="127.753" y1="52.0213" x2="178.255" y2="80.4452" gradientUnits="userSpaceOnUse">
<stop stop-color="#ECEFF0"/>
<stop offset="1" stop-color="white"/>
</linearGradient>
<linearGradient id="paint19_linear" x1="127.753" y1="52.0213" x2="178.255" y2="80.4452" gradientUnits="userSpaceOnUse">
<stop stop-color="#ECEFF0"/>
<stop offset="1" stop-color="white"/>
</linearGradient>
<linearGradient id="paint20_linear" x1="127.753" y1="52.0213" x2="178.255" y2="80.4452" gradientUnits="userSpaceOnUse">
<stop stop-color="#ECEFF0"/>
<stop offset="1" stop-color="white"/>
</linearGradient>
<linearGradient id="paint21_linear" x1="127.753" y1="52.0213" x2="178.255" y2="80.4452" gradientUnits="userSpaceOnUse">
<stop stop-color="#ECEFF0"/>
<stop offset="1" stop-color="white"/>
</linearGradient>
<linearGradient id="paint22_linear" x1="127.753" y1="52.0213" x2="178.255" y2="80.4452" gradientUnits="userSpaceOnUse">
<stop stop-color="#ECEFF0"/>
<stop offset="1" stop-color="white"/>
</linearGradient>
<linearGradient id="paint23_linear" x1="127.753" y1="52.0213" x2="178.255" y2="80.4452" gradientUnits="userSpaceOnUse">
<stop stop-color="#ECEFF0"/>
<stop offset="1" stop-color="white"/>
</linearGradient>
<linearGradient id="paint24_linear" x1="106.795" y1="32.9516" x2="124.786" y2="35.1317" gradientUnits="userSpaceOnUse">
<stop stop-color="#ECEFF0"/>
<stop offset="1" stop-color="white"/>
</linearGradient>
<linearGradient id="paint25_linear" x1="92.7531" y1="44.1804" x2="150.546" y2="66.6129" gradientUnits="userSpaceOnUse">
<stop stop-color="#ECEFF0"/>
<stop offset="1" stop-color="white"/>
</linearGradient>
</defs>
</svg>
