<svg width="257" height="121" viewBox="0 0 257 121" fill="none" xmlns="http://www.w3.org/2000/svg">
<g filter="url(#filter0_d)">
<path d="M42.6165 11.1406H45.7884V20H47.3196V11.1406H50.4964V9.81818H42.6165V11.1406ZM53.6049 15.4659C53.6049 14.2479 54.3755 13.5518 55.4345 13.5518C56.4586 13.5518 57.0701 14.2031 57.0701 15.3217V20H58.5566V15.1428C58.5566 13.2386 57.5126 12.2642 55.9416 12.2642C54.7534 12.2642 54.0375 12.7812 53.6795 13.6065H53.585V9.81818H52.1184V20H53.6049V15.4659ZM66.9238 11.8317C66.9238 12.5824 66.8343 13.1442 66.3819 13.3928C65.7605 12.6719 64.8556 12.2642 63.7569 12.2642C61.6042 12.2642 60.1973 13.8402 60.1973 16.2166C60.1973 18.5781 61.6042 20.1541 63.7569 20.1541C65.9096 20.1541 67.3166 18.5781 67.3166 16.2166C67.3166 15.4361 67.1625 14.7401 66.8841 14.1634C67.7292 13.8004 68.0723 12.9801 68.0723 11.8317H66.9238ZM63.7619 18.9062C62.3549 18.9062 61.6987 17.6783 61.6987 16.2116C61.6987 14.75 62.3549 13.5071 63.7619 13.5071C65.1589 13.5071 65.8152 14.75 65.8152 16.2116C65.8152 17.6783 65.1589 18.9062 63.7619 18.9062ZM63.1802 11.3445H64.3684L63.21 9.05256H61.644L63.1802 11.3445ZM69.0716 20H70.5581V12.3636H69.0716V20ZM69.8223 11.1854C70.3343 11.1854 70.7619 10.7876 70.7619 10.3004C70.7619 9.81321 70.3343 9.41051 69.8223 9.41051C69.3052 9.41051 68.8826 9.81321 68.8826 10.3004C68.8826 10.7876 69.3052 11.1854 69.8223 11.1854ZM79.4647 23.0227C81.4086 23.0227 82.91 22.1328 82.91 20.169V12.3636H81.4533V13.6016H81.3439C81.0804 13.1293 80.5534 12.2642 79.1316 12.2642C77.2871 12.2642 75.9299 13.7209 75.9299 16.152C75.9299 18.5881 77.3169 19.8857 79.1216 19.8857C80.5236 19.8857 81.0655 19.0952 81.334 18.608H81.4284V20.1094C81.4284 21.3075 80.6081 21.8246 79.4796 21.8246C78.2417 21.8246 77.7594 21.2031 77.4959 20.7656L76.2182 21.2926C76.6209 22.2273 77.6401 23.0227 79.4647 23.0227ZM79.4498 18.6527C78.1223 18.6527 77.4313 17.6335 77.4313 16.1321C77.4313 14.6655 78.1074 13.527 79.4498 13.527C80.7473 13.527 81.4434 14.5859 81.4434 16.1321C81.4434 17.7081 80.7324 18.6527 79.4498 18.6527ZM84.9036 20H86.3901V12.3636H84.9036V20ZM85.6543 11.1854C86.1664 11.1854 86.5939 10.7876 86.5939 10.3004C86.5939 9.81321 86.1664 9.41051 85.6543 9.41051C85.1373 9.41051 84.7147 9.81321 84.7147 10.3004C84.7147 10.7876 85.1373 11.1854 85.6543 11.1854ZM90.6122 20.169C91.875 20.169 92.5859 19.5277 92.8693 18.956H92.929V20H94.3807V14.929C94.3807 12.7067 92.6307 12.2642 91.4176 12.2642C90.0355 12.2642 88.7628 12.821 88.2656 14.2131L89.6626 14.5312C89.8814 13.9893 90.4382 13.4673 91.4375 13.4673C92.397 13.4673 92.8892 13.9695 92.8892 14.8345V14.8693C92.8892 15.4112 92.3324 15.4013 90.9602 15.5604C89.5135 15.7294 88.032 16.1072 88.032 17.8423C88.032 19.3438 89.1605 20.169 90.6122 20.169ZM90.9354 18.9759C90.0952 18.9759 89.4886 18.598 89.4886 17.8622C89.4886 17.0668 90.1946 16.7834 91.0547 16.669C91.5369 16.6044 92.6804 16.4751 92.8942 16.2614V17.2457C92.8942 18.1506 92.1733 18.9759 90.9354 18.9759ZM97.8471 15.4659C97.8471 14.2479 98.5929 13.5518 99.627 13.5518C100.636 13.5518 101.248 14.2131 101.248 15.3217V20H102.734V15.1428C102.734 13.2536 101.695 12.2642 100.134 12.2642C98.9856 12.2642 98.2349 12.7962 97.8819 13.6065H97.7875V12.3636H96.3606V20H97.8471V15.4659ZM109.919 15.4659C109.919 14.2479 110.665 13.5518 111.699 13.5518C112.708 13.5518 113.32 14.2131 113.32 15.3217V20H114.806V15.1428C114.806 13.2536 113.767 12.2642 112.206 12.2642C111.058 12.2642 110.307 12.7962 109.954 13.6065H109.86V12.3636H108.433V20H109.919V15.4659ZM118.287 15.4659C118.287 14.2479 119.057 13.5518 120.116 13.5518C121.14 13.5518 121.752 14.2031 121.752 15.3217V20H123.238V15.1428C123.238 13.2386 122.194 12.2642 120.623 12.2642C119.435 12.2642 118.719 12.7812 118.361 13.6065H118.267V9.81818H116.8V20H118.287V15.4659ZM127.444 20.169C128.707 20.169 129.418 19.5277 129.701 18.956H129.761V20H131.213V14.929C131.213 12.7067 129.463 12.2642 128.25 12.2642C126.868 12.2642 125.595 12.821 125.098 14.2131L126.495 14.5312C126.713 13.9893 127.27 13.4673 128.27 13.4673C129.229 13.4673 129.721 13.9695 129.721 14.8345V14.8693C129.721 15.4112 129.164 15.4013 127.792 15.5604C126.346 15.7294 124.864 16.1072 124.864 17.8423C124.864 19.3438 125.993 20.169 127.444 20.169ZM127.767 18.9759C126.927 18.9759 126.321 18.598 126.321 17.8622C126.321 17.0668 127.027 16.7834 127.887 16.669C128.369 16.6044 129.512 16.4751 129.726 16.2614V17.2457C129.726 18.1506 129.005 18.9759 127.767 18.9759ZM127.305 11.4489L128.329 10.1165L129.348 11.4489H130.696V11.3743L128.946 9.26633H127.708L125.963 11.3743V11.4489H127.305ZM128.26 22.6349C128.772 22.6349 129.199 22.2372 129.199 21.75C129.199 21.2628 128.772 20.8601 128.26 20.8601C127.743 20.8601 127.32 21.2628 127.32 21.75C127.32 22.2372 127.743 22.6349 128.26 22.6349ZM134.679 15.4659C134.679 14.2479 135.425 13.5518 136.459 13.5518C137.468 13.5518 138.08 14.2131 138.08 15.3217V20H139.566V15.1428C139.566 13.2536 138.527 12.2642 136.966 12.2642C135.818 12.2642 135.067 12.7962 134.714 13.6065H134.619V12.3636H133.193V20H134.679V15.4659ZM146.751 15.4659C146.751 14.2479 147.522 13.5518 148.581 13.5518C149.605 13.5518 150.217 14.2031 150.217 15.3217V20H151.703V15.1428C151.703 13.2386 150.659 12.2642 149.088 12.2642C147.9 12.2642 147.184 12.7812 146.826 13.6065H146.732V9.81818H145.265V20H146.751V15.4659ZM156.903 20.1541C159.056 20.1541 160.463 18.5781 160.463 16.2166C160.463 13.8402 159.056 12.2642 156.903 12.2642C154.751 12.2642 153.344 13.8402 153.344 16.2166C153.344 18.5781 154.751 20.1541 156.903 20.1541ZM156.908 18.9062C155.501 18.9062 154.845 17.6783 154.845 16.2116C154.845 14.75 155.501 13.5071 156.908 13.5071C158.305 13.5071 158.962 14.75 158.962 16.2116C158.962 17.6783 158.305 18.9062 156.908 18.9062ZM157.396 10.0369H156.381L154.318 11.6626H155.636L156.888 10.6783L158.146 11.6626H159.459L157.396 10.0369ZM158.072 8.30682C158.072 8.55043 157.823 8.80398 157.57 8.80398C157.067 8.80398 156.7 8.35653 156.158 8.35653C155.541 8.35653 155.104 8.90838 155.104 9.44034L155.7 9.59943C155.7 9.35582 155.949 9.10724 156.207 9.10724C156.729 9.10724 156.958 9.57457 157.619 9.57457C158.236 9.57457 158.688 9.03764 158.688 8.50071L158.072 8.30682ZM169.392 12.3636H167.826V10.5341H166.339V12.3636H165.221V13.5568H166.339V18.0661C166.335 19.4531 167.393 20.1243 168.567 20.0994C169.039 20.0945 169.357 20.005 169.531 19.9403L169.263 18.7124C169.163 18.7322 168.979 18.777 168.741 18.777C168.259 18.777 167.826 18.6179 167.826 17.7578V13.5568H169.392V12.3636ZM171.036 20H172.523V15.3366C172.523 14.3374 173.294 13.6165 174.347 13.6165C174.656 13.6165 175.004 13.6712 175.123 13.706V12.2841C174.974 12.2642 174.681 12.2493 174.492 12.2493C173.597 12.2493 172.831 12.7564 172.553 13.5767H172.473V12.3636H171.036V20ZM182.52 11.8317C182.52 12.5824 182.43 13.1442 181.978 13.3928C181.356 12.6719 180.451 12.2642 179.353 12.2642C177.2 12.2642 175.793 13.8402 175.793 16.2166C175.793 18.5781 177.2 20.1541 179.353 20.1541C181.505 20.1541 182.912 18.5781 182.912 16.2166C182.912 15.4361 182.758 14.7401 182.48 14.1634C183.325 13.8004 183.668 12.9801 183.668 11.8317H182.52ZM179.358 18.9062C177.951 18.9062 177.294 17.6783 177.294 16.2116C177.294 14.75 177.951 13.5071 179.358 13.5071C180.755 13.5071 181.411 14.75 181.411 16.2116C181.411 17.6783 180.755 18.9062 179.358 18.9062ZM179.353 22.6349C179.865 22.6349 180.292 22.2372 180.292 21.75C180.292 21.2628 179.865 20.8601 179.353 20.8601C178.836 20.8601 178.413 21.2628 178.413 21.75C178.413 22.2372 178.836 22.6349 179.353 22.6349Z" fill="url(#paint0_linear)"/>
<path d="M42.5398 31.6364H46.9148V43H50.8068V31.6364H55.1818V28.4545H42.5398V31.6364ZM60.3984 43.1989C63.9496 43.1989 66.0518 40.9261 66.0518 37.5739C66.0518 34.2216 63.9496 31.9489 60.3984 31.9489C56.8473 31.9489 54.745 34.2216 54.745 37.5739C54.745 40.9261 56.8473 43.1989 60.3984 43.1989ZM60.4268 40.3011C59.3757 40.3011 58.7507 39.2571 58.7507 37.5455C58.7507 35.8338 59.3757 34.7898 60.4268 34.7898C61.4212 34.7898 62.0462 35.8338 62.0462 37.5455C62.0462 39.2571 61.4212 40.3011 60.4268 40.3011ZM56.6768 31.0114H58.9212L60.37 30.017L61.7905 31.0114H64.0632L61.1939 29.0511H59.5178L56.6768 31.0114ZM63.3246 30.0739H65.1996L67.6996 27.3466H65.1712L63.3246 30.0739ZM67.6428 43H71.5632V32.0909H67.6428V43ZM69.603 30.9545C70.6683 30.9545 71.5348 30.152 71.5348 29.1648C71.5348 28.1776 70.6683 27.375 69.603 27.375C68.5376 27.375 67.6712 28.1776 67.6712 29.1648C67.6712 30.152 68.5376 30.9545 69.603 30.9545ZM81.494 43.142C83.0281 43.142 84.0792 42.3182 84.5337 41.2102H84.619V43H88.511V31.4659H89.5337V29.3636H88.511V28.4545H84.5906V29.3636H81.8917V31.4659H84.5906V33.9943H84.5337C84.1076 32.8864 83.0849 31.9489 81.4656 31.9489C79.3065 31.9489 77.2042 33.5966 77.2042 37.5455C77.2042 41.3239 79.1644 43.142 81.494 43.142ZM82.9428 40.1307C81.8633 40.1307 81.2383 39.1648 81.2383 37.5455C81.2383 35.9261 81.8633 34.9602 82.9428 34.9602C84.0224 34.9602 84.6758 35.9261 84.6758 37.5455C84.6758 39.1364 84.0224 40.1307 82.9428 40.1307ZM93.4755 43.1705C94.896 43.1705 95.9684 42.6875 96.6289 41.4659H96.7141V43H100.379V35.5284C100.379 33.5114 98.4684 31.9489 95.3505 31.9489C92.0906 31.9489 90.4854 33.6534 90.3505 35.642H93.9585C94.0508 34.9673 94.5479 34.6477 95.2937 34.6477C95.9755 34.6477 96.4585 34.9602 96.4585 35.5284V35.5568C96.4585 36.1889 95.7624 36.3878 93.93 36.5227C91.6786 36.6861 89.9244 37.5952 89.9244 39.9886C89.9244 42.1619 91.3874 43.1705 93.4755 43.1705ZM94.7539 40.6989C94.0863 40.6989 93.6175 40.3722 93.6175 39.7614C93.6175 39.2003 94.0153 38.767 94.9244 38.625C95.5494 38.5256 96.0749 38.3977 96.4869 38.2273V39.1364C96.4869 40.1307 95.6417 40.6989 94.7539 40.6989ZM106.066 40.7273H113.14V43H116.918V40.7273H118.594V37.6591H116.918V28.4545H111.918L106.066 37.6591V40.7273ZM113.225 37.6591H109.958V37.5455L113.112 32.5455H113.225V37.6591ZM128.184 36.8636C128.191 35.7841 128.802 35.1307 129.775 35.1307C130.762 35.1307 131.345 35.7841 131.338 36.8636V43H135.258V36.0398C135.265 33.6676 133.767 31.9489 131.451 31.9489C129.846 31.9489 128.575 32.7869 128.099 34.1648H127.985V32.0909H124.264V43H128.184V36.8636ZM140.233 43.1705C141.654 43.1705 142.726 42.6875 143.387 41.4659H143.472V43H147.137V35.5284C147.137 33.5114 145.226 31.9489 142.108 31.9489C138.848 31.9489 137.243 33.6534 137.108 35.642H140.716C140.809 34.9673 141.306 34.6477 142.051 34.6477C142.733 34.6477 143.216 34.9602 143.216 35.5284V35.5568C143.216 36.1889 142.52 36.3878 140.688 36.5227C138.436 36.6861 136.682 37.5952 136.682 39.9886C136.682 42.1619 138.145 43.1705 140.233 43.1705ZM143.642 28.1705C143.635 28.7955 143.238 29.3636 142.222 29.3636C141.164 29.3636 140.766 28.767 140.773 28.1705H138.33C138.323 30.017 139.828 31.2102 142.222 31.2102C144.601 31.2102 146.107 30.017 146.114 28.1705H143.642ZM141.512 40.6989C140.844 40.6989 140.375 40.3722 140.375 39.7614C140.375 39.2003 140.773 38.767 141.682 38.625C142.307 38.5256 142.833 38.3977 143.245 38.2273V39.1364C143.245 40.1307 142.4 40.6989 141.512 40.6989ZM149.01 43H152.93V36.6364C152.93 35.6847 153.428 35.1023 154.237 35.1023C155.047 35.1023 155.572 35.6847 155.572 36.6364V43H159.322V36.6364C159.322 35.6847 159.82 35.1023 160.629 35.1023C161.439 35.1023 161.964 35.6847 161.964 36.6364V43H165.885V35.642C165.885 33.4048 164.45 31.9489 162.362 31.9489C160.743 31.9489 159.436 32.8295 159.067 34.1648H158.953C158.726 32.8295 157.504 31.9489 155.97 31.9489C154.457 31.9489 153.3 32.8011 152.845 34.1648H152.732V32.0909H149.01V43Z" fill="url(#paint1_linear)"/>
<path d="M42.6165 64.1406H45.7884V73H47.3196V64.1406H50.4964V62.8182H42.6165V64.1406ZM53.6049 68.4659C53.6049 67.2479 54.3755 66.5518 55.4345 66.5518C56.4586 66.5518 57.0701 67.2031 57.0701 68.3217V73H58.5566V68.1428C58.5566 66.2386 57.5126 65.2642 55.9416 65.2642C54.7534 65.2642 54.0375 65.7812 53.6795 66.6065H53.585V62.8182H52.1184V73H53.6049V68.4659ZM66.9238 64.8317C66.9238 65.5824 66.8343 66.1442 66.3819 66.3928C65.7605 65.6719 64.8556 65.2642 63.7569 65.2642C61.6042 65.2642 60.1973 66.8402 60.1973 69.2166C60.1973 71.5781 61.6042 73.1541 63.7569 73.1541C65.9096 73.1541 67.3166 71.5781 67.3166 69.2166C67.3166 68.4361 67.1625 67.7401 66.8841 67.1634C67.7292 66.8004 68.0723 65.9801 68.0723 64.8317H66.9238ZM63.7619 71.9062C62.3549 71.9062 61.6987 70.6783 61.6987 69.2116C61.6987 67.75 62.3549 66.5071 63.7619 66.5071C65.1589 66.5071 65.8152 67.75 65.8152 69.2116C65.8152 70.6783 65.1589 71.9062 63.7619 71.9062ZM63.1802 64.3445H64.3684L63.21 62.0526H61.644L63.1802 64.3445ZM69.0716 73H70.5581V65.3636H69.0716V73ZM69.8223 64.1854C70.3343 64.1854 70.7619 63.7876 70.7619 63.3004C70.7619 62.8132 70.3343 62.4105 69.8223 62.4105C69.3052 62.4105 68.8826 62.8132 68.8826 63.3004C68.8826 63.7876 69.3052 64.1854 69.8223 64.1854ZM79.4647 76.0227C81.4086 76.0227 82.91 75.1328 82.91 73.169V65.3636H81.4533V66.6016H81.3439C81.0804 66.1293 80.5534 65.2642 79.1316 65.2642C77.2871 65.2642 75.9299 66.7209 75.9299 69.152C75.9299 71.5881 77.3169 72.8857 79.1216 72.8857C80.5236 72.8857 81.0655 72.0952 81.334 71.608H81.4284V73.1094C81.4284 74.3075 80.6081 74.8246 79.4796 74.8246C78.2417 74.8246 77.7594 74.2031 77.4959 73.7656L76.2182 74.2926C76.6209 75.2273 77.6401 76.0227 79.4647 76.0227ZM79.4498 71.6527C78.1223 71.6527 77.4313 70.6335 77.4313 69.1321C77.4313 67.6655 78.1074 66.527 79.4498 66.527C80.7473 66.527 81.4434 67.5859 81.4434 69.1321C81.4434 70.7081 80.7324 71.6527 79.4498 71.6527ZM84.9036 73H86.3901V65.3636H84.9036V73ZM85.6543 64.1854C86.1664 64.1854 86.5939 63.7876 86.5939 63.3004C86.5939 62.8132 86.1664 62.4105 85.6543 62.4105C85.1373 62.4105 84.7147 62.8132 84.7147 63.3004C84.7147 63.7876 85.1373 64.1854 85.6543 64.1854ZM90.6122 73.169C91.875 73.169 92.5859 72.5277 92.8693 71.956H92.929V73H94.3807V67.929C94.3807 65.7067 92.6307 65.2642 91.4176 65.2642C90.0355 65.2642 88.7628 65.821 88.2656 67.2131L89.6626 67.5312C89.8814 66.9893 90.4382 66.4673 91.4375 66.4673C92.397 66.4673 92.8892 66.9695 92.8892 67.8345V67.8693C92.8892 68.4112 92.3324 68.4013 90.9602 68.5604C89.5135 68.7294 88.032 69.1072 88.032 70.8423C88.032 72.3438 89.1605 73.169 90.6122 73.169ZM90.9354 71.9759C90.0952 71.9759 89.4886 71.598 89.4886 70.8622C89.4886 70.0668 90.1946 69.7834 91.0547 69.669C91.5369 69.6044 92.6804 69.4751 92.8942 69.2614V70.2457C92.8942 71.1506 92.1733 71.9759 90.9354 71.9759ZM97.8471 68.4659C97.8471 67.2479 98.5929 66.5518 99.627 66.5518C100.636 66.5518 101.248 67.2131 101.248 68.3217V73H102.734V68.1428C102.734 66.2536 101.695 65.2642 100.134 65.2642C98.9856 65.2642 98.2349 65.7962 97.8819 66.6065H97.7875V65.3636H96.3606V73H97.8471V68.4659ZM111.65 73.1541C113.454 73.1541 114.623 72.0703 114.787 70.5838H113.34C113.151 71.4091 112.51 71.8963 111.659 71.8963C110.402 71.8963 109.591 70.8473 109.591 69.1818C109.591 67.5462 110.417 66.517 111.659 66.517C112.604 66.517 113.181 67.1136 113.34 67.8295H114.787C114.627 66.2884 113.37 65.2642 111.635 65.2642C109.482 65.2642 108.09 66.8849 108.09 69.2166C108.09 71.5185 109.432 73.1541 111.65 73.1541ZM118.599 73.169C119.861 73.169 120.572 72.5277 120.856 71.956H120.915V73H122.367V67.929C122.367 65.7067 120.617 65.2642 119.404 65.2642C118.022 65.2642 116.749 65.821 116.252 67.2131L117.649 67.5312C117.868 66.9893 118.425 66.4673 119.424 66.4673C120.383 66.4673 120.876 66.9695 120.876 67.8345V67.8693C120.876 68.4112 120.319 68.4013 118.947 68.5604C117.5 68.7294 116.018 69.1072 116.018 70.8423C116.018 72.3438 117.147 73.169 118.599 73.169ZM118.922 71.9759C118.081 71.9759 117.475 71.598 117.475 70.8622C117.475 70.0668 118.181 69.7834 119.041 69.669C119.523 69.6044 120.667 69.4751 120.881 69.2614V70.2457C120.881 71.1506 120.16 71.9759 118.922 71.9759ZM124.347 73H125.833V68.2919C125.833 67.2628 126.554 66.5469 127.4 66.5469C128.225 66.5469 128.797 67.0938 128.797 67.924V73H130.278V68.1328C130.278 67.2131 130.84 66.5469 131.809 66.5469C132.595 66.5469 133.241 66.9844 133.241 68.0185V73H134.728V67.8793C134.728 66.1342 133.753 65.2642 132.371 65.2642C131.272 65.2642 130.447 65.7912 130.079 66.6065H130C129.667 65.7713 128.966 65.2642 127.946 65.2642C126.937 65.2642 126.186 65.7663 125.868 66.6065H125.774V65.3636H124.347V73ZM140.425 73H141.912V70.2905L142.652 69.5497L145.248 73H147.072L143.771 68.6399L146.863 65.3636H145.083L142.041 68.5952H141.912V62.8182H140.425V73ZM151.195 73.1541C152.86 73.1541 154.039 72.3338 154.377 71.0909L152.97 70.8374C152.701 71.5582 152.055 71.9261 151.21 71.9261C149.937 71.9261 149.082 71.1009 149.042 69.6293H154.471V69.1023C154.471 66.343 152.82 65.2642 151.09 65.2642C148.963 65.2642 147.561 66.8849 147.561 69.2315C147.561 71.603 148.943 73.1541 151.195 73.1541ZM149.047 68.5156C149.107 67.4318 149.892 66.4922 151.1 66.4922C152.254 66.4922 153.009 67.3473 153.014 68.5156H149.047ZM148.46 64.4489H149.932L151.046 63.4645L152.149 64.4489H153.611L151.588 62.7237H150.479L148.46 64.4489ZM153.079 63.3452H154.168L155.634 61.5305H154.118L153.079 63.3452ZM159.685 65.3636H158.119V63.5341H156.632V65.3636H155.514V66.5568H156.632V71.0661C156.627 72.4531 157.686 73.1243 158.86 73.0994C159.332 73.0945 159.65 73.005 159.824 72.9403L159.556 71.7124C159.456 71.7322 159.272 71.777 159.034 71.777C158.551 71.777 158.119 71.6179 158.119 70.7578V66.5568H159.685V65.3636ZM166.521 62.8182H165.034V73H166.521V62.8182ZM170.743 73.169C172.006 73.169 172.717 72.5277 173 71.956H173.06V73H174.512V67.929C174.512 65.7067 172.762 65.2642 171.548 65.2642C170.166 65.2642 168.894 65.821 168.396 67.2131L169.794 67.5312C170.012 66.9893 170.569 66.4673 171.568 66.4673C172.528 66.4673 173.02 66.9695 173.02 67.8345V67.8693C173.02 68.4112 172.463 68.4013 171.091 68.5604C169.644 68.7294 168.163 69.1072 168.163 70.8423C168.163 72.3438 169.291 73.169 170.743 73.169ZM171.066 71.9759C170.226 71.9759 169.619 71.598 169.619 70.8622C169.619 70.0668 170.325 69.7834 171.186 69.669C171.668 69.6044 172.811 69.4751 173.025 69.2614V70.2457C173.025 71.1506 172.304 71.9759 171.066 71.9759ZM171.046 64.3445H172.235L171.076 62.0526H169.51L171.046 64.3445ZM176.491 73H177.978V68.2919C177.978 67.2628 178.699 66.5469 179.544 66.5469C180.369 66.5469 180.941 67.0938 180.941 67.924V73H182.423V68.1328C182.423 67.2131 182.984 66.5469 183.954 66.5469C184.739 66.5469 185.386 66.9844 185.386 68.0185V73H186.872V67.8793C186.872 66.1342 185.898 65.2642 184.516 65.2642C183.417 65.2642 182.592 65.7912 182.224 66.6065H182.144C181.811 65.7713 181.11 65.2642 180.091 65.2642C179.082 65.2642 178.331 65.7663 178.013 66.6065H177.918V65.3636H176.491V73ZM199.102 65.3636H197.506L195.577 71.2401H195.498L193.564 65.3636H191.968L194.742 73H196.333L199.102 65.3636ZM200.499 73H201.986V65.3636H200.499V73ZM201.25 64.1854C201.762 64.1854 202.19 63.7876 202.19 63.3004C202.19 62.8132 201.762 62.4105 201.25 62.4105C200.733 62.4105 200.31 62.8132 200.31 63.3004C200.31 63.7876 200.733 64.1854 201.25 64.1854ZM207.277 73.1541C208.942 73.1541 210.121 72.3338 210.459 71.0909L209.052 70.8374C208.783 71.5582 208.137 71.9261 207.292 71.9261C206.019 71.9261 205.164 71.1009 205.124 69.6293H210.553V69.1023C210.553 66.343 208.903 65.2642 207.172 65.2642C205.045 65.2642 203.643 66.8849 203.643 69.2315C203.643 71.603 205.025 73.1541 207.277 73.1541ZM205.129 68.5156C205.189 67.4318 205.974 66.4922 207.182 66.4922C208.336 66.4922 209.091 67.3473 209.096 68.5156H205.129ZM206.094 64.4489L207.118 63.1165L208.137 64.4489H209.484V64.3743L207.734 62.2663H206.496L204.751 64.3743V64.4489H206.094ZM207.113 75.6349C207.625 75.6349 208.052 75.2372 208.052 74.75C208.052 74.2628 207.625 73.8601 207.113 73.8601C206.596 73.8601 206.173 74.2628 206.173 74.75C206.173 75.2372 206.596 75.6349 207.113 75.6349ZM215.419 73.1541C217.224 73.1541 218.392 72.0703 218.556 70.5838H217.109C216.92 71.4091 216.279 71.8963 215.429 71.8963C214.171 71.8963 213.361 70.8473 213.361 69.1818C213.361 67.5462 214.186 66.517 215.429 66.517C216.374 66.517 216.95 67.1136 217.109 67.8295H218.556C218.397 66.2884 217.139 65.2642 215.404 65.2642C213.251 65.2642 211.859 66.8849 211.859 69.2166C211.859 71.5185 213.202 73.1541 215.419 73.1541Z" fill="url(#paint2_linear)"/>
<path d="M42.7452 84.6364H47.1202V96H51.0122V84.6364H55.3872V81.4545H42.7452V84.6364ZM68.1163 84.4091C68.1021 85.8295 67.8677 86.6818 66.5538 86.9233V85.0909H62.6333V91.2273C62.6404 92.3068 62.0154 92.9602 61.0424 92.9602C60.0552 92.9602 59.487 92.3068 59.4799 91.2273V85.0909H55.5595V92.0511C55.5666 94.4375 57.0722 96.142 59.3663 96.142C60.9927 96.142 62.2427 95.3182 62.7186 93.9261H62.8322V96H66.5538V88.429C69.1319 88.1875 70.0339 86.8168 70.0481 84.4091H68.1163ZM59.7924 83.7273H62.3776L61.014 80.5455H57.6617L59.7924 83.7273ZM74.7338 96H85.8986V92.8466H80.2168V92.7614L81.5804 91.625C84.8972 88.8622 85.7423 87.4276 85.7423 85.7443C85.7423 83.0312 83.5193 81.2557 80.0321 81.2557C76.6443 81.2557 74.4426 83.1378 74.4497 86.1989H78.1997C78.1926 84.9773 78.9384 84.2955 80.0321 84.2955C81.1188 84.2955 81.8929 84.9702 81.8929 86.0852C81.8929 87.1151 81.2324 87.7827 80.16 88.6705L74.7338 93.1591V96ZM95.5967 89.8636C95.6039 88.7841 96.2146 88.1307 97.1877 88.1307C98.1749 88.1307 98.7573 88.7841 98.7502 89.8636V96H102.671V89.0398C102.678 86.6676 101.179 84.9489 98.8638 84.9489C97.2587 84.9489 95.9874 85.7869 95.5115 87.1648H95.3979V85.0909H91.6763V96H95.5967V89.8636ZM107.646 96.1705C109.066 96.1705 110.139 95.6875 110.799 94.4659H110.884V96H114.549V88.5284C114.549 86.5114 112.639 84.9489 109.521 84.9489C106.261 84.9489 104.656 86.6534 104.521 88.642H108.129C108.221 87.9673 108.718 87.6477 109.464 87.6477C110.146 87.6477 110.629 87.9602 110.629 88.5284V88.5568C110.629 89.1889 109.933 89.3878 108.1 89.5227C105.849 89.6861 104.095 90.5952 104.095 92.9886C104.095 95.1619 105.558 96.1705 107.646 96.1705ZM111.055 81.1705C111.048 81.7955 110.65 82.3636 109.634 82.3636C108.576 82.3636 108.178 81.767 108.186 81.1705H105.742C105.735 83.017 107.241 84.2102 109.634 84.2102C112.014 84.2102 113.519 83.017 113.526 81.1705H111.055ZM108.924 93.6989C108.257 93.6989 107.788 93.3722 107.788 92.7614C107.788 92.2003 108.186 91.767 109.095 91.625C109.72 91.5256 110.245 91.3977 110.657 91.2273V92.1364C110.657 93.1307 109.812 93.6989 108.924 93.6989ZM116.422 96H120.343V89.6364C120.343 88.6847 120.84 88.1023 121.65 88.1023C122.459 88.1023 122.985 88.6847 122.985 89.6364V96H126.735V89.6364C126.735 88.6847 127.232 88.1023 128.042 88.1023C128.851 88.1023 129.377 88.6847 129.377 89.6364V96H133.297V88.642C133.297 86.4048 131.863 84.9489 129.775 84.9489C128.155 84.9489 126.849 85.8295 126.479 87.1648H126.366C126.138 85.8295 124.917 84.9489 123.383 84.9489C121.87 84.9489 120.712 85.8011 120.258 87.1648H120.144V85.0909H116.422V96Z" fill="url(#paint3_linear)"/>
</g>
<defs>
<filter id="filter0_d" x="26.5398" y="0.306824" width="208.016" height="119.864" filterUnits="userSpaceOnUse" color-interpolation-filters="sRGB">
<feFlood flood-opacity="0" result="BackgroundImageFix"/>
<feColorMatrix in="SourceAlpha" type="matrix" values="0 0 0 0 0 0 0 0 0 0 0 0 0 0 0 0 0 0 127 0" result="hardAlpha"/>
<feOffset dy="8"/>
<feGaussianBlur stdDeviation="8"/>
<feComposite in2="hardAlpha" operator="out"/>
<feColorMatrix type="matrix" values="0 0 0 0 0 0 0 0 0 0 0 0 0 0 0 0 0 0 0.08 0"/>
<feBlend mode="normal" in2="BackgroundImageFix" result="effect1_dropShadow"/>
<feBlend mode="normal" in="SourceGraphic" in2="effect1_dropShadow" result="shape"/>
</filter>
<linearGradient id="paint0_linear" x1="52.4533" y1="3.20623e-06" x2="107.856" y2="56.5014" gradientUnits="userSpaceOnUse">
<stop stop-color="#D6E0E2"/>
<stop offset="1" stop-color="#E8EAEC"/>
</linearGradient>
<linearGradient id="paint1_linear" x1="52.2466" y1="16" x2="123.169" y2="69.1746" gradientUnits="userSpaceOnUse">
<stop stop-color="#D6E0E2"/>
<stop offset="1" stop-color="#E8EAEC"/>
</linearGradient>
<linearGradient id="paint2_linear" x1="54.4858" y1="53" x2="108.838" y2="119.208" gradientUnits="userSpaceOnUse">
<stop stop-color="#D6E0E2"/>
<stop offset="1" stop-color="#E8EAEC"/>
</linearGradient>
<linearGradient id="paint3_linear" x1="10.2466" y1="69" x2="81.1693" y2="122.175" gradientUnits="userSpaceOnUse">
<stop stop-color="#D6E0E2"/>
<stop offset="1" stop-color="#E8EAEC"/>
</linearGradient>
</defs>
</svg>
