<svg width="205" height="97" viewBox="0 0 205 97" fill="none" xmlns="http://www.w3.org/2000/svg">
<g filter="url(#filter0_d)">
<path d="M20.2722 27.4545H16.3517V42H20.2722V27.4545ZM25.3095 42.1705C26.7299 42.1705 27.8024 41.6875 28.4629 40.4659H28.5481V42H32.2129V34.5284C32.2129 32.5114 30.3024 30.9489 27.1845 30.9489C23.9245 30.9489 22.3194 32.6534 22.1845 34.642H25.7924C25.8848 33.9673 26.3819 33.6477 27.1277 33.6477C27.8095 33.6477 28.2924 33.9602 28.2924 34.5284V34.5568C28.2924 35.1889 27.5964 35.3878 25.764 35.5227C23.5126 35.6861 21.7583 36.5952 21.7583 38.9886C21.7583 41.1619 23.2214 42.1705 25.3095 42.1705ZM26.0197 29.7273H28.6049L27.2413 26.5455H23.889L26.0197 29.7273ZM26.5879 39.6989C25.9203 39.6989 25.4515 39.3722 25.4515 38.7614C25.4515 38.2003 25.8493 37.767 26.7583 37.625C27.3833 37.5256 27.9089 37.3977 28.3208 37.2273V38.1364C28.3208 39.1307 27.4757 39.6989 26.5879 39.6989ZM43.3262 42.1989C46.5577 42.1989 48.5392 40.3452 48.5819 37.4545H44.9455C44.8603 38.598 44.2424 39.2159 43.383 39.2159C42.3532 39.2159 41.6784 38.3352 41.6784 36.5455C41.6784 34.7557 42.3532 33.875 43.383 33.875C44.2495 33.875 44.839 34.4929 44.9455 35.6364H48.5819C48.5605 32.7955 46.5364 30.9489 43.3262 30.9489C39.775 30.9489 37.6728 33.2216 37.6728 36.5739C37.6728 39.9261 39.775 42.1989 43.3262 42.1989ZM53.2392 42.1705C54.6596 42.1705 55.7321 41.6875 56.3926 40.4659H56.4778V42H60.1426V34.5284C60.1426 32.5114 58.2321 30.9489 55.1142 30.9489C51.8542 30.9489 50.2491 32.6534 50.1142 34.642H53.7221C53.8145 33.9673 54.3116 33.6477 55.0574 33.6477C55.7392 33.6477 56.2221 33.9602 56.2221 34.5284V34.5568C56.2221 35.1889 55.5261 35.3878 53.6937 35.5227C51.4423 35.6861 49.688 36.5952 49.688 38.9886C49.688 41.1619 51.1511 42.1705 53.2392 42.1705ZM53.921 29.7273H56.5062L58.6369 26.5455H55.2846L53.921 29.7273ZM54.5176 39.6989C53.85 39.6989 53.3812 39.3722 53.3812 38.7614C53.3812 38.2003 53.7789 37.767 54.688 37.625C55.313 37.5256 55.8386 37.3977 56.2505 37.2273V38.1364C56.2505 39.1307 55.4054 39.6989 54.5176 39.6989ZM67.2715 42.1989C70.503 42.1989 72.4846 40.3452 72.5272 37.4545H68.8908C68.8056 38.598 68.1877 39.2159 67.3283 39.2159C66.2985 39.2159 65.6238 38.3352 65.6238 36.5455C65.6238 34.7557 66.2985 33.875 67.3283 33.875C68.1948 33.875 68.7843 34.4929 68.8908 35.6364H72.5272C72.5059 32.7955 70.4817 30.9489 67.2715 30.9489C63.7203 30.9489 61.6181 33.2216 61.6181 36.5739C61.6181 39.9261 63.7203 42.1989 67.2715 42.1989ZM85.9132 32H89.6916C89.6774 29.1449 87.4757 27.2557 83.9529 27.2557C80.4941 27.2557 78.051 29.1165 78.0723 31.8864C78.0652 34.1591 79.6419 35.4233 82.22 35.9773L83.6689 36.2898C85.2882 36.6449 85.8422 37.0497 85.8564 37.7102C85.8422 38.4276 85.1887 38.9318 83.9245 38.9318C82.4118 38.9318 81.5169 38.2216 81.4529 36.8864H77.7029C77.7172 40.5369 80.1887 42.1705 83.9814 42.1705C87.6674 42.1705 89.8762 40.5795 89.8904 37.7102C89.8762 35.4943 88.5552 33.9389 85.345 33.25L84.1518 32.9943C82.774 32.7031 82.1561 32.2983 82.1916 31.6023C82.1987 30.9631 82.7314 30.4943 83.9529 30.4943C85.2314 30.4943 85.835 31.0554 85.9132 32ZM96.6767 42.1989C99.7022 42.1989 101.648 40.75 102.018 38.4773H98.438C98.2108 39.0952 97.5645 39.4432 96.7619 39.4432C95.5971 39.4432 94.9153 38.6761 94.9153 37.625V37.4545H102.018V36.5455C102.018 33.0724 99.8869 30.9489 96.5914 30.9489C93.2108 30.9489 91.0517 33.1932 91.0517 36.5739C91.0517 40.1037 93.1824 42.1989 96.6767 42.1989ZM94.9153 35.2955C94.9366 34.3509 95.7179 33.7045 96.6767 33.7045C97.6497 33.7045 98.3883 34.358 98.4096 35.2955H94.9153ZM107.538 35.8636C107.545 34.7841 108.156 34.1307 109.129 34.1307C110.116 34.1307 110.698 34.7841 110.691 35.8636V42H114.612V35.0398C114.619 32.6676 113.12 30.9489 110.805 30.9489C109.2 30.9489 107.928 31.7869 107.453 33.1648H107.339V31.0909H103.617V42H107.538V35.8636ZM116.547 42H120.468V31.0909H116.547V42ZM118.507 29.9545C119.573 29.9545 120.439 29.152 120.439 28.1648C120.439 27.1776 119.573 26.375 118.507 26.375C117.442 26.375 116.575 27.1776 116.575 28.1648C116.575 29.152 117.442 29.9545 118.507 29.9545ZM127.721 42.1989C131.272 42.1989 133.374 39.9261 133.374 36.5739C133.374 33.2216 131.272 30.9489 127.721 30.9489C124.17 30.9489 122.067 33.2216 122.067 36.5739C122.067 39.9261 124.17 42.1989 127.721 42.1989ZM127.749 39.3011C126.698 39.3011 126.073 38.2571 126.073 36.5455C126.073 34.8338 126.698 33.7898 127.749 33.7898C128.743 33.7898 129.368 34.8338 129.368 36.5455C129.368 38.2571 128.743 39.3011 127.749 39.3011ZM134.965 42H138.885V36.3182C138.885 35.0682 139.745 34.2443 140.903 34.2443C141.307 34.2443 141.961 34.3082 142.351 34.4432V31.098C142.039 31.0057 141.698 30.9489 141.357 30.9489C140.192 30.9489 139.283 31.6307 138.885 33.1648H138.772V31.0909H134.965V42Z" fill="url(#paint0_linear)"/>
</g>
<path d="M143.418 60.9545C143.423 59.8295 144.094 59.1705 145.071 59.1705C146.043 59.1705 146.628 59.8068 146.622 60.875V66H149.043V60.4432C149.043 58.4091 147.849 57.1591 146.031 57.1591C144.736 57.1591 143.798 57.7955 143.406 58.8125H143.304V57.2727H140.997V66H143.418V60.9545ZM153.439 66.1648C154.729 66.1648 155.564 65.6023 155.99 64.7898H156.058V66H158.354V60.1136C158.354 58.0341 156.592 57.1591 154.649 57.1591C152.558 57.1591 151.183 58.1591 150.848 59.75L153.087 59.9318C153.251 59.3523 153.768 58.9261 154.638 58.9261C155.462 58.9261 155.933 59.3409 155.933 60.0568V60.0909C155.933 60.6534 155.337 60.7273 153.82 60.875C152.092 61.0341 150.541 61.6136 150.541 63.5625C150.541 65.2898 151.774 66.1648 153.439 66.1648ZM155.865 54.2273C155.865 54.7614 155.547 55.2443 154.74 55.2443C153.911 55.2443 153.604 54.75 153.609 54.2273H151.933C151.933 55.6023 153.018 56.5227 154.74 56.5227C156.462 56.5227 157.547 55.6023 157.553 54.2273H155.865ZM154.132 64.4943C153.388 64.4943 152.854 64.1477 152.854 63.483C152.854 62.8011 153.416 62.4659 154.268 62.3466C154.797 62.2727 155.661 62.1477 155.95 61.9545V62.8807C155.95 63.7955 155.195 64.4943 154.132 64.4943ZM160.232 66H162.652V60.7614C162.652 59.7955 163.266 59.1534 164.072 59.1534C164.868 59.1534 165.402 59.6989 165.402 60.5568V66H167.749V60.6705C167.749 59.767 168.266 59.1534 169.146 59.1534C169.919 59.1534 170.499 59.6364 170.499 60.608V66H172.913V60.1307C172.913 58.2386 171.788 57.1591 170.163 57.1591C168.885 57.1591 167.891 57.8125 167.533 58.8125H167.442C167.163 57.8011 166.271 57.1591 165.072 57.1591C163.896 57.1591 163.004 57.7841 162.641 58.8125H162.538V57.2727H160.232V66ZM103.966 86H106.386V83.2273L107.04 82.483L109.42 86H112.256L108.852 81.0511L112.091 77.2727H109.312L106.517 80.5852H106.386V74.3636H103.966V86ZM113.278 86H115.699V77.2727H113.278V86ZM114.494 76.1477C115.216 76.1477 115.807 75.5966 115.807 74.9205C115.807 74.25 115.216 73.6989 114.494 73.6989C113.778 73.6989 113.188 74.25 113.188 74.9205C113.188 75.5966 113.778 76.1477 114.494 76.1477ZM120.058 80.9545C120.064 79.8295 120.734 79.1705 121.712 79.1705C122.683 79.1705 123.268 79.8068 123.263 80.875V86H125.683V80.4432C125.683 78.4091 124.49 77.1591 122.672 77.1591C121.376 77.1591 120.439 77.7955 120.047 78.8125H119.945V77.2727H117.638V86H120.058V80.9545ZM130.011 80.9545C130.017 79.8295 130.705 79.1705 131.693 79.1705C132.676 79.1705 133.256 79.8011 133.25 80.875V86H135.67V80.4432C135.676 78.3977 134.472 77.1591 132.653 77.1591C131.33 77.1591 130.443 77.7841 130.045 78.8125H129.943V74.3636H127.591V86H130.011V80.9545ZM143.699 80.9545C143.705 79.8295 144.375 79.1705 145.352 79.1705C146.324 79.1705 146.909 79.8068 146.903 80.875V86H149.324V80.4432C149.324 78.4091 148.131 77.1591 146.312 77.1591C145.017 77.1591 144.08 77.7955 143.688 78.8125H143.585V77.2727H141.278V86H143.699V80.9545ZM155.163 89.4545C157.658 89.4545 159.43 88.3182 159.43 86.0852V77.2727H157.027V78.7386H156.936C156.612 78.0284 155.902 77.1591 154.442 77.1591C152.527 77.1591 150.908 78.6477 150.908 81.6193C150.908 84.5227 152.482 85.875 154.447 85.875C155.839 85.875 156.618 85.1761 156.936 84.4545H157.038V86.0511C157.038 87.25 156.271 87.7159 155.22 87.7159C154.152 87.7159 153.612 87.25 153.413 86.7216L151.175 87.0227C151.464 88.3977 152.811 89.4545 155.163 89.4545ZM155.214 84.0568C154.027 84.0568 153.379 83.1136 153.379 81.608C153.379 80.125 154.016 79.0852 155.214 79.0852C156.391 79.0852 157.05 80.0795 157.05 81.608C157.05 83.1477 156.379 84.0568 155.214 84.0568ZM163.777 80.9545C163.783 79.8295 164.47 79.1705 165.459 79.1705C166.442 79.1705 167.021 79.8011 167.016 80.875V86H169.436V80.4432C169.442 78.3977 168.237 77.1591 166.419 77.1591C165.095 77.1591 164.209 77.7841 163.811 78.8125H163.709V74.3636H161.357V86H163.777V80.9545ZM171.341 86H173.761V77.2727H171.341V86ZM172.557 76.1477C173.278 76.1477 173.869 75.5966 173.869 74.9205C173.869 74.25 173.278 73.6989 172.557 73.6989C171.841 73.6989 171.25 74.25 171.25 74.9205C171.25 75.5966 171.841 76.1477 172.557 76.1477ZM179.678 86.1705C181.837 86.1705 183.291 85.1193 183.632 83.5L181.393 83.3523C181.149 84.017 180.524 84.3636 179.717 84.3636C178.507 84.3636 177.74 83.5625 177.74 82.2614V82.2557H183.683V81.5909C183.683 78.625 181.888 77.1591 179.581 77.1591C177.013 77.1591 175.348 78.983 175.348 81.6761C175.348 84.4432 176.99 86.1705 179.678 86.1705ZM178.382 76.2386L179.524 74.8523L180.666 76.2386H182.729V76.1591L180.422 73.6591H178.621L176.32 76.1591V76.2386H178.382ZM177.74 80.7557C177.791 79.7614 178.547 78.9659 179.621 78.9659C180.672 78.9659 181.399 79.7159 181.405 80.7557H177.74ZM179.524 89.2727C180.246 89.2727 180.837 88.7216 180.837 88.0455C180.837 87.375 180.246 86.8239 179.524 86.8239C178.808 86.8239 178.217 87.375 178.217 88.0455C178.217 88.7216 178.808 89.2727 179.524 89.2727ZM185.263 86H187.683V80.7614C187.683 79.7955 188.297 79.1534 189.104 79.1534C189.899 79.1534 190.433 79.6989 190.433 80.5568V86H192.78V80.6705C192.78 79.767 193.297 79.1534 194.178 79.1534C194.95 79.1534 195.53 79.6364 195.53 80.608V86H197.945V80.1307C197.945 78.2386 196.82 77.1591 195.195 77.1591C193.916 77.1591 192.922 77.8125 192.564 78.8125H192.473C192.195 77.8011 191.303 77.1591 190.104 77.1591C188.928 77.1591 188.036 77.7841 187.672 78.8125H187.57V77.2727H185.263V86Z" fill="url(#paint1_linear)"/>
<path d="M112.17 67.9119H115.511V59.7386H123.685V56.3977H115.511V48.2244H112.17V56.3977H103.997V59.7386H112.17V67.9119Z" fill="url(#paint2_linear)"/>
<path d="M83.733 85.4773C91.5739 85.4773 97.1818 81.1648 97.1648 75.1989C97.1818 70.8523 94.4205 67.75 89.2898 67.1023V66.8295C93.1932 66.1307 95.8864 63.3693 95.8693 59.4489C95.8864 53.9432 91.0625 49.6136 83.8352 49.6136C76.6761 49.6136 71.2898 53.8068 71.1875 59.8409H78.2614C78.3466 57.1818 80.7841 55.4602 83.8011 55.4602C86.7841 55.4602 88.7784 57.267 88.7614 59.892C88.7784 62.6364 86.4432 64.4943 83.0852 64.4943H79.8295V69.9148H83.0852C87.0398 69.9148 89.5114 71.892 89.4943 74.7045C89.5114 77.483 87.125 79.392 83.75 79.392C80.4943 79.392 78.0568 77.6875 77.9205 75.1307H70.4886C70.608 81.233 76.0625 85.4773 83.733 85.4773Z" fill="url(#paint3_linear)"/>
<path d="M17.4545 17C20.5568 17 22.3963 15.081 22.3963 11.8991C22.3963 8.72727 20.5568 6.81818 17.5241 6.81818H14.0043V11.0987H12.5376V12.2372H14.0043V17H17.4545ZM15.8487 15.4041V12.2372H17.3004V11.0987H15.8487V8.41406H17.4197C19.4879 8.41406 20.5668 9.56747 20.5668 11.8991C20.5668 14.2408 19.4879 15.4041 17.3651 15.4041H15.8487ZM27.4002 17.1491C29.6374 17.1491 31.0593 15.5732 31.0593 13.2116C31.0593 10.8452 29.6374 9.2642 27.4002 9.2642C25.163 9.2642 23.7411 10.8452 23.7411 13.2116C23.7411 15.5732 25.163 17.1491 27.4002 17.1491ZM27.4102 15.7074C26.1722 15.7074 25.5657 14.6037 25.5657 13.2067C25.5657 11.8097 26.1722 10.6911 27.4102 10.6911C28.6282 10.6911 29.2347 11.8097 29.2347 13.2067C29.2347 14.6037 28.6282 15.7074 27.4102 15.7074ZM24.82 8.48864H26.3214L27.4052 7.57386L28.484 8.48864H29.9805L27.957 6.85298H26.8335L24.82 8.48864ZM29.4485 7.49432H30.5969L32.1332 5.6598H30.5522L29.4485 7.49432ZM32.5868 17H34.3865V9.36364H32.5868V17ZM33.4917 8.27983C34.0634 8.27983 34.5307 7.84233 34.5307 7.3054C34.5307 6.76349 34.0634 6.32599 33.4917 6.32599C32.915 6.32599 32.4476 6.76349 32.4476 7.3054C32.4476 7.84233 32.915 8.27983 33.4917 8.27983ZM43.5231 9.36364H42.0167V7.53409H40.217V9.36364H39.1332V10.7557H40.217V15.0014C40.207 16.4382 41.2511 17.1442 42.6033 17.1044C43.1154 17.0895 43.4684 16.9901 43.6623 16.9254L43.359 15.5185C43.2596 15.5433 43.0558 15.5881 42.832 15.5881C42.3796 15.5881 42.0167 15.429 42.0167 14.7031V10.7557H43.5231V9.36364ZM52.7044 8.97088C52.6994 9.92543 52.6149 10.4325 51.725 10.5518V9.36364H49.9252V13.7884C49.9252 14.9517 49.095 15.5284 48.2995 15.5284C47.4345 15.5284 46.8578 14.9169 46.8578 13.9474V9.36364H45.0581V14.2259C45.0581 16.0604 46.1021 17.0994 47.6035 17.0994C48.747 17.0994 49.5524 16.4979 49.9004 15.6428H49.9799V17H51.725V11.4616C53.3457 11.3324 53.8578 10.4872 53.8627 8.97088H52.7044ZM61.1064 8.87642C61.1064 9.61222 61.0119 10.1641 60.6191 10.4375C59.9828 9.69176 59.0382 9.2642 57.8748 9.2642C55.6376 9.2642 54.2157 10.8452 54.2157 13.2116C54.2157 15.5732 55.6376 17.1491 57.8748 17.1491C60.112 17.1491 61.5339 15.5732 61.5339 13.2116C61.5339 12.4659 61.3947 11.7997 61.1312 11.2379C61.9565 10.8551 62.3095 10.0298 62.3095 8.87642H61.1064ZM57.8848 15.7074C56.6468 15.7074 56.0403 14.6037 56.0403 13.2067C56.0403 11.8097 56.6468 10.6911 57.8848 10.6911C59.1028 10.6911 59.7093 11.8097 59.7093 13.2067C59.7093 14.6037 59.1028 15.7074 57.8848 15.7074ZM57.8798 19.7443C58.4515 19.7443 58.9189 19.3068 58.9189 18.7699C58.9189 18.228 58.4515 17.7905 57.8798 17.7905C57.3031 17.7905 56.8358 18.228 56.8358 18.7699C56.8358 19.3068 57.3031 19.7443 57.8798 19.7443ZM65.0389 12.5256C65.0389 11.4219 65.7051 10.7855 66.6547 10.7855C67.5843 10.7855 68.1412 11.397 68.1412 12.4162V17H69.9409V12.1378C69.9458 10.3082 68.9018 9.2642 67.3258 9.2642C66.1824 9.2642 65.3968 9.81108 65.0488 10.6612H64.9593V9.36364H63.2392V17H65.0389V12.5256ZM75.0914 20.0227C77.1547 20.0227 78.676 19.0781 78.676 17.1243V9.36364H76.9011V10.6264H76.8017C76.5282 10.0746 75.9565 9.2642 74.6092 9.2642C72.8443 9.2642 71.4572 10.6463 71.4572 13.157C71.4572 15.6477 72.8443 16.8906 74.6042 16.8906C75.9118 16.8906 76.5233 16.1896 76.8017 15.6278H76.8912V17.0746C76.8912 18.1982 76.1454 18.6605 75.1213 18.6605C74.0375 18.6605 73.5602 18.1484 73.3414 17.701L71.7207 18.0938C72.0488 19.1626 73.1475 20.0227 75.0914 20.0227ZM75.1064 15.4787C73.9181 15.4787 73.2917 14.554 73.2917 13.147C73.2917 11.7599 73.9082 10.7408 75.1064 10.7408C76.2647 10.7408 76.9011 11.7003 76.9011 13.147C76.9011 14.6037 76.2548 15.4787 75.1064 15.4787ZM86.1905 17.1541C87.3887 17.1541 88.1046 16.5923 88.4327 15.951H88.4924V17H90.2225V11.8892C90.2225 9.87074 88.5769 9.2642 87.1202 9.2642C85.5144 9.2642 84.2814 9.98011 83.8837 11.3722L85.5641 11.6108C85.7431 11.0888 86.2502 10.6413 87.1301 10.6413C87.9654 10.6413 88.4228 11.0689 88.4228 11.8196V11.8494C88.4228 12.3665 87.8809 12.3913 86.5336 12.5355C85.052 12.6946 83.6351 13.1371 83.6351 14.8572C83.6351 16.3587 84.7338 17.1541 86.1905 17.1541ZM86.6578 15.8317C85.9071 15.8317 85.3702 15.4886 85.3702 14.8274C85.3702 14.1364 85.9718 13.848 86.7772 13.7337C87.2495 13.669 88.1941 13.5497 88.4277 13.3608V14.2607C88.4277 15.1108 87.7417 15.8317 86.6578 15.8317ZM86.5087 8.35938H87.856L89.3823 6.08736H87.6223L86.5087 8.35938ZM92.0321 19.8636H93.8319V15.7969H93.9064C94.1898 16.3537 94.7814 17.1342 96.0939 17.1342C97.8936 17.1342 99.2409 15.7074 99.2409 13.1918C99.2409 10.6463 97.8539 9.2642 96.089 9.2642C94.7417 9.2642 94.1799 10.0746 93.9064 10.6264H93.802V9.36364H92.0321V19.8636ZM93.7971 13.1818C93.7971 11.7003 94.4334 10.7408 95.5918 10.7408C96.79 10.7408 97.4064 11.7599 97.4064 13.1818C97.4064 14.6136 96.78 15.6577 95.5918 15.6577C94.4434 15.6577 93.7971 14.6634 93.7971 13.1818ZM107.089 17.1342C108.401 17.1342 108.993 16.3537 109.276 15.7969H109.385V17H111.155V6.81818H109.351V10.6264H109.276C109.003 10.0746 108.441 9.2642 107.094 9.2642C105.329 9.2642 103.942 10.6463 103.942 13.1918C103.942 15.7074 105.289 17.1342 107.089 17.1342ZM107.591 15.6577C106.403 15.6577 105.776 14.6136 105.776 13.1818C105.776 11.7599 106.393 10.7408 107.591 10.7408C108.749 10.7408 109.385 11.7003 109.385 13.1818C109.385 14.6634 108.739 15.6577 107.591 15.6577ZM117.94 13.7884C117.94 14.9517 117.11 15.5284 116.315 15.5284C115.45 15.5284 114.873 14.9169 114.873 13.9474V9.36364H113.073V14.2259C113.073 16.0604 114.117 17.0994 115.619 17.0994C116.762 17.0994 117.567 16.4979 117.915 15.6428H117.995V17H119.74V9.36364H117.94V13.7884ZM116.628 19.7443C117.2 19.7443 117.667 19.3068 117.667 18.7699C117.667 18.228 117.2 17.7905 116.628 17.7905C116.051 17.7905 115.584 18.228 115.584 18.7699C115.584 19.3068 116.051 19.7443 116.628 19.7443ZM123.39 12.5256C123.39 11.4219 124.057 10.7855 125.006 10.7855C125.936 10.7855 126.493 11.397 126.493 12.4162V17H128.292V12.1378C128.297 10.3082 127.253 9.2642 125.677 9.2642C124.534 9.2642 123.748 9.81108 123.4 10.6612H123.311V9.36364H121.591V17H123.39V12.5256ZM133.443 20.0227C135.506 20.0227 137.028 19.0781 137.028 17.1243V9.36364H135.253V10.6264H135.153C134.88 10.0746 134.308 9.2642 132.961 9.2642C131.196 9.2642 129.809 10.6463 129.809 13.157C129.809 15.6477 131.196 16.8906 132.956 16.8906C134.263 16.8906 134.875 16.1896 135.153 15.6278H135.243V17.0746C135.243 18.1982 134.497 18.6605 133.473 18.6605C132.389 18.6605 131.912 18.1484 131.693 17.701L130.072 18.0938C130.4 19.1626 131.499 20.0227 133.443 20.0227ZM133.458 15.4787C132.27 15.4787 131.643 14.554 131.643 13.147C131.643 11.7599 132.26 10.7408 133.458 10.7408C134.616 10.7408 135.253 11.7003 135.253 13.147C135.253 14.6037 134.606 15.4787 133.458 15.4787Z" fill="#292D32"/>
<path d="M26.8562 61C25.1089 71.6831 27.8497 77.1053 36.2723 81.0568C38.5626 82.1313 46.0577 82.5339 43.6334 81.993" stroke="white" stroke-width="4" stroke-linecap="round"/>
<path d="M42.9768 75.0877C45.8071 76.3964 49.2956 78.1788 52.2732 78.9776C54.6406 79.6127 53.4863 79.0998 52.8481 80.2155C51.7611 82.1158 42.8422 91.0278 42.0413 90.3131" stroke="white" stroke-width="4" stroke-linecap="round"/>
<defs>
<filter id="filter0_d" x="0.351746" y="18.375" width="158" height="47.8239" filterUnits="userSpaceOnUse" color-interpolation-filters="sRGB">
<feFlood flood-opacity="0" result="BackgroundImageFix"/>
<feColorMatrix in="SourceAlpha" type="matrix" values="0 0 0 0 0 0 0 0 0 0 0 0 0 0 0 0 0 0 127 0" result="hardAlpha"/>
<feOffset dy="8"/>
<feGaussianBlur stdDeviation="8"/>
<feComposite in2="hardAlpha" operator="out"/>
<feColorMatrix type="matrix" values="0 0 0 0 0 0 0 0 0 0 0 0 0 0 0 0 0 0 0.08 0"/>
<feBlend mode="normal" in2="BackgroundImageFix" result="effect1_dropShadow"/>
<feBlend mode="normal" in="SourceGraphic" in2="effect1_dropShadow" result="shape"/>
</filter>
<linearGradient id="paint0_linear" x1="22.4334" y1="15" x2="84.4575" y2="48.7355" gradientUnits="userSpaceOnUse">
<stop stop-color="#D6E0E2"/>
<stop offset="1" stop-color="#E8EAEC"/>
</linearGradient>
<linearGradient id="paint1_linear" x1="127.753" y1="57.0213" x2="178.255" y2="85.4452" gradientUnits="userSpaceOnUse">
<stop stop-color="#ECEFF0"/>
<stop offset="1" stop-color="white"/>
</linearGradient>
<linearGradient id="paint2_linear" x1="106.795" y1="37.9521" x2="124.786" y2="40.1322" gradientUnits="userSpaceOnUse">
<stop stop-color="#ECEFF0"/>
<stop offset="1" stop-color="white"/>
</linearGradient>
<linearGradient id="paint3_linear" x1="92.7531" y1="49.1809" x2="150.546" y2="71.6134" gradientUnits="userSpaceOnUse">
<stop stop-color="#ECEFF0"/>
<stop offset="1" stop-color="white"/>
</linearGradient>
</defs>
</svg>
