<svg width="209" height="121" viewBox="0 0 209 121" fill="none" xmlns="http://www.w3.org/2000/svg">
<g filter="url(#filter0_d)">
<path d="M16.6165 11.1404H19.7883V19.9998H21.3196V11.1404H24.4964V9.818H16.6165V11.1404Z" fill="url(#paint0_linear)"/>
<path d="M27.6049 15.4657C27.6049 14.2477 28.3755 13.5517 29.4345 13.5517C30.4586 13.5517 31.0701 14.2029 31.0701 15.3216V19.9998H32.5566V15.1426C32.5566 13.2385 31.5126 12.264 29.9416 12.264C28.7534 12.264 28.0374 12.7811 27.6795 13.6064H27.585V9.818H26.1184V19.9998H27.6049V15.4657Z" fill="url(#paint1_linear)"/>
<path d="M40.9238 11.8315C40.9238 12.5822 40.8343 13.144 40.3819 13.3926C39.7605 12.6717 38.8556 12.264 37.7569 12.264C35.6042 12.264 34.1972 13.84 34.1972 16.2164C34.1972 18.5779 35.6042 20.1539 37.7569 20.1539C39.9096 20.1539 41.3166 18.5779 41.3166 16.2164C41.3166 15.4359 41.1624 14.7399 40.884 14.1632C41.7292 13.8002 42.0722 12.9799 42.0722 11.8315H40.9238ZM37.7619 18.9061C36.3549 18.9061 35.6987 17.6781 35.6987 16.2115C35.6987 14.7498 36.3549 13.5069 37.7619 13.5069C39.1589 13.5069 39.8151 14.7498 39.8151 16.2115C39.8151 17.6781 39.1589 18.9061 37.7619 18.9061ZM37.1802 11.3443H38.3684L37.21 9.05238H35.644L37.1802 11.3443Z" fill="url(#paint2_linear)"/>
<path d="M43.0715 19.9998H44.558V12.3635H43.0715V19.9998ZM43.8222 11.1852C44.3343 11.1852 44.7619 10.7875 44.7619 10.3002C44.7619 9.81303 44.3343 9.41033 43.8222 9.41033C43.3052 9.41033 42.8826 9.81303 42.8826 10.3002C42.8826 10.7875 43.3052 11.1852 43.8222 11.1852Z" fill="url(#paint3_linear)"/>
<path d="M53.4646 23.0226C55.4085 23.0226 56.91 22.1326 56.91 20.1689V12.3635H55.4533V13.6014H55.3439C55.0804 13.1291 54.5534 12.264 53.1315 12.264C51.2871 12.264 49.9298 13.7207 49.9298 16.1518C49.9298 18.5879 51.3169 19.8855 53.1216 19.8855C54.5236 19.8855 55.0655 19.095 55.334 18.6078H55.4284V20.1092C55.4284 21.3074 54.6081 21.8244 53.4796 21.8244C52.2416 21.8244 51.7594 21.2029 51.4959 20.7654L50.2182 21.2924C50.6209 22.2271 51.6401 23.0226 53.4646 23.0226ZM53.4497 18.6525C52.1223 18.6525 51.4313 17.6333 51.4313 16.1319C51.4313 14.6653 52.1074 13.5268 53.4497 13.5268C54.7473 13.5268 55.4433 14.5858 55.4433 16.1319C55.4433 17.7079 54.7324 18.6525 53.4497 18.6525Z" fill="url(#paint4_linear)"/>
<path d="M58.9036 19.9998H60.3901V12.3635H58.9036V19.9998ZM59.6543 11.1852C60.1663 11.1852 60.5939 10.7875 60.5939 10.3002C60.5939 9.81303 60.1663 9.41033 59.6543 9.41033C59.1372 9.41033 58.7146 9.81303 58.7146 10.3002C58.7146 10.7875 59.1372 11.1852 59.6543 11.1852Z" fill="url(#paint5_linear)"/>
<path d="M64.6122 20.1689C65.875 20.1689 66.5859 19.5275 66.8693 18.9558H66.929V19.9998H68.3807V14.9288C68.3807 12.7065 66.6307 12.264 65.4176 12.264C64.0355 12.264 62.7628 12.8208 62.2656 14.2129L63.6626 14.5311C63.8814 13.9892 64.4382 13.4672 65.4375 13.4672C66.397 13.4672 66.8892 13.9693 66.8892 14.8343V14.8691C66.8892 15.411 66.3324 15.4011 64.9602 15.5602C63.5135 15.7292 62.0319 16.1071 62.0319 17.8422C62.0319 19.3436 63.1605 20.1689 64.6122 20.1689ZM64.9353 18.9757C64.0951 18.9757 63.4886 18.5978 63.4886 17.862C63.4886 17.0666 64.1946 16.7832 65.0547 16.6689C65.5369 16.6042 66.6804 16.475 66.8942 16.2612V17.2456C66.8942 18.1504 66.1733 18.9757 64.9353 18.9757Z" fill="url(#paint6_linear)"/>
<path d="M71.8471 15.4657C71.8471 14.2477 72.5928 13.5517 73.6269 13.5517C74.6362 13.5517 75.2477 14.2129 75.2477 15.3216V19.9998H76.7342V15.1426C76.7342 13.2534 75.6951 12.264 74.134 12.264C72.9856 12.264 72.2349 12.796 71.8819 13.6064H71.7874V12.3635H70.3606V19.9998H71.8471V15.4657Z" fill="url(#paint7_linear)"/>
<path d="M83.9194 15.4657C83.9194 14.2477 84.6651 13.5517 85.6992 13.5517C86.7084 13.5517 87.3199 14.2129 87.3199 15.3216V19.9998H88.8064V15.1426C88.8064 13.2534 87.7674 12.264 86.2063 12.264C85.0579 12.264 84.3072 12.796 83.9542 13.6064H83.8597V12.3635H82.4329V19.9998H83.9194V15.4657Z" fill="url(#paint8_linear)"/>
<path d="M92.2866 15.4657C92.2866 14.2477 93.0571 13.5517 94.1161 13.5517C95.1402 13.5517 95.7518 14.2029 95.7518 15.3216V19.9998H97.2383V15.1426C97.2383 13.2385 96.1942 12.264 94.6232 12.264C93.435 12.264 92.7191 12.7811 92.3611 13.6064H92.2667V9.818H90.8V19.9998H92.2866V15.4657Z" fill="url(#paint9_linear)"/>
<path d="M101.444 20.1689C102.707 20.1689 103.418 19.5275 103.701 18.9558H103.761V19.9998H105.213V14.9288C105.213 12.7065 103.463 12.264 102.25 12.264C100.868 12.264 99.5948 12.8208 99.0976 14.2129L100.495 14.5311C100.713 13.9892 101.27 13.4672 102.27 13.4672C103.229 13.4672 103.721 13.9693 103.721 14.8343V14.8691C103.721 15.411 103.164 15.4011 101.792 15.5602C100.346 15.7292 98.864 16.1071 98.864 17.8422C98.864 19.3436 99.9925 20.1689 101.444 20.1689ZM101.767 18.9757C100.927 18.9757 100.321 18.5978 100.321 17.862C100.321 17.0666 101.027 16.7832 101.887 16.6689C102.369 16.6042 103.512 16.475 103.726 16.2612V17.2456C103.726 18.1504 103.005 18.9757 101.767 18.9757ZM101.305 11.4487L102.329 10.1163L103.348 11.4487H104.696V11.3741L102.946 9.26616H101.708L99.9627 11.3741V11.4487H101.305ZM102.26 22.6348C102.772 22.6348 103.199 22.237 103.199 21.7498C103.199 21.2626 102.772 20.8599 102.26 20.8599C101.743 20.8599 101.32 21.2626 101.32 21.7498C101.32 22.237 101.743 22.6348 102.26 22.6348Z" fill="url(#paint10_linear)"/>
<path d="M108.679 15.4657C108.679 14.2477 109.425 13.5517 110.459 13.5517C111.468 13.5517 112.08 14.2129 112.08 15.3216V19.9998H113.566V15.1426C113.566 13.2534 112.527 12.264 110.966 12.264C109.818 12.264 109.067 12.796 108.714 13.6064H108.619V12.3635H107.193V19.9998H108.679V15.4657Z" fill="url(#paint11_linear)"/>
<path d="M120.751 15.4657C120.751 14.2477 121.522 13.5517 122.581 13.5517C123.605 13.5517 124.217 14.2029 124.217 15.3216V19.9998H125.703V15.1426C125.703 13.2385 124.659 12.264 123.088 12.264C121.9 12.264 121.184 12.7811 120.826 13.6064H120.732V9.818H119.265V19.9998H120.751V15.4657Z" fill="url(#paint12_linear)"/>
<path d="M130.903 20.1539C133.056 20.1539 134.463 18.5779 134.463 16.2164C134.463 13.84 133.056 12.264 130.903 12.264C128.751 12.264 127.344 13.84 127.344 16.2164C127.344 18.5779 128.751 20.1539 130.903 20.1539ZM130.908 18.9061C129.501 18.9061 128.845 17.6781 128.845 16.2115C128.845 14.7498 129.501 13.5069 130.908 13.5069C132.305 13.5069 132.962 14.7498 132.962 16.2115C132.962 17.6781 132.305 18.9061 130.908 18.9061ZM131.396 10.0368H130.381L128.318 11.6625H129.636L130.888 10.6781L132.146 11.6625H133.459L131.396 10.0368ZM132.072 8.30664C132.072 8.55025 131.823 8.8038 131.57 8.8038C131.067 8.8038 130.7 8.35636 130.158 8.35636C129.541 8.35636 129.104 8.9082 129.104 9.44016L129.7 9.59925C129.7 9.35565 129.949 9.10707 130.207 9.10707C130.729 9.10707 130.958 9.5744 131.619 9.5744C132.236 9.5744 132.688 9.03746 132.688 8.50053L132.072 8.30664Z" fill="url(#paint13_linear)"/>
<path d="M143.392 12.3635H141.826V10.5339H140.339V12.3635H139.221V13.5566H140.339V18.0659C140.334 19.4529 141.393 20.1241 142.567 20.0993C143.039 20.0943 143.357 20.0048 143.531 19.9402L143.263 18.7122C143.163 18.7321 142.979 18.7768 142.741 18.7768C142.258 18.7768 141.826 18.6177 141.826 17.7576V13.5566H143.392V12.3635Z" fill="url(#paint14_linear)"/>
<path d="M145.036 19.9998H146.523V15.3365C146.523 14.3372 147.293 13.6163 148.347 13.6163C148.656 13.6163 149.004 13.671 149.123 13.7058V12.2839C148.974 12.264 148.681 12.2491 148.492 12.2491C147.597 12.2491 146.831 12.7562 146.553 13.5765H146.473V12.3635H145.036V19.9998Z" fill="url(#paint15_linear)"/>
<path d="M156.52 11.8315C156.52 12.5822 156.43 13.144 155.978 13.3926C155.356 12.6717 154.451 12.264 153.353 12.264C151.2 12.264 149.793 13.84 149.793 16.2164C149.793 18.5779 151.2 20.1539 153.353 20.1539C155.505 20.1539 156.912 18.5779 156.912 16.2164C156.912 15.4359 156.758 14.7399 156.48 14.1632C157.325 13.8002 157.668 12.9799 157.668 11.8315H156.52ZM153.358 18.9061C151.951 18.9061 151.294 17.6781 151.294 16.2115C151.294 14.7498 151.951 13.5069 153.358 13.5069C154.755 13.5069 155.411 14.7498 155.411 16.2115C155.411 17.6781 154.755 18.9061 153.358 18.9061ZM153.353 22.6348C153.865 22.6348 154.292 22.237 154.292 21.7498C154.292 21.2626 153.865 20.8599 153.353 20.8599C152.836 20.8599 152.413 21.2626 152.413 21.7498C152.413 22.237 152.836 22.6348 153.353 22.6348Z" fill="url(#paint16_linear)"/>
<path d="M16.5398 31.636H20.9148V42.9996H24.8068V31.636H29.1818V28.4541H16.5398V31.636Z" fill="url(#paint17_linear)"/>
<path d="M34.3985 43.1985C37.9496 43.1985 40.0519 40.9257 40.0519 37.5735C40.0519 34.2212 37.9496 31.9485 34.3985 31.9485C30.8473 31.9485 28.7451 34.2212 28.7451 37.5735C28.7451 40.9257 30.8473 43.1985 34.3985 43.1985ZM34.4269 40.3007C33.3757 40.3007 32.7507 39.2567 32.7507 37.5451C32.7507 35.8334 33.3757 34.7894 34.4269 34.7894C35.4212 34.7894 36.0462 35.8334 36.0462 37.5451C36.0462 39.2567 35.4212 40.3007 34.4269 40.3007ZM30.6769 31.011H32.9212L34.3701 30.0166L35.7905 31.011H38.0632L35.1939 29.0507H33.5178L30.6769 31.011ZM37.3246 30.0735H39.1996L41.6996 27.3462H39.1712L37.3246 30.0735Z" fill="url(#paint18_linear)"/>
<path d="M41.6428 42.9996H45.5632V32.0905H41.6428V42.9996ZM43.603 30.9541C44.6683 30.9541 45.5348 30.1516 45.5348 29.1644C45.5348 28.1772 44.6683 27.3746 43.603 27.3746C42.5377 27.3746 41.6712 28.1772 41.6712 29.1644C41.6712 30.1516 42.5377 30.9541 43.603 30.9541Z" fill="url(#paint19_linear)"/>
<path d="M55.494 43.1416C57.0281 43.1416 58.0792 42.3178 58.5338 41.2098H58.619V42.9996H62.511V31.4655H63.5338V29.3632H62.511V28.4541H58.5906V29.3632H55.8917V31.4655H58.5906V33.9939H58.5338C58.1076 32.886 57.0849 31.9485 55.4656 31.9485C53.3065 31.9485 51.2042 33.5962 51.2042 37.5451C51.2042 41.3235 53.1644 43.1416 55.494 43.1416ZM56.9428 40.1303C55.8633 40.1303 55.2383 39.1644 55.2383 37.5451C55.2383 35.9257 55.8633 34.9598 56.9428 34.9598C58.0224 34.9598 58.6758 35.9257 58.6758 37.5451C58.6758 39.136 58.0224 40.1303 56.9428 40.1303Z" fill="url(#paint20_linear)"/>
<path d="M67.4755 43.1701C68.896 43.1701 69.9684 42.6871 70.6289 41.4655H70.7142V42.9996H74.3789V35.528C74.3789 33.511 72.4684 31.9485 69.3505 31.9485C66.0906 31.9485 64.4855 33.653 64.3505 35.6416H67.9585C68.0508 34.9669 68.548 34.6473 69.2937 34.6473C69.9755 34.6473 70.4585 34.9598 70.4585 35.528V35.5564C70.4585 36.1885 69.7625 36.3874 67.9301 36.5223C65.6786 36.6857 63.9244 37.5948 63.9244 39.9882C63.9244 42.1615 65.3875 43.1701 67.4755 43.1701ZM68.7539 40.6985C68.0863 40.6985 67.6176 40.3718 67.6176 39.761C67.6176 39.1999 68.0153 38.7666 68.9244 38.6246C69.5494 38.5252 70.075 38.3973 70.4869 38.2269V39.136C70.4869 40.1303 69.6417 40.6985 68.7539 40.6985Z" fill="url(#paint21_linear)"/>
<path d="M80.0661 40.7269H87.1399V42.9996H90.9184V40.7269H92.5945V37.6587H90.9184V28.4541H85.9184L80.0661 37.6587V40.7269ZM87.2252 37.6587H83.9581V37.5451L87.1115 32.5451H87.2252V37.6587Z" fill="url(#paint22_linear)"/>
<path d="M102.184 36.8632C102.191 35.7837 102.802 35.1303 103.775 35.1303C104.762 35.1303 105.345 35.7837 105.338 36.8632V42.9996H109.258V36.0394C109.265 33.6672 107.767 31.9485 105.451 31.9485C103.846 31.9485 102.575 32.7865 102.099 34.1644H101.985V32.0905H98.2639V42.9996H102.184V36.8632Z" fill="url(#paint23_linear)"/>
<path d="M114.233 43.1701C115.654 43.1701 116.726 42.6871 117.387 41.4655H117.472V42.9996H121.137V35.528C121.137 33.511 119.226 31.9485 116.108 31.9485C112.848 31.9485 111.243 33.653 111.108 35.6416H114.716C114.809 34.9669 115.306 34.6473 116.052 34.6473C116.733 34.6473 117.216 34.9598 117.216 35.528V35.5564C117.216 36.1885 116.52 36.3874 114.688 36.5223C112.436 36.6857 110.682 37.5948 110.682 39.9882C110.682 42.1615 112.145 43.1701 114.233 43.1701ZM117.642 28.1701C117.635 28.7951 117.238 29.3632 116.222 29.3632C115.164 29.3632 114.766 28.7666 114.773 28.1701H112.33C112.323 30.0166 113.829 31.2098 116.222 31.2098C118.601 31.2098 120.107 30.0166 120.114 28.1701H117.642ZM115.512 40.6985C114.844 40.6985 114.375 40.3718 114.375 39.761C114.375 39.1999 114.773 38.7666 115.682 38.6246C116.307 38.5252 116.833 38.3973 117.245 38.2269V39.136C117.245 40.1303 116.4 40.6985 115.512 40.6985Z" fill="url(#paint24_linear)"/>
<path d="M123.01 42.9996H126.93V36.636C126.93 35.6843 127.428 35.1019 128.237 35.1019C129.047 35.1019 129.572 35.6843 129.572 36.636V42.9996H133.322V36.636C133.322 35.6843 133.82 35.1019 134.629 35.1019C135.439 35.1019 135.965 35.6843 135.965 36.636V42.9996H139.885V35.6416C139.885 33.4044 138.45 31.9485 136.362 31.9485C134.743 31.9485 133.436 32.8291 133.067 34.1644H132.953C132.726 32.8291 131.504 31.9485 129.97 31.9485C128.457 31.9485 127.3 32.8007 126.845 34.1644H126.732V32.0905H123.01V42.9996Z" fill="url(#paint25_linear)"/>
<path d="M16.6165 64.1404H19.7883V72.9997H21.3196V64.1404H24.4964V62.8179H16.6165V64.1404Z" fill="url(#paint26_linear)"/>
<path d="M27.6049 68.4656C27.6049 67.2476 28.3755 66.5516 29.4345 66.5516C30.4586 66.5516 31.0701 67.2029 31.0701 68.3215V72.9997H32.5566V68.1425C32.5566 66.2384 31.5126 65.2639 29.9416 65.2639C28.7534 65.2639 28.0374 65.781 27.6795 66.6063H27.585V62.8179H26.1184V72.9997H27.6049V68.4656Z" fill="url(#paint27_linear)"/>
<path d="M40.9238 64.8314C40.9238 65.5821 40.8343 66.1439 40.3819 66.3925C39.7605 65.6716 38.8556 65.2639 37.7569 65.2639C35.6042 65.2639 34.1972 66.8399 34.1972 69.2164C34.1972 71.5779 35.6042 73.1539 37.7569 73.1539C39.9096 73.1539 41.3166 71.5779 41.3166 69.2164C41.3166 68.4358 41.1624 67.7398 40.884 67.1631C41.7292 66.8002 42.0722 65.9798 42.0722 64.8314H40.9238ZM37.7619 71.906C36.3549 71.906 35.6987 70.678 35.6987 69.2114C35.6987 67.7497 36.3549 66.5068 37.7619 66.5068C39.1589 66.5068 39.8151 67.7497 39.8151 69.2114C39.8151 70.678 39.1589 71.906 37.7619 71.906ZM37.1802 64.3442H38.3684L37.21 62.0523H35.644L37.1802 64.3442Z" fill="url(#paint28_linear)"/>
<path d="M43.0715 72.9997H44.558V65.3634H43.0715V72.9997ZM43.8222 64.1851C44.3343 64.1851 44.7619 63.7874 44.7619 63.3002C44.7619 62.8129 44.3343 62.4102 43.8222 62.4102C43.3052 62.4102 42.8826 62.8129 42.8826 63.3002C42.8826 63.7874 43.3052 64.1851 43.8222 64.1851Z" fill="url(#paint29_linear)"/>
<path d="M53.4646 76.0225C55.4085 76.0225 56.91 75.1325 56.91 73.1688V65.3634H55.4533V66.6013H55.3439C55.0804 66.129 54.5534 65.2639 53.1315 65.2639C51.2871 65.2639 49.9298 66.7206 49.9298 69.1517C49.9298 71.5878 51.3169 72.8854 53.1216 72.8854C54.5236 72.8854 55.0655 72.0949 55.334 71.6077H55.4284V73.1091C55.4284 74.3073 54.6081 74.8243 53.4796 74.8243C52.2416 74.8243 51.7594 74.2029 51.4959 73.7654L50.2182 74.2923C50.6209 75.227 51.6401 76.0225 53.4646 76.0225ZM53.4497 71.6524C52.1223 71.6524 51.4313 70.6333 51.4313 69.1318C51.4313 67.6652 52.1074 66.5267 53.4497 66.5267C54.7473 66.5267 55.4433 67.5857 55.4433 69.1318C55.4433 70.7078 54.7324 71.6524 53.4497 71.6524Z" fill="url(#paint30_linear)"/>
<path d="M58.9036 72.9997H60.3901V65.3634H58.9036V72.9997ZM59.6543 64.1851C60.1663 64.1851 60.5939 63.7874 60.5939 63.3002C60.5939 62.8129 60.1663 62.4102 59.6543 62.4102C59.1372 62.4102 58.7146 62.8129 58.7146 63.3002C58.7146 63.7874 59.1372 64.1851 59.6543 64.1851Z" fill="url(#paint31_linear)"/>
<path d="M64.6122 73.1688C65.875 73.1688 66.5859 72.5274 66.8693 71.9557H66.929V72.9997H68.3807V67.9287C68.3807 65.7064 66.6307 65.2639 65.4176 65.2639C64.0355 65.2639 62.7628 65.8208 62.2656 67.2128L63.6626 67.531C63.8814 66.9891 64.4382 66.4671 65.4375 66.4671C66.397 66.4671 66.8892 66.9692 66.8892 67.8343V67.8691C66.8892 68.411 66.3324 68.401 64.9602 68.5601C63.5135 68.7291 62.0319 69.107 62.0319 70.8421C62.0319 72.3435 63.1605 73.1688 64.6122 73.1688ZM64.9353 71.9756C64.0951 71.9756 63.4886 71.5977 63.4886 70.8619C63.4886 70.0665 64.1946 69.7831 65.0547 69.6688C65.5369 69.6041 66.6804 69.4749 66.8942 69.2611V70.2455C66.8942 71.1503 66.1733 71.9756 64.9353 71.9756Z" fill="url(#paint32_linear)"/>
<path d="M71.8471 68.4656C71.8471 67.2476 72.5928 66.5516 73.6269 66.5516C74.6362 66.5516 75.2477 67.2128 75.2477 68.3215V72.9997H76.7342V68.1425C76.7342 66.2533 75.6951 65.2639 74.134 65.2639C72.9856 65.2639 72.2349 65.7959 71.8819 66.6063H71.7874V65.3634H70.3606V72.9997H71.8471V68.4656Z" fill="url(#paint33_linear)"/>
<path d="M85.6495 73.1539C87.4542 73.1539 88.6225 72.07 88.7866 70.5835H87.3398C87.1509 71.4088 86.5096 71.896 85.6594 71.896C84.4016 71.896 83.5912 70.847 83.5912 69.1816C83.5912 67.5459 84.4165 66.5168 85.6594 66.5168C86.604 66.5168 87.1807 67.1134 87.3398 67.8293H88.7866C88.6275 66.2881 87.3697 65.2639 85.6346 65.2639C83.4819 65.2639 82.0898 66.8847 82.0898 69.2164C82.0898 71.5182 83.4322 73.1539 85.6495 73.1539Z" fill="url(#paint34_linear)"/>
<path d="M92.5985 73.1688C93.8613 73.1688 94.5722 72.5274 94.8556 71.9557H94.9153V72.9997H96.367V67.9287C96.367 65.7064 94.617 65.2639 93.4039 65.2639C92.0218 65.2639 90.7491 65.8208 90.2519 67.2128L91.6489 67.531C91.8677 66.9891 92.4245 66.4671 93.4238 66.4671C94.3833 66.4671 94.8755 66.9692 94.8755 67.8343V67.8691C94.8755 68.411 94.3187 68.401 92.9465 68.5601C91.4998 68.7291 90.0183 69.107 90.0183 70.8421C90.0183 72.3435 91.1468 73.1688 92.5985 73.1688ZM92.9217 71.9756C92.0815 71.9756 91.4749 71.5977 91.4749 70.8619C91.4749 70.0665 92.1809 69.7831 93.041 69.6688C93.5232 69.6041 94.6667 69.4749 94.8805 69.2611V70.2455C94.8805 71.1503 94.1596 71.9756 92.9217 71.9756Z" fill="url(#paint35_linear)"/>
<path d="M98.3469 72.9997H99.8334V68.2916C99.8334 67.2625 100.554 66.5466 101.399 66.5466C102.225 66.5466 102.796 67.0935 102.796 67.9237V72.9997H104.278V68.1325C104.278 67.2128 104.84 66.5466 105.809 66.5466C106.595 66.5466 107.241 66.9841 107.241 68.0182V72.9997H108.728V67.879C108.728 66.134 107.753 65.2639 106.371 65.2639C105.272 65.2639 104.447 65.7909 104.079 66.6063H104C103.667 65.771 102.966 65.2639 101.946 65.2639C100.937 65.2639 100.186 65.7661 99.8682 66.6063H99.7738V65.3634H98.3469V72.9997Z" fill="url(#paint36_linear)"/>
<path d="M114.425 72.9997H115.912V70.2902L116.652 69.5494L119.247 72.9997H121.072L117.771 68.6396L120.863 65.3634H119.083L116.041 68.5949H115.912V62.8179H114.425V72.9997Z" fill="url(#paint37_linear)"/>
<path d="M125.195 73.1539C126.86 73.1539 128.039 72.3335 128.377 71.0906L126.97 70.8371C126.701 71.558 126.055 71.9259 125.21 71.9259C123.937 71.9259 123.082 71.1006 123.042 69.629H128.471V69.102C128.471 66.3428 126.82 65.2639 125.09 65.2639C122.963 65.2639 121.561 66.8847 121.561 69.2313C121.561 71.6027 122.943 73.1539 125.195 73.1539ZM123.047 68.5154C123.107 67.4316 123.892 66.4919 125.1 66.4919C126.254 66.4919 127.009 67.347 127.014 68.5154H123.047ZM122.46 64.4486H123.932L125.046 63.4642L126.149 64.4486H127.611L125.588 62.7235H124.479L122.46 64.4486ZM127.079 63.3449H128.168L129.634 61.5303H128.118L127.079 63.3449Z" fill="url(#paint38_linear)"/>
<path d="M133.685 65.3634H132.119V63.5338H130.632V65.3634H129.514V66.5566H130.632V71.0658C130.627 72.4529 131.686 73.124 132.86 73.0992C133.332 73.0942 133.65 73.0047 133.824 72.9401L133.556 71.7121C133.456 71.732 133.272 71.7767 133.034 71.7767C132.551 71.7767 132.119 71.6176 132.119 70.7575V66.5566H133.685V65.3634Z" fill="url(#paint39_linear)"/>
<path d="M140.521 62.8179H139.034V72.9997H140.521V62.8179Z" fill="url(#paint40_linear)"/>
<path d="M144.743 73.1688C146.006 73.1688 146.717 72.5274 147 71.9557H147.06V72.9997H148.512V67.9287C148.512 65.7064 146.762 65.2639 145.548 65.2639C144.166 65.2639 142.894 65.8208 142.396 67.2128L143.793 67.531C144.012 66.9891 144.569 66.4671 145.568 66.4671C146.528 66.4671 147.02 66.9692 147.02 67.8343V67.8691C147.02 68.411 146.463 68.401 145.091 68.5601C143.644 68.7291 142.163 69.107 142.163 70.8421C142.163 72.3435 143.291 73.1688 144.743 73.1688ZM145.066 71.9756C144.226 71.9756 143.619 71.5977 143.619 70.8619C143.619 70.0665 144.325 69.7831 145.186 69.6688C145.668 69.6041 146.811 69.4749 147.025 69.2611V70.2455C147.025 71.1503 146.304 71.9756 145.066 71.9756ZM145.046 64.3442H146.235L145.076 62.0523H143.51L145.046 64.3442Z" fill="url(#paint41_linear)"/>
<path d="M150.491 72.9997H151.978V68.2916C151.978 67.2625 152.699 66.5466 153.544 66.5466C154.369 66.5466 154.941 67.0935 154.941 67.9237V72.9997H156.423V68.1325C156.423 67.2128 156.984 66.5466 157.954 66.5466C158.739 66.5466 159.386 66.9841 159.386 68.0182V72.9997H160.872V67.879C160.872 66.134 159.898 65.2639 158.516 65.2639C157.417 65.2639 156.592 65.7909 156.224 66.6063H156.144C155.811 65.771 155.11 65.2639 154.091 65.2639C153.082 65.2639 152.331 65.7661 152.013 66.6063H151.918V65.3634H150.491V72.9997Z" fill="url(#paint42_linear)"/>
<path d="M173.102 65.3634H171.506L169.577 71.2398H169.498L167.564 65.3634H165.968L168.742 72.9997H170.333L173.102 65.3634Z" fill="url(#paint43_linear)"/>
<path d="M174.499 72.9997H175.986V65.3634H174.499V72.9997ZM175.25 64.1851C175.762 64.1851 176.19 63.7874 176.19 63.3002C176.19 62.8129 175.762 62.4102 175.25 62.4102C174.733 62.4102 174.31 62.8129 174.31 63.3002C174.31 63.7874 174.733 64.1851 175.25 64.1851Z" fill="url(#paint44_linear)"/>
<path d="M181.277 73.1539C182.942 73.1539 184.121 72.3335 184.459 71.0906L183.052 70.8371C182.783 71.558 182.137 71.9259 181.292 71.9259C180.019 71.9259 179.164 71.1006 179.124 69.629H184.553V69.102C184.553 66.3428 182.903 65.2639 181.172 65.2639C179.045 65.2639 177.643 66.8847 177.643 69.2313C177.643 71.6027 179.025 73.1539 181.277 73.1539ZM179.129 68.5154C179.189 67.4316 179.974 66.4919 181.182 66.4919C182.336 66.4919 183.091 67.347 183.096 68.5154H179.129ZM180.094 64.4486L181.118 63.1162L182.137 64.4486H183.484V64.374L181.734 62.2661H180.496L178.751 64.374V64.4486H180.094ZM181.113 75.6347C181.625 75.6347 182.052 75.2369 182.052 74.7497C182.052 74.2625 181.625 73.8598 181.113 73.8598C180.596 73.8598 180.173 74.2625 180.173 74.7497C180.173 75.2369 180.596 75.6347 181.113 75.6347Z" fill="url(#paint45_linear)"/>
<path d="M189.419 73.1539C191.224 73.1539 192.392 72.07 192.556 70.5835H191.109C190.92 71.4088 190.279 71.896 189.429 71.896C188.171 71.896 187.361 70.847 187.361 69.1816C187.361 67.5459 188.186 66.5168 189.429 66.5168C190.374 66.5168 190.95 67.1134 191.109 67.8293H192.556C192.397 66.2881 191.139 65.2639 189.404 65.2639C187.251 65.2639 185.859 66.8847 185.859 69.2164C185.859 71.5182 187.202 73.1539 189.419 73.1539Z" fill="url(#paint46_linear)"/>
<path d="M16.7452 84.6363H21.1202V96H25.0123V84.6363H29.3873V81.4545H16.7452V84.6363Z" fill="url(#paint47_linear)"/>
<path d="M42.1163 84.409C42.1021 85.8295 41.8678 86.6818 40.5538 86.9233V85.0909H36.6334V91.2272C36.6405 92.3068 36.0155 92.9602 35.0425 92.9602C34.0553 92.9602 33.4871 92.3068 33.48 91.2272V85.0909H29.5595V92.0511C29.5666 94.4375 31.0723 96.142 33.3663 96.142C34.9928 96.142 36.2428 95.3181 36.7186 93.9261H36.8322V96H40.5538V88.4289C43.132 88.1875 44.0339 86.8167 44.0481 84.409H42.1163ZM33.7925 83.7272H36.3777L35.0141 80.5454H31.6618L33.7925 83.7272Z" fill="url(#paint48_linear)"/>
<path d="M48.7339 96H59.8987V92.8465H54.2168V92.7613L55.5805 91.625C58.8972 88.8622 59.7424 87.4275 59.7424 85.7443C59.7424 83.0312 57.5194 81.2556 54.0322 81.2556C50.6444 81.2556 48.4427 83.1377 48.4498 86.1988H52.1998C52.1927 84.9772 52.9384 84.2954 54.0322 84.2954C55.1188 84.2954 55.893 84.9701 55.893 86.0852C55.893 87.115 55.2325 87.7826 54.16 88.6704L48.7339 93.159V96Z" fill="url(#paint49_linear)"/>
<path d="M69.5968 89.8636C69.6039 88.784 70.2147 88.1306 71.1877 88.1306C72.1749 88.1306 72.7573 88.784 72.7502 89.8636V96H76.6707V89.0397C76.6778 86.6676 75.1792 84.9488 72.8638 84.9488C71.2587 84.9488 69.9874 85.7869 69.5116 87.1647H69.3979V85.0909H65.6763V96H69.5968V89.8636Z" fill="url(#paint50_linear)"/>
<path d="M81.6458 96.1704C83.0663 96.1704 84.1387 95.6875 84.7992 94.4659H84.8844V96H88.5492V88.5284C88.5492 86.5113 86.6387 84.9488 83.5208 84.9488C80.2609 84.9488 78.6558 86.6534 78.5208 88.642H82.1288C82.2211 87.9673 82.7183 87.6477 83.464 87.6477C84.1458 87.6477 84.6288 87.9602 84.6288 88.5284V88.5568C84.6288 89.1889 83.9327 89.3877 82.1004 89.5227C79.8489 89.686 78.0947 90.5951 78.0947 92.9886C78.0947 95.1619 79.5577 96.1704 81.6458 96.1704ZM85.0549 81.1704C85.0478 81.7954 84.6501 82.3636 83.6344 82.3636C82.5762 82.3636 82.1785 81.767 82.1856 81.1704H79.7424C79.7353 83.017 81.241 84.2102 83.6344 84.2102C86.0137 84.2102 87.5194 83.017 87.5265 81.1704H85.0549ZM82.9242 93.6988C82.2566 93.6988 81.7879 93.3721 81.7879 92.7613C81.7879 92.2002 82.1856 91.767 83.0947 91.625C83.7197 91.5255 84.2452 91.3977 84.6572 91.2272V92.1363C84.6572 93.1306 83.812 93.6988 82.9242 93.6988Z" fill="url(#paint51_linear)"/>
<path d="M90.4224 96H94.3429V89.6363C94.3429 88.6846 94.84 88.1022 95.6497 88.1022C96.4594 88.1022 96.9849 88.6846 96.9849 89.6363V96H100.735V89.6363C100.735 88.6846 101.232 88.1022 102.042 88.1022C102.851 88.1022 103.377 88.6846 103.377 89.6363V96H107.297V88.642C107.297 86.4048 105.863 84.9488 103.775 84.9488C102.155 84.9488 100.849 85.8295 100.479 87.1647H100.366C100.138 85.8295 98.9168 84.9488 97.3827 84.9488C95.8699 84.9488 94.7122 85.8011 94.2577 87.1647H94.144V85.0909H90.4224V96Z" fill="url(#paint52_linear)"/>
</g>
<defs>
<filter id="filter0_d" x="0.539795" y="0.306641" width="208.016" height="119.864" filterUnits="userSpaceOnUse" color-interpolation-filters="sRGB">
<feFlood flood-opacity="0" result="BackgroundImageFix"/>
<feColorMatrix in="SourceAlpha" type="matrix" values="0 0 0 0 0 0 0 0 0 0 0 0 0 0 0 0 0 0 127 0" result="hardAlpha"/>
<feOffset dy="8"/>
<feGaussianBlur stdDeviation="8"/>
<feComposite in2="hardAlpha" operator="out"/>
<feColorMatrix type="matrix" values="0 0 0 0 0 0 0 0 0 0 0 0 0 0 0 0 0 0 0.08 0"/>
<feBlend mode="normal" in2="BackgroundImageFix" result="effect1_dropShadow"/>
<feBlend mode="normal" in="SourceGraphic" in2="effect1_dropShadow" result="shape"/>
</filter>
<linearGradient id="paint0_linear" x1="26.4533" y1="1.02072e-06" x2="81.856" y2="56.5014" gradientUnits="userSpaceOnUse">
<stop stop-color="#D6E0E2"/>
<stop offset="1" stop-color="#E8EAEC"/>
</linearGradient>
<linearGradient id="paint1_linear" x1="26.4533" y1="1.02072e-06" x2="81.856" y2="56.5014" gradientUnits="userSpaceOnUse">
<stop stop-color="#D6E0E2"/>
<stop offset="1" stop-color="#E8EAEC"/>
</linearGradient>
<linearGradient id="paint2_linear" x1="26.4533" y1="1.02072e-06" x2="81.856" y2="56.5014" gradientUnits="userSpaceOnUse">
<stop stop-color="#D6E0E2"/>
<stop offset="1" stop-color="#E8EAEC"/>
</linearGradient>
<linearGradient id="paint3_linear" x1="26.4533" y1="1.02072e-06" x2="81.856" y2="56.5014" gradientUnits="userSpaceOnUse">
<stop stop-color="#D6E0E2"/>
<stop offset="1" stop-color="#E8EAEC"/>
</linearGradient>
<linearGradient id="paint4_linear" x1="26.4533" y1="1.02072e-06" x2="81.856" y2="56.5014" gradientUnits="userSpaceOnUse">
<stop stop-color="#D6E0E2"/>
<stop offset="1" stop-color="#E8EAEC"/>
</linearGradient>
<linearGradient id="paint5_linear" x1="26.4533" y1="1.02072e-06" x2="81.856" y2="56.5014" gradientUnits="userSpaceOnUse">
<stop stop-color="#D6E0E2"/>
<stop offset="1" stop-color="#E8EAEC"/>
</linearGradient>
<linearGradient id="paint6_linear" x1="26.4533" y1="1.02072e-06" x2="81.856" y2="56.5014" gradientUnits="userSpaceOnUse">
<stop stop-color="#D6E0E2"/>
<stop offset="1" stop-color="#E8EAEC"/>
</linearGradient>
<linearGradient id="paint7_linear" x1="26.4533" y1="1.02072e-06" x2="81.856" y2="56.5014" gradientUnits="userSpaceOnUse">
<stop stop-color="#D6E0E2"/>
<stop offset="1" stop-color="#E8EAEC"/>
</linearGradient>
<linearGradient id="paint8_linear" x1="26.4533" y1="1.02072e-06" x2="81.856" y2="56.5014" gradientUnits="userSpaceOnUse">
<stop stop-color="#D6E0E2"/>
<stop offset="1" stop-color="#E8EAEC"/>
</linearGradient>
<linearGradient id="paint9_linear" x1="26.4533" y1="1.02072e-06" x2="81.856" y2="56.5014" gradientUnits="userSpaceOnUse">
<stop stop-color="#D6E0E2"/>
<stop offset="1" stop-color="#E8EAEC"/>
</linearGradient>
<linearGradient id="paint10_linear" x1="26.4533" y1="1.02072e-06" x2="81.856" y2="56.5014" gradientUnits="userSpaceOnUse">
<stop stop-color="#D6E0E2"/>
<stop offset="1" stop-color="#E8EAEC"/>
</linearGradient>
<linearGradient id="paint11_linear" x1="26.4533" y1="1.02072e-06" x2="81.856" y2="56.5014" gradientUnits="userSpaceOnUse">
<stop stop-color="#D6E0E2"/>
<stop offset="1" stop-color="#E8EAEC"/>
</linearGradient>
<linearGradient id="paint12_linear" x1="26.4533" y1="1.02072e-06" x2="81.856" y2="56.5014" gradientUnits="userSpaceOnUse">
<stop stop-color="#D6E0E2"/>
<stop offset="1" stop-color="#E8EAEC"/>
</linearGradient>
<linearGradient id="paint13_linear" x1="26.4533" y1="1.02072e-06" x2="81.856" y2="56.5014" gradientUnits="userSpaceOnUse">
<stop stop-color="#D6E0E2"/>
<stop offset="1" stop-color="#E8EAEC"/>
</linearGradient>
<linearGradient id="paint14_linear" x1="26.4533" y1="1.02072e-06" x2="81.856" y2="56.5014" gradientUnits="userSpaceOnUse">
<stop stop-color="#D6E0E2"/>
<stop offset="1" stop-color="#E8EAEC"/>
</linearGradient>
<linearGradient id="paint15_linear" x1="26.4533" y1="1.02072e-06" x2="81.856" y2="56.5014" gradientUnits="userSpaceOnUse">
<stop stop-color="#D6E0E2"/>
<stop offset="1" stop-color="#E8EAEC"/>
</linearGradient>
<linearGradient id="paint16_linear" x1="26.4533" y1="1.02072e-06" x2="81.856" y2="56.5014" gradientUnits="userSpaceOnUse">
<stop stop-color="#D6E0E2"/>
<stop offset="1" stop-color="#E8EAEC"/>
</linearGradient>
<linearGradient id="paint17_linear" x1="26.2466" y1="15.9995" x2="97.1693" y2="69.1741" gradientUnits="userSpaceOnUse">
<stop stop-color="#D6E0E2"/>
<stop offset="1" stop-color="#E8EAEC"/>
</linearGradient>
<linearGradient id="paint18_linear" x1="26.2466" y1="15.9995" x2="97.1693" y2="69.1741" gradientUnits="userSpaceOnUse">
<stop stop-color="#D6E0E2"/>
<stop offset="1" stop-color="#E8EAEC"/>
</linearGradient>
<linearGradient id="paint19_linear" x1="26.2466" y1="15.9995" x2="97.1693" y2="69.1741" gradientUnits="userSpaceOnUse">
<stop stop-color="#D6E0E2"/>
<stop offset="1" stop-color="#E8EAEC"/>
</linearGradient>
<linearGradient id="paint20_linear" x1="26.2466" y1="15.9995" x2="97.1693" y2="69.1741" gradientUnits="userSpaceOnUse">
<stop stop-color="#D6E0E2"/>
<stop offset="1" stop-color="#E8EAEC"/>
</linearGradient>
<linearGradient id="paint21_linear" x1="26.2466" y1="15.9995" x2="97.1693" y2="69.1741" gradientUnits="userSpaceOnUse">
<stop stop-color="#D6E0E2"/>
<stop offset="1" stop-color="#E8EAEC"/>
</linearGradient>
<linearGradient id="paint22_linear" x1="26.2466" y1="15.9995" x2="97.1693" y2="69.1741" gradientUnits="userSpaceOnUse">
<stop stop-color="#D6E0E2"/>
<stop offset="1" stop-color="#E8EAEC"/>
</linearGradient>
<linearGradient id="paint23_linear" x1="26.2466" y1="15.9995" x2="97.1693" y2="69.1741" gradientUnits="userSpaceOnUse">
<stop stop-color="#D6E0E2"/>
<stop offset="1" stop-color="#E8EAEC"/>
</linearGradient>
<linearGradient id="paint24_linear" x1="26.2466" y1="15.9995" x2="97.1693" y2="69.1741" gradientUnits="userSpaceOnUse">
<stop stop-color="#D6E0E2"/>
<stop offset="1" stop-color="#E8EAEC"/>
</linearGradient>
<linearGradient id="paint25_linear" x1="26.2466" y1="15.9995" x2="97.1693" y2="69.1741" gradientUnits="userSpaceOnUse">
<stop stop-color="#D6E0E2"/>
<stop offset="1" stop-color="#E8EAEC"/>
</linearGradient>
<linearGradient id="paint26_linear" x1="28.4858" y1="52.9995" x2="82.8378" y2="119.207" gradientUnits="userSpaceOnUse">
<stop stop-color="#D6E0E2"/>
<stop offset="1" stop-color="#E8EAEC"/>
</linearGradient>
<linearGradient id="paint27_linear" x1="28.4858" y1="52.9995" x2="82.8378" y2="119.207" gradientUnits="userSpaceOnUse">
<stop stop-color="#D6E0E2"/>
<stop offset="1" stop-color="#E8EAEC"/>
</linearGradient>
<linearGradient id="paint28_linear" x1="28.4858" y1="52.9995" x2="82.8378" y2="119.207" gradientUnits="userSpaceOnUse">
<stop stop-color="#D6E0E2"/>
<stop offset="1" stop-color="#E8EAEC"/>
</linearGradient>
<linearGradient id="paint29_linear" x1="28.4858" y1="52.9995" x2="82.8378" y2="119.207" gradientUnits="userSpaceOnUse">
<stop stop-color="#D6E0E2"/>
<stop offset="1" stop-color="#E8EAEC"/>
</linearGradient>
<linearGradient id="paint30_linear" x1="28.4858" y1="52.9995" x2="82.8378" y2="119.207" gradientUnits="userSpaceOnUse">
<stop stop-color="#D6E0E2"/>
<stop offset="1" stop-color="#E8EAEC"/>
</linearGradient>
<linearGradient id="paint31_linear" x1="28.4858" y1="52.9995" x2="82.8378" y2="119.207" gradientUnits="userSpaceOnUse">
<stop stop-color="#D6E0E2"/>
<stop offset="1" stop-color="#E8EAEC"/>
</linearGradient>
<linearGradient id="paint32_linear" x1="28.4858" y1="52.9995" x2="82.8378" y2="119.207" gradientUnits="userSpaceOnUse">
<stop stop-color="#D6E0E2"/>
<stop offset="1" stop-color="#E8EAEC"/>
</linearGradient>
<linearGradient id="paint33_linear" x1="28.4858" y1="52.9995" x2="82.8378" y2="119.207" gradientUnits="userSpaceOnUse">
<stop stop-color="#D6E0E2"/>
<stop offset="1" stop-color="#E8EAEC"/>
</linearGradient>
<linearGradient id="paint34_linear" x1="28.4858" y1="52.9995" x2="82.8378" y2="119.207" gradientUnits="userSpaceOnUse">
<stop stop-color="#D6E0E2"/>
<stop offset="1" stop-color="#E8EAEC"/>
</linearGradient>
<linearGradient id="paint35_linear" x1="28.4858" y1="52.9995" x2="82.8378" y2="119.207" gradientUnits="userSpaceOnUse">
<stop stop-color="#D6E0E2"/>
<stop offset="1" stop-color="#E8EAEC"/>
</linearGradient>
<linearGradient id="paint36_linear" x1="28.4858" y1="52.9995" x2="82.8378" y2="119.207" gradientUnits="userSpaceOnUse">
<stop stop-color="#D6E0E2"/>
<stop offset="1" stop-color="#E8EAEC"/>
</linearGradient>
<linearGradient id="paint37_linear" x1="28.4858" y1="52.9995" x2="82.8378" y2="119.207" gradientUnits="userSpaceOnUse">
<stop stop-color="#D6E0E2"/>
<stop offset="1" stop-color="#E8EAEC"/>
</linearGradient>
<linearGradient id="paint38_linear" x1="28.4858" y1="52.9995" x2="82.8378" y2="119.207" gradientUnits="userSpaceOnUse">
<stop stop-color="#D6E0E2"/>
<stop offset="1" stop-color="#E8EAEC"/>
</linearGradient>
<linearGradient id="paint39_linear" x1="28.4858" y1="52.9995" x2="82.8378" y2="119.207" gradientUnits="userSpaceOnUse">
<stop stop-color="#D6E0E2"/>
<stop offset="1" stop-color="#E8EAEC"/>
</linearGradient>
<linearGradient id="paint40_linear" x1="28.4858" y1="52.9995" x2="82.8378" y2="119.207" gradientUnits="userSpaceOnUse">
<stop stop-color="#D6E0E2"/>
<stop offset="1" stop-color="#E8EAEC"/>
</linearGradient>
<linearGradient id="paint41_linear" x1="28.4858" y1="52.9995" x2="82.8378" y2="119.207" gradientUnits="userSpaceOnUse">
<stop stop-color="#D6E0E2"/>
<stop offset="1" stop-color="#E8EAEC"/>
</linearGradient>
<linearGradient id="paint42_linear" x1="28.4858" y1="52.9995" x2="82.8378" y2="119.207" gradientUnits="userSpaceOnUse">
<stop stop-color="#D6E0E2"/>
<stop offset="1" stop-color="#E8EAEC"/>
</linearGradient>
<linearGradient id="paint43_linear" x1="28.4858" y1="52.9995" x2="82.8378" y2="119.207" gradientUnits="userSpaceOnUse">
<stop stop-color="#D6E0E2"/>
<stop offset="1" stop-color="#E8EAEC"/>
</linearGradient>
<linearGradient id="paint44_linear" x1="28.4858" y1="52.9995" x2="82.8378" y2="119.207" gradientUnits="userSpaceOnUse">
<stop stop-color="#D6E0E2"/>
<stop offset="1" stop-color="#E8EAEC"/>
</linearGradient>
<linearGradient id="paint45_linear" x1="28.4858" y1="52.9995" x2="82.8378" y2="119.207" gradientUnits="userSpaceOnUse">
<stop stop-color="#D6E0E2"/>
<stop offset="1" stop-color="#E8EAEC"/>
</linearGradient>
<linearGradient id="paint46_linear" x1="28.4858" y1="52.9995" x2="82.8378" y2="119.207" gradientUnits="userSpaceOnUse">
<stop stop-color="#D6E0E2"/>
<stop offset="1" stop-color="#E8EAEC"/>
</linearGradient>
<linearGradient id="paint47_linear" x1="-15.7534" y1="69" x2="55.1693" y2="122.175" gradientUnits="userSpaceOnUse">
<stop stop-color="#D6E0E2"/>
<stop offset="1" stop-color="#E8EAEC"/>
</linearGradient>
<linearGradient id="paint48_linear" x1="-15.7534" y1="69" x2="55.1693" y2="122.175" gradientUnits="userSpaceOnUse">
<stop stop-color="#D6E0E2"/>
<stop offset="1" stop-color="#E8EAEC"/>
</linearGradient>
<linearGradient id="paint49_linear" x1="-15.7534" y1="69" x2="55.1693" y2="122.175" gradientUnits="userSpaceOnUse">
<stop stop-color="#D6E0E2"/>
<stop offset="1" stop-color="#E8EAEC"/>
</linearGradient>
<linearGradient id="paint50_linear" x1="-15.7534" y1="69" x2="55.1693" y2="122.175" gradientUnits="userSpaceOnUse">
<stop stop-color="#D6E0E2"/>
<stop offset="1" stop-color="#E8EAEC"/>
</linearGradient>
<linearGradient id="paint51_linear" x1="-15.7534" y1="69" x2="55.1693" y2="122.175" gradientUnits="userSpaceOnUse">
<stop stop-color="#D6E0E2"/>
<stop offset="1" stop-color="#E8EAEC"/>
</linearGradient>
<linearGradient id="paint52_linear" x1="-15.7534" y1="69" x2="55.1693" y2="122.175" gradientUnits="userSpaceOnUse">
<stop stop-color="#D6E0E2"/>
<stop offset="1" stop-color="#E8EAEC"/>
</linearGradient>
</defs>
</svg>
