<svg width="219" height="63" viewBox="0 0 219 63" fill="none" xmlns="http://www.w3.org/2000/svg">
<g filter="url(#filter0_d)">
<path d="M16.5938 27H21.3324V22.5L22.9006 20.4545L26.821 27H32.4801L26.446 17.3182L32.3438 9.54545H26.821L21.571 16.6023H21.3324V9.54545H16.5938V27Z" fill="url(#paint0_linear)"/>
<path d="M38.5227 19.6364C38.5312 18.3409 39.2812 17.5568 40.4318 17.5568C41.6335 17.5568 42.3153 18.3409 42.3068 19.6364V27H47.0114V18.6477C47.0199 15.7841 45.2131 13.7386 42.4432 13.7386C40.5085 13.7386 39.0767 14.7273 38.4886 16.3977H38.3523V9.54545H33.8182V27H38.5227V19.6364Z" fill="url(#paint1_linear)"/>
<path d="M55.6406 27.2386C59.902 27.2386 62.4247 24.5114 62.4247 20.4886C62.4247 16.4659 59.902 13.7386 55.6406 13.7386C51.3793 13.7386 48.8565 16.4659 48.8565 20.4886C48.8565 24.5114 51.3793 27.2386 55.6406 27.2386ZM53.9702 12.358L55.6406 10.483L57.3111 12.358H61.1974V12.2557L57.277 8.36932H54.0043L50.0838 12.2557V12.358H53.9702ZM55.6747 23.7614C54.4134 23.7614 53.6634 22.5085 53.6634 20.4545C53.6634 18.4006 54.4134 17.1477 55.6747 17.1477C56.8679 17.1477 57.6179 18.4006 57.6179 20.4545C57.6179 22.5085 56.8679 23.7614 55.6747 23.7614Z" fill="url(#paint2_linear)"/>
<path d="M69.0384 19.6364C69.0469 18.3409 69.7798 17.5568 70.9474 17.5568C72.1321 17.5568 72.831 18.3409 72.8224 19.6364V27H77.527V18.6477C77.5355 15.8011 75.7372 13.7386 72.9588 13.7386C71.0327 13.7386 69.5071 14.7443 68.9361 16.3977H68.7997V13.9091H64.3338V27H69.0384V19.6364Z" fill="url(#paint3_linear)"/>
<path d="M86.1562 32.1818C90.2983 32.1818 93.0426 30.2898 93.0426 26.9659V13.9091H88.3381V16.1932H88.2358C87.7244 14.8636 86.4972 13.7386 84.554 13.7386C81.9631 13.7386 79.4403 15.7159 79.4403 20.4545C79.4403 24.9886 81.7926 26.8295 84.5881 26.8295C86.3608 26.8295 87.7585 26.0795 88.2699 24.75H88.4062V26.9659C88.4062 28.5085 87.5114 29.0114 86.2926 29.0114C85.2102 29.0114 84.4176 28.6875 84.2812 27.8523H79.7472C79.9261 30.375 82.2188 32.1818 86.1562 32.1818ZM86.3267 23.4886C85.0312 23.4886 84.2812 22.3977 84.2812 20.4545C84.2812 18.5114 85.0312 17.3523 86.3267 17.3523C87.6222 17.3523 88.4062 18.5114 88.4062 20.4545C88.4062 22.3636 87.6222 23.4886 86.3267 23.4886Z" fill="url(#paint4_linear)"/>
<path d="M106.523 32.1818C110.665 32.1818 113.41 30.2898 113.41 26.9659V13.9091H108.705V16.1932H108.603C108.092 14.8636 106.864 13.7386 104.921 13.7386C102.33 13.7386 99.8075 15.7159 99.8075 20.4545C99.8075 24.9886 102.16 26.8295 104.955 26.8295C106.728 26.8295 108.126 26.0795 108.637 24.75H108.773V26.9659C108.773 28.5085 107.879 29.0114 106.66 29.0114C105.577 29.0114 104.785 28.6875 104.648 27.8523H100.114C100.293 30.375 102.586 32.1818 106.523 32.1818ZM106.694 23.4886C105.398 23.4886 104.648 22.3977 104.648 20.4545C104.648 18.5114 105.398 17.3523 106.694 17.3523C107.989 17.3523 108.773 18.5114 108.773 20.4545C108.773 22.3636 107.989 23.4886 106.694 23.4886Z" fill="url(#paint5_linear)"/>
<path d="M115.803 27H120.507V13.9091H115.803V27ZM118.155 12.5455C119.433 12.5455 120.473 11.5824 120.473 10.3977C120.473 9.21307 119.433 8.25 118.155 8.25C116.876 8.25 115.837 9.21307 115.837 10.3977C115.837 11.5824 116.876 12.5455 118.155 12.5455Z" fill="url(#paint6_linear)"/>
<path d="M135.075 13.2955C135.075 14.4545 134.93 15.3494 134.487 15.9205C133.327 14.5398 131.521 13.7386 129.211 13.7386C124.95 13.7386 122.427 16.4659 122.427 20.4886C122.427 24.5114 124.95 27.2386 129.211 27.2386C133.472 27.2386 135.995 24.5114 135.995 20.4886C135.995 19.3807 135.808 18.375 135.441 17.4972C136.788 16.7472 137.427 15.3068 137.427 13.2955H135.075ZM129.245 23.7614C127.984 23.7614 127.234 22.5085 127.234 20.4545C127.234 18.4006 127.984 17.1477 129.245 17.1477C130.438 17.1477 131.188 18.4006 131.188 20.4545C131.188 22.5085 130.438 23.7614 129.245 23.7614ZM127.643 12.2727H130.745L133.302 8.45454H129.279L127.643 12.2727Z" fill="url(#paint7_linear)"/>
<path d="M138.631 27H143.335V13.9091H138.631V27ZM140.983 12.5455C142.261 12.5455 143.301 11.5824 143.301 10.3977C143.301 9.21307 142.261 8.25 140.983 8.25C139.705 8.25 138.665 9.21307 138.665 10.3977C138.665 11.5824 139.705 12.5455 140.983 12.5455Z" fill="url(#paint8_linear)"/>
<path d="M155.218 19.6364C155.227 18.3409 155.977 17.5568 157.127 17.5568C158.329 17.5568 159.011 18.3409 159.002 19.6364V27H163.707V18.6477C163.715 15.7841 161.908 13.7386 159.138 13.7386C157.204 13.7386 155.772 14.7273 155.184 16.3977H155.048V9.54545H150.513V27H155.218V19.6364Z" fill="url(#paint9_linear)"/>
<path d="M169.677 27.2045C171.381 27.2045 172.668 26.625 173.461 25.1591H173.563V27H177.961V18.0341C177.961 15.6136 175.668 13.7386 171.927 13.7386C168.015 13.7386 166.089 15.7841 165.927 18.1705H170.256C170.367 17.3608 170.964 16.9773 171.859 16.9773C172.677 16.9773 173.256 17.3523 173.256 18.0341V18.0682C173.256 18.8267 172.421 19.0653 170.222 19.2273C167.521 19.4233 165.415 20.5142 165.415 23.3864C165.415 25.9943 167.171 27.2045 169.677 27.2045ZM171.893 32.2841C173.171 32.2841 174.211 31.321 174.211 30.1364C174.211 28.9517 173.171 27.9886 171.893 27.9886C170.614 27.9886 169.575 28.9517 169.575 30.1364C169.575 31.321 170.614 32.2841 171.893 32.2841ZM171.211 24.2386C170.41 24.2386 169.847 23.8466 169.847 23.1136C169.847 22.4403 170.325 21.9205 171.415 21.75C172.165 21.6307 172.796 21.4773 173.29 21.2727V22.3636C173.29 23.5568 172.276 24.2386 171.211 24.2386Z" fill="url(#paint10_linear)"/>
<path d="M184.913 19.6364C184.922 18.3409 185.655 17.5568 186.822 17.5568C188.007 17.5568 188.706 18.3409 188.697 19.6364V27H193.402V18.6477C193.411 15.8011 191.612 13.7386 188.834 13.7386C186.908 13.7386 185.382 14.7443 184.811 16.3977H184.675V13.9091H180.209V27H184.913V19.6364Z" fill="url(#paint11_linear)"/>
</g>
<path d="M93.3715 44.8182H91.5369V51.7586H91.4475L86.6548 44.8182H85.0043V55H86.8487V48.0647H86.9332L91.7308 55H93.3715V44.8182Z" fill="#292D32"/>
<path d="M98.6227 58.0228C100.686 58.0228 102.207 57.0782 102.207 55.1243V47.3637H100.432V48.6265H100.333C100.059 48.0746 99.4878 47.2642 98.1405 47.2642C96.3755 47.2642 94.9885 48.6464 94.9885 51.157C94.9885 53.6478 96.3755 54.8907 98.1355 54.8907C99.443 54.8907 100.055 54.1897 100.333 53.6279H100.422V55.0746C100.422 56.1982 99.6767 56.6606 98.6525 56.6606C97.5687 56.6606 97.0915 56.1485 96.8727 55.701L95.252 56.0938C95.5801 57.1627 96.6788 58.0228 98.6227 58.0228ZM98.6376 53.4787C97.4494 53.4787 96.823 52.554 96.823 51.1471C96.823 49.76 97.4395 48.7408 98.6376 48.7408C99.796 48.7408 100.432 49.7003 100.432 51.1471C100.432 52.6037 99.7861 53.4787 98.6376 53.4787Z" fill="#292D32"/>
<path d="M106.249 55.1542C107.447 55.1542 108.163 54.5924 108.491 53.951H108.551V55H110.281V49.8892C110.281 47.8708 108.635 47.2642 107.179 47.2642C105.573 47.2642 104.34 47.9802 103.942 49.3722L105.623 49.6108C105.802 49.0888 106.309 48.6414 107.189 48.6414C108.024 48.6414 108.481 49.0689 108.481 49.8196V49.8495C108.481 50.3665 107.939 50.3914 106.592 50.5356C105.111 50.6946 103.694 51.1371 103.694 52.8573C103.694 54.3587 104.792 55.1542 106.249 55.1542ZM106.249 46.4489L107.258 45.1762L108.268 46.4489H109.844V46.3793L107.964 44.2316H106.557L104.673 46.3793V46.4489H106.249ZM106.716 53.8317C105.966 53.8317 105.429 53.4887 105.429 52.8275C105.429 52.1364 106.03 51.8481 106.836 51.7337C107.308 51.6691 108.253 51.5498 108.486 51.3608V52.2607C108.486 53.1108 107.8 53.8317 106.716 53.8317Z" fill="#292D32"/>
<path d="M113.89 50.5256C113.89 49.4219 114.557 48.7856 115.506 48.7856C116.436 48.7856 116.993 49.3971 116.993 50.4162V55H118.792V50.1378C118.797 48.3083 117.753 47.2642 116.177 47.2642C115.034 47.2642 114.248 47.8111 113.9 48.6613H113.811V47.3637H112.091V55H113.89V50.5256Z" fill="#292D32"/>
<path d="M125.894 50.5256C125.894 49.4219 126.58 48.7856 127.545 48.7856C128.49 48.7856 129.046 49.3871 129.046 50.4162V55H130.846V50.1378C130.846 48.2934 129.802 47.2642 128.216 47.2642C127.043 47.2642 126.297 47.7962 125.944 48.6613H125.855V44.8182H124.095V55H125.894V50.5256Z" fill="#292D32"/>
<path d="M134.878 55.1542C136.076 55.1542 136.792 54.5924 137.12 53.951H137.18V55H138.91V49.8892C138.91 47.8708 137.264 47.2642 135.808 47.2642C134.202 47.2642 132.969 47.9802 132.571 49.3722L134.252 49.6108C134.431 49.0888 134.938 48.6414 135.818 48.6414C136.653 48.6414 137.11 49.0689 137.11 49.8196V49.8495C137.11 50.3665 136.568 50.3914 135.221 50.5356C133.74 50.6946 132.323 51.1371 132.323 52.8573C132.323 54.3587 133.421 55.1542 134.878 55.1542ZM135.345 53.8317C134.595 53.8317 134.058 53.4887 134.058 52.8275C134.058 52.1364 134.659 51.8481 135.465 51.7337C135.937 51.6691 136.882 51.5498 137.115 51.3608V52.2607C137.115 53.1108 136.429 53.8317 135.345 53.8317ZM135.231 46.3594H136.578L135.47 44.0874H133.705L135.231 46.3594Z" fill="#292D32"/>
<path d="M142.519 50.5256C142.519 49.4219 143.186 48.7856 144.135 48.7856C145.065 48.7856 145.622 49.3971 145.622 50.4162V55H147.421V50.1378C147.426 48.3083 146.382 47.2642 144.806 47.2642C143.663 47.2642 142.877 47.8111 142.529 48.6613H142.44V47.3637H140.72V55H142.519V50.5256Z" fill="#292D32"/>
<path d="M152.572 58.0228C154.635 58.0228 156.156 57.0782 156.156 55.1243V47.3637H154.382V48.6265H154.282C154.009 48.0746 153.437 47.2642 152.09 47.2642C150.325 47.2642 148.938 48.6464 148.938 51.157C148.938 53.6478 150.325 54.8907 152.085 54.8907C153.392 54.8907 154.004 54.1897 154.282 53.6279H154.372V55.0746C154.372 56.1982 153.626 56.6606 152.602 56.6606C151.518 56.6606 151.041 56.1485 150.822 55.701L149.201 56.0938C149.529 57.1627 150.628 58.0228 152.572 58.0228ZM152.587 53.4787C151.399 53.4787 150.772 52.554 150.772 51.1471C150.772 49.76 151.389 48.7408 152.587 48.7408C153.745 48.7408 154.382 49.7003 154.382 51.1471C154.382 52.6037 153.735 53.4787 152.587 53.4787Z" fill="#292D32"/>
<path d="M160.114 53.608H158.523L158.488 54.1648C158.404 55.5121 158.051 56.8843 157.906 57.4858H159.12C159.358 56.8594 159.91 55.4077 160.049 54.1549L160.114 53.608Z" fill="#292D32"/>
<path d="M165.288 55H167.088V52.4347L167.744 51.7337L170.081 55H172.233L169.101 50.6598L172.059 47.3637H169.956L167.212 50.4312H167.088V44.8182H165.288V55Z" fill="#292D32"/>
<path d="M175.058 50.5256C175.058 49.4219 175.745 48.7856 176.709 48.7856C177.654 48.7856 178.21 49.3871 178.21 50.4162V55H180.01V50.1378C180.01 48.2934 178.966 47.2642 177.38 47.2642C176.207 47.2642 175.461 47.7962 175.108 48.6613H175.019V44.8182H173.259V55H175.058V50.5256Z" fill="#292D32"/>
<path d="M186.712 51.7884C186.712 52.9517 185.882 53.5285 185.086 53.5285C184.221 53.5285 183.644 52.9169 183.644 51.9475V47.3637H181.845V52.2259C181.845 54.0604 182.889 55.0995 184.39 55.0995C185.534 55.0995 186.339 54.4979 186.687 53.6428H186.767V55H188.512V47.3637H186.712V51.7884Z" fill="#292D32"/>
<path d="M200.656 47.3637H198.742L196.982 53.0363H196.902L195.147 47.3637H193.228L195.948 55H197.936L200.656 47.3637Z" fill="#292D32"/>
<path d="M209.577 46.9709C209.572 47.9255 209.488 48.4326 208.598 48.5519V47.3637H206.798V51.7884C206.798 52.9517 205.968 53.5285 205.173 53.5285C204.308 53.5285 203.731 52.9169 203.731 51.9475V47.3637H201.931V52.2259C201.931 54.0604 202.975 55.0995 204.477 55.0995C205.62 55.0995 206.425 54.4979 206.773 53.6428H206.853V55H208.598V49.4617C210.219 49.3324 210.731 48.4873 210.736 46.9709H209.577ZM205.486 57.7444C206.058 57.7444 206.525 57.3069 206.525 56.7699C206.525 56.228 206.058 55.7905 205.486 55.7905C204.909 55.7905 204.442 56.228 204.442 56.7699C204.442 57.3069 204.909 57.7444 205.486 57.7444Z" fill="#292D32"/>
<path d="M214.748 55.1492C216.667 55.1492 217.89 54.0107 218.019 52.39H216.299C216.145 53.2103 215.553 53.6826 214.763 53.6826C213.639 53.6826 212.913 52.7429 212.913 51.1819C212.913 49.6407 213.654 48.716 214.763 48.716C215.628 48.716 216.16 49.2728 216.299 50.0086H218.019C217.895 48.353 216.602 47.2642 214.738 47.2642C212.501 47.2642 211.089 48.88 211.089 51.2117C211.089 53.5235 212.466 55.1492 214.748 55.1492Z" fill="#292D32"/>
<path fill-rule="evenodd" clip-rule="evenodd" d="M50.3305 36.5195C51.139 36.6999 51.6861 37.5089 51.5523 38.3265C50.9344 42.1044 51.1631 44.6735 52.0697 46.5736C52.958 48.4355 54.6325 49.9326 57.532 51.2929C57.758 51.399 58.2483 51.5378 58.9552 51.667C59.6227 51.7891 60.3636 51.8819 61.0089 51.94C61.2413 51.961 61.4511 51.9765 61.6336 51.9874C61.9166 51.8418 62.253 51.7922 62.5975 51.8691C62.728 51.8982 62.8725 51.9342 63.0068 51.98C63.0704 52.0016 63.1765 52.0404 63.2938 52.102C63.2951 52.1027 63.2969 52.1037 63.2992 52.1048C63.3585 52.1353 63.7198 52.3208 63.9651 52.7405C64.1328 53.0273 64.2558 53.4457 64.1472 53.905C64.0491 54.3201 63.8079 54.5673 63.6662 54.6842C63.4185 54.8886 63.1596 54.9549 63.0982 54.9706L63.0942 54.9716C62.9165 55.0174 62.7433 55.0288 62.6547 55.0336C62.2531 55.0553 61.5932 55.0221 60.905 54.9601C60.1925 54.8959 59.3601 54.7925 58.5845 54.6507C57.8482 54.5161 57.0256 54.3236 56.4142 54.0368C53.1554 52.5079 50.7487 50.5781 49.4149 47.7826C48.0993 45.0253 47.9647 41.7064 48.6243 37.6732C48.7581 36.8556 49.5219 36.3391 50.3305 36.5195ZM62.362 52.0043C62.362 52.0044 62.3585 52.0048 62.351 52.0053C62.3581 52.0045 62.362 52.0043 62.362 52.0043Z" fill="white"/>
<path fill-rule="evenodd" clip-rule="evenodd" d="M60.4976 47.6634C60.8019 46.9037 61.6655 46.5731 62.4264 46.9249C62.8287 47.111 63.2375 47.304 63.6495 47.4985C65.4636 48.355 67.338 49.24 68.9771 49.6797C69.1834 49.735 69.3516 49.7779 69.4898 49.8128C69.5124 49.8185 69.535 49.8242 69.5575 49.8299C69.6631 49.8565 69.7654 49.8823 69.8454 49.9041C69.8477 49.9047 69.8507 49.9055 69.8545 49.9066C69.9123 49.9219 70.1382 49.9819 70.3482 50.0995C70.3494 50.1002 70.3506 50.1008 70.3519 50.1016C70.4372 50.1492 70.891 50.4026 71.1016 50.9835C71.3735 51.7337 71.0142 52.2885 70.8761 52.4612C70.7422 52.6288 70.5969 52.7303 70.5608 52.7555C70.5597 52.7562 70.5587 52.7569 70.5578 52.7576C70.5103 52.7909 70.4628 52.8204 70.4449 52.8315L70.4417 52.8335C70.3994 52.8598 70.3883 52.867 70.3803 52.8728C70.087 53.3819 69.4189 54.1614 68.713 54.9307C67.9595 55.7519 67.0315 56.7007 66.1119 57.5869C65.197 58.4685 64.2655 59.3125 63.5086 59.9118C63.1382 60.2051 62.7625 60.4777 62.4272 60.6638C62.2683 60.7519 62.041 60.8649 61.7814 60.9277C61.6197 60.9667 60.8953 61.1278 60.2495 60.5515C59.6162 59.9864 59.5245 59.0275 60.0446 58.4097C60.2957 58.1116 60.6434 57.9474 61.0072 57.9208C61.148 57.8317 61.3502 57.6873 61.6139 57.4785C62.2692 56.9595 63.1275 56.1856 64.0155 55.3299C64.8987 54.4787 65.7866 53.5705 66.4977 52.7955C66.701 52.5739 66.8816 52.372 67.0391 52.1915C65.4695 51.6343 63.8267 50.8568 62.4171 50.1896C62.0335 50.008 61.6672 49.8346 61.3243 49.6761C60.5634 49.3242 60.1932 48.4231 60.4976 47.6634ZM60.8608 58.0047C60.8608 58.0047 60.8619 58.0042 60.8641 58.0033C60.8619 58.0043 60.8608 58.0047 60.8608 58.0047Z" fill="white"/>
<defs>
<filter id="filter0_d" x="0.59375" y="0.25" width="208.808" height="56.0341" filterUnits="userSpaceOnUse" color-interpolation-filters="sRGB">
<feFlood flood-opacity="0" result="BackgroundImageFix"/>
<feColorMatrix in="SourceAlpha" type="matrix" values="0 0 0 0 0 0 0 0 0 0 0 0 0 0 0 0 0 0 127 0" result="hardAlpha"/>
<feOffset dy="8"/>
<feGaussianBlur stdDeviation="8"/>
<feComposite in2="hardAlpha" operator="out"/>
<feColorMatrix type="matrix" values="0 0 0 0 0 0 0 0 0 0 0 0 0 0 0 0 0 0 0.08 0"/>
<feBlend mode="normal" in2="BackgroundImageFix" result="effect1_dropShadow"/>
<feBlend mode="normal" in="SourceGraphic" in2="effect1_dropShadow" result="shape"/>
</filter>
<linearGradient id="paint0_linear" x1="25.4533" y1="-2" x2="96.7608" y2="52.5412" gradientUnits="userSpaceOnUse">
<stop stop-color="#D6E0E2"/>
<stop offset="1" stop-color="#E8EAEC"/>
</linearGradient>
<linearGradient id="paint1_linear" x1="25.4533" y1="-2" x2="96.7608" y2="52.5412" gradientUnits="userSpaceOnUse">
<stop stop-color="#D6E0E2"/>
<stop offset="1" stop-color="#E8EAEC"/>
</linearGradient>
<linearGradient id="paint2_linear" x1="25.4533" y1="-2" x2="96.7608" y2="52.5412" gradientUnits="userSpaceOnUse">
<stop stop-color="#D6E0E2"/>
<stop offset="1" stop-color="#E8EAEC"/>
</linearGradient>
<linearGradient id="paint3_linear" x1="25.4533" y1="-2" x2="96.7608" y2="52.5412" gradientUnits="userSpaceOnUse">
<stop stop-color="#D6E0E2"/>
<stop offset="1" stop-color="#E8EAEC"/>
</linearGradient>
<linearGradient id="paint4_linear" x1="25.4533" y1="-2" x2="96.7608" y2="52.5412" gradientUnits="userSpaceOnUse">
<stop stop-color="#D6E0E2"/>
<stop offset="1" stop-color="#E8EAEC"/>
</linearGradient>
<linearGradient id="paint5_linear" x1="25.4533" y1="-2" x2="96.7608" y2="52.5412" gradientUnits="userSpaceOnUse">
<stop stop-color="#D6E0E2"/>
<stop offset="1" stop-color="#E8EAEC"/>
</linearGradient>
<linearGradient id="paint6_linear" x1="25.4533" y1="-2" x2="96.7608" y2="52.5412" gradientUnits="userSpaceOnUse">
<stop stop-color="#D6E0E2"/>
<stop offset="1" stop-color="#E8EAEC"/>
</linearGradient>
<linearGradient id="paint7_linear" x1="25.4533" y1="-2" x2="96.7608" y2="52.5412" gradientUnits="userSpaceOnUse">
<stop stop-color="#D6E0E2"/>
<stop offset="1" stop-color="#E8EAEC"/>
</linearGradient>
<linearGradient id="paint8_linear" x1="25.4533" y1="-2" x2="96.7608" y2="52.5412" gradientUnits="userSpaceOnUse">
<stop stop-color="#D6E0E2"/>
<stop offset="1" stop-color="#E8EAEC"/>
</linearGradient>
<linearGradient id="paint9_linear" x1="25.4533" y1="-2" x2="96.7608" y2="52.5412" gradientUnits="userSpaceOnUse">
<stop stop-color="#D6E0E2"/>
<stop offset="1" stop-color="#E8EAEC"/>
</linearGradient>
<linearGradient id="paint10_linear" x1="25.4533" y1="-2" x2="96.7608" y2="52.5412" gradientUnits="userSpaceOnUse">
<stop stop-color="#D6E0E2"/>
<stop offset="1" stop-color="#E8EAEC"/>
</linearGradient>
<linearGradient id="paint11_linear" x1="25.4533" y1="-2" x2="96.7608" y2="52.5412" gradientUnits="userSpaceOnUse">
<stop stop-color="#D6E0E2"/>
<stop offset="1" stop-color="#E8EAEC"/>
</linearGradient>
</defs>
</svg>
