<svg width="219" height="64" viewBox="0 0 219 64" fill="none" xmlns="http://www.w3.org/2000/svg">
<g filter="url(#filter0_d)">
<path d="M16.5938 29H21.3324V24.5L22.9006 22.4545L26.821 29H32.4801L26.446 19.3182L32.3438 11.5455H26.821L21.571 18.6023H21.3324V11.5455H16.5938V29ZM38.5227 21.6364C38.5312 20.3409 39.2812 19.5568 40.4318 19.5568C41.6335 19.5568 42.3153 20.3409 42.3068 21.6364V29H47.0114V20.6477C47.0199 17.7841 45.2131 15.7386 42.4432 15.7386C40.5085 15.7386 39.0767 16.7273 38.4886 18.3977H38.3523V11.5455H33.8182V29H38.5227V21.6364ZM55.6406 29.2386C59.902 29.2386 62.4247 26.5114 62.4247 22.4886C62.4247 18.4659 59.902 15.7386 55.6406 15.7386C51.3793 15.7386 48.8565 18.4659 48.8565 22.4886C48.8565 26.5114 51.3793 29.2386 55.6406 29.2386ZM53.9702 14.358L55.6406 12.483L57.3111 14.358H61.1974V14.2557L57.277 10.3693H54.0043L50.0838 14.2557V14.358H53.9702ZM55.6747 25.7614C54.4134 25.7614 53.6634 24.5085 53.6634 22.4545C53.6634 20.4006 54.4134 19.1477 55.6747 19.1477C56.8679 19.1477 57.6179 20.4006 57.6179 22.4545C57.6179 24.5085 56.8679 25.7614 55.6747 25.7614ZM69.0384 21.6364C69.0469 20.3409 69.7798 19.5568 70.9474 19.5568C72.1321 19.5568 72.831 20.3409 72.8224 21.6364V29H77.527V20.6477C77.5355 17.8011 75.7372 15.7386 72.9588 15.7386C71.0327 15.7386 69.5071 16.7443 68.9361 18.3977H68.7997V15.9091H64.3338V29H69.0384V21.6364ZM86.1562 34.1818C90.2983 34.1818 93.0426 32.2898 93.0426 28.9659V15.9091H88.3381V18.1932H88.2358C87.7244 16.8636 86.4972 15.7386 84.554 15.7386C81.9631 15.7386 79.4403 17.7159 79.4403 22.4545C79.4403 26.9886 81.7926 28.8295 84.5881 28.8295C86.3608 28.8295 87.7585 28.0795 88.2699 26.75H88.4062V28.9659C88.4062 30.5085 87.5114 31.0114 86.2926 31.0114C85.2102 31.0114 84.4176 30.6875 84.2812 29.8523H79.7472C79.9261 32.375 82.2188 34.1818 86.1562 34.1818ZM86.3267 25.4886C85.0312 25.4886 84.2812 24.3977 84.2812 22.4545C84.2812 20.5114 85.0312 19.3523 86.3267 19.3523C87.6222 19.3523 88.4062 20.5114 88.4062 22.4545C88.4062 24.3636 87.6222 25.4886 86.3267 25.4886ZM106.523 34.1818C110.665 34.1818 113.41 32.2898 113.41 28.9659V15.9091H108.705V18.1932H108.603C108.092 16.8636 106.864 15.7386 104.921 15.7386C102.33 15.7386 99.8075 17.7159 99.8075 22.4545C99.8075 26.9886 102.16 28.8295 104.955 28.8295C106.728 28.8295 108.126 28.0795 108.637 26.75H108.773V28.9659C108.773 30.5085 107.879 31.0114 106.66 31.0114C105.577 31.0114 104.785 30.6875 104.648 29.8523H100.114C100.293 32.375 102.586 34.1818 106.523 34.1818ZM106.694 25.4886C105.398 25.4886 104.648 24.3977 104.648 22.4545C104.648 20.5114 105.398 19.3523 106.694 19.3523C107.989 19.3523 108.773 20.5114 108.773 22.4545C108.773 24.3636 107.989 25.4886 106.694 25.4886ZM115.803 29H120.507V15.9091H115.803V29ZM118.155 14.5455C119.433 14.5455 120.473 13.5824 120.473 12.3977C120.473 11.2131 119.433 10.25 118.155 10.25C116.876 10.25 115.837 11.2131 115.837 12.3977C115.837 13.5824 116.876 14.5455 118.155 14.5455ZM135.075 15.2955C135.075 16.4545 134.93 17.3494 134.487 17.9205C133.327 16.5398 131.521 15.7386 129.211 15.7386C124.95 15.7386 122.427 18.4659 122.427 22.4886C122.427 26.5114 124.95 29.2386 129.211 29.2386C133.472 29.2386 135.995 26.5114 135.995 22.4886C135.995 21.3807 135.808 20.375 135.441 19.4972C136.788 18.7472 137.427 17.3068 137.427 15.2955H135.075ZM129.245 25.7614C127.984 25.7614 127.234 24.5085 127.234 22.4545C127.234 20.4006 127.984 19.1477 129.245 19.1477C130.438 19.1477 131.188 20.4006 131.188 22.4545C131.188 24.5085 130.438 25.7614 129.245 25.7614ZM127.643 14.2727H130.745L133.302 10.4545H129.279L127.643 14.2727ZM138.631 29H143.335V15.9091H138.631V29ZM140.983 14.5455C142.261 14.5455 143.301 13.5824 143.301 12.3977C143.301 11.2131 142.261 10.25 140.983 10.25C139.705 10.25 138.665 11.2131 138.665 12.3977C138.665 13.5824 139.705 14.5455 140.983 14.5455ZM155.218 21.6364C155.227 20.3409 155.977 19.5568 157.127 19.5568C158.329 19.5568 159.011 20.3409 159.002 21.6364V29H163.707V20.6477C163.715 17.7841 161.908 15.7386 159.138 15.7386C157.204 15.7386 155.772 16.7273 155.184 18.3977H155.048V11.5455H150.513V29H155.218V21.6364ZM169.677 29.2045C171.381 29.2045 172.668 28.625 173.461 27.1591H173.563V29H177.961V20.0341C177.961 17.6136 175.668 15.7386 171.927 15.7386C168.015 15.7386 166.089 17.7841 165.927 20.1705H170.256C170.367 19.3608 170.964 18.9773 171.859 18.9773C172.677 18.9773 173.256 19.3523 173.256 20.0341V20.0682C173.256 20.8267 172.421 21.0653 170.222 21.2273C167.521 21.4233 165.415 22.5142 165.415 25.3864C165.415 27.9943 167.171 29.2045 169.677 29.2045ZM171.893 34.2841C173.171 34.2841 174.211 33.321 174.211 32.1364C174.211 30.9517 173.171 29.9886 171.893 29.9886C170.614 29.9886 169.575 30.9517 169.575 32.1364C169.575 33.321 170.614 34.2841 171.893 34.2841ZM171.211 26.2386C170.41 26.2386 169.847 25.8466 169.847 25.1136C169.847 24.4403 170.325 23.9205 171.415 23.75C172.165 23.6307 172.796 23.4773 173.29 23.2727V24.3636C173.29 25.5568 172.276 26.2386 171.211 26.2386ZM184.913 21.6364C184.922 20.3409 185.655 19.5568 186.822 19.5568C188.007 19.5568 188.706 20.3409 188.697 21.6364V29H193.402V20.6477C193.411 17.8011 191.612 15.7386 188.834 15.7386C186.908 15.7386 185.382 16.7443 184.811 18.3977H184.675V15.9091H180.209V29H184.913V21.6364Z" fill="url(#paint0_linear)"/>
</g>
<path d="M93.3714 46.8182H91.5369V53.7585H91.4474L86.6548 46.8182H85.0043V57H86.8487V50.0646H86.9332L91.7308 57H93.3714V46.8182ZM98.6227 60.0227C100.686 60.0227 102.207 59.0781 102.207 57.1243V49.3636H100.432V50.6264H100.333C100.059 50.0746 99.4877 49.2642 98.1404 49.2642C96.3755 49.2642 94.9885 50.6463 94.9885 53.157C94.9885 55.6477 96.3755 56.8906 98.1355 56.8906C99.443 56.8906 100.055 56.1896 100.333 55.6278H100.422V57.0746C100.422 58.1982 99.6767 58.6605 98.6525 58.6605C97.5687 58.6605 97.0914 58.1484 96.8727 57.701L95.252 58.0938C95.5801 59.1626 96.6788 60.0227 98.6227 60.0227ZM98.6376 55.4787C97.4494 55.4787 96.823 54.554 96.823 53.147C96.823 51.7599 97.4395 50.7408 98.6376 50.7408C99.796 50.7408 100.432 51.7003 100.432 53.147C100.432 54.6037 99.786 55.4787 98.6376 55.4787ZM106.249 57.1541C107.447 57.1541 108.163 56.5923 108.491 55.951H108.551V57H110.281V51.8892C110.281 49.8707 108.635 49.2642 107.179 49.2642C105.573 49.2642 104.34 49.9801 103.942 51.3722L105.623 51.6108C105.802 51.0888 106.309 50.6413 107.189 50.6413C108.024 50.6413 108.481 51.0689 108.481 51.8196V51.8494C108.481 52.3665 107.939 52.3913 106.592 52.5355C105.111 52.6946 103.694 53.1371 103.694 54.8572C103.694 56.3587 104.792 57.1541 106.249 57.1541ZM106.249 48.4489L107.258 47.1761L108.268 48.4489H109.844V48.3793L107.964 46.2315H106.557L104.673 48.3793V48.4489H106.249ZM106.716 55.8317C105.966 55.8317 105.429 55.4886 105.429 54.8274C105.429 54.1364 106.03 53.848 106.836 53.7337C107.308 53.669 108.253 53.5497 108.486 53.3608V54.2607C108.486 55.1108 107.8 55.8317 106.716 55.8317ZM113.89 52.5256C113.89 51.4219 114.557 50.7855 115.506 50.7855C116.436 50.7855 116.993 51.397 116.993 52.4162V57H118.792V52.1378C118.797 50.3082 117.753 49.2642 116.177 49.2642C115.034 49.2642 114.248 49.8111 113.9 50.6612H113.811V49.3636H112.091V57H113.89V52.5256ZM125.894 52.5256C125.894 51.4219 126.58 50.7855 127.545 50.7855C128.49 50.7855 129.046 51.3871 129.046 52.4162V57H130.846V52.1378C130.846 50.2933 129.802 49.2642 128.216 49.2642C127.043 49.2642 126.297 49.7962 125.944 50.6612H125.855V46.8182H124.095V57H125.894V52.5256ZM134.878 57.1541C136.076 57.1541 136.792 56.5923 137.12 55.951H137.18V57H138.91V51.8892C138.91 49.8707 137.264 49.2642 135.808 49.2642C134.202 49.2642 132.969 49.9801 132.571 51.3722L134.252 51.6108C134.431 51.0888 134.938 50.6413 135.818 50.6413C136.653 50.6413 137.11 51.0689 137.11 51.8196V51.8494C137.11 52.3665 136.568 52.3913 135.221 52.5355C133.74 52.6946 132.323 53.1371 132.323 54.8572C132.323 56.3587 133.421 57.1541 134.878 57.1541ZM135.345 55.8317C134.595 55.8317 134.058 55.4886 134.058 54.8274C134.058 54.1364 134.659 53.848 135.465 53.7337C135.937 53.669 136.882 53.5497 137.115 53.3608V54.2607C137.115 55.1108 136.429 55.8317 135.345 55.8317ZM135.231 48.3594H136.578L135.47 46.0874H133.705L135.231 48.3594ZM142.519 52.5256C142.519 51.4219 143.186 50.7855 144.135 50.7855C145.065 50.7855 145.622 51.397 145.622 52.4162V57H147.421V52.1378C147.426 50.3082 146.382 49.2642 144.806 49.2642C143.663 49.2642 142.877 49.8111 142.529 50.6612H142.44V49.3636H140.72V57H142.519V52.5256ZM152.572 60.0227C154.635 60.0227 156.156 59.0781 156.156 57.1243V49.3636H154.382V50.6264H154.282C154.009 50.0746 153.437 49.2642 152.09 49.2642C150.325 49.2642 148.938 50.6463 148.938 53.157C148.938 55.6477 150.325 56.8906 152.085 56.8906C153.392 56.8906 154.004 56.1896 154.282 55.6278H154.372V57.0746C154.372 58.1982 153.626 58.6605 152.602 58.6605C151.518 58.6605 151.041 58.1484 150.822 57.701L149.201 58.0938C149.529 59.1626 150.628 60.0227 152.572 60.0227ZM152.587 55.4787C151.399 55.4787 150.772 54.554 150.772 53.147C150.772 51.7599 151.389 50.7408 152.587 50.7408C153.745 50.7408 154.382 51.7003 154.382 53.147C154.382 54.6037 153.735 55.4787 152.587 55.4787ZM160.114 55.608H158.523L158.488 56.1648C158.404 57.5121 158.051 58.8842 157.906 59.4858H159.119C159.358 58.8594 159.91 57.4077 160.049 56.1548L160.114 55.608ZM165.288 57H167.088V54.4347L167.744 53.7337L170.081 57H172.233L169.101 52.6598L172.059 49.3636H169.956L167.212 52.4311H167.088V46.8182H165.288V57ZM175.058 52.5256C175.058 51.4219 175.744 50.7855 176.709 50.7855C177.654 50.7855 178.21 51.3871 178.21 52.4162V57H180.01V52.1378C180.01 50.2933 178.966 49.2642 177.38 49.2642C176.207 49.2642 175.461 49.7962 175.108 50.6612H175.019V46.8182H173.259V57H175.058V52.5256ZM186.712 53.7884C186.712 54.9517 185.882 55.5284 185.086 55.5284C184.221 55.5284 183.644 54.9169 183.644 53.9474V49.3636H181.845V54.2259C181.845 56.0604 182.889 57.0994 184.39 57.0994C185.534 57.0994 186.339 56.4979 186.687 55.6428H186.767V57H188.512V49.3636H186.712V53.7884ZM200.656 49.3636H198.742L196.982 55.0362H196.902L195.147 49.3636H193.228L195.948 57H197.936L200.656 49.3636ZM209.577 48.9709C209.572 49.9254 209.488 50.4325 208.598 50.5518V49.3636H206.798V53.7884C206.798 54.9517 205.968 55.5284 205.173 55.5284C204.308 55.5284 203.731 54.9169 203.731 53.9474V49.3636H201.931V54.2259C201.931 56.0604 202.975 57.0994 204.477 57.0994C205.62 57.0994 206.425 56.4979 206.773 55.6428H206.853V57H208.598V51.4616C210.219 51.3324 210.731 50.4872 210.736 48.9709H209.577ZM205.486 59.7443C206.058 59.7443 206.525 59.3068 206.525 58.7699C206.525 58.228 206.058 57.7905 205.486 57.7905C204.909 57.7905 204.442 58.228 204.442 58.7699C204.442 59.3068 204.909 59.7443 205.486 59.7443ZM214.748 57.1491C216.667 57.1491 217.89 56.0107 218.019 54.3899H216.299C216.145 55.2102 215.553 55.6825 214.763 55.6825C213.639 55.6825 212.913 54.7429 212.913 53.1818C212.913 51.6406 213.654 50.7159 214.763 50.7159C215.628 50.7159 216.16 51.2727 216.299 52.0085H218.019C217.895 50.353 216.602 49.2642 214.738 49.2642C212.501 49.2642 211.089 50.88 211.089 53.2116C211.089 55.5234 212.466 57.1491 214.748 57.1491Z" fill="#292D32"/>
<path d="M50.0884 40C48.8108 47.8112 50.8148 51.7758 56.9731 54.665C58.6478 55.4507 64.128 55.745 62.3554 55.3495" stroke="white" stroke-width="3" stroke-linecap="round"/>
<path d="M61.8754 50.3006C63.9448 51.2575 66.4955 52.5607 68.6726 53.1448C70.4036 53.6091 69.5596 53.2342 69.093 54.0499C68.2982 55.4393 61.7769 61.9556 61.1913 61.433" stroke="white" stroke-width="3" stroke-linecap="round"/>
<defs>
<filter id="filter0_d" x="0.59375" y="2.25" width="208.808" height="56.0341" filterUnits="userSpaceOnUse" color-interpolation-filters="sRGB">
<feFlood flood-opacity="0" result="BackgroundImageFix"/>
<feColorMatrix in="SourceAlpha" type="matrix" values="0 0 0 0 0 0 0 0 0 0 0 0 0 0 0 0 0 0 127 0" result="hardAlpha"/>
<feOffset dy="8"/>
<feGaussianBlur stdDeviation="8"/>
<feComposite in2="hardAlpha" operator="out"/>
<feColorMatrix type="matrix" values="0 0 0 0 0 0 0 0 0 0 0 0 0 0 0 0 0 0 0.08 0"/>
<feBlend mode="normal" in2="BackgroundImageFix" result="effect1_dropShadow"/>
<feBlend mode="normal" in="SourceGraphic" in2="effect1_dropShadow" result="shape"/>
</filter>
<linearGradient id="paint0_linear" x1="25.4533" y1="4.27498e-06" x2="96.7608" y2="54.5412" gradientUnits="userSpaceOnUse">
<stop stop-color="#D6E0E2"/>
<stop offset="1" stop-color="#E8EAEC"/>
</linearGradient>
</defs>
</svg>
