<svg width="237" height="90" viewBox="0 0 237 90" fill="none" xmlns="http://www.w3.org/2000/svg">
<path d="M32.8522 32.5881H38.196V47H41.8437V32.5881H47.1875V29.5455H32.8522V32.5881Z" fill="url(#paint0_linear)"/>
<path d="M51.6718 47.2472C53.6064 47.2472 54.8593 46.4034 55.4985 45.1847H55.6008V47H59.0439V38.1705C59.0439 35.0511 56.4019 33.7386 53.4871 33.7386C50.3508 33.7386 48.2883 35.2386 47.7854 37.625L51.1434 37.8977C51.3905 37.0284 52.1661 36.3892 53.4701 36.3892C54.7059 36.3892 55.4133 37.0114 55.4133 38.0852V38.1364C55.4133 38.9801 54.5184 39.0909 52.2428 39.3125C49.6519 39.5511 47.3252 40.4205 47.3252 43.3438C47.3252 45.9347 49.1746 47.2472 51.6718 47.2472ZM51.9104 32.358L53.6235 30.2784L55.3366 32.358H58.4303V32.2386L54.9701 28.4886H52.2684L48.8167 32.2386V32.358H51.9104ZM52.7116 44.7415C51.5951 44.7415 50.7939 44.2216 50.7939 43.2244C50.7939 42.2017 51.6377 41.6989 52.9161 41.5199C53.7087 41.4091 55.0042 41.2216 55.4388 40.9318V42.321C55.4388 43.6932 54.3053 44.7415 52.7116 44.7415ZM53.4701 51.9091C54.5525 51.9091 55.4388 51.0824 55.4388 50.0682C55.4388 49.0625 54.5525 48.2358 53.4701 48.2358C52.3962 48.2358 51.5098 49.0625 51.5098 50.0682C51.5098 51.0824 52.3962 51.9091 53.4701 51.9091Z" fill="url(#paint1_linear)"/>
<path d="M70.4956 41.4261C70.5041 43.1818 69.3024 44.1023 67.9984 44.1023C66.6263 44.1023 65.7399 43.1392 65.7314 41.5966V33.9091H62.1007V42.2443C62.1092 45.304 63.899 47.1705 66.5325 47.1705C68.5013 47.1705 69.916 46.1562 70.5041 44.6222H70.6405V47H74.1263V33.9091H70.4956V41.4261Z" fill="url(#paint2_linear)"/>
<path d="M86.0992 33.9091H82.3492L86.0992 40.4545L82.2128 47H85.9628L88.5026 42.4744L91.085 47H94.7923L90.8975 40.4545L94.6901 33.9091H90.9656L88.5026 38.4858L86.0992 33.9091Z" fill="url(#paint3_linear)"/>
<path d="M102.56 47.2557C105.799 47.2557 107.98 45.679 108.492 43.25L105.134 43.0284C104.767 44.0256 103.83 44.5455 102.62 44.5455C100.804 44.5455 99.6538 43.3438 99.6538 41.392V41.3835H108.569V40.3864C108.569 35.9375 105.875 33.7386 102.415 33.7386C98.5629 33.7386 96.0657 36.4744 96.0657 40.5142C96.0657 44.6648 98.5288 47.2557 102.56 47.2557ZM99.6538 39.1335C99.7305 37.642 100.864 36.4489 102.475 36.4489C104.052 36.4489 105.142 37.5739 105.151 39.1335H99.6538Z" fill="url(#paint4_linear)"/>
<path d="M115.124 44.6136H112.124L112.081 45.5682C111.979 47.8864 111.314 50.2642 111.067 51.2614H113.419C113.828 50.2301 114.8 47.8097 115.03 45.5511L115.124 44.6136Z" fill="url(#paint5_linear)"/>
<path d="M123.658 47H127.289V39.142C127.289 37.6932 128.209 36.7301 129.419 36.7301C130.612 36.7301 131.414 37.5483 131.414 38.8352V47H134.933V39.0057C134.933 37.6506 135.709 36.7301 137.03 36.7301C138.189 36.7301 139.058 37.4545 139.058 38.9119V47H142.681V38.196C142.681 35.358 140.993 33.7386 138.556 33.7386C136.638 33.7386 135.147 34.7188 134.61 36.2188H134.473C134.056 34.7017 132.718 33.7386 130.919 33.7386C129.155 33.7386 127.817 34.6761 127.272 36.2188H127.118V33.9091H123.658V47Z" fill="url(#paint6_linear)"/>
<path d="M154.183 41.4261C154.192 43.1818 152.99 44.1023 151.686 44.1023C150.314 44.1023 149.428 43.1392 149.419 41.5966V33.9091H145.789V42.2443C145.797 45.304 147.587 47.1705 150.22 47.1705C152.189 47.1705 153.604 46.1562 154.192 44.6222H154.328V47H157.814V33.9091H154.183V41.4261Z" fill="url(#paint7_linear)"/>
<path d="M164.691 47.2472C166.626 47.2472 167.879 46.4034 168.518 45.1847H168.62V47H172.063V38.1705C172.063 35.0511 169.421 33.7386 166.506 33.7386C163.37 33.7386 161.308 35.2386 160.805 37.625L164.163 37.8977C164.41 37.0284 165.185 36.3892 166.489 36.3892C167.725 36.3892 168.433 37.0114 168.433 38.0852V38.1364C168.433 38.9801 167.538 39.0909 165.262 39.3125C162.671 39.5511 160.345 40.4205 160.345 43.3438C160.345 45.9347 162.194 47.2472 164.691 47.2472ZM165.731 44.7415C164.614 44.7415 163.813 44.2216 163.813 43.2244C163.813 42.2017 164.657 41.6989 165.935 41.5199C166.728 41.4091 168.024 41.2216 168.458 40.9318V42.321C168.458 43.6932 167.325 44.7415 165.731 44.7415Z" fill="url(#paint8_linear)"/>
<path d="M184.545 39.4318C184.554 37.7443 185.56 36.7557 187.026 36.7557C188.483 36.7557 189.361 37.7102 189.352 39.3125V47H192.983V38.6648C192.983 35.6136 191.193 33.7386 188.466 33.7386C186.523 33.7386 185.116 34.6932 184.528 36.2188H184.375V33.9091H180.915V47H184.545V39.4318Z" fill="url(#paint9_linear)"/>
<path d="M199.715 39.4318C199.724 37.7443 200.755 36.7557 202.238 36.7557C203.712 36.7557 204.582 37.7017 204.573 39.3125V47H208.204V38.6648C208.212 35.5966 206.405 33.7386 203.678 33.7386C201.692 33.7386 200.363 34.6761 199.766 36.2188H199.613V29.5455H196.084V47H199.715V39.4318Z" fill="url(#paint10_linear)"/>
<path d="M215.034 47.2472C216.969 47.2472 218.221 46.4034 218.861 45.1847H218.963V47H222.406V38.1705C222.406 35.0511 219.764 33.7386 216.849 33.7386C213.713 33.7386 211.65 35.2386 211.148 37.625L214.506 37.8977C214.753 37.0284 215.528 36.3892 216.832 36.3892C218.068 36.3892 218.775 37.0114 218.775 38.0852V38.1364C218.775 38.9801 217.881 39.0909 215.605 39.3125C213.014 39.5511 210.687 40.4205 210.687 43.3438C210.687 45.9347 212.537 47.2472 215.034 47.2472ZM216.074 44.7415C214.957 44.7415 214.156 44.2216 214.156 43.2244C214.156 42.2017 215 41.6989 216.278 41.5199C217.071 41.4091 218.366 41.2216 218.801 40.9318V42.321C218.801 43.6932 217.667 44.7415 216.074 44.7415ZM215.724 32.2216H218.29L216.474 28.3438H213.125L215.724 32.2216Z" fill="url(#paint11_linear)"/>
<path d="M42.9858 72.5653H46.5227C46.4716 69.4545 43.9147 67.3068 40.0284 67.3068C36.2017 67.3068 33.3977 69.4205 33.4147 72.5909C33.4062 75.1648 35.2216 76.6392 38.1704 77.3466L40.071 77.8239C41.9716 78.2841 43.0284 78.8295 43.0369 80.0057C43.0284 81.2841 41.8181 82.1534 39.9431 82.1534C38.0255 82.1534 36.6448 81.267 36.5255 79.5199H32.9545C33.0483 83.2955 35.75 85.2472 39.9858 85.2472C44.2471 85.2472 46.7528 83.2102 46.7613 80.0142C46.7528 77.108 44.5625 75.5653 41.5284 74.8835L39.9602 74.5085C38.4431 74.1591 37.1733 73.5966 37.1988 72.3438C37.1988 71.2188 38.196 70.392 40.0028 70.392C41.767 70.392 42.8494 71.1932 42.9858 72.5653Z" fill="url(#paint12_linear)"/>
<path d="M63.2563 71.1847C63.2478 72.8381 63.0603 73.767 61.5262 73.9972V71.9091H57.8955V79.4261C57.904 81.1818 56.7023 82.1023 55.3983 82.1023C54.0262 82.1023 53.1398 81.1392 53.1313 79.5966V71.9091H49.5006V80.2443C49.5091 83.304 51.2989 85.1705 53.9324 85.1705C55.9012 85.1705 57.316 84.1562 57.904 82.6222H58.0404V85H61.5262V75.642C64.4069 75.3949 65.3529 73.8778 65.3614 71.1847H63.2563ZM56.8643 70.0341V69.2841C57.7762 69.1477 58.6881 68.6449 58.6796 67.6136C58.6881 66.1648 57.0688 65.2955 54.0347 65.2955L53.941 66.9403C54.9125 66.9403 55.654 67.1108 55.6455 67.7244C55.654 68.1676 55.1853 68.4489 53.9836 68.5L54.1711 70.0341H56.8643Z" fill="url(#paint13_linear)"/>
<path d="M70.404 85.2472C72.3386 85.2472 73.5915 84.4034 74.2307 83.1847H74.3329V85H77.7761V76.1705C77.7761 73.0511 75.1341 71.7386 72.2193 71.7386C69.0829 71.7386 67.0204 73.2386 66.5176 75.625L69.8756 75.8977C70.1227 75.0284 70.8983 74.3892 72.2023 74.3892C73.4381 74.3892 74.1454 75.0114 74.1454 76.0852V76.1364C74.1454 76.9801 73.2506 77.0909 70.975 77.3125C68.3841 77.5511 66.0574 78.4205 66.0574 81.3438C66.0574 83.9347 67.9068 85.2472 70.404 85.2472ZM71.4437 82.7415C70.3273 82.7415 69.5261 82.2216 69.5261 81.2244C69.5261 80.2017 70.3699 79.6989 71.6483 79.5199C72.4409 79.4091 73.7364 79.2216 74.171 78.9318V80.321C74.171 81.6932 73.0375 82.7415 71.4437 82.7415Z" fill="url(#paint14_linear)"/>
<path d="M90.2583 77.4318C90.2668 75.7443 91.2725 74.7557 92.7384 74.7557C94.1958 74.7557 95.0736 75.7102 95.0651 77.3125V85H98.6958V76.6648C98.6958 73.6136 96.906 71.7386 94.1787 71.7386C92.2355 71.7386 90.8293 72.6932 90.2412 74.2188H90.0878V71.9091H86.6276V85H90.2583V77.4318Z" fill="url(#paint15_linear)"/>
<path d="M105.428 77.4318C105.436 75.7443 106.468 74.7557 107.951 74.7557C109.425 74.7557 110.294 75.7017 110.286 77.3125V85H113.917V76.6648C113.925 73.5966 112.118 71.7386 109.391 71.7386C107.405 71.7386 106.076 72.6761 105.479 74.2188H105.326V67.5455H101.797V85H105.428V77.4318Z" fill="url(#paint16_linear)"/>
<path d="M120.747 85.2472C122.681 85.2472 123.934 84.4034 124.573 83.1847H124.676V85H128.119V76.1705C128.119 73.0511 125.477 71.7386 122.562 71.7386C119.426 71.7386 117.363 73.2386 116.86 75.625L120.218 75.8977C120.466 75.0284 121.241 74.3892 122.545 74.3892C123.781 74.3892 124.488 75.0114 124.488 76.0852V76.1364C124.488 76.9801 123.593 77.0909 121.318 77.3125C118.727 77.5511 116.4 78.4205 116.4 81.3438C116.4 83.9347 118.25 85.2472 120.747 85.2472ZM121.787 82.7415C120.67 82.7415 119.869 82.2216 119.869 81.2244C119.869 80.2017 120.713 79.6989 121.991 79.5199C122.784 79.4091 124.079 79.2216 124.514 78.9318V80.321C124.514 81.6932 123.38 82.7415 121.787 82.7415ZM121.437 70.2216H124.002L122.187 66.3438H118.838L121.437 70.2216Z" fill="url(#paint17_linear)"/>
<path d="M135.122 82.6136H132.122L132.079 83.5682C131.977 85.8864 131.312 88.2642 131.065 89.2614H133.417C133.826 88.2301 134.798 85.8097 135.028 83.5511L135.122 82.6136Z" fill="url(#paint18_linear)"/>
<path d="M154.548 75.642C154.224 73.2301 152.281 71.7386 148.974 71.7386C145.624 71.7386 143.417 73.2898 143.426 75.8125C143.417 77.7727 144.653 79.0426 147.21 79.554L149.477 80.0057C150.619 80.2358 151.139 80.6534 151.156 81.3097C151.139 82.0852 150.295 82.6392 149.025 82.6392C147.73 82.6392 146.869 82.0852 146.647 81.0199L143.076 81.2074C143.417 83.7131 145.548 85.2557 149.017 85.2557C152.409 85.2557 154.838 83.5256 154.846 80.9432C154.838 79.0511 153.602 77.9176 151.062 77.3977L148.693 76.9205C147.474 76.6562 147.022 76.2386 147.031 75.608C147.022 74.8239 147.909 74.3125 149.034 74.3125C150.295 74.3125 151.045 75.0028 151.224 75.8466L154.548 75.642Z" fill="url(#paint19_linear)"/>
<path d="M161.105 85.2472C163.04 85.2472 164.293 84.4034 164.932 83.1847H165.034V85H168.477V76.1705C168.477 73.0511 165.835 71.7386 162.921 71.7386C159.784 71.7386 157.722 73.2386 157.219 75.625L160.577 75.8977C160.824 75.0284 161.6 74.3892 162.904 74.3892C164.139 74.3892 164.847 75.0114 164.847 76.0852V76.1364C164.847 76.9801 163.952 77.0909 161.676 77.3125C159.085 77.5511 156.759 78.4205 156.759 81.3438C156.759 83.9347 158.608 85.2472 161.105 85.2472ZM164.898 67.7585C164.898 68.4318 164.378 69.0881 163.006 69.0881C161.634 69.0881 161.105 68.4318 161.114 67.7585H158.796C158.787 69.4119 160.415 70.5625 163.006 70.5625C165.605 70.5625 167.259 69.4119 167.259 67.7585H164.898ZM162.145 82.7415C161.029 82.7415 160.227 82.2216 160.227 81.2244C160.227 80.2017 161.071 79.6989 162.35 79.5199C163.142 79.4091 164.438 79.2216 164.872 78.9318V80.321C164.872 81.6932 163.739 82.7415 162.145 82.7415ZM162.017 67.7756H163.909L166.023 65.5938H163.526L162.017 67.7756Z" fill="url(#paint20_linear)"/>
<path d="M171.534 85H175.165V77.142C175.165 75.6932 176.085 74.7301 177.295 74.7301C178.489 74.7301 179.29 75.5483 179.29 76.8352V85H182.81V77.0057C182.81 75.6506 183.585 74.7301 184.906 74.7301C186.065 74.7301 186.935 75.4545 186.935 76.9119V85H190.557V76.196C190.557 73.358 188.869 71.7386 186.432 71.7386C184.514 71.7386 183.023 72.7188 182.486 74.2188H182.349C181.932 72.7017 180.594 71.7386 178.795 71.7386C177.031 71.7386 175.693 72.6761 175.148 74.2188H174.994V71.9091H171.534V85Z" fill="url(#paint21_linear)"/>
<path d="M204.283 85.2131C206.397 85.2131 207.496 83.9943 207.999 82.9034H208.153V85H211.732V71.0142H213.224V68.875H211.732V67.5455H208.11V68.875H204.718V71.0142H208.11V74.108H207.999C207.513 73.0426 206.465 71.7386 204.275 71.7386C201.403 71.7386 198.974 73.9716 198.974 78.4716C198.974 82.8523 201.3 85.2131 204.283 85.2131ZM205.434 82.3239C203.653 82.3239 202.681 80.7386 202.681 78.4545C202.681 76.1875 203.636 74.6278 205.434 74.6278C207.198 74.6278 208.187 76.1193 208.187 78.4545C208.187 80.7898 207.181 82.3239 205.434 82.3239Z" fill="url(#paint22_linear)"/>
<path d="M218.69 85.2472C220.625 85.2472 221.878 84.4034 222.517 83.1847H222.619V85H226.062V76.1705C226.062 73.0511 223.42 71.7386 220.506 71.7386C217.369 71.7386 215.307 73.2386 214.804 75.625L218.162 75.8977C218.409 75.0284 219.185 74.3892 220.489 74.3892C221.724 74.3892 222.432 75.0114 222.432 76.0852V76.1364C222.432 76.9801 221.537 77.0909 219.261 77.3125C216.67 77.5511 214.344 78.4205 214.344 81.3438C214.344 83.9347 216.193 85.2472 218.69 85.2472ZM219.73 82.7415C218.614 82.7415 217.812 82.2216 217.812 81.2244C217.812 80.2017 218.656 79.6989 219.935 79.5199C220.727 79.4091 222.023 79.2216 222.457 78.9318V80.321C222.457 81.6932 221.324 82.7415 219.73 82.7415ZM216.202 70.4773H218.81L220.633 69.0455L222.432 70.4773H225.048L221.596 67.8267H219.636L216.202 70.4773ZM224.153 68.9773H226.207L228.96 65.7812H226.148L224.153 68.9773Z" fill="url(#paint23_linear)"/>
<path d="M236.082 71.9091H233.619V68.7727H229.988V71.9091H228.199V74.6364H229.988V81.4545C229.971 84.0199 231.719 85.2898 234.352 85.179C235.29 85.1449 235.954 84.9574 236.321 84.8381L235.75 82.1364C235.571 82.1705 235.187 82.2557 234.846 82.2557C234.122 82.2557 233.619 81.983 233.619 80.9773V74.6364H236.082V71.9091Z" fill="url(#paint24_linear)"/>
<path d="M2.31177 14.0001L3.15197 11.4894H6.98009L7.82526 14.0001H9.79401L6.20452 3.81827L3.92753 3.81827L0.343018 14.0001H2.31177ZM3.64913 10.0079L5.02626 5.90634H5.1058L6.48293 10.0079H3.64913ZM4.37498 2.81401H5.72228L7.24856 0.541992H5.48861L4.37498 2.81401Z" fill="#292D32"/>
<path d="M11.0556 16.8637H12.8553L12.8553 12.797H12.9298C13.2132 13.3538 13.8048 14.1343 15.1173 14.1343C16.9171 14.1343 18.2644 12.7075 18.2644 10.1918C18.2644 7.6464 16.8773 6.26429 15.1124 6.26429C13.7651 6.26429 13.2033 7.07466 12.9298 7.62651H12.8254V6.36372H11.0556L11.0556 16.8637ZM12.8205 10.1819C12.8205 8.70037 13.4568 7.74086 14.6152 7.74086C15.8134 7.74086 16.4298 8.76003 16.4298 10.1819C16.4298 11.6137 15.8034 12.6578 14.6152 12.6578C13.4668 12.6578 12.8205 11.6634 12.8205 10.1819Z" fill="#292D32"/>
<path d="M26.112 14.1343C27.4245 14.1343 28.0161 13.3538 28.2995 12.797H28.4089V14.0001H30.1788V3.81827H28.3741V7.62651H28.2995C28.0261 7.07466 27.4643 6.26429 26.117 6.26429C24.3521 6.26429 22.965 7.6464 22.965 10.1918C22.965 12.7075 24.3123 14.1343 26.112 14.1343ZM26.6141 12.6578C25.4259 12.6578 24.7995 11.6137 24.7995 10.1819C24.7995 8.76003 25.416 7.74086 26.6141 7.74086C27.7725 7.74086 28.4089 8.70037 28.4089 10.1819C28.4089 11.6634 27.7626 12.6578 26.6141 12.6578Z" fill="#292D32"/>
<path d="M36.9638 10.7884C36.9638 11.9518 36.1335 12.5285 35.338 12.5285C34.473 12.5285 33.8963 11.917 33.8963 10.9475V6.36372H32.0966V11.2259C32.0966 13.0605 33.1406 14.0995 34.642 14.0995C35.7855 14.0995 36.5909 13.498 36.9389 12.6428H37.0184V14.0001H38.7635V6.36372H36.9638V10.7884ZM35.6513 16.7444C36.223 16.7444 36.6903 16.3069 36.6903 15.77C36.6903 15.2281 36.223 14.7906 35.6513 14.7906C35.0746 14.7906 34.6072 15.2281 34.6072 15.77C34.6072 16.3069 35.0746 16.7444 35.6513 16.7444Z" fill="#292D32"/>
<path d="M42.4139 9.52566C42.4139 8.42196 43.0801 7.7856 44.0296 7.7856C44.9593 7.7856 45.5161 8.39711 45.5161 9.41628V14.0001H47.3158V9.13787C47.3208 7.30833 46.2768 6.26429 44.7008 6.26429C43.5573 6.26429 42.7718 6.81117 42.4238 7.66131H42.3343V6.36372H40.6141V14.0001H42.4139V9.52566Z" fill="#292D32"/>
<path d="M52.4664 17.0228C54.5296 17.0228 56.0509 16.0782 56.0509 14.1244V6.36372H54.2761V7.62651H54.1766C53.9032 7.07466 53.3315 6.26429 51.9842 6.26429C50.2193 6.26429 48.8322 7.6464 48.8322 10.157C48.8322 12.6478 50.2193 13.8907 51.9792 13.8907C53.2867 13.8907 53.8982 13.1897 54.1766 12.6279H54.2661V14.0747C54.2661 15.1982 53.5204 15.6606 52.4963 15.6606C51.4124 15.6606 50.9352 15.1485 50.7164 14.7011L49.0957 15.0938C49.4238 16.1627 50.5225 17.0228 52.4664 17.0228ZM52.4813 12.4788C51.2931 12.4788 50.6667 11.5541 50.6667 10.1471C50.6667 8.76003 51.2832 7.74086 52.4813 7.74086C53.6397 7.74086 54.2761 8.70037 54.2761 10.1471C54.2761 11.6038 53.6298 12.4788 52.4813 12.4788Z" fill="#292D32"/>
<defs>
<linearGradient id="paint0_linear" x1="86.021" y1="32.3404" x2="188.374" y2="98.5091" gradientUnits="userSpaceOnUse">
<stop stop-color="#ECEFF0"/>
<stop offset="1" stop-color="white"/>
</linearGradient>
<linearGradient id="paint1_linear" x1="86.021" y1="32.3404" x2="188.374" y2="98.5091" gradientUnits="userSpaceOnUse">
<stop stop-color="#ECEFF0"/>
<stop offset="1" stop-color="white"/>
</linearGradient>
<linearGradient id="paint2_linear" x1="86.021" y1="32.3404" x2="188.374" y2="98.5091" gradientUnits="userSpaceOnUse">
<stop stop-color="#ECEFF0"/>
<stop offset="1" stop-color="white"/>
</linearGradient>
<linearGradient id="paint3_linear" x1="86.021" y1="32.3404" x2="188.374" y2="98.5091" gradientUnits="userSpaceOnUse">
<stop stop-color="#ECEFF0"/>
<stop offset="1" stop-color="white"/>
</linearGradient>
<linearGradient id="paint4_linear" x1="86.021" y1="32.3404" x2="188.374" y2="98.5091" gradientUnits="userSpaceOnUse">
<stop stop-color="#ECEFF0"/>
<stop offset="1" stop-color="white"/>
</linearGradient>
<linearGradient id="paint5_linear" x1="86.021" y1="32.3404" x2="188.374" y2="98.5091" gradientUnits="userSpaceOnUse">
<stop stop-color="#ECEFF0"/>
<stop offset="1" stop-color="white"/>
</linearGradient>
<linearGradient id="paint6_linear" x1="86.021" y1="32.3404" x2="188.374" y2="98.5091" gradientUnits="userSpaceOnUse">
<stop stop-color="#ECEFF0"/>
<stop offset="1" stop-color="white"/>
</linearGradient>
<linearGradient id="paint7_linear" x1="86.021" y1="32.3404" x2="188.374" y2="98.5091" gradientUnits="userSpaceOnUse">
<stop stop-color="#ECEFF0"/>
<stop offset="1" stop-color="white"/>
</linearGradient>
<linearGradient id="paint8_linear" x1="86.021" y1="32.3404" x2="188.374" y2="98.5091" gradientUnits="userSpaceOnUse">
<stop stop-color="#ECEFF0"/>
<stop offset="1" stop-color="white"/>
</linearGradient>
<linearGradient id="paint9_linear" x1="86.021" y1="32.3404" x2="188.374" y2="98.5091" gradientUnits="userSpaceOnUse">
<stop stop-color="#ECEFF0"/>
<stop offset="1" stop-color="white"/>
</linearGradient>
<linearGradient id="paint10_linear" x1="86.021" y1="32.3404" x2="188.374" y2="98.5091" gradientUnits="userSpaceOnUse">
<stop stop-color="#ECEFF0"/>
<stop offset="1" stop-color="white"/>
</linearGradient>
<linearGradient id="paint11_linear" x1="86.021" y1="32.3404" x2="188.374" y2="98.5091" gradientUnits="userSpaceOnUse">
<stop stop-color="#ECEFF0"/>
<stop offset="1" stop-color="white"/>
</linearGradient>
<linearGradient id="paint12_linear" x1="86.021" y1="32.3404" x2="188.374" y2="98.5091" gradientUnits="userSpaceOnUse">
<stop stop-color="#ECEFF0"/>
<stop offset="1" stop-color="white"/>
</linearGradient>
<linearGradient id="paint13_linear" x1="86.021" y1="32.3404" x2="188.374" y2="98.5091" gradientUnits="userSpaceOnUse">
<stop stop-color="#ECEFF0"/>
<stop offset="1" stop-color="white"/>
</linearGradient>
<linearGradient id="paint14_linear" x1="86.021" y1="32.3404" x2="188.374" y2="98.5091" gradientUnits="userSpaceOnUse">
<stop stop-color="#ECEFF0"/>
<stop offset="1" stop-color="white"/>
</linearGradient>
<linearGradient id="paint15_linear" x1="86.021" y1="32.3404" x2="188.374" y2="98.5091" gradientUnits="userSpaceOnUse">
<stop stop-color="#ECEFF0"/>
<stop offset="1" stop-color="white"/>
</linearGradient>
<linearGradient id="paint16_linear" x1="86.021" y1="32.3404" x2="188.374" y2="98.5091" gradientUnits="userSpaceOnUse">
<stop stop-color="#ECEFF0"/>
<stop offset="1" stop-color="white"/>
</linearGradient>
<linearGradient id="paint17_linear" x1="86.021" y1="32.3404" x2="188.374" y2="98.5091" gradientUnits="userSpaceOnUse">
<stop stop-color="#ECEFF0"/>
<stop offset="1" stop-color="white"/>
</linearGradient>
<linearGradient id="paint18_linear" x1="86.021" y1="32.3404" x2="188.374" y2="98.5091" gradientUnits="userSpaceOnUse">
<stop stop-color="#ECEFF0"/>
<stop offset="1" stop-color="white"/>
</linearGradient>
<linearGradient id="paint19_linear" x1="86.021" y1="32.3404" x2="188.374" y2="98.5091" gradientUnits="userSpaceOnUse">
<stop stop-color="#ECEFF0"/>
<stop offset="1" stop-color="white"/>
</linearGradient>
<linearGradient id="paint20_linear" x1="86.021" y1="32.3404" x2="188.374" y2="98.5091" gradientUnits="userSpaceOnUse">
<stop stop-color="#ECEFF0"/>
<stop offset="1" stop-color="white"/>
</linearGradient>
<linearGradient id="paint21_linear" x1="86.021" y1="32.3404" x2="188.374" y2="98.5091" gradientUnits="userSpaceOnUse">
<stop stop-color="#ECEFF0"/>
<stop offset="1" stop-color="white"/>
</linearGradient>
<linearGradient id="paint22_linear" x1="86.021" y1="32.3404" x2="188.374" y2="98.5091" gradientUnits="userSpaceOnUse">
<stop stop-color="#ECEFF0"/>
<stop offset="1" stop-color="white"/>
</linearGradient>
<linearGradient id="paint23_linear" x1="86.021" y1="32.3404" x2="188.374" y2="98.5091" gradientUnits="userSpaceOnUse">
<stop stop-color="#ECEFF0"/>
<stop offset="1" stop-color="white"/>
</linearGradient>
<linearGradient id="paint24_linear" x1="86.021" y1="32.3404" x2="188.374" y2="98.5091" gradientUnits="userSpaceOnUse">
<stop stop-color="#ECEFF0"/>
<stop offset="1" stop-color="white"/>
</linearGradient>
</defs>
</svg>
