<svg width="237" height="94" viewBox="0 0 237 94" fill="none" xmlns="http://www.w3.org/2000/svg">
<path d="M9.10626 9.909H6.85626V6.77264H2.15172V9.909H0.481262V13.3181H2.15172V19.2329C2.11763 21.9772 3.81365 23.3664 7.06081 23.1874C8.12615 23.1278 8.91876 22.9062 9.3449 22.7783L8.66308 19.4715C8.48411 19.5141 8.02388 19.6079 7.74263 19.6079C7.12899 19.6079 6.85626 19.3351 6.85626 18.7897V13.3181H9.10626V9.909Z" fill="url(#paint0_linear)"/>
<path d="M14.9137 23.2045C16.6183 23.2045 17.9052 22.6249 18.6978 21.159H18.8001V22.9999H23.1978V14.034C23.1978 11.6135 20.9052 9.73855 17.1637 9.73855C13.2518 9.73855 11.3257 11.784 11.1637 14.1704H15.4933C15.6041 13.3607 16.2007 12.9772 17.0956 12.9772C17.9137 12.9772 18.4933 13.3522 18.4933 14.034V14.0681C18.4933 14.8266 17.6581 15.0653 15.4592 15.2272C12.7575 15.4232 10.6524 16.5141 10.6524 19.3863C10.6524 21.9942 12.408 23.2045 14.9137 23.2045ZM15.6296 8.35787L17.3001 6.48287L18.9706 8.35787H22.8569V8.25559L18.9365 4.36923H15.6637L11.7433 8.25559V8.35787H15.6296ZM17.1296 28.284C18.4081 28.284 19.4478 27.3209 19.4478 26.1363C19.4478 24.9516 18.4081 23.9885 17.1296 23.9885C15.8512 23.9885 14.8115 24.9516 14.8115 26.1363C14.8115 27.3209 15.8512 28.284 17.1296 28.284ZM16.4478 20.2385C15.6467 20.2385 15.0842 19.8465 15.0842 19.1135C15.0842 18.4403 15.5615 17.9204 16.6524 17.7499C17.4024 17.6306 18.0331 17.4772 18.5274 17.2726V18.3635C18.5274 19.5567 17.5132 20.2385 16.4478 20.2385Z" fill="url(#paint1_linear)"/>
<path d="M34.1743 17.2726C34.1829 18.5681 33.4329 19.3522 32.2652 19.3522C31.0806 19.3522 30.3988 18.5681 30.3902 17.2726V9.909H25.6857V18.2613C25.6942 21.1249 27.501 23.1704 30.2539 23.1704C32.2056 23.1704 33.7056 22.1817 34.2766 20.5113H34.413V22.9999H38.8789V9.909H34.1743V17.2726Z" fill="url(#paint2_linear)"/>
<path d="M51.5442 5.54537H46.2261L51.4079 14.2726L46.0556 22.9999H51.442L54.4079 17.8181H54.5442L57.5102 22.9999H62.9306L57.5102 14.2726L62.7261 5.54537H57.442L54.5442 10.6249H54.4079L51.5442 5.54537Z" fill="url(#paint3_linear)"/>
<path d="M65.0094 22.9999H77.5548V19.1817H69.748V16.1817H76.9412V12.3635H69.748V9.36355H77.5889V5.54537H65.0094V22.9999Z" fill="url(#paint4_linear)"/>
<path d="M84.8154 20.6135H81.27V21.5681C81.27 23.8863 80.4859 26.3153 80.2132 27.2613H83.1109C83.52 26.3153 84.5683 24.0312 84.7473 21.5681L84.8154 20.6135Z" fill="url(#paint5_linear)"/>
<path d="M91.7898 22.9999H96.4943V15.3635C96.4943 14.2215 97.0909 13.5226 98.0625 13.5226C99.0341 13.5226 99.6648 14.2215 99.6648 15.3635V22.9999H104.165V15.3635C104.165 14.2215 104.761 13.5226 105.733 13.5226C106.705 13.5226 107.335 14.2215 107.335 15.3635V22.9999H112.04V14.1704C112.04 11.4857 110.318 9.73855 107.812 9.73855C105.869 9.73855 104.301 10.7954 103.858 12.3976H103.722C103.449 10.7954 101.983 9.73855 100.142 9.73855C98.3267 9.73855 96.9375 10.7613 96.392 12.3976H96.2557V9.909H91.7898V22.9999Z" fill="url(#paint6_linear)"/>
<path d="M123.089 17.2726C123.097 18.5681 122.347 19.3522 121.18 19.3522C119.995 19.3522 119.313 18.5681 119.305 17.2726V9.909H114.6V18.2613C114.609 21.1249 116.415 23.1704 119.168 23.1704C121.12 23.1704 122.62 22.1817 123.191 20.5113H123.327V22.9999H127.793V9.909H123.089V17.2726Z" fill="url(#paint7_linear)"/>
<path d="M134.074 23.2045C135.778 23.2045 137.065 22.6249 137.858 21.159H137.96V22.9999H142.358V14.034C142.358 11.6135 140.065 9.73855 136.324 9.73855C132.412 9.73855 130.486 11.784 130.324 14.1704H134.653C134.764 13.3607 135.361 12.9772 136.256 12.9772C137.074 12.9772 137.653 13.3522 137.653 14.034V14.0681C137.653 14.8266 136.818 15.0653 134.619 15.2272C131.917 15.4232 129.812 16.5141 129.812 19.3863C129.812 21.9942 131.568 23.2045 134.074 23.2045ZM135.608 20.2385C134.807 20.2385 134.244 19.8465 134.244 19.1135C134.244 18.4403 134.721 17.9204 135.812 17.7499C136.562 17.6306 137.193 17.4772 137.687 17.2726V18.3635C137.687 19.5567 136.673 20.2385 135.608 20.2385Z" fill="url(#paint8_linear)"/>
<path d="M164.901 5.54537H160.162V14.6817H160.026L153.821 5.54537H149.799V22.9999H154.537V13.8295H154.64L160.946 22.9999H164.901V5.54537Z" fill="url(#paint9_linear)"/>
<path d="M167.383 22.9999H172.121V16.1817H178.394V22.9999H183.133V5.54537H178.394V12.3635H172.121V5.54537H167.383V22.9999Z" fill="url(#paint10_linear)"/>
<path d="M190.157 22.9999L191.162 19.659H196.924L197.929 22.9999H203.043L197.282 5.54537H190.804L185.043 22.9999H190.157ZM192.509 3.909H195.611L193.975 0.0908203H189.952L192.509 3.909ZM192.236 16.1135L193.975 10.3522H194.111L195.85 16.1135H192.236Z" fill="url(#paint11_linear)"/>
<path d="M172.81 37.9091H170.087V51H172.81V37.9091Z" fill="white"/>
<path d="M178.511 51.1854C179.962 51.1854 180.901 50.5526 181.381 49.6385H181.457V51H184.04V44.3778C184.04 42.0384 182.058 41.054 179.872 41.054C177.52 41.054 175.973 42.179 175.596 43.9688L178.114 44.1733C178.3 43.5213 178.881 43.0419 179.859 43.0419C180.786 43.0419 181.317 43.5085 181.317 44.3139V44.3523C181.317 44.9851 180.646 45.0682 178.939 45.2344C176.996 45.4134 175.251 46.0653 175.251 48.2578C175.251 50.201 176.638 51.1854 178.511 51.1854ZM178.146 39.9737C178.146 39.3793 178.44 39.0021 178.881 39.0021C179.22 39.0021 179.476 39.1875 179.757 39.3984C180.115 39.6605 180.524 39.9673 181.24 39.9609C182.397 39.9545 183.305 39.0533 183.317 37.4361L181.828 37.3913C181.822 37.9794 181.56 38.3757 181.067 38.3821C180.748 38.3821 180.479 38.1967 180.185 37.9858C179.802 37.7237 179.374 37.4169 178.709 37.4233C177.545 37.4297 176.631 38.331 176.631 39.9545L178.146 39.9737ZM179.29 49.3061C178.453 49.3061 177.852 48.9162 177.852 48.1683C177.852 47.4013 178.485 47.0241 179.444 46.8899C180.038 46.8068 181.01 46.6662 181.336 46.4489V47.4908C181.336 48.5199 180.486 49.3061 179.29 49.3061Z" fill="white"/>
<path d="M186.872 51H189.595V41.1818H186.872V51ZM188.24 39.9162C189.052 39.9162 189.717 39.2962 189.717 38.5355C189.717 37.7813 189.052 37.1612 188.24 37.1612C187.435 37.1612 186.77 37.7813 186.77 38.5355C186.77 39.2962 187.435 39.9162 188.24 39.9162Z" fill="white"/>
<path d="M205.552 43.9815C205.309 42.1726 203.851 41.054 201.371 41.054C198.859 41.054 197.204 42.2173 197.21 44.1094C197.204 45.5795 198.131 46.532 200.048 46.9155L201.748 47.2543C202.605 47.4268 202.995 47.7401 203.008 48.2322C202.995 48.8139 202.362 49.2294 201.41 49.2294C200.438 49.2294 199.792 48.8139 199.626 48.0149L196.948 48.1555C197.204 50.0348 198.802 51.1918 201.403 51.1918C203.947 51.1918 205.769 49.8942 205.775 47.9574C205.769 46.5384 204.842 45.6882 202.937 45.2983L201.16 44.9403C200.246 44.7422 199.908 44.429 199.914 43.956C199.908 43.3679 200.572 42.9844 201.416 42.9844C202.362 42.9844 202.925 43.5021 203.059 44.1349L205.552 43.9815Z" fill="white"/>
<path d="M214.506 46.8196C214.513 48.1364 213.611 48.8267 212.633 48.8267C211.604 48.8267 210.939 48.1044 210.933 46.9474V41.1818H208.21V47.4332C208.216 49.728 209.559 51.1278 211.534 51.1278C213.011 51.1278 214.072 50.3672 214.513 49.2166H214.615V51H217.229V41.1818H214.506V46.8196Z" fill="white"/>
<path d="M222.927 51.1854C224.378 51.1854 225.318 50.5526 225.797 49.6385H225.874V51H228.456V44.3778C228.456 42.0384 226.475 41.054 224.289 41.054C221.936 41.054 220.389 42.179 220.012 43.9688L222.531 44.1733C222.716 43.5213 223.298 43.0419 224.276 43.0419C225.203 43.0419 225.733 43.5085 225.733 44.3139V44.3523C225.733 44.9851 225.062 45.0682 223.355 45.2344C221.412 45.4134 219.667 46.0653 219.667 48.2578C219.667 50.201 221.054 51.1854 222.927 51.1854ZM223.707 49.3061C222.87 49.3061 222.269 48.9162 222.269 48.1683C222.269 47.4013 222.902 47.0241 223.86 46.8899C224.455 46.8068 225.426 46.6662 225.752 46.4489V47.4908C225.752 48.5199 224.902 49.3061 223.707 49.3061ZM221.061 40.108H223.017L224.384 39.0341L225.733 40.108H227.696L225.107 38.12H223.637L221.061 40.108ZM227.024 38.983H228.565L230.629 36.5859H228.52L227.024 38.983Z" fill="white"/>
<path d="M236.511 41.1818H234.664V38.8295H231.941V41.1818H230.598V43.2273H231.941V48.3409C231.928 50.2649 233.238 51.2173 235.213 51.1342C235.917 51.1087 236.415 50.968 236.69 50.8786L236.262 48.8523C236.128 48.8778 235.84 48.9418 235.584 48.9418C235.041 48.9418 234.664 48.7372 234.664 47.983V43.2273H236.511V41.1818Z" fill="white"/>
<path d="M179.24 61.1818H176.357L174.325 68.2067H174.222L172.183 61.1818H169.307L172.739 71H175.808L179.24 61.1818Z" fill="white"/>
<path d="M183.872 71.1854C185.323 71.1854 186.263 70.5526 186.742 69.6385H186.819V71H189.401V64.3778C189.401 62.0384 187.42 61.054 185.234 61.054C182.881 61.054 181.334 62.179 180.957 63.9688L183.476 64.1733C183.661 63.5213 184.243 63.0419 185.221 63.0419C186.148 63.0419 186.678 63.5085 186.678 64.3139V64.3523C186.678 64.9851 186.007 65.0682 184.3 65.2344C182.357 65.4134 180.612 66.0653 180.612 68.2578C180.612 70.201 181.999 71.1854 183.872 71.1854ZM184.652 69.3061C183.814 69.3061 183.214 68.9162 183.214 68.1683C183.214 67.4013 183.846 67.0241 184.805 66.8899C185.4 66.8068 186.371 66.6662 186.697 66.4489V67.4908C186.697 68.5199 185.847 69.3061 184.652 69.3061Z" fill="white"/>
<path d="M193.563 74.6818C195.59 74.6818 196.663 73.6463 197.219 72.0611L201.036 61.1946L198.153 61.1818L196.101 68.392H195.999L193.966 61.1818H191.102L194.624 71.2812L194.465 71.6967C194.107 72.6172 193.423 72.6619 192.464 72.3679L191.85 74.4006C192.24 74.5668 192.873 74.6818 193.563 74.6818Z" fill="white"/>
<path d="M92.3011 64.8633H109.057V70.9997H116.114V64.8633H120.443V58.9486H116.114V36.0906H106.875L92.3011 59.0508V64.8633ZM109.193 58.9486H99.733V58.6758L108.92 44.1361H109.193V58.9486Z" fill="url(#paint12_linear)"/>
<path d="M144.469 64.4542C144.486 68.6474 147.162 72.2099 152.156 72.2099C157.099 72.2099 159.861 68.6474 159.844 64.4542V62.6133C159.861 58.3861 157.168 54.8576 152.156 54.8576C147.23 54.8576 144.486 58.4201 144.469 62.6133V64.4542ZM126.554 44.477C126.571 48.6701 129.247 52.1986 134.224 52.1986C139.185 52.1986 141.946 48.7042 141.929 44.477V42.6361C141.946 38.4088 139.253 34.8804 134.224 34.8804C129.349 34.8804 126.571 38.4088 126.554 42.6361V44.477ZM128.224 70.9997H132.673L156.673 36.0906H152.224L128.224 70.9997ZM149.429 62.6133C149.446 60.9429 150.111 59.2213 152.156 59.2213C154.304 59.2213 154.866 60.9429 154.849 62.6133V64.4542C154.866 66.1247 154.236 67.8122 152.156 67.8122C150.077 67.8122 149.446 66.0736 149.429 64.4542V62.6133ZM131.548 42.6361C131.565 41.0167 132.196 39.244 134.224 39.244C136.372 39.244 136.952 40.9656 136.935 42.6361V44.477C136.952 46.1474 136.304 47.8349 134.224 47.8349C132.213 47.8349 131.565 46.1474 131.548 44.477V42.6361Z" fill="url(#paint13_linear)"/>
<path d="M2.72446 41.5257C2.72446 40.422 3.39065 39.7856 4.34023 39.7856C5.26991 39.7856 5.82673 40.3971 5.82673 41.4163L5.82673 46.0001H7.62645L7.62645 41.1379C7.63142 39.3083 6.58739 38.2643 5.01139 38.2643C3.86793 38.2643 3.08241 38.8112 2.7344 39.6613H2.64491V38.3637H0.924744L0.924744 46.0001H2.72446L2.72446 41.5257Z" fill="#292D32"/>
<path d="M11.2557 41.5257C11.2557 40.422 11.9418 39.7856 12.9063 39.7856C13.8509 39.7856 14.4077 40.3872 14.4077 41.4163V46.0001H16.2074V41.1379C16.2074 39.2934 15.1634 38.2643 13.5774 38.2643C12.4041 38.2643 11.6584 38.7963 11.3054 39.6613H11.2159V35.8183H9.45599V46.0001H11.2557V41.5257Z" fill="#292D32"/>
<path d="M20.2394 46.1542C21.4375 46.1542 22.1534 45.5924 22.4816 44.9511H22.5412V46.0001H24.2713V40.8893C24.2713 38.8708 22.6257 38.2643 21.1691 38.2643C19.5632 38.2643 18.3303 38.9802 17.9326 40.3722L19.613 40.6109C19.7919 40.0889 20.299 39.6414 21.179 39.6414C22.0142 39.6414 22.4716 40.069 22.4716 40.8197V40.8495C22.4716 41.3666 21.9297 41.3914 20.5824 41.5356C19.1009 41.6947 17.684 42.1372 17.684 43.8573C17.684 45.3588 18.7827 46.1542 20.2394 46.1542ZM20.2394 37.449L21.2486 36.1762L22.2578 37.449H23.8338V37.3793L21.9546 35.2316H20.5476L18.6634 37.3793V37.449H20.2394ZM20.7067 44.8318C19.956 44.8318 19.4191 44.4887 19.4191 43.8275C19.4191 43.1365 20.0206 42.8481 20.826 42.7338C21.2983 42.6691 22.2429 42.5498 22.4766 42.3609V43.2607C22.4766 44.1109 21.7905 44.8318 20.7067 44.8318ZM21.179 48.7444C21.7507 48.7444 22.2181 48.3069 22.2181 47.77C22.2181 47.2281 21.7507 46.7906 21.179 46.7906C20.6023 46.7906 20.135 47.2281 20.135 47.77C20.135 48.3069 20.6023 48.7444 21.179 48.7444Z" fill="#292D32"/>
<path d="M27.8807 41.5257C27.8807 40.422 28.5469 39.7856 29.4965 39.7856C30.4262 39.7856 30.983 40.3971 30.983 41.4163V46.0001H32.7827V41.1379C32.7877 39.3083 31.7436 38.2643 30.1676 38.2643C29.0242 38.2643 28.2387 38.8112 27.8907 39.6613H27.8012V38.3637H26.081V46.0001H27.8807V41.5257Z" fill="#292D32"/>
<path d="M39.8846 41.5257C39.8846 40.422 40.5707 39.7856 41.5352 39.7856C42.4798 39.7856 43.0366 40.3872 43.0366 41.4163V46.0001H44.8363V41.1379C44.8363 39.2934 43.7923 38.2643 42.2063 38.2643C41.0331 38.2643 40.2873 38.7963 39.9343 39.6613H39.8448V35.8183H38.0849V46.0001H39.8846V41.5257Z" fill="#292D32"/>
<path d="M50.0018 46.1492C52.239 46.1492 53.6609 44.5732 53.6609 42.2117C53.6609 39.8453 52.239 38.2643 50.0018 38.2643C47.7646 38.2643 46.3427 39.8453 46.3427 42.2117C46.3427 44.5732 47.7646 46.1492 50.0018 46.1492ZM50.0117 44.7075C48.7738 44.7075 48.1673 43.6038 48.1673 42.2068C48.1673 40.8097 48.7738 39.6911 50.0117 39.6911C51.2298 39.6911 51.8363 40.8097 51.8363 42.2068C51.8363 43.6038 51.2298 44.7075 50.0117 44.7075ZM50.5288 36.0569H49.4549L47.4166 37.6329H48.8186L49.9919 36.7181L51.1801 37.6329H52.5622L50.5288 36.0569ZM51.1254 34.3467C51.1254 34.5903 50.9315 34.8538 50.7028 34.8538C50.2056 34.8538 49.7731 34.4213 49.2511 34.4213C48.6495 34.4213 48.2518 34.9681 48.2568 35.4901L48.913 35.6691C48.9081 35.4255 49.1069 35.1869 49.3456 35.1869C49.8576 35.1869 50.151 35.6443 50.7973 35.6443C51.3938 35.6443 51.8015 35.1073 51.8015 34.5704L51.1254 34.3467Z" fill="#292D32"/>
<path d="M62.4743 38.3637H60.9679V36.5342H59.1682V38.3637H58.0844V39.7558H59.1682V44.0015C59.1582 45.4383 60.2023 46.1443 61.5545 46.1045C62.0666 46.0896 62.4196 45.9901 62.6135 45.9255L62.3102 44.5186C62.2108 44.5434 62.007 44.5882 61.7832 44.5882C61.3308 44.5882 60.9679 44.4291 60.9679 43.7032V39.7558H62.4743V38.3637Z" fill="#292D32"/>
<path d="M63.9794 46.0001H65.7792V41.5107C65.7792 40.5413 66.51 39.8552 67.4993 39.8552C67.8026 39.8552 68.1804 39.9099 68.3345 39.9596V38.3041C68.1705 38.2742 67.8871 38.2543 67.6882 38.2543C66.8132 38.2543 66.0824 38.7515 65.804 39.6365H65.7245V38.3637H63.9794V46.0001Z" fill="#292D32"/>
<path d="M75.7783 37.8765C75.7783 38.6123 75.6838 39.1642 75.291 39.4376C74.6547 38.6918 73.7101 38.2643 72.5467 38.2643C70.3095 38.2643 68.8876 39.8453 68.8876 42.2117C68.8876 44.5732 70.3095 46.1492 72.5467 46.1492C74.7839 46.1492 76.2058 44.5732 76.2058 42.2117C76.2058 41.466 76.0666 40.7998 75.8031 40.238C76.6284 39.8552 76.9814 39.0299 76.9814 37.8765H75.7783ZM72.5567 44.7075C71.3187 44.7075 70.7122 43.6038 70.7122 42.2068C70.7122 40.8097 71.3187 39.6911 72.5567 39.6911C73.7747 39.6911 74.3812 40.8097 74.3812 42.2068C74.3812 43.6038 73.7747 44.7075 72.5567 44.7075ZM72.5517 48.7444C73.1234 48.7444 73.5908 48.3069 73.5908 47.77C73.5908 47.2281 73.1234 46.7906 72.5517 46.7906C71.975 46.7906 71.5077 47.2281 71.5077 47.77C71.5077 48.3069 71.975 48.7444 72.5517 48.7444Z" fill="#292D32"/>
<path fill-rule="evenodd" clip-rule="evenodd" d="M17.8277 56.6646C18.9274 56.5611 19.85 57.3721 19.8884 58.476C20.0742 63.8238 21.3736 67.1542 23.7585 69.3164C26.2013 71.5312 30.1053 72.8222 36.2186 73.2792C36.8615 73.3273 37.978 73.2567 39.3575 73.0866C40.6965 72.9216 42.1535 72.6801 43.4085 72.4393C44.0072 72.3244 44.5411 72.2133 44.9835 72.1143C45.3091 71.8274 45.7212 71.6365 46.1738 71.5939C46.4093 71.5718 46.6341 71.5558 46.8277 71.5536C46.9202 71.5525 47.0541 71.5538 47.1995 71.57C47.272 71.578 47.3866 71.5939 47.5198 71.6293C47.6247 71.6572 47.8957 71.7356 48.1747 71.9434C48.4824 72.1726 48.9783 72.7153 48.9272 73.5953C48.8835 74.3466 48.457 74.824 48.3087 74.9758C48.0148 75.2768 47.6943 75.4259 47.6296 75.456C47.6269 75.4573 47.6246 75.4583 47.6228 75.4592C47.4126 75.5584 47.1877 75.6302 47.0401 75.675C46.3922 75.8717 45.2274 76.1333 43.9303 76.3822C42.6079 76.6359 41.0593 76.8933 39.6114 77.0717C38.2041 77.2452 36.7525 77.3626 35.6933 77.2835C29.2876 76.8046 24.3578 75.4162 20.9988 72.3708C17.5819 69.2728 16.1114 64.7621 15.906 58.8508C15.8676 57.7469 16.728 56.7681 17.8277 56.6646Z" fill="white"/>
<path fill-rule="evenodd" clip-rule="evenodd" d="M41.5774 66.8119C41.7177 65.7058 42.7162 64.8713 43.8076 64.9481C44.5947 65.0034 45.4054 65.0657 46.2299 65.1291C49.9233 65.4131 53.8916 65.7182 57.243 65.5104C57.6618 65.4844 58.1138 65.4518 58.4541 65.4273C58.676 65.4113 58.8503 65.3987 58.9368 65.3936C58.942 65.3933 58.9476 65.393 58.9536 65.3926C59.0743 65.3854 59.3562 65.3686 59.6185 65.4036C59.7051 65.4151 59.859 65.4404 60.0374 65.5039C60.1982 65.5611 60.534 65.7027 60.8274 66.0398C61.1771 66.4415 61.3418 66.9794 61.2813 67.5318C61.2306 67.9949 61.0376 68.3275 60.9415 68.4756C60.7663 68.7456 60.5617 68.9264 60.5179 68.9652C60.5159 68.9669 60.5144 68.9683 60.5131 68.9694C60.449 69.0265 60.3829 69.0801 60.3535 69.1039L60.3486 69.1079C60.2721 69.17 60.2408 69.1957 60.2086 69.2257C60.1851 69.2474 60.1726 69.2615 60.1669 69.2684C59.9571 69.7467 59.5989 70.3209 59.2328 70.8668C58.8375 71.4562 58.342 72.1453 57.7867 72.8853C56.6749 74.3672 55.2832 76.1073 53.8854 77.7577C52.4931 79.4018 51.0633 80.9943 49.8783 82.1646C49.2938 82.7419 48.7161 83.2693 48.2018 83.6521C47.9507 83.839 47.6411 84.0474 47.3036 84.2021C47.0626 84.3125 46.3295 84.6272 45.5081 84.3533C44.483 84.0114 43.9764 82.8792 44.3764 81.8245C44.6474 81.11 45.265 80.6144 45.9538 80.4752C45.9552 80.4742 45.9566 80.4732 45.958 80.4722C46.2311 80.2688 46.6408 79.907 47.1754 79.3791C48.2286 78.3389 49.5639 76.8567 50.9186 75.257C52.268 73.6637 53.6053 71.9908 54.6594 70.5859C54.9258 70.2308 55.1716 69.8962 55.3932 69.5871C52.1874 69.6355 48.6667 69.3634 45.5822 69.125C44.7881 69.0636 44.0229 69.0044 43.2994 68.9536C42.208 68.8768 41.437 67.918 41.5774 66.8119ZM59.0384 69.3971C59.0455 69.397 59.0437 69.3972 59.0348 69.3972C59.0363 69.3972 59.0375 69.3971 59.0384 69.3971Z" fill="white"/>
<defs>
<linearGradient id="paint0_linear" x1="45.6192" y1="5.09043" x2="77.747" y2="76.2459" gradientUnits="userSpaceOnUse">
<stop stop-color="#ECEFF0"/>
<stop offset="1" stop-color="white"/>
</linearGradient>
<linearGradient id="paint1_linear" x1="45.6192" y1="5.09043" x2="77.747" y2="76.2459" gradientUnits="userSpaceOnUse">
<stop stop-color="#ECEFF0"/>
<stop offset="1" stop-color="white"/>
</linearGradient>
<linearGradient id="paint2_linear" x1="45.6192" y1="5.09043" x2="77.747" y2="76.2459" gradientUnits="userSpaceOnUse">
<stop stop-color="#ECEFF0"/>
<stop offset="1" stop-color="white"/>
</linearGradient>
<linearGradient id="paint3_linear" x1="45.6192" y1="5.09043" x2="77.747" y2="76.2459" gradientUnits="userSpaceOnUse">
<stop stop-color="#ECEFF0"/>
<stop offset="1" stop-color="white"/>
</linearGradient>
<linearGradient id="paint4_linear" x1="45.6192" y1="5.09043" x2="77.747" y2="76.2459" gradientUnits="userSpaceOnUse">
<stop stop-color="#ECEFF0"/>
<stop offset="1" stop-color="white"/>
</linearGradient>
<linearGradient id="paint5_linear" x1="45.6192" y1="5.09043" x2="77.747" y2="76.2459" gradientUnits="userSpaceOnUse">
<stop stop-color="#ECEFF0"/>
<stop offset="1" stop-color="white"/>
</linearGradient>
<linearGradient id="paint6_linear" x1="45.6192" y1="5.09043" x2="77.747" y2="76.2459" gradientUnits="userSpaceOnUse">
<stop stop-color="#ECEFF0"/>
<stop offset="1" stop-color="white"/>
</linearGradient>
<linearGradient id="paint7_linear" x1="45.6192" y1="5.09043" x2="77.747" y2="76.2459" gradientUnits="userSpaceOnUse">
<stop stop-color="#ECEFF0"/>
<stop offset="1" stop-color="white"/>
</linearGradient>
<linearGradient id="paint8_linear" x1="45.6192" y1="5.09043" x2="77.747" y2="76.2459" gradientUnits="userSpaceOnUse">
<stop stop-color="#ECEFF0"/>
<stop offset="1" stop-color="white"/>
</linearGradient>
<linearGradient id="paint9_linear" x1="45.6192" y1="5.09043" x2="77.747" y2="76.2459" gradientUnits="userSpaceOnUse">
<stop stop-color="#ECEFF0"/>
<stop offset="1" stop-color="white"/>
</linearGradient>
<linearGradient id="paint10_linear" x1="45.6192" y1="5.09043" x2="77.747" y2="76.2459" gradientUnits="userSpaceOnUse">
<stop stop-color="#ECEFF0"/>
<stop offset="1" stop-color="white"/>
</linearGradient>
<linearGradient id="paint11_linear" x1="45.6192" y1="5.09043" x2="77.747" y2="76.2459" gradientUnits="userSpaceOnUse">
<stop stop-color="#ECEFF0"/>
<stop offset="1" stop-color="white"/>
</linearGradient>
<linearGradient id="paint12_linear" x1="108.686" y1="35.1804" x2="154.918" y2="48.7271" gradientUnits="userSpaceOnUse">
<stop stop-color="#ECEFF0"/>
<stop offset="1" stop-color="white"/>
</linearGradient>
<linearGradient id="paint13_linear" x1="108.686" y1="35.1804" x2="154.918" y2="48.7271" gradientUnits="userSpaceOnUse">
<stop stop-color="#ECEFF0"/>
<stop offset="1" stop-color="white"/>
</linearGradient>
</defs>
</svg>
