<svg width="255" height="98" viewBox="0 0 255 98" fill="none" xmlns="http://www.w3.org/2000/svg">
<path d="M32.8523 35.5881H38.196V50H41.8438V35.5881H47.1875V32.5455H32.8523V35.5881ZM51.6718 50.2472C53.6065 50.2472 54.8593 49.4034 55.4985 48.1847H55.6008V50H59.044V41.1705C59.044 38.0511 56.4019 36.7386 53.4872 36.7386C50.3508 36.7386 48.2883 38.2386 47.7855 40.625L51.1434 40.8977C51.3906 40.0284 52.1661 39.3892 53.4701 39.3892C54.7059 39.3892 55.4133 40.0114 55.4133 41.0852V41.1364C55.4133 41.9801 54.5184 42.0909 52.2428 42.3125C49.6519 42.5511 47.3252 43.4205 47.3252 46.3438C47.3252 48.9347 49.1747 50.2472 51.6718 50.2472ZM51.9105 35.358L53.6235 33.2784L55.3366 35.358H58.4303V35.2386L54.9701 31.4886H52.2684L48.8167 35.2386V35.358H51.9105ZM52.7116 47.7415C51.5951 47.7415 50.794 47.2216 50.794 46.2244C50.794 45.2017 51.6377 44.6989 52.9161 44.5199C53.7087 44.4091 55.0042 44.2216 55.4389 43.9318V45.321C55.4389 46.6932 54.3053 47.7415 52.7116 47.7415ZM53.4701 54.9091C54.5525 54.9091 55.4389 54.0824 55.4389 53.0682C55.4389 52.0625 54.5525 51.2358 53.4701 51.2358C52.3962 51.2358 51.5099 52.0625 51.5099 53.0682C51.5099 54.0824 52.3962 54.9091 53.4701 54.9091ZM70.4956 44.4261C70.5041 46.1818 69.3024 47.1023 67.9985 47.1023C66.6263 47.1023 65.7399 46.1392 65.7314 44.5966V36.9091H62.1007V45.2443C62.1093 48.304 63.899 50.1705 66.5326 50.1705C68.5013 50.1705 69.9161 49.1562 70.5041 47.6222H70.6405V50H74.1263V36.9091H70.4956V44.4261ZM86.0992 36.9091H82.3492L86.0992 43.4545L82.2128 50H85.9628L88.5026 45.4744L91.085 50H94.7924L90.8975 43.4545L94.6901 36.9091H90.9657L88.5026 41.4858L86.0992 36.9091ZM102.56 50.2557C105.799 50.2557 107.981 48.679 108.492 46.25L105.134 46.0284C104.767 47.0256 103.83 47.5455 102.62 47.5455C100.804 47.5455 99.6538 46.3438 99.6538 44.392V44.3835H108.569V43.3864C108.569 38.9375 105.875 36.7386 102.415 36.7386C98.5629 36.7386 96.0658 39.4744 96.0658 43.5142C96.0658 47.6648 98.5288 50.2557 102.56 50.2557ZM99.6538 42.1335C99.7305 40.642 100.864 39.4489 102.475 39.4489C104.052 39.4489 105.142 40.5739 105.151 42.1335H99.6538ZM115.124 47.6136H112.124L112.081 48.5682C111.979 50.8864 111.314 53.2642 111.067 54.2614H113.419C113.828 53.2301 114.8 50.8097 115.03 48.5511L115.124 47.6136ZM123.658 50H127.289V42.142C127.289 40.6932 128.209 39.7301 129.419 39.7301C130.612 39.7301 131.414 40.5483 131.414 41.8352V50H134.933V42.0057C134.933 40.6506 135.709 39.7301 137.03 39.7301C138.189 39.7301 139.058 40.4545 139.058 41.9119V50H142.681V41.196C142.681 38.358 140.993 36.7386 138.556 36.7386C136.638 36.7386 135.147 37.7188 134.61 39.2188H134.473C134.056 37.7017 132.718 36.7386 130.919 36.7386C129.155 36.7386 127.817 37.6761 127.272 39.2188H127.118V36.9091H123.658V50ZM154.183 44.4261C154.192 46.1818 152.99 47.1023 151.686 47.1023C150.314 47.1023 149.428 46.1392 149.419 44.5966V36.9091H145.789V45.2443C145.797 48.304 147.587 50.1705 150.22 50.1705C152.189 50.1705 153.604 49.1562 154.192 47.6222H154.328V50H157.814V36.9091H154.183V44.4261ZM164.691 50.2472C166.626 50.2472 167.879 49.4034 168.518 48.1847H168.62V50H172.063V41.1705C172.063 38.0511 169.421 36.7386 166.507 36.7386C163.37 36.7386 161.308 38.2386 160.805 40.625L164.163 40.8977C164.41 40.0284 165.186 39.3892 166.489 39.3892C167.725 39.3892 168.433 40.0114 168.433 41.0852V41.1364C168.433 41.9801 167.538 42.0909 165.262 42.3125C162.671 42.5511 160.345 43.4205 160.345 46.3438C160.345 48.9347 162.194 50.2472 164.691 50.2472ZM165.731 47.7415C164.614 47.7415 163.813 47.2216 163.813 46.2244C163.813 45.2017 164.657 44.6989 165.936 44.5199C166.728 44.4091 168.024 44.2216 168.458 43.9318V45.321C168.458 46.6932 167.325 47.7415 165.731 47.7415ZM184.545 42.4318C184.554 40.7443 185.56 39.7557 187.026 39.7557C188.483 39.7557 189.361 40.7102 189.352 42.3125V50H192.983V41.6648C192.983 38.6136 191.193 36.7386 188.466 36.7386C186.523 36.7386 185.117 37.6932 184.528 39.2188H184.375V36.9091H180.915V50H184.545V42.4318ZM199.715 42.4318C199.724 40.7443 200.755 39.7557 202.238 39.7557C203.712 39.7557 204.582 40.7017 204.573 42.3125V50H208.204V41.6648C208.212 38.5966 206.406 36.7386 203.678 36.7386C201.692 36.7386 200.363 37.6761 199.766 39.2188H199.613V32.5455H196.084V50H199.715V42.4318ZM215.034 50.2472C216.969 50.2472 218.222 49.4034 218.861 48.1847H218.963V50H222.406V41.1705C222.406 38.0511 219.764 36.7386 216.849 36.7386C213.713 36.7386 211.65 38.2386 211.148 40.625L214.506 40.8977C214.753 40.0284 215.528 39.3892 216.832 39.3892C218.068 39.3892 218.775 40.0114 218.775 41.0852V41.1364C218.775 41.9801 217.881 42.0909 215.605 42.3125C213.014 42.5511 210.687 43.4205 210.687 46.3438C210.687 48.9347 212.537 50.2472 215.034 50.2472ZM216.074 47.7415C214.957 47.7415 214.156 47.2216 214.156 46.2244C214.156 45.2017 215 44.6989 216.278 44.5199C217.071 44.4091 218.366 44.2216 218.801 43.9318V45.321C218.801 46.6932 217.668 47.7415 216.074 47.7415ZM215.724 35.2216H218.29L216.474 31.3438H213.125L215.724 35.2216ZM42.9858 75.5653H46.5227C46.4716 72.4545 43.9148 70.3068 40.0284 70.3068C36.2017 70.3068 33.3977 72.4205 33.4148 75.5909C33.4062 78.1648 35.2216 79.6392 38.1705 80.3466L40.071 80.8239C41.9716 81.2841 43.0284 81.8295 43.0369 83.0057C43.0284 84.2841 41.8182 85.1534 39.9432 85.1534C38.0256 85.1534 36.6449 84.267 36.5256 82.5199H32.9545C33.0483 86.2955 35.75 88.2472 39.9858 88.2472C44.2472 88.2472 46.7528 86.2102 46.7614 83.0142C46.7528 80.108 44.5625 78.5653 41.5284 77.8835L39.9602 77.5085C38.4432 77.1591 37.1733 76.5966 37.1989 75.3438C37.1989 74.2188 38.196 73.392 40.0028 73.392C41.767 73.392 42.8494 74.1932 42.9858 75.5653ZM63.2563 74.1847C63.2478 75.8381 63.0603 76.767 61.5262 76.9972V74.9091H57.8955V82.4261C57.9041 84.1818 56.7024 85.1023 55.3984 85.1023C54.0262 85.1023 53.1399 84.1392 53.1313 82.5966V74.9091H49.5007V83.2443C49.5092 86.304 51.2989 88.1705 53.9325 88.1705C55.9012 88.1705 57.316 87.1562 57.9041 85.6222H58.0404V88H61.5262V78.642C64.4069 78.3949 65.3529 76.8778 65.3614 74.1847H63.2563ZM56.8643 73.0341V72.2841C57.7762 72.1477 58.6882 71.6449 58.6796 70.6136C58.6882 69.1648 57.0688 68.2955 54.0347 68.2955L53.941 69.9403C54.9126 69.9403 55.6541 70.1108 55.6455 70.7244C55.6541 71.1676 55.1853 71.4489 53.9836 71.5L54.1711 73.0341H56.8643ZM70.404 88.2472C72.3387 88.2472 73.5915 87.4034 74.2307 86.1847H74.333V88H77.7762V79.1705C77.7762 76.0511 75.1341 74.7386 72.2193 74.7386C69.083 74.7386 67.0205 76.2386 66.5176 78.625L69.8756 78.8977C70.1228 78.0284 70.8983 77.3892 72.2023 77.3892C73.4381 77.3892 74.1455 78.0114 74.1455 79.0852V79.1364C74.1455 79.9801 73.2506 80.0909 70.975 80.3125C68.3841 80.5511 66.0574 81.4205 66.0574 84.3438C66.0574 86.9347 67.9068 88.2472 70.404 88.2472ZM71.4438 85.7415C70.3273 85.7415 69.5262 85.2216 69.5262 84.2244C69.5262 83.2017 70.3699 82.6989 71.6483 82.5199C72.4409 82.4091 73.7364 82.2216 74.1711 81.9318V83.321C74.1711 84.6932 73.0375 85.7415 71.4438 85.7415ZM90.2583 80.4318C90.2668 78.7443 91.2725 77.7557 92.7384 77.7557C94.1958 77.7557 95.0736 78.7102 95.0651 80.3125V88H98.6958V79.6648C98.6958 76.6136 96.906 74.7386 94.1787 74.7386C92.2356 74.7386 90.8293 75.6932 90.2412 77.2188H90.0878V74.9091H86.6276V88H90.2583V80.4318ZM105.428 80.4318C105.437 78.7443 106.468 77.7557 107.951 77.7557C109.425 77.7557 110.294 78.7017 110.286 80.3125V88H113.917V79.6648C113.925 76.5966 112.118 74.7386 109.391 74.7386C107.405 74.7386 106.076 75.6761 105.479 77.2188H105.326V70.5455H101.797V88H105.428V80.4318ZM120.747 88.2472C122.681 88.2472 123.934 87.4034 124.574 86.1847H124.676V88H128.119V79.1705C128.119 76.0511 125.477 74.7386 122.562 74.7386C119.426 74.7386 117.363 76.2386 116.86 78.625L120.218 78.8977C120.466 78.0284 121.241 77.3892 122.545 77.3892C123.781 77.3892 124.488 78.0114 124.488 79.0852V79.1364C124.488 79.9801 123.593 80.0909 121.318 80.3125C118.727 80.5511 116.4 81.4205 116.4 84.3438C116.4 86.9347 118.25 88.2472 120.747 88.2472ZM121.787 85.7415C120.67 85.7415 119.869 85.2216 119.869 84.2244C119.869 83.2017 120.713 82.6989 121.991 82.5199C122.784 82.4091 124.079 82.2216 124.514 81.9318V83.321C124.514 84.6932 123.38 85.7415 121.787 85.7415ZM121.437 73.2216H124.003L122.187 69.3438H118.838L121.437 73.2216ZM135.122 85.6136H132.122L132.079 86.5682C131.977 88.8864 131.312 91.2642 131.065 92.2614H133.417C133.826 91.2301 134.798 88.8097 135.028 86.5511L135.122 85.6136ZM154.548 78.642C154.224 76.2301 152.281 74.7386 148.974 74.7386C145.624 74.7386 143.417 76.2898 143.426 78.8125C143.417 80.7727 144.653 82.0426 147.21 82.554L149.477 83.0057C150.619 83.2358 151.139 83.6534 151.156 84.3097C151.139 85.0852 150.295 85.6392 149.025 85.6392C147.73 85.6392 146.869 85.0852 146.647 84.0199L143.076 84.2074C143.417 86.7131 145.548 88.2557 149.017 88.2557C152.409 88.2557 154.838 86.5256 154.846 83.9432C154.838 82.0511 153.602 80.9176 151.062 80.3977L148.693 79.9205C147.474 79.6562 147.022 79.2386 147.031 78.608C147.022 77.8239 147.909 77.3125 149.034 77.3125C150.295 77.3125 151.045 78.0028 151.224 78.8466L154.548 78.642ZM161.105 88.2472C163.04 88.2472 164.293 87.4034 164.932 86.1847H165.034V88H168.477V79.1705C168.477 76.0511 165.835 74.7386 162.921 74.7386C159.784 74.7386 157.722 76.2386 157.219 78.625L160.577 78.8977C160.824 78.0284 161.6 77.3892 162.904 77.3892C164.139 77.3892 164.847 78.0114 164.847 79.0852V79.1364C164.847 79.9801 163.952 80.0909 161.676 80.3125C159.085 80.5511 156.759 81.4205 156.759 84.3438C156.759 86.9347 158.608 88.2472 161.105 88.2472ZM164.898 70.7585C164.898 71.4318 164.378 72.0881 163.006 72.0881C161.634 72.0881 161.105 71.4318 161.114 70.7585H158.796C158.787 72.4119 160.415 73.5625 163.006 73.5625C165.605 73.5625 167.259 72.4119 167.259 70.7585H164.898ZM162.145 85.7415C161.029 85.7415 160.227 85.2216 160.227 84.2244C160.227 83.2017 161.071 82.6989 162.35 82.5199C163.142 82.4091 164.438 82.2216 164.872 81.9318V83.321C164.872 84.6932 163.739 85.7415 162.145 85.7415ZM162.017 70.7756H163.909L166.023 68.5938H163.526L162.017 70.7756ZM171.534 88H175.165V80.142C175.165 78.6932 176.085 77.7301 177.296 77.7301C178.489 77.7301 179.29 78.5483 179.29 79.8352V88H182.81V80.0057C182.81 78.6506 183.585 77.7301 184.906 77.7301C186.065 77.7301 186.935 78.4545 186.935 79.9119V88H190.557V79.196C190.557 76.358 188.869 74.7386 186.432 74.7386C184.514 74.7386 183.023 75.7188 182.486 77.2188H182.35C181.932 75.7017 180.594 74.7386 178.796 74.7386C177.031 74.7386 175.693 75.6761 175.148 77.2188H174.994V74.9091H171.534V88ZM204.283 88.2131C206.397 88.2131 207.496 86.9943 207.999 85.9034H208.153V88H211.732V74.0142H213.224V71.875H211.732V70.5455H208.11V71.875H204.718V74.0142H208.11V77.108H207.999C207.513 76.0426 206.465 74.7386 204.275 74.7386C201.403 74.7386 198.974 76.9716 198.974 81.4716C198.974 85.8523 201.3 88.2131 204.283 88.2131ZM205.434 85.3239C203.653 85.3239 202.681 83.7386 202.681 81.4545C202.681 79.1875 203.636 77.6278 205.434 77.6278C207.198 77.6278 208.187 79.1193 208.187 81.4545C208.187 83.7898 207.181 85.3239 205.434 85.3239ZM218.69 88.2472C220.625 88.2472 221.878 87.4034 222.517 86.1847H222.619V88H226.062V79.1705C226.062 76.0511 223.42 74.7386 220.506 74.7386C217.369 74.7386 215.307 76.2386 214.804 78.625L218.162 78.8977C218.409 78.0284 219.185 77.3892 220.489 77.3892C221.724 77.3892 222.432 78.0114 222.432 79.0852V79.1364C222.432 79.9801 221.537 80.0909 219.261 80.3125C216.67 80.5511 214.344 81.4205 214.344 84.3438C214.344 86.9347 216.193 88.2472 218.69 88.2472ZM219.73 85.7415C218.614 85.7415 217.812 85.2216 217.812 84.2244C217.812 83.2017 218.656 82.6989 219.935 82.5199C220.727 82.4091 222.023 82.2216 222.457 81.9318V83.321C222.457 84.6932 221.324 85.7415 219.73 85.7415ZM216.202 73.4773H218.81L220.633 72.0455L222.432 73.4773H225.048L221.597 70.8267H219.636L216.202 73.4773ZM224.153 71.9773H226.207L228.96 68.7812H226.148L224.153 71.9773ZM236.082 74.9091H233.619V71.7727H229.989V74.9091H228.199V77.6364H229.989V84.4545C229.971 87.0199 231.719 88.2898 234.352 88.179C235.29 88.1449 235.954 87.9574 236.321 87.8381L235.75 85.1364C235.571 85.1705 235.187 85.2557 234.846 85.2557C234.122 85.2557 233.619 84.983 233.619 83.9773V77.6364H236.082V74.9091Z" fill="url(#paint0_linear)"/>
<path d="M2.31179 17L3.15199 14.4893H6.98011L7.82528 17H9.79403L6.20455 6.81818H3.92756L0.34304 17H2.31179ZM3.64915 13.0078L5.02628 8.90625H5.10582L6.48295 13.0078H3.64915ZM4.375 5.81392H5.7223L7.24858 3.5419H5.48864L4.375 5.81392ZM11.0556 19.8636H12.8553L12.8553 15.7969H12.9299C13.2132 16.3537 13.8049 17.1342 15.1174 17.1342C16.9171 17.1342 18.2644 15.7074 18.2644 13.1918C18.2644 10.6463 16.8773 9.2642 15.1124 9.2642C13.7651 9.2642 13.2033 10.0746 12.9299 10.6264H12.8255V9.36364H11.0556L11.0556 19.8636ZM12.8205 13.1818C12.8205 11.7003 13.4569 10.7408 14.6152 10.7408C15.8134 10.7408 16.4299 11.7599 16.4299 13.1818C16.4299 14.6136 15.8034 15.6577 14.6152 15.6577C13.4668 15.6577 12.8205 14.6634 12.8205 13.1818ZM26.112 17.1342C27.4245 17.1342 28.0162 16.3537 28.2995 15.7969H28.4089V17H30.1788V6.81818H28.3741V10.6264H28.2995C28.0261 10.0746 27.4643 9.2642 26.117 9.2642C24.3521 9.2642 22.965 10.6463 22.965 13.1918C22.965 15.7074 24.3123 17.1342 26.112 17.1342ZM26.6142 15.6577C25.426 15.6577 24.7995 14.6136 24.7995 13.1818C24.7995 11.7599 25.416 10.7408 26.6142 10.7408C27.7725 10.7408 28.4089 11.7003 28.4089 13.1818C28.4089 14.6634 27.7626 15.6577 26.6142 15.6577ZM36.9638 13.7884C36.9638 14.9517 36.1335 15.5284 35.3381 15.5284C34.473 15.5284 33.8963 14.9169 33.8963 13.9474V9.36364H32.0966V14.2259C32.0966 16.0604 33.1406 17.0994 34.642 17.0994C35.7855 17.0994 36.5909 16.4979 36.9389 15.6428H37.0185V17H38.7635V9.36364H36.9638V13.7884ZM35.6513 19.7443C36.223 19.7443 36.6903 19.3068 36.6903 18.7699C36.6903 18.228 36.223 17.7905 35.6513 17.7905C35.0746 17.7905 34.6072 18.228 34.6072 18.7699C34.6072 19.3068 35.0746 19.7443 35.6513 19.7443ZM42.4139 12.5256C42.4139 11.4219 43.0801 10.7855 44.0297 10.7855C44.9593 10.7855 45.5162 11.397 45.5162 12.4162V17H47.3159V12.1378C47.3208 10.3082 46.2768 9.2642 44.7008 9.2642C43.5574 9.2642 42.7718 9.81108 42.4238 10.6612H42.3343V9.36364H40.6142V17H42.4139V12.5256ZM52.4664 20.0227C54.5297 20.0227 56.051 19.0781 56.051 17.1243V9.36364H54.2761V10.6264H54.1767C53.9032 10.0746 53.3315 9.2642 51.9842 9.2642C50.2193 9.2642 48.8322 10.6463 48.8322 13.157C48.8322 15.6477 50.2193 16.8906 51.9792 16.8906C53.2868 16.8906 53.8983 16.1896 54.1767 15.6278H54.2662V17.0746C54.2662 18.1982 53.5204 18.6605 52.4963 18.6605C51.4125 18.6605 50.9352 18.1484 50.7164 17.701L49.0957 18.0937C49.4238 19.1626 50.5225 20.0227 52.4664 20.0227ZM52.4814 15.4787C51.2931 15.4787 50.6667 14.554 50.6667 13.147C50.6667 11.7599 51.2832 10.7408 52.4814 10.7408C53.6397 10.7408 54.2761 11.7003 54.2761 13.147C54.2761 14.6037 53.6298 15.4787 52.4814 15.4787Z" fill="#292D32"/>
<defs>
<linearGradient id="paint0_linear" x1="86.0211" y1="35.3404" x2="188.374" y2="101.509" gradientUnits="userSpaceOnUse">
<stop stop-color="#ECEFF0"/>
<stop offset="1" stop-color="white"/>
</linearGradient>
</defs>
</svg>
