<svg width="237" height="90" viewBox="0 0 237 90" fill="none" xmlns="http://www.w3.org/2000/svg">
<g filter="url(#filter0_d)">
<path d="M19.9558 21.7949H16.0353V36.3403H19.9558V21.7949Z" fill="url(#paint0_linear)"/>
<path d="M24.9931 36.5108C26.4135 36.5108 27.486 36.0278 28.1465 34.8062H28.2317V36.3403H31.8965V28.8687C31.8965 26.8517 29.986 25.2892 26.8681 25.2892C23.6081 25.2892 22.003 26.9937 21.8681 28.9824H25.476C25.5684 28.3077 26.0655 27.9881 26.8113 27.9881C27.4931 27.9881 27.976 28.3006 27.976 28.8687V28.8972C27.976 29.5293 27.28 29.7281 25.4476 29.8631C23.1962 30.0264 21.4419 30.9355 21.4419 33.329C21.4419 35.5023 22.905 36.5108 24.9931 36.5108ZM25.7033 24.0676H28.2885L26.9249 20.8858H23.5726L25.7033 24.0676ZM26.2715 34.0392C25.6039 34.0392 25.1351 33.7125 25.1351 33.1017C25.1351 32.5406 25.5328 32.1074 26.4419 31.9653C27.0669 31.8659 27.5925 31.7381 28.0044 31.5676V32.4767C28.0044 33.471 27.1593 34.0392 26.2715 34.0392Z" fill="url(#paint1_linear)"/>
<path d="M43.0098 36.5392C46.2413 36.5392 48.2228 34.6855 48.2654 31.7949H44.6291C44.5439 32.9383 43.926 33.5562 43.0666 33.5562C42.0368 33.5562 41.362 32.6756 41.362 30.8858C41.362 29.096 42.0368 28.2153 43.0666 28.2153C43.9331 28.2153 44.5226 28.8332 44.6291 29.9767H48.2654C48.2441 27.1358 46.22 25.2892 43.0098 25.2892C39.4586 25.2892 37.3564 27.5619 37.3564 30.9142C37.3564 34.2665 39.4586 36.5392 43.0098 36.5392Z" fill="url(#paint2_linear)"/>
<path d="M52.9228 36.5108C54.3432 36.5108 55.4157 36.0278 56.0762 34.8062H56.1614V36.3403H59.8262V28.8687C59.8262 26.8517 57.9157 25.2892 54.7978 25.2892C51.5378 25.2892 49.9327 26.9937 49.7978 28.9824H53.4057C53.498 28.3077 53.9952 27.9881 54.7409 27.9881C55.4228 27.9881 55.9057 28.3006 55.9057 28.8687V28.8972C55.9057 29.5293 55.2097 29.7281 53.3773 29.8631C51.1259 30.0264 49.3716 30.9355 49.3716 33.329C49.3716 35.5023 50.8347 36.5108 52.9228 36.5108ZM53.6046 24.0676H56.1898L58.3205 20.8858H54.9682L53.6046 24.0676ZM54.2012 34.0392C53.5336 34.0392 53.0648 33.7125 53.0648 33.1017C53.0648 32.5406 53.4625 32.1074 54.3716 31.9653C54.9966 31.8659 55.5222 31.7381 55.9341 31.5676V32.4767C55.9341 33.471 55.089 34.0392 54.2012 34.0392Z" fill="url(#paint3_linear)"/>
<path d="M66.9551 36.5392C70.1866 36.5392 72.1681 34.6855 72.2108 31.7949H68.5744C68.4892 32.9383 67.8713 33.5562 67.0119 33.5562C65.9821 33.5562 65.3073 32.6756 65.3073 30.8858C65.3073 29.096 65.9821 28.2153 67.0119 28.2153C67.8784 28.2153 68.4679 28.8332 68.5744 29.9767H72.2108C72.1895 27.1358 70.1653 25.2892 66.9551 25.2892C63.4039 25.2892 61.3017 27.5619 61.3017 30.9142C61.3017 34.2665 63.4039 36.5392 66.9551 36.5392Z" fill="url(#paint4_linear)"/>
<path d="M77.7559 36.3403H87.5854V33.1585H81.7047V21.7949H77.7559V36.3403Z" fill="url(#paint5_linear)"/>
<path d="M92.2782 36.5108C93.6987 36.5108 94.7711 36.0278 95.4316 34.8062H95.5169V36.3403H99.1816V28.8687C99.1816 26.8517 97.2711 25.2892 94.1532 25.2892C90.8933 25.2892 89.2882 26.9937 89.1532 28.9824H92.7612C92.8535 28.3077 93.3507 27.9881 94.0964 27.9881C94.7782 27.9881 95.2612 28.3006 95.2612 28.8687V28.8972C95.2612 29.5293 94.5652 29.7281 92.7328 29.8631C90.4814 30.0264 88.7271 30.9355 88.7271 33.329C88.7271 35.5023 90.1902 36.5108 92.2782 36.5108ZM92.8748 24.1386L94.2669 22.5761L95.6589 24.1386H98.8976V24.0534L95.6305 20.8148H92.9032L89.6362 24.0534V24.1386H92.8748ZM94.1248 40.7437C95.1902 40.7437 96.0566 39.9412 96.0566 38.954C96.0566 37.9668 95.1902 37.1642 94.1248 37.1642C93.0595 37.1642 92.193 37.9668 92.193 38.954C92.193 39.9412 93.0595 40.7437 94.1248 40.7437ZM93.5566 34.0392C92.889 34.0392 92.4203 33.7125 92.4203 33.1017C92.4203 32.5406 92.818 32.1074 93.7271 31.9653C94.3521 31.8659 94.8777 31.7381 95.2896 31.5676V32.4767C95.2896 33.471 94.4444 34.0392 93.5566 34.0392Z" fill="url(#paint6_linear)"/>
<path d="M101.055 40.4312H104.975V34.5506H105.032C105.487 35.6585 106.538 36.4824 108.072 36.4824C110.401 36.4824 112.362 34.6642 112.362 30.8858C112.362 26.9369 110.259 25.2892 108.1 25.2892C106.481 25.2892 105.458 26.2267 105.032 27.3347H104.947V25.4312H101.055V40.4312ZM104.89 30.8858C104.89 29.2665 105.544 28.3006 106.623 28.3006C107.703 28.3006 108.328 29.2665 108.328 30.8858C108.328 32.5051 107.703 33.471 106.623 33.471C105.544 33.471 104.89 32.4767 104.89 30.8858Z" fill="url(#paint7_linear)"/>
<path d="M117.534 24.9767H121.909V36.3403H125.801V24.9767H130.176V21.7949H117.534V24.9767Z" fill="url(#paint8_linear)"/>
<path d="M130.586 36.3403H134.507V30.6585C134.507 29.4085 135.366 28.5847 136.524 28.5847C136.928 28.5847 137.582 28.6486 137.972 28.7835V25.4383C137.66 25.346 137.319 25.2892 136.978 25.2892C135.813 25.2892 134.904 25.971 134.507 27.5051H134.393V25.4312H130.586V36.3403Z" fill="url(#paint9_linear)"/>
<path d="M139.258 36.3403H143.178V25.4312H139.258V36.3403ZM139.94 24.0676H142.525L141.161 20.8858H137.809L139.94 24.0676Z" fill="url(#paint10_linear)"/>
<path d="M149.096 30.204C149.104 29.1244 149.714 28.471 150.687 28.471C151.675 28.471 152.257 29.1244 152.25 30.204V36.3403H156.17V29.3801C156.177 27.0079 154.679 25.2892 152.363 25.2892C150.758 25.2892 149.487 26.1273 149.011 27.5051H148.898V25.4312H145.176V36.3403H149.096V30.204Z" fill="url(#paint11_linear)"/>
<path d="M162.026 30.204C162.033 29.1244 162.658 28.471 163.617 28.471C164.618 28.471 165.187 29.1244 165.179 30.204V36.3403H169.1V29.3801C169.107 26.9937 167.601 25.2892 165.293 25.2892C163.681 25.2892 162.488 26.1131 161.998 27.5051H161.884V21.7949H158.106V36.3403H162.026V30.204Z" fill="url(#paint12_linear)"/>
<path d="M178.94 21.7949H174.48L179.281 36.3403H184.679L189.48 21.7949H185.02L182.037 32.0506H181.923L178.94 21.7949Z" fill="url(#paint13_linear)"/>
<path d="M190.938 36.3403H194.858V25.4312H190.938V36.3403ZM192.898 24.2949C193.963 24.2949 194.83 23.4923 194.83 22.5051C194.83 21.5179 193.963 20.7153 192.898 20.7153C191.833 20.7153 190.966 21.5179 190.966 22.5051C190.966 23.4923 191.833 24.2949 192.898 24.2949Z" fill="url(#paint14_linear)"/>
<path d="M202.083 36.5392C205.108 36.5392 207.054 35.0903 207.424 32.8176H203.844C203.617 33.4355 202.971 33.7835 202.168 33.7835C201.003 33.7835 200.322 33.0165 200.322 31.9653V31.7949H207.424V30.8858C207.424 27.4128 205.293 25.2892 201.998 25.2892C198.617 25.2892 196.458 27.5335 196.458 30.9142C196.458 34.444 198.589 36.5392 202.083 36.5392ZM200.549 24.1386L201.941 22.5761L203.333 24.1386H206.572V24.0534L203.304 20.8148H200.577L197.31 24.0534V24.1386H200.549ZM200.322 29.6358C200.343 28.6912 201.124 28.0449 202.083 28.0449C203.056 28.0449 203.795 28.6983 203.816 29.6358H200.322Z" fill="url(#paint15_linear)"/>
<path d="M212.944 30.204C212.951 29.1244 213.562 28.471 214.535 28.471C215.522 28.471 216.105 29.1244 216.097 30.204V36.3403H220.018V29.3801C220.025 27.0079 218.526 25.2892 216.211 25.2892C214.606 25.2892 213.335 26.1273 212.859 27.5051H212.745V25.4312H209.024V36.3403H212.944V30.204Z" fill="url(#paint16_linear)"/>
</g>
<path d="M162.418 55.2947C162.423 54.1697 163.094 53.5106 164.071 53.5106C165.043 53.5106 165.628 54.1469 165.622 55.2151V60.3401H168.043V54.7833C168.043 52.7492 166.849 51.4992 165.031 51.4992C163.736 51.4992 162.798 52.1356 162.406 53.1526H162.304V51.6128H159.997V60.3401H162.418V55.2947Z" fill="url(#paint17_linear)"/>
<path d="M172.439 60.5049C173.729 60.5049 174.564 59.9424 174.99 59.1299H175.058V60.3401H177.354V54.4537C177.354 52.3742 175.592 51.4992 173.649 51.4992C171.558 51.4992 170.183 52.4992 169.848 54.0901L172.087 54.2719C172.251 53.6924 172.768 53.2662 173.638 53.2662C174.462 53.2662 174.933 53.681 174.933 54.3969V54.431C174.933 54.9935 174.337 55.0674 172.82 55.2151C171.092 55.3742 169.541 55.9537 169.541 57.9026C169.541 59.6299 170.774 60.5049 172.439 60.5049ZM174.865 48.5674C174.865 49.1015 174.547 49.5844 173.74 49.5844C172.911 49.5844 172.604 49.0901 172.609 48.5674H170.933C170.933 49.9424 172.018 50.8628 173.74 50.8628C175.462 50.8628 176.547 49.9424 176.553 48.5674H174.865ZM173.132 58.8344C172.388 58.8344 171.854 58.4878 171.854 57.8231C171.854 57.1412 172.416 56.806 173.268 56.6867C173.797 56.6128 174.661 56.4878 174.95 56.2947V57.2208C174.95 58.1356 174.195 58.8344 173.132 58.8344Z" fill="url(#paint18_linear)"/>
<path d="M179.232 60.3401H181.652V55.1015C181.652 54.1356 182.266 53.4935 183.072 53.4935C183.868 53.4935 184.402 54.039 184.402 54.8969V60.3401H186.749V55.0106C186.749 54.1072 187.266 53.4935 188.146 53.4935C188.919 53.4935 189.499 53.9765 189.499 54.9481V60.3401H191.913V54.4708C191.913 52.5787 190.788 51.4992 189.163 51.4992C187.885 51.4992 186.891 52.1526 186.533 53.1526H186.442C186.163 52.1412 185.271 51.4992 184.072 51.4992C182.896 51.4992 182.004 52.1242 181.641 53.1526H181.538V51.6128H179.232V60.3401Z" fill="url(#paint19_linear)"/>
<path d="M122.966 80.3401H125.386V77.5674L126.04 76.8231L128.42 80.3401H131.256L127.852 75.3912L131.091 71.6128H128.313L125.517 74.9253H125.386V68.7037H122.966V80.3401Z" fill="url(#paint20_linear)"/>
<path d="M132.278 80.3401H134.699V71.6128H132.278V80.3401ZM133.494 70.4878C134.216 70.4878 134.807 69.9367 134.807 69.2606C134.807 68.5901 134.216 68.039 133.494 68.039C132.778 68.039 132.188 68.5901 132.188 69.2606C132.188 69.9367 132.778 70.4878 133.494 70.4878Z" fill="url(#paint21_linear)"/>
<path d="M139.058 75.2947C139.064 74.1697 139.734 73.5106 140.712 73.5106C141.683 73.5106 142.268 74.1469 142.263 75.2151V80.3401H144.683V74.7833C144.683 72.7492 143.49 71.4992 141.672 71.4992C140.376 71.4992 139.439 72.1356 139.047 73.1526H138.945V71.6128H136.638V80.3401H139.058V75.2947Z" fill="url(#paint22_linear)"/>
<path d="M149.011 75.2947C149.017 74.1697 149.705 73.5106 150.693 73.5106C151.676 73.5106 152.256 74.1412 152.25 75.2151V80.3401H154.67V74.7833C154.676 72.7378 153.472 71.4992 151.653 71.4992C150.33 71.4992 149.443 72.1242 149.045 73.1526H148.943V68.7037H146.591V80.3401H149.011V75.2947Z" fill="url(#paint23_linear)"/>
<path d="M162.699 75.2947C162.705 74.1697 163.375 73.5106 164.352 73.5106C165.324 73.5106 165.909 74.1469 165.903 75.2151V80.3401H168.324V74.7833C168.324 72.7492 167.131 71.4992 165.313 71.4992C164.017 71.4992 163.08 72.1356 162.688 73.1526H162.585V71.6128H160.278V80.3401H162.699V75.2947Z" fill="url(#paint24_linear)"/>
<path d="M174.163 83.7947C176.658 83.7947 178.43 82.6583 178.43 80.4253V71.6128H176.027V73.0787H175.936C175.612 72.3685 174.902 71.4992 173.442 71.4992C171.527 71.4992 169.908 72.9878 169.908 75.9594C169.908 78.8628 171.482 80.2151 173.447 80.2151C174.839 80.2151 175.618 79.5162 175.936 78.7947H176.038V80.3912C176.038 81.5901 175.271 82.056 174.22 82.056C173.152 82.056 172.612 81.5901 172.413 81.0617L170.175 81.3628C170.464 82.7378 171.811 83.7947 174.163 83.7947ZM174.214 78.3969C173.027 78.3969 172.379 77.4537 172.379 75.9481C172.379 74.4651 173.016 73.4253 174.214 73.4253C175.391 73.4253 176.05 74.4197 176.05 75.9481C176.05 77.4878 175.379 78.3969 174.214 78.3969Z" fill="url(#paint25_linear)"/>
<path d="M182.777 75.2947C182.783 74.1697 183.47 73.5106 184.459 73.5106C185.442 73.5106 186.021 74.1412 186.016 75.2151V80.3401H188.436V74.7833C188.442 72.7378 187.237 71.4992 185.419 71.4992C184.095 71.4992 183.209 72.1242 182.811 73.1526H182.709V68.7037H180.357V80.3401H182.777V75.2947Z" fill="url(#paint26_linear)"/>
<path d="M190.341 80.3401H192.761V71.6128H190.341V80.3401ZM191.557 70.4878C192.278 70.4878 192.869 69.9367 192.869 69.2606C192.869 68.5901 192.278 68.039 191.557 68.039C190.841 68.039 190.25 68.5901 190.25 69.2606C190.25 69.9367 190.841 70.4878 191.557 70.4878Z" fill="url(#paint27_linear)"/>
<path d="M198.678 80.5106C200.837 80.5106 202.291 79.4594 202.632 77.8401L200.393 77.6924C200.149 78.3572 199.524 78.7037 198.717 78.7037C197.507 78.7037 196.74 77.9026 196.74 76.6015V76.5958H202.683V75.931C202.683 72.9651 200.888 71.4992 198.581 71.4992C196.013 71.4992 194.348 73.3231 194.348 76.0162C194.348 78.7833 195.99 80.5106 198.678 80.5106ZM197.382 70.5787L198.524 69.1924L199.666 70.5787H201.729V70.4992L199.422 67.9992H197.621L195.32 70.4992V70.5787H197.382ZM196.74 75.0958C196.791 74.1015 197.547 73.306 198.621 73.306C199.672 73.306 200.399 74.056 200.405 75.0958H196.74ZM198.524 83.6128C199.246 83.6128 199.837 83.0617 199.837 82.3856C199.837 81.7151 199.246 81.164 198.524 81.164C197.808 81.164 197.217 81.7151 197.217 82.3856C197.217 83.0617 197.808 83.6128 198.524 83.6128Z" fill="url(#paint28_linear)"/>
<path d="M204.263 80.3401H206.683V75.1015C206.683 74.1356 207.297 73.4935 208.104 73.4935C208.899 73.4935 209.433 74.039 209.433 74.8969V80.3401H211.78V75.0106C211.78 74.1072 212.297 73.4935 213.178 73.4935C213.95 73.4935 214.53 73.9765 214.53 74.9481V80.3401H216.945V74.4708C216.945 72.5787 215.82 71.4992 214.195 71.4992C212.916 71.4992 211.922 72.1526 211.564 73.1526H211.473C211.195 72.1412 210.303 71.4992 209.104 71.4992C207.928 71.4992 207.036 72.1242 206.672 73.1526H206.57V71.6128H204.263V80.3401Z" fill="url(#paint29_linear)"/>
<path d="M131.17 62.252H134.511V54.0787H142.685V50.7377H134.511V42.5645H131.17V50.7377H122.997V54.0787H131.17V62.252Z" fill="url(#paint30_linear)"/>
<path d="M102.733 79.8172C110.574 79.8172 116.182 75.5047 116.165 69.5388C116.182 65.1923 113.42 62.09 108.29 61.4422V61.1695C112.193 60.4707 114.886 57.7093 114.869 53.7888C114.886 48.2832 110.063 43.9536 102.835 43.9536C95.6761 43.9536 90.2898 48.1468 90.1875 54.1809H97.2614C97.3466 51.5218 99.7841 49.8002 102.801 49.8002C105.784 49.8002 107.778 51.607 107.761 54.232C107.778 56.9763 105.443 58.8343 102.085 58.8343H98.8295V64.2547H102.085C106.04 64.2547 108.511 66.232 108.494 69.0445C108.511 71.8229 106.125 73.732 102.75 73.732C99.4943 73.732 97.0568 72.0275 96.9205 69.4707H89.4886C89.608 75.5729 95.0625 79.8172 102.733 79.8172Z" fill="url(#paint31_linear)"/>
<path d="M36.4545 11.3402C39.5568 11.3402 41.3963 9.42117 41.3963 6.23935C41.3963 3.06747 39.5568 1.15838 36.5241 1.15838H33.0043V5.43892H31.5376V6.57742H33.0043V11.3402H36.4545ZM34.8487 9.74432V6.57742H36.3004V5.43892H34.8487V2.75426H36.4197C38.4879 2.75426 39.5668 3.90767 39.5668 6.23935C39.5668 8.58097 38.4879 9.74432 36.3651 9.74432H34.8487Z" fill="#292D32"/>
<path d="M46.4002 11.4893C48.6374 11.4893 50.0593 9.91335 50.0593 7.55185C50.0593 5.18537 48.6374 3.6044 46.4002 3.6044C44.163 3.6044 42.7411 5.18537 42.7411 7.55185C42.7411 9.91335 44.163 11.4893 46.4002 11.4893ZM46.4102 10.0476C45.1722 10.0476 44.5657 8.94389 44.5657 7.54688C44.5657 6.14986 45.1722 5.03125 46.4102 5.03125C47.6282 5.03125 48.2347 6.14986 48.2347 7.54688C48.2347 8.94389 47.6282 10.0476 46.4102 10.0476ZM43.82 2.82884H45.3214L46.4052 1.91406L47.484 2.82884H48.9805L46.957 1.19318H45.8335L43.82 2.82884ZM48.4485 1.83452H49.5969L51.1332 0H49.5522L48.4485 1.83452Z" fill="#292D32"/>
<path d="M51.5868 11.3402H53.3865V3.70384H51.5868V11.3402ZM52.4917 2.62003C53.0634 2.62003 53.5307 2.18253 53.5307 1.6456C53.5307 1.10369 53.0634 0.666193 52.4917 0.666193C51.915 0.666193 51.4476 1.10369 51.4476 1.6456C51.4476 2.18253 51.915 2.62003 52.4917 2.62003Z" fill="#292D32"/>
<path d="M62.5231 3.70384H61.0167V1.87429H59.217V3.70384H58.1332V5.09588H59.217V9.34162C59.207 10.7784 60.2511 11.4844 61.6033 11.4446C62.1154 11.4297 62.4684 11.3303 62.6623 11.2656L62.359 9.85867C62.2596 9.88352 62.0558 9.92827 61.832 9.92827C61.3796 9.92827 61.0167 9.76918 61.0167 9.04332V5.09588H62.5231V3.70384Z" fill="#292D32"/>
<path d="M71.7044 3.31108C71.6994 4.26563 71.6149 4.77273 70.725 4.89205V3.70384H68.9252V8.12855C68.9252 9.2919 68.095 9.86861 67.2995 9.86861C66.4345 9.86861 65.8578 9.2571 65.8578 8.28764V3.70384H64.0581V8.56605C64.0581 10.4006 65.1021 11.4396 66.6035 11.4396C67.747 11.4396 68.5524 10.8381 68.9004 9.98295H68.9799V11.3402H70.725V5.80185C72.3457 5.67259 72.8578 4.82742 72.8627 3.31108H71.7044Z" fill="#292D32"/>
<path d="M80.1064 3.21662C80.1064 3.95241 80.0119 4.50426 79.6191 4.7777C78.9828 4.03196 78.0382 3.6044 76.8748 3.6044C74.6376 3.6044 73.2157 5.18537 73.2157 7.55185C73.2157 9.91335 74.6376 11.4893 76.8748 11.4893C79.112 11.4893 80.5339 9.91335 80.5339 7.55185C80.5339 6.80611 80.3947 6.13991 80.1312 5.57812C80.9565 5.19531 81.3095 4.37003 81.3095 3.21662H80.1064ZM76.8848 10.0476C75.6468 10.0476 75.0403 8.94389 75.0403 7.54688C75.0403 6.14986 75.6468 5.03125 76.8848 5.03125C78.1028 5.03125 78.7093 6.14986 78.7093 7.54688C78.7093 8.94389 78.1028 10.0476 76.8848 10.0476ZM76.8798 14.0845C77.4515 14.0845 77.9189 13.647 77.9189 13.1101C77.9189 12.5682 77.4515 12.1307 76.8798 12.1307C76.3031 12.1307 75.8358 12.5682 75.8358 13.1101C75.8358 13.647 76.3031 14.0845 76.8798 14.0845Z" fill="#292D32"/>
<path d="M84.0389 6.86577C84.0389 5.76207 84.7051 5.12571 85.6546 5.12571C86.5843 5.12571 87.1412 5.73722 87.1412 6.75639V11.3402H88.9409V6.47798C88.9458 4.64844 87.9018 3.6044 86.3258 3.6044C85.1823 3.6044 84.3968 4.15128 84.0488 5.00142H83.9593V3.70384H82.2392V11.3402H84.0389V6.86577Z" fill="#292D32"/>
<path d="M94.0914 14.3629C96.1547 14.3629 97.676 13.4183 97.676 11.4645V3.70384H95.9011V4.96662H95.8017C95.5282 4.41477 94.9565 3.6044 93.6092 3.6044C91.8443 3.6044 90.4572 4.98651 90.4572 7.49716C90.4572 9.98793 91.8443 11.2308 93.6042 11.2308C94.9118 11.2308 95.5233 10.5298 95.8017 9.96804H95.8912V11.4148C95.8912 12.5384 95.1454 13.0007 94.1213 13.0007C93.0375 13.0007 92.5602 12.4886 92.3414 12.0412L90.7207 12.4339C91.0488 13.5028 92.1475 14.3629 94.0914 14.3629ZM94.1064 9.81889C92.9181 9.81889 92.2917 8.89418 92.2917 7.48722C92.2917 6.10014 92.9082 5.08097 94.1064 5.08097C95.2647 5.08097 95.9011 6.04048 95.9011 7.48722C95.9011 8.94389 95.2548 9.81889 94.1064 9.81889Z" fill="#292D32"/>
<path d="M105.191 11.4943C106.389 11.4943 107.105 10.9325 107.433 10.2912H107.492V11.3402H109.222V6.2294C109.222 4.21094 107.577 3.6044 106.12 3.6044C104.514 3.6044 103.281 4.32031 102.884 5.71236L104.564 5.95099C104.743 5.42898 105.25 4.98153 106.13 4.98153C106.965 4.98153 107.423 5.40909 107.423 6.1598V6.18963C107.423 6.70668 106.881 6.73153 105.534 6.87571C104.052 7.0348 102.635 7.47727 102.635 9.19744C102.635 10.6989 103.734 11.4943 105.191 11.4943ZM105.658 10.1719C104.907 10.1719 104.37 9.82884 104.37 9.16761C104.37 8.47656 104.972 8.18821 105.777 8.07386C106.249 8.00923 107.194 7.88991 107.428 7.70099V8.60085C107.428 9.451 106.742 10.1719 105.658 10.1719ZM105.509 2.69957H106.856L108.382 0.427557H106.622L105.509 2.69957Z" fill="#292D32"/>
<path d="M111.032 14.2038H112.832V10.1371H112.906C113.19 10.6939 113.781 11.4744 115.094 11.4744C116.894 11.4744 118.241 10.0476 118.241 7.53196C118.241 4.98651 116.854 3.6044 115.089 3.6044C113.742 3.6044 113.18 4.41477 112.906 4.96662H112.802V3.70384H111.032V14.2038ZM112.797 7.52202C112.797 6.04048 113.433 5.08097 114.592 5.08097C115.79 5.08097 116.406 6.10014 116.406 7.52202C116.406 8.95384 115.78 9.99787 114.592 9.99787C113.443 9.99787 112.797 9.00355 112.797 7.52202Z" fill="#292D32"/>
<path d="M126.089 11.4744C127.401 11.4744 127.993 10.6939 128.276 10.1371H128.385V11.3402H130.155V1.15838H128.351V4.96662H128.276C128.003 4.41477 127.441 3.6044 126.094 3.6044C124.329 3.6044 122.942 4.98651 122.942 7.53196C122.942 10.0476 124.289 11.4744 126.089 11.4744ZM126.591 9.99787C125.403 9.99787 124.776 8.95384 124.776 7.52202C124.776 6.10014 125.393 5.08097 126.591 5.08097C127.749 5.08097 128.385 6.04048 128.385 7.52202C128.385 9.00355 127.739 9.99787 126.591 9.99787Z" fill="#292D32"/>
<path d="M136.94 8.12855C136.94 9.2919 136.11 9.86861 135.315 9.86861C134.45 9.86861 133.873 9.2571 133.873 8.28764V3.70384H132.073V8.56605C132.073 10.4006 133.117 11.4396 134.619 11.4396C135.762 11.4396 136.567 10.8381 136.915 9.98295H136.995V11.3402H138.74V3.70384H136.94V8.12855ZM135.628 14.0845C136.2 14.0845 136.667 13.647 136.667 13.1101C136.667 12.5682 136.2 12.1307 135.628 12.1307C135.051 12.1307 134.584 12.5682 134.584 13.1101C134.584 13.647 135.051 14.0845 135.628 14.0845Z" fill="#292D32"/>
<path d="M142.39 6.86577C142.39 5.76207 143.057 5.12571 144.006 5.12571C144.936 5.12571 145.493 5.73722 145.493 6.75639V11.3402H147.292V6.47798C147.297 4.64844 146.253 3.6044 144.677 3.6044C143.534 3.6044 142.748 4.15128 142.4 5.00142H142.311V3.70384H140.591V11.3402H142.39V6.86577Z" fill="#292D32"/>
<path d="M152.443 14.3629C154.506 14.3629 156.028 13.4183 156.028 11.4645V3.70384H154.253V4.96662H154.153C153.88 4.41477 153.308 3.6044 151.961 3.6044C150.196 3.6044 148.809 4.98651 148.809 7.49716C148.809 9.98793 150.196 11.2308 151.956 11.2308C153.263 11.2308 153.875 10.5298 154.153 9.96804H154.243V11.4148C154.243 12.5384 153.497 13.0007 152.473 13.0007C151.389 13.0007 150.912 12.4886 150.693 12.0412L149.072 12.4339C149.4 13.5028 150.499 14.3629 152.443 14.3629ZM152.458 9.81889C151.27 9.81889 150.643 8.89418 150.643 7.48722C150.643 6.10014 151.26 5.08097 152.458 5.08097C153.616 5.08097 154.253 6.04048 154.253 7.48722C154.253 8.94389 153.606 9.81889 152.458 9.81889Z" fill="#292D32"/>
<path fill-rule="evenodd" clip-rule="evenodd" d="M46.179 53.3667C47.2571 53.6072 47.9865 54.6859 47.8082 55.7759C46.9624 60.9473 47.2735 64.4738 48.5204 67.0872C49.743 69.6497 52.0457 71.7047 56.0174 73.568C56.3331 73.7161 57.0095 73.907 57.9767 74.0838C58.8915 74.251 59.9063 74.3781 60.79 74.4577C61.1138 74.4869 61.406 74.5084 61.6594 74.5235C62.0391 74.3248 62.4921 74.2561 62.9562 74.3597C63.134 74.3993 63.3295 74.4481 63.5105 74.5098C63.5962 74.5391 63.7386 74.5911 63.8954 74.6735C63.8973 74.6745 63.8997 74.6757 63.9027 74.6773C63.9823 74.7181 64.4643 74.9658 64.7916 75.5256C65.0153 75.9082 65.1792 76.4661 65.0344 77.0786C64.9036 77.6322 64.5819 77.9619 64.3929 78.1178C64.0622 78.3907 63.7166 78.4792 63.6343 78.5003L63.629 78.5016C63.3908 78.563 63.1581 78.5784 63.0374 78.5849C62.4919 78.6144 61.5924 78.5693 60.6516 78.4845C59.6783 78.3968 58.5414 78.2556 57.4825 78.0621C56.476 77.8781 55.3566 77.6156 54.5271 77.2265C50.0763 75.1384 46.7973 72.5065 44.9807 68.6991C43.1884 64.9428 43.0027 60.4166 43.9042 54.9049C44.0825 53.8148 45.101 53.1261 46.179 53.3667ZM62.6489 74.5458C62.6491 74.5458 62.6446 74.5463 62.6346 74.547C62.6436 74.546 62.6486 74.5457 62.6489 74.5458Z" fill="white"/>
<path fill-rule="evenodd" clip-rule="evenodd" d="M60.1398 68.5789C60.5456 67.566 61.697 67.1251 62.7116 67.5943C63.2607 67.8482 63.8191 68.1118 64.3821 68.3776C66.8632 69.5491 69.4325 70.7622 71.6792 71.3649C71.9617 71.4407 72.192 71.4994 72.3811 71.5472C72.4121 71.555 72.4431 71.5628 72.4739 71.5706C72.6184 71.607 72.7576 71.642 72.8665 71.6718C72.8697 71.6726 72.8739 71.6738 72.8791 71.6752C72.9586 71.6963 73.2614 71.7768 73.5423 71.9341L73.5472 71.9369C73.6612 72.0005 74.2667 72.3387 74.5475 73.1135C74.9102 74.1141 74.431 74.854 74.2468 75.0845C74.0678 75.3084 73.8737 75.444 73.8252 75.4779C73.8237 75.4789 73.8224 75.4799 73.8212 75.4807C73.7574 75.5254 73.6934 75.5652 73.6689 75.5804L73.6646 75.5831C73.6001 75.6232 73.5873 75.6317 73.5737 75.6417C73.5719 75.643 73.5705 75.6441 73.5694 75.6449C73.1741 76.3355 72.2606 77.4021 71.2904 78.4595C70.2606 79.5819 68.9921 80.8788 67.735 82.0902C66.4843 83.2956 65.2115 84.4487 64.1781 85.2669C63.6721 85.6675 63.1607 86.0385 62.7054 86.2911C62.4896 86.4108 62.1831 86.5631 61.8341 86.6474C61.6159 86.7001 60.6479 86.9146 59.7855 86.1451C58.9411 85.3917 58.8189 84.1131 59.5124 83.2895C59.8499 82.8886 60.3184 82.6694 60.8078 82.6367C61.0031 82.514 61.2845 82.3133 61.6517 82.0225C62.5498 81.3114 63.7249 80.2517 64.9398 79.0809C66.1484 77.9161 67.3635 76.6733 68.3367 75.6126C68.6368 75.2855 68.9011 74.9894 69.1286 74.7274C66.9631 73.9651 64.6895 72.889 62.7389 71.9657C62.2138 71.7172 61.712 71.4797 61.2421 71.2624C60.2276 70.7933 59.734 69.5918 60.1398 68.5789ZM60.6123 82.748C60.6123 82.748 60.6135 82.7474 60.6158 82.7465C60.6135 82.7475 60.6123 82.748 60.6123 82.748Z" fill="white"/>
<defs>
<filter id="filter0_d" x="0.0353336" y="12.7153" width="235.983" height="52.0284" filterUnits="userSpaceOnUse" color-interpolation-filters="sRGB">
<feFlood flood-opacity="0" result="BackgroundImageFix"/>
<feColorMatrix in="SourceAlpha" type="matrix" values="0 0 0 0 0 0 0 0 0 0 0 0 0 0 0 0 0 0 127 0" result="hardAlpha"/>
<feOffset dy="8"/>
<feGaussianBlur stdDeviation="8"/>
<feComposite in2="hardAlpha" operator="out"/>
<feColorMatrix type="matrix" values="0 0 0 0 0 0 0 0 0 0 0 0 0 0 0 0 0 0 0.08 0"/>
<feBlend mode="normal" in2="BackgroundImageFix" result="effect1_dropShadow"/>
<feBlend mode="normal" in="SourceGraphic" in2="effect1_dropShadow" result="shape"/>
</filter>
<linearGradient id="paint0_linear" x1="26.9632" y1="9.34034" x2="100.198" y2="73.4466" gradientUnits="userSpaceOnUse">
<stop stop-color="#D6E0E2"/>
<stop offset="1" stop-color="#E8EAEC"/>
</linearGradient>
<linearGradient id="paint1_linear" x1="26.9632" y1="9.34034" x2="100.198" y2="73.4466" gradientUnits="userSpaceOnUse">
<stop stop-color="#D6E0E2"/>
<stop offset="1" stop-color="#E8EAEC"/>
</linearGradient>
<linearGradient id="paint2_linear" x1="26.9632" y1="9.34034" x2="100.198" y2="73.4466" gradientUnits="userSpaceOnUse">
<stop stop-color="#D6E0E2"/>
<stop offset="1" stop-color="#E8EAEC"/>
</linearGradient>
<linearGradient id="paint3_linear" x1="26.9632" y1="9.34034" x2="100.198" y2="73.4466" gradientUnits="userSpaceOnUse">
<stop stop-color="#D6E0E2"/>
<stop offset="1" stop-color="#E8EAEC"/>
</linearGradient>
<linearGradient id="paint4_linear" x1="26.9632" y1="9.34034" x2="100.198" y2="73.4466" gradientUnits="userSpaceOnUse">
<stop stop-color="#D6E0E2"/>
<stop offset="1" stop-color="#E8EAEC"/>
</linearGradient>
<linearGradient id="paint5_linear" x1="26.9632" y1="9.34034" x2="100.198" y2="73.4466" gradientUnits="userSpaceOnUse">
<stop stop-color="#D6E0E2"/>
<stop offset="1" stop-color="#E8EAEC"/>
</linearGradient>
<linearGradient id="paint6_linear" x1="26.9632" y1="9.34034" x2="100.198" y2="73.4466" gradientUnits="userSpaceOnUse">
<stop stop-color="#D6E0E2"/>
<stop offset="1" stop-color="#E8EAEC"/>
</linearGradient>
<linearGradient id="paint7_linear" x1="26.9632" y1="9.34034" x2="100.198" y2="73.4466" gradientUnits="userSpaceOnUse">
<stop stop-color="#D6E0E2"/>
<stop offset="1" stop-color="#E8EAEC"/>
</linearGradient>
<linearGradient id="paint8_linear" x1="26.9632" y1="9.34034" x2="100.198" y2="73.4466" gradientUnits="userSpaceOnUse">
<stop stop-color="#D6E0E2"/>
<stop offset="1" stop-color="#E8EAEC"/>
</linearGradient>
<linearGradient id="paint9_linear" x1="26.9632" y1="9.34034" x2="100.198" y2="73.4466" gradientUnits="userSpaceOnUse">
<stop stop-color="#D6E0E2"/>
<stop offset="1" stop-color="#E8EAEC"/>
</linearGradient>
<linearGradient id="paint10_linear" x1="26.9632" y1="9.34034" x2="100.198" y2="73.4466" gradientUnits="userSpaceOnUse">
<stop stop-color="#D6E0E2"/>
<stop offset="1" stop-color="#E8EAEC"/>
</linearGradient>
<linearGradient id="paint11_linear" x1="26.9632" y1="9.34034" x2="100.198" y2="73.4466" gradientUnits="userSpaceOnUse">
<stop stop-color="#D6E0E2"/>
<stop offset="1" stop-color="#E8EAEC"/>
</linearGradient>
<linearGradient id="paint12_linear" x1="26.9632" y1="9.34034" x2="100.198" y2="73.4466" gradientUnits="userSpaceOnUse">
<stop stop-color="#D6E0E2"/>
<stop offset="1" stop-color="#E8EAEC"/>
</linearGradient>
<linearGradient id="paint13_linear" x1="26.9632" y1="9.34034" x2="100.198" y2="73.4466" gradientUnits="userSpaceOnUse">
<stop stop-color="#D6E0E2"/>
<stop offset="1" stop-color="#E8EAEC"/>
</linearGradient>
<linearGradient id="paint14_linear" x1="26.9632" y1="9.34034" x2="100.198" y2="73.4466" gradientUnits="userSpaceOnUse">
<stop stop-color="#D6E0E2"/>
<stop offset="1" stop-color="#E8EAEC"/>
</linearGradient>
<linearGradient id="paint15_linear" x1="26.9632" y1="9.34034" x2="100.198" y2="73.4466" gradientUnits="userSpaceOnUse">
<stop stop-color="#D6E0E2"/>
<stop offset="1" stop-color="#E8EAEC"/>
</linearGradient>
<linearGradient id="paint16_linear" x1="26.9632" y1="9.34034" x2="100.198" y2="73.4466" gradientUnits="userSpaceOnUse">
<stop stop-color="#D6E0E2"/>
<stop offset="1" stop-color="#E8EAEC"/>
</linearGradient>
<linearGradient id="paint17_linear" x1="146.753" y1="51.3616" x2="197.255" y2="79.7855" gradientUnits="userSpaceOnUse">
<stop stop-color="#ECEFF0"/>
<stop offset="1" stop-color="white"/>
</linearGradient>
<linearGradient id="paint18_linear" x1="146.753" y1="51.3616" x2="197.255" y2="79.7855" gradientUnits="userSpaceOnUse">
<stop stop-color="#ECEFF0"/>
<stop offset="1" stop-color="white"/>
</linearGradient>
<linearGradient id="paint19_linear" x1="146.753" y1="51.3616" x2="197.255" y2="79.7855" gradientUnits="userSpaceOnUse">
<stop stop-color="#ECEFF0"/>
<stop offset="1" stop-color="white"/>
</linearGradient>
<linearGradient id="paint20_linear" x1="146.753" y1="51.3616" x2="197.255" y2="79.7855" gradientUnits="userSpaceOnUse">
<stop stop-color="#ECEFF0"/>
<stop offset="1" stop-color="white"/>
</linearGradient>
<linearGradient id="paint21_linear" x1="146.753" y1="51.3616" x2="197.255" y2="79.7855" gradientUnits="userSpaceOnUse">
<stop stop-color="#ECEFF0"/>
<stop offset="1" stop-color="white"/>
</linearGradient>
<linearGradient id="paint22_linear" x1="146.753" y1="51.3616" x2="197.255" y2="79.7855" gradientUnits="userSpaceOnUse">
<stop stop-color="#ECEFF0"/>
<stop offset="1" stop-color="white"/>
</linearGradient>
<linearGradient id="paint23_linear" x1="146.753" y1="51.3616" x2="197.255" y2="79.7855" gradientUnits="userSpaceOnUse">
<stop stop-color="#ECEFF0"/>
<stop offset="1" stop-color="white"/>
</linearGradient>
<linearGradient id="paint24_linear" x1="146.753" y1="51.3616" x2="197.255" y2="79.7855" gradientUnits="userSpaceOnUse">
<stop stop-color="#ECEFF0"/>
<stop offset="1" stop-color="white"/>
</linearGradient>
<linearGradient id="paint25_linear" x1="146.753" y1="51.3616" x2="197.255" y2="79.7855" gradientUnits="userSpaceOnUse">
<stop stop-color="#ECEFF0"/>
<stop offset="1" stop-color="white"/>
</linearGradient>
<linearGradient id="paint26_linear" x1="146.753" y1="51.3616" x2="197.255" y2="79.7855" gradientUnits="userSpaceOnUse">
<stop stop-color="#ECEFF0"/>
<stop offset="1" stop-color="white"/>
</linearGradient>
<linearGradient id="paint27_linear" x1="146.753" y1="51.3616" x2="197.255" y2="79.7855" gradientUnits="userSpaceOnUse">
<stop stop-color="#ECEFF0"/>
<stop offset="1" stop-color="white"/>
</linearGradient>
<linearGradient id="paint28_linear" x1="146.753" y1="51.3616" x2="197.255" y2="79.7855" gradientUnits="userSpaceOnUse">
<stop stop-color="#ECEFF0"/>
<stop offset="1" stop-color="white"/>
</linearGradient>
<linearGradient id="paint29_linear" x1="146.753" y1="51.3616" x2="197.255" y2="79.7855" gradientUnits="userSpaceOnUse">
<stop stop-color="#ECEFF0"/>
<stop offset="1" stop-color="white"/>
</linearGradient>
<linearGradient id="paint30_linear" x1="125.795" y1="32.292" x2="143.786" y2="34.472" gradientUnits="userSpaceOnUse">
<stop stop-color="#ECEFF0"/>
<stop offset="1" stop-color="white"/>
</linearGradient>
<linearGradient id="paint31_linear" x1="111.753" y1="43.5207" x2="169.546" y2="65.9532" gradientUnits="userSpaceOnUse">
<stop stop-color="#ECEFF0"/>
<stop offset="1" stop-color="white"/>
</linearGradient>
</defs>
</svg>
