<svg width="337" height="96" viewBox="0 0 337 96" fill="none" xmlns="http://www.w3.org/2000/svg">
<path d="M8.40554 33.5078H10.6875C10.6428 31.2962 8.7571 29.7301 5.97017 29.7301C3.22159 29.7301 1.15696 31.277 1.16335 33.5909C1.16335 35.4702 2.49929 36.5504 4.65341 37.1065L6.14276 37.4901C7.5554 37.848 8.48864 38.2891 8.49503 39.3054C8.48864 40.424 7.42756 41.1719 5.88068 41.1719C4.39773 41.1719 3.24716 40.5071 3.15128 39.1328H0.818182C0.914062 41.7344 2.85085 43.1982 5.89986 43.1982C9.03835 43.1982 10.8601 41.6321 10.8665 39.3246C10.8601 37.0554 8.98722 36.0199 7.01847 35.5533L5.79119 35.2464C4.71733 34.9908 3.55398 34.5369 3.56676 33.4439C3.57315 32.4595 4.45526 31.7372 5.93821 31.7372C7.35085 31.7372 8.28409 32.3956 8.40554 33.5078ZM17.161 43.1918C20.0375 43.1918 21.8656 41.1655 21.8656 38.1293C21.8656 35.0866 20.0375 33.054 17.161 33.054C14.2846 33.054 12.4565 35.0866 12.4565 38.1293C12.4565 41.1655 14.2846 43.1918 17.161 43.1918ZM17.1738 41.3381C15.5822 41.3381 14.8024 39.919 14.8024 38.1229C14.8024 36.3267 15.5822 34.8885 17.1738 34.8885C18.7399 34.8885 19.5197 36.3267 19.5197 38.1229C19.5197 39.919 18.7399 41.3381 17.1738 41.3381ZM13.8436 32.0568H15.774L17.1674 30.8807L18.5545 32.0568H20.4785L17.877 29.9538H16.4324L13.8436 32.0568ZM19.7946 30.7784H21.2711L23.2463 28.4197H21.2136L19.7946 30.7784ZM33.1971 33.1818H31.2603V30.8295H28.9464V33.1818H27.5529V34.9716H28.9464V40.4304C28.9336 42.2777 30.2759 43.1854 32.0146 43.1342C32.6729 43.1151 33.1268 42.9872 33.3761 42.9041L32.9862 41.0952C32.8583 41.1271 32.5962 41.1847 32.3086 41.1847C31.7269 41.1847 31.2603 40.9801 31.2603 40.0469V34.9716H33.1971V33.1818ZM35.1323 43H37.4462V33.1818H35.1323V43ZM36.2956 31.7884C37.0307 31.7884 37.6316 31.2259 37.6316 30.5355C37.6316 29.8388 37.0307 29.2763 36.2956 29.2763C35.5542 29.2763 34.9533 29.8388 34.9533 30.5355C34.9533 31.2259 35.5542 31.7884 36.2956 31.7884ZM44.1722 43.1918C46.4606 43.1918 48.033 42.0732 48.4421 40.3665L46.2816 40.1236C45.9684 40.9545 45.2013 41.3892 44.2042 41.3892C42.7085 41.3892 41.7177 40.4048 41.6985 38.7237H48.538V38.0142C48.538 34.5689 46.467 33.054 44.0508 33.054C41.2383 33.054 39.4038 35.1186 39.4038 38.1484C39.4038 41.2294 41.2127 43.1918 44.1722 43.1918ZM41.7049 37.1641C41.7752 35.9112 42.7021 34.8565 44.0827 34.8565C45.4123 34.8565 46.3072 35.8281 46.32 37.1641H41.7049ZM44.6964 29.9922H43.2454L40.6758 32.0952H42.587L43.9869 30.919L45.3675 32.0952H47.2915L44.6964 29.9922ZM39.9279 28.4517H37.9016L39.896 30.8168H41.3406L39.9279 28.4517ZM52.8095 37.2472C52.8095 35.8281 53.666 35.0099 54.8869 35.0099C56.0822 35.0099 56.7981 35.7962 56.7981 37.1065V43H59.112V36.7486C59.1184 34.3963 57.7761 33.054 55.7498 33.054C54.2797 33.054 53.2697 33.7571 52.8223 34.8501H52.7072V33.1818H50.4956V43H52.8095V37.2472ZM68.2431 29.9091H65.9292V43H68.2431V29.9091ZM73.4478 43.1982C74.9883 43.1982 75.9087 42.4759 76.3306 41.6513H76.4073V43H78.6317V36.429C78.6317 33.8338 76.516 33.054 74.6431 33.054C72.5785 33.054 70.9933 33.9744 70.4819 35.7642L72.6424 36.071C72.8725 35.3999 73.5245 34.8246 74.6559 34.8246C75.7298 34.8246 76.3178 35.3743 76.3178 36.3395V36.3778C76.3178 37.0426 75.6211 37.0746 73.8888 37.2599C71.984 37.4645 70.1623 38.0334 70.1623 40.245C70.1623 42.1754 71.5749 43.1982 73.4478 43.1982ZM72.8661 31.9865C72.8661 31.4048 73.1857 31.0149 73.6396 31.0149C74.0231 31.0149 74.2852 31.2003 74.5664 31.4048C74.918 31.6541 75.3079 31.929 75.9854 31.9226C77.1232 31.9162 78.0117 31.0341 78.0245 29.5128L76.6502 29.4553C76.6438 30.0241 76.337 30.4332 75.8512 30.4332C75.4805 30.4332 75.1928 30.2415 74.8796 30.0369C74.5089 29.794 74.1062 29.5256 73.5053 29.5256C72.3612 29.5256 71.4663 30.4332 71.4663 31.9545L72.8661 31.9865ZM74.0487 41.4979C73.0835 41.4979 72.3931 41.0568 72.3931 40.2067C72.3931 39.3182 73.1665 38.9474 74.2021 38.8004C74.8093 38.7173 76.0238 38.5639 76.3242 38.321V39.478C76.3242 40.571 75.4421 41.4979 74.0487 41.4979ZM80.9585 43H83.2724V33.1818H80.9585V43ZM82.1218 31.7884C82.8569 31.7884 83.4577 31.2259 83.4577 30.5355C83.4577 29.8388 82.8569 29.2763 82.1218 29.2763C81.3803 29.2763 80.7795 29.8388 80.7795 30.5355C80.7795 31.2259 81.3803 31.7884 82.1218 31.7884ZM94.3993 43.1918C96.8667 43.1918 98.4391 41.728 98.6053 39.6442H96.3936C96.1955 40.6989 95.4348 41.3061 94.4185 41.3061C92.9739 41.3061 92.0407 40.098 92.0407 38.0909C92.0407 36.1094 92.9931 34.9205 94.4185 34.9205C95.5307 34.9205 96.2147 35.6364 96.3936 36.5824H98.6053C98.4455 34.4538 96.7836 33.054 94.3865 33.054C91.5101 33.054 89.6948 35.1314 89.6948 38.1293C89.6948 41.1016 91.4654 43.1918 94.3993 43.1918ZM104.788 43.1918C107.664 43.1918 109.493 41.1655 109.493 38.1293C109.493 35.0866 107.664 33.054 104.788 33.054C101.912 33.054 100.083 35.0866 100.083 38.1293C100.083 41.1655 101.912 43.1918 104.788 43.1918ZM104.801 41.3381C103.209 41.3381 102.429 39.919 102.429 38.1229C102.429 36.3267 103.209 34.8885 104.801 34.8885C106.367 34.8885 107.147 36.3267 107.147 38.1229C107.147 39.919 106.367 41.3381 104.801 41.3381ZM103.944 31.8906H105.676L104.251 28.9695H101.982L103.944 31.8906ZM113.77 37.2472C113.77 35.8281 114.627 35.0099 115.848 35.0099C117.043 35.0099 117.759 35.7962 117.759 37.1065V43H120.073V36.7486C120.079 34.3963 118.737 33.054 116.711 33.054C115.241 33.054 114.231 33.7571 113.783 34.8501H113.668V33.1818H111.456V43H113.77V37.2472ZM3.50284 53.9091H1.18892V67H3.50284V53.9091ZM8.70756 67.1982C10.248 67.1982 11.1685 66.4759 11.5904 65.6513H11.6671V67H13.8915V60.429C13.8915 57.8338 11.7757 57.054 9.90288 57.054C7.83825 57.054 6.25302 57.9744 5.74165 59.7642L7.90217 60.071C8.13228 59.3999 8.78427 58.8246 9.91566 58.8246C10.9895 58.8246 11.5776 59.3743 11.5776 60.3395V60.3778C11.5776 61.0426 10.8809 61.0746 9.14862 61.2599C7.24379 61.4645 5.42205 62.0334 5.42205 64.245C5.42205 66.1754 6.83469 67.1982 8.70756 67.1982ZM9.30842 65.4979C8.34322 65.4979 7.65288 65.0568 7.65288 64.2067C7.65288 63.3182 8.42631 62.9474 9.46183 62.8004C10.0691 62.7173 11.2836 62.5639 11.584 62.321V63.478C11.584 64.571 10.7019 65.4979 9.30842 65.4979ZM9.91566 70.5284C10.6507 70.5284 11.2516 69.9659 11.2516 69.2756C11.2516 68.5788 10.6507 68.0163 9.91566 68.0163C9.17418 68.0163 8.57333 68.5788 8.57333 69.2756C8.57333 69.9659 9.17418 70.5284 9.91566 70.5284ZM16.2182 67H18.5321V57.1818H16.2182V67ZM17.3816 55.7884C18.1167 55.7884 18.7175 55.2259 18.7175 54.5355C18.7175 53.8388 18.1167 53.2763 17.3816 53.2763C16.6401 53.2763 16.0392 53.8388 16.0392 54.5355C16.0392 55.2259 16.6401 55.7884 17.3816 55.7884ZM25.3764 70.6818H27.6903V65.4531H27.7862C28.1506 66.169 28.9112 67.1726 30.5987 67.1726C32.9126 67.1726 34.6449 65.3381 34.6449 62.1037C34.6449 58.831 32.8615 57.054 30.5923 57.054C28.8601 57.054 28.1378 58.0959 27.7862 58.8054H27.652V57.1818H25.3764V70.6818ZM27.6456 62.0909C27.6456 60.1861 28.4638 58.9524 29.9531 58.9524C31.4936 58.9524 32.2862 60.2628 32.2862 62.0909C32.2862 63.9318 31.4808 65.2741 29.9531 65.2741C28.4766 65.2741 27.6456 63.9957 27.6456 62.0909ZM38.9403 61.2472C38.9403 59.8281 39.8224 59.0099 41.0625 59.0099C42.277 59.0099 42.9929 59.7834 42.9929 61.1065V67H45.3068V60.7486C45.3068 58.3771 43.9645 57.054 41.9254 57.054C40.4169 57.054 39.4581 57.7379 39.0043 58.8501H38.8892V53.9091H36.6264V67H38.9403V61.2472ZM50.4908 67.1982C52.0312 67.1982 52.9517 66.4759 53.3736 65.6513H53.4503V67H55.6747V60.429C55.6747 57.8338 53.5589 57.054 51.6861 57.054C49.6214 57.054 48.0362 57.9744 47.5249 59.7642L49.6854 60.071C49.9155 59.3999 50.5675 58.8246 51.6989 58.8246C52.7727 58.8246 53.3608 59.3743 53.3608 60.3395V60.3778C53.3608 61.0426 52.6641 61.0746 50.9318 61.2599C49.027 61.4645 47.2053 62.0334 47.2053 64.245C47.2053 66.1754 48.6179 67.1982 50.4908 67.1982ZM51.0916 65.4979C50.1264 65.4979 49.4361 65.0568 49.4361 64.2067C49.4361 63.3182 50.2095 62.9474 51.245 62.8004C51.8523 62.7173 53.0668 62.5639 53.3672 62.321V63.478C53.3672 64.571 52.4851 65.4979 51.0916 65.4979ZM52.6768 55.8011V55.2131C53.3608 55.1108 54.032 54.7464 54.0256 53.9347C54.032 52.8736 52.9197 52.2216 50.8104 52.2216L50.7528 53.3658C51.4943 53.3658 52.0632 53.5192 52.0568 53.9794C52.0632 54.3374 51.7244 54.5355 50.8232 54.5739L50.9126 55.8011H52.6768ZM58.0014 67H60.3153V57.1818H58.0014V67ZM59.1648 55.7884C59.8999 55.7884 60.5007 55.2259 60.5007 54.5355C60.5007 53.8388 59.8999 53.2763 59.1648 53.2763C58.4233 53.2763 57.8224 53.8388 57.8224 54.5355C57.8224 55.2259 58.4233 55.7884 59.1648 55.7884ZM72.0623 57.1818H70.1255V54.8295H67.8116V57.1818H66.4181V58.9716H67.8116V64.4304C67.7988 66.2777 69.1412 67.1854 70.8798 67.1342C71.5382 67.1151 71.992 66.9872 72.2413 66.9041L71.8514 65.0952C71.7235 65.1271 71.4615 65.1847 71.1738 65.1847C70.5922 65.1847 70.1255 64.9801 70.1255 64.0469V58.9716H72.0623V57.1818ZM73.9975 67H76.3114V61.228C76.3114 59.9815 77.2511 59.0994 78.5231 59.0994C78.913 59.0994 79.3988 59.1697 79.5969 59.2337V57.1051C79.386 57.0668 79.0217 57.0412 78.766 57.0412C77.641 57.0412 76.7013 57.6804 76.3434 58.8182H76.2411V57.1818H73.9975V67ZM83.7662 67.1982C85.3066 67.1982 86.2271 66.4759 86.649 65.6513H86.7257V67H88.9501V60.429C88.9501 57.8338 86.8343 57.054 84.9615 57.054C82.8968 57.054 81.3116 57.9744 80.8002 59.7642L82.9608 60.071C83.1909 59.3999 83.8429 58.8246 84.9743 58.8246C86.0481 58.8246 86.6362 59.3743 86.6362 60.3395V60.3778C86.6362 61.0426 85.9395 61.0746 84.2072 61.2599C82.3024 61.4645 80.4806 62.0334 80.4806 64.245C80.4806 66.1754 81.8933 67.1982 83.7662 67.1982ZM84.367 65.4979C83.4018 65.4979 82.7115 65.0568 82.7115 64.2067C82.7115 63.3182 83.4849 62.9474 84.5204 62.8004C85.1277 62.7173 86.3422 62.5639 86.6426 62.321V63.478C86.6426 64.571 85.7605 65.4979 84.367 65.4979ZM85.9522 55.8011V55.2131C86.6362 55.1108 87.3074 54.7464 87.301 53.9347C87.3074 52.8736 86.1951 52.2216 84.0858 52.2216L84.0282 53.3658C84.7697 53.3658 85.3386 53.5192 85.3322 53.9794C85.3386 54.3374 84.9998 54.5355 84.0985 54.5739L84.188 55.8011H85.9522Z" fill="white"/>
<path d="M171.437 50.3707C174.339 50.3707 176.218 49.1051 177.177 47.277H177.33V50H182.495V36.7557C182.495 32.0767 178.532 30.108 174.16 30.108C169.455 30.108 166.362 32.358 165.607 35.9375L170.644 36.3466C171.015 35.0426 172.178 34.0838 174.134 34.0838C175.988 34.0838 177.049 35.017 177.049 36.6278V36.7045C177.049 37.9702 175.707 38.1364 172.293 38.4688C168.407 38.8267 164.917 40.1307 164.917 44.5156C164.917 48.402 167.691 50.3707 171.437 50.3707ZM172.996 46.6122C171.322 46.6122 170.12 45.8324 170.12 44.3366C170.12 42.8026 171.386 42.0483 173.303 41.7798C174.492 41.6136 176.435 41.3324 177.087 40.8977V42.9815C177.087 45.0398 175.387 46.6122 172.996 46.6122ZM201 45.0909C201.013 48.2358 203.02 50.9077 206.766 50.9077C210.473 50.9077 212.544 48.2358 212.531 45.0909V43.7102C212.544 40.5398 210.524 37.8935 206.766 37.8935C203.071 37.8935 201.013 40.5653 201 43.7102V45.0909ZM187.564 30.108C187.577 33.2528 189.584 35.8991 193.317 35.8991C197.037 35.8991 199.108 33.2784 199.095 30.108V28.7273C199.108 25.5568 197.088 22.9105 193.317 22.9105C189.661 22.9105 187.577 25.5568 187.564 28.7273V30.108ZM188.817 50H192.153L210.153 23.8182H206.817L188.817 50ZM204.72 43.7102C204.733 42.4574 205.232 41.1662 206.766 41.1662C208.376 41.1662 208.798 42.4574 208.786 43.7102V45.0909C208.798 46.3438 208.325 47.6094 206.766 47.6094C205.206 47.6094 204.733 46.3054 204.72 45.0909V43.7102ZM191.31 28.7273C191.322 27.5128 191.795 26.1832 193.317 26.1832C194.928 26.1832 195.362 27.4744 195.349 28.7273V30.108C195.362 31.3608 194.876 32.6264 193.317 32.6264C191.808 32.6264 191.322 31.3608 191.31 30.108V28.7273ZM229.892 34.7486H217.952V39.0696H229.892V34.7486ZM234.085 45.3977H246.652V50H251.945V45.3977H255.192V40.9616H251.945V23.8182H245.016L234.085 41.0384V45.3977ZM246.754 40.9616H239.659V40.7571L246.55 29.8523H246.754V40.9616ZM273.211 45.0909C273.224 48.2358 275.231 50.9077 278.977 50.9077C282.684 50.9077 284.755 48.2358 284.742 45.0909V43.7102C284.755 40.5398 282.735 37.8935 278.977 37.8935C275.282 37.8935 273.224 40.5653 273.211 43.7102V45.0909ZM259.775 30.108C259.788 33.2528 261.795 35.8991 265.528 35.8991C269.248 35.8991 271.319 33.2784 271.306 30.108V28.7273C271.319 25.5568 269.299 22.9105 265.528 22.9105C261.871 22.9105 259.788 25.5568 259.775 28.7273V30.108ZM261.028 50H264.364L282.364 23.8182H279.028L261.028 50ZM276.931 43.7102C276.944 42.4574 277.442 41.1662 278.977 41.1662C280.587 41.1662 281.009 42.4574 280.996 43.7102V45.0909C281.009 46.3438 280.536 47.6094 278.977 47.6094C277.417 47.6094 276.944 46.3054 276.931 45.0909V43.7102ZM263.521 28.7273C263.533 27.5128 264.006 26.1832 265.528 26.1832C267.138 26.1832 267.573 27.4744 267.56 28.7273V30.108C267.573 31.3608 267.087 32.6264 265.528 32.6264C264.019 32.6264 263.533 31.3608 263.521 30.108V28.7273Z" fill="url(#paint0_linear)"/>
<path d="M134 35.6361C139.648 35.5159 145.219 34.6439 150.867 34.6439" stroke="white" stroke-width="4" stroke-linecap="round"/>
<path d="M134 44.5659H151.86" stroke="white" stroke-width="4" stroke-linecap="round"/>
<defs>
<linearGradient id="paint0_linear" x1="197.962" y1="22.7234" x2="262.859" y2="91.0867" gradientUnits="userSpaceOnUse">
<stop stop-color="#ECEFF0"/>
<stop offset="1" stop-color="white"/>
</linearGradient>
</defs>
</svg>
