<svg width="323" height="92" viewBox="0 0 323 92" fill="none" xmlns="http://www.w3.org/2000/svg">
<path d="M34.1063 9.90909H31.8563V6.77273H27.1517V9.90909H25.4813V13.3182H27.1517V19.233C27.1176 21.9773 28.8136 23.3665 32.0608 23.1875C33.1261 23.1278 33.9188 22.9062 34.3449 22.7784L33.6631 19.4716C33.4841 19.5142 33.0239 19.608 32.7426 19.608C32.129 19.608 31.8563 19.3352 31.8563 18.7898V13.3182H34.1063V9.90909ZM39.9137 23.2045C41.6183 23.2045 42.9052 22.625 43.6978 21.1591H43.8001V23H48.1978V14.0341C48.1978 11.6136 45.9052 9.73864 42.1637 9.73864C38.2518 9.73864 36.3257 11.7841 36.1637 14.1705H40.4933C40.6041 13.3608 41.2007 12.9773 42.0955 12.9773C42.9137 12.9773 43.4933 13.3523 43.4933 14.0341V14.0682C43.4933 14.8267 42.658 15.0653 40.4592 15.2273C37.7575 15.4233 35.6524 16.5142 35.6524 19.3864C35.6524 21.9943 37.408 23.2045 39.9137 23.2045ZM40.6296 8.35795L42.3001 6.48295L43.9705 8.35795H47.8569V8.25568L43.9364 4.36932H40.6637L36.7433 8.25568V8.35795H40.6296ZM42.1296 28.2841C43.408 28.2841 44.4478 27.321 44.4478 26.1364C44.4478 24.9517 43.408 23.9886 42.1296 23.9886C40.8512 23.9886 39.8114 24.9517 39.8114 26.1364C39.8114 27.321 40.8512 28.2841 42.1296 28.2841ZM41.4478 20.2386C40.6467 20.2386 40.0842 19.8466 40.0842 19.1136C40.0842 18.4403 40.5614 17.9205 41.6524 17.75C42.4024 17.6307 43.033 17.4773 43.5274 17.2727V18.3636C43.5274 19.5568 42.5132 20.2386 41.4478 20.2386ZM59.1743 17.2727C59.1828 18.5682 58.4328 19.3523 57.2652 19.3523C56.0806 19.3523 55.3988 18.5682 55.3902 17.2727V9.90909H50.6857V18.2614C50.6942 21.125 52.501 23.1705 55.2539 23.1705C57.2056 23.1705 58.7056 22.1818 59.2766 20.5114H59.413V23H63.8789V9.90909H59.1743V17.2727ZM76.5442 5.54545H71.2261L76.4079 14.2727L71.0556 23H76.442L79.4079 17.8182H79.5442L82.5101 23H87.9306L82.5101 14.2727L87.7261 5.54545H82.442L79.5442 10.625H79.4079L76.5442 5.54545ZM90.0094 23H102.555V19.1818H94.748V16.1818H101.941V12.3636H94.748V9.36364H102.589V5.54545H90.0094V23ZM109.815 20.6136H106.27V21.5682C106.27 23.8864 105.486 26.3153 105.213 27.2614H108.111C108.52 26.3153 109.568 24.0312 109.747 21.5682L109.815 20.6136ZM116.79 23H121.494V15.3636C121.494 14.2216 122.091 13.5227 123.062 13.5227C124.034 13.5227 124.665 14.2216 124.665 15.3636V23H129.165V15.3636C129.165 14.2216 129.761 13.5227 130.733 13.5227C131.705 13.5227 132.335 14.2216 132.335 15.3636V23H137.04V14.1705C137.04 11.4858 135.318 9.73864 132.812 9.73864C130.869 9.73864 129.301 10.7955 128.858 12.3977H128.722C128.449 10.7955 126.983 9.73864 125.142 9.73864C123.327 9.73864 121.937 10.7614 121.392 12.3977H121.256V9.90909H116.79V23ZM148.089 17.2727C148.097 18.5682 147.347 19.3523 146.18 19.3523C144.995 19.3523 144.313 18.5682 144.305 17.2727V9.90909H139.6V18.2614C139.609 21.125 141.415 23.1705 144.168 23.1705C146.12 23.1705 147.62 22.1818 148.191 20.5114H148.327V23H152.793V9.90909H148.089V17.2727ZM159.074 23.2045C160.778 23.2045 162.065 22.625 162.858 21.1591H162.96V23H167.358V14.0341C167.358 11.6136 165.065 9.73864 161.324 9.73864C157.412 9.73864 155.486 11.7841 155.324 14.1705H159.653C159.764 13.3608 160.361 12.9773 161.256 12.9773C162.074 12.9773 162.653 13.3523 162.653 14.0341V14.0682C162.653 14.8267 161.818 15.0653 159.619 15.2273C156.917 15.4233 154.812 16.5142 154.812 19.3864C154.812 21.9943 156.568 23.2045 159.074 23.2045ZM160.608 20.2386C159.807 20.2386 159.244 19.8466 159.244 19.1136C159.244 18.4403 159.721 17.9205 160.812 17.75C161.562 17.6307 162.193 17.4773 162.687 17.2727V18.3636C162.687 19.5568 161.673 20.2386 160.608 20.2386ZM189.901 5.54545H185.162V14.6818H185.026L178.821 5.54545H174.799V23H179.537V13.8295H179.64L185.946 23H189.901V5.54545ZM192.383 23H197.121V16.1818H203.394V23H208.133V5.54545H203.394V12.3636H197.121V5.54545H192.383V23ZM215.157 23L216.162 19.6591H221.924L222.929 23H228.043L222.282 5.54545H215.804L210.043 23H215.157ZM217.509 3.90909H220.611L218.975 0.0909081H214.952L217.509 3.90909ZM217.236 16.1136L218.975 10.3523H219.111L220.85 16.1136H217.236Z" fill="url(#paint0_linear)"/>
<path d="M197.81 37.9091H195.087V51H197.81V37.9091ZM203.511 51.1854C204.962 51.1854 205.901 50.5526 206.381 49.6385H206.457V51H209.04V44.3778C209.04 42.0384 207.058 41.054 204.872 41.054C202.52 41.054 200.973 42.179 200.596 43.9688L203.114 44.1733C203.3 43.5213 203.881 43.0419 204.859 43.0419C205.786 43.0419 206.317 43.5085 206.317 44.3139V44.3523C206.317 44.9851 205.646 45.0682 203.939 45.2344C201.996 45.4134 200.251 46.0653 200.251 48.2578C200.251 50.201 201.638 51.1854 203.511 51.1854ZM203.146 39.9737C203.146 39.3793 203.44 39.0021 203.881 39.0021C204.22 39.0021 204.476 39.1875 204.757 39.3984C205.115 39.6605 205.524 39.9673 206.24 39.9609C207.397 39.9545 208.305 39.0533 208.317 37.4361L206.828 37.3913C206.822 37.9794 206.56 38.3757 206.067 38.3821C205.748 38.3821 205.479 38.1967 205.185 37.9858C204.802 37.7237 204.374 37.4169 203.709 37.4233C202.545 37.4297 201.631 38.331 201.631 39.9545L203.146 39.9737ZM204.29 49.3061C203.453 49.3061 202.852 48.9162 202.852 48.1683C202.852 47.4013 203.485 47.0241 204.444 46.8899C205.038 46.8068 206.01 46.6662 206.336 46.4489V47.4908C206.336 48.5199 205.486 49.3061 204.29 49.3061ZM211.872 51H214.595V41.1818H211.872V51ZM213.24 39.9162C214.052 39.9162 214.717 39.2962 214.717 38.5355C214.717 37.7812 214.052 37.1612 213.24 37.1612C212.435 37.1612 211.77 37.7812 211.77 38.5355C211.77 39.2962 212.435 39.9162 213.24 39.9162ZM230.552 43.9815C230.309 42.1726 228.851 41.054 226.371 41.054C223.859 41.054 222.204 42.2173 222.21 44.1094C222.204 45.5795 223.131 46.532 225.048 46.9155L226.748 47.2543C227.605 47.4268 227.995 47.7401 228.008 48.2322C227.995 48.8139 227.362 49.2294 226.41 49.2294C225.438 49.2294 224.792 48.8139 224.626 48.0149L221.948 48.1555C222.204 50.0348 223.802 51.1918 226.403 51.1918C228.947 51.1918 230.769 49.8942 230.775 47.9574C230.769 46.5384 229.842 45.6882 227.937 45.2983L226.16 44.9403C225.246 44.7422 224.908 44.429 224.914 43.956C224.908 43.3679 225.572 42.9844 226.416 42.9844C227.362 42.9844 227.925 43.5021 228.059 44.1349L230.552 43.9815ZM239.506 46.8196C239.513 48.1364 238.611 48.8267 237.633 48.8267C236.604 48.8267 235.939 48.1044 235.933 46.9474V41.1818H233.21V47.4332C233.216 49.728 234.559 51.1278 236.534 51.1278C238.011 51.1278 239.072 50.3672 239.513 49.2166H239.615V51H242.229V41.1818H239.506V46.8196ZM247.927 51.1854C249.378 51.1854 250.318 50.5526 250.797 49.6385H250.874V51H253.456V44.3778C253.456 42.0384 251.475 41.054 249.289 41.054C246.936 41.054 245.389 42.179 245.012 43.9688L247.531 44.1733C247.716 43.5213 248.298 43.0419 249.276 43.0419C250.203 43.0419 250.733 43.5085 250.733 44.3139V44.3523C250.733 44.9851 250.062 45.0682 248.355 45.2344C246.412 45.4134 244.667 46.0653 244.667 48.2578C244.667 50.201 246.054 51.1854 247.927 51.1854ZM248.707 49.3061C247.87 49.3061 247.269 48.9162 247.269 48.1683C247.269 47.4013 247.901 47.0241 248.86 46.8899C249.455 46.8068 250.426 46.6662 250.752 46.4489V47.4908C250.752 48.5199 249.902 49.3061 248.707 49.3061ZM246.061 40.108H248.017L249.384 39.0341L250.733 40.108H252.696L250.107 38.12H248.637L246.061 40.108ZM252.024 38.983H253.565L255.629 36.5859H253.52L252.024 38.983ZM261.511 41.1818H259.664V38.8295H256.941V41.1818H255.598V43.2273H256.941V48.3409C256.928 50.2649 258.238 51.2173 260.213 51.1342C260.917 51.1087 261.415 50.968 261.69 50.8786L261.262 48.8523C261.128 48.8778 260.84 48.9418 260.584 48.9418C260.041 48.9418 259.664 48.7372 259.664 47.983V43.2273H261.511V41.1818ZM204.24 61.1818H201.357L199.325 68.2067H199.222L197.183 61.1818H194.307L197.739 71H200.808L204.24 61.1818ZM208.872 71.1854C210.323 71.1854 211.263 70.5526 211.742 69.6385H211.819V71H214.401V64.3778C214.401 62.0384 212.42 61.054 210.233 61.054C207.881 61.054 206.334 62.179 205.957 63.9688L208.476 64.1733C208.661 63.5213 209.243 63.0419 210.221 63.0419C211.148 63.0419 211.678 63.5085 211.678 64.3139V64.3523C211.678 64.9851 211.007 65.0682 209.3 65.2344C207.357 65.4134 205.612 66.0653 205.612 68.2578C205.612 70.201 206.999 71.1854 208.872 71.1854ZM209.652 69.3061C208.814 69.3061 208.214 68.9162 208.214 68.1683C208.214 67.4013 208.846 67.0241 209.805 66.8899C210.4 66.8068 211.371 66.6662 211.697 66.4489V67.4908C211.697 68.5199 210.847 69.3061 209.652 69.3061ZM218.563 74.6818C220.59 74.6818 221.663 73.6463 222.219 72.0611L226.036 61.1946L223.153 61.1818L221.101 68.392H220.999L218.966 61.1818H216.102L219.624 71.2812L219.465 71.6967C219.107 72.6172 218.423 72.6619 217.464 72.3679L216.85 74.4006C217.24 74.5668 217.873 74.6818 218.563 74.6818Z" fill="white"/>
<path d="M117.301 64.8636H134.057V71H141.114V64.8636H145.443V58.9489H141.114V36.0909H131.875L117.301 59.0511V64.8636ZM134.193 58.9489H124.733V58.6761L133.92 44.1364H134.193V58.9489ZM169.469 64.4545C169.486 68.6477 172.162 72.2102 177.156 72.2102C182.099 72.2102 184.861 68.6477 184.844 64.4545V62.6136C184.861 58.3864 182.168 54.858 177.156 54.858C172.23 54.858 169.486 58.4205 169.469 62.6136V64.4545ZM151.554 44.4773C151.571 48.6705 154.247 52.1989 159.224 52.1989C164.185 52.1989 166.946 48.7045 166.929 44.4773V42.6364C166.946 38.4091 164.253 34.8807 159.224 34.8807C154.349 34.8807 151.571 38.4091 151.554 42.6364V44.4773ZM153.224 71H157.673L181.673 36.0909H177.224L153.224 71ZM174.429 62.6136C174.446 60.9432 175.111 59.2216 177.156 59.2216C179.304 59.2216 179.866 60.9432 179.849 62.6136V64.4545C179.866 66.125 179.236 67.8125 177.156 67.8125C175.077 67.8125 174.446 66.0739 174.429 64.4545V62.6136ZM156.548 42.6364C156.565 41.017 157.196 39.2443 159.224 39.2443C161.372 39.2443 161.952 40.9659 161.935 42.6364V44.4773C161.952 46.1477 161.304 47.8352 159.224 47.8352C157.213 47.8352 156.565 46.1477 156.548 44.4773V42.6364Z" fill="url(#paint1_linear)"/>
<path d="M27.7244 41.5256C27.7244 40.4219 28.3906 39.7855 29.3402 39.7855C30.2699 39.7855 30.8267 40.397 30.8267 41.4162V46H32.6264V41.1378C32.6314 39.3082 31.5874 38.2642 30.0114 38.2642C28.8679 38.2642 28.0824 38.8111 27.7344 39.6612H27.6449V38.3636H25.9247V46H27.7244V41.5256ZM36.2557 41.5256C36.2557 40.4219 36.9418 39.7855 37.9062 39.7855C38.8509 39.7855 39.4077 40.3871 39.4077 41.4162V46H41.2074V41.1378C41.2074 39.2933 40.1634 38.2642 38.5774 38.2642C37.4041 38.2642 36.6584 38.7962 36.3054 39.6612H36.2159V35.8182H34.456V46H36.2557V41.5256ZM45.2393 46.1541C46.4375 46.1541 47.1534 45.5923 47.4815 44.951H47.5412V46H49.2713V40.8892C49.2713 38.8707 47.6257 38.2642 46.169 38.2642C44.5632 38.2642 43.3303 38.9801 42.9325 40.3722L44.6129 40.6108C44.7919 40.0888 45.299 39.6413 46.179 39.6413C47.0142 39.6413 47.4716 40.0689 47.4716 40.8196V40.8494C47.4716 41.3665 46.9297 41.3913 45.5824 41.5355C44.1009 41.6946 42.6839 42.1371 42.6839 43.8572C42.6839 45.3587 43.7827 46.1541 45.2393 46.1541ZM45.2393 37.4489L46.2486 36.1761L47.2578 37.4489H48.8338V37.3793L46.9545 35.2315H45.5476L43.6634 37.3793V37.4489H45.2393ZM45.7067 44.8317C44.956 44.8317 44.419 44.4886 44.419 43.8274C44.419 43.1364 45.0206 42.848 45.826 42.7337C46.2983 42.669 47.2429 42.5497 47.4766 42.3608V43.2607C47.4766 44.1108 46.7905 44.8317 45.7067 44.8317ZM46.179 48.7443C46.7507 48.7443 47.218 48.3068 47.218 47.7699C47.218 47.228 46.7507 46.7905 46.179 46.7905C45.6023 46.7905 45.1349 47.228 45.1349 47.7699C45.1349 48.3068 45.6023 48.7443 46.179 48.7443ZM52.8807 41.5256C52.8807 40.4219 53.5469 39.7855 54.4964 39.7855C55.4261 39.7855 55.983 40.397 55.983 41.4162V46H57.7827V41.1378C57.7876 39.3082 56.7436 38.2642 55.1676 38.2642C54.0241 38.2642 53.2386 38.8111 52.8906 39.6612H52.8011V38.3636H51.081V46H52.8807V41.5256ZM64.8846 41.5256C64.8846 40.4219 65.5707 39.7855 66.5352 39.7855C67.4798 39.7855 68.0366 40.3871 68.0366 41.4162V46H69.8363V41.1378C69.8363 39.2933 68.7923 38.2642 67.2063 38.2642C66.033 38.2642 65.2873 38.7962 64.9343 39.6612H64.8448V35.8182H63.0849V46H64.8846V41.5256ZM75.0018 46.1491C77.239 46.1491 78.6609 44.5732 78.6609 42.2116C78.6609 39.8452 77.239 38.2642 75.0018 38.2642C72.7646 38.2642 71.3427 39.8452 71.3427 42.2116C71.3427 44.5732 72.7646 46.1491 75.0018 46.1491ZM75.0117 44.7074C73.7738 44.7074 73.1673 43.6037 73.1673 42.2067C73.1673 40.8097 73.7738 39.6911 75.0117 39.6911C76.2298 39.6911 76.8363 40.8097 76.8363 42.2067C76.8363 43.6037 76.2298 44.7074 75.0117 44.7074ZM75.5288 36.0568H74.4549L72.4165 37.6328H73.8185L74.9918 36.718L76.18 37.6328H77.5621L75.5288 36.0568ZM76.1254 34.3466C76.1254 34.5902 75.9315 34.8537 75.7028 34.8537C75.2056 34.8537 74.7731 34.4212 74.2511 34.4212C73.6495 34.4212 73.2518 34.968 73.2567 35.4901L73.913 35.669C73.908 35.4254 74.1069 35.1868 74.3455 35.1868C74.8576 35.1868 75.1509 35.6442 75.7972 35.6442C76.3938 35.6442 76.8015 35.1072 76.8015 34.5703L76.1254 34.3466ZM87.4743 38.3636H85.9679V36.5341H84.1681V38.3636H83.0843V39.7557H84.1681V44.0014C84.1582 45.4382 85.2022 46.1442 86.5545 46.1044C87.0666 46.0895 87.4196 45.9901 87.6135 45.9254L87.3102 44.5185C87.2108 44.5433 87.0069 44.5881 86.7832 44.5881C86.3308 44.5881 85.9679 44.429 85.9679 43.7031V39.7557H87.4743V38.3636ZM88.9794 46H90.7791V41.5107C90.7791 40.5412 91.5099 39.8551 92.4993 39.8551C92.8026 39.8551 93.1804 39.9098 93.3345 39.9595V38.304C93.1705 38.2741 92.8871 38.2543 92.6882 38.2543C91.8132 38.2543 91.0824 38.7514 90.804 39.6364H90.7244V38.3636H88.9794V46ZM100.778 37.8764C100.778 38.6122 100.684 39.1641 100.291 39.4375C99.6547 38.6918 98.71 38.2642 97.5467 38.2642C95.3095 38.2642 93.8876 39.8452 93.8876 42.2116C93.8876 44.5732 95.3095 46.1491 97.5467 46.1491C99.7839 46.1491 101.206 44.5732 101.206 42.2116C101.206 41.4659 101.067 40.7997 100.803 40.2379C101.628 39.8551 101.981 39.0298 101.981 37.8764H100.778ZM97.5566 44.7074C96.3187 44.7074 95.7122 43.6037 95.7122 42.2067C95.7122 40.8097 96.3187 39.6911 97.5566 39.6911C98.7747 39.6911 99.3812 40.8097 99.3812 42.2067C99.3812 43.6037 98.7747 44.7074 97.5566 44.7074ZM97.5517 48.7443C98.1234 48.7443 98.5907 48.3068 98.5907 47.7699C98.5907 47.228 98.1234 46.7905 97.5517 46.7905C96.975 46.7905 96.5076 47.228 96.5076 47.7699C96.5076 48.3068 96.975 48.7443 97.5517 48.7443Z" fill="#292D32"/>
<path d="M42.8972 58.6639C43.2885 69.923 48.437 74.3461 60.956 75.2818C64.3602 75.5363 74.6918 73.2687 71.2433 73.5932" stroke="white" stroke-width="4" stroke-linecap="round"/>
<path d="M68.5535 66.9515C72.7553 67.2469 77.9784 67.7796 82.2489 67.5148C85.6442 67.3043 83.9358 67.2047 83.3549 68.5427C82.3654 70.8218 72.511 82.8707 71.2325 82.4442" stroke="white" stroke-width="4" stroke-linecap="round"/>
<defs>
<linearGradient id="paint0_linear" x1="85.6653" y1="5.09043" x2="113.67" y2="80.3284" gradientUnits="userSpaceOnUse">
<stop stop-color="#ECEFF0"/>
<stop offset="1" stop-color="white"/>
</linearGradient>
<linearGradient id="paint1_linear" x1="133.686" y1="35.1809" x2="179.918" y2="48.7276" gradientUnits="userSpaceOnUse">
<stop stop-color="#ECEFF0"/>
<stop offset="1" stop-color="white"/>
</linearGradient>
</defs>
</svg>
