<svg width="319" height="133" viewBox="0 0 319 133" fill="none" xmlns="http://www.w3.org/2000/svg">
<path d="M8.40554 33.5078H10.6875C10.6428 31.2962 8.7571 29.7301 5.97017 29.7301C3.22159 29.7301 1.15696 31.277 1.16335 33.5909C1.16335 35.4702 2.49929 36.5504 4.65341 37.1065L6.14276 37.4901C7.5554 37.848 8.48864 38.2891 8.49503 39.3054C8.48864 40.424 7.42756 41.1719 5.88068 41.1719C4.39773 41.1719 3.24716 40.5071 3.15128 39.1328H0.818182C0.914062 41.7344 2.85085 43.1982 5.89986 43.1982C9.03835 43.1982 10.8601 41.6321 10.8665 39.3246C10.8601 37.0554 8.98722 36.0199 7.01847 35.5533L5.79119 35.2464C4.71733 34.9908 3.55398 34.5369 3.56676 33.4439C3.57315 32.4595 4.45526 31.7372 5.93821 31.7372C7.35085 31.7372 8.28409 32.3956 8.40554 33.5078ZM17.161 43.1918C20.0375 43.1918 21.8656 41.1655 21.8656 38.1293C21.8656 35.0866 20.0375 33.054 17.161 33.054C14.2846 33.054 12.4565 35.0866 12.4565 38.1293C12.4565 41.1655 14.2846 43.1918 17.161 43.1918ZM17.1738 41.3381C15.5822 41.3381 14.8024 39.919 14.8024 38.1229C14.8024 36.3267 15.5822 34.8885 17.1738 34.8885C18.7399 34.8885 19.5197 36.3267 19.5197 38.1229C19.5197 39.919 18.7399 41.3381 17.1738 41.3381ZM13.8436 32.0568H15.774L17.1674 30.8807L18.5545 32.0568H20.4785L17.877 29.9538H16.4324L13.8436 32.0568ZM19.7946 30.7784H21.2711L23.2463 28.4197H21.2136L19.7946 30.7784ZM33.1971 33.1818H31.2603V30.8295H28.9464V33.1818H27.5529V34.9716H28.9464V40.4304C28.9336 42.2777 30.2759 43.1854 32.0146 43.1342C32.6729 43.1151 33.1268 42.9872 33.3761 42.9041L32.9862 41.0952C32.8583 41.1271 32.5962 41.1847 32.3086 41.1847C31.7269 41.1847 31.2603 40.9801 31.2603 40.0469V34.9716H33.1971V33.1818ZM35.1323 43H37.4462V33.1818H35.1323V43ZM36.2956 31.7884C37.0307 31.7884 37.6316 31.2259 37.6316 30.5355C37.6316 29.8388 37.0307 29.2763 36.2956 29.2763C35.5542 29.2763 34.9533 29.8388 34.9533 30.5355C34.9533 31.2259 35.5542 31.7884 36.2956 31.7884ZM44.1722 43.1918C46.4606 43.1918 48.033 42.0732 48.4421 40.3665L46.2816 40.1236C45.9684 40.9545 45.2013 41.3892 44.2042 41.3892C42.7085 41.3892 41.7177 40.4048 41.6985 38.7237H48.538V38.0142C48.538 34.5689 46.467 33.054 44.0508 33.054C41.2383 33.054 39.4038 35.1186 39.4038 38.1484C39.4038 41.2294 41.2127 43.1918 44.1722 43.1918ZM41.7049 37.1641C41.7752 35.9112 42.7021 34.8565 44.0827 34.8565C45.4123 34.8565 46.3072 35.8281 46.32 37.1641H41.7049ZM44.6964 29.9922H43.2454L40.6758 32.0952H42.587L43.9869 30.919L45.3675 32.0952H47.2915L44.6964 29.9922ZM39.9279 28.4517H37.9016L39.896 30.8168H41.3406L39.9279 28.4517ZM52.8095 37.2472C52.8095 35.8281 53.666 35.0099 54.8869 35.0099C56.0822 35.0099 56.7981 35.7962 56.7981 37.1065V43H59.112V36.7486C59.1184 34.3963 57.7761 33.054 55.7498 33.054C54.2797 33.054 53.2697 33.7571 52.8223 34.8501H52.7072V33.1818H50.4956V43H52.8095V37.2472ZM68.2431 29.9091H65.9292V43H68.2431V29.9091ZM73.4478 43.1982C74.9883 43.1982 75.9087 42.4759 76.3306 41.6513H76.4073V43H78.6317V36.429C78.6317 33.8338 76.516 33.054 74.6431 33.054C72.5785 33.054 70.9933 33.9744 70.4819 35.7642L72.6424 36.071C72.8725 35.3999 73.5245 34.8246 74.6559 34.8246C75.7298 34.8246 76.3178 35.3743 76.3178 36.3395V36.3778C76.3178 37.0426 75.6211 37.0746 73.8888 37.2599C71.984 37.4645 70.1623 38.0334 70.1623 40.245C70.1623 42.1754 71.5749 43.1982 73.4478 43.1982ZM72.8661 31.9865C72.8661 31.4048 73.1857 31.0149 73.6396 31.0149C74.0231 31.0149 74.2852 31.2003 74.5664 31.4048C74.918 31.6541 75.3079 31.929 75.9854 31.9226C77.1232 31.9162 78.0117 31.0341 78.0245 29.5128L76.6502 29.4553C76.6438 30.0241 76.337 30.4332 75.8512 30.4332C75.4805 30.4332 75.1928 30.2415 74.8796 30.0369C74.5089 29.794 74.1062 29.5256 73.5053 29.5256C72.3612 29.5256 71.4663 30.4332 71.4663 31.9545L72.8661 31.9865ZM74.0487 41.4979C73.0835 41.4979 72.3931 41.0568 72.3931 40.2067C72.3931 39.3182 73.1665 38.9474 74.2021 38.8004C74.8093 38.7173 76.0238 38.5639 76.3242 38.321V39.478C76.3242 40.571 75.4421 41.4979 74.0487 41.4979ZM80.9585 43H83.2724V33.1818H80.9585V43ZM82.1218 31.7884C82.8569 31.7884 83.4577 31.2259 83.4577 30.5355C83.4577 29.8388 82.8569 29.2763 82.1218 29.2763C81.3803 29.2763 80.7795 29.8388 80.7795 30.5355C80.7795 31.2259 81.3803 31.7884 82.1218 31.7884ZM94.3993 43.1918C96.8667 43.1918 98.4391 41.728 98.6053 39.6442H96.3936C96.1955 40.6989 95.4348 41.3061 94.4185 41.3061C92.9739 41.3061 92.0407 40.098 92.0407 38.0909C92.0407 36.1094 92.9931 34.9205 94.4185 34.9205C95.5307 34.9205 96.2147 35.6364 96.3936 36.5824H98.6053C98.4455 34.4538 96.7836 33.054 94.3865 33.054C91.5101 33.054 89.6948 35.1314 89.6948 38.1293C89.6948 41.1016 91.4654 43.1918 94.3993 43.1918ZM104.788 43.1918C107.664 43.1918 109.493 41.1655 109.493 38.1293C109.493 35.0866 107.664 33.054 104.788 33.054C101.912 33.054 100.083 35.0866 100.083 38.1293C100.083 41.1655 101.912 43.1918 104.788 43.1918ZM104.801 41.3381C103.209 41.3381 102.429 39.919 102.429 38.1229C102.429 36.3267 103.209 34.8885 104.801 34.8885C106.367 34.8885 107.147 36.3267 107.147 38.1229C107.147 39.919 106.367 41.3381 104.801 41.3381ZM103.944 31.8906H105.676L104.251 28.9695H101.982L103.944 31.8906ZM113.77 37.2472C113.77 35.8281 114.627 35.0099 115.848 35.0099C117.043 35.0099 117.759 35.7962 117.759 37.1065V43H120.073V36.7486C120.079 34.3963 118.737 33.054 116.711 33.054C115.241 33.054 114.231 33.7571 113.783 34.8501H113.668V33.1818H111.456V43H113.77V37.2472ZM3.50284 53.9091H1.18892V67H3.50284V53.9091ZM8.70756 67.1982C10.248 67.1982 11.1685 66.4759 11.5904 65.6513H11.6671V67H13.8915V60.429C13.8915 57.8338 11.7757 57.054 9.90288 57.054C7.83825 57.054 6.25302 57.9744 5.74165 59.7642L7.90217 60.071C8.13228 59.3999 8.78427 58.8246 9.91566 58.8246C10.9895 58.8246 11.5776 59.3743 11.5776 60.3395V60.3778C11.5776 61.0426 10.8809 61.0746 9.14862 61.2599C7.24379 61.4645 5.42205 62.0334 5.42205 64.245C5.42205 66.1754 6.83469 67.1982 8.70756 67.1982ZM9.30842 65.4979C8.34322 65.4979 7.65288 65.0568 7.65288 64.2067C7.65288 63.3182 8.42631 62.9474 9.46183 62.8004C10.0691 62.7173 11.2836 62.5639 11.584 62.321V63.478C11.584 64.571 10.7019 65.4979 9.30842 65.4979ZM9.91566 70.5284C10.6507 70.5284 11.2516 69.9659 11.2516 69.2756C11.2516 68.5788 10.6507 68.0163 9.91566 68.0163C9.17418 68.0163 8.57333 68.5788 8.57333 69.2756C8.57333 69.9659 9.17418 70.5284 9.91566 70.5284ZM16.2182 67H18.5321V57.1818H16.2182V67ZM17.3816 55.7884C18.1167 55.7884 18.7175 55.2259 18.7175 54.5355C18.7175 53.8388 18.1167 53.2763 17.3816 53.2763C16.6401 53.2763 16.0392 53.8388 16.0392 54.5355C16.0392 55.2259 16.6401 55.7884 17.3816 55.7884ZM25.3764 70.6818H27.6903V65.4531H27.7862C28.1506 66.169 28.9112 67.1726 30.5987 67.1726C32.9126 67.1726 34.6449 65.3381 34.6449 62.1037C34.6449 58.831 32.8615 57.054 30.5923 57.054C28.8601 57.054 28.1378 58.0959 27.7862 58.8054H27.652V57.1818H25.3764V70.6818ZM27.6456 62.0909C27.6456 60.1861 28.4638 58.9524 29.9531 58.9524C31.4936 58.9524 32.2862 60.2628 32.2862 62.0909C32.2862 63.9318 31.4808 65.2741 29.9531 65.2741C28.4766 65.2741 27.6456 63.9957 27.6456 62.0909ZM38.9403 61.2472C38.9403 59.8281 39.8224 59.0099 41.0625 59.0099C42.277 59.0099 42.9929 59.7834 42.9929 61.1065V67H45.3068V60.7486C45.3068 58.3771 43.9645 57.054 41.9254 57.054C40.4169 57.054 39.4581 57.7379 39.0043 58.8501H38.8892V53.9091H36.6264V67H38.9403V61.2472ZM50.4908 67.1982C52.0312 67.1982 52.9517 66.4759 53.3736 65.6513H53.4503V67H55.6747V60.429C55.6747 57.8338 53.5589 57.054 51.6861 57.054C49.6214 57.054 48.0362 57.9744 47.5249 59.7642L49.6854 60.071C49.9155 59.3999 50.5675 58.8246 51.6989 58.8246C52.7727 58.8246 53.3608 59.3743 53.3608 60.3395V60.3778C53.3608 61.0426 52.6641 61.0746 50.9318 61.2599C49.027 61.4645 47.2053 62.0334 47.2053 64.245C47.2053 66.1754 48.6179 67.1982 50.4908 67.1982ZM51.0916 65.4979C50.1264 65.4979 49.4361 65.0568 49.4361 64.2067C49.4361 63.3182 50.2095 62.9474 51.245 62.8004C51.8523 62.7173 53.0668 62.5639 53.3672 62.321V63.478C53.3672 64.571 52.4851 65.4979 51.0916 65.4979ZM52.6768 55.8011V55.2131C53.3608 55.1108 54.032 54.7464 54.0256 53.9347C54.032 52.8736 52.9197 52.2216 50.8104 52.2216L50.7528 53.3658C51.4943 53.3658 52.0632 53.5192 52.0568 53.9794C52.0632 54.3374 51.7244 54.5355 50.8232 54.5739L50.9126 55.8011H52.6768ZM58.0014 67H60.3153V57.1818H58.0014V67ZM59.1648 55.7884C59.8999 55.7884 60.5007 55.2259 60.5007 54.5355C60.5007 53.8388 59.8999 53.2763 59.1648 53.2763C58.4233 53.2763 57.8224 53.8388 57.8224 54.5355C57.8224 55.2259 58.4233 55.7884 59.1648 55.7884ZM72.0623 57.1818H70.1255V54.8295H67.8116V57.1818H66.4181V58.9716H67.8116V64.4304C67.7988 66.2777 69.1412 67.1854 70.8798 67.1342C71.5382 67.1151 71.992 66.9872 72.2413 66.9041L71.8514 65.0952C71.7235 65.1271 71.4615 65.1847 71.1738 65.1847C70.5922 65.1847 70.1255 64.9801 70.1255 64.0469V58.9716H72.0623V57.1818ZM73.9975 67H76.3114V61.228C76.3114 59.9815 77.2511 59.0994 78.5231 59.0994C78.913 59.0994 79.3988 59.1697 79.5969 59.2337V57.1051C79.386 57.0668 79.0217 57.0412 78.766 57.0412C77.641 57.0412 76.7013 57.6804 76.3434 58.8182H76.2411V57.1818H73.9975V67ZM83.7662 67.1982C85.3066 67.1982 86.2271 66.4759 86.649 65.6513H86.7257V67H88.9501V60.429C88.9501 57.8338 86.8343 57.054 84.9615 57.054C82.8968 57.054 81.3116 57.9744 80.8002 59.7642L82.9608 60.071C83.1909 59.3999 83.8429 58.8246 84.9743 58.8246C86.0481 58.8246 86.6362 59.3743 86.6362 60.3395V60.3778C86.6362 61.0426 85.9395 61.0746 84.2072 61.2599C82.3024 61.4645 80.4806 62.0334 80.4806 64.245C80.4806 66.1754 81.8933 67.1982 83.7662 67.1982ZM84.367 65.4979C83.4018 65.4979 82.7115 65.0568 82.7115 64.2067C82.7115 63.3182 83.4849 62.9474 84.5204 62.8004C85.1277 62.7173 86.3422 62.5639 86.6426 62.321V63.478C86.6426 64.571 85.7605 65.4979 84.367 65.4979ZM85.9522 55.8011V55.2131C86.6362 55.1108 87.3074 54.7464 87.301 53.9347C87.3074 52.8736 86.1951 52.2216 84.0858 52.2216L84.0282 53.3658C84.7697 53.3658 85.3386 53.5192 85.3322 53.9794C85.3386 54.3374 84.9998 54.5355 84.0985 54.5739L84.188 55.8011H85.9522Z" fill="white"/>
<path d="M171.437 50.3707C174.339 50.3707 176.218 49.1051 177.177 47.277H177.33V50H182.495V36.7557C182.495 32.0767 178.532 30.108 174.16 30.108C169.455 30.108 166.362 32.358 165.607 35.9375L170.644 36.3466C171.015 35.0426 172.178 34.0838 174.134 34.0838C175.988 34.0838 177.049 35.017 177.049 36.6278V36.7045C177.049 37.9702 175.707 38.1364 172.293 38.4688C168.407 38.8267 164.917 40.1307 164.917 44.5156C164.917 48.402 167.691 50.3707 171.437 50.3707ZM172.996 46.6122C171.322 46.6122 170.12 45.8324 170.12 44.3366C170.12 42.8026 171.386 42.0483 173.303 41.7798C174.492 41.6136 176.435 41.3324 177.087 40.8977V42.9815C177.087 45.0398 175.387 46.6122 172.996 46.6122ZM201 45.0909C201.013 48.2358 203.02 50.9077 206.766 50.9077C210.473 50.9077 212.544 48.2358 212.531 45.0909V43.7102C212.544 40.5398 210.524 37.8935 206.766 37.8935C203.071 37.8935 201.013 40.5653 201 43.7102V45.0909ZM187.564 30.108C187.577 33.2528 189.584 35.8991 193.317 35.8991C197.037 35.8991 199.108 33.2784 199.095 30.108V28.7273C199.108 25.5568 197.088 22.9105 193.317 22.9105C189.661 22.9105 187.577 25.5568 187.564 28.7273V30.108ZM188.817 50H192.153L210.153 23.8182H206.817L188.817 50ZM204.72 43.7102C204.733 42.4574 205.232 41.1662 206.766 41.1662C208.376 41.1662 208.798 42.4574 208.786 43.7102V45.0909C208.798 46.3438 208.325 47.6094 206.766 47.6094C205.206 47.6094 204.733 46.3054 204.72 45.0909V43.7102ZM191.31 28.7273C191.322 27.5128 191.795 26.1832 193.317 26.1832C194.928 26.1832 195.362 27.4744 195.349 28.7273V30.108C195.362 31.3608 194.876 32.6264 193.317 32.6264C191.808 32.6264 191.322 31.3608 191.31 30.108V28.7273ZM229.892 34.7486H217.952V39.0696H229.892V34.7486ZM234.085 45.3977H246.652V50H251.945V45.3977H255.192V40.9616H251.945V23.8182H245.016L234.085 41.0384V45.3977ZM246.754 40.9616H239.659V40.7571L246.55 29.8523H246.754V40.9616ZM273.211 45.0909C273.224 48.2358 275.231 50.9077 278.977 50.9077C282.684 50.9077 284.755 48.2358 284.742 45.0909V43.7102C284.755 40.5398 282.735 37.8935 278.977 37.8935C275.282 37.8935 273.224 40.5653 273.211 43.7102V45.0909ZM259.775 30.108C259.788 33.2528 261.795 35.8991 265.528 35.8991C269.248 35.8991 271.319 33.2784 271.306 30.108V28.7273C271.319 25.5568 269.299 22.9105 265.528 22.9105C261.871 22.9105 259.788 25.5568 259.775 28.7273V30.108ZM261.028 50H264.364L282.364 23.8182H279.028L261.028 50ZM276.931 43.7102C276.944 42.4574 277.442 41.1662 278.977 41.1662C280.587 41.1662 281.009 42.4574 280.996 43.7102V45.0909C281.009 46.3438 280.536 47.6094 278.977 47.6094C277.417 47.6094 276.944 46.3054 276.931 45.0909V43.7102ZM263.521 28.7273C263.533 27.5128 264.006 26.1832 265.528 26.1832C267.138 26.1832 267.573 27.4744 267.56 28.7273V30.108C267.573 31.3608 267.087 32.6264 265.528 32.6264C264.019 32.6264 263.533 31.3608 263.521 30.108V28.7273Z" fill="url(#paint0_linear)"/>
<path d="M134 35.6362C139.648 35.5161 145.219 34.644 150.867 34.644" stroke="white" stroke-width="4" stroke-linecap="round"/>
<path d="M134 44.5659H151.86" stroke="white" stroke-width="4" stroke-linecap="round"/>
<path d="M175.74 80.1818H176.776L176.682 78.456L178.131 79.4062L178.651 78.5028L177.099 77.7273L178.651 76.9517L178.131 76.0483L176.682 76.9986L176.776 75.2727H175.74L175.838 76.9986L174.389 76.0483L173.869 76.9517L175.416 77.7273L173.869 78.5028L174.389 79.4062L175.838 78.456L175.74 80.1818ZM179.993 76.598H182.69V84H184.259V76.598H186.956V75.2727H179.993V76.598ZM187.55 84H189.093V80.152C189.093 79.321 189.719 78.733 190.567 78.733C190.827 78.733 191.151 78.7798 191.283 78.8224V77.4034C191.143 77.3778 190.9 77.3608 190.729 77.3608C189.979 77.3608 189.353 77.7869 189.114 78.5455H189.046V77.4545H187.55V84ZM194.894 84.1278C196.811 84.1278 198.03 82.777 198.03 80.7528C198.03 78.7244 196.811 77.3693 194.894 77.3693C192.976 77.3693 191.757 78.7244 191.757 80.7528C191.757 82.777 192.976 84.1278 194.894 84.1278ZM194.902 82.892C193.841 82.892 193.321 81.946 193.321 80.7486C193.321 79.5511 193.841 78.5923 194.902 78.5923C195.946 78.5923 196.466 79.5511 196.466 80.7486C196.466 81.946 195.946 82.892 194.902 82.892ZM200.882 80.1648C200.882 79.2188 201.453 78.6733 202.267 78.6733C203.064 78.6733 203.541 79.1974 203.541 80.071V84H205.084V79.8324C205.088 78.2642 204.193 77.3693 202.842 77.3693C201.862 77.3693 201.189 77.8381 200.891 78.5668H200.814V77.4545H199.339V84H200.882V80.1648ZM209.499 86.5909C211.267 86.5909 212.571 85.7812 212.571 84.1065V77.4545H211.05V78.5369H210.964C210.73 78.0639 210.24 77.3693 209.085 77.3693C207.572 77.3693 206.384 78.554 206.384 80.706C206.384 82.8409 207.572 83.9062 209.081 83.9062C210.202 83.9062 210.726 83.3054 210.964 82.8239H211.041V84.0639C211.041 85.027 210.402 85.4233 209.524 85.4233C208.595 85.4233 208.186 84.9844 207.999 84.6009L206.609 84.9375C206.891 85.8537 207.832 86.5909 209.499 86.5909ZM209.511 82.696C208.493 82.696 207.956 81.9034 207.956 80.6974C207.956 79.5085 208.484 78.6349 209.511 78.6349C210.504 78.6349 211.05 79.4574 211.05 80.6974C211.05 81.946 210.496 82.696 209.511 82.696ZM219.558 84.1151C220.683 84.1151 221.19 83.446 221.433 82.9688H221.526V84H223.043V76.9645H223.849V75.9886H223.043V75.2727H221.496V75.9886H219.766V76.9645H221.496V78.5369H221.433C221.198 78.0639 220.717 77.3693 219.562 77.3693C218.049 77.3693 216.86 78.554 216.86 80.7358C216.86 82.892 218.015 84.1151 219.558 84.1151ZM219.988 82.8494C218.969 82.8494 218.433 81.9545 218.433 80.7273C218.433 79.5085 218.961 78.6349 219.988 78.6349C220.981 78.6349 221.526 79.4574 221.526 80.7273C221.526 81.9972 220.972 82.8494 219.988 82.8494ZM227.542 84.1278C229.46 84.1278 230.679 82.777 230.679 80.7528C230.679 78.7244 229.46 77.3693 227.542 77.3693C225.625 77.3693 224.406 78.7244 224.406 80.7528C224.406 82.777 225.625 84.1278 227.542 84.1278ZM227.551 82.892C226.49 82.892 225.97 81.946 225.97 80.7486C225.97 79.5511 226.49 78.5923 227.551 78.5923C228.595 78.5923 229.115 79.5511 229.115 80.7486C229.115 81.946 228.595 82.892 227.551 82.892ZM226.95 76.5938H228.105L229.413 74.6463H227.904L226.95 76.5938ZM233.799 82.8068H232.435L232.406 83.2841C232.333 84.4389 232.031 85.6151 231.907 86.1307H232.947C233.151 85.5938 233.624 84.3494 233.744 83.2756L233.799 82.8068ZM240.118 84.1321C241.145 84.1321 241.758 83.6506 242.039 83.1009H242.091V84H243.574V79.6193C243.574 77.8892 242.163 77.3693 240.914 77.3693C239.538 77.3693 238.481 77.983 238.14 79.1761L239.581 79.3807C239.734 78.9332 240.169 78.5497 240.923 78.5497C241.639 78.5497 242.031 78.9162 242.031 79.5597V79.5852C242.031 80.0284 241.566 80.0497 240.412 80.1733C239.142 80.3097 237.927 80.6889 237.927 82.1634C237.927 83.4503 238.869 84.1321 240.118 84.1321ZM240.518 82.9986C239.875 82.9986 239.414 82.7045 239.414 82.1378C239.414 81.5455 239.93 81.2983 240.62 81.2003C241.025 81.1449 241.835 81.0426 242.035 80.8807V81.652C242.035 82.3807 241.447 82.9986 240.518 82.9986ZM249.774 82.3636C249.778 83.3778 250.422 84.2429 251.619 84.2429C252.812 84.2429 253.468 83.3778 253.464 82.3636V81.9034C253.468 80.8807 252.829 80.0241 251.619 80.0241C250.439 80.0241 249.778 80.8892 249.774 81.9034V82.3636ZM245.338 77.3693C245.342 78.3835 245.985 79.2401 247.187 79.2401C248.376 79.2401 249.032 78.392 249.028 77.3693V76.9091C249.032 75.8864 248.393 75.0298 247.187 75.0298C246.011 75.0298 245.342 75.8864 245.338 76.9091V77.3693ZM245.721 84H246.791L252.791 75.2727H251.721L245.721 84ZM250.886 81.9034C250.89 81.4517 251.082 80.9957 251.619 80.9957C252.181 80.9957 252.348 81.4517 252.343 81.9034V82.3636C252.348 82.8153 252.164 83.2628 251.619 83.2628C251.074 83.2628 250.89 82.8111 250.886 82.3636V81.9034ZM246.458 76.9091C246.463 76.4616 246.646 76.0014 247.187 76.0014C247.75 76.0014 247.912 76.4574 247.907 76.9091V77.3693C247.912 77.821 247.733 78.2685 247.187 78.2685C246.642 78.2685 246.463 77.821 246.458 77.3693V76.9091ZM259.769 75.2727H258.226V84H259.769V75.2727ZM263.239 84.1321C264.266 84.1321 264.879 83.6506 265.161 83.1009H265.212V84H266.695V79.6193C266.695 77.8892 265.284 77.3693 264.036 77.3693C262.659 77.3693 261.602 77.983 261.261 79.1761L262.702 79.3807C262.855 78.9332 263.29 78.5497 264.044 78.5497C264.76 78.5497 265.152 78.9162 265.152 79.5597V79.5852C265.152 80.0284 264.688 80.0497 263.533 80.1733C262.263 80.3097 261.048 80.6889 261.048 82.1634C261.048 83.4503 261.99 84.1321 263.239 84.1321ZM263.639 82.9986C262.996 82.9986 262.536 82.7045 262.536 82.1378C262.536 81.5455 263.051 81.2983 263.741 81.2003C264.146 81.1449 264.956 81.0426 265.156 80.8807V81.652C265.156 82.3807 264.568 82.9986 263.639 82.9986ZM263.541 76.5938H264.696L263.746 74.6463H262.233L263.541 76.5938ZM276.396 79.1847C276.183 78.0767 275.296 77.3693 273.762 77.3693C272.185 77.3693 271.112 78.1449 271.116 79.3551C271.112 80.3097 271.7 80.9403 272.957 81.2003L274.073 81.4347C274.674 81.5668 274.955 81.8097 274.955 82.1804C274.955 82.6278 274.469 82.9645 273.737 82.9645C273.029 82.9645 272.569 82.6577 272.437 82.0696L270.933 82.2145C271.124 83.4162 272.134 84.1278 273.741 84.1278C275.377 84.1278 276.532 83.2798 276.536 82.0398C276.532 81.1065 275.931 80.5355 274.695 80.267L273.579 80.0284C272.914 79.8793 272.65 79.6491 272.654 79.2699C272.65 78.8267 273.14 78.5199 273.783 78.5199C274.495 78.5199 274.87 78.9077 274.989 79.3381L276.396 79.1847ZM280.663 84.1278C282.581 84.1278 283.8 82.777 283.8 80.7528C283.8 78.7244 282.581 77.3693 280.663 77.3693C278.746 77.3693 277.527 78.7244 277.527 80.7528C277.527 82.777 278.746 84.1278 280.663 84.1278ZM280.672 82.892C279.611 82.892 279.091 81.946 279.091 80.7486C279.091 79.5511 279.611 78.5923 280.672 78.5923C281.716 78.5923 282.236 79.5511 282.236 80.7486C282.236 81.946 281.716 82.892 280.672 82.892ZM278.452 76.7045H279.739L280.668 75.9205L281.592 76.7045H282.875L281.141 75.3026H280.178L278.452 76.7045ZM282.419 75.8523H283.403L284.72 74.2798H283.365L282.419 75.8523ZM288.086 86.4545H289.628V82.9688H289.692C289.935 83.446 290.442 84.1151 291.567 84.1151C293.11 84.1151 294.265 82.892 294.265 80.7358C294.265 78.554 293.076 77.3693 291.563 77.3693C290.408 77.3693 289.926 78.0639 289.692 78.5369H289.603V77.4545H288.086V86.4545ZM289.598 80.7273C289.598 79.4574 290.144 78.6349 291.137 78.6349C292.164 78.6349 292.692 79.5085 292.692 80.7273C292.692 81.9545 292.155 82.8494 291.137 82.8494C290.152 82.8494 289.598 81.9972 289.598 80.7273ZM297.128 80.1648C297.128 79.2188 297.716 78.6733 298.543 78.6733C299.353 78.6733 299.83 79.1889 299.83 80.071V84H301.373V79.8324C301.373 78.2514 300.478 77.3693 299.118 77.3693C298.113 77.3693 297.473 77.8253 297.171 78.5668H297.094V75.2727H295.586V84H297.128V80.1648ZM304.828 84.1321C305.855 84.1321 306.469 83.6506 306.75 83.1009H306.801V84H308.284V79.6193C308.284 77.8892 306.874 77.3693 305.625 77.3693C304.249 77.3693 303.192 77.983 302.851 79.1761L304.292 79.3807C304.445 78.9332 304.88 78.5497 305.634 78.5497C306.35 78.5497 306.742 78.9162 306.742 79.5597V79.5852C306.742 80.0284 306.277 80.0497 305.123 80.1733C303.853 80.3097 302.638 80.6889 302.638 82.1634C302.638 83.4503 303.58 84.1321 304.828 84.1321ZM305.229 82.9986C304.586 82.9986 304.125 82.7045 304.125 82.1378C304.125 81.5455 304.641 81.2983 305.331 81.2003C305.736 81.1449 306.546 81.0426 306.746 80.8807V81.652C306.746 82.3807 306.158 82.9986 305.229 82.9986ZM306.171 75.3281H305.203L303.49 76.7301H304.765L305.698 75.946L306.618 76.7301H307.901L306.171 75.3281ZM302.992 74.3011H301.641L302.971 75.8778H303.934L302.992 74.3011ZM311.378 80.1648C311.378 79.2188 311.949 78.6733 312.763 78.6733C313.56 78.6733 314.037 79.1974 314.037 80.071V84H315.58V79.8324C315.584 78.2642 314.689 77.3693 313.338 77.3693C312.358 77.3693 311.685 77.8381 311.387 78.5668H311.31V77.4545H309.836V84H311.378V80.1648ZM177.061 93.4545H175.77V91.8864H174.227V93.4545H173.298V94.6477H174.227V98.2869C174.219 99.5185 175.114 100.124 176.273 100.089C176.712 100.077 177.014 99.9915 177.18 99.9361L176.92 98.7301C176.835 98.7514 176.661 98.7898 176.469 98.7898C176.081 98.7898 175.77 98.6534 175.77 98.0312V94.6477H177.061V93.4545ZM178.351 100H179.894V96.152C179.894 95.321 180.52 94.733 181.368 94.733C181.628 94.733 181.952 94.7798 182.084 94.8224V93.4034C181.944 93.3778 181.701 93.3608 181.53 93.3608C180.78 93.3608 180.154 93.7869 179.915 94.5455H179.847V93.4545H178.351V100ZM184.864 100.132C185.891 100.132 186.504 99.6506 186.786 99.1009H186.837V100H188.32V95.6193C188.32 93.8892 186.909 93.3693 185.661 93.3693C184.284 93.3693 183.227 93.983 182.886 95.1761L184.327 95.3807C184.48 94.9332 184.915 94.5497 185.669 94.5497C186.385 94.5497 186.777 94.9162 186.777 95.5597V95.5852C186.777 96.0284 186.312 96.0497 185.158 96.1733C183.888 96.3097 182.673 96.6889 182.673 98.1634C182.673 99.4503 183.615 100.132 184.864 100.132ZM186.572 91.2045C186.568 91.6222 186.33 91.9929 185.729 91.9929C185.119 91.9929 184.889 91.6136 184.889 91.2045H183.743C183.739 92.2017 184.51 92.875 185.729 92.875C186.956 92.875 187.727 92.2017 187.727 91.2045H186.572ZM185.264 98.9986C184.621 98.9986 184.161 98.7045 184.161 98.1378C184.161 97.5455 184.676 97.2983 185.366 97.2003C185.771 97.1449 186.581 97.0426 186.781 96.8807V97.652C186.781 98.3807 186.193 98.9986 185.264 98.9986ZM189.871 100H191.413V96.0199C191.413 95.2145 191.95 94.669 192.615 94.669C193.267 94.669 193.714 95.108 193.714 95.7812V100H195.227V95.9176C195.227 95.1804 195.666 94.669 196.412 94.669C197.034 94.669 197.528 95.0355 197.528 95.8452V100H199.075V95.6065C199.075 94.1449 198.232 93.3693 197.03 93.3693C196.08 93.3693 195.355 93.8381 195.065 94.5668H194.997C194.746 93.8253 194.111 93.3693 193.229 93.3693C192.351 93.3693 191.695 93.821 191.422 94.5668H191.345V93.4545H189.871V100ZM205.159 91.2727H203.617V100H205.159V91.2727ZM208.629 100.132C209.656 100.132 210.27 99.6506 210.551 99.1009H210.602V100H212.085V95.6193C212.085 93.8892 210.675 93.3693 209.426 93.3693C208.05 93.3693 206.993 93.983 206.652 95.1761L208.092 95.3807C208.246 94.9332 208.68 94.5497 209.435 94.5497C210.151 94.5497 210.543 94.9162 210.543 95.5597V95.5852C210.543 96.0284 210.078 96.0497 208.923 96.1733C207.653 96.3097 206.439 96.6889 206.439 98.1634C206.439 99.4503 207.381 100.132 208.629 100.132ZM208.241 92.6577C208.241 92.2699 208.455 92.0099 208.757 92.0099C209.013 92.0099 209.188 92.1335 209.375 92.2699C209.609 92.4361 209.869 92.6193 210.321 92.6151C211.08 92.6108 211.672 92.0227 211.68 91.0085L210.764 90.9702C210.76 91.3494 210.555 91.6222 210.232 91.6222C209.984 91.6222 209.793 91.4943 209.584 91.358C209.337 91.196 209.068 91.017 208.668 91.017C207.905 91.017 207.308 91.6222 207.308 92.6364L208.241 92.6577ZM209.03 98.9986C208.386 98.9986 207.926 98.7045 207.926 98.1378C207.926 97.5455 208.442 97.2983 209.132 97.2003C209.537 97.1449 210.347 97.0426 210.547 96.8807V97.652C210.547 98.3807 209.959 98.9986 209.03 98.9986ZM213.636 100H215.179V93.4545H213.636V100ZM214.412 92.5256C214.902 92.5256 215.303 92.1506 215.303 91.6903C215.303 91.2259 214.902 90.8509 214.412 90.8509C213.918 90.8509 213.517 91.2259 213.517 91.6903C213.517 92.1506 213.918 92.5256 214.412 92.5256ZM219.81 100H221.327V98.9688H221.417C221.659 99.446 222.167 100.115 223.292 100.115C224.834 100.115 225.989 98.892 225.989 96.7358C225.989 94.554 224.8 93.3693 223.287 93.3693C222.132 93.3693 221.651 94.0639 221.417 94.5369H221.353V91.2727H219.81V100ZM221.323 96.7273C221.323 95.4574 221.868 94.6349 222.861 94.6349C223.888 94.6349 224.417 95.5085 224.417 96.7273C224.417 97.9545 223.88 98.8494 222.861 98.8494C221.877 98.8494 221.323 97.9972 221.323 96.7273ZM229.184 100.132C230.211 100.132 230.825 99.6506 231.106 99.1009H231.157V100H232.64V95.6193C232.64 93.8892 231.229 93.3693 229.981 93.3693C228.604 93.3693 227.548 93.983 227.207 95.1761L228.647 95.3807C228.8 94.9332 229.235 94.5497 229.989 94.5497C230.705 94.5497 231.097 94.9162 231.097 95.5597V95.5852C231.097 96.0284 230.633 96.0497 229.478 96.1733C228.208 96.3097 226.994 96.6889 226.994 98.1634C226.994 99.4503 227.935 100.132 229.184 100.132ZM229.585 98.9986C228.941 98.9986 228.481 98.7045 228.481 98.1378C228.481 97.5455 228.996 97.2983 229.687 97.2003C230.092 97.1449 230.901 97.0426 231.102 96.8807V97.652C231.102 98.3807 230.513 98.9986 229.585 98.9986ZM229.989 102.352C230.479 102.352 230.88 101.977 230.88 101.517C230.88 101.053 230.479 100.678 229.989 100.678C229.495 100.678 229.094 101.053 229.094 101.517C229.094 101.977 229.495 102.352 229.989 102.352ZM235.734 96.1648C235.734 95.2188 236.305 94.6733 237.119 94.6733C237.915 94.6733 238.393 95.1974 238.393 96.071V100H239.935V95.8324C239.94 94.2642 239.045 93.3693 237.694 93.3693C236.714 93.3693 236.04 93.8381 235.742 94.5668H235.665V93.4545H234.191V100H235.734V96.1648ZM246.909 100.115C248.034 100.115 248.541 99.446 248.784 98.9688H248.878V100H250.395V92.9645H251.2V91.9886H250.395V91.2727H248.848V91.9886H247.118V92.9645H248.848V94.5369H248.784C248.55 94.0639 248.068 93.3693 246.913 93.3693C245.401 93.3693 244.212 94.554 244.212 96.7358C244.212 98.892 245.366 100.115 246.909 100.115ZM247.339 98.8494C246.321 98.8494 245.784 97.9545 245.784 96.7273C245.784 95.5085 246.312 94.6349 247.339 94.6349C248.332 94.6349 248.878 95.4574 248.878 96.7273C248.878 97.9972 248.324 98.8494 247.339 98.8494ZM253.922 100.132C254.949 100.132 255.563 99.6506 255.844 99.1009H255.895V100H257.378V95.6193C257.378 93.8892 255.968 93.3693 254.719 93.3693C253.343 93.3693 252.286 93.983 251.945 95.1761L253.385 95.3807C253.539 94.9332 253.973 94.5497 254.728 94.5497C255.444 94.5497 255.836 94.9162 255.836 95.5597V95.5852C255.836 96.0284 255.371 96.0497 254.216 96.1733C252.946 96.3097 251.732 96.6889 251.732 98.1634C251.732 99.4503 252.674 100.132 253.922 100.132ZM254.323 98.9986C253.679 98.9986 253.219 98.7045 253.219 98.1378C253.219 97.5455 253.735 97.2983 254.425 97.2003C254.83 97.1449 255.64 97.0426 255.84 96.8807V97.652C255.84 98.3807 255.252 98.9986 254.323 98.9986ZM260.472 96.1648C260.472 95.2188 261.043 94.6733 261.857 94.6733C262.654 94.6733 263.131 95.1974 263.131 96.071V100H264.674V95.8324C264.678 94.2642 263.783 93.3693 262.432 93.3693C261.452 93.3693 260.779 93.8381 260.48 94.5668H260.404V93.4545H258.929V100H260.472V96.1648ZM269.088 102.591C270.857 102.591 272.161 101.781 272.161 100.107V93.4545H270.64V94.5369H270.554C270.32 94.0639 269.83 93.3693 268.675 93.3693C267.162 93.3693 265.973 94.554 265.973 96.706C265.973 98.8409 267.162 99.9062 268.671 99.9062C269.792 99.9062 270.316 99.3054 270.554 98.8239H270.631V100.064C270.631 101.027 269.992 101.423 269.114 101.423C268.185 101.423 267.776 100.984 267.588 100.601L266.199 100.938C266.48 101.854 267.422 102.591 269.088 102.591ZM269.101 98.696C268.083 98.696 267.546 97.9034 267.546 96.6974C267.546 95.5085 268.074 94.6349 269.101 94.6349C270.094 94.6349 270.64 95.4574 270.64 96.6974C270.64 97.946 270.086 98.696 269.101 98.696ZM276.718 102.455H278.261V98.9688H278.325C278.568 99.446 279.075 100.115 280.2 100.115C281.743 100.115 282.897 98.892 282.897 96.7358C282.897 94.554 281.708 93.3693 280.196 93.3693C279.041 93.3693 278.559 94.0639 278.325 94.5369H278.235V93.4545H276.718V102.455ZM278.231 96.7273C278.231 95.4574 278.777 94.6349 279.77 94.6349C280.797 94.6349 281.325 95.5085 281.325 96.7273C281.325 97.9545 280.788 98.8494 279.77 98.8494C278.785 98.8494 278.231 97.9972 278.231 96.7273ZM285.761 96.1648C285.761 95.2188 286.349 94.6733 287.176 94.6733C287.985 94.6733 288.463 95.1889 288.463 96.071V100H290.005V95.8324C290.005 94.2514 289.11 93.3693 287.751 93.3693C286.745 93.3693 286.106 93.8253 285.804 94.5668H285.727V91.2727H284.218V100H285.761V96.1648ZM293.461 100.132C294.488 100.132 295.102 99.6506 295.383 99.1009H295.434V100H296.917V95.6193C296.917 93.8892 295.507 93.3693 294.258 93.3693C292.882 93.3693 291.825 93.983 291.484 95.1761L292.924 95.3807C293.078 94.9332 293.512 94.5497 294.267 94.5497C294.983 94.5497 295.375 94.9162 295.375 95.5597V95.5852C295.375 96.0284 294.91 96.0497 293.755 96.1733C292.485 96.3097 291.271 96.6889 291.271 98.1634C291.271 99.4503 292.213 100.132 293.461 100.132ZM293.862 98.9986C293.218 98.9986 292.758 98.7045 292.758 98.1378C292.758 97.5455 293.274 97.2983 293.964 97.2003C294.369 97.1449 295.179 97.0426 295.379 96.8807V97.652C295.379 98.3807 294.791 98.9986 293.862 98.9986ZM294.919 92.5341V92.142C295.375 92.0739 295.822 91.831 295.818 91.2898C295.822 90.5824 295.081 90.1477 293.674 90.1477L293.636 90.9105C294.13 90.9105 294.51 91.0128 294.505 91.3196C294.51 91.5582 294.284 91.6903 293.683 91.7159L293.743 92.5341H294.919ZM298.468 100H300.011V93.4545H298.468V100ZM299.244 92.5256C299.734 92.5256 300.135 92.1506 300.135 91.6903C300.135 91.2259 299.734 90.8509 299.244 90.8509C298.75 90.8509 298.349 91.2259 298.349 91.6903C298.349 92.1506 298.75 92.5256 299.244 92.5256ZM177.061 109.455H175.77V107.886H174.227V109.455H173.298V110.648H174.227V114.287C174.219 115.518 175.114 116.124 176.273 116.089C176.712 116.077 177.014 115.991 177.18 115.936L176.92 114.73C176.835 114.751 176.661 114.79 176.469 114.79C176.081 114.79 175.77 114.653 175.77 114.031V110.648H177.061V109.455ZM178.351 116H179.894V112.152C179.894 111.321 180.52 110.733 181.368 110.733C181.628 110.733 181.952 110.78 182.084 110.822V109.403C181.944 109.378 181.701 109.361 181.53 109.361C180.78 109.361 180.154 109.787 179.915 110.545H179.847V109.455H178.351V116ZM184.864 116.132C185.891 116.132 186.504 115.651 186.786 115.101H186.837V116H188.32V111.619C188.32 109.889 186.909 109.369 185.661 109.369C184.284 109.369 183.227 109.983 182.886 111.176L184.327 111.381C184.48 110.933 184.915 110.55 185.669 110.55C186.385 110.55 186.777 110.916 186.777 111.56V111.585C186.777 112.028 186.312 112.05 185.158 112.173C183.888 112.31 182.673 112.689 182.673 114.163C182.673 115.45 183.615 116.132 184.864 116.132ZM185.264 114.999C184.621 114.999 184.161 114.705 184.161 114.138C184.161 113.545 184.676 113.298 185.366 113.2C185.771 113.145 186.581 113.043 186.781 112.881V113.652C186.781 114.381 186.193 114.999 185.264 114.999ZM186.321 108.534V108.142C186.777 108.074 187.224 107.831 187.22 107.29C187.224 106.582 186.483 106.148 185.077 106.148L185.038 106.911C185.533 106.911 185.912 107.013 185.908 107.32C185.912 107.558 185.686 107.69 185.085 107.716L185.145 108.534H186.321ZM194.39 112.165C194.39 111.219 194.961 110.673 195.775 110.673C196.572 110.673 197.049 111.197 197.049 112.071V116H198.592V111.832C198.596 110.264 197.701 109.369 196.35 109.369C195.37 109.369 194.697 109.838 194.398 110.567H194.322V109.455H192.847V116H194.39V112.165ZM203.006 118.591C204.775 118.591 206.079 117.781 206.079 116.107V109.455H204.558V110.537H204.472C204.238 110.064 203.748 109.369 202.593 109.369C201.08 109.369 199.891 110.554 199.891 112.706C199.891 114.841 201.08 115.906 202.589 115.906C203.71 115.906 204.234 115.305 204.472 114.824H204.549V116.064C204.549 117.027 203.91 117.423 203.032 117.423C202.103 117.423 201.694 116.984 201.506 116.601L200.117 116.938C200.398 117.854 201.34 118.591 203.006 118.591ZM203.019 114.696C202.001 114.696 201.464 113.903 201.464 112.697C201.464 111.509 201.992 110.635 203.019 110.635C204.012 110.635 204.558 111.457 204.558 112.697C204.558 113.946 204.004 114.696 203.019 114.696ZM209.543 116.132C210.57 116.132 211.184 115.651 211.465 115.101H211.516V116H212.999V111.619C212.999 109.889 211.589 109.369 210.34 109.369C208.964 109.369 207.907 109.983 207.566 111.176L209.006 111.381C209.16 110.933 209.594 110.55 210.349 110.55C211.065 110.55 211.457 110.916 211.457 111.56V111.585C211.457 112.028 210.992 112.05 209.837 112.173C208.567 112.31 207.353 112.689 207.353 114.163C207.353 115.45 208.295 116.132 209.543 116.132ZM209.543 108.67L210.408 107.58L211.273 108.67H212.624V108.611L211.013 106.77H209.808L208.192 108.611V108.67H209.543ZM209.944 114.999C209.3 114.999 208.84 114.705 208.84 114.138C208.84 113.545 209.356 113.298 210.046 113.2C210.451 113.145 211.261 113.043 211.461 112.881V113.652C211.461 114.381 210.873 114.999 209.944 114.999ZM216.093 112.165C216.093 111.219 216.664 110.673 217.478 110.673C218.275 110.673 218.752 111.197 218.752 112.071V116H220.295V111.832C220.299 110.264 219.404 109.369 218.053 109.369C217.073 109.369 216.4 109.838 216.102 110.567H216.025V109.455H214.55V116H216.093V112.165ZM226.382 112.165C226.382 111.219 226.97 110.673 227.797 110.673C228.607 110.673 229.084 111.189 229.084 112.071V116H230.626V111.832C230.626 110.251 229.732 109.369 228.372 109.369C227.366 109.369 226.727 109.825 226.425 110.567H226.348V107.273H224.839V116H226.382V112.165ZM234.082 116.132C235.109 116.132 235.723 115.651 236.004 115.101H236.055V116H237.538V111.619C237.538 109.889 236.128 109.369 234.879 109.369C233.503 109.369 232.446 109.983 232.105 111.176L233.545 111.381C233.699 110.933 234.134 110.55 234.888 110.55C235.604 110.55 235.996 110.916 235.996 111.56V111.585C235.996 112.028 235.531 112.05 234.376 112.173C233.107 112.31 231.892 112.689 231.892 114.163C231.892 115.45 232.834 116.132 234.082 116.132ZM234.483 114.999C233.839 114.999 233.379 114.705 233.379 114.138C233.379 113.545 233.895 113.298 234.585 113.2C234.99 113.145 235.8 113.043 236 112.881V113.652C236 114.381 235.412 114.999 234.483 114.999ZM234.385 108.594H235.54L234.589 106.646H233.077L234.385 108.594ZM240.632 112.165C240.632 111.219 241.203 110.673 242.017 110.673C242.814 110.673 243.291 111.197 243.291 112.071V116H244.834V111.832C244.838 110.264 243.943 109.369 242.592 109.369C241.612 109.369 240.939 109.838 240.641 110.567H240.564V109.455H239.089V116H240.632V112.165ZM249.249 118.591C251.017 118.591 252.321 117.781 252.321 116.107V109.455H250.8V110.537H250.714C250.48 110.064 249.99 109.369 248.835 109.369C247.322 109.369 246.134 110.554 246.134 112.706C246.134 114.841 247.322 115.906 248.831 115.906C249.952 115.906 250.476 115.305 250.714 114.824H250.791V116.064C250.791 117.027 250.152 117.423 249.274 117.423C248.345 117.423 247.936 116.984 247.749 116.601L246.359 116.938C246.641 117.854 247.582 118.591 249.249 118.591ZM249.261 114.696C248.243 114.696 247.706 113.903 247.706 112.697C247.706 111.509 248.234 110.635 249.261 110.635C250.254 110.635 250.8 111.457 250.8 112.697C250.8 113.946 250.246 114.696 249.261 114.696Z" fill="#292D32"/>
<path d="M147.767 62.2812C143.905 69.325 144.483 73.7962 149.401 78.6418C150.738 79.9594 155.883 82.0926 154.321 81.1152" stroke="white" stroke-width="3" stroke-linecap="round"/>
<path d="M155.567 76.1211C157.224 77.736 159.225 79.8449 161.111 81.1394C162.611 82.1686 161.93 81.5246 161.208 82.1476C159.978 83.2088 151.535 87.2418 151.151 86.5438" stroke="white" stroke-width="3" stroke-linecap="round"/>
<defs>
<linearGradient id="paint0_linear" x1="188.741" y1="22.7234" x2="253.024" y2="78.187" gradientUnits="userSpaceOnUse">
<stop stop-color="#ECEFF0"/>
<stop offset="1" stop-color="white"/>
</linearGradient>
</defs>
</svg>
