<svg width="306" height="96" viewBox="0 0 306 96" fill="none" xmlns="http://www.w3.org/2000/svg">
<path d="M8.40553 10.5973H10.6875C10.6428 8.3857 8.7571 6.81965 5.97017 6.81965C3.22159 6.81965 1.15695 8.36652 1.16335 10.6804C1.16335 12.5597 2.49928 13.64 4.6534 14.1961L6.14275 14.5796C7.55539 14.9375 8.48863 15.3786 8.49502 16.3949C8.48863 17.5135 7.42755 18.2614 5.88068 18.2614C4.39772 18.2614 3.24715 17.5966 3.15127 16.2223H0.818176C0.914057 18.8239 2.85085 20.2877 5.89985 20.2877C9.03835 20.2877 10.8601 18.7216 10.8665 16.4141C10.8601 14.1449 8.98721 13.1094 7.01846 12.6428L5.79119 12.336C4.71732 12.0803 3.55397 11.6265 3.56676 10.5334C3.57315 9.54905 4.45525 8.82675 5.9382 8.82675C7.35085 8.82675 8.28408 9.48513 8.40553 10.5973Z" fill="white"/>
<path d="M17.161 20.2813C20.0375 20.2813 21.8656 18.255 21.8656 15.2188C21.8656 12.1762 20.0375 10.1435 17.161 10.1435C14.2846 10.1435 12.4565 12.1762 12.4565 15.2188C12.4565 18.255 14.2846 20.2813 17.161 20.2813ZM17.1738 18.4276C15.5822 18.4276 14.8024 17.0086 14.8024 15.2124C14.8024 13.4162 15.5822 11.978 17.1738 11.978C18.7399 11.978 19.5197 13.4162 19.5197 15.2124C19.5197 17.0086 18.7399 18.4276 17.1738 18.4276ZM13.8436 9.14635H15.774L17.1674 7.97021L18.5545 9.14635H20.4785L17.8769 7.04337H16.4323L13.8436 9.14635ZM19.7946 7.86794H21.2711L23.2463 5.50928H21.2136L19.7946 7.86794Z" fill="white"/>
<path d="M33.1971 10.2714H31.2603V7.91908H28.9464V10.2714H27.5529V12.0611H28.9464V17.5199C28.9336 19.3672 30.2759 20.2749 32.0146 20.2238C32.6729 20.2046 33.1268 20.0767 33.3761 19.9937L32.9861 18.1847C32.8583 18.2167 32.5962 18.2742 32.3086 18.2742C31.7269 18.2742 31.2603 18.0696 31.2603 17.1364V12.0611H33.1971V10.2714Z" fill="white"/>
<path d="M35.1323 20.0895H37.4462V10.2714H35.1323V20.0895ZM36.2956 8.87789C37.0307 8.87789 37.6316 8.31539 37.6316 7.62505C37.6316 6.92831 37.0307 6.36581 36.2956 6.36581C35.5541 6.36581 34.9533 6.92831 34.9533 7.62505C34.9533 8.31539 35.5541 8.87789 36.2956 8.87789Z" fill="white"/>
<path d="M44.1722 20.2813C46.4606 20.2813 48.033 19.1627 48.4421 17.456L46.2816 17.2131C45.9684 18.0441 45.2013 18.4787 44.2042 18.4787C42.7084 18.4787 41.7177 17.4944 41.6985 15.8133H48.538V15.1037C48.538 11.6584 46.467 10.1435 44.0508 10.1435C41.2383 10.1435 39.4038 12.2081 39.4038 15.238C39.4038 18.3189 41.2127 20.2813 44.1722 20.2813ZM41.7049 14.2536C41.7752 13.0008 42.7021 11.9461 44.0827 11.9461C45.4123 11.9461 46.3072 12.9177 46.32 14.2536H41.7049ZM44.6964 7.08172H43.2454L40.6758 9.1847H42.587L43.9869 8.00857L45.3675 9.1847H47.2915L44.6964 7.08172ZM39.9279 5.54124H37.9016L39.8959 7.9063H41.3405L39.9279 5.54124Z" fill="white"/>
<path d="M52.8095 14.3367C52.8095 12.9177 53.666 12.0995 54.8869 12.0995C56.0822 12.0995 56.7981 12.8857 56.7981 14.1961V20.0895H59.112V13.8381C59.1184 11.4858 57.7761 10.1435 55.7498 10.1435C54.2797 10.1435 53.2697 10.8466 52.8223 11.9397H52.7072V10.2714H50.4956V20.0895H52.8095V14.3367Z" fill="white"/>
<path d="M68.2431 6.99862H65.9291V20.0895H68.2431V6.99862Z" fill="white"/>
<path d="M73.4478 20.2877C74.9883 20.2877 75.9087 19.5654 76.3306 18.7408H76.4073V20.0895H78.6317V13.5185C78.6317 10.9233 76.516 10.1435 74.6431 10.1435C72.5785 10.1435 70.9932 11.064 70.4819 12.8537L72.6424 13.1606C72.8725 12.4894 73.5245 11.9141 74.6559 11.9141C75.7297 11.9141 76.3178 12.4638 76.3178 13.429V13.4674C76.3178 14.1321 75.6211 14.1641 73.8888 14.3495C71.984 14.554 70.1623 15.1229 70.1623 17.3346C70.1623 19.265 71.5749 20.2877 73.4478 20.2877ZM72.8661 9.07604C72.8661 8.49436 73.1857 8.10445 73.6395 8.10445C74.0231 8.10445 74.2851 8.28982 74.5664 8.49436C74.918 8.74365 75.3079 9.01851 75.9854 9.01212C77.1232 9.00573 78.0117 8.12362 78.0245 6.60232L76.6502 6.54479C76.6438 7.11368 76.337 7.52277 75.8512 7.52277C75.4805 7.52277 75.1928 7.33101 74.8796 7.12646C74.5089 6.88357 74.1062 6.6151 73.5053 6.6151C72.3611 6.6151 71.4663 7.52277 71.4663 9.04408L72.8661 9.07604ZM74.0486 18.5874C73.0834 18.5874 72.3931 18.1464 72.3931 17.2962C72.3931 16.4077 73.1665 16.037 74.202 15.89C74.8093 15.8069 76.0238 15.6535 76.3242 15.4106V16.5675C76.3242 17.6606 75.4421 18.5874 74.0486 18.5874Z" fill="white"/>
<path d="M80.9584 20.0895H83.2724V10.2714H80.9584V20.0895ZM82.1218 8.87789C82.8569 8.87789 83.4577 8.31539 83.4577 7.62505C83.4577 6.92831 82.8569 6.36581 82.1218 6.36581C81.3803 6.36581 80.7795 6.92831 80.7795 7.62505C80.7795 8.31539 81.3803 8.87789 82.1218 8.87789Z" fill="white"/>
<path d="M94.3993 20.2813C96.8666 20.2813 98.4391 18.8175 98.6053 16.7337H96.3936C96.1955 17.7884 95.4348 18.3956 94.4185 18.3956C92.9739 18.3956 92.0406 17.1875 92.0406 15.1804C92.0406 13.1989 92.9931 12.01 94.4185 12.01C95.5307 12.01 96.2147 12.7259 96.3936 13.6719H98.6053C98.4455 11.5434 96.7836 10.1435 94.3865 10.1435C91.5101 10.1435 89.6948 12.2209 89.6948 15.2188C89.6948 18.1911 91.4654 20.2813 94.3993 20.2813Z" fill="white"/>
<path d="M104.788 20.2813C107.664 20.2813 109.493 18.255 109.493 15.2188C109.493 12.1762 107.664 10.1435 104.788 10.1435C101.912 10.1435 100.083 12.1762 100.083 15.2188C100.083 18.255 101.912 20.2813 104.788 20.2813ZM104.801 18.4276C103.209 18.4276 102.429 17.0086 102.429 15.2124C102.429 13.4162 103.209 11.978 104.801 11.978C106.367 11.978 107.147 13.4162 107.147 15.2124C107.147 17.0086 106.367 18.4276 104.801 18.4276ZM103.944 8.98016H105.676L104.251 6.05899H101.982L103.944 8.98016Z" fill="white"/>
<path d="M113.77 14.3367C113.77 12.9177 114.627 12.0995 115.848 12.0995C117.043 12.0995 117.759 12.8857 117.759 14.1961V20.0895H120.073V13.8381C120.079 11.4858 118.737 10.1435 116.711 10.1435C115.241 10.1435 114.231 10.8466 113.783 11.9397H113.668V10.2714H111.456V20.0895H113.77V14.3367Z" fill="white"/>
<path d="M3.50284 30.9986H1.18891V44.0895H3.50284V30.9986Z" fill="white"/>
<path d="M8.70756 44.2877C10.248 44.2877 11.1685 43.5654 11.5904 42.7408H11.6671V44.0895H13.8915V37.5185C13.8915 34.9233 11.7757 34.1435 9.90287 34.1435C7.83824 34.1435 6.25301 35.064 5.74165 36.8537L7.90216 37.1606C8.13227 36.4894 8.78426 35.9141 9.91566 35.9141C10.9895 35.9141 11.5776 36.4638 11.5776 37.429V37.4674C11.5776 38.1321 10.8809 38.1641 9.14861 38.3495C7.24378 38.554 5.42205 39.1229 5.42205 41.3346C5.42205 43.265 6.83469 44.2877 8.70756 44.2877ZM9.30841 42.5874C8.34321 42.5874 7.65287 42.1464 7.65287 41.2962C7.65287 40.4077 8.42631 40.037 9.46182 39.89C10.0691 39.8069 11.2836 39.6535 11.584 39.4106V40.5675C11.584 41.6606 10.7019 42.5874 9.30841 42.5874ZM9.91566 47.6179C10.6507 47.6179 11.2516 47.0554 11.2516 46.3651C11.2516 45.6684 10.6507 45.1059 9.91566 45.1059C9.17418 45.1059 8.57333 45.6684 8.57333 46.3651C8.57333 47.0554 9.17418 47.6179 9.91566 47.6179Z" fill="white"/>
<path d="M16.2182 44.0895H18.5321V34.2714H16.2182V44.0895ZM17.3816 32.8779C18.1166 32.8779 18.7175 32.3154 18.7175 31.625C18.7175 30.9283 18.1166 30.3658 17.3816 30.3658C16.6401 30.3658 16.0392 30.9283 16.0392 31.625C16.0392 32.3154 16.6401 32.8779 17.3816 32.8779Z" fill="white"/>
<path d="M25.3764 47.7714H27.6903V42.5427H27.7862C28.1506 43.2586 28.9112 44.2621 30.5987 44.2621C32.9126 44.2621 34.6449 42.4276 34.6449 39.1932C34.6449 35.9205 32.8615 34.1435 30.5923 34.1435C28.8601 34.1435 28.1378 35.1854 27.7862 35.8949H27.652V34.2714H25.3764V47.7714ZM27.6456 39.1804C27.6456 37.2756 28.4638 36.042 29.9531 36.042C31.4936 36.042 32.2862 37.3523 32.2862 39.1804C32.2862 41.0214 31.4808 42.3637 29.9531 42.3637C28.4766 42.3637 27.6456 41.0853 27.6456 39.1804Z" fill="white"/>
<path d="M38.9403 38.3367C38.9403 36.9177 39.8224 36.0995 41.0625 36.0995C42.277 36.0995 42.9929 36.8729 42.9929 38.1961V44.0895H45.3068V37.8381C45.3068 35.4667 43.9645 34.1435 41.9254 34.1435C40.4169 34.1435 39.4581 34.8275 39.0043 35.9397H38.8892V30.9986H36.6264V44.0895H38.9403V38.3367Z" fill="white"/>
<path d="M50.4908 44.2877C52.0312 44.2877 52.9517 43.5654 53.3736 42.7408H53.4503V44.0895H55.6747V37.5185C55.6747 34.9233 53.5589 34.1435 51.6861 34.1435C49.6214 34.1435 48.0362 35.064 47.5249 36.8537L49.6854 37.1606C49.9155 36.4894 50.5675 35.9141 51.6989 35.9141C52.7727 35.9141 53.3608 36.4638 53.3608 37.429V37.4674C53.3608 38.1321 52.6641 38.1641 50.9318 38.3495C49.027 38.554 47.2053 39.1229 47.2053 41.3346C47.2053 43.265 48.6179 44.2877 50.4908 44.2877ZM51.0916 42.5874C50.1264 42.5874 49.4361 42.1464 49.4361 41.2962C49.4361 40.4077 50.2095 40.037 51.245 39.89C51.8523 39.8069 53.0668 39.6535 53.3672 39.4106V40.5675C53.3672 41.6606 52.4851 42.5874 51.0916 42.5874ZM52.6768 32.8907V32.3026C53.3608 32.2003 54.032 31.836 54.0256 31.0242C54.032 29.9631 52.9197 29.3111 50.8104 29.3111L50.7528 30.4553C51.4943 30.4553 52.0632 30.6087 52.0568 31.0689C52.0632 31.4269 51.7244 31.625 50.8232 31.6634L50.9126 32.8907H52.6768Z" fill="white"/>
<path d="M58.0014 44.0895H60.3153V34.2714H58.0014V44.0895ZM59.1648 32.8779C59.8999 32.8779 60.5007 32.3154 60.5007 31.625C60.5007 30.9283 59.8999 30.3658 59.1648 30.3658C58.4233 30.3658 57.8224 30.9283 57.8224 31.625C57.8224 32.3154 58.4233 32.8779 59.1648 32.8779Z" fill="white"/>
<path d="M72.0623 34.2714H70.1255V31.9191H67.8116V34.2714H66.4181V36.0611H67.8116V41.5199C67.7988 43.3672 69.1411 44.2749 70.8798 44.2238C71.5382 44.2046 71.992 44.0768 72.2413 43.9937L71.8514 42.1847C71.7235 42.2167 71.4615 42.2742 71.1738 42.2742C70.5921 42.2742 70.1255 42.0696 70.1255 41.1364V36.0611H72.0623V34.2714Z" fill="white"/>
<path d="M73.9975 44.0895H76.3114V38.3175C76.3114 37.0711 77.2511 36.189 78.5231 36.189C78.913 36.189 79.3988 36.2593 79.5969 36.3232V34.1946C79.386 34.1563 79.0217 34.1307 78.766 34.1307C77.641 34.1307 76.7013 34.7699 76.3434 35.9077H76.2411V34.2714H73.9975V44.0895Z" fill="white"/>
<path d="M83.7662 44.2877C85.3066 44.2877 86.2271 43.5654 86.649 42.7408H86.7257V44.0895H88.9501V37.5185C88.9501 34.9233 86.8343 34.1435 84.9615 34.1435C82.8968 34.1435 81.3116 35.064 80.8002 36.8537L82.9608 37.1606C83.1909 36.4894 83.8428 35.9141 84.9742 35.9141C86.0481 35.9141 86.6362 36.4638 86.6362 37.429V37.4674C86.6362 38.1321 85.9394 38.1641 84.2072 38.3495C82.3024 38.554 80.4806 39.1229 80.4806 41.3346C80.4806 43.265 81.8933 44.2877 83.7662 44.2877ZM84.367 42.5874C83.4018 42.5874 82.7115 42.1464 82.7115 41.2962C82.7115 40.4077 83.4849 40.037 84.5204 39.89C85.1277 39.8069 86.3421 39.6535 86.6426 39.4106V40.5675C86.6426 41.6606 85.7605 42.5874 84.367 42.5874ZM85.9522 32.8907V32.3026C86.6362 32.2003 87.3073 31.836 87.3009 31.0242C87.3073 29.9631 86.1951 29.3111 84.0858 29.3111L84.0282 30.4553C84.7697 30.4553 85.3386 30.6087 85.3322 31.0689C85.3386 31.4269 84.9998 31.625 84.0985 31.6634L84.188 32.8907H85.9522Z" fill="white"/>
<path d="M171.437 27.4602C174.339 27.4602 176.218 26.1946 177.177 24.3665H177.33V27.0895H182.495V13.8452C182.495 9.16619 178.532 7.19744 174.16 7.19744C169.455 7.19744 166.361 9.44744 165.607 13.027L170.644 13.4361C171.015 12.1321 172.178 11.1733 174.134 11.1733C175.988 11.1733 177.049 12.1065 177.049 13.7173V13.794C177.049 15.0597 175.707 15.2259 172.293 15.5582C168.407 15.9162 164.917 17.2202 164.917 21.6051C164.917 25.4915 167.691 27.4602 171.437 27.4602ZM172.996 23.7017C171.322 23.7017 170.12 22.9219 170.12 21.4261C170.12 19.892 171.386 19.1378 173.303 18.8693C174.492 18.7031 176.435 18.4219 177.087 17.9872V20.071C177.087 22.1293 175.387 23.7017 172.996 23.7017Z" fill="url(#paint0_linear)"/>
<path d="M201 22.1804C201.013 25.3253 203.02 27.9972 206.766 27.9972C210.473 27.9972 212.544 25.3253 212.531 22.1804V20.7997C212.544 17.6293 210.524 14.983 206.766 14.983C203.071 14.983 201.013 17.6548 201 20.7997V22.1804ZM187.564 7.19744C187.577 10.3423 189.584 12.9886 193.317 12.9886C197.037 12.9886 199.108 10.3679 199.095 7.19744V5.81676C199.108 2.64631 197.088 0 193.317 0C189.66 0 187.577 2.64631 187.564 5.81676V7.19744ZM188.817 27.0895H192.153L210.153 0.90767H206.817L188.817 27.0895ZM204.72 20.7997C204.733 19.5469 205.232 18.2557 206.766 18.2557C208.376 18.2557 208.798 19.5469 208.785 20.7997V22.1804C208.798 23.4332 208.325 24.6989 206.766 24.6989C205.206 24.6989 204.733 23.3949 204.72 22.1804V20.7997ZM191.31 5.81676C191.322 4.60227 191.795 3.27273 193.317 3.27273C194.928 3.27273 195.362 4.56392 195.349 5.81676V7.19744C195.362 8.45028 194.876 9.71591 193.317 9.71591C191.808 9.71591 191.322 8.45028 191.31 7.19744V5.81676Z" fill="url(#paint1_linear)"/>
<path d="M229.892 11.8381H217.952V16.1591H229.892V11.8381Z" fill="url(#paint2_linear)"/>
<path d="M234.085 22.4872H246.652V27.0895H251.945V22.4872H255.192V18.0511H251.945V0.90767H245.016L234.085 18.1278V22.4872ZM246.754 18.0511H239.659V17.8466L246.55 6.94176H246.754V18.0511Z" fill="url(#paint3_linear)"/>
<path d="M273.211 22.1804C273.224 25.3253 275.231 27.9972 278.977 27.9972C282.684 27.9972 284.755 25.3253 284.742 22.1804V20.7997C284.755 17.6293 282.735 14.983 278.977 14.983C275.282 14.983 273.224 17.6548 273.211 20.7997V22.1804ZM259.775 7.19744C259.788 10.3423 261.795 12.9886 265.528 12.9886C269.248 12.9886 271.319 10.3679 271.306 7.19744V5.81676C271.319 2.64631 269.299 0 265.528 0C261.871 0 259.788 2.64631 259.775 5.81676V7.19744ZM261.028 27.0895H264.364L282.364 0.90767H279.028L261.028 27.0895ZM276.931 20.7997C276.944 19.5469 277.442 18.2557 278.977 18.2557C280.587 18.2557 281.009 19.5469 280.996 20.7997V22.1804C281.009 23.4332 280.536 24.6989 278.977 24.6989C277.417 24.6989 276.944 23.3949 276.931 22.1804V20.7997ZM263.521 5.81676C263.533 4.60227 264.006 3.27273 265.528 3.27273C267.138 3.27273 267.573 4.56392 267.56 5.81676V7.19744C267.573 8.45028 267.087 9.71591 265.528 9.71591C264.019 9.71591 263.533 8.45028 263.521 7.19744V5.81676Z" fill="url(#paint4_linear)"/>
<path fill-rule="evenodd" clip-rule="evenodd" d="M141.972 14.2299C139.385 14.4459 136.724 14.6681 134.043 14.7251C132.938 14.7486 132.024 13.8725 132 12.7681C131.977 11.6638 132.853 10.7495 133.957 10.7261C136.51 10.6718 139.05 10.4598 141.662 10.2418C141.864 10.225 142.066 10.2081 142.268 10.1913C145.07 9.95854 147.95 9.7334 150.867 9.7334C151.972 9.7334 152.867 10.6288 152.867 11.7334C152.867 12.838 151.972 13.7334 150.867 13.7334C148.136 13.7334 145.408 13.9443 142.599 14.1776C142.391 14.1949 142.181 14.2124 141.972 14.2299Z" fill="white"/>
<path fill-rule="evenodd" clip-rule="evenodd" d="M132 21.6553C132 20.5507 132.895 19.6553 134 19.6553H151.86C152.964 19.6553 153.86 20.5507 153.86 21.6553C153.86 22.7598 152.964 23.6553 151.86 23.6553H134C132.895 23.6553 132 22.7598 132 21.6553Z" fill="white"/>
<path d="M175.74 57.2711H176.776L176.682 55.5453L178.131 56.4956L178.651 55.5922L177.099 54.8166L178.651 54.041L178.131 53.1376L176.682 54.0879L176.776 52.362H175.74L175.838 54.0879L174.389 53.1376L173.869 54.041L175.416 54.8166L173.869 55.5922L174.389 56.4956L175.838 55.5453L175.74 57.2711Z" fill="#292D32"/>
<path d="M179.993 53.6873H182.69V61.0893H184.259V53.6873H186.956V52.362H179.993V53.6873Z" fill="#292D32"/>
<path d="M187.55 61.0893H189.093V57.2413C189.093 56.4103 189.719 55.8223 190.567 55.8223C190.827 55.8223 191.151 55.8691 191.283 55.9118V54.4927C191.143 54.4672 190.9 54.4501 190.729 54.4501C189.979 54.4501 189.353 54.8762 189.114 55.6348H189.046V54.5439H187.55V61.0893Z" fill="#292D32"/>
<path d="M194.894 61.2172C196.811 61.2172 198.03 59.8663 198.03 57.8422C198.03 55.8137 196.811 54.4586 194.894 54.4586C192.976 54.4586 191.757 55.8137 191.757 57.8422C191.757 59.8663 192.976 61.2172 194.894 61.2172ZM194.902 59.9814C193.841 59.9814 193.321 59.0353 193.321 57.8379C193.321 56.6404 193.841 55.6816 194.902 55.6816C195.946 55.6816 196.466 56.6404 196.466 57.8379C196.466 59.0353 195.946 59.9814 194.902 59.9814Z" fill="#292D32"/>
<path d="M200.882 57.2541C200.882 56.3081 201.453 55.7626 202.267 55.7626C203.064 55.7626 203.541 56.2868 203.541 57.1603V61.0893H205.084V56.9217C205.088 55.3535 204.193 54.4586 202.842 54.4586C201.862 54.4586 201.189 54.9274 200.891 55.6561H200.814V54.5439H199.339V61.0893H200.882V57.2541Z" fill="#292D32"/>
<path d="M209.499 63.6802C211.267 63.6802 212.571 62.8706 212.571 61.1958V54.5439H211.05V55.6262H210.964C210.73 55.1532 210.24 54.4586 209.085 54.4586C207.572 54.4586 206.384 55.6433 206.384 57.7953C206.384 59.9302 207.572 60.9956 209.081 60.9956C210.202 60.9956 210.726 60.3947 210.964 59.9132H211.041V61.1532C211.041 62.1163 210.402 62.5126 209.524 62.5126C208.595 62.5126 208.186 62.0737 207.999 61.6902L206.609 62.0268C206.891 62.943 207.832 63.6802 209.499 63.6802ZM209.511 59.7853C208.493 59.7853 207.956 58.9927 207.956 57.7868C207.956 56.5978 208.484 55.7243 209.511 55.7243C210.504 55.7243 211.05 56.5467 211.05 57.7868C211.05 59.0353 210.496 59.7853 209.511 59.7853Z" fill="#292D32"/>
<path d="M219.558 61.2044C220.683 61.2044 221.19 60.5353 221.433 60.0581H221.526V61.0893H223.043V54.0538H223.849V53.0779H223.043V52.362H221.496V53.0779H219.766V54.0538H221.496V55.6262H221.433C221.198 55.1532 220.717 54.4586 219.562 54.4586C218.049 54.4586 216.86 55.6433 216.86 57.8251C216.86 59.9814 218.015 61.2044 219.558 61.2044ZM219.988 59.9387C218.969 59.9387 218.433 59.0439 218.433 57.8166C218.433 56.5978 218.961 55.7243 219.988 55.7243C220.981 55.7243 221.526 56.5467 221.526 57.8166C221.526 59.0865 220.972 59.9387 219.988 59.9387Z" fill="#292D32"/>
<path d="M227.542 61.2172C229.46 61.2172 230.679 59.8663 230.679 57.8422C230.679 55.8137 229.46 54.4586 227.542 54.4586C225.625 54.4586 224.406 55.8137 224.406 57.8422C224.406 59.8663 225.625 61.2172 227.542 61.2172ZM227.551 59.9814C226.49 59.9814 225.97 59.0353 225.97 57.8379C225.97 56.6404 226.49 55.6816 227.551 55.6816C228.595 55.6816 229.115 56.6404 229.115 57.8379C229.115 59.0353 228.595 59.9814 227.551 59.9814ZM226.95 53.6831H228.105L229.413 51.7356H227.904L226.95 53.6831Z" fill="#292D32"/>
<path d="M233.799 59.8961H232.435L232.406 60.3734C232.333 61.5282 232.031 62.7044 231.907 63.22H232.947C233.151 62.6831 233.624 61.4387 233.744 60.3649L233.799 59.8961Z" fill="#292D32"/>
<path d="M240.118 61.2214C241.145 61.2214 241.758 60.7399 242.039 60.1902H242.091V61.0893H243.573V56.7086C243.573 54.9785 242.163 54.4586 240.914 54.4586C239.538 54.4586 238.481 55.0723 238.14 56.2654L239.581 56.47C239.734 56.0226 240.169 55.639 240.923 55.639C241.639 55.639 242.031 56.0055 242.031 56.649V56.6745C242.031 57.1177 241.566 57.139 240.412 57.2626C239.142 57.399 237.927 57.7782 237.927 59.2527C237.927 60.5396 238.869 61.2214 240.118 61.2214ZM240.518 60.0879C239.875 60.0879 239.414 59.7939 239.414 59.2271C239.414 58.6348 239.93 58.3876 240.62 58.2896C241.025 58.2342 241.835 58.1319 242.035 57.97V58.7413C242.035 59.47 241.447 60.0879 240.518 60.0879Z" fill="#292D32"/>
<path d="M249.644 52.362H248.101V61.0893H249.644V52.362Z" fill="#292D32"/>
<path d="M253.114 61.2214C254.141 61.2214 254.754 60.7399 255.035 60.1902H255.087V61.0893H256.57V56.7086C256.57 54.9785 255.159 54.4586 253.91 54.4586C252.534 54.4586 251.477 55.0723 251.136 56.2654L252.577 56.47C252.73 56.0226 253.165 55.639 253.919 55.639C254.635 55.639 255.027 56.0055 255.027 56.649V56.6745C255.027 57.1177 254.562 57.139 253.408 57.2626C252.138 57.399 250.923 57.7782 250.923 59.2527C250.923 60.5396 251.865 61.2214 253.114 61.2214ZM253.514 60.0879C252.871 60.0879 252.41 59.7939 252.41 59.2271C252.41 58.6348 252.926 58.3876 253.616 58.2896C254.021 58.2342 254.831 58.1319 255.031 57.97V58.7413C255.031 59.47 254.443 60.0879 253.514 60.0879ZM253.416 53.6831H254.571L253.621 51.7356H252.108L253.416 53.6831Z" fill="#292D32"/>
<path d="M266.271 56.274C266.058 55.166 265.171 54.4586 263.637 54.4586C262.06 54.4586 260.986 55.2342 260.991 56.4444C260.986 57.399 261.575 58.0297 262.832 58.2896L263.948 58.524C264.549 58.6561 264.83 58.899 264.83 59.2697C264.83 59.7172 264.344 60.0538 263.611 60.0538C262.904 60.0538 262.444 59.747 262.312 59.1589L260.808 59.3038C260.999 60.5055 262.009 61.2172 263.616 61.2172C265.252 61.2172 266.407 60.3691 266.411 59.1291C266.407 58.1958 265.806 57.6248 264.57 57.3564L263.454 57.1177C262.789 56.9686 262.525 56.7385 262.529 56.3592C262.525 55.916 263.015 55.6092 263.658 55.6092C264.37 55.6092 264.745 55.997 264.864 56.4274L266.271 56.274Z" fill="#292D32"/>
<path d="M270.538 61.2172C272.456 61.2172 273.675 59.8663 273.675 57.8422C273.675 55.8137 272.456 54.4586 270.538 54.4586C268.621 54.4586 267.402 55.8137 267.402 57.8422C267.402 59.8663 268.621 61.2172 270.538 61.2172ZM270.547 59.9814C269.486 59.9814 268.966 59.0353 268.966 57.8379C268.966 56.6404 269.486 55.6816 270.547 55.6816C271.591 55.6816 272.111 56.6404 272.111 57.8379C272.111 59.0353 271.591 59.9814 270.547 59.9814ZM268.327 53.7939H269.614L270.543 53.0098L271.467 53.7939H272.75L271.016 52.3919H270.053L268.327 53.7939ZM272.294 52.9416H273.278L274.595 51.3691H273.24L272.294 52.9416Z" fill="#292D32"/>
<path d="M277.961 63.5439H279.503V60.0581H279.567C279.81 60.5353 280.317 61.2044 281.442 61.2044C282.985 61.2044 284.14 59.9814 284.14 57.8251C284.14 55.6433 282.951 54.4586 281.438 54.4586C280.283 54.4586 279.801 55.1532 279.567 55.6262H279.478V54.5439H277.961V63.5439ZM279.473 57.8166C279.473 56.5467 280.019 55.7243 281.012 55.7243C282.039 55.7243 282.567 56.5978 282.567 57.8166C282.567 59.0439 282.03 59.9387 281.012 59.9387C280.027 59.9387 279.473 59.0865 279.473 57.8166Z" fill="#292D32"/>
<path d="M287.003 57.2541C287.003 56.3081 287.591 55.7626 288.418 55.7626C289.228 55.7626 289.705 56.2782 289.705 57.1603V61.0893H291.247V56.9217C291.247 55.3407 290.353 54.4586 288.993 54.4586C287.988 54.4586 287.348 54.9146 287.046 55.6561H286.969V52.362H285.461V61.0893H287.003V57.2541Z" fill="#292D32"/>
<path d="M294.703 61.2214C295.73 61.2214 296.344 60.7399 296.625 60.1902H296.676V61.0893H298.159V56.7086C298.159 54.9785 296.749 54.4586 295.5 54.4586C294.124 54.4586 293.067 55.0723 292.726 56.2654L294.167 56.47C294.32 56.0226 294.755 55.639 295.509 55.639C296.225 55.639 296.617 56.0055 296.617 56.649V56.6745C296.617 57.1177 296.152 57.139 294.997 57.2626C293.728 57.399 292.513 57.7782 292.513 59.2527C292.513 60.5396 293.455 61.2214 294.703 61.2214ZM295.104 60.0879C294.461 60.0879 294 59.7939 294 59.2271C294 58.6348 294.516 58.3876 295.206 58.2896C295.611 58.2342 296.421 58.1319 296.621 57.97V58.7413C296.621 59.47 296.033 60.0879 295.104 60.0879ZM296.046 52.4174H295.078L293.365 53.8194H294.64L295.573 53.0353L296.493 53.8194H297.776L296.046 52.4174ZM292.867 51.3904H291.516L292.846 52.9672H293.809L292.867 51.3904Z" fill="#292D32"/>
<path d="M301.253 57.2541C301.253 56.3081 301.824 55.7626 302.638 55.7626C303.435 55.7626 303.912 56.2868 303.912 57.1603V61.0893H305.455V56.9217C305.459 55.3535 304.564 54.4586 303.213 54.4586C302.233 54.4586 301.56 54.9274 301.262 55.6561H301.185V54.5439H299.711V61.0893H301.253V57.2541Z" fill="#292D32"/>
<path d="M177.061 70.5439H175.77V68.9757H174.227V70.5439H173.298V71.737H174.227V75.3762C174.219 76.6078 175.114 77.2129 176.273 77.1788C176.712 77.166 177.014 77.0808 177.18 77.0254L176.92 75.8194C176.835 75.8407 176.66 75.8791 176.469 75.8791C176.081 75.8791 175.77 75.7427 175.77 75.1206V71.737H177.061V70.5439Z" fill="#292D32"/>
<path d="M178.351 77.0893H179.894V73.2413C179.894 72.4103 180.52 71.8223 181.368 71.8223C181.628 71.8223 181.952 71.8691 182.084 71.9118V70.4927C181.944 70.4672 181.701 70.4501 181.53 70.4501C180.78 70.4501 180.154 70.8762 179.915 71.6348H179.847V70.5439H178.351V77.0893Z" fill="#292D32"/>
<path d="M184.864 77.2214C185.891 77.2214 186.504 76.7399 186.785 76.1902H186.837V77.0893H188.32V72.7086C188.32 70.9785 186.909 70.4586 185.66 70.4586C184.284 70.4586 183.227 71.0723 182.886 72.2654L184.327 72.47C184.48 72.0226 184.915 71.639 185.669 71.639C186.385 71.639 186.777 72.0055 186.777 72.649V72.6745C186.777 73.1177 186.312 73.139 185.158 73.2626C183.888 73.399 182.673 73.7782 182.673 75.2527C182.673 76.5396 183.615 77.2214 184.864 77.2214ZM186.572 68.2939C186.568 68.7115 186.33 69.0822 185.729 69.0822C185.119 69.0822 184.889 68.7029 184.889 68.2939H183.743C183.739 69.291 184.51 69.9643 185.729 69.9643C186.956 69.9643 187.727 69.291 187.727 68.2939H186.572ZM185.264 76.0879C184.621 76.0879 184.16 75.7939 184.16 75.2271C184.16 74.6348 184.676 74.3876 185.366 74.2896C185.771 74.2342 186.581 74.1319 186.781 73.97V74.7413C186.781 75.47 186.193 76.0879 185.264 76.0879Z" fill="#292D32"/>
<path d="M189.871 77.0893H191.413V73.1092C191.413 72.3038 191.95 71.7583 192.615 71.7583C193.267 71.7583 193.714 72.1973 193.714 72.8706V77.0893H195.227V73.0069C195.227 72.2697 195.666 71.7583 196.412 71.7583C197.034 71.7583 197.528 72.1248 197.528 72.9345V77.0893H199.075V72.6958C199.075 71.2342 198.232 70.4586 197.03 70.4586C196.08 70.4586 195.355 70.9274 195.065 71.6561H194.997C194.746 70.9146 194.111 70.4586 193.229 70.4586C192.351 70.4586 191.695 70.9103 191.422 71.6561H191.345V70.5439H189.871V77.0893Z" fill="#292D32"/>
<path d="M205.159 68.362H203.617V77.0893H205.159V68.362Z" fill="#292D32"/>
<path d="M208.629 77.2214C209.656 77.2214 210.27 76.7399 210.551 76.1902H210.602V77.0893H212.085V72.7086C212.085 70.9785 210.675 70.4586 209.426 70.4586C208.05 70.4586 206.993 71.0723 206.652 72.2654L208.092 72.47C208.246 72.0226 208.68 71.639 209.435 71.639C210.151 71.639 210.543 72.0055 210.543 72.649V72.6745C210.543 73.1177 210.078 73.139 208.923 73.2626C207.653 73.399 206.439 73.7782 206.439 75.2527C206.439 76.5396 207.381 77.2214 208.629 77.2214ZM208.241 69.747C208.241 69.3592 208.455 69.0993 208.757 69.0993C209.013 69.0993 209.187 69.2228 209.375 69.3592C209.609 69.5254 209.869 69.7086 210.321 69.7044C211.08 69.7001 211.672 69.112 211.68 68.0978L210.764 68.0595C210.76 68.4387 210.555 68.7115 210.232 68.7115C209.984 68.7115 209.793 68.5836 209.584 68.4473C209.337 68.2853 209.068 68.1064 208.668 68.1064C207.905 68.1064 207.308 68.7115 207.308 69.7257L208.241 69.747ZM209.03 76.0879C208.386 76.0879 207.926 75.7939 207.926 75.2271C207.926 74.6348 208.442 74.3876 209.132 74.2896C209.537 74.2342 210.347 74.1319 210.547 73.97V74.7413C210.547 75.47 209.959 76.0879 209.03 76.0879Z" fill="#292D32"/>
<path d="M213.636 77.0893H215.179V70.5439H213.636V77.0893ZM214.412 69.6149C214.902 69.6149 215.303 69.2399 215.303 68.7797C215.303 68.3152 214.902 67.9402 214.412 67.9402C213.918 67.9402 213.517 68.3152 213.517 68.7797C213.517 69.2399 213.918 69.6149 214.412 69.6149Z" fill="#292D32"/>
<path d="M224.915 72.274C224.702 71.166 223.816 70.4586 222.282 70.4586C220.705 70.4586 219.631 71.2342 219.635 72.4444C219.631 73.399 220.219 74.0297 221.476 74.2896L222.593 74.524C223.194 74.6561 223.475 74.899 223.475 75.2697C223.475 75.7172 222.989 76.0538 222.256 76.0538C221.549 76.0538 221.088 75.747 220.956 75.1589L219.452 75.3038C219.644 76.5055 220.654 77.2172 222.26 77.2172C223.897 77.2172 225.051 76.3691 225.056 75.1291C225.051 74.1958 224.451 73.6248 223.215 73.3564L222.098 73.1177C221.434 72.9686 221.169 72.7385 221.174 72.3592C221.169 71.916 221.659 71.6092 222.303 71.6092C223.015 71.6092 223.39 71.997 223.509 72.4274L224.915 72.274Z" fill="#292D32"/>
<path d="M230.5 74.3365C230.5 75.3336 229.788 75.8279 229.106 75.8279C228.365 75.8279 227.87 75.3038 227.87 74.4728V70.5439H226.328V74.7115C226.328 76.2839 227.223 77.1745 228.51 77.1745C229.49 77.1745 230.18 76.6589 230.478 75.926H230.547V77.0893H232.042V70.5439H230.5V74.3365Z" fill="#292D32"/>
<path d="M235.512 77.2214C236.539 77.2214 237.153 76.7399 237.434 76.1902H237.485V77.0893H238.968V72.7086C238.968 70.9785 237.558 70.4586 236.309 70.4586C234.933 70.4586 233.876 71.0723 233.535 72.2654L234.975 72.47C235.129 72.0226 235.563 71.639 236.317 71.639C237.033 71.639 237.425 72.0055 237.425 72.649V72.6745C237.425 73.1177 236.961 73.139 235.806 73.2626C234.536 73.399 233.322 73.7782 233.322 75.2527C233.322 76.5396 234.263 77.2214 235.512 77.2214ZM235.913 76.0879C235.269 76.0879 234.809 75.7939 234.809 75.2271C234.809 74.6348 235.325 74.3876 236.015 74.2896C236.42 74.2342 237.229 74.1319 237.43 73.97V74.7413C237.43 75.47 236.842 76.0879 235.913 76.0879ZM234.165 69.7939H235.452L236.381 69.0098L237.306 69.7939H238.589L236.854 68.3919H235.891L234.165 69.7939ZM238.133 68.9416H239.117L240.434 67.3691H239.079L238.133 68.9416Z" fill="#292D32"/>
<path d="M243.788 70.5439H242.496V68.9757H240.954V70.5439H240.025V71.737H240.954V75.3762C240.945 76.6078 241.84 77.2129 242.999 77.1788C243.438 77.166 243.741 77.0808 243.907 77.0254L243.647 75.8194C243.562 75.8407 243.387 75.8791 243.195 75.8791C242.808 75.8791 242.496 75.7427 242.496 75.1206V71.737H243.788V70.5439Z" fill="#292D32"/>
<path d="M251.323 70.5439H250.032V68.9757H248.489V70.5439H247.56V71.737H248.489V75.3762C248.48 76.6078 249.375 77.2129 250.534 77.1788C250.973 77.166 251.276 77.0808 251.442 77.0254L251.182 75.8194C251.097 75.8407 250.922 75.8791 250.73 75.8791C250.343 75.8791 250.032 75.7427 250.032 75.1206V71.737H251.323V70.5439Z" fill="#292D32"/>
<path d="M252.613 77.0893H254.156V73.2413C254.156 72.4103 254.782 71.8223 255.63 71.8223C255.89 71.8223 256.214 71.8691 256.346 71.9118V70.4927C256.205 70.4672 255.962 70.4501 255.792 70.4501C255.042 70.4501 254.415 70.8762 254.177 71.6348H254.109V70.5439H252.613V77.0893Z" fill="#292D32"/>
<path d="M259.956 77.2172C261.874 77.2172 263.093 75.8663 263.093 73.8422C263.093 71.8137 261.874 70.4586 259.956 70.4586C258.039 70.4586 256.82 71.8137 256.82 73.8422C256.82 75.8663 258.039 77.2172 259.956 77.2172ZM259.965 75.9814C258.904 75.9814 258.384 75.0353 258.384 73.8379C258.384 72.6404 258.904 71.6816 259.965 71.6816C261.009 71.6816 261.529 72.6404 261.529 73.8379C261.529 75.0353 261.009 75.9814 259.965 75.9814Z" fill="#292D32"/>
<path d="M265.945 73.2541C265.945 72.3081 266.516 71.7626 267.33 71.7626C268.126 71.7626 268.604 72.2868 268.604 73.1603V77.0893H270.146V72.9217C270.151 71.3535 269.256 70.4586 267.905 70.4586C266.925 70.4586 266.251 70.9274 265.953 71.6561H265.876V70.5439H264.402V77.0893H265.945V73.2541Z" fill="#292D32"/>
<path d="M274.561 79.6802C276.33 79.6802 277.634 78.8706 277.634 77.1958V70.5439H276.112V71.6262H276.027C275.793 71.1532 275.303 70.4586 274.148 70.4586C272.635 70.4586 271.446 71.6433 271.446 73.7953C271.446 75.9302 272.635 76.9956 274.143 76.9956C275.264 76.9956 275.788 76.3947 276.027 75.9132H276.104V77.1532C276.104 78.1163 275.464 78.5126 274.587 78.5126C273.658 78.5126 273.249 78.0737 273.061 77.6902L271.672 78.0268C271.953 78.943 272.895 79.6802 274.561 79.6802ZM274.574 75.7853C273.555 75.7853 273.018 74.9927 273.018 73.7868C273.018 72.5978 273.547 71.7243 274.574 71.7243C275.567 71.7243 276.112 72.5467 276.112 73.7868C276.112 75.0353 275.558 75.7853 274.574 75.7853Z" fill="#292D32"/>
<path d="M283.734 73.2541C283.734 72.3081 284.322 71.7626 285.148 71.7626C285.958 71.7626 286.435 72.2782 286.435 73.1603V77.0893H287.978V72.9217C287.978 71.3407 287.083 70.4586 285.724 70.4586C284.718 70.4586 284.079 70.9146 283.776 71.6561H283.7V68.362H282.191V77.0893H283.734V73.2541Z" fill="#292D32"/>
<path d="M295.175 70.1262C295.175 70.7569 295.094 71.2299 294.758 71.4643C294.212 70.8251 293.403 70.4586 292.406 70.4586C290.488 70.4586 289.269 71.8137 289.269 73.8422C289.269 75.8663 290.488 77.2172 292.406 77.2172C294.323 77.2172 295.542 75.8663 295.542 73.8422C295.542 73.2029 295.423 72.6319 295.197 72.1504C295.904 71.8223 296.207 71.1149 296.207 70.1262H295.175ZM292.414 75.9814C291.353 75.9814 290.833 75.0353 290.833 73.8379C290.833 72.6404 291.353 71.6816 292.414 71.6816C293.458 71.6816 293.978 72.6404 293.978 73.8379C293.978 75.0353 293.458 75.9814 292.414 75.9814ZM292.41 79.4416C292.9 79.4416 293.3 79.0666 293.3 78.6064C293.3 78.1419 292.9 77.7669 292.41 77.7669C291.915 77.7669 291.515 78.1419 291.515 78.6064C291.515 79.0666 291.915 79.4416 292.41 79.4416Z" fill="#292D32"/>
<path d="M297.004 79.5439H298.546V76.0581H298.61C298.853 76.5353 299.36 77.2044 300.485 77.2044C302.028 77.2044 303.183 75.9814 303.183 73.8251C303.183 71.6433 301.994 70.4586 300.481 70.4586C299.326 70.4586 298.844 71.1532 298.61 71.6262H298.521V70.5439H297.004V79.5439ZM298.516 73.8166C298.516 72.5467 299.062 71.7243 300.055 71.7243C301.082 71.7243 301.61 72.5978 301.61 73.8166C301.61 75.0439 301.073 75.9387 300.055 75.9387C299.07 75.9387 298.516 75.0865 298.516 73.8166Z" fill="#292D32"/>
<path d="M176.222 93.2044C177.347 93.2044 177.854 92.5353 178.097 92.0581H178.19V93.0893H179.707V86.0538H180.513V85.0779H179.707V84.362H178.16V85.0779H176.43V86.0538H178.16V87.6262H178.097C177.862 87.1532 177.381 86.4586 176.226 86.4586C174.713 86.4586 173.524 87.6433 173.524 89.8251C173.524 91.9814 174.679 93.2044 176.222 93.2044ZM176.652 91.9387C175.634 91.9387 175.097 91.0439 175.097 89.8166C175.097 88.5978 175.625 87.7243 176.652 87.7243C177.645 87.7243 178.19 88.5467 178.19 89.8166C178.19 91.0865 177.636 91.9387 176.652 91.9387Z" fill="#292D32"/>
<path d="M184.206 93.2172C186.124 93.2172 187.343 91.8663 187.343 89.8422C187.343 87.8137 186.124 86.4586 184.206 86.4586C182.289 86.4586 181.07 87.8137 181.07 89.8422C181.07 91.8663 182.289 93.2172 184.206 93.2172ZM184.215 91.9814C183.154 91.9814 182.634 91.0353 182.634 89.8379C182.634 88.6404 183.154 87.6816 184.215 87.6816C185.259 87.6816 185.779 88.6404 185.779 89.8379C185.779 91.0353 185.259 91.9814 184.215 91.9814ZM184.679 84.4174H183.712L181.999 85.8194H183.273L184.206 85.0353L185.127 85.8194H186.409L184.679 84.4174ZM181.5 83.3904H180.149L181.479 84.9672H182.442L181.5 83.3904Z" fill="#292D32"/>
<path d="M190.195 89.2541C190.195 88.3081 190.766 87.7626 191.58 87.7626C192.376 87.7626 192.854 88.2868 192.854 89.1603V93.0893H194.396V88.9217C194.401 87.3535 193.506 86.4586 192.155 86.4586C191.175 86.4586 190.501 86.9274 190.203 87.6561H190.126V86.5439H188.652V93.0893H190.195V89.2541Z" fill="#292D32"/>
<path d="M198.811 95.6802C200.58 95.6802 201.884 94.8706 201.884 93.1958V86.5439H200.362V87.6262H200.277C200.043 87.1532 199.553 86.4586 198.398 86.4586C196.885 86.4586 195.696 87.6433 195.696 89.7953C195.696 91.9302 196.885 92.9956 198.393 92.9956C199.514 92.9956 200.038 92.3947 200.277 91.9132H200.354V93.1532C200.354 94.1163 199.714 94.5126 198.837 94.5126C197.908 94.5126 197.499 94.0737 197.311 93.6902L195.922 94.0268C196.203 94.943 197.145 95.6802 198.811 95.6802ZM198.824 91.7853C197.805 91.7853 197.268 90.9927 197.268 89.7868C197.268 88.5978 197.797 87.7243 198.824 87.7243C199.817 87.7243 200.362 88.5467 200.362 89.7868C200.362 91.0353 199.808 91.7853 198.824 91.7853Z" fill="#292D32"/>
<path d="M212.288 86.5439H210.647L209.138 91.4061H209.07L207.566 86.5439H205.921L208.252 93.0893H209.957L212.288 86.5439Z" fill="#292D32"/>
<path d="M215.051 93.2214C216.078 93.2214 216.692 92.7399 216.973 92.1902H217.024V93.0893H218.507V88.7086C218.507 86.9785 217.097 86.4586 215.848 86.4586C214.472 86.4586 213.415 87.0723 213.074 88.2654L214.514 88.47C214.668 88.0225 215.102 87.639 215.857 87.639C216.572 87.639 216.964 88.0055 216.964 88.649V88.6745C216.964 89.1177 216.5 89.139 215.345 89.2626C214.075 89.399 212.861 89.7782 212.861 91.2527C212.861 92.5396 213.803 93.2214 215.051 93.2214ZM215.452 92.0879C214.808 92.0879 214.348 91.7939 214.348 91.2271C214.348 90.6348 214.864 90.3876 215.554 90.2896C215.959 90.2342 216.768 90.1319 216.969 89.97V90.7413C216.969 91.47 216.381 92.0879 215.452 92.0879Z" fill="#292D32"/>
<path d="M220.783 95.5439C221.984 95.5439 222.679 94.926 223.05 93.8819L225.679 86.5524L224.03 86.5439L222.517 91.487H222.449L220.94 86.5439H219.304L221.678 93.2257L221.545 93.5794C221.26 94.3251 220.808 94.3762 220.135 94.1802L219.777 95.3819C219.986 95.4672 220.361 95.5439 220.783 95.5439Z" fill="#292D32"/>
<path d="M232.581 93.2172C234.226 93.2172 235.274 92.2413 235.385 90.8521H233.911C233.779 91.5552 233.272 91.9601 232.594 91.9601C231.631 91.9601 231.009 91.1547 231.009 89.8166C231.009 88.4956 231.644 87.7029 232.594 87.7029C233.336 87.7029 233.792 88.1802 233.911 88.8109H235.385C235.279 87.3919 234.171 86.4586 232.573 86.4586C230.655 86.4586 229.445 87.8436 229.445 89.8422C229.445 91.8237 230.625 93.2172 232.581 93.2172Z" fill="#292D32"/>
<path d="M240.824 90.3365C240.824 91.3336 240.112 91.8279 239.43 91.8279C238.689 91.8279 238.195 91.3038 238.195 90.4728V86.5439H236.652V90.7115C236.652 92.2839 237.547 93.1745 238.834 93.1745C239.814 93.1745 240.504 92.6589 240.803 91.926H240.871V93.0893H242.366V86.5439H240.824V90.3365ZM240.108 85.6234V85.2314C240.564 85.1632 241.011 84.9203 241.007 84.3791C241.011 83.6717 240.27 83.237 238.864 83.237L238.825 83.9998C239.32 83.9998 239.699 84.1021 239.695 84.4089C239.699 84.6475 239.473 84.7797 238.872 84.8052L238.932 85.6234H240.108Z" fill="#292D32"/>
<path d="M245.836 93.2214C246.863 93.2214 247.477 92.7399 247.758 92.1902H247.809V93.0893H249.292V88.7086C249.292 86.9785 247.882 86.4586 246.633 86.4586C245.257 86.4586 244.2 87.0723 243.859 88.2654L245.299 88.47C245.453 88.0225 245.887 87.639 246.642 87.639C247.358 87.639 247.75 88.0055 247.75 88.649V88.6745C247.75 89.1177 247.285 89.139 246.13 89.2626C244.86 89.399 243.646 89.7782 243.646 91.2527C243.646 92.5396 244.588 93.2214 245.836 93.2214ZM246.237 92.0879C245.593 92.0879 245.133 91.7939 245.133 91.2271C245.133 90.6348 245.649 90.3876 246.339 90.2896C246.744 90.2342 247.554 90.1319 247.754 89.97V90.7413C247.754 91.47 247.166 92.0879 246.237 92.0879Z" fill="#292D32"/>
<path d="M253.888 93.0893H255.405V92.0581H255.495C255.738 92.5353 256.245 93.2044 257.37 93.2044C258.912 93.2044 260.067 91.9814 260.067 89.8251C260.067 87.6433 258.878 86.4586 257.365 86.4586C256.211 86.4586 255.729 87.1532 255.495 87.6262H255.431V84.362H253.888V93.0893ZM255.401 89.8166C255.401 88.5467 255.946 87.7243 256.939 87.7243C257.966 87.7243 258.495 88.5978 258.495 89.8166C258.495 91.0439 257.958 91.9387 256.939 91.9387C255.955 91.9387 255.401 91.0865 255.401 89.8166Z" fill="#292D32"/>
<path d="M263.262 93.2214C264.289 93.2214 264.903 92.7399 265.184 92.1902H265.235V93.0893H266.718V88.7086C266.718 86.9785 265.308 86.4586 264.059 86.4586C262.683 86.4586 261.626 87.0723 261.285 88.2654L262.725 88.47C262.879 88.0225 263.313 87.639 264.067 87.639C264.783 87.639 265.175 88.0055 265.175 88.649V88.6745C265.175 89.1177 264.711 89.139 263.556 89.2626C262.286 89.399 261.072 89.7782 261.072 91.2527C261.072 92.5396 262.013 93.2214 263.262 93.2214ZM263.663 92.0879C263.019 92.0879 262.559 91.7939 262.559 91.2271C262.559 90.6348 263.075 90.3876 263.765 90.2896C264.17 90.2342 264.979 90.1319 265.18 89.97V90.7413C265.18 91.47 264.592 92.0879 263.663 92.0879ZM264.067 95.4416C264.558 95.4416 264.958 95.0666 264.958 94.6064C264.958 94.1419 264.558 93.7669 264.067 93.7669C263.573 93.7669 263.173 94.1419 263.173 94.6064C263.173 95.0666 263.573 95.4416 264.067 95.4416Z" fill="#292D32"/>
<path d="M269.812 89.2541C269.812 88.3081 270.383 87.7626 271.197 87.7626C271.994 87.7626 272.471 88.2868 272.471 89.1603V93.0893H274.013V88.9217C274.018 87.3535 273.123 86.4586 271.772 86.4586C270.792 86.4586 270.119 86.9274 269.82 87.6561H269.744V86.5439H268.269V93.0893H269.812V89.2541Z" fill="#292D32"/>
<path fill-rule="evenodd" clip-rule="evenodd" d="M148.488 38.0556C149.19 38.4949 149.437 39.4398 149.038 40.1663C147.17 43.5747 146.518 46.1156 146.745 48.2474C146.967 50.337 148.067 52.3403 150.385 54.6238C150.567 54.8038 150.992 55.1036 151.625 55.4661C152.223 55.8089 152.902 56.1483 153.5 56.4221C153.718 56.5218 153.915 56.6084 154.088 56.6811C154.405 56.6365 154.741 56.7013 155.042 56.8896C155.157 56.9614 155.282 57.0441 155.394 57.1326C155.447 57.1745 155.534 57.2466 155.625 57.3439C155.626 57.345 155.627 57.3465 155.629 57.3484C155.675 57.397 155.954 57.6924 156.046 58.17C156.108 58.4963 156.085 58.9318 155.83 59.3288C155.599 59.6876 155.289 59.8404 155.116 59.9035C154.815 60.0139 154.548 59.9902 154.485 59.9846L154.481 59.9842C154.297 59.9681 154.13 59.921 154.043 59.8958C153.653 59.7814 153.034 59.5272 152.397 59.2354C151.737 58.9335 150.976 58.5536 150.282 58.1563C149.623 57.7789 148.903 57.3179 148.417 56.8391C145.817 54.277 144.17 51.622 143.839 48.5036C143.512 45.4275 144.502 42.2109 146.495 38.5756C146.893 37.8491 147.785 37.6163 148.488 38.0556ZM154.776 56.942C154.777 56.9422 154.773 56.9414 154.766 56.9393C154.773 56.9409 154.776 56.9419 154.776 56.942Z" fill="white"/>
<path fill-rule="evenodd" clip-rule="evenodd" d="M154.48 52.1513C155.02 51.5362 155.944 51.5119 156.544 52.097C156.866 52.4106 157.192 52.7332 157.52 53.0584C158.967 54.491 160.464 55.9731 161.886 56.9489C162.065 57.0716 162.211 57.1696 162.332 57.2497C162.352 57.2628 162.371 57.276 162.391 57.289C162.483 57.3501 162.572 57.4092 162.641 57.457C162.643 57.4584 162.646 57.4602 162.649 57.4624C162.699 57.4968 162.893 57.629 163.052 57.8101C163.053 57.8111 163.054 57.8122 163.055 57.8133C163.119 57.8867 163.463 58.2769 163.468 58.8949C163.475 59.693 162.951 60.0966 162.764 60.2135C162.581 60.3271 162.41 60.3745 162.368 60.3863C162.366 60.3867 162.365 60.387 162.364 60.3873C162.308 60.403 162.253 60.4151 162.232 60.4196L162.229 60.4205C162.173 60.4326 162.163 60.4353 162.152 60.4387M154.48 52.1513C153.94 52.7664 153.989 53.7393 154.589 54.3244L154.48 52.1513ZM154.589 54.3244C154.864 54.5923 155.157 54.8822 155.463 55.1858L154.589 54.3244ZM155.463 55.1858C156.594 56.3081 157.912 57.6163 159.234 58.6827L155.463 55.1858ZM159.234 58.6827C159.015 58.8066 158.764 58.9446 158.482 59.0945C157.54 59.5962 156.383 60.1656 155.249 60.6819C154.11 61.201 153.027 61.652 152.223 61.9276C151.897 62.0395 151.652 62.11 151.486 62.1477C151.133 62.0499 150.748 62.0884 150.411 62.2869C149.715 62.6963 149.482 63.631 149.891 64.3747C150.308 65.1337 151.046 65.2234 151.213 65.2405C151.48 65.2679 151.733 65.2369 151.914 65.2063C152.296 65.1418 152.747 65.0083 153.2 64.8528C154.126 64.5353 155.302 64.0426 156.475 63.5081C157.654 62.9708 158.862 62.3765 159.86 61.8454C160.799 61.3461 161.701 60.8256 162.151 60.439M151.32 62.1778C151.32 62.1777 151.321 62.1776 151.323 62.1775C151.321 62.1777 151.32 62.1778 151.32 62.1778Z" fill="white"/>
<defs>
<linearGradient id="paint0_linear" x1="188.741" y1="-0.187238" x2="253.024" y2="55.2763" gradientUnits="userSpaceOnUse">
<stop stop-color="#ECEFF0"/>
<stop offset="1" stop-color="white"/>
</linearGradient>
<linearGradient id="paint1_linear" x1="188.741" y1="-0.187238" x2="253.024" y2="55.2763" gradientUnits="userSpaceOnUse">
<stop stop-color="#ECEFF0"/>
<stop offset="1" stop-color="white"/>
</linearGradient>
<linearGradient id="paint2_linear" x1="188.741" y1="-0.187238" x2="253.024" y2="55.2763" gradientUnits="userSpaceOnUse">
<stop stop-color="#ECEFF0"/>
<stop offset="1" stop-color="white"/>
</linearGradient>
<linearGradient id="paint3_linear" x1="188.741" y1="-0.187238" x2="253.024" y2="55.2763" gradientUnits="userSpaceOnUse">
<stop stop-color="#ECEFF0"/>
<stop offset="1" stop-color="white"/>
</linearGradient>
<linearGradient id="paint4_linear" x1="188.741" y1="-0.187238" x2="253.024" y2="55.2763" gradientUnits="userSpaceOnUse">
<stop stop-color="#ECEFF0"/>
<stop offset="1" stop-color="white"/>
</linearGradient>
</defs>
</svg>
