<svg width="53" height="47" viewBox="0 0 53 47" fill="none" xmlns="http://www.w3.org/2000/svg">
<g clip-path="url(#clip0)">
<path fill-rule="evenodd" clip-rule="evenodd" d="M6.42732 6.25098C7.562 5.39714 8.93907 4.92674 10.359 4.90796V4.93796H19.379L15.65 21.097L15.299 22.691C14.8638 23.9577 14.0491 25.0596 12.9655 25.8468C11.8819 26.6341 10.5822 27.0685 9.243 27.091H0L3.825 10.454L3.984 9.84796C4 9.81596 4.008 9.78421 4.016 9.75246C4.024 9.72071 4.032 9.68896 4.048 9.65696C4.45928 8.29777 5.29263 7.10482 6.42732 6.25098ZM8.511 10.454H8.67L16.479 10.42L16.447 10.547C16.2851 11.1987 15.9159 11.7802 15.395 12.204C14.8833 12.6276 14.2422 12.8636 13.578 12.873H8L7.586 14.722H14.056L14.029 14.854C13.8925 15.5163 13.5183 16.1057 12.977 16.511C12.4707 16.9477 11.8285 17.1951 11.16 17.211H7.048L6.602 19.155C6.46493 19.8186 6.0892 20.4089 5.546 20.814C5.04752 21.2636 4.40031 21.513 3.729 21.514H3.602L5.674 12.523C5.87011 11.9668 6.22468 11.4801 6.694 11.123C7.20571 10.6994 7.84679 10.4634 8.511 10.454Z" fill="white"/>
<path fill-rule="evenodd" clip-rule="evenodd" d="M23.6645 1.35245C24.8152 0.477928 26.2199 0.00304715 27.6652 0H36.6852L30.4382 26.964C30.0846 28.3974 29.2622 29.6715 28.1015 30.584C26.9409 31.4964 25.5086 31.9948 24.0322 32H15.0122L21.1312 5.482C21.1566 5.38599 21.1777 5.29591 21.1987 5.20666C21.2264 5.0886 21.2538 4.97199 21.2902 4.845C21.6801 3.4533 22.5138 2.22697 23.6645 1.35245ZM30.8914 10.5866C31.1269 10.6797 31.3413 10.8189 31.5222 10.996C31.695 11.1719 31.8297 11.3815 31.9181 11.6116C32.0065 11.8418 32.0467 12.0877 32.0362 12.334C32.0326 12.5058 32.0112 12.6767 31.9722 12.844L31.4942 14.884C31.3199 15.5909 30.9299 16.2259 30.3782 16.701C29.864 17.0803 29.2302 17.2614 28.5932 17.211H23.1432L22.6972 19.187C22.5601 19.8506 22.1844 20.4409 21.6412 20.846C21.1427 21.2957 20.4955 21.545 19.8242 21.546H19.6972L22.2512 10.454H30.1512C30.4043 10.4485 30.656 10.4935 30.8914 10.5866ZM23.7452 14.754H29.0682L29.5142 12.905H24.1912L23.7452 14.754Z" fill="white"/>
<path fill-rule="evenodd" clip-rule="evenodd" d="M38.8662 6.15819C39.9782 5.35986 41.3091 4.92333 42.6778 4.90796L42.6768 4.93996H51.6968L47.8088 21.832C47.4738 23.3058 46.6544 24.6248 45.4815 25.5782C44.3087 26.5315 42.8501 27.0641 41.3388 27.091H32.3188L36.2398 10.039C36.2398 10.039 36.3988 9.49696 36.4628 9.36996C36.9151 8.07794 37.7542 6.95653 38.8662 6.15819ZM46.9567 10.5823C47.1926 10.6756 47.4068 10.8164 47.5859 10.996C47.7534 11.1631 47.8853 11.3624 47.9738 11.5819C48.0623 11.8013 48.1055 12.0364 48.1009 12.273C48.0973 12.4447 48.0758 12.6156 48.0369 12.783L48.0048 12.847H43.8929L42.4269 19.126C42.2904 19.7883 41.9162 20.3777 41.3749 20.783C40.8764 21.2326 40.2292 21.4819 39.5579 21.483H39.4309L41.4069 12.877H39.6539C39.4008 12.8825 39.1491 12.8374 38.9136 12.7444C38.6782 12.6513 38.4637 12.5121 38.2829 12.335C38.1107 12.1586 37.9766 11.9487 37.8889 11.7184C37.8012 11.4881 37.7617 11.2422 37.7729 10.996C37.7785 10.8349 37.7999 10.6748 37.8369 10.518L37.8689 10.454H46.2149C46.4683 10.4454 46.7209 10.4891 46.9567 10.5823Z" fill="white"/>
<path d="M49.1797 25.1791C49.1797 24.8009 49.2918 24.4313 49.5019 24.1168C49.712 23.8024 50.0106 23.5574 50.36 23.4126C50.7094 23.2679 51.0938 23.2301 51.4647 23.3038C51.8356 23.3776 52.1763 23.5597 52.4437 23.8271C52.7111 24.0945 52.8932 24.4352 52.9669 24.8061C53.0407 25.177 53.0029 25.5614 52.8581 25.9108C52.7134 26.2602 52.4684 26.5588 52.1539 26.7689C51.8395 26.979 51.4698 27.0911 51.0917 27.0911C50.5851 27.0895 50.0997 26.8876 49.7414 26.5293C49.3832 26.1711 49.1813 25.6857 49.1797 25.1791V25.1791ZM52.5577 25.1791C52.5395 24.8994 52.44 24.6312 52.2714 24.4074C52.1027 24.1835 51.8723 24.0139 51.6085 23.9193C51.3447 23.8248 51.059 23.8094 50.7866 23.8752C50.5141 23.941 50.2669 24.0849 50.0752 24.2894C49.8836 24.4939 49.7559 24.7499 49.7079 25.026C49.6599 25.3022 49.6937 25.5863 49.8052 25.8434C49.9166 26.1006 50.1008 26.3195 50.335 26.4733C50.5693 26.6271 50.8434 26.7091 51.1237 26.7091C51.3188 26.7042 51.5109 26.6606 51.6889 26.5808C51.867 26.501 52.0274 26.3865 52.1609 26.2442C52.2943 26.1018 52.3981 25.9343 52.4662 25.7515C52.5343 25.5686 52.5654 25.3741 52.5577 25.1791V25.1791ZM50.3577 24.0951H51.1577C51.6677 24.0951 51.9577 24.2861 51.9577 24.7321C51.9577 25.1141 51.7347 25.2741 51.3837 25.3061L51.9577 26.2621H51.5437L50.9697 25.3381H50.7147V26.2671H50.3637L50.3577 24.0951ZM50.7717 25.0191H51.1227C51.3457 25.0191 51.5687 24.9871 51.5687 24.7001C51.5687 24.4451 51.3457 24.4131 51.1227 24.4131H50.7717V25.0191Z" fill="white"/>
<path d="M8.239 44.7408C7.6403 45.2054 6.89613 45.4425 6.139 45.4098C5.40058 45.4296 4.66785 45.2754 4 44.9598L4.446 43.8128C4.94239 44.0908 5.50309 44.2336 6.072 44.2268C6.48298 44.2425 6.88721 44.1188 7.219 43.8758C7.3608 43.7677 7.47509 43.6277 7.55259 43.4671C7.63008 43.3066 7.6686 43.13 7.665 42.9518C7.665 42.4098 7.219 41.9638 6.294 41.5518C5.7626 41.3311 5.26819 41.0303 4.828 40.6598C4.59694 40.4567 4.41199 40.2065 4.28557 39.9261C4.15914 39.6456 4.09417 39.3414 4.095 39.0338C4.08413 38.7061 4.14398 38.3799 4.27046 38.0774C4.39695 37.7749 4.58711 37.5032 4.828 37.2808C5.37028 36.8269 6.06627 36.5988 6.772 36.6438C7.43792 36.617 8.09865 36.7711 8.684 37.0898L8.27 38.1738C7.82122 37.9252 7.31701 37.7938 6.804 37.7918C6.43642 37.7697 6.07353 37.8832 5.784 38.1108C5.66005 38.2166 5.5614 38.3489 5.49529 38.4979C5.42919 38.6469 5.39731 38.8088 5.402 38.9718C5.402 39.4818 5.88 39.9598 6.836 40.4058C7.34951 40.629 7.8316 40.9184 8.27 41.2668C8.49665 41.4716 8.6765 41.7228 8.79729 42.0034C8.91809 42.284 8.97699 42.5874 8.97 42.8928C9.0017 43.2365 8.95205 43.583 8.82506 43.904C8.69807 44.225 8.4973 44.5117 8.239 44.7408V44.7408Z" fill="white"/>
<path d="M14.5488 44.4818C14.2933 44.7815 13.9757 45.0223 13.6181 45.1874C13.2604 45.3524 12.8712 45.4379 12.4773 45.4379C12.0834 45.4379 11.6942 45.3524 11.3366 45.1874C10.9789 45.0223 10.6614 44.7815 10.4058 44.4818C9.92844 43.7879 9.67285 42.9655 9.67285 42.1233C9.67285 41.281 9.92844 40.4586 10.4058 39.7648C10.6614 39.465 10.9789 39.2242 11.3366 39.0592C11.6942 38.8941 12.0834 38.8086 12.4773 38.8086C12.8712 38.8086 13.2604 38.8941 13.6181 39.0592C13.9757 39.2242 14.2933 39.465 14.5488 39.7648C15.0593 40.4423 15.3184 41.2762 15.2818 42.1238C15.3131 42.9703 15.0545 43.8021 14.5488 44.4818V44.4818ZM13.5928 40.4338C13.4721 40.2478 13.3068 40.095 13.112 39.9892C12.9172 39.8834 12.699 39.828 12.4773 39.828C12.2556 39.828 12.0375 39.8834 11.8426 39.9892C11.6478 40.095 11.4825 40.2478 11.3618 40.4338C11.1101 40.95 10.9793 41.5169 10.9793 42.0913C10.9793 42.6656 11.1101 43.2325 11.3618 43.7488C11.4763 43.9428 11.6394 44.1037 11.835 44.2154C12.0306 44.3272 12.252 44.386 12.4773 44.386C12.7026 44.386 12.924 44.3272 13.1197 44.2154C13.3153 44.1037 13.4784 43.9428 13.5928 43.7488C13.8445 43.2325 13.9754 42.6656 13.9754 42.0913C13.9754 41.5169 13.8445 40.95 13.5928 40.4338V40.4338Z" fill="white"/>
<path d="M19.1392 37.0557C18.3102 37.0557 17.8642 37.4067 17.8642 38.1397V38.9397H19.1712V39.8957H17.8612V45.2817H16.5902V39.8957H15.7612V38.9397H16.5902V38.1397C16.5723 37.8358 16.6231 37.5318 16.7389 37.2503C16.8548 36.9687 17.0326 36.717 17.2592 36.5137C17.7216 36.1525 18.2994 35.9713 18.8852 36.0037C19.024 35.9985 19.1629 36.0093 19.2992 36.0357V37.0557H19.1392Z" fill="white"/>
<path d="M22.9002 45.2467C22.6458 45.346 22.3729 45.3893 22.1002 45.3737C20.9212 45.3737 20.3472 44.7677 20.3472 43.5247V39.9247H19.4902V38.9687H20.3512V37.4687L21.6262 37.0867V38.9357H22.9002V39.8917H21.6252V43.4297C21.6252 43.9717 21.9122 44.2297 22.4862 44.2297C22.6406 44.2306 22.7931 44.1964 22.9322 44.1297V45.2457L22.9002 45.2467Z" fill="white"/>
<path d="M30.4848 45.3108H29.1458L27.9988 41.2628C27.9348 40.9758 27.8718 40.6888 27.8078 40.3388H27.7758C27.7118 40.6578 27.6488 40.9758 27.5848 41.2628L26.4378 45.3108H25.0978L23.2178 38.9678H24.4928L25.5768 43.1748C25.6408 43.4618 25.7038 43.8118 25.7678 44.1628H25.7998C25.8485 43.8282 25.923 43.4978 26.0228 43.1748L27.1698 38.9678H28.3808L29.5278 43.1748C29.5918 43.4618 29.6868 43.8118 29.7508 44.1628H29.8178C29.8414 43.827 29.9056 43.4952 30.0088 43.1748L31.0928 38.9678H32.3678L30.4848 45.3108Z" fill="white"/>
<path d="M37.784 44.9918C37.0643 45.3177 36.2783 45.4705 35.489 45.4378C33.672 45.4378 32.748 44.7688 32.748 43.4298C32.7361 43.0549 32.844 42.6859 33.056 42.3765C33.268 42.067 33.5731 41.8332 33.927 41.7088C34.7653 41.404 35.649 41.2424 36.541 41.2308V40.8168C36.541 40.0838 36.095 39.7328 35.202 39.7328C34.5967 39.7303 33.9983 39.8607 33.449 40.1148L33.13 39.2228C33.8351 38.9223 34.5945 38.7705 35.361 38.7768C36.987 38.7768 37.815 39.5098 37.815 40.9438V44.9918H37.784ZM36.573 42.0918C35.9688 42.0902 35.3675 42.1761 34.788 42.3468C34.5511 42.4025 34.3402 42.5368 34.1896 42.7279C34.039 42.919 33.9577 43.1555 33.959 43.3988C33.959 44.1318 34.469 44.4828 35.459 44.4828C35.8272 44.5002 36.1952 44.4462 36.543 44.3238V42.0928L36.573 42.0918Z" fill="white"/>
<path d="M41.8639 39.9247C41.6536 39.886 41.4406 39.8646 41.2269 39.8606C40.8906 39.8534 40.5559 39.9073 40.2389 40.0197V45.2786H38.9639V39.2547C39.7453 38.9485 40.5787 38.797 41.4179 38.8086C41.6627 38.8003 41.9077 38.811 42.1509 38.8407L41.8639 39.9247Z" fill="white"/>
<path d="M47.9841 42.0918L43.7771 42.6978C43.7799 42.9424 43.8339 43.1836 43.9357 43.406C44.0374 43.6284 44.1845 43.8271 44.3676 43.9892C44.5507 44.1513 44.7658 44.2733 44.9989 44.3473C45.232 44.4213 45.478 44.4456 45.7211 44.4188C46.3281 44.4391 46.9305 44.3078 47.4741 44.0368L47.8561 44.9928C47.1571 45.3126 46.3933 45.4653 45.6251 45.4388C45.1961 45.4638 44.7667 45.3972 44.3655 45.2434C43.9643 45.0896 43.6004 44.8521 43.2981 44.5468C42.7197 43.8766 42.4227 43.0089 42.4691 42.1248C42.4279 41.262 42.6995 40.4133 43.2341 39.7348C43.4908 39.4313 43.8134 39.1903 44.1773 39.0302C44.5412 38.8701 44.9368 38.7951 45.3341 38.8108C45.6939 38.792 46.0537 38.8505 46.389 38.9825C46.7244 39.1144 47.0275 39.3168 47.2781 39.5758C47.7709 40.1371 48.0225 40.8702 47.9781 41.6158L47.9841 42.0918ZM46.7731 41.3918C46.7731 40.2758 46.2951 39.7348 45.3731 39.7348C45.1478 39.7266 44.9238 39.7713 44.7191 39.8655C44.5143 39.9596 44.3345 40.1005 44.1941 40.2768C43.8575 40.7135 43.6879 41.2561 43.7161 41.8068L46.7731 41.3918Z" fill="white"/>
</g>
<defs>
<clipPath id="clip0">
<rect width="53" height="47" fill="white"/>
</clipPath>
</defs>
</svg>
