<svg width="16" height="18" viewBox="0 0 16 18" fill="none" xmlns="http://www.w3.org/2000/svg">
<path d="M6.54244 17.4211C6.34878 17.4211 6.16345 17.3369 6.03719 17.1685L5.18675 16.0318C5.00993 15.796 4.7742 15.6613 4.52159 15.6445C4.26057 15.6276 4.01637 15.7455 3.81428 15.956C2.59338 17.2611 1.66718 17.1516 1.22092 16.9832C0.766233 16.8064 0 16.2254 0 14.3562V4.87522C0 1.13672 1.07777 0 4.60577 0H10.963C14.491 0 15.5687 1.13672 15.5687 4.87522V8.46215C15.5687 8.80738 15.2825 9.09366 14.9372 9.09366C14.592 9.09366 14.3057 8.80738 14.3057 8.46215V4.87522C14.3057 1.83558 13.7753 1.26301 10.963 1.26301H4.60577C1.79347 1.26301 1.26301 1.83558 1.26301 4.87522V14.3562C1.26301 15.2403 1.48193 15.7287 1.68401 15.8044C1.83557 15.8634 2.24817 15.7792 2.8881 15.0972C3.3512 14.6088 3.95743 14.3478 4.58894 14.3815C5.21202 14.4151 5.80143 14.7435 6.19713 15.274L7.05598 16.4107C7.26648 16.6885 7.20754 17.0843 6.92968 17.2948C6.80338 17.3874 6.66874 17.4211 6.54244 17.4211Z" fill="#292D32"/>
<path d="M11.1401 5.47303H4.40409C4.05886 5.47303 3.77258 5.18675 3.77258 4.84153C3.77258 4.4963 4.05886 4.21002 4.40409 4.21002H11.1401C11.4854 4.21002 11.7716 4.4963 11.7716 4.84153C11.7716 5.18675 11.4854 5.47303 11.1401 5.47303Z" fill="#292D32"/>
<path d="M10.2981 8.84107H5.2461C4.90088 8.84107 4.61459 8.55479 4.61459 8.20957C4.61459 7.86435 4.90088 7.57806 5.2461 7.57806H10.2981C10.6434 7.57806 10.9296 7.86435 10.9296 8.20957C10.9296 8.55479 10.6434 8.84107 10.2981 8.84107Z" fill="#292D32"/>
<path d="M10.1462 17.2861C9.82626 17.2861 9.52314 17.1682 9.30422 16.9493C9.0432 16.6882 8.92531 16.3093 8.98426 15.9136L9.14424 14.7769C9.18634 14.4822 9.36316 14.1285 9.57366 13.918L12.5544 10.9373C12.9585 10.5332 13.3543 10.3227 13.7837 10.2806C14.3057 10.2301 14.8278 10.449 15.3161 10.9373C15.8045 11.4257 16.0234 11.9393 15.9729 12.4698C15.9308 12.8908 15.7119 13.295 15.3161 13.6991L12.3354 16.6798C12.1249 16.8903 11.7713 17.0671 11.4766 17.1092L10.3398 17.2692C10.2724 17.2776 10.2136 17.2861 10.1462 17.2861ZM13.9268 11.5352C13.9184 11.5352 13.91 11.5352 13.9016 11.5352C13.7837 11.5436 13.6237 11.653 13.4469 11.8299L10.4662 14.8106C10.4409 14.8358 10.3988 14.92 10.3988 14.9537L10.2473 16.0062L11.2998 15.8546C11.3335 15.8462 11.4176 15.8041 11.4428 15.7789L14.4236 12.7982C14.6004 12.6129 14.7099 12.4614 14.7183 12.3435C14.7352 12.1751 14.5668 11.973 14.4236 11.8299C14.2889 11.6951 14.0952 11.5352 13.9268 11.5352Z" fill="#292D32"/>
<path d="M14.4413 14.314C14.3824 14.314 14.3234 14.3056 14.2729 14.2887C13.1615 13.9772 12.2774 13.0931 11.9658 11.9816C11.8732 11.6448 12.0668 11.2996 12.4037 11.1986C12.7405 11.1059 13.0857 11.2996 13.1783 11.6364C13.372 12.3269 13.9193 12.8742 14.6097 13.0678C14.9465 13.1604 15.1402 13.5141 15.0475 13.8509C14.9718 14.1287 14.7192 14.314 14.4413 14.314Z" fill="#292D32"/>
</svg>
