<svg width="368" height="133" viewBox="0 0 368 133" fill="none" xmlns="http://www.w3.org/2000/svg">
<g filter="url(#filter0_d)">
<path d="M25.8466 43L27.7741 36.5966H38.8168L40.7443 43H50.5455L39.5028 9.54545H27.0881L16.0455 43H25.8466ZM29.8324 29.8011L33.1648 18.7585H33.4261L36.7585 29.8011H29.8324ZM82.7136 9.54545H73.6312V27.0568H73.3699L61.4778 9.54545H53.7676V43H62.85V25.4233H63.046L75.1341 43H82.7136V9.54545ZM127.407 22.0909C126.688 13.7926 120.611 9.08807 112.182 9.08807C103.165 9.08807 96.0431 15.0994 96.0431 26.2727C96.0431 37.397 102.969 43.4574 112.182 43.4574C121.983 43.4574 126.949 36.6619 127.407 30.9773L118.194 30.9119C117.736 33.7706 115.711 35.5511 112.378 35.5511C107.952 35.5511 105.387 32.4148 105.387 26.2727C105.387 20.4574 107.87 16.9943 112.444 16.9943C115.939 16.9943 117.932 19.0526 118.194 22.0909H127.407ZM163.348 8.89204C163.348 8.94105 163.348 8.99006 163.348 9.0554C163.348 12.5348 163.348 15.0178 160.408 15.7692V9.54545H151.326V30.1932C151.326 33.3132 149.088 35.5511 145.968 35.5511C142.848 35.5511 140.61 33.3132 140.61 30.1932V9.54545H131.527V30.9773C131.527 38.6222 137.31 43.392 145.968 43.392C154.56 43.392 160.408 38.6222 160.408 30.9773V19.8693C166.681 19.1179 168.314 15.0668 168.314 8.89204H163.348ZM17.1562 92H39.7642V84.6818H26.2386V58.5455H17.1562V92ZM52.1259 92L54.0534 85.5966H65.0961L67.0236 92H76.8248L65.7821 58.5455H53.3674L42.3248 92H52.1259ZM59.5748 102.128C62.025 102.128 64.0179 100.282 64.0179 98.0114C64.0179 95.7408 62.025 93.8949 59.5748 93.8949C57.1245 93.8949 55.1316 95.7408 55.1316 98.0114C55.1316 100.282 57.1245 102.128 59.5748 102.128ZM56.1117 78.8011L59.4441 67.7585H59.7054L63.0378 78.8011H56.1117ZM109.708 71.0909C108.989 62.7926 102.912 58.0881 94.4831 58.0881C85.4661 58.0881 78.3439 64.0994 78.3439 75.2727C78.3439 86.397 85.2701 92.4574 94.4831 92.4574C104.284 92.4574 109.25 85.6619 109.708 79.9773L100.494 79.9119C100.037 82.7706 98.0115 84.5511 94.6792 84.5511C90.2523 84.5511 87.6877 81.4148 87.6877 75.2727C87.6877 69.4574 90.1706 65.9943 94.7445 65.9943C98.2402 65.9943 100.233 68.0526 100.494 71.0909H109.708ZM151.938 58.5455H142.856V76.0568H142.594L130.702 58.5455H122.992V92H132.075V74.4233H132.271L144.359 92H151.938V58.5455ZM177.96 69.5881H187.141C186.438 62.8743 180.345 58.0881 172.439 58.0881C163.422 58.0881 156.104 64.2955 156.104 75.3381C156.104 85.9233 162.736 92.4574 172.504 92.4574C181.26 92.4574 187.533 87.0994 187.533 77.9517V73.3125H172.7V79.7812H178.777C178.695 82.6889 176.637 84.5511 172.57 84.5511C167.865 84.5511 165.447 81.0881 165.447 75.2074C165.447 69.4084 168.061 65.9943 172.635 65.9943C175.477 65.9943 177.405 67.3011 177.96 69.5881ZM191.768 92H200.85V78.9318H212.873V92H221.955V58.5455H212.873V71.6136H200.85V58.5455H191.768V92ZM235.35 58.5455H226.268V92H235.35V58.5455ZM239.654 92H263.7V84.6818H248.737V78.9318H262.524V71.6136H248.737V65.8636H263.765V58.5455H239.654V92ZM248.606 55.5724L251.808 51.9787L255.009 55.5724H262.458V55.3764L254.944 47.9276H248.671L241.157 55.3764V55.5724H248.606ZM251.808 102.128C254.258 102.128 256.251 100.282 256.251 98.0114C256.251 95.7408 254.258 93.8949 251.808 93.8949C249.357 93.8949 247.365 95.7408 247.365 98.0114C247.365 100.282 249.357 102.128 251.808 102.128ZM268.27 92H277.352V82.0682H282.383C290.012 82.0682 295.125 77.576 295.125 70.3722C295.125 63.25 290.142 58.5455 282.71 58.5455H268.27V92ZM277.352 75.0114V65.7983H280.554C283.739 65.7983 285.65 67.4972 285.65 70.3722C285.65 73.2308 283.739 75.0114 280.554 75.0114H277.352Z" fill="url(#paint0_linear)"/>
</g>
<path d="M61.5867 128.242C64.4226 128.242 66.2586 126.539 66.5164 124.203H64.2429C63.9461 125.5 62.9382 126.266 61.6023 126.266C59.6257 126.266 58.3523 124.617 58.3523 122C58.3523 119.43 59.6492 117.812 61.6023 117.812C63.0867 117.812 63.9929 118.75 64.2429 119.875H66.5164C66.2664 117.453 64.2898 115.844 61.5632 115.844C58.1804 115.844 55.9929 118.391 55.9929 122.055C55.9929 125.672 58.1023 128.242 61.5867 128.242ZM76.836 123.023C76.8438 125.062 75.3282 126.031 74.0157 126.031C72.5704 126.031 71.5704 124.984 71.5704 123.352V116H69.2344V123.633C69.2344 126.609 70.8672 128.156 73.1719 128.156C74.9766 128.156 76.2032 127.203 76.7579 125.922H76.8829V128H79.1797V116H76.836V123.023ZM73.3125 114.398H75.1797L73.3594 110.797H70.8985L73.3125 114.398ZM84.8743 120.875C84.8743 118.961 86.0462 117.867 87.6712 117.867C89.2571 117.867 90.2181 118.906 90.2181 120.648V128H92.554V120.367C92.554 117.398 90.9212 115.844 88.4681 115.844C86.6634 115.844 85.4837 116.68 84.929 117.953H84.7806V116H82.5384V128H84.8743V120.875ZM100.938 132.75C103.993 132.75 106.352 131.352 106.352 128.266V116H104.063V117.945H103.891C103.477 117.203 102.649 115.844 100.415 115.844C97.5162 115.844 95.3834 118.133 95.3834 121.953C95.3834 125.781 97.5631 127.82 100.399 127.82C102.602 127.82 103.454 126.578 103.876 125.812H104.024V128.172C104.024 130.055 102.735 130.867 100.962 130.867C99.0162 130.867 98.2584 129.891 97.8443 129.203L95.8365 130.031C96.4693 131.5 98.0709 132.75 100.938 132.75ZM100.915 125.883C98.8287 125.883 97.7428 124.281 97.7428 121.922C97.7428 119.617 98.8053 117.828 100.915 117.828C102.954 117.828 104.047 119.492 104.047 121.922C104.047 124.398 102.93 125.883 100.915 125.883ZM115.935 128H118.349V121.023H125.146V118.953H118.349V114.078H125.857V112H115.935V128ZM129.045 128H131.459V122.375H134.741C138.452 122.375 140.288 120.133 140.288 117.18C140.288 114.234 138.467 112 134.748 112H129.045V128ZM131.459 120.328V114.07H134.491C136.881 114.07 137.858 115.367 137.858 117.18C137.858 118.992 136.881 120.328 134.522 120.328H131.459ZM142.549 114.078H147.533V128H149.939V114.078H154.931V112H142.549V114.078ZM172.657 116.203H174.985C174.914 113.641 172.649 111.781 169.399 111.781C166.188 111.781 163.727 113.617 163.727 116.375C163.727 118.602 165.321 119.906 167.891 120.602L169.782 121.117C171.492 121.57 172.813 122.133 172.813 123.555C172.813 125.117 171.321 126.148 169.266 126.148C167.407 126.148 165.86 125.32 165.719 123.578H163.297C163.453 126.477 165.696 128.266 169.282 128.266C173.039 128.266 175.203 126.289 175.203 123.578C175.203 120.695 172.633 119.578 170.602 119.078L169.039 118.672C167.789 118.352 166.125 117.766 166.133 116.234C166.133 114.875 167.375 113.867 169.344 113.867C171.18 113.867 172.485 114.727 172.657 116.203ZM183.175 128.242C186.558 128.242 188.769 125.766 188.769 122.055C188.769 118.32 186.558 115.844 183.175 115.844C179.793 115.844 177.582 118.32 177.582 122.055C177.582 125.766 179.793 128.242 183.175 128.242ZM183.183 126.281C180.972 126.281 179.941 124.352 179.941 122.047C179.941 119.75 180.972 117.797 183.183 117.797C185.378 117.797 186.41 119.75 186.41 122.047C186.41 124.352 185.378 126.281 183.183 126.281ZM197.307 116H194.722V114.922C194.722 113.859 195.159 113.281 196.3 113.281C196.784 113.281 197.128 113.391 197.347 113.461L197.893 111.57C197.565 111.445 196.886 111.25 195.94 111.25C194.042 111.25 192.378 112.359 192.378 114.609V116H190.526V117.875H192.378V128H194.722V117.875H197.307V116ZM205.539 116H203.078V113.125H200.742V116H198.984V117.875H200.742V124.961C200.734 127.141 202.399 128.195 204.242 128.156C204.984 128.148 205.484 128.008 205.758 127.906L205.336 125.977C205.18 126.008 204.891 126.078 204.516 126.078C203.758 126.078 203.078 125.828 203.078 124.477V117.875H205.539V116ZM210.945 128H213.32L215.757 119.336H215.937L218.374 128H220.757L224.281 116H221.867L219.531 124.773H219.413L217.07 116H214.656L212.296 124.812H212.179L209.828 116H207.413L210.945 128ZM230.21 128.266C232.194 128.266 233.311 127.258 233.757 126.359H233.85V128H236.132V120.031C236.132 116.539 233.382 115.844 231.475 115.844C229.303 115.844 227.303 116.719 226.522 118.906L228.717 119.406C229.061 118.555 229.936 117.734 231.507 117.734C233.014 117.734 233.788 118.523 233.788 119.883V119.937C233.788 120.789 232.913 120.773 230.757 121.023C228.483 121.289 226.155 121.883 226.155 124.609C226.155 126.969 227.928 128.266 230.21 128.266ZM230.717 126.391C229.397 126.391 228.444 125.797 228.444 124.641C228.444 123.391 229.553 122.945 230.905 122.766C231.663 122.664 233.46 122.461 233.796 122.125V123.672C233.796 125.094 232.663 126.391 230.717 126.391ZM239.463 128H241.799V120.672C241.799 119.102 243.01 117.969 244.666 117.969C245.15 117.969 245.697 118.055 245.885 118.109V115.875C245.65 115.844 245.189 115.82 244.893 115.82C243.486 115.82 242.283 116.617 241.846 117.906H241.721V116H239.463V128ZM252.868 128.242C255.486 128.242 257.337 126.953 257.868 125L255.657 124.602C255.236 125.734 254.22 126.312 252.892 126.312C250.892 126.312 249.548 125.016 249.486 122.703H258.017V121.875C258.017 117.539 255.423 115.844 252.704 115.844C249.361 115.844 247.157 118.391 247.157 122.078C247.157 125.805 249.329 128.242 252.868 128.242ZM249.493 120.953C249.587 119.25 250.822 117.773 252.72 117.773C254.532 117.773 255.72 119.117 255.728 120.953H249.493Z" fill="#4F565F"/>
<defs>
<filter id="filter0_d" x="0.0454712" y="0.892029" width="311.079" height="125.236" filterUnits="userSpaceOnUse" color-interpolation-filters="sRGB">
<feFlood flood-opacity="0" result="BackgroundImageFix"/>
<feColorMatrix in="SourceAlpha" type="matrix" values="0 0 0 0 0 0 0 0 0 0 0 0 0 0 0 0 0 0 127 0" result="hardAlpha"/>
<feOffset dy="8"/>
<feGaussianBlur stdDeviation="8"/>
<feComposite in2="hardAlpha" operator="out"/>
<feColorMatrix type="matrix" values="0 0 0 0 0 0 0 0 0 0 0 0 0 0 0 0 0 0 0.08 0"/>
<feBlend mode="normal" in2="BackgroundImageFix" result="effect1_dropShadow"/>
<feBlend mode="normal" in="SourceGraphic" in2="effect1_dropShadow" result="shape"/>
</filter>
<linearGradient id="paint0_linear" x1="35.5" y1="2.00001" x2="211" y2="92" gradientUnits="userSpaceOnUse">
<stop stop-color="#F35D09"/>
<stop offset="1" stop-color="#F3851E"/>
</linearGradient>
</defs>
</svg>
