<svg width="329" height="172" viewBox="0 0 329 172" fill="none" xmlns="http://www.w3.org/2000/svg">
<g filter="url(#filter0_d)">
<path d="M16.2741 13.5881H21.6179V28H25.2656V13.5881H30.6094V10.5455H16.2741V13.5881ZM36.5327 20.4318C36.5412 18.7443 37.5724 17.7557 39.0554 17.7557C40.5298 17.7557 41.3991 18.7017 41.3906 20.3125V28H45.0213V19.6648C45.0298 16.5966 43.223 14.7386 40.4957 14.7386C38.5099 14.7386 37.1804 15.6761 36.5838 17.2188H36.4304V10.5455H32.902V28H36.5327V20.4318ZM59.4354 14.142C59.4354 15.3778 59.282 16.3153 58.7024 16.8267C57.5859 15.5057 55.8984 14.7386 53.7933 14.7386C49.8217 14.7386 47.3501 17.4489 47.3501 21.5057C47.3501 25.5369 49.8217 28.2557 53.7933 28.2557C57.7649 28.2557 60.2365 25.5369 60.2365 21.5057C60.2365 20.2869 60.0149 19.1875 59.5888 18.25C60.978 17.5597 61.6001 16.1364 61.6001 14.142H59.4354ZM53.8104 25.4432C51.978 25.4432 51.0405 23.7642 51.0405 21.4801C51.0405 19.196 51.978 17.5085 53.8104 17.5085C55.6087 17.5085 56.5462 19.196 56.5462 21.4801C56.5462 23.7642 55.6087 25.4432 53.8104 25.4432ZM52.532 13.2216H55.0973L53.282 9.34375H49.9325L52.532 13.2216ZM63.0426 28H66.6733V14.9091H63.0426V28ZM64.8665 13.2216C65.9489 13.2216 66.8352 12.3949 66.8352 11.3807C66.8352 10.375 65.9489 9.54829 64.8665 9.54829C63.7926 9.54829 62.9062 10.375 62.9062 11.3807C62.9062 12.3949 63.7926 13.2216 64.8665 13.2216ZM81.0341 33.1818C84.7756 33.1818 87.4347 31.4773 87.4347 28.1278V14.9091H83.8295V17.108H83.6932C83.2074 16.0426 82.142 14.7386 79.9517 14.7386C77.0795 14.7386 74.6506 16.9716 74.6506 21.429C74.6506 25.7841 77.0114 27.8125 79.9602 27.8125C82.0483 27.8125 83.2159 26.7642 83.6932 25.6818H83.8466V28.0767C83.8466 29.875 82.696 30.5739 81.1193 30.5739C79.517 30.5739 78.7074 29.875 78.4091 29.0824L75.0511 29.5341C75.4858 31.5966 77.5057 33.1818 81.0341 33.1818ZM81.1108 25.0852C79.3295 25.0852 78.358 23.6705 78.358 21.4119C78.358 19.1875 79.3125 17.6278 81.1108 17.6278C82.875 17.6278 83.8636 19.1193 83.8636 21.4119C83.8636 23.7216 82.858 25.0852 81.1108 25.0852ZM90.3239 28H93.9545V14.9091H90.3239V28ZM92.1477 13.2216C93.2301 13.2216 94.1165 12.3949 94.1165 11.3807C94.1165 10.375 93.2301 9.54829 92.1477 9.54829C91.0739 9.54829 90.1875 10.375 90.1875 11.3807C90.1875 12.3949 91.0739 13.2216 92.1477 13.2216ZM100.596 28.2472C102.531 28.2472 103.783 27.4034 104.423 26.1847H104.525V28H107.968V19.1705C107.968 16.0511 105.326 14.7386 102.411 14.7386C99.2749 14.7386 97.2124 16.2386 96.7095 18.625L100.067 18.8977C100.315 18.0284 101.09 17.3892 102.394 17.3892C103.63 17.3892 104.337 18.0114 104.337 19.0852V19.1364C104.337 19.9801 103.442 20.0909 101.167 20.3125C98.576 20.5511 96.2493 21.4205 96.2493 24.3438C96.2493 26.9347 98.0987 28.2472 100.596 28.2472ZM101.636 25.7415C100.519 25.7415 99.718 25.2216 99.718 24.2244C99.718 23.2017 100.562 22.6989 101.84 22.5199C102.633 22.4091 103.928 22.2216 104.363 21.9318V23.321C104.363 24.6932 103.229 25.7415 101.636 25.7415ZM114.415 20.4318C114.424 18.7443 115.43 17.7557 116.896 17.7557C118.353 17.7557 119.231 18.7102 119.222 20.3125V28H122.853V19.6648C122.853 16.6136 121.063 14.7386 118.336 14.7386C116.393 14.7386 114.987 15.6932 114.398 17.2188H114.245V14.9091H110.785V28H114.415V20.4318ZM137.184 28.2557C140.67 28.2557 142.86 26.2102 143.031 23.2017H139.604C139.391 24.5994 138.471 25.3835 137.227 25.3835C135.531 25.3835 134.431 23.9602 134.431 21.4545C134.431 18.983 135.539 17.5682 137.227 17.5682C138.556 17.5682 139.408 18.446 139.604 19.75H143.031C142.877 16.7244 140.585 14.7386 137.167 14.7386C133.195 14.7386 130.741 17.4915 130.741 21.5057C130.741 25.4858 133.153 28.2557 137.184 28.2557ZM148.986 20.4318C148.994 18.7443 150.026 17.7557 151.509 17.7557C152.983 17.7557 153.852 18.7017 153.844 20.3125V28H157.474V19.6648C157.483 16.5966 155.676 14.7386 152.949 14.7386C150.963 14.7386 149.634 15.6761 149.037 17.2188H148.884V10.5455H145.355V28H148.986V20.4318ZM160.332 28H163.962V14.9091H160.332V28ZM163.494 13.0341V12.2841C164.406 12.1477 165.317 11.6449 165.309 10.6136C165.317 9.16477 163.698 8.29545 160.664 8.29545L160.57 9.94034C161.542 9.94034 162.283 10.1108 162.275 10.7244C162.283 11.1676 161.815 11.4489 160.613 11.5L160.8 13.0341H163.494ZM177.249 28.2131C179.363 28.2131 180.462 26.9943 180.965 25.9034H181.119V28H184.698V14.0142H186.19V11.875H184.698V10.5455H181.076V11.875H177.684V14.0142H181.076V17.108H180.965C180.479 16.0426 179.431 14.7386 177.241 14.7386C174.369 14.7386 171.94 16.9716 171.94 21.4716C171.94 25.8523 174.266 28.2131 177.249 28.2131ZM178.4 25.3239C176.619 25.3239 175.647 23.7386 175.647 21.4545C175.647 19.1875 176.602 17.6278 178.4 17.6278C180.164 17.6278 181.153 19.1193 181.153 21.4545C181.153 23.7898 180.147 25.3239 178.4 25.3239ZM193.598 28.2557C197.57 28.2557 200.041 25.5369 200.041 21.5057C200.041 17.4489 197.57 14.7386 193.598 14.7386C189.626 14.7386 187.155 17.4489 187.155 21.5057C187.155 25.5369 189.626 28.2557 193.598 28.2557ZM193.615 25.4432C191.783 25.4432 190.845 23.7642 190.845 21.4801C190.845 19.196 191.783 17.5085 193.615 17.5085C195.413 17.5085 196.351 19.196 196.351 21.4801C196.351 23.7642 195.413 25.4432 193.615 25.4432ZM191.885 13.358L193.598 11.2784L195.311 13.358H198.405V13.2386L194.945 9.48864H192.243L188.791 13.2386V13.358H191.885ZM193.589 32.9091C194.672 32.9091 195.558 32.0824 195.558 31.0682C195.558 30.0625 194.672 29.2358 193.589 29.2358C192.516 29.2358 191.629 30.0625 191.629 31.0682C191.629 32.0824 192.516 32.9091 193.589 32.9091ZM213.854 33.1818C217.596 33.1818 220.255 31.4773 220.255 28.1278V14.9091H216.65V17.108H216.513C216.028 16.0426 214.962 14.7386 212.772 14.7386C209.9 14.7386 207.471 16.9716 207.471 21.429C207.471 25.7841 209.832 27.8125 212.781 27.8125C214.869 27.8125 216.036 26.7642 216.513 25.6818H216.667V28.0767C216.667 29.875 215.516 30.5739 213.94 30.5739C212.337 30.5739 211.528 29.875 211.229 29.0824L207.871 29.5341C208.306 31.5966 210.326 33.1818 213.854 33.1818ZM213.931 25.0852C212.15 25.0852 211.178 23.6705 211.178 21.4119C211.178 19.1875 212.133 17.6278 213.931 17.6278C215.695 17.6278 216.684 19.1193 216.684 21.4119C216.684 23.7216 215.678 25.0852 213.931 25.0852ZM226.877 28.2472C228.812 28.2472 230.065 27.4034 230.704 26.1847H230.806V28H234.249V19.1705C234.249 16.0511 231.607 14.7386 228.692 14.7386C225.556 14.7386 223.494 16.2386 222.991 18.625L226.349 18.8977C226.596 18.0284 227.371 17.3892 228.675 17.3892C229.911 17.3892 230.619 18.0114 230.619 19.0852V19.1364C230.619 19.9801 229.724 20.0909 227.448 20.3125C224.857 20.5511 222.531 21.4205 222.531 24.3438C222.531 26.9347 224.38 28.2472 226.877 28.2472ZM227.917 25.7415C226.8 25.7415 225.999 25.2216 225.999 24.2244C225.999 23.2017 226.843 22.6989 228.121 22.5199C228.914 22.4091 230.21 22.2216 230.644 21.9318V23.321C230.644 24.6932 229.511 25.7415 227.917 25.7415ZM240.697 20.4318C240.705 18.7443 241.711 17.7557 243.177 17.7557C244.634 17.7557 245.512 18.7102 245.504 20.3125V28H249.134V19.6648C249.134 16.6136 247.344 14.7386 244.617 14.7386C242.674 14.7386 241.268 15.6932 240.68 17.2188H240.526V14.9091H237.066V28H240.697V20.4318ZM257.893 33.1818C261.635 33.1818 264.294 31.4773 264.294 28.1278V14.9091H260.689V17.108H260.553C260.067 16.0426 259.001 14.7386 256.811 14.7386C253.939 14.7386 251.51 16.9716 251.51 21.429C251.51 25.7841 253.871 27.8125 256.82 27.8125C258.908 27.8125 260.075 26.7642 260.553 25.6818H260.706V28.0767C260.706 29.875 259.555 30.5739 257.979 30.5739C256.376 30.5739 255.567 29.875 255.268 29.0824L251.911 29.5341C252.345 31.5966 254.365 33.1818 257.893 33.1818ZM257.97 25.0852C256.189 25.0852 255.217 23.6705 255.217 21.4119C255.217 19.1875 256.172 17.6278 257.97 17.6278C259.734 17.6278 260.723 19.1193 260.723 21.4119C260.723 23.7216 259.717 25.0852 257.97 25.0852ZM279.701 14.9091H277.238V11.7727H273.607V14.9091H271.817V17.6364H273.607V24.4545C273.59 27.0199 275.337 28.2898 277.971 28.179C278.908 28.1449 279.573 27.9574 279.94 27.8381L279.369 25.1364C279.19 25.1705 278.806 25.2557 278.465 25.2557C277.741 25.2557 277.238 24.983 277.238 23.9773V17.6364H279.701V14.9091ZM285.799 28.2472C287.734 28.2472 288.987 27.4034 289.626 26.1847H289.728V28H293.171V19.1705C293.171 16.0511 290.529 14.7386 287.614 14.7386C284.478 14.7386 282.415 16.2386 281.913 18.625L285.271 18.8977C285.518 18.0284 286.293 17.3892 287.597 17.3892C288.833 17.3892 289.54 18.0114 289.54 19.0852V19.1364C289.54 19.9801 288.646 20.0909 286.37 20.3125C283.779 20.5511 281.452 21.4205 281.452 24.3438C281.452 26.9347 283.302 28.2472 285.799 28.2472ZM286.839 25.7415C285.722 25.7415 284.921 25.2216 284.921 24.2244C284.921 23.2017 285.765 22.6989 287.043 22.5199C287.836 22.4091 289.131 22.2216 289.566 21.9318V23.321C289.566 24.6932 288.433 25.7415 286.839 25.7415ZM297.761 32.9091C300.462 32.9091 301.894 31.5284 302.636 29.4148L307.724 14.9261L303.88 14.9091L301.144 24.5227H301.008L298.298 14.9091H294.479L299.175 28.375L298.962 28.929C298.485 30.1562 297.573 30.2159 296.295 29.8239L295.477 32.5341C295.996 32.7557 296.84 32.9091 297.761 32.9091ZM312.707 25.6136H309.707L309.665 26.5682C309.562 28.8864 308.898 31.2642 308.651 32.2614H311.003C311.412 31.2301 312.384 28.8097 312.614 26.5511L312.707 25.6136ZM54.5795 142C59.8977 142 63.1193 138.71 63.1193 133.256C63.1193 127.818 59.8977 124.545 54.6307 124.545H48.392V142H54.5795ZM52.0824 138.838V127.707H54.4347C57.7074 127.707 59.4375 129.378 59.4375 133.256C59.4375 137.151 57.7074 138.838 54.4261 138.838H52.0824ZM71.7507 142.256C74.9893 142.256 77.1712 140.679 77.6825 138.25L74.3246 138.028C73.9581 139.026 73.0206 139.545 71.8104 139.545C69.995 139.545 68.8445 138.344 68.8445 136.392V136.384H77.7592V135.386C77.7592 130.938 75.0661 128.739 71.6058 128.739C67.7536 128.739 65.2564 131.474 65.2564 135.514C65.2564 139.665 67.7195 142.256 71.7507 142.256ZM68.8445 134.134C68.9212 132.642 70.0547 131.449 71.6655 131.449C73.2422 131.449 74.3331 132.574 74.3416 134.134H68.8445ZM72.4922 124.989H70.549L67.0888 127.605H69.6286L71.5036 126.173L73.4212 127.605H75.9268L72.4922 124.989ZM73.3786 122.091C73.37 122.526 73.1229 122.994 72.7734 122.994C71.9467 122.994 71.0859 122.27 70.2166 122.27C69.228 122.27 68.6143 123.207 68.6143 124.085L69.8416 124.426C69.8416 123.991 70.0803 123.616 70.4638 123.616C71.3161 123.616 71.9382 124.366 73.0206 124.366C74.0007 124.366 74.6314 123.446 74.6399 122.526L73.3786 122.091ZM90.5071 142.213C92.6207 142.213 93.7202 140.994 94.223 139.903H94.3764V142H97.956V124.545H94.3338V131.108H94.223C93.7372 130.043 92.6889 128.739 90.4986 128.739C87.6264 128.739 85.1974 130.972 85.1974 135.472C85.1974 139.852 87.5241 142.213 90.5071 142.213ZM91.6577 139.324C89.8764 139.324 88.9048 137.739 88.9048 135.455C88.9048 133.188 89.8594 131.628 91.6577 131.628C93.4219 131.628 94.4105 133.119 94.4105 135.455C94.4105 137.79 93.4048 139.324 91.6577 139.324ZM104.674 142.247C106.609 142.247 107.862 141.403 108.501 140.185H108.603V142H112.046V133.17C112.046 130.051 109.404 128.739 106.489 128.739C103.353 128.739 101.29 130.239 100.788 132.625L104.146 132.898C104.393 132.028 105.168 131.389 106.472 131.389C107.708 131.389 108.415 132.011 108.415 133.085V133.136C108.415 133.98 107.521 134.091 105.245 134.312C102.654 134.551 100.327 135.42 100.327 138.344C100.327 140.935 102.177 142.247 104.674 142.247ZM105.714 139.741C104.597 139.741 103.796 139.222 103.796 138.224C103.796 137.202 104.64 136.699 105.918 136.52C106.711 136.409 108.006 136.222 108.441 135.932V137.321C108.441 138.693 107.308 139.741 105.714 139.741ZM105.364 127.222H107.93L106.114 123.344H102.765L105.364 127.222ZM118.494 134.432C118.502 132.744 119.508 131.756 120.974 131.756C122.431 131.756 123.309 132.71 123.3 134.312V142H126.931V133.665C126.931 130.614 125.141 128.739 122.414 128.739C120.471 128.739 119.065 129.693 118.477 131.219H118.323V128.909H114.863V142H118.494V134.432ZM135.69 147.182C139.432 147.182 142.091 145.477 142.091 142.128V128.909H138.486V131.108H138.349C137.864 130.043 136.798 128.739 134.608 128.739C131.736 128.739 129.307 130.972 129.307 135.429C129.307 139.784 131.668 141.812 134.616 141.812C136.705 141.812 137.872 140.764 138.349 139.682H138.503V142.077C138.503 143.875 137.352 144.574 135.776 144.574C134.173 144.574 133.364 143.875 133.065 143.082L129.707 143.534C130.142 145.597 132.162 147.182 135.69 147.182ZM135.767 139.085C133.986 139.085 133.014 137.67 133.014 135.412C133.014 133.188 133.969 131.628 135.767 131.628C137.531 131.628 138.52 133.119 138.52 135.412C138.52 137.722 137.514 139.085 135.767 139.085ZM154.165 134.432C154.174 132.744 155.18 131.756 156.646 131.756C158.103 131.756 158.981 132.71 158.972 134.312V142H162.603V133.665C162.603 130.614 160.813 128.739 158.086 128.739C156.143 128.739 154.737 129.693 154.148 131.219H153.995V128.909H150.535V142H154.165V134.432ZM169.095 134.432C169.104 132.744 170.135 131.756 171.618 131.756C173.092 131.756 173.962 132.702 173.953 134.312V142H177.584V133.665C177.592 130.597 175.786 128.739 173.058 128.739C171.072 128.739 169.743 129.676 169.146 131.219H168.993V124.545H165.464V142H169.095V134.432ZM194.282 128.185C194.273 129.838 194.086 130.767 192.552 130.997V128.909H188.921V136.426C188.93 138.182 187.728 139.102 186.424 139.102C185.052 139.102 184.165 138.139 184.157 136.597V128.909H180.526V137.244C180.535 140.304 182.325 142.17 184.958 142.17C186.927 142.17 188.342 141.156 188.93 139.622H189.066V142H192.552V132.642C195.433 132.395 196.379 130.878 196.387 128.185H194.282ZM203.011 142H206.642V137.841L207.622 136.724L211.193 142H215.446L210.341 134.577L215.199 128.909H211.031L206.838 133.878H206.642V124.545H203.011V142ZM220.611 134.432C220.619 132.744 221.651 131.756 223.134 131.756C224.608 131.756 225.477 132.702 225.469 134.312V142H229.099V133.665C229.108 130.597 227.301 128.739 224.574 128.739C222.588 128.739 221.259 129.676 220.662 131.219H220.509V124.545H216.98V142H220.611V134.432ZM237.871 142.256C241.843 142.256 244.315 139.537 244.315 135.506C244.315 131.449 241.843 128.739 237.871 128.739C233.9 128.739 231.428 131.449 231.428 135.506C231.428 139.537 233.9 142.256 237.871 142.256ZM237.888 139.443C236.056 139.443 235.119 137.764 235.119 135.48C235.119 133.196 236.056 131.509 237.888 131.509C239.687 131.509 240.624 133.196 240.624 135.48C240.624 137.764 239.687 139.443 237.888 139.443ZM236.158 127.358L237.871 125.278L239.585 127.358H242.678V127.239L239.218 123.489H236.516L233.065 127.239V127.358H236.158ZM250.306 134.432C250.315 132.744 251.32 131.756 252.786 131.756C254.244 131.756 255.121 132.71 255.113 134.312V142H258.744V133.665C258.744 130.614 256.954 128.739 254.227 128.739C252.283 128.739 250.877 129.693 250.289 131.219H250.136V128.909H246.675V142H250.306V134.432ZM267.503 147.182C271.244 147.182 273.903 145.477 273.903 142.128V128.909H270.298V131.108H270.162C269.676 130.043 268.611 128.739 266.42 128.739C263.548 128.739 261.119 130.972 261.119 135.429C261.119 139.784 263.48 141.812 266.429 141.812C268.517 141.812 269.685 140.764 270.162 139.682H270.315V142.077C270.315 143.875 269.165 144.574 267.588 144.574C265.986 144.574 265.176 143.875 264.878 143.082L261.52 143.534C261.955 145.597 263.974 147.182 267.503 147.182ZM267.58 139.085C265.798 139.085 264.827 137.67 264.827 135.412C264.827 133.188 265.781 131.628 267.58 131.628C269.344 131.628 270.332 133.119 270.332 135.412C270.332 137.722 269.327 139.085 267.58 139.085ZM281.131 124.545H277.338L277.679 136.767H280.798L281.131 124.545ZM279.239 142.222C280.33 142.222 281.276 141.31 281.284 140.176C281.276 139.06 280.33 138.148 279.239 138.148C278.114 138.148 277.185 139.06 277.193 140.176C277.185 141.31 278.114 142.222 279.239 142.222Z" fill="#62686D"/>
</g>
<path d="M75.7138 101.432C89.9553 101.457 98.8018 91.2557 98.8274 73.9205C98.853 56.6875 89.9553 46.9205 75.7138 46.9205C61.4467 46.9205 52.6513 56.6364 52.6001 73.9205C52.549 91.179 61.4467 101.406 75.7138 101.432ZM75.7138 89.875C70.8047 89.875 67.2763 84.9403 67.3274 73.9205C67.3786 63.1562 70.8047 58.375 75.7138 58.375C80.6229 58.375 84.0746 63.1562 84.1001 73.9205C84.1257 84.9403 80.6229 89.875 75.7138 89.875ZM105.501 100H145.694V88.6477H125.239V88.3409L130.148 84.25C142.089 74.304 145.131 69.1392 145.131 63.0795C145.131 53.3125 137.129 46.9205 124.575 46.9205C112.379 46.9205 104.452 53.696 104.478 64.7159H117.978C117.952 60.3182 120.637 57.8636 124.575 57.8636C128.487 57.8636 131.273 60.2926 131.273 64.3068C131.273 68.0142 128.896 70.4176 125.035 73.6136L105.501 89.7727V100Z" fill="url(#paint0_linear)"/>
<path d="M163.372 59.7955C163.383 58.1761 164.299 57.196 165.759 57.196C167.239 57.196 168.113 58.1761 168.102 59.7955V69H173.983V58.5597C173.994 55.0014 171.746 52.4233 168.273 52.4233C165.865 52.4233 163.958 53.6804 163.244 55.7472H163.074V52.6364H157.491V69H163.372V59.7955ZM181.446 69.2557C183.576 69.2557 185.185 68.5312 186.176 66.6989H186.304V69H191.801V57.7926C191.801 54.767 188.935 52.4233 184.258 52.4233C179.368 52.4233 176.961 54.9801 176.758 57.9631H182.17C182.309 56.951 183.054 56.4716 184.173 56.4716C185.196 56.4716 185.92 56.9403 185.92 57.7926V57.8352C185.92 58.7834 184.876 59.0817 182.127 59.2841C178.75 59.5291 176.119 60.8928 176.119 64.483C176.119 67.7429 178.314 69.2557 181.446 69.2557ZM186.559 46.7557C186.549 47.6932 185.952 48.5455 184.429 48.5455C182.841 48.5455 182.245 47.6506 182.255 46.7557H178.591C178.58 49.5256 180.838 51.3153 184.429 51.3153C187.998 51.3153 190.256 49.5256 190.267 46.7557H186.559ZM183.363 65.5483C182.362 65.5483 181.659 65.0582 181.659 64.142C181.659 63.3004 182.255 62.6506 183.619 62.4375C184.556 62.2884 185.345 62.0966 185.963 61.8409V63.2045C185.963 64.696 184.695 65.5483 183.363 65.5483ZM194.611 69H200.491V59.4545C200.491 58.027 201.237 57.1534 202.452 57.1534C203.666 57.1534 204.454 58.027 204.454 59.4545V69H210.079V59.4545C210.079 58.027 210.825 57.1534 212.04 57.1534C213.254 57.1534 214.042 58.027 214.042 59.4545V69H219.923V57.9631C219.923 54.6072 217.771 52.4233 214.639 52.4233C212.21 52.4233 210.25 53.7443 209.696 55.7472H209.525C209.184 53.7443 207.352 52.4233 205.051 52.4233C202.782 52.4233 201.045 53.7017 200.363 55.7472H200.193V52.6364H194.611V69ZM165.375 100.298C170.222 100.298 173.195 97.5178 173.259 93.1818H167.804C167.676 94.897 166.749 95.8239 165.46 95.8239C163.915 95.8239 162.903 94.5028 162.903 91.8182C162.903 89.1335 163.915 87.8125 165.46 87.8125C166.76 87.8125 167.644 88.7393 167.804 90.4545H173.259C173.227 86.1932 170.19 83.4233 165.375 83.4233C160.048 83.4233 156.895 86.8324 156.895 91.8608C156.895 96.8892 160.048 100.298 165.375 100.298ZM180.244 100.256C182.375 100.256 183.984 99.5312 184.975 97.6989H185.102V100H190.6V88.7926C190.6 85.767 187.734 83.4233 183.057 83.4233C178.167 83.4233 175.759 85.9801 175.557 88.9631H180.969C181.107 87.951 181.853 87.4716 182.972 87.4716C183.994 87.4716 184.719 87.9403 184.719 88.7926V88.8352C184.719 89.7834 183.675 90.0817 180.926 90.2841C177.549 90.5291 174.918 91.8928 174.918 95.483C174.918 98.7429 177.112 100.256 180.244 100.256ZM182.162 96.5483C181.161 96.5483 180.458 96.0582 180.458 95.142C180.458 94.3004 181.054 93.6506 182.418 93.4375C183.355 93.2884 184.144 93.0966 184.762 92.8409V94.2045C184.762 95.696 183.494 96.5483 182.162 96.5483ZM193.409 100H199.29V90.4545C199.29 89.027 200.036 88.1534 201.25 88.1534C202.465 88.1534 203.253 89.027 203.253 90.4545V100H208.878V90.4545C208.878 89.027 209.624 88.1534 210.838 88.1534C212.053 88.1534 212.841 89.027 212.841 90.4545V100H218.722V88.9631C218.722 85.6072 216.57 83.4233 213.438 83.4233C211.009 83.4233 209.049 84.7443 208.495 86.7472H208.324C207.983 84.7443 206.151 83.4233 203.85 83.4233C201.581 83.4233 199.844 84.7017 199.162 86.7472H198.992V83.6364H193.409V100ZM227.599 100H233.48V95.3551L234.364 94.2365L237.698 100H244.431L238.7 90.8061L244.261 83.6364H237.656L233.693 89.1335H233.48V78.1818H227.599V100ZM252.959 100.298C257.498 100.298 260.417 98.125 260.971 94.7159H255.601C255.26 95.6428 254.291 96.1648 253.087 96.1648C251.34 96.1648 250.317 95.0142 250.317 93.4375V93.1818H260.971V91.8182C260.971 86.6087 257.775 83.4233 252.831 83.4233C247.76 83.4233 244.522 86.7898 244.522 91.8608C244.522 97.1555 247.718 100.298 252.959 100.298ZM247.164 82.017H250.53L252.704 80.5256L254.834 82.017H258.243L253.939 79.0767H251.425L247.164 82.017ZM257.135 80.6108H259.948L263.698 76.5199H259.905L257.135 80.6108ZM250.317 89.9432C250.349 88.5263 251.521 87.5568 252.959 87.5568C254.419 87.5568 255.527 88.5369 255.559 89.9432H250.317ZM273.129 83.6364H270.316V79.7159H264.436V83.6364H262.348V87.8977H264.436V95.2912C264.393 98.7216 266.513 100.458 270.572 100.234C271.904 100.16 272.895 99.8828 273.427 99.723L272.575 95.5895C272.351 95.6428 271.776 95.7599 271.424 95.7599C270.657 95.7599 270.316 95.419 270.316 94.7372V87.8977H273.129V83.6364ZM281.239 97.017H276.807V98.2102C276.807 101.108 275.827 104.144 275.486 105.327H279.108C279.619 104.144 280.93 101.289 281.154 98.2102L281.239 97.017Z" fill="url(#paint1_linear)"/>
<defs>
<filter id="filter0_d" x="0.273926" y="0.29541" width="328.433" height="170.886" filterUnits="userSpaceOnUse" color-interpolation-filters="sRGB">
<feFlood flood-opacity="0" result="BackgroundImageFix"/>
<feColorMatrix in="SourceAlpha" type="matrix" values="0 0 0 0 0 0 0 0 0 0 0 0 0 0 0 0 0 0 127 0" result="hardAlpha"/>
<feOffset dy="8"/>
<feGaussianBlur stdDeviation="8"/>
<feComposite in2="hardAlpha" operator="out"/>
<feColorMatrix type="matrix" values="0 0 0 0 0 0 0 0 0 0 0 0 0 0 0 0 0 0 0.08 0"/>
<feBlend mode="normal" in2="BackgroundImageFix" result="effect1_dropShadow"/>
<feBlend mode="normal" in="SourceGraphic" in2="effect1_dropShadow" result="shape"/>
</filter>
<linearGradient id="paint0_linear" x1="54.8074" y1="54" x2="107.995" y2="76.601" gradientUnits="userSpaceOnUse">
<stop stop-color="#0066B3"/>
<stop offset="1" stop-color="#1187E0"/>
</linearGradient>
<linearGradient id="paint1_linear" x1="163.433" y1="43" x2="234.995" y2="68.1115" gradientUnits="userSpaceOnUse">
<stop stop-color="#0066B3"/>
<stop offset="1" stop-color="#1187E0"/>
</linearGradient>
</defs>
</svg>
