<svg width="323" height="138" viewBox="0 0 323 138" fill="none" xmlns="http://www.w3.org/2000/svg">
<g filter="url(#filter0_d)">
<path d="M34.0284 54C44.2216 54 50.6903 47.7273 50.6903 37.2727C50.6903 26.8182 44.2216 20.5455 33.8977 20.5455H21.1562V33.679H16.8438V38.5142H21.1562V54H34.0284ZM30.2386 46.2898V38.5142H34.4205V33.679H30.2386V28.2557H33.4403C38.6676 28.2557 41.5426 30.2812 41.5426 37.2727C41.5426 44.2642 38.6676 46.2898 33.7017 46.2898H30.2386ZM54.8926 54H78.938V46.6818H63.975V40.9318H77.7619V33.6136H63.975V27.8636H79.0034V20.5455H54.8926V54ZM77.4352 15.3835V14.3381C78.8727 14.0767 80.3755 13.2273 80.3755 11.7898C80.3755 9.37216 77.7619 8.06534 72.992 8.06534L72.796 11.0057C74.2988 11.0057 75.4096 11.2017 75.4096 12.1818C75.4096 12.7699 74.6255 13.2273 72.7306 13.2926L73.2534 15.3835H77.4352ZM68.8102 13.554H65.1511L58.5517 18.0625H63.8443L67.046 16.0369L70.117 18.0625H75.4096L68.8102 13.554ZM92.6719 54H101.754V42.9574H104.891L110.771 54H120.638L113.842 41.5199C117.403 39.8047 119.527 36.554 119.527 31.9148C119.527 24.7926 114.545 20.5455 107.112 20.5455H92.6719V54ZM101.754 35.9006V27.7983H104.956C108.141 27.7983 110.053 29.0398 110.053 31.9148C110.053 34.7734 108.141 35.9006 104.956 35.9006H101.754ZM132.089 54L134.016 47.5966H145.059L146.987 54H156.788L145.745 20.5455H133.33L122.288 54H132.089ZM136.075 40.8011L139.407 29.7585H139.668L143.001 40.8011H136.075ZM53.5653 86.2727C53.5653 75.0994 46.3778 69.0881 37.2955 69.0881C28.1477 69.0881 21.0256 75.0994 21.0256 86.2727C21.0256 97.3807 28.1477 103.457 37.2955 103.457C39.3374 103.457 41.2812 103.147 43.0781 102.559L45.5938 105.483H53.6307L48.5504 99.3409C51.6541 96.4332 53.5653 92.0391 53.5653 86.2727ZM34.0938 90.5852L37.8345 95.5348C37.6548 95.5511 37.4751 95.5511 37.2955 95.5511C32.7869 95.5511 30.3693 92.2841 30.3693 86.2727C30.3693 80.2614 32.7869 76.9943 37.2955 76.9943C41.804 76.9943 44.2216 80.2614 44.2216 86.2727C44.2216 88.968 43.7315 91.108 42.8004 92.6598L41.1506 90.5852H34.0938ZM77.6108 69.5455V90.1932C77.6108 93.3132 75.3729 95.5511 72.2528 95.5511C69.1328 95.5511 66.8949 93.3132 66.8949 90.1932V69.5455H57.8125V90.9773C57.8125 98.6222 63.5952 103.392 72.2528 103.392C80.8452 103.392 86.6932 98.6222 86.6932 90.9773V69.5455H77.6108ZM89.6376 69.5455L101.922 92.4801V103H110.939V92.4801L123.223 69.5455H113.095L106.561 83.1364H106.3L99.7654 69.5455H89.6376ZM126.184 103H150.229V95.6818H135.266V89.9318H149.053V82.6136H135.266V76.8636H150.294V69.5455H126.184V103ZM129.777 67.0625H134.939L138.272 64.7756L141.539 67.0625H146.766L140.167 62.554H136.311L129.777 67.0625ZM145.067 64.9062H149.38L155.13 58.6335H149.314L145.067 64.9062ZM153.884 76.8636H163.947V103H172.898V76.8636H182.961V69.5455H153.884V76.8636ZM208.415 103C218.608 103 225.077 96.7273 225.077 86.2727C225.077 75.8182 218.608 69.5455 208.284 69.5455H195.543V82.679H191.23V87.5142H195.543V103H208.415ZM204.625 95.2898V87.5142H208.807V82.679H204.625V77.2557H207.827C213.054 77.2557 215.929 79.2812 215.929 86.2727C215.929 93.2642 213.054 95.2898 208.088 95.2898H204.625ZM238.362 69.5455H229.279V103H238.362V69.5455ZM233.788 113.128C236.238 113.128 238.231 111.282 238.231 109.011C238.231 106.741 236.238 104.895 233.788 104.895C231.338 104.895 229.345 106.741 229.345 109.011C229.345 111.282 231.338 113.128 233.788 113.128ZM271.612 69.5455H262.53V87.0568H262.268L250.376 69.5455H242.666V103H251.748V85.4233H251.944L264.032 103H271.612V69.5455ZM275.908 103H284.991V89.9318H297.013V103H306.096V69.5455H297.013V82.6136H284.991V69.5455H275.908V103Z" fill="url(#paint0_linear)"/>
</g>
<defs>
<filter id="filter0_d" x="0.84375" y="0.0653381" width="321.252" height="137.062" filterUnits="userSpaceOnUse" color-interpolation-filters="sRGB">
<feFlood flood-opacity="0" result="BackgroundImageFix"/>
<feColorMatrix in="SourceAlpha" type="matrix" values="0 0 0 0 0 0 0 0 0 0 0 0 0 0 0 0 0 0 127 0" result="hardAlpha"/>
<feOffset dy="8"/>
<feGaussianBlur stdDeviation="8"/>
<feComposite in2="hardAlpha" operator="out"/>
<feColorMatrix type="matrix" values="0 0 0 0 0 0 0 0 0 0 0 0 0 0 0 0 0 0 0.08 0"/>
<feBlend mode="normal" in2="BackgroundImageFix" result="effect1_dropShadow"/>
<feBlend mode="normal" in="SourceGraphic" in2="effect1_dropShadow" result="shape"/>
</filter>
<linearGradient id="paint0_linear" x1="35.8414" y1="13" x2="181.17" y2="86.0972" gradientUnits="userSpaceOnUse">
<stop stop-color="#F35D09"/>
<stop offset="1" stop-color="#F3851E"/>
</linearGradient>
</defs>
</svg>
