<svg width="411" height="178" viewBox="0 0 411 178" fill="none" xmlns="http://www.w3.org/2000/svg">
<g filter="url(#filter0_d)">
<path d="M23.3722 12.1818H16.6818L23.8835 34H31.9801L39.1818 12.1818H32.4915L28.017 27.5653H27.8466L23.3722 12.1818ZM43.9359 34.2557C46.0666 34.2557 47.6752 33.5312 48.666 31.6989H48.7939V34H54.291V22.7926C54.291 19.767 51.4252 17.4233 46.7484 17.4233C41.8585 17.4233 39.4508 19.9801 39.2484 22.9631H44.6603C44.7988 21.951 45.5446 21.4716 46.6632 21.4716C47.6859 21.4716 48.4103 21.9403 48.4103 22.7926V22.8352C48.4103 23.7834 47.3663 24.0817 44.6177 24.2841C41.2406 24.5291 38.6092 25.8928 38.6092 29.483C38.6092 32.7429 40.8038 34.2557 43.9359 34.2557ZM45.8535 30.5483C44.8521 30.5483 44.149 30.0582 44.149 29.142C44.149 28.3004 44.7456 27.6506 46.1092 27.4375C47.0467 27.2884 47.8351 27.0966 48.4529 26.8409V28.2045C48.4529 29.696 47.1852 30.5483 45.8535 30.5483ZM60.0945 40.1364C64.2067 40.1364 66.1349 38.0696 67.0405 35.3636L73.0064 17.6364H66.8274L64.1428 28.9716H63.9723L61.3303 17.6364H55.1939L60.9467 34.7244L60.8189 35.0227C60.4247 35.9283 59.2848 35.8963 57.8359 35.3849L56.5575 39.5611C57.4737 39.9233 58.7415 40.1364 60.0945 40.1364ZM86.5362 24.7955C86.5469 23.1761 87.4631 22.196 88.9226 22.196C90.4034 22.196 91.277 23.1761 91.2663 24.7955V34H97.147V23.5597C97.1577 20.0014 94.9098 17.4233 91.4368 17.4233C89.0291 17.4233 87.1222 18.6804 86.4084 20.7472H86.2379V17.6364H80.6555V34H86.5362V24.7955ZM107.934 40.4773C113.111 40.4773 116.542 38.1122 116.542 33.9574V17.6364H110.661V20.4915H110.533C109.894 18.8295 108.36 17.4233 105.931 17.4233C102.692 17.4233 99.5387 19.8949 99.5387 25.8182C99.5387 31.4858 102.479 33.7869 105.973 33.7869C108.189 33.7869 109.936 32.8494 110.576 31.1875H110.746V33.9574C110.746 35.8857 109.627 36.5142 108.104 36.5142C106.751 36.5142 105.76 36.1094 105.59 35.0653H99.9222C100.146 38.2188 103.012 40.4773 107.934 40.4773ZM108.147 29.6108C106.527 29.6108 105.59 28.2472 105.59 25.8182C105.59 23.3892 106.527 21.9403 108.147 21.9403C109.766 21.9403 110.746 23.3892 110.746 25.8182C110.746 28.2045 109.766 29.6108 108.147 29.6108ZM124.092 34.2557C126.223 34.2557 127.831 33.5312 128.822 31.6989H128.95V34H134.447V22.7926C134.447 19.767 131.581 17.4233 126.905 17.4233C122.015 17.4233 119.607 19.9801 119.405 22.9631H124.817C124.955 21.951 125.701 21.4716 126.819 21.4716C127.842 21.4716 128.567 21.9403 128.567 22.7926V22.8352C128.567 23.7834 127.523 24.0817 124.774 24.2841C121.397 24.5291 118.765 25.8928 118.765 29.483C118.765 32.7429 120.96 34.2557 124.092 34.2557ZM124.987 15.6974L127.075 13.3537L129.163 15.6974H134.021V15.5696L129.121 10.7116H125.03L120.129 15.5696V15.6974H124.987ZM126.01 30.5483C125.008 30.5483 124.305 30.0582 124.305 29.142C124.305 28.3004 124.902 27.6506 126.265 27.4375C127.203 27.2884 127.991 27.0966 128.609 26.8409V28.2045C128.609 29.696 127.341 30.5483 126.01 30.5483ZM143.138 24.7955C143.148 23.1761 144.065 22.196 145.524 22.196C147.005 22.196 147.879 23.1761 147.868 24.7955V34H153.749V23.5597C153.759 20.0014 151.511 17.4233 148.038 17.4233C145.631 17.4233 143.724 18.6804 143.01 20.7472H142.839V17.6364H137.257V34H143.138V24.7955ZM168.509 24.7955C168.52 23.1761 169.457 22.196 170.895 22.196C172.397 22.196 173.25 23.1761 173.239 24.7955V34H179.12V23.5597C179.13 19.9801 176.872 17.4233 173.409 17.4233C170.991 17.4233 169.201 18.6591 168.466 20.7472H168.296V12.1818H162.628V34H168.509V24.7955ZM186.582 34.2557C188.713 34.2557 190.322 33.5312 191.312 31.6989H191.44V34H196.938V22.7926C196.938 19.767 194.072 17.4233 189.395 17.4233C184.505 17.4233 182.097 19.9801 181.895 22.9631H187.307C187.445 21.951 188.191 21.4716 189.31 21.4716C190.332 21.4716 191.057 21.9403 191.057 22.7926V22.8352C191.057 23.7834 190.013 24.0817 187.264 24.2841C183.887 24.5291 181.256 25.8928 181.256 29.483C181.256 32.7429 183.45 34.2557 186.582 34.2557ZM187.648 15.5909H191.526L189.48 10.8182H184.452L187.648 15.5909ZM188.5 30.5483C187.499 30.5483 186.795 30.0582 186.795 29.142C186.795 28.3004 187.392 27.6506 188.756 27.4375C189.693 27.2884 190.482 27.0966 191.099 26.8409V28.2045C191.099 29.696 189.832 30.5483 188.5 30.5483ZM205.628 24.7955C205.639 23.1761 206.555 22.196 208.014 22.196C209.495 22.196 210.369 23.1761 210.358 24.7955V34H216.239V23.5597C216.249 20.0014 214.002 17.4233 210.529 17.4233C208.121 17.4233 206.214 18.6804 205.5 20.7472H205.33V17.6364H199.747V34H205.628V24.7955ZM227.025 40.4773C232.203 40.4773 235.633 38.1122 235.633 33.9574V17.6364H229.753V20.4915H229.625C228.986 18.8295 227.452 17.4233 225.023 17.4233C221.784 17.4233 218.631 19.8949 218.631 25.8182C218.631 31.4858 221.571 33.7869 225.065 33.7869C227.281 33.7869 229.028 32.8494 229.667 31.1875H229.838V33.9574C229.838 35.8857 228.719 36.5142 227.196 36.5142C225.843 36.5142 224.852 36.1094 224.682 35.0653H219.014C219.238 38.2188 222.104 40.4773 227.025 40.4773ZM227.238 29.6108C225.619 29.6108 224.682 28.2472 224.682 25.8182C224.682 23.3892 225.619 21.9403 227.238 21.9403C228.858 21.9403 229.838 23.3892 229.838 25.8182C229.838 28.2045 228.858 29.6108 227.238 29.6108ZM244.335 31.017H239.903V32.2102C239.903 35.108 238.923 38.1442 238.582 39.3267H242.204C242.715 38.1442 244.026 35.2891 244.249 32.2102L244.335 31.017ZM31.6818 92C42.3182 92 49.0682 85.4545 49.0682 74.5455C49.0682 63.6364 42.3182 57.0909 31.5455 57.0909H18.25V92H31.6818ZM27.7273 83.9545V65.1364H31.0682C36.5227 65.1364 39.5227 67.25 39.5227 74.5455C39.5227 81.8409 36.5227 83.9545 31.3409 83.9545H27.7273ZM53.4531 92H78.544V84.3636H62.9304V78.3636H77.3168V70.7273H62.9304V64.7273H78.6122V57.0909H53.4531V92ZM68.3168 49.3864H64.0213L57.2713 54.2955H62.9304L66.1349 51.9091L69.4759 54.2955H74.9986L68.3168 49.3864ZM69.544 43.7273C69.527 44.6136 69.3906 45.6364 68.8622 45.6364C67.277 45.6364 65.0952 44.2727 63.4759 44.2727C61.6179 44.2727 60.6634 46.1136 60.6804 47.8182L63.544 48.6364C63.527 47.75 63.6634 47.0682 64.294 47.0682C65.9134 47.0682 67.6179 48.5 69.6804 48.5C71.5043 48.5 72.4588 46.6591 72.4759 44.8182L69.544 43.7273ZM106.307 92C116.943 92 123.693 85.4545 123.693 74.5455C123.693 63.6364 116.943 57.0909 106.17 57.0909H92.875V92H106.307ZM102.352 83.9545V65.1364H105.693C111.148 65.1364 114.148 67.25 114.148 74.5455C114.148 81.8409 111.148 83.9545 105.966 83.9545H102.352ZM134.943 92L136.955 85.3182H148.477L150.489 92H160.716L149.193 57.0909H136.239L124.716 92H134.943ZM139.648 53.8182H145.852L142.58 46.1818H134.534L139.648 53.8182ZM139.102 78.2273L142.58 66.7045H142.852L146.33 78.2273H139.102ZM194.283 57.0909H184.805V75.3636H184.533L172.124 57.0909H164.078V92H173.555V73.6591H173.76L186.374 92H194.283V57.0909ZM221.436 68.6136H231.016C230.283 61.608 223.925 56.6136 215.675 56.6136C206.266 56.6136 198.629 63.0909 198.629 74.6136C198.629 85.6591 205.55 92.4773 215.743 92.4773C224.879 92.4773 231.425 86.8864 231.425 77.3409V72.5H215.947V79.25H222.288C222.203 82.2841 220.055 84.2273 215.811 84.2273C210.902 84.2273 208.379 80.6136 208.379 74.4773C208.379 68.4261 211.107 64.8636 215.879 64.8636C218.845 64.8636 220.857 66.2273 221.436 68.6136ZM33.983 117.636H27.804L25.1619 128.46H24.9915L22.3494 117.636H16.1705L21.6676 134H28.4858L33.983 117.636ZM50.3706 116.869C50.3706 118.318 50.1895 119.437 49.6355 120.151C48.1866 118.425 45.9281 117.423 43.041 117.423C37.7143 117.423 34.5609 120.832 34.5609 125.861C34.5609 130.889 37.7143 134.298 43.041 134.298C48.3677 134.298 51.5211 130.889 51.5211 125.861C51.5211 124.476 51.2868 123.219 50.8287 122.121C52.5119 121.184 53.3109 119.384 53.3109 116.869H50.3706ZM43.0836 129.952C41.5069 129.952 40.5694 128.386 40.5694 125.818C40.5694 123.251 41.5069 121.685 43.0836 121.685C44.5751 121.685 45.5126 123.251 45.5126 125.818C45.5126 128.386 44.5751 129.952 43.0836 129.952ZM41.0808 115.591H44.9586L48.1547 110.818H43.1262L41.0808 115.591ZM54.8157 134H60.6964V117.636H54.8157V134ZM57.756 115.932C59.354 115.932 60.6538 114.728 60.6538 113.247C60.6538 111.766 59.354 110.562 57.756 110.562C56.158 110.562 54.8583 111.766 54.8583 113.247C54.8583 114.728 56.158 115.932 57.756 115.932ZM75.5499 124.795C75.5605 123.176 76.498 122.196 77.9363 122.196C79.4384 122.196 80.2907 123.176 80.28 124.795V134H86.1607V123.56C86.1713 119.98 83.9128 117.423 80.4505 117.423C78.0321 117.423 76.2424 118.659 75.5073 120.747H75.3368V112.182H69.6692V134H75.5499V124.795ZM96.9473 134.298C102.274 134.298 105.427 130.889 105.427 125.861C105.427 120.832 102.274 117.423 96.9473 117.423C91.6206 117.423 88.4672 120.832 88.4672 125.861C88.4672 130.889 91.6206 134.298 96.9473 134.298ZM96.9899 129.952C95.4132 129.952 94.4757 128.386 94.4757 125.818C94.4757 123.251 95.4132 121.685 96.9899 121.685C98.4814 121.685 99.4189 123.251 99.4189 125.818C99.4189 128.386 98.4814 129.952 96.9899 129.952ZM98.3109 112.821H95.6262L91.4075 115.889H94.9444L96.9473 114.398L99.0353 115.889H102.487L98.3109 112.821ZM99.0779 109.284C99.0673 109.838 98.9821 110.477 98.6518 110.477C97.661 110.477 96.2974 109.625 95.2853 109.625C94.1241 109.625 93.5275 110.776 93.5382 111.841L95.3279 112.352C95.3173 111.798 95.4025 111.372 95.7967 111.372C96.8088 111.372 97.8741 112.267 99.1632 112.267C100.303 112.267 100.9 111.116 100.91 109.966L99.0779 109.284ZM123.549 117.636H120.736V113.716H114.856V117.636H112.768V121.898H114.856V129.291C114.813 132.722 116.933 134.458 120.992 134.234C122.324 134.16 123.314 133.883 123.847 133.723L122.995 129.589C122.771 129.643 122.196 129.76 121.844 129.76C121.077 129.76 120.736 129.419 120.736 128.737V121.898H123.549V117.636ZM125.949 134H131.829V125.477C131.829 123.602 133.118 122.366 134.855 122.366C135.462 122.366 136.442 122.462 137.028 122.665V117.647C136.559 117.509 136.048 117.423 135.537 117.423C133.789 117.423 132.426 118.446 131.829 120.747H131.659V117.636H125.949V134ZM153.232 116.869C153.232 118.318 153.051 119.437 152.497 120.151C151.048 118.425 148.789 117.423 145.902 117.423C140.576 117.423 137.422 120.832 137.422 125.861C137.422 130.889 140.576 134.298 145.902 134.298C151.229 134.298 154.382 130.889 154.382 125.861C154.382 124.476 154.148 123.219 153.69 122.121C155.373 121.184 156.172 119.384 156.172 116.869H153.232ZM145.945 129.952C144.368 129.952 143.431 128.386 143.431 125.818C143.431 123.251 144.368 121.685 145.945 121.685C147.436 121.685 148.374 123.251 148.374 125.818C148.374 128.386 147.436 129.952 145.945 129.952ZM145.902 140.605C147.5 140.605 148.8 139.401 148.8 137.92C148.8 136.44 147.5 135.236 145.902 135.236C144.304 135.236 143.005 136.44 143.005 137.92C143.005 139.401 144.304 140.605 145.902 140.605ZM163.398 130.591H174.009V134H179.676V130.591H182.191V125.989H179.676V112.182H172.176L163.398 125.989V130.591ZM174.137 125.989H169.236V125.818L173.966 118.318H174.137V125.989ZM197.161 129.909C197.183 132.679 198.972 135.065 202.317 135.065C205.663 135.065 207.538 132.679 207.516 129.909V128.759C207.538 125.946 205.705 123.602 202.317 123.602C199.015 123.602 197.183 125.989 197.161 128.759V129.909ZM185.741 117.423C185.762 120.193 187.552 122.537 190.897 122.537C194.242 122.537 196.117 120.236 196.096 117.423V116.273C196.117 113.46 194.285 111.116 190.897 111.116C187.637 111.116 185.762 113.46 185.741 116.273V117.423ZM186.934 134H189.96L204.96 112.182H201.934L186.934 134ZM200.869 128.759C200.89 127.906 201.188 126.926 202.317 126.926C203.532 126.926 203.788 127.906 203.766 128.759V129.909C203.788 130.761 203.489 131.699 202.317 131.699C201.188 131.699 200.89 130.719 200.869 129.909V128.759ZM189.491 116.273C189.512 115.463 189.768 114.44 190.897 114.44C192.112 114.44 192.367 115.42 192.346 116.273V117.423C192.367 118.276 192.069 119.213 190.897 119.213C189.81 119.213 189.512 118.276 189.491 117.423V116.273ZM223.294 112.182H217.413V134H223.294V112.182ZM230.85 134.256C232.981 134.256 234.589 133.531 235.58 131.699H235.708V134H241.205V122.793C241.205 119.767 238.339 117.423 233.662 117.423C228.773 117.423 226.365 119.98 226.162 122.963H231.574C231.713 121.951 232.459 121.472 233.577 121.472C234.6 121.472 235.324 121.94 235.324 122.793V122.835C235.324 123.783 234.28 124.082 231.532 124.284C228.155 124.529 225.523 125.893 225.523 129.483C225.523 132.743 227.718 134.256 230.85 134.256ZM230.935 115.591C230.935 114.526 231.361 113.972 232.043 113.972C232.491 113.972 232.863 114.27 233.3 114.621C233.929 115.122 234.696 115.729 236.006 115.719C237.998 115.697 239.586 114.131 239.628 111.116H236.773C236.752 112.15 236.443 112.768 235.623 112.778C235.218 112.778 234.845 112.491 234.408 112.15C233.769 111.649 232.97 111.021 231.66 111.031C229.646 111.042 228.037 112.523 228.037 115.591H230.935ZM232.768 130.548C231.766 130.548 231.063 130.058 231.063 129.142C231.063 128.3 231.66 127.651 233.023 127.438C233.961 127.288 234.749 127.097 235.367 126.841V128.205C235.367 129.696 234.099 130.548 232.768 130.548ZM244.015 134H249.896V117.636H244.015V134ZM246.955 115.932C248.553 115.932 249.853 114.728 249.853 113.247C249.853 111.766 248.553 110.562 246.955 110.562C245.357 110.562 244.058 111.766 244.058 113.247C244.058 114.728 245.357 115.932 246.955 115.932ZM273.826 122.963C273.677 119.501 270.8 117.423 266.07 117.423C261.393 117.423 258.506 119.341 258.528 122.75C258.506 125.328 260.179 126.979 263.513 127.565L266.411 128.077C267.689 128.311 268.265 128.652 268.286 129.27C268.265 129.952 267.487 130.335 266.411 130.335C265.079 130.335 264.142 129.76 263.982 128.716H258.144C258.464 132.072 261.361 134.298 266.368 134.298C270.896 134.298 274.231 132.093 274.252 128.588C274.231 126.17 272.611 124.763 269.266 124.156L265.942 123.56C264.696 123.336 264.344 122.888 264.366 122.409C264.344 121.727 265.186 121.344 266.198 121.344C267.359 121.344 268.329 121.962 268.414 122.963H273.826ZM287.116 126.841C287.127 128.46 286.189 129.44 284.73 129.44C283.249 129.44 282.396 128.46 282.386 126.841V117.636H276.505V128.077C276.516 131.656 278.774 134.213 282.215 134.213C284.655 134.213 286.53 132.977 287.244 130.889H287.414V134H292.997V117.636H287.116V126.841ZM300.547 134.256C302.678 134.256 304.287 133.531 305.277 131.699H305.405V134H310.902V122.793C310.902 119.767 308.037 117.423 303.36 117.423C298.47 117.423 296.062 119.98 295.86 122.963H301.272C301.41 121.951 302.156 121.472 303.275 121.472C304.297 121.472 305.022 121.94 305.022 122.793V122.835C305.022 123.783 303.978 124.082 301.229 124.284C297.852 124.529 295.221 125.893 295.221 129.483C295.221 132.743 297.415 134.256 300.547 134.256ZM297.948 116.017H301.314L303.488 114.526L305.618 116.017H309.027L304.723 113.077H302.209L297.948 116.017ZM307.919 114.611H310.732L314.482 110.52H310.689L307.919 114.611ZM302.465 130.548C301.463 130.548 300.76 130.058 300.76 129.142C300.76 128.3 301.357 127.651 302.721 127.438C303.658 127.288 304.446 127.097 305.064 126.841V128.205C305.064 129.696 303.797 130.548 302.465 130.548ZM323.471 117.636H320.658V113.716H314.778V117.636H312.689V121.898H314.778V129.291C314.735 132.722 316.855 134.458 320.914 134.234C322.246 134.16 323.236 133.883 323.769 133.723L322.917 129.589C322.693 129.643 322.118 129.76 321.766 129.76C320.999 129.76 320.658 129.419 320.658 128.737V121.898H323.471V117.636Z" fill="url(#paint0_linear)"/>
</g>
<path d="M25.1719 161H22.7109V158.125H20.375V161H18.6172V162.875H20.375V169.961C20.3672 172.141 22.0313 173.195 23.875 173.156C24.6172 173.148 25.1172 173.008 25.3906 172.906L24.9688 170.977C24.8125 171.008 24.5234 171.078 24.1484 171.078C23.3906 171.078 22.7109 170.828 22.7109 169.477V162.875H25.1719V161ZM39.4134 160.422C39.4055 161.898 39.3352 162.648 37.9446 162.812V161H35.6009V168.023C35.6087 170.062 34.093 171.031 32.7805 171.031C31.3352 171.031 30.3352 169.984 30.3352 168.352V161H27.9993V168.633C27.9993 171.609 29.6321 173.156 31.9368 173.156C33.7415 173.156 34.968 172.203 35.5227 170.922H35.6477V173H37.9446V164.172C40.3899 163.992 41.1321 162.719 41.1399 160.422H39.4134ZM32.0774 159.398H33.9446L32.1243 155.797H29.6634L32.0774 159.398ZM48.7557 173H51.1698V166.023H57.9666V163.953H51.1698V159.078H58.6776V157H48.7557V173ZM61.8663 173H64.2804V167.375H67.5616C71.2726 167.375 73.1085 165.133 73.1085 162.18C73.1085 159.234 71.2882 157 67.5695 157H61.8663V173ZM64.2804 165.328V159.07H67.3116C69.7023 159.07 70.6788 160.367 70.6788 162.18C70.6788 163.992 69.7023 165.328 67.3429 165.328H64.2804ZM75.3695 159.078H80.3539V173H82.7602V159.078H87.7523V157H75.3695V159.078ZM105.478 161.203H107.806C107.735 158.641 105.47 156.781 102.22 156.781C99.0088 156.781 96.5478 158.617 96.5478 161.375C96.5478 163.602 98.1416 164.906 100.712 165.602L102.603 166.117C104.313 166.57 105.634 167.133 105.634 168.555C105.634 170.117 104.142 171.148 102.087 171.148C100.228 171.148 98.6806 170.32 98.54 168.578H96.1181C96.2744 171.477 98.5166 173.266 102.103 173.266C105.86 173.266 108.024 171.289 108.024 168.578C108.024 165.695 105.454 164.578 103.423 164.078L101.86 163.672C100.61 163.352 98.9463 162.766 98.9541 161.234C98.9541 159.875 100.196 158.867 102.165 158.867C104.001 158.867 105.306 159.727 105.478 161.203ZM115.996 173.242C119.379 173.242 121.59 170.766 121.59 167.055C121.59 163.32 119.379 160.844 115.996 160.844C112.614 160.844 110.403 163.32 110.403 167.055C110.403 170.766 112.614 173.242 115.996 173.242ZM116.004 171.281C113.793 171.281 112.762 169.352 112.762 167.047C112.762 164.75 113.793 162.797 116.004 162.797C118.199 162.797 119.231 164.75 119.231 167.047C119.231 169.352 118.199 171.281 116.004 171.281ZM130.128 161H127.543V159.922C127.543 158.859 127.98 158.281 129.121 158.281C129.605 158.281 129.949 158.391 130.168 158.461L130.714 156.57C130.386 156.445 129.707 156.25 128.761 156.25C126.863 156.25 125.199 157.359 125.199 159.609V161H123.347V162.875H125.199V173H127.543V162.875H130.128V161ZM138.36 161H135.899V158.125H133.563V161H131.805V162.875H133.563V169.961C133.555 172.141 135.22 173.195 137.063 173.156C137.805 173.148 138.305 173.008 138.579 172.906L138.157 170.977C138.001 171.008 137.712 171.078 137.337 171.078C136.579 171.078 135.899 170.828 135.899 169.477V162.875H138.36V161ZM143.766 173H146.141L148.578 164.336H148.758L151.195 173H153.578L157.102 161H154.688L152.352 169.773H152.234L149.891 161H147.477L145.117 169.812H145L142.649 161H140.234L143.766 173ZM163.031 173.266C165.015 173.266 166.132 172.258 166.577 171.359H166.671V173H168.952V165.031C168.952 161.539 166.202 160.844 164.296 160.844C162.124 160.844 160.124 161.719 159.343 163.906L161.538 164.406C161.882 163.555 162.757 162.734 164.327 162.734C165.835 162.734 166.609 163.523 166.609 164.883V164.937C166.609 165.789 165.734 165.773 163.577 166.023C161.304 166.289 158.976 166.883 158.976 169.609C158.976 171.969 160.749 173.266 163.031 173.266ZM163.538 171.391C162.218 171.391 161.265 170.797 161.265 169.641C161.265 168.391 162.374 167.945 163.726 167.766C164.484 167.664 166.281 167.461 166.617 167.125V168.672C166.617 170.094 165.484 171.391 163.538 171.391ZM172.284 173H174.62V165.672C174.62 164.102 175.831 162.969 177.487 162.969C177.971 162.969 178.518 163.055 178.706 163.109V160.875C178.471 160.844 178.01 160.82 177.714 160.82C176.307 160.82 175.104 161.617 174.667 162.906H174.542V161H172.284V173ZM185.689 173.242C188.307 173.242 190.158 171.953 190.689 170L188.478 169.602C188.057 170.734 187.041 171.312 185.713 171.312C183.713 171.312 182.369 170.016 182.307 167.703H190.838V166.875C190.838 162.539 188.244 160.844 185.525 160.844C182.182 160.844 179.978 163.391 179.978 167.078C179.978 170.805 182.15 173.242 185.689 173.242ZM182.314 165.953C182.408 164.25 183.643 162.773 185.541 162.773C187.353 162.773 188.541 164.117 188.549 165.953H182.314Z" fill="#4F565F"/>
<defs>
<filter id="filter0_d" x="0.17041" y="2.71164" width="339.599" height="161.893" filterUnits="userSpaceOnUse" color-interpolation-filters="sRGB">
<feFlood flood-opacity="0" result="BackgroundImageFix"/>
<feColorMatrix in="SourceAlpha" type="matrix" values="0 0 0 0 0 0 0 0 0 0 0 0 0 0 0 0 0 0 127 0" result="hardAlpha"/>
<feOffset dy="8"/>
<feGaussianBlur stdDeviation="8"/>
<feComposite in2="hardAlpha" operator="out"/>
<feColorMatrix type="matrix" values="0 0 0 0 0 0 0 0 0 0 0 0 0 0 0 0 0 0 0.08 0"/>
<feBlend mode="normal" in2="BackgroundImageFix" result="effect1_dropShadow"/>
<feBlend mode="normal" in="SourceGraphic" in2="effect1_dropShadow" result="shape"/>
</filter>
<linearGradient id="paint0_linear" x1="38.9391" y1="1.54968e-05" x2="243.178" y2="94.568" gradientUnits="userSpaceOnUse">
<stop stop-color="#0DB14B"/>
<stop offset="1" stop-color="#07CB32"/>
</linearGradient>
</defs>
</svg>
