<svg width="287" height="163" viewBox="0 0 287 163" fill="none" xmlns="http://www.w3.org/2000/svg">
<g filter="url(#filter0_d)">
<path d="M17.4062 32H27.6761C32.4169 32 35.3466 29.4112 35.3466 25.821C35.3466 22.7422 33.0774 20.7287 30.2756 20.6222V20.4091C32.8004 19.9084 34.4943 18.044 34.4943 15.6364C34.4943 12.3125 31.8523 10.1818 26.8665 10.1818H17.4062V32ZM23.3295 27.2699V22.6676H26.1847C27.9851 22.6676 29.0824 23.5199 29.0824 25.054C29.0824 26.5135 28.0916 27.2699 26.0994 27.2699H23.3295ZM23.3295 19.0028V14.8267H25.8438C27.3139 14.8267 28.4006 15.5724 28.4006 16.9148C28.4006 18.2571 27.3139 19.0028 25.7585 19.0028H23.3295ZM42.0902 32.2557C44.2209 32.2557 45.8295 31.5312 46.8203 29.6989H46.9482V32H52.4453V20.7926C52.4453 17.767 49.5795 15.4233 44.9027 15.4233C40.0128 15.4233 37.6051 17.9801 37.4027 20.9631H42.8146C42.9531 19.951 43.6989 19.4716 44.8175 19.4716C45.8402 19.4716 46.5646 19.9403 46.5646 20.7926V20.8352C46.5646 21.7834 45.5206 22.0817 42.772 22.2841C39.3949 22.5291 36.7635 23.8928 36.7635 27.483C36.7635 30.7429 38.9581 32.2557 42.0902 32.2557ZM44.8601 38.6051C46.4581 38.6051 47.7578 37.4013 47.7578 35.9205C47.7578 34.4396 46.4581 33.2358 44.8601 33.2358C43.2621 33.2358 41.9624 34.4396 41.9624 35.9205C41.9624 37.4013 43.2621 38.6051 44.8601 38.6051ZM44.0078 28.5483C43.0064 28.5483 42.3033 28.0582 42.3033 27.142C42.3033 26.3004 42.8999 25.6506 44.2635 25.4375C45.201 25.2884 45.9893 25.0966 46.6072 24.8409V26.2045C46.6072 27.696 45.3395 28.5483 44.0078 28.5483ZM61.1358 22.7955C61.1465 21.1761 62.0627 20.196 63.5222 20.196C65.003 20.196 65.8766 21.1761 65.8659 22.7955V32H71.7466V21.5597C71.7573 18.0014 69.5094 15.4233 66.0364 15.4233C63.6287 15.4233 61.7218 16.6804 61.008 18.7472H60.8375V15.6364H55.2551V32H61.1358V22.7955ZM80.6262 32H86.5069V22.4545C86.5069 21.027 87.2527 20.1534 88.4672 20.1534C89.6816 20.1534 90.47 21.027 90.47 22.4545V32H96.095V22.4545C96.095 21.027 96.8407 20.1534 98.0552 20.1534C99.2697 20.1534 100.058 21.027 100.058 22.4545V32H105.939V20.9631C105.939 17.6072 103.787 15.4233 100.655 15.4233C98.2257 15.4233 96.2654 16.7443 95.7115 18.7472H95.541C95.2001 16.7443 93.3677 15.4233 91.0666 15.4233C88.7974 15.4233 87.0609 16.7017 86.3791 18.7472H86.2086V15.6364H80.6262V32ZM119.45 24.8409C119.461 26.4602 118.523 27.4403 117.064 27.4403C115.583 27.4403 114.73 26.4602 114.72 24.8409V15.6364H108.839V26.0767C108.85 29.6562 111.108 32.2131 114.549 32.2131C116.989 32.2131 118.864 30.9773 119.578 28.8892H119.748V32H125.331V15.6364H119.45V24.8409ZM132.881 32.2557C135.012 32.2557 136.621 31.5312 137.611 29.6989H137.739V32H143.236V20.7926C143.236 17.767 140.371 15.4233 135.694 15.4233C130.804 15.4233 128.396 17.9801 128.194 20.9631H133.606C133.744 19.951 134.49 19.4716 135.608 19.4716C136.631 19.4716 137.356 19.9403 137.356 20.7926V20.8352C137.356 21.7834 136.312 22.0817 133.563 22.2841C130.186 22.5291 127.555 23.8928 127.555 27.483C127.555 30.7429 129.749 32.2557 132.881 32.2557ZM134.799 28.5483C133.797 28.5483 133.094 28.0582 133.094 27.142C133.094 26.3004 133.691 25.6506 135.055 25.4375C135.992 25.2884 136.78 25.0966 137.398 24.8409V26.2045C137.398 27.696 136.131 28.5483 134.799 28.5483ZM157.903 22.7955C157.914 21.1761 158.83 20.196 160.29 20.196C161.771 20.196 162.644 21.1761 162.634 22.7955V32H168.514V21.5597C168.525 18.0014 166.277 15.4233 162.804 15.4233C160.396 15.4233 158.489 16.6804 157.776 18.7472H157.605V15.6364H152.023V32H157.903V22.7955ZM177.298 22.7955C177.309 21.1761 178.246 20.196 179.684 20.196C181.186 20.196 182.039 21.1761 182.028 22.7955V32H187.909V21.5597C187.919 17.9801 185.661 15.4233 182.199 15.4233C179.78 15.4233 177.99 16.6591 177.255 18.7472H177.085V10.1818H171.417V32H177.298V22.7955ZM195.371 32.2557C197.502 32.2557 199.111 31.5312 200.102 29.6989H200.229V32H205.727V20.7926C205.727 17.767 202.861 15.4233 198.184 15.4233C193.294 15.4233 190.886 17.9801 190.684 20.9631H196.096C196.234 19.951 196.98 19.4716 198.099 19.4716C199.121 19.4716 199.846 19.9403 199.846 20.7926V20.8352C199.846 21.7834 198.802 22.0817 196.053 22.2841C192.676 22.5291 190.045 23.8928 190.045 27.483C190.045 30.7429 192.239 32.2557 195.371 32.2557ZM196.437 13.5909H200.315L198.269 8.81818H193.241L196.437 13.5909ZM197.289 28.5483C196.288 28.5483 195.585 28.0582 195.585 27.142C195.585 26.3004 196.181 25.6506 197.545 25.4375C198.482 25.2884 199.271 25.0966 199.888 24.8409V26.2045C199.888 27.696 198.621 28.5483 197.289 28.5483ZM214.247 29.017H209.815V30.2102C209.815 33.108 208.835 36.1442 208.494 37.3267H212.116C212.627 36.1442 213.938 33.2891 214.161 30.2102L214.247 29.017ZM50.8409 68.1818C50.0909 59.5227 43.75 54.6136 34.9545 54.6136C25.5455 54.6136 18.1136 60.8864 18.1136 72.5455C18.1136 84.1534 25.3409 90.4773 34.9545 90.4773C45.1818 90.4773 50.3636 83.3864 50.8409 77.4545L41.2273 77.3864C40.75 80.3693 38.6364 82.2273 35.1591 82.2273C30.5398 82.2273 27.8636 78.9545 27.8636 72.5455C27.8636 66.4773 30.4545 62.8636 35.2273 62.8636C38.875 62.8636 40.9545 65.0114 41.2273 68.1818H50.8409ZM55.1406 90H64.6179V76.3636H77.1634V90H86.6406V55.0909H77.1634V68.7273H64.6179V55.0909H55.1406V90ZM111.8 55.0909V76.6364C111.8 79.892 109.464 82.2273 106.209 82.2273C102.953 82.2273 100.618 79.892 100.618 76.6364V55.0909H91.1406V77.4545C91.1406 85.4318 97.1747 90.4091 106.209 90.4091C115.175 90.4091 121.277 85.4318 121.277 77.4545V55.0909H111.8ZM103.072 51.8182H109.277L114.391 44.1818H106.345L103.072 51.8182ZM155.986 55.0909H146.509V73.3636H146.236L133.827 55.0909H125.781V90H135.259V71.6591H135.463L148.077 90H155.986V55.0909ZM183.139 66.6136H192.719C191.986 59.608 185.628 54.6136 177.378 54.6136C167.969 54.6136 160.332 61.0909 160.332 72.6136C160.332 83.6591 167.253 90.4773 177.446 90.4773C186.582 90.4773 193.128 84.8864 193.128 75.3409V70.5H177.651V77.25H183.991C183.906 80.2841 181.759 82.2273 177.514 82.2273C172.605 82.2273 170.082 78.6136 170.082 72.4773C170.082 66.4261 172.81 62.8636 177.582 62.8636C180.548 62.8636 182.56 64.2273 183.139 66.6136ZM206.155 62.7273H216.655V90H225.996V62.7273H236.496V55.0909H206.155V62.7273ZM244.678 90L246.689 83.3182H258.212L260.223 90H270.45L258.928 55.0909H245.973L234.45 90H244.678ZM248.837 76.2273L252.314 64.7045H252.587L256.064 76.2273H248.837ZM25.375 132.298C30.2223 132.298 33.1946 129.518 33.2585 125.182H27.804C27.6761 126.897 26.7493 127.824 25.4602 127.824C23.9155 127.824 22.9034 126.503 22.9034 123.818C22.9034 121.134 23.9155 119.812 25.4602 119.812C26.7599 119.812 27.6442 120.739 27.804 122.455H33.2585C33.2266 118.193 30.1903 115.423 25.375 115.423C20.0483 115.423 16.8949 118.832 16.8949 123.861C16.8949 128.889 20.0483 132.298 25.375 132.298ZM46.2956 124.841C46.3063 126.46 45.3688 127.44 43.9093 127.44C42.4284 127.44 41.5762 126.46 41.5655 124.841V115.636H35.6848V126.077C35.6955 129.656 37.954 132.213 41.3951 132.213C43.8347 132.213 45.7097 130.977 46.4235 128.889H46.5939V132H52.1763V115.636H46.2956V124.841ZM42.0343 113.591H45.9121L43.8667 108.818H38.8382L42.0343 113.591ZM61.0479 122.795C61.0586 121.176 61.9748 120.196 63.4343 120.196C64.9151 120.196 65.7887 121.176 65.7781 122.795V132H71.6587V121.56C71.6694 118.001 69.4215 115.423 65.9485 115.423C63.5408 115.423 61.6339 116.68 60.9201 118.747H60.7496V115.636H55.1673V132H61.0479V122.795ZM82.4453 138.477C87.6229 138.477 91.0533 136.112 91.0533 131.957V115.636H85.1726V118.491H85.0447C84.4055 116.83 82.8714 115.423 80.4425 115.423C77.2038 115.423 74.0504 117.895 74.0504 123.818C74.0504 129.486 76.9908 131.787 80.4851 131.787C82.701 131.787 84.4482 130.849 85.0874 129.188H85.2578V131.957C85.2578 133.886 84.1392 134.514 82.6158 134.514C81.2628 134.514 80.272 134.109 80.1016 133.065H74.4339C74.6577 136.219 77.5234 138.477 82.4453 138.477ZM82.6584 127.611C81.0391 127.611 80.1016 126.247 80.1016 123.818C80.1016 121.389 81.0391 119.94 82.6584 119.94C84.2777 119.94 85.2578 121.389 85.2578 123.818C85.2578 126.205 84.2777 127.611 82.6584 127.611ZM109.779 115.636H106.967V111.716H101.086V115.636H98.998V119.898H101.086V127.291C101.044 130.722 103.164 132.458 107.222 132.234C108.554 132.16 109.545 131.883 110.078 131.723L109.225 127.589C109.002 127.643 108.426 127.76 108.075 127.76C107.308 127.76 106.967 127.419 106.967 126.737V119.898H109.779V115.636ZM112.179 132H118.06V123.477C118.06 121.602 119.349 120.366 121.085 120.366C121.692 120.366 122.673 120.462 123.259 120.665V115.647C122.79 115.509 122.278 115.423 121.767 115.423C120.02 115.423 118.656 116.446 118.06 118.747H117.889V115.636H112.179V132ZM128.985 132.256C131.115 132.256 132.724 131.531 133.715 129.699H133.843V132H139.34V120.793C139.34 117.767 136.474 115.423 131.797 115.423C126.907 115.423 124.5 117.98 124.297 120.963H129.709C129.848 119.951 130.593 119.472 131.712 119.472C132.735 119.472 133.459 119.94 133.459 120.793V120.835C133.459 121.783 132.415 122.082 129.667 122.284C126.289 122.529 123.658 123.893 123.658 127.483C123.658 130.743 125.853 132.256 128.985 132.256ZM134.013 113.207V112.355C135.185 112.185 136.336 111.545 136.314 110.352C136.336 108.477 133.992 107.412 129.624 107.412L129.496 109.756C130.668 109.756 131.52 109.884 131.499 110.651C131.52 111.119 130.924 111.503 129.411 111.545L129.794 113.207H134.013ZM130.902 128.548C129.901 128.548 129.198 128.058 129.198 127.142C129.198 126.3 129.794 125.651 131.158 125.438C132.096 125.288 132.884 125.097 133.502 124.841V126.205C133.502 127.696 132.234 128.548 130.902 128.548ZM154.007 110.182H148.126V132H154.007V110.182ZM161.563 132.256C163.694 132.256 165.302 131.531 166.293 129.699H166.421V132H171.918V120.793C171.918 117.767 169.052 115.423 164.375 115.423C159.485 115.423 157.078 117.98 156.875 120.963H162.287C162.426 119.951 163.172 119.472 164.29 119.472C165.313 119.472 166.037 119.94 166.037 120.793V120.835C166.037 121.783 164.993 122.082 162.245 122.284C158.868 122.529 156.236 123.893 156.236 127.483C156.236 130.743 158.431 132.256 161.563 132.256ZM161.648 113.591C161.648 112.526 162.074 111.972 162.756 111.972C163.203 111.972 163.576 112.27 164.013 112.621C164.642 113.122 165.409 113.729 166.719 113.719C168.711 113.697 170.299 112.131 170.341 109.116H167.486C167.465 110.15 167.156 110.768 166.336 110.778C165.931 110.778 165.558 110.491 165.121 110.15C164.482 109.649 163.683 109.021 162.373 109.031C160.359 109.042 158.75 110.523 158.75 113.591H161.648ZM163.48 128.548C162.479 128.548 161.776 128.058 161.776 127.142C161.776 126.3 162.373 125.651 163.736 125.438C164.674 125.288 165.462 125.097 166.08 124.841V126.205C166.08 127.696 164.812 128.548 163.48 128.548ZM174.728 132H180.608V115.636H174.728V132ZM177.668 113.932C179.266 113.932 180.566 112.728 180.566 111.247C180.566 109.766 179.266 108.562 177.668 108.562C176.07 108.562 174.77 109.766 174.77 111.247C174.77 112.728 176.07 113.932 177.668 113.932Z" fill="url(#paint0_linear)"/>
</g>
<defs>
<filter id="filter0_d" x="0.894775" y="0.818176" width="285.555" height="161.659" filterUnits="userSpaceOnUse" color-interpolation-filters="sRGB">
<feFlood flood-opacity="0" result="BackgroundImageFix"/>
<feColorMatrix in="SourceAlpha" type="matrix" values="0 0 0 0 0 0 0 0 0 0 0 0 0 0 0 0 0 0 127 0" result="hardAlpha"/>
<feOffset dy="8"/>
<feGaussianBlur stdDeviation="8"/>
<feComposite in2="hardAlpha" operator="out"/>
<feColorMatrix type="matrix" values="0 0 0 0 0 0 0 0 0 0 0 0 0 0 0 0 0 0 0.08 0"/>
<feBlend mode="normal" in2="BackgroundImageFix" result="effect1_dropShadow"/>
<feBlend mode="normal" in="SourceGraphic" in2="effect1_dropShadow" result="shape"/>
</filter>
<linearGradient id="paint0_linear" x1="37.1969" y1="1.51762e-05" x2="229.65" y2="84.0826" gradientUnits="userSpaceOnUse">
<stop stop-color="#0066B3"/>
<stop offset="1" stop-color="#1187E0"/>
</linearGradient>
</defs>
</svg>
