<svg width="376" height="86" viewBox="0 0 376 86" fill="none" xmlns="http://www.w3.org/2000/svg">
<g filter="url(#filter0_d)">
<path d="M16.1562 18.5455V52H25.0426V32.5284H25.304L32.7528 51.7386H38.1108L45.5597 32.6591H45.821V52H54.7074V18.5455H43.4034L35.6278 37.4943H35.2358L27.4602 18.5455H16.1562ZM78.81 18.5455V39.1932C78.81 42.3132 76.5721 44.5511 73.4521 44.5511C70.332 44.5511 68.0941 42.3132 68.0941 39.1932V18.5455H59.0117V39.9773C59.0117 47.6222 64.7944 52.392 73.4521 52.392C82.0444 52.392 87.8924 47.6222 87.8924 39.9773V18.5455H78.81ZM73.4521 61.9318C75.9023 61.9318 77.8952 60.0859 77.8952 57.8153C77.8952 55.5447 75.9023 53.6989 73.4521 53.6989C71.0018 53.6989 69.0089 55.5447 69.0089 57.8153C69.0089 60.0859 71.0018 61.9318 73.4521 61.9318ZM123.442 31.0909C122.723 22.7926 116.646 18.0881 108.218 18.0881C99.2005 18.0881 92.0783 24.0994 92.0783 35.2727C92.0783 46.397 99.0044 52.4574 108.218 52.4574C118.019 52.4574 122.985 45.6619 123.442 39.9773L114.229 39.9119C113.771 42.7706 111.746 44.5511 108.414 44.5511C103.987 44.5511 101.422 41.4148 101.422 35.2727C101.422 29.4574 103.905 25.9943 108.479 25.9943C111.975 25.9943 113.968 28.0526 114.229 31.0909H123.442ZM149.599 52C159.792 52 166.261 45.7273 166.261 35.2727C166.261 24.8182 159.792 18.5455 149.468 18.5455H136.727V31.679H132.414V36.5142H136.727V52H149.599ZM145.809 44.2898V36.5142H149.991V31.679H145.809V26.2557H149.011C154.238 26.2557 157.113 28.2812 157.113 35.2727C157.113 42.2642 154.238 44.2898 149.272 44.2898H145.809ZM179.545 18.5455H170.463V52H179.545V18.5455ZM172.031 15.4091H177.977L182.878 8.09091H175.167L172.031 15.4091ZM215.083 31.0909C214.364 22.7926 208.287 18.0881 199.858 18.0881C190.841 18.0881 183.719 24.0994 183.719 35.2727C183.719 46.397 190.645 52.4574 199.858 52.4574C209.659 52.4574 214.625 45.6619 215.083 39.9773L205.869 39.9119C205.412 42.7706 203.387 44.5511 200.054 44.5511C195.627 44.5511 193.063 41.4148 193.063 35.2727C193.063 29.4574 195.546 25.9943 200.119 25.9943C203.615 25.9943 205.608 28.0526 205.869 31.0909H215.083ZM219.203 52H228.286V38.9318H240.308V52H249.391V18.5455H240.308V31.6136H228.286V18.5455H219.203V52ZM272.015 18.5455H261.756L272.799 52H285.214L296.256 18.5455H285.998L279.137 42.1335H278.876L272.015 18.5455ZM302.688 52L304.616 45.5966H315.659L317.586 52H327.387L316.345 18.5455H303.93L292.887 52H302.688ZM306.674 38.8011L310.007 27.7585H310.268L313.6 38.8011H306.674ZM325.823 18.5455L338.107 41.4801V52H347.124V41.4801L359.408 18.5455H349.281L342.746 32.1364H342.485L335.951 18.5455H325.823Z" fill="url(#paint0_linear)"/>
</g>
<defs>
<filter id="filter0_d" x="0.15625" y="0.0909119" width="375.252" height="85.8409" filterUnits="userSpaceOnUse" color-interpolation-filters="sRGB">
<feFlood flood-opacity="0" result="BackgroundImageFix"/>
<feColorMatrix in="SourceAlpha" type="matrix" values="0 0 0 0 0 0 0 0 0 0 0 0 0 0 0 0 0 0 127 0" result="hardAlpha"/>
<feOffset dy="8"/>
<feGaussianBlur stdDeviation="8"/>
<feComposite in2="hardAlpha" operator="out"/>
<feColorMatrix type="matrix" values="0 0 0 0 0 0 0 0 0 0 0 0 0 0 0 0 0 0 0.08 0"/>
<feBlend mode="normal" in2="BackgroundImageFix" result="effect1_dropShadow"/>
<feBlend mode="normal" in="SourceGraphic" in2="effect1_dropShadow" result="shape"/>
</filter>
<linearGradient id="paint0_linear" x1="35.1969" y1="11" x2="121.018" y2="121.923" gradientUnits="userSpaceOnUse">
<stop stop-color="#F35D09"/>
<stop offset="1" stop-color="#F3851E"/>
</linearGradient>
</defs>
</svg>
