<svg width="344" height="126" viewBox="0 0 344 126" fill="none" xmlns="http://www.w3.org/2000/svg">
<g filter="url(#filter0_d)">
<path d="M16.1562 52H25.2386V38.9318H37.2614V52H46.3438V18.5455H37.2614V31.6136H25.2386V18.5455H16.1562V52ZM59.3466 52L61.2741 45.5966H72.3168L74.2443 52H84.0455L73.0028 18.5455H60.5881L49.5455 52H59.3466ZM62.3523 15.2784C62.3523 13.6449 63.0057 12.7955 64.0511 12.7955C64.7372 12.7955 65.3089 13.2528 65.9787 13.7919C66.9425 14.5597 68.1186 15.4908 70.1278 15.4744C73.1825 15.4418 75.6165 13.0405 75.6818 8.41761H71.304C71.2713 10.0021 70.7976 10.9496 69.5398 10.9659C68.919 10.9659 68.3473 10.5249 67.6776 10.0021C66.6974 9.23438 65.4723 8.27059 63.4631 8.28693C60.3757 8.30327 57.9091 10.5739 57.9091 15.2784H62.3523ZM63.3324 38.8011L66.6648 27.7585H66.9261L70.2585 38.8011H63.3324ZM82.4814 18.5455L94.7654 41.4801V52H103.782V41.4801L116.067 18.5455H105.939L99.4047 32.1364H99.1433L92.6092 18.5455H82.4814ZM16.1562 101H38.7642V93.6818H25.2386V67.5455H16.1562V101ZM51.1259 101L53.0534 94.5966H64.0961L66.0236 101H75.8248L64.7821 67.5455H52.3674L41.3248 101H51.1259ZM62.4299 59.3778C62.4135 60.6193 61.3681 61.9261 58.5094 61.9261C55.6834 61.9261 54.5726 60.6193 54.589 59.3778H49.623C49.6067 62.8409 53.0698 65.1932 58.5094 65.1932C63.9817 65.1932 67.5101 62.8409 67.5265 59.3778H62.4299ZM55.1117 87.8011L58.4441 76.7585H58.7054L62.0378 87.8011H55.1117ZM56.2225 59.7699H60.6657L64.9782 55.7841H59.4242L56.2225 59.7699ZM107.993 67.5455H98.9105V85.0568H98.6491L86.7571 67.5455H79.0469V101H88.1293V83.4233H88.3253L100.413 101H107.993V67.5455ZM134.015 78.5881H143.195C142.493 71.8743 136.4 67.0881 128.494 67.0881C119.477 67.0881 112.158 73.2955 112.158 84.3381C112.158 94.9233 118.79 101.457 128.559 101.457C137.315 101.457 143.587 96.0994 143.587 86.9517V82.3125H128.755V88.7812H134.832C134.75 91.6889 132.692 93.5511 128.624 93.5511C123.92 93.5511 121.502 90.0881 121.502 84.2074C121.502 78.4084 124.116 74.9943 128.69 74.9943C131.532 74.9943 133.46 76.3011 134.015 78.5881ZM185.932 67.5455H176.85V85.0568H176.589L164.697 67.5455H156.986V101H166.069V83.4233H166.265L178.353 101H185.932V67.5455ZM211.954 78.5881H221.135C220.432 71.8743 214.339 67.0881 206.433 67.0881C197.416 67.0881 190.098 73.2955 190.098 84.3381C190.098 94.9233 196.73 101.457 206.498 101.457C215.254 101.457 221.527 96.0994 221.527 86.9517V82.3125H206.694V88.7812H212.771C212.689 91.6889 210.631 93.5511 206.564 93.5511C201.859 93.5511 199.442 90.0881 199.442 84.2074C199.442 78.4084 202.055 74.9943 206.629 74.9943C209.471 74.9943 211.399 76.3011 211.954 78.5881ZM225.762 101H234.844V87.9318H246.867V101H255.949V67.5455H246.867V80.6136H234.844V67.5455H225.762V101ZM260.262 101H284.307V93.6818H269.344V87.9318H283.131V80.6136H269.344V74.8636H284.373V67.5455H260.262V101ZM293.908 101.523C296.309 101.523 298.449 99.4972 298.482 96.9489C298.449 94.4659 296.309 92.4403 293.908 92.4403C291.376 92.4403 289.302 94.4659 289.334 96.9489C289.302 99.4972 291.376 101.523 293.908 101.523ZM308.283 101.523C310.684 101.523 312.824 99.4972 312.857 96.9489C312.824 94.4659 310.684 92.4403 308.283 92.4403C305.751 92.4403 303.677 94.4659 303.709 96.9489C303.677 99.4972 305.751 101.523 308.283 101.523ZM322.658 101.523C325.059 101.523 327.199 99.4972 327.232 96.9489C327.199 94.4659 325.059 92.4403 322.658 92.4403C320.126 92.4403 318.052 94.4659 318.084 96.9489C318.052 99.4972 320.126 101.523 322.658 101.523Z" fill="url(#paint0_linear)"/>
</g>
<defs>
<filter id="filter0_d" x="0.15625" y="0.286713" width="343.076" height="125.236" filterUnits="userSpaceOnUse" color-interpolation-filters="sRGB">
<feFlood flood-opacity="0" result="BackgroundImageFix"/>
<feColorMatrix in="SourceAlpha" type="matrix" values="0 0 0 0 0 0 0 0 0 0 0 0 0 0 0 0 0 0 127 0" result="hardAlpha"/>
<feOffset dy="8"/>
<feGaussianBlur stdDeviation="8"/>
<feComposite in2="hardAlpha" operator="out"/>
<feColorMatrix type="matrix" values="0 0 0 0 0 0 0 0 0 0 0 0 0 0 0 0 0 0 0.08 0"/>
<feBlend mode="normal" in2="BackgroundImageFix" result="effect1_dropShadow"/>
<feBlend mode="normal" in="SourceGraphic" in2="effect1_dropShadow" result="shape"/>
</filter>
<linearGradient id="paint0_linear" x1="32.3513" y1="11" x2="184.938" y2="94.6284" gradientUnits="userSpaceOnUse">
<stop stop-color="#0DB14B"/>
<stop offset="1" stop-color="#07CB32"/>
</linearGradient>
</defs>
</svg>
