<svg width="328" height="192" viewBox="0 0 328 192" fill="none" xmlns="http://www.w3.org/2000/svg">
<path d="M21.625 187.242C24.4609 187.242 26.2969 185.539 26.5547 183.203H24.2812C23.9844 184.5 22.9766 185.266 21.6406 185.266C19.6641 185.266 18.3906 183.617 18.3906 181C18.3906 178.43 19.6875 176.812 21.6406 176.812C23.125 176.812 24.0313 177.75 24.2812 178.875H26.5547C26.3047 176.453 24.3281 174.844 21.6016 174.844C18.2188 174.844 16.0312 177.391 16.0312 181.055C16.0312 184.672 18.1406 187.242 21.625 187.242ZM36.8743 182.023C36.8821 184.062 35.3665 185.031 34.054 185.031C32.6087 185.031 31.6087 183.984 31.6087 182.352V175H29.2727V182.633C29.2727 185.609 30.9055 187.156 33.2102 187.156C35.0149 187.156 36.2415 186.203 36.7962 184.922H36.9212V187H39.218V175H36.8743V182.023ZM33.3509 173.398H35.218L33.3977 169.797H30.9368L33.3509 173.398ZM44.9127 179.875C44.9127 177.961 46.0845 176.867 47.7095 176.867C49.2955 176.867 50.2564 177.906 50.2564 179.648V187H52.5923V179.367C52.5923 176.398 50.9595 174.844 48.5064 174.844C46.7017 174.844 45.522 175.68 44.9673 176.953H44.8189V175H42.5767V187H44.9127V179.875ZM60.9764 191.75C64.0311 191.75 66.3905 190.352 66.3905 187.266V175H64.1014V176.945H63.9295C63.5155 176.203 62.6873 174.844 60.453 174.844C57.5545 174.844 55.4217 177.133 55.4217 180.953C55.4217 184.781 57.6014 186.82 60.4373 186.82C62.6405 186.82 63.492 185.578 63.9139 184.812H64.0623V187.172C64.0623 189.055 62.7733 189.867 60.9998 189.867C59.0545 189.867 58.2967 188.891 57.8827 188.203L55.8748 189.031C56.5077 190.5 58.1092 191.75 60.9764 191.75ZM60.953 184.883C58.867 184.883 57.7811 183.281 57.7811 180.922C57.7811 178.617 58.8436 176.828 60.953 176.828C62.992 176.828 64.0858 178.492 64.0858 180.922C64.0858 183.398 62.9686 184.883 60.953 184.883ZM75.973 187H78.3871V180.023H85.184V177.953H78.3871V173.078H85.8949V171H75.973V187ZM89.0837 187H91.4977V181.375H94.779C98.4899 181.375 100.326 179.133 100.326 176.18C100.326 173.234 98.5055 171 94.7868 171H89.0837V187ZM91.4977 179.328V173.07H94.529C96.9196 173.07 97.8962 174.367 97.8962 176.18C97.8962 177.992 96.9196 179.328 94.5602 179.328H91.4977ZM102.587 173.078H107.571V187H109.978V173.078H114.97V171H102.587V173.078ZM132.695 175.203H135.023C134.953 172.641 132.687 170.781 129.437 170.781C126.226 170.781 123.765 172.617 123.765 175.375C123.765 177.602 125.359 178.906 127.929 179.602L129.82 180.117C131.531 180.57 132.851 181.133 132.851 182.555C132.851 184.117 131.359 185.148 129.304 185.148C127.445 185.148 125.898 184.32 125.757 182.578H123.335C123.492 185.477 125.734 187.266 129.32 187.266C133.078 187.266 135.242 185.289 135.242 182.578C135.242 179.695 132.671 178.578 130.64 178.078L129.078 177.672C127.828 177.352 126.164 176.766 126.171 175.234C126.171 173.875 127.414 172.867 129.382 172.867C131.218 172.867 132.523 173.727 132.695 175.203ZM143.214 187.242C146.596 187.242 148.807 184.766 148.807 181.055C148.807 177.32 146.596 174.844 143.214 174.844C139.831 174.844 137.62 177.32 137.62 181.055C137.62 184.766 139.831 187.242 143.214 187.242ZM143.221 185.281C141.011 185.281 139.979 183.352 139.979 181.047C139.979 178.75 141.011 176.797 143.221 176.797C145.417 176.797 146.448 178.75 146.448 181.047C146.448 183.352 145.417 185.281 143.221 185.281ZM157.346 175H154.76V173.922C154.76 172.859 155.197 172.281 156.338 172.281C156.822 172.281 157.166 172.391 157.385 172.461L157.932 170.57C157.604 170.445 156.924 170.25 155.979 170.25C154.08 170.25 152.416 171.359 152.416 173.609V175H150.565V176.875H152.416V187H154.76V176.875H157.346V175ZM165.577 175H163.117V172.125H160.781V175H159.023V176.875H160.781V183.961C160.773 186.141 162.437 187.195 164.281 187.156C165.023 187.148 165.523 187.008 165.796 186.906L165.374 184.977C165.218 185.008 164.929 185.078 164.554 185.078C163.796 185.078 163.117 184.828 163.117 183.477V176.875H165.577V175ZM170.983 187H173.358L175.796 178.336H175.975L178.413 187H180.796L184.319 175H181.905L179.569 183.773H179.452L177.108 175H174.694L172.335 183.812H172.217L169.866 175H167.452L170.983 187ZM190.248 187.266C192.232 187.266 193.35 186.258 193.795 185.359H193.889V187H196.17V179.031C196.17 175.539 193.42 174.844 191.514 174.844C189.342 174.844 187.342 175.719 186.56 177.906L188.756 178.406C189.1 177.555 189.975 176.734 191.545 176.734C193.053 176.734 193.826 177.523 193.826 178.883V178.937C193.826 179.789 192.951 179.773 190.795 180.023C188.521 180.289 186.193 180.883 186.193 183.609C186.193 185.969 187.967 187.266 190.248 187.266ZM190.756 185.391C189.435 185.391 188.482 184.797 188.482 183.641C188.482 182.391 189.592 181.945 190.943 181.766C191.701 181.664 193.498 181.461 193.834 181.125V182.672C193.834 184.094 192.701 185.391 190.756 185.391ZM199.501 187H201.837V179.672C201.837 178.102 203.048 176.969 204.704 176.969C205.189 176.969 205.736 177.055 205.923 177.109V174.875C205.689 174.844 205.228 174.82 204.931 174.82C203.525 174.82 202.321 175.617 201.884 176.906H201.759V175H199.501V187ZM212.907 187.242C215.524 187.242 217.375 185.953 217.907 184L215.696 183.602C215.274 184.734 214.258 185.312 212.93 185.312C210.93 185.312 209.586 184.016 209.524 181.703H218.055V180.875C218.055 176.539 215.461 174.844 212.743 174.844C209.399 174.844 207.196 177.391 207.196 181.078C207.196 184.805 209.368 187.242 212.907 187.242ZM209.532 179.953C209.625 178.25 210.86 176.773 212.758 176.773C214.571 176.773 215.758 178.117 215.766 179.953H209.532Z" fill="#4F565F"/>
<g filter="url(#filter0_d)">
<path d="M16.4062 34H22.3295V25.4773H30.1705V34H36.0938V12.1818H30.1705V20.7045H22.3295V12.1818H16.4062V34ZM46.875 34.2983C52.2017 34.2983 55.3551 30.8892 55.3551 25.8608C55.3551 20.8324 52.2017 17.4233 46.875 17.4233C41.5483 17.4233 38.3949 20.8324 38.3949 25.8608C38.3949 30.8892 41.5483 34.2983 46.875 34.2983ZM46.9176 29.9517C45.3409 29.9517 44.4034 28.3857 44.4034 25.8182C44.4034 23.2507 45.3409 21.6847 46.9176 21.6847C48.4091 21.6847 49.3466 23.2507 49.3466 25.8182C49.3466 28.3857 48.4091 29.9517 46.9176 29.9517ZM48.2386 12.821H45.554L41.3352 15.8892H44.8722L46.875 14.3977L48.9631 15.8892H52.4148L48.2386 12.821ZM49.0057 9.28409C48.995 9.83807 48.9098 10.4773 48.5795 10.4773C47.5888 10.4773 46.2251 9.625 45.2131 9.625C44.0518 9.625 43.4553 10.7756 43.4659 11.8409L45.2557 12.3523C45.245 11.7983 45.3303 11.3722 45.7244 11.3722C46.7365 11.3722 47.8018 12.267 49.0909 12.267C50.2308 12.267 50.8274 11.1165 50.8381 9.96591L49.0057 9.28409ZM73.4766 17.6364H70.6641V13.7159H64.7834V17.6364H62.6953V21.8977H64.7834V29.2912C64.7408 32.7216 66.8608 34.4581 70.9197 34.2344C72.2514 34.1598 73.2422 33.8828 73.7749 33.723L72.9226 29.5895C72.6989 29.6428 72.1236 29.7599 71.772 29.7599C71.005 29.7599 70.6641 29.419 70.6641 28.7372V21.8977H73.4766V17.6364ZM75.8762 34H81.7569V25.4773C81.7569 23.6023 83.046 22.3665 84.7825 22.3665C85.3897 22.3665 86.3699 22.4624 86.9558 22.6648V17.647C86.487 17.5085 85.9757 17.4233 85.4643 17.4233C83.7172 17.4233 82.3535 18.446 81.7569 20.7472H81.5865V17.6364H75.8762V34ZM103.16 16.8693C103.16 18.3182 102.979 19.4368 102.425 20.1506C100.976 18.4247 98.7172 17.4233 95.8301 17.4233C90.5034 17.4233 87.35 20.8324 87.35 25.8608C87.35 30.8892 90.5034 34.2983 95.8301 34.2983C101.157 34.2983 104.31 30.8892 104.31 25.8608C104.31 24.4759 104.076 23.2188 103.618 22.1214C105.301 21.1839 106.1 19.3835 106.1 16.8693H103.16ZM95.8727 29.9517C94.296 29.9517 93.3585 28.3857 93.3585 25.8182C93.3585 23.2507 94.296 21.6847 95.8727 21.6847C97.3642 21.6847 98.3017 23.2507 98.3017 25.8182C98.3017 28.3857 97.3642 29.9517 95.8727 29.9517ZM95.8301 40.6051C97.4281 40.6051 98.7278 39.4013 98.7278 37.9205C98.7278 36.4396 97.4281 35.2358 95.8301 35.2358C94.2321 35.2358 92.9324 36.4396 92.9324 37.9205C92.9324 39.4013 94.2321 40.6051 95.8301 40.6051ZM119.462 12.1818H113.581V34H119.462V12.1818ZM127.018 34.2557C129.149 34.2557 130.757 33.5312 131.748 31.6989H131.876V34H137.373V22.7926C137.373 19.767 134.507 17.4233 129.83 17.4233C124.941 17.4233 122.533 19.9801 122.33 22.9631H127.742C127.881 21.951 128.627 21.4716 129.745 21.4716C130.768 21.4716 131.492 21.9403 131.492 22.7926V22.8352C131.492 23.7834 130.448 24.0817 127.7 24.2841C124.323 24.5291 121.691 25.8928 121.691 29.483C121.691 32.7429 123.886 34.2557 127.018 34.2557ZM127.103 15.5909C127.103 14.5256 127.529 13.9716 128.211 13.9716C128.659 13.9716 129.031 14.2699 129.468 14.6214C130.097 15.1222 130.864 15.7294 132.174 15.7188C134.166 15.6974 135.754 14.1314 135.796 11.1165H132.941C132.92 12.1499 132.611 12.7678 131.791 12.7784C131.386 12.7784 131.013 12.4908 130.576 12.1499C129.937 11.6491 129.138 11.0206 127.828 11.0312C125.814 11.0419 124.205 12.5227 124.205 15.5909H127.103ZM128.936 30.5483C127.934 30.5483 127.231 30.0582 127.231 29.142C127.231 28.3004 127.828 27.6506 129.191 27.4375C130.129 27.2884 130.917 27.0966 131.535 26.8409V28.2045C131.535 29.696 130.267 30.5483 128.936 30.5483ZM140.183 34H146.064V17.6364H140.183V34ZM143.123 15.9318C144.721 15.9318 146.021 14.728 146.021 13.2472C146.021 11.7663 144.721 10.5625 143.123 10.5625C141.525 10.5625 140.225 11.7663 140.225 13.2472C140.225 14.728 141.525 15.9318 143.123 15.9318ZM171.528 17.6364H165.349L162.707 28.4602H162.536L159.894 17.6364H153.715L159.213 34H166.031L171.528 17.6364ZM177.321 34.2557C179.451 34.2557 181.06 33.5312 182.051 31.6989H182.179V34H187.676V22.7926C187.676 19.767 184.81 17.4233 180.133 17.4233C175.243 17.4233 172.836 19.9801 172.633 22.9631H178.045C178.184 21.951 178.929 21.4716 180.048 21.4716C181.071 21.4716 181.795 21.9403 181.795 22.7926V22.8352C181.795 23.7834 180.751 24.0817 178.002 24.2841C174.625 24.5291 171.994 25.8928 171.994 29.483C171.994 32.7429 174.189 34.2557 177.321 34.2557ZM179.238 30.5483C178.237 30.5483 177.534 30.0582 177.534 29.142C177.534 28.3004 178.13 27.6506 179.494 27.4375C180.431 27.2884 181.22 27.0966 181.838 26.8409V28.2045C181.838 29.696 180.57 30.5483 179.238 30.5483ZM193.479 40.1364C197.591 40.1364 199.52 38.0696 200.425 35.3636L206.391 17.6364H200.212L197.528 28.9716H197.357L194.715 17.6364H188.579L194.331 34.7244L194.204 35.0227C193.809 35.9283 192.67 35.8963 191.221 35.3849L189.942 39.5611C190.858 39.9233 192.126 40.1364 193.479 40.1364ZM212.749 31.017H208.317V32.2102C208.317 35.108 207.337 38.1442 206.996 39.3267H210.618C211.129 38.1442 212.44 35.2891 212.663 32.2102L212.749 31.017Z" fill="url(#paint0_linear)"/>
</g>
<path d="M16.2955 65.7273H26.7955V93H36.1364V65.7273H46.6364V58.0909H16.2955V65.7273ZM54.8182 93L56.8295 86.3182H68.3523L70.3636 93H80.5909L69.0682 58.0909H56.1136L44.5909 93H54.8182ZM59.25 54.9886L62.5909 51.2386L65.9318 54.9886H73.7045V54.7841L65.8636 47.0114H59.3182L51.4773 54.7841V54.9886H59.25ZM62.5909 103.568C65.1477 103.568 67.2273 101.642 67.2273 99.2727C67.2273 96.9034 65.1477 94.9773 62.5909 94.9773C60.0341 94.9773 57.9545 96.9034 57.9545 99.2727C57.9545 101.642 60.0341 103.568 62.5909 103.568ZM58.9773 79.2273L62.4545 67.7045H62.7273L66.2045 79.2273H58.9773ZM104.612 58.0909V79.6364C104.612 82.892 102.277 85.2273 99.0213 85.2273C95.7656 85.2273 93.4304 82.892 93.4304 79.6364V58.0909H83.9531V80.4545C83.9531 88.4318 89.9872 93.4091 99.0213 93.4091C107.987 93.4091 114.089 88.4318 114.089 80.4545V58.0909H104.612ZM130.888 83.7955C130.898 82.1761 131.815 81.196 133.274 81.196C134.755 81.196 135.629 82.1761 135.618 83.7955V93H141.499V82.5597C141.509 79.0014 139.261 76.4233 135.788 76.4233C133.381 76.4233 131.474 77.6804 130.76 79.7472H130.589V76.6364H125.007V93H130.888V83.7955ZM152.285 99.4773C157.463 99.4773 160.893 97.1122 160.893 92.9574V76.6364H155.012V79.4915H154.885C154.245 77.8295 152.711 76.4233 150.282 76.4233C147.044 76.4233 143.89 78.8949 143.89 84.8182C143.89 90.4858 146.831 92.7869 150.325 92.7869C152.541 92.7869 154.288 91.8494 154.927 90.1875H155.098V92.9574C155.098 94.8857 153.979 95.5142 152.456 95.5142C151.103 95.5142 150.112 95.1094 149.941 94.0653H144.274C144.498 97.2188 147.363 99.4773 152.285 99.4773ZM152.498 88.6108C150.879 88.6108 149.941 87.2472 149.941 84.8182C149.941 82.3892 150.879 80.9403 152.498 80.9403C154.118 80.9403 155.098 82.3892 155.098 84.8182C155.098 87.2045 154.118 88.6108 152.498 88.6108ZM168.444 93.2557C170.574 93.2557 172.183 92.5312 173.174 90.6989H173.302V93H178.799V81.7926C178.799 78.767 175.933 76.4233 171.256 76.4233C166.366 76.4233 163.959 78.9801 163.756 81.9631H169.168C169.307 80.951 170.052 80.4716 171.171 80.4716C172.194 80.4716 172.918 80.9403 172.918 81.7926V81.8352C172.918 82.7834 171.874 83.0817 169.126 83.2841C165.748 83.5291 163.117 84.8928 163.117 88.483C163.117 91.7429 165.312 93.2557 168.444 93.2557ZM170.361 89.5483C169.36 89.5483 168.657 89.0582 168.657 88.142C168.657 87.3004 169.253 86.6506 170.617 86.4375C171.555 86.2884 172.343 86.0966 172.961 85.8409V87.2045C172.961 88.696 171.693 89.5483 170.361 89.5483ZM184.602 99.1364C188.714 99.1364 190.643 97.0696 191.548 94.3636L197.514 76.6364H191.335L188.651 87.9716H188.48L185.838 76.6364H179.702L185.455 93.7244L185.327 94.0227C184.933 94.9283 183.793 94.8963 182.344 94.3849L181.065 98.5611C181.982 98.9233 183.249 99.1364 184.602 99.1364ZM47.4545 116.091H37.9773V134.364H37.7045L25.2955 116.091H17.25V151H26.7273V132.659H26.9318L39.5455 151H47.4545V116.091ZM51.9375 151H61.4148V137.364H73.9602V151H83.4375V116.091H73.9602V129.727H61.4148V116.091H51.9375V151ZM97.0057 151L99.017 144.318H110.54L112.551 151H122.778L111.256 116.091H98.3011L86.7784 151H97.0057ZM101.71 112.818H107.915L104.642 105.182H96.5966L101.71 112.818ZM101.165 137.227L104.642 125.705H104.915L108.392 137.227H101.165ZM133.351 151H139.232V141.455C139.232 140.027 139.977 139.153 141.192 139.153C142.406 139.153 143.195 140.027 143.195 141.455V151H148.82V141.455C148.82 140.027 149.565 139.153 150.78 139.153C151.994 139.153 152.783 140.027 152.783 141.455V151H158.663V139.963C158.663 136.607 156.511 134.423 153.379 134.423C150.95 134.423 148.99 135.744 148.436 137.747H148.266C147.925 135.744 146.092 134.423 143.791 134.423C141.522 134.423 139.786 135.702 139.104 137.747H138.933V134.636H133.351V151ZM176.777 133.869C176.777 135.318 176.596 136.437 176.042 137.151C174.593 135.425 172.334 134.423 169.447 134.423C164.121 134.423 160.967 137.832 160.967 142.861C160.967 147.889 164.121 151.298 169.447 151.298C174.774 151.298 177.927 147.889 177.927 142.861C177.927 141.476 177.693 140.219 177.235 139.121C178.918 138.184 179.717 136.384 179.717 133.869H176.777ZM169.49 146.952C167.913 146.952 166.976 145.386 166.976 142.818C166.976 140.251 167.913 138.685 169.49 138.685C170.981 138.685 171.919 140.251 171.919 142.818C171.919 145.386 170.981 146.952 169.49 146.952ZM167.487 132.591H171.365L174.561 127.818H169.532L167.487 132.591ZM181.222 151H187.103V134.636H181.222V151ZM184.162 132.932C185.76 132.932 187.06 131.728 187.06 130.247C187.06 128.766 185.76 127.562 184.162 127.562C182.564 127.562 181.265 128.766 181.265 130.247C181.265 131.728 182.564 132.932 184.162 132.932Z" fill="url(#paint1_linear)"/>
<defs>
<filter id="filter0_d" x="0.40625" y="1.28409" width="228.342" height="63.321" filterUnits="userSpaceOnUse" color-interpolation-filters="sRGB">
<feFlood flood-opacity="0" result="BackgroundImageFix"/>
<feColorMatrix in="SourceAlpha" type="matrix" values="0 0 0 0 0 0 0 0 0 0 0 0 0 0 0 0 0 0 127 0" result="hardAlpha"/>
<feOffset dy="8"/>
<feGaussianBlur stdDeviation="8"/>
<feComposite in2="hardAlpha" operator="out"/>
<feColorMatrix type="matrix" values="0 0 0 0 0 0 0 0 0 0 0 0 0 0 0 0 0 0 0.08 0"/>
<feBlend mode="normal" in2="BackgroundImageFix" result="effect1_dropShadow"/>
<feBlend mode="normal" in="SourceGraphic" in2="effect1_dropShadow" result="shape"/>
</filter>
<linearGradient id="paint0_linear" x1="33.177" y1="4.91622e-06" x2="117.254" y2="97.2384" gradientUnits="userSpaceOnUse">
<stop stop-color="#0DB14B"/>
<stop offset="1" stop-color="#07CB32"/>
</linearGradient>
<linearGradient id="paint1_linear" x1="25.6275" y1="47" x2="132.828" y2="75.7453" gradientUnits="userSpaceOnUse">
<stop stop-color="#0DB14B"/>
<stop offset="1" stop-color="#07CB32"/>
</linearGradient>
</defs>
</svg>
