<svg width="267" height="80" viewBox="0 0 267 80" fill="none" xmlns="http://www.w3.org/2000/svg">
<path d="M2.27557 35H7.81108V27.5597L10.5341 24.2358L17.706 35H24.3281L14.4972 20.5412L24.2131 8.81818H17.5781L8.15625 20.3622H7.81108V8.81818H2.27557V35ZM32.7996 23.6477C32.8124 21.1165 34.3593 19.6335 36.5837 19.6335C38.7954 19.6335 40.0993 21.0526 40.0866 23.4688V35H45.5326V22.4972C45.5454 17.8949 42.8351 15.108 38.7442 15.108C35.7655 15.108 33.7712 16.5142 32.8763 18.8281H32.6462V8.81818H27.3536V35H32.7996V23.6477ZM59.0506 35.3835C65.008 35.3835 68.7154 31.3054 68.7154 25.2585C68.7154 19.1733 65.008 15.108 59.0506 15.108C53.0932 15.108 49.3858 19.1733 49.3858 25.2585C49.3858 31.3054 53.0932 35.3835 59.0506 35.3835ZM59.0762 31.1648C56.3276 31.1648 54.9214 28.6463 54.9214 25.2202C54.9214 21.794 56.3276 19.2628 59.0762 19.2628C61.7736 19.2628 63.1799 21.794 63.1799 25.2202C63.1799 28.6463 61.7736 31.1648 59.0762 31.1648ZM56.481 13.0369L59.0506 9.91761L61.6202 13.0369H66.2608V12.858L61.0705 7.23295H57.0179L51.8404 12.858V13.0369H56.481ZM78.0626 23.6477C78.0754 21.1165 79.5839 19.6335 81.7828 19.6335C83.9689 19.6335 85.2856 21.0653 85.2728 23.4688V35H90.7189V22.4972C90.7189 17.9205 88.0342 15.108 83.9433 15.108C81.0285 15.108 78.9191 16.5398 78.037 18.8281H77.8069V15.3636H72.6166V35H78.0626V23.6477ZM104.218 42.7727C109.83 42.7727 113.819 40.2159 113.819 35.1918V15.3636H108.411V18.6619H108.206C107.478 17.0639 105.88 15.108 102.594 15.108C98.2859 15.108 94.6424 18.4574 94.6424 25.1435C94.6424 31.6761 98.1836 34.7188 102.607 34.7188C105.739 34.7188 107.49 33.1463 108.206 31.5227H108.436V35.1151C108.436 37.8125 106.711 38.8608 104.346 38.8608C101.942 38.8608 100.728 37.8125 100.28 36.6236L95.2433 37.3011C95.8953 40.3949 98.9251 42.7727 104.218 42.7727ZM104.333 30.6278C101.661 30.6278 100.203 28.5057 100.203 25.1179C100.203 21.7812 101.635 19.4418 104.333 19.4418C106.979 19.4418 108.462 21.679 108.462 25.1179C108.462 28.5824 106.953 30.6278 104.333 30.6278ZM136.051 42.7727C141.663 42.7727 145.652 40.2159 145.652 35.1918V15.3636H140.244V18.6619H140.04C139.311 17.0639 137.713 15.108 134.427 15.108C130.119 15.108 126.476 18.4574 126.476 25.1435C126.476 31.6761 130.017 34.7188 134.44 34.7188C137.572 34.7188 139.324 33.1463 140.04 31.5227H140.27V35.1151C140.27 37.8125 138.544 38.8608 136.179 38.8608C133.775 38.8608 132.561 37.8125 132.113 36.6236L127.077 37.3011C127.729 40.3949 130.758 42.7727 136.051 42.7727ZM136.166 30.6278C133.494 30.6278 132.037 28.5057 132.037 25.1179C132.037 21.7812 133.469 19.4418 136.166 19.4418C138.812 19.4418 140.295 21.679 140.295 25.1179C140.295 28.5824 138.787 30.6278 136.166 30.6278ZM150.346 35H155.792V15.3636H150.346V35ZM153.081 12.8324C154.705 12.8324 156.035 11.5923 156.035 10.071C156.035 8.5625 154.705 7.32244 153.081 7.32244C151.471 7.32244 150.141 8.5625 150.141 10.071C150.141 11.5923 151.471 12.8324 153.081 12.8324ZM177.849 14.2131C177.849 16.0668 177.619 17.473 176.75 18.2401C175.075 16.2585 172.544 15.108 169.386 15.108C163.429 15.108 159.722 19.1733 159.722 25.2585C159.722 31.3054 163.429 35.3835 169.386 35.3835C175.344 35.3835 179.051 31.3054 179.051 25.2585C179.051 23.4304 178.719 21.7812 178.08 20.375C180.163 19.3395 181.097 17.2045 181.097 14.2131H177.849ZM169.412 31.1648C166.663 31.1648 165.257 28.6463 165.257 25.2202C165.257 21.794 166.663 19.2628 169.412 19.2628C172.109 19.2628 173.516 21.794 173.516 25.2202C173.516 28.6463 172.109 31.1648 169.412 31.1648ZM167.43 12.8324H171.278L175.178 7.01562H170.141L167.43 12.8324ZM183.62 35H189.066V15.3636H183.62V35ZM186.356 12.8324C187.98 12.8324 189.309 11.5923 189.309 10.071C189.309 8.5625 187.98 7.32244 186.356 7.32244C184.745 7.32244 183.416 8.5625 183.416 10.071C183.416 11.5923 184.745 12.8324 186.356 12.8324ZM207.927 23.6477C207.94 21.1165 209.487 19.6335 211.711 19.6335C213.923 19.6335 215.227 21.0526 215.214 23.4688V35H220.66V22.4972C220.673 17.8949 217.962 15.108 213.872 15.108C210.893 15.108 208.899 16.5142 208.004 18.8281H207.774V8.81818H202.481V35H207.927V23.6477ZM230.905 35.3707C233.807 35.3707 235.686 34.1051 236.645 32.277H236.799V35H241.963V21.7557C241.963 17.0767 238 15.108 233.628 15.108C228.924 15.108 225.83 17.358 225.076 20.9375L230.113 21.3466C230.483 20.0426 231.647 19.0838 233.603 19.0838C235.456 19.0838 236.517 20.017 236.517 21.6278V21.7045C236.517 22.9702 235.175 23.1364 231.762 23.4688C227.875 23.8267 224.385 25.1307 224.385 29.5156C224.385 33.402 227.159 35.3707 230.905 35.3707ZM232.465 31.6122C230.79 31.6122 229.588 30.8324 229.588 29.3366C229.588 27.8026 230.854 27.0483 232.772 26.7798C233.961 26.6136 235.904 26.3324 236.556 25.8977V27.9815C236.556 30.0398 234.856 31.6122 232.465 31.6122ZM233.603 42.3636C235.226 42.3636 236.556 41.1236 236.556 39.6023C236.556 38.0938 235.226 36.8537 233.603 36.8537C231.992 36.8537 230.662 38.0938 230.662 39.6023C230.662 41.1236 231.992 42.3636 233.603 42.3636ZM251.995 23.6477C252.007 21.1165 253.516 19.6335 255.715 19.6335C257.901 19.6335 259.218 21.0653 259.205 23.4688V35H264.651V22.4972C264.651 17.9205 261.966 15.108 257.875 15.108C254.961 15.108 252.851 16.5398 251.969 18.8281H251.739V15.3636H246.549V35H251.995V23.6477Z" fill="url(#paint0_linear)"/>
<path d="M61.0874 52.9091H58.3324V61.142H58.2173L52.5668 52.9091H50.1378V66H52.9055V57.7607H53.0014L58.6967 66H61.0874V52.9091ZM67.7463 69.8864C70.5524 69.8864 72.5467 68.608 72.5467 66.0959V56.1818H69.8429V57.831H69.7406C69.3762 57.032 68.5772 56.054 66.9345 56.054C64.7804 56.054 62.9586 57.7287 62.9586 61.0717C62.9586 64.3381 64.7292 65.8594 66.9409 65.8594C68.5069 65.8594 69.3826 65.0732 69.7406 64.2614H69.8556V66.0575C69.8556 67.4062 68.9927 67.9304 67.8102 67.9304C66.6085 67.9304 66.0012 67.4062 65.7775 66.8118L63.2591 67.1506C63.585 68.6974 65.1 69.8864 67.7463 69.8864ZM67.8038 63.8139C66.4679 63.8139 65.7392 62.7528 65.7392 61.0589C65.7392 59.3906 66.4551 58.2209 67.8038 58.2209C69.127 58.2209 69.8684 59.3395 69.8684 61.0589C69.8684 62.7912 69.1142 63.8139 67.8038 63.8139ZM77.5133 66.1854C78.9643 66.1854 79.9039 65.5526 80.3833 64.6385H80.4601V66H83.0424V59.3778C83.0424 57.0384 81.0609 56.054 78.8748 56.054C76.5225 56.054 74.9757 57.179 74.5985 58.9688L77.117 59.1733C77.3024 58.5213 77.8841 58.0419 78.862 58.0419C79.7889 58.0419 80.3194 58.5085 80.3194 59.3139V59.3523C80.3194 59.9851 79.6483 60.0682 77.9416 60.2344C75.9984 60.4134 74.2534 61.0653 74.2534 63.2578C74.2534 65.201 75.6404 66.1854 77.5133 66.1854ZM77.6923 55.0185L78.9771 53.4588L80.2619 55.0185H82.5822V54.929L79.987 52.1165H77.9608L75.372 54.929V55.0185H77.6923ZM78.2931 64.3061C77.4558 64.3061 76.8549 63.9162 76.8549 63.1683C76.8549 62.4013 77.4877 62.0241 78.4466 61.8899C79.041 61.8068 80.0126 61.6662 80.3386 61.4489V62.4908C80.3386 63.5199 79.4885 64.3061 78.2931 64.3061ZM87.878 60.3239C87.8844 59.0582 88.6387 58.3168 89.7381 58.3168C90.8311 58.3168 91.4895 59.0327 91.4831 60.2344V66H94.2061V59.7486C94.2061 57.4602 92.8638 56.054 90.8184 56.054C89.361 56.054 88.3063 56.7699 87.8652 57.9141H87.7502V56.1818H85.155V66H87.878V60.3239ZM103.241 60.3239C103.248 59.0582 104.021 58.3168 105.133 58.3168C106.239 58.3168 106.891 59.0263 106.885 60.2344V66H109.608V59.7486C109.614 57.4474 108.259 56.054 106.214 56.054C104.724 56.054 103.727 56.7571 103.28 57.9141H103.165V52.9091H100.518V66H103.241V60.3239ZM114.55 66.1854C116.001 66.1854 116.941 65.5526 117.42 64.6385H117.497V66H120.08V59.3778C120.08 57.0384 118.098 56.054 115.912 56.054C113.56 56.054 112.013 57.179 111.636 58.9688L114.154 59.1733C114.339 58.5213 114.921 58.0419 115.899 58.0419C116.826 58.0419 117.357 58.5085 117.357 59.3139V59.3523C117.357 59.9851 116.685 60.0682 114.979 60.2344C113.036 60.4134 111.29 61.0653 111.29 63.2578C111.29 65.201 112.678 66.1854 114.55 66.1854ZM115.33 64.3061C114.493 64.3061 113.892 63.9162 113.892 63.1683C113.892 62.4013 114.525 62.0241 115.484 61.8899C116.078 61.8068 117.05 61.6662 117.376 61.4489V62.4908C117.376 63.5199 116.526 64.3061 115.33 64.3061ZM115.068 54.9162H116.992L115.631 52.0078H113.119L115.068 54.9162ZM124.915 60.3239C124.922 59.0582 125.676 58.3168 126.775 58.3168C127.868 58.3168 128.527 59.0327 128.52 60.2344V66H131.243V59.7486C131.243 57.4602 129.901 56.054 127.855 56.054C126.398 56.054 125.343 56.7699 124.902 57.9141H124.787V56.1818H122.192V66H124.915V60.3239ZM137.813 69.8864C140.619 69.8864 142.613 68.608 142.613 66.0959V56.1818H139.909V57.831H139.807C139.443 57.032 138.644 56.054 137.001 56.054C134.847 56.054 133.025 57.7287 133.025 61.0717C133.025 64.3381 134.796 65.8594 137.007 65.8594C138.573 65.8594 139.449 65.0732 139.807 64.2614H139.922V66.0575C139.922 67.4062 139.059 67.9304 137.877 67.9304C136.675 67.9304 136.068 67.4062 135.844 66.8118L133.325 67.1506C133.651 68.6974 135.166 69.8864 137.813 69.8864ZM137.87 63.8139C136.534 63.8139 135.806 62.7528 135.806 61.0589C135.806 59.3906 136.521 58.2209 137.87 58.2209C139.193 58.2209 139.935 59.3395 139.935 61.0589C139.935 62.7912 139.181 63.8139 137.87 63.8139ZM147.74 64.2102H145.49L145.458 64.9261C145.381 66.6648 144.882 68.4482 144.697 69.196H146.461C146.768 68.4226 147.497 66.6072 147.669 64.9134L147.74 64.2102ZM153.78 66H156.503V62.8807L157.238 62.0433L159.916 66H163.106L159.277 60.4325L162.921 56.1818H159.795L156.65 59.9084H156.503V52.9091H153.78V66ZM166.98 60.3239C166.986 59.0582 167.759 58.3168 168.872 58.3168C169.977 58.3168 170.629 59.0263 170.623 60.2344V66H173.346V59.7486C173.352 57.4474 171.997 56.054 169.952 56.054C168.463 56.054 167.465 56.7571 167.018 57.9141H166.903V52.9091H164.257V66H166.98V60.3239ZM181.785 61.8196C181.792 63.1364 180.89 63.8267 179.912 63.8267C178.883 63.8267 178.218 63.1044 178.212 61.9474V56.1818H175.489V62.4332C175.495 64.728 176.838 66.1278 178.813 66.1278C180.289 66.1278 181.35 65.3672 181.792 64.2166H181.894V66H184.508V56.1818H181.785V61.8196ZM200.006 56.1818H197.123L195.09 63.2067H194.988L192.949 56.1818H190.072L193.505 66H196.573L200.006 56.1818ZM211.78 55.6385C211.773 56.8786 211.633 57.5753 210.482 57.7479V56.1818H207.759V61.8196C207.766 63.1364 206.864 63.8267 205.886 63.8267C204.857 63.8267 204.192 63.1044 204.186 61.9474V56.1818H201.463V62.4332C201.469 64.728 202.812 66.1278 204.787 66.1278C206.263 66.1278 207.325 65.3672 207.766 64.2166H207.868V66H210.482V58.9815C212.643 58.7962 213.352 57.6584 213.359 55.6385H211.78ZM206.379 69.6818C207.19 69.6818 207.855 69.0618 207.855 68.3011C207.855 67.5469 207.19 66.9268 206.379 66.9268C205.573 66.9268 204.908 67.5469 204.908 68.3011C204.908 69.0618 205.573 69.6818 206.379 69.6818ZM218.597 66.1918C221.211 66.1918 222.854 64.6577 222.982 62.4013H220.412C220.252 63.4496 219.562 64.0376 218.629 64.0376C217.357 64.0376 216.532 62.9702 216.532 61.0909C216.532 59.2372 217.363 58.1761 218.629 58.1761C219.626 58.1761 220.265 58.8345 220.412 59.8125H222.982C222.867 57.5433 221.147 56.054 218.584 56.054C215.605 56.054 213.765 58.1186 213.765 61.1293C213.765 64.1143 215.574 66.1918 218.597 66.1918Z" fill="#4F565F"/>
<path d="M12.3823 52.9154C13.6466 62.271 17.3141 66.0954 25.3458 67.2454C27.5299 67.5582 33.8839 65.9844 31.724 66.1509" stroke="white" stroke-width="4" stroke-linecap="round"/>
<path d="M29.4175 60.5587C32.1115 60.9292 35.4753 61.5271 38.1624 61.4347C40.2988 61.3613 39.2053 61.2276 38.9572 62.3208C38.5347 64.1827 33.3662 73.8882 32.5161 73.4961" stroke="white" stroke-width="4" stroke-linecap="round"/>
<defs>
<linearGradient id="paint0_linear" x1="117" y1="7.5" x2="133.5" y2="44" gradientUnits="userSpaceOnUse">
<stop stop-color="#0DB14B"/>
<stop offset="1" stop-color="#07CB32"/>
</linearGradient>
</defs>
</svg>
