<svg width="368" height="145" viewBox="0 0 368 145" fill="none" xmlns="http://www.w3.org/2000/svg">
<path d="M221.676 108.182H222.494L222.75 106.307L224.182 107.312L224.71 106.597L223.176 105.727L224.966 104.858L224.659 104.142L222.938 105.148L223.312 103.273H222.494L222.256 105.148L220.824 104.142L220.295 104.858L221.83 105.727L220.04 106.597L220.33 107.312L222.068 106.307L221.676 108.182ZM226.33 104.21H229.074L227.778 112H228.835L230.131 104.21H232.875L233.028 103.273H226.483L226.33 104.21ZM232.395 112H233.4L234.082 107.858C234.235 106.972 235.037 106.324 235.991 106.324C236.264 106.324 236.537 106.375 236.605 106.392L236.775 105.369C236.656 105.352 236.4 105.352 236.247 105.352C235.463 105.352 234.696 105.795 234.355 106.443H234.287L234.457 105.455H233.485L232.395 112ZM239.394 112.136C241.132 112.136 242.513 110.824 242.837 108.83C243.174 106.75 242.189 105.369 240.382 105.369C238.644 105.369 237.263 106.682 236.939 108.693C236.607 110.756 237.587 112.136 239.394 112.136ZM239.411 111.233C238.098 111.233 237.706 110.108 237.911 108.83C238.128 107.483 238.985 106.273 240.365 106.273C241.678 106.273 242.07 107.415 241.865 108.693C241.648 110.044 240.792 111.233 239.411 111.233ZM245.497 108.062C245.702 106.92 246.503 106.273 247.474 106.273C248.412 106.273 248.872 106.886 248.702 107.909L248.02 112H249.026L249.724 107.841C249.997 106.17 249.23 105.369 247.918 105.369C246.929 105.369 246.23 105.812 245.821 106.477H245.736L245.906 105.455H244.935L243.844 112H244.849L245.497 108.062ZM253.096 114.591C254.656 114.591 256.037 113.875 256.318 112.188L257.426 105.455H256.454L256.284 106.494H256.181C256.02 106.153 255.738 105.369 254.46 105.369C252.806 105.369 251.447 106.682 251.119 108.693C250.778 110.739 251.779 111.898 253.369 111.898C254.643 111.898 255.176 111.148 255.449 110.79H255.534L255.329 112.119C255.142 113.21 254.264 113.705 253.216 113.705C252.014 113.705 251.733 113.078 251.528 112.716L250.625 113.278C250.927 113.964 251.626 114.591 253.096 114.591ZM253.625 110.994C252.355 110.994 251.899 110.04 252.125 108.676C252.346 107.347 253.105 106.273 254.392 106.273C255.61 106.273 256.143 107.261 255.909 108.676C255.67 110.125 254.826 110.994 253.625 110.994ZM264.022 112.136C265.279 112.136 265.838 111.352 266.119 110.994H266.238L266.068 112H267.039L268.22 104.892H269.153L269.289 104.108H268.348L268.488 103.273H267.483L267.342 104.108H265.539L265.403 104.892H267.214L266.946 106.494H266.86C266.699 106.153 266.434 105.369 265.156 105.369C263.502 105.369 262.143 106.682 261.798 108.744C261.457 110.824 262.382 112.136 264.022 112.136ZM264.27 111.233C263.008 111.233 262.578 110.125 262.812 108.727C263.038 107.347 263.814 106.273 265.088 106.273C266.319 106.273 266.839 107.261 266.596 108.727C266.349 110.21 265.48 111.233 264.27 111.233ZM271.726 112.136C273.464 112.136 274.845 110.824 275.169 108.83C275.506 106.75 274.521 105.369 272.714 105.369C270.976 105.369 269.595 106.682 269.271 108.693C268.939 110.756 269.919 112.136 271.726 112.136ZM271.743 111.233C270.43 111.233 270.038 110.108 270.243 108.83C270.46 107.483 271.317 106.273 272.697 106.273C274.01 106.273 274.402 107.415 274.197 108.693C273.98 110.044 273.124 111.233 271.743 111.233ZM272.459 104.568H273.345L274.999 102.591H273.822L272.459 104.568ZM277.88 110.807H276.789L276.653 111.284C276.346 112.443 275.903 113.585 275.716 114.131H276.483C276.772 113.551 277.42 112.239 277.727 111.267L277.88 110.807ZM284.823 112.153C285.965 112.153 286.664 111.54 286.937 111.114H286.988L286.835 112H287.84L288.556 107.688C288.897 105.608 287.363 105.369 286.528 105.369C285.539 105.369 284.346 105.71 283.647 106.903L284.533 107.244C284.84 106.767 285.488 106.256 286.442 106.256C287.363 106.256 287.704 106.75 287.567 107.585V107.619C287.482 108.097 286.988 108.062 285.778 108.216C284.533 108.369 283.17 108.642 282.914 110.142C282.71 111.42 283.579 112.153 284.823 112.153ZM285.113 111.25C284.312 111.25 283.8 110.892 283.92 110.193C284.039 109.426 284.789 109.188 285.59 109.085C286.016 109.034 287.175 108.915 287.38 108.71L287.227 109.631C287.09 110.449 286.306 111.25 285.113 111.25ZM295.505 103.273H294.5L293.051 112H294.056L295.505 103.273ZM297.808 112.153C298.95 112.153 299.648 111.54 299.921 111.114H299.972L299.819 112H300.825L301.54 107.688C301.881 105.608 300.347 105.369 299.512 105.369C298.523 105.369 297.33 105.71 296.631 106.903L297.518 107.244C297.825 106.767 298.472 106.256 299.427 106.256C300.347 106.256 300.688 106.75 300.552 107.585V107.619C300.467 108.097 299.972 108.062 298.762 108.216C297.518 108.369 296.154 108.642 295.898 110.142C295.694 111.42 296.563 112.153 297.808 112.153ZM298.097 111.25C297.296 111.25 296.785 110.892 296.904 110.193C297.023 109.426 297.773 109.188 298.575 109.085C299.001 109.034 300.16 108.915 300.364 108.71L300.211 109.631C300.075 110.449 299.29 111.25 298.097 111.25ZM299.273 104.568H300.16L299.461 102.591H298.285L299.273 104.568ZM311.524 106.92C311.353 105.983 310.757 105.369 309.461 105.369C308.081 105.369 306.922 106.153 306.734 107.261C306.581 108.165 307.024 108.761 308.183 109.051L309.223 109.307C309.87 109.46 310.126 109.767 310.041 110.227C309.956 110.79 309.274 111.25 308.336 111.25C307.518 111.25 307.058 110.892 307.007 110.193L306.001 110.432C306.052 111.54 306.87 112.136 308.217 112.136C309.734 112.136 310.91 111.301 311.098 110.176C311.251 109.256 310.774 108.693 309.649 108.403L308.711 108.165C307.978 107.977 307.672 107.705 307.757 107.21C307.842 106.648 308.507 106.239 309.308 106.239C310.194 106.239 310.467 106.716 310.569 107.176L311.524 106.92ZM315.015 112.136C316.754 112.136 318.134 110.824 318.458 108.83C318.795 106.75 317.81 105.369 316.004 105.369C314.265 105.369 312.884 106.682 312.56 108.693C312.228 110.756 313.208 112.136 315.015 112.136ZM315.032 111.233C313.719 111.233 313.327 110.108 313.532 108.83C313.749 107.483 314.606 106.273 315.987 106.273C317.299 106.273 317.691 107.415 317.487 108.693C317.269 110.044 316.413 111.233 315.032 111.233ZM314.009 104.636H315.254L316.362 103.733L317.197 104.636H318.424L316.941 103.085H316.004L314.009 104.636ZM318.134 103.597H319.021L320.469 102.062H319.225L318.134 103.597ZM322.431 114.455H323.436L324.016 110.994H324.101C324.272 111.352 324.561 112.136 325.823 112.136C327.459 112.136 328.823 110.824 329.164 108.744C329.505 106.682 328.584 105.369 326.931 105.369C325.652 105.369 325.124 106.153 324.851 106.494H324.732L324.902 105.455H323.931L322.431 114.455ZM324.374 108.727C324.613 107.261 325.431 106.273 326.658 106.273C327.936 106.273 328.38 107.347 328.158 108.727C327.919 110.125 327.101 111.233 325.84 111.233C324.63 111.233 324.135 110.21 324.374 108.727ZM331.806 108.062C332.01 106.92 332.846 106.273 333.834 106.273C334.772 106.273 335.249 106.869 335.078 107.909L334.397 112H335.402L336.101 107.841C336.374 106.153 335.607 105.369 334.277 105.369C333.238 105.369 332.573 105.795 332.164 106.477H332.078L332.607 103.273H331.601L330.152 112H331.158L331.806 108.062ZM339.151 112.153C340.293 112.153 340.992 111.54 341.265 111.114H341.316L341.163 112H342.168L342.884 107.688C343.225 105.608 341.691 105.369 340.856 105.369C339.867 105.369 338.674 105.71 337.975 106.903L338.862 107.244C339.168 106.767 339.816 106.256 340.771 106.256C341.691 106.256 342.032 106.75 341.896 107.585V107.619C341.81 108.097 341.316 108.062 340.106 108.216C338.862 108.369 337.498 108.642 337.242 110.142C337.038 111.42 337.907 112.153 339.151 112.153ZM339.441 111.25C338.64 111.25 338.129 110.892 338.248 110.193C338.367 109.426 339.117 109.188 339.918 109.085C340.344 109.034 341.504 108.915 341.708 108.71L341.555 109.631C341.418 110.449 340.634 111.25 339.441 111.25ZM341.742 103.102H340.805L338.827 104.653H340.055L341.18 103.75L341.998 104.653H343.225L341.742 103.102ZM338.896 102.062H337.634L338.589 103.614H339.458L338.896 102.062ZM345.657 108.062C345.862 106.92 346.663 106.273 347.635 106.273C348.572 106.273 349.032 106.886 348.862 107.909L348.18 112H349.186L349.885 107.841C350.157 106.17 349.39 105.369 348.078 105.369C347.089 105.369 346.39 105.812 345.981 106.477H345.896L346.066 105.455H345.095L344.004 112H345.01L345.657 108.062ZM223.312 120.455H221.911L222.17 118.886H221.165L220.905 120.455H219.92L219.784 121.307H220.764L220.091 125.398C219.903 126.54 220.722 127.085 221.574 127.085C221.949 127.085 222.205 127.017 222.358 126.966L222.29 126.062C222.205 126.08 222.068 126.114 221.847 126.114C221.403 126.114 220.994 125.977 221.131 125.125L221.766 121.307H223.176L223.312 120.455ZM223.734 127H224.74L225.422 122.858C225.575 121.972 226.376 121.324 227.331 121.324C227.604 121.324 227.876 121.375 227.945 121.392L228.115 120.369C227.996 120.352 227.74 120.352 227.587 120.352C226.803 120.352 226.036 120.795 225.695 121.443H225.626L225.797 120.455H224.825L223.734 127ZM230.132 127.153C231.274 127.153 231.973 126.54 232.245 126.114H232.297L232.143 127H233.149L233.865 122.688C234.206 120.608 232.672 120.369 231.836 120.369C230.848 120.369 229.654 120.71 228.956 121.903L229.842 122.244C230.149 121.767 230.797 121.256 231.751 121.256C232.672 121.256 233.012 121.75 232.876 122.585V122.619C232.791 123.097 232.297 123.062 231.086 123.216C229.842 123.369 228.478 123.642 228.223 125.142C228.018 126.42 228.887 127.153 230.132 127.153ZM230.422 126.25C229.62 126.25 229.109 125.892 229.228 125.193C229.348 124.426 230.098 124.188 230.899 124.085C231.325 124.034 232.484 123.915 232.689 123.71L232.535 124.631C232.399 125.449 231.615 126.25 230.422 126.25ZM233.072 118.273C232.995 118.716 232.697 119.108 232.1 119.108C231.504 119.108 231.342 118.716 231.419 118.273H230.481C230.328 119.193 230.899 119.841 231.973 119.841C233.064 119.841 233.856 119.193 234.01 118.273H233.072ZM234.984 127H235.99L236.672 122.909C236.825 121.955 237.643 121.273 238.428 121.273C239.195 121.273 239.638 121.767 239.518 122.517L238.768 127H239.791L240.507 122.739C240.643 121.886 241.274 121.273 242.195 121.273C242.911 121.273 243.456 121.648 243.303 122.619L242.57 127H243.575L244.308 122.619C244.564 121.085 243.848 120.369 242.689 120.369C241.751 120.369 240.984 120.795 240.541 121.477H240.473C240.268 120.778 239.757 120.369 238.905 120.369C238.053 120.369 237.354 120.778 236.962 121.477H236.876L237.047 120.455H236.075L234.984 127ZM251.244 118.273H250.238L248.789 127H249.795L251.244 118.273ZM253.546 127.153C254.688 127.153 255.387 126.54 255.659 126.114H255.711L255.557 127H256.563L257.279 122.688C257.62 120.608 256.086 120.369 255.25 120.369C254.262 120.369 253.069 120.71 252.37 121.903L253.256 122.244C253.563 121.767 254.211 121.256 255.165 121.256C256.086 121.256 256.426 121.75 256.29 122.585V122.619C256.205 123.097 255.711 123.062 254.5 123.216C253.256 123.369 251.892 123.642 251.637 125.142C251.432 126.42 252.301 127.153 253.546 127.153ZM253.836 126.25C253.034 126.25 252.523 125.892 252.642 125.193C252.762 124.426 253.512 124.188 254.313 124.085C254.739 124.034 255.898 123.915 256.103 123.71L255.949 124.631C255.813 125.449 255.029 126.25 253.836 126.25ZM254.108 119.67C254.176 119.312 254.466 119.023 254.79 119.023C255.438 119.023 255.455 119.568 256.239 119.568C256.972 119.568 257.637 119.006 257.773 118.119L257.023 118.051C256.972 118.409 256.665 118.699 256.341 118.699C255.728 118.699 255.523 118.153 254.875 118.153C254.142 118.153 253.478 118.767 253.341 119.636L254.108 119.67ZM258.398 127H259.404L260.495 120.455H259.489L258.398 127ZM260.299 119.347C260.691 119.347 261.015 119.04 261.015 118.665C261.015 118.29 260.691 117.983 260.299 117.983C259.907 117.983 259.583 118.29 259.583 118.665C259.583 119.04 259.907 119.347 260.299 119.347ZM270.11 121.92C269.939 120.983 269.343 120.369 268.047 120.369C266.667 120.369 265.507 121.153 265.32 122.261C265.167 123.165 265.61 123.761 266.769 124.051L267.809 124.307C268.456 124.46 268.712 124.767 268.627 125.227C268.542 125.79 267.86 126.25 266.922 126.25C266.104 126.25 265.644 125.892 265.593 125.193L264.587 125.432C264.638 126.54 265.456 127.136 266.803 127.136C268.32 127.136 269.496 126.301 269.684 125.176C269.837 124.256 269.36 123.693 268.235 123.403L267.297 123.165C266.564 122.977 266.257 122.705 266.343 122.21C266.428 121.648 267.093 121.239 267.894 121.239C268.78 121.239 269.053 121.716 269.155 122.176L270.11 121.92ZM275.459 124.324C275.254 125.551 274.232 126.114 273.482 126.114C272.646 126.114 272.152 125.5 272.305 124.545L272.987 120.455H271.982L271.283 124.614C271.01 126.284 271.76 127.085 272.987 127.085C273.976 127.085 274.726 126.557 275.135 125.892H275.203L275.016 127H276.021L277.112 120.455H276.107L275.459 124.324ZM279.772 127.153C280.914 127.153 281.613 126.54 281.886 126.114H281.937L281.784 127H282.789L283.505 122.688C283.846 120.608 282.312 120.369 281.477 120.369C280.488 120.369 279.295 120.71 278.596 121.903L279.483 122.244C279.789 121.767 280.437 121.256 281.392 121.256C282.312 121.256 282.653 121.75 282.517 122.585V122.619C282.431 123.097 281.937 123.062 280.727 123.216C279.483 123.369 278.119 123.642 277.863 125.142C277.659 126.42 278.528 127.153 279.772 127.153ZM280.062 126.25C279.261 126.25 278.75 125.892 278.869 125.193C278.988 124.426 279.738 124.188 280.539 124.085C280.966 124.034 282.125 123.915 282.329 123.71L282.176 124.631C282.039 125.449 281.255 126.25 280.062 126.25ZM279.466 119.636H280.71L281.818 118.733L282.653 119.636H283.88L282.397 118.085H281.46L279.466 119.636ZM283.591 118.597H284.477L285.926 117.062H284.681L283.591 118.597ZM288.562 120.455H287.161L287.42 118.886H286.415L286.155 120.455H285.17L285.034 121.307H286.014L285.341 125.398C285.153 126.54 285.972 127.085 286.824 127.085C287.199 127.085 287.455 127.017 287.608 126.966L287.54 126.062C287.455 126.08 287.318 126.114 287.097 126.114C286.653 126.114 286.244 125.977 286.381 125.125L287.016 121.307H288.426L288.562 120.455ZM296.297 120.455H294.895L295.155 118.886H294.149L293.889 120.455H292.905L292.768 121.307H293.749L293.075 125.398C292.888 126.54 293.706 127.085 294.558 127.085C294.933 127.085 295.189 127.017 295.342 126.966L295.274 126.062C295.189 126.08 295.053 126.114 294.831 126.114C294.388 126.114 293.979 125.977 294.115 125.125L294.75 121.307H296.161L296.297 120.455ZM296.719 127H297.724L298.406 122.858C298.56 121.972 299.361 121.324 300.315 121.324C300.588 121.324 300.861 121.375 300.929 121.392L301.099 120.369C300.98 120.352 300.724 120.352 300.571 120.352C299.787 120.352 299.02 120.795 298.679 121.443H298.611L298.781 120.455H297.81L296.719 127ZM303.718 127.136C305.457 127.136 306.837 125.824 307.161 123.83C307.498 121.75 306.513 120.369 304.707 120.369C302.968 120.369 301.587 121.682 301.263 123.693C300.931 125.756 301.911 127.136 303.718 127.136ZM303.735 126.233C302.423 126.233 302.031 125.108 302.235 123.83C302.452 122.483 303.309 121.273 304.69 121.273C306.002 121.273 306.394 122.415 306.19 123.693C305.972 125.044 305.116 126.233 303.735 126.233ZM309.821 123.062C310.026 121.92 310.827 121.273 311.799 121.273C312.736 121.273 313.196 121.886 313.026 122.909L312.344 127H313.35L314.049 122.841C314.321 121.17 313.554 120.369 312.242 120.369C311.253 120.369 310.554 120.812 310.145 121.477H310.06L310.23 120.455H309.259L308.168 127H309.174L309.821 123.062ZM317.42 129.591C318.98 129.591 320.361 128.875 320.642 127.188L321.75 120.455H320.778L320.608 121.494H320.506C320.344 121.153 320.062 120.369 318.784 120.369C317.131 120.369 315.771 121.682 315.443 123.693C315.102 125.739 316.104 126.898 317.693 126.898C318.967 126.898 319.5 126.148 319.773 125.79H319.858L319.653 127.119C319.466 128.21 318.588 128.705 317.54 128.705C316.338 128.705 316.057 128.078 315.852 127.716L314.949 128.278C315.251 128.964 315.95 129.591 317.42 129.591ZM317.949 125.994C316.679 125.994 316.223 125.04 316.449 123.676C316.67 122.347 317.429 121.273 318.716 121.273C319.935 121.273 320.467 122.261 320.233 123.676C319.994 125.125 319.151 125.994 317.949 125.994ZM327.528 123.062C327.733 121.92 328.568 121.273 329.557 121.273C330.494 121.273 330.972 121.869 330.801 122.909L330.119 127H331.125L331.824 122.841C332.097 121.153 331.33 120.369 330 120.369C328.96 120.369 328.295 120.795 327.886 121.477H327.801L328.33 118.273H327.324L325.875 127H326.881L327.528 123.062ZM339.459 119.96C339.336 120.634 339.178 121.128 338.679 121.294C338.245 120.706 337.554 120.369 336.664 120.369C334.925 120.369 333.544 121.682 333.221 123.693C332.888 125.756 333.868 127.136 335.675 127.136C337.414 127.136 338.794 125.824 339.118 123.83C339.238 123.105 339.191 122.466 339.012 121.942C339.821 121.656 340.226 120.949 340.397 119.96H339.459ZM335.692 126.233C334.38 126.233 333.988 125.108 334.192 123.83C334.409 122.483 335.266 121.273 336.647 121.273C337.959 121.273 338.351 122.415 338.147 123.693C337.929 125.044 337.073 126.233 335.692 126.233ZM335.402 129.148C335.794 129.148 336.118 128.841 336.118 128.466C336.118 128.091 335.794 127.784 335.402 127.784C335.01 127.784 334.686 128.091 334.686 128.466C334.686 128.841 335.01 129.148 335.402 129.148ZM339.751 129.455H340.757L341.336 125.994H341.422C341.592 126.352 341.882 127.136 343.143 127.136C344.779 127.136 346.143 125.824 346.484 123.744C346.825 121.682 345.904 120.369 344.251 120.369C342.973 120.369 342.444 121.153 342.172 121.494H342.052L342.223 120.455H341.251L339.751 129.455ZM341.694 123.727C341.933 122.261 342.751 121.273 343.978 121.273C345.257 121.273 345.7 122.347 345.478 123.727C345.24 125.125 344.422 126.233 343.16 126.233C341.95 126.233 341.456 125.21 341.694 123.727ZM221.847 142.136C223.104 142.136 223.662 141.352 223.943 140.994H224.062L223.892 142H224.864L226.044 134.892H226.977L227.114 134.108H226.172L226.312 133.273H225.307L225.166 134.108H223.364L223.227 134.892H225.038L224.77 136.494H224.685C224.523 136.153 224.259 135.369 222.98 135.369C221.327 135.369 219.967 136.682 219.622 138.744C219.281 140.824 220.206 142.136 221.847 142.136ZM222.094 141.233C220.832 141.233 220.402 140.125 220.636 138.727C220.862 137.347 221.638 136.273 222.912 136.273C224.143 136.273 224.663 137.261 224.42 138.727C224.173 140.21 223.304 141.233 222.094 141.233ZM229.55 142.136C231.289 142.136 232.669 140.824 232.993 138.83C233.33 136.75 232.346 135.369 230.539 135.369C228.8 135.369 227.419 136.682 227.096 138.693C226.763 140.756 227.743 142.136 229.55 142.136ZM229.567 141.233C228.255 141.233 227.863 140.108 228.067 138.83C228.284 137.483 229.141 136.273 230.522 136.273C231.834 136.273 232.226 137.415 232.022 138.693C231.804 140.044 230.948 141.233 229.567 141.233ZM231.442 133.102H230.505L228.527 134.653H229.755L230.88 133.75L231.698 134.653H232.925L231.442 133.102ZM228.596 132.062H227.334L228.289 133.614H229.158L228.596 132.062ZM235.653 138.062C235.858 136.92 236.659 136.273 237.631 136.273C238.568 136.273 239.028 136.886 238.858 137.909L238.176 142H239.182L239.881 137.841C240.153 136.17 239.386 135.369 238.074 135.369C237.085 135.369 236.386 135.812 235.977 136.477H235.892L236.062 135.455H235.091L234 142H235.006L235.653 138.062ZM243.252 144.591C244.812 144.591 246.193 143.875 246.474 142.188L247.582 135.455H246.61L246.44 136.494H246.338C246.176 136.153 245.895 135.369 244.616 135.369C242.963 135.369 241.603 136.682 241.275 138.693C240.934 140.739 241.936 141.898 243.525 141.898C244.799 141.898 245.332 141.148 245.605 140.79H245.69L245.485 142.119C245.298 143.21 244.42 143.705 243.372 143.705C242.17 143.705 241.889 143.078 241.684 142.716L240.781 143.278C241.083 143.964 241.782 144.591 243.252 144.591ZM243.781 140.994C242.511 140.994 242.055 140.04 242.281 138.676C242.502 137.347 243.261 136.273 244.548 136.273C245.767 136.273 246.299 137.261 246.065 138.676C245.826 140.125 244.983 140.994 243.781 140.994ZM258.15 135.455H257.017L254.341 140.67H254.272L253.335 135.455H252.287L253.616 142H254.639L258.15 135.455ZM260.097 142.153C261.239 142.153 261.938 141.54 262.21 141.114H262.261L262.108 142H263.114L263.83 137.688C264.17 135.608 262.636 135.369 261.801 135.369C260.812 135.369 259.619 135.71 258.92 136.903L259.807 137.244C260.114 136.767 260.761 136.256 261.716 136.256C262.636 136.256 262.977 136.75 262.841 137.585V137.619C262.756 138.097 262.261 138.062 261.051 138.216C259.807 138.369 258.443 138.642 258.188 140.142C257.983 141.42 258.852 142.153 260.097 142.153ZM260.386 141.25C259.585 141.25 259.074 140.892 259.193 140.193C259.312 139.426 260.062 139.188 260.864 139.085C261.29 139.034 262.449 138.915 262.653 138.71L262.5 139.631C262.364 140.449 261.58 141.25 260.386 141.25ZM264.962 144.455C265.848 144.455 266.581 143.994 267.144 142.946L271.158 135.455H270.025L267.348 140.688H267.28L266.343 135.455H265.294L266.607 142L266.326 142.511C265.78 143.504 265.354 143.636 264.655 143.449L264.246 144.335C264.34 144.386 264.621 144.455 264.962 144.455ZM277.423 142.136C278.868 142.136 279.959 141.25 280.338 140.091H279.332C279.021 140.807 278.357 141.233 277.577 141.233C276.379 141.233 275.766 140.244 276.026 138.727C276.26 137.244 277.214 136.273 278.395 136.273C279.277 136.273 279.72 136.818 279.776 137.415H280.781C280.811 136.188 279.908 135.369 278.531 135.369C276.754 135.369 275.339 136.767 275.02 138.761C274.692 140.722 275.578 142.136 277.423 142.136ZM286.053 139.324C285.848 140.551 284.825 141.114 284.075 141.114C283.24 141.114 282.746 140.5 282.899 139.545L283.581 135.455H282.575L281.876 139.614C281.604 141.284 282.354 142.085 283.581 142.085C284.57 142.085 285.32 141.557 285.729 140.892H285.797L285.609 142H286.615L287.706 135.455H286.7L286.053 139.324ZM285.729 134.568L285.797 134.142C286.257 134.074 286.734 133.835 286.837 133.256C286.939 132.574 286.411 132.131 285.234 132.131L285.081 132.778C285.592 132.778 285.984 132.915 285.933 133.222C285.882 133.494 285.643 133.614 285.047 133.648L284.893 134.568H285.729ZM290.366 142.153C291.508 142.153 292.207 141.54 292.48 141.114H292.531L292.377 142H293.383L294.099 137.688C294.44 135.608 292.906 135.369 292.071 135.369C291.082 135.369 289.889 135.71 289.19 136.903L290.076 137.244C290.383 136.767 291.031 136.256 291.985 136.256C292.906 136.256 293.247 136.75 293.11 137.585V137.619C293.025 138.097 292.531 138.062 291.321 138.216C290.076 138.369 288.713 138.642 288.457 140.142C288.252 141.42 289.122 142.153 290.366 142.153ZM290.656 141.25C289.855 141.25 289.343 140.892 289.463 140.193C289.582 139.426 290.332 139.188 291.133 139.085C291.559 139.034 292.718 138.915 292.923 138.71L292.77 139.631C292.633 140.449 291.849 141.25 290.656 141.25ZM298.73 142H299.702L299.872 140.994H299.991C300.162 141.352 300.452 142.136 301.713 142.136C303.349 142.136 304.713 140.824 305.054 138.744C305.395 136.682 304.474 135.369 302.821 135.369C301.543 135.369 301.014 136.153 300.741 136.494H300.656L301.185 133.273H300.179L298.73 142ZM300.264 138.727C300.503 137.261 301.321 136.273 302.548 136.273C303.827 136.273 304.27 137.347 304.048 138.727C303.81 140.125 302.991 141.233 301.73 141.233C300.52 141.233 300.026 140.21 300.264 138.727ZM307.956 142.153C309.098 142.153 309.797 141.54 310.07 141.114H310.121L309.967 142H310.973L311.689 137.688C312.03 135.608 310.496 135.369 309.661 135.369C308.672 135.369 307.479 135.71 306.78 136.903L307.666 137.244C307.973 136.767 308.621 136.256 309.575 136.256C310.496 136.256 310.837 136.75 310.7 137.585V137.619C310.615 138.097 310.121 138.062 308.911 138.216C307.666 138.369 306.303 138.642 306.047 140.142C305.842 141.42 306.712 142.153 307.956 142.153ZM308.246 141.25C307.445 141.25 306.933 140.892 307.053 140.193C307.172 139.426 307.922 139.188 308.723 139.085C309.149 139.034 310.308 138.915 310.513 138.71L310.359 139.631C310.223 140.449 309.439 141.25 308.246 141.25ZM308.331 144.148C308.723 144.148 309.047 143.841 309.047 143.466C309.047 143.091 308.723 142.784 308.331 142.784C307.939 142.784 307.615 143.091 307.615 143.466C307.615 143.841 307.939 144.148 308.331 144.148ZM314.462 138.062C314.667 136.92 315.468 136.273 316.439 136.273C317.377 136.273 317.837 136.886 317.667 137.909L316.985 142H317.99L318.689 137.841C318.962 136.17 318.195 135.369 316.882 135.369C315.894 135.369 315.195 135.812 314.786 136.477H314.701L314.871 135.455H313.9L312.809 142H313.814L314.462 138.062Z" fill="#62686D"/>
<path d="M10.3011 30.674H12.9538C12.9154 28.3409 10.9978 26.7301 8.08303 26.7301C5.213 26.7301 3.11002 28.3153 3.1228 30.6932C3.11641 32.6236 4.47791 33.7294 6.68956 34.2599L8.11499 34.6179C9.54042 34.9631 10.333 35.3722 10.3394 36.2543C10.333 37.2131 9.42536 37.8651 8.01911 37.8651C6.5809 37.8651 5.54539 37.2003 5.4559 35.8899H2.77763C2.84794 38.7216 4.87422 40.1854 8.05107 40.1854C11.2471 40.1854 13.1264 38.6577 13.1327 36.2607C13.1264 34.081 11.4836 32.924 9.20803 32.4126L8.03189 32.1314C6.89411 31.8693 5.94169 31.4474 5.96087 30.5078C5.96087 29.6641 6.70874 29.044 8.06385 29.044C9.38701 29.044 10.1988 29.6449 10.3011 30.674ZM19.5594 40.1918C22.5381 40.1918 24.3918 38.1527 24.3918 35.1293C24.3918 32.0866 22.5381 30.054 19.5594 30.054C16.5807 30.054 14.727 32.0866 14.727 35.1293C14.727 38.1527 16.5807 40.1918 19.5594 40.1918ZM19.5722 38.0824C18.1979 38.0824 17.4947 36.8232 17.4947 35.1101C17.4947 33.397 18.1979 32.1314 19.5722 32.1314C20.9209 32.1314 21.624 33.397 21.624 35.1101C21.624 36.8232 20.9209 38.0824 19.5722 38.0824ZM16.2291 29.108H18.1851L19.553 28.0341L20.9017 29.108H22.8641L20.2753 27.12H18.8051L16.2291 29.108ZM22.1929 27.983H23.7334L25.798 25.5859H23.6886L22.1929 27.983ZM35.9107 30.1818H34.0634V27.8295H31.3404V30.1818H29.998V32.2273H31.3404V37.3409C31.3276 39.2649 32.6379 40.2173 34.6131 40.1342C35.3162 40.1087 35.8148 39.968 36.0896 39.8786L35.6614 37.8523C35.5271 37.8778 35.2395 37.9418 34.9838 37.9418C34.4405 37.9418 34.0634 37.7372 34.0634 36.983V32.2273H35.9107V30.1818ZM37.8645 40H40.5875V30.1818H37.8645V40ZM39.2324 28.9162C40.0442 28.9162 40.7089 28.2962 40.7089 27.5355C40.7089 26.7812 40.0442 26.1612 39.2324 26.1612C38.427 26.1612 37.7622 26.7812 37.7622 27.5355C37.7622 28.2962 38.427 28.9162 39.2324 28.9162ZM47.4232 40.1918C49.8522 40.1918 51.4885 39.0092 51.8721 37.1875L49.3536 37.0213C49.0787 37.7692 48.3756 38.1591 47.4679 38.1591C46.1064 38.1591 45.2435 37.2578 45.2435 35.794V35.7876H51.9296V35.0398C51.9296 31.7031 49.9097 30.054 47.3145 30.054C44.4253 30.054 42.5525 32.1058 42.5525 35.1357C42.5525 38.2486 44.3998 40.1918 47.4232 40.1918ZM47.9729 27.1584H46.5091L43.9395 29.1463H45.8891L47.2506 28.0724L48.6057 29.1463H50.5681L47.9729 27.1584ZM45.2435 34.1001C45.301 32.9815 46.1512 32.0866 47.3593 32.0866C48.5418 32.0866 49.36 32.9304 49.3664 34.1001H45.2435ZM43.1022 25.6307H41.012L43.083 28.0213H44.6043L43.1022 25.6307ZM56.6096 34.3239C56.616 33.0582 57.3702 32.3168 58.4697 32.3168C59.5627 32.3168 60.2211 33.0327 60.2147 34.2344V40H62.9377V33.7486C62.9377 31.4602 61.5954 30.054 59.5499 30.054C58.0925 30.054 57.0379 30.7699 56.5968 31.9141H56.4817V30.1818H53.8866V40H56.6096V34.3239ZM72.3329 26.9091H69.6099V40H72.3329V26.9091ZM77.4939 40.1854C78.9449 40.1854 79.8845 39.5526 80.3639 38.6385H80.4406V40H83.023V33.3778C83.023 31.0384 81.0415 30.054 78.8554 30.054C76.5031 30.054 74.9562 31.179 74.5791 32.9688L77.0976 33.1733C77.2829 32.5213 77.8646 32.0419 78.8426 32.0419C79.7694 32.0419 80.3 32.5085 80.3 33.3139V33.3523C80.3 33.9851 79.6288 34.0682 77.9221 34.2344C75.979 34.4134 74.2339 35.0653 74.2339 37.2578C74.2339 39.201 75.621 40.1854 77.4939 40.1854ZM77.1295 28.9737C77.1295 28.3793 77.4236 28.0021 77.8646 28.0021C78.2034 28.0021 78.4591 28.1875 78.7403 28.3984C79.0983 28.6605 79.5074 28.9673 80.2233 28.9609C81.3802 28.9545 82.2879 28.0533 82.3007 26.4361L80.8113 26.3913C80.8049 26.9794 80.5429 27.3757 80.0507 27.3821C79.7311 27.3821 79.4626 27.1967 79.1686 26.9858C78.7851 26.7237 78.3568 26.4169 77.692 26.4233C76.5287 26.4297 75.6146 27.331 75.6146 28.9545L77.1295 28.9737ZM78.2737 38.3061C77.4363 38.3061 76.8355 37.9162 76.8355 37.1683C76.8355 36.4013 77.4683 36.0241 78.4271 35.8899C79.0216 35.8068 79.9932 35.6662 80.3192 35.4489V36.4908C80.3192 37.5199 79.469 38.3061 78.2737 38.3061ZM85.3156 40H88.0386V30.1818H85.3156V40ZM86.6835 28.9162C87.4952 28.9162 88.16 28.2962 88.16 27.5355C88.16 26.7812 87.4952 26.1612 86.6835 26.1612C85.8781 26.1612 85.2133 26.7812 85.2133 27.5355C85.2133 28.2962 85.8781 28.9162 86.6835 28.9162ZM99.182 40.1918C101.796 40.1918 103.439 38.6577 103.567 36.4013H100.997C100.837 37.4496 100.147 38.0376 99.2139 38.0376C97.9419 38.0376 97.1173 36.9702 97.1173 35.0909C97.1173 33.2372 97.9483 32.1761 99.2139 32.1761C100.211 32.1761 100.85 32.8345 100.997 33.8125H103.567C103.452 31.5433 101.732 30.054 99.1692 30.054C96.1905 30.054 94.3496 32.1186 94.3496 35.1293C94.3496 38.1143 96.1585 40.1918 99.182 40.1918ZM109.926 40.1918C112.905 40.1918 114.759 38.1527 114.759 35.1293C114.759 32.0866 112.905 30.054 109.926 30.054C106.948 30.054 105.094 32.0866 105.094 35.1293C105.094 38.1527 106.948 40.1918 109.926 40.1918ZM109.939 38.0824C108.565 38.0824 107.862 36.8232 107.862 35.1101C107.862 33.397 108.565 32.1314 109.939 32.1314C111.288 32.1314 111.991 33.397 111.991 35.1101C111.991 36.8232 111.288 38.0824 109.939 38.0824ZM108.98 28.9162H110.904L109.543 26.0078H107.031L108.98 28.9162ZM119.432 34.3239C119.439 33.0582 120.193 32.3168 121.292 32.3168C122.386 32.3168 123.044 33.0327 123.038 34.2344V40H125.761V33.7486C125.761 31.4602 124.418 30.054 122.373 30.054C120.915 30.054 119.861 30.7699 119.42 31.9141H119.305V30.1818H116.709V40H119.432V34.3239ZM33.4114 48.9091H30.6884V62H33.4114V48.9091ZM38.5724 62.1854C40.0234 62.1854 40.963 61.5526 41.4424 60.6385H41.5191V62H44.1015V55.3778C44.1015 53.0384 42.12 52.054 39.9339 52.054C37.5816 52.054 36.0347 53.179 35.6576 54.9688L38.1761 55.1733C38.3614 54.5213 38.9431 54.0419 39.9211 54.0419C40.8479 54.0419 41.3785 54.5085 41.3785 55.3139V55.3523C41.3785 55.9851 40.7073 56.0682 39.0006 56.2344C37.0575 56.4134 35.3124 57.0653 35.3124 59.2578C35.3124 61.201 36.6995 62.1854 38.5724 62.1854ZM39.3522 60.3061C38.5148 60.3061 37.914 59.9162 37.914 59.1683C37.914 58.4013 38.5468 58.0241 39.5056 57.8899C40.1001 57.8068 41.0717 57.6662 41.3977 57.4489V58.4908C41.3977 59.5199 40.5475 60.3061 39.3522 60.3061ZM39.9211 65.6818C40.7329 65.6818 41.3977 65.0618 41.3977 64.3011C41.3977 63.5469 40.7329 62.9268 39.9211 62.9268C39.1157 62.9268 38.4509 63.5469 38.4509 64.3011C38.4509 65.0618 39.1157 65.6818 39.9211 65.6818ZM46.3941 62H49.1171V52.1818H46.3941V62ZM47.762 50.9162C48.5738 50.9162 49.2385 50.2962 49.2385 49.5355C49.2385 48.7812 48.5738 48.1612 47.762 48.1612C46.9566 48.1612 46.2918 48.7812 46.2918 49.5355C46.2918 50.2962 46.9566 50.9162 47.762 50.9162ZM55.8244 65.6818H58.5474V60.4276H58.6305C59.0076 61.2457 59.8322 62.1598 61.4174 62.1598C63.6546 62.1598 65.3997 60.3892 65.3997 57.1037C65.3997 53.7287 63.5779 52.054 61.4238 52.054C59.7811 52.054 58.9948 53.032 58.6305 53.831H58.509V52.1818H55.8244V65.6818ZM58.4899 57.0909C58.4899 55.3395 59.2313 54.2209 60.5545 54.2209C61.9032 54.2209 62.6191 55.3906 62.6191 57.0909C62.6191 58.804 61.8904 59.9929 60.5545 59.9929C59.2441 59.9929 58.4899 58.8423 58.4899 57.0909ZM70.118 56.3239C70.1244 55.0582 70.8978 54.3168 72.0101 54.3168C73.1159 54.3168 73.7679 55.0263 73.7615 56.2344V62H76.4845V55.7486C76.4909 53.4474 75.1358 52.054 73.0903 52.054C71.601 52.054 70.6038 52.7571 70.1564 53.9141H70.0413V48.9091H67.395V62H70.118V56.3239ZM81.6071 62.1854C83.0581 62.1854 83.9978 61.5526 84.4772 60.6385H84.5539V62H87.1363V55.3778C87.1363 53.0384 85.1547 52.054 82.9686 52.054C80.6164 52.054 79.0695 53.179 78.6924 54.9688L81.2108 55.1733C81.3962 54.5213 81.9779 54.0419 82.9559 54.0419C83.8827 54.0419 84.4133 54.5085 84.4133 55.3139V55.3523C84.4133 55.9851 83.7421 56.0682 82.0354 56.2344C80.0922 56.4134 78.3472 57.0653 78.3472 59.2578C78.3472 61.201 79.7343 62.1854 81.6071 62.1854ZM84.0745 50.7756V50.2131C84.7584 50.1108 85.4424 49.7337 85.436 48.9602C85.4424 47.8736 84.2279 47.2216 81.9523 47.2216L81.882 48.4553C82.6107 48.4553 83.1668 48.5831 83.1604 49.0433C83.1668 49.3757 82.8152 49.5866 81.914 49.625L82.0546 50.7756H84.0745ZM82.387 60.3061C81.5496 60.3061 80.9488 59.9162 80.9488 59.1683C80.9488 58.4013 81.5816 58.0241 82.5404 57.8899C83.1348 57.8068 84.1064 57.6662 84.4324 57.4489V58.4908C84.4324 59.5199 83.5823 60.3061 82.387 60.3061ZM89.4288 62H92.1518V52.1818H89.4288V62ZM90.7967 50.9162C91.6085 50.9162 92.2733 50.2962 92.2733 49.5355C92.2733 48.7812 91.6085 48.1612 90.7967 48.1612C89.9913 48.1612 89.3266 48.7812 89.3266 49.5355C89.3266 50.2962 89.9913 50.9162 90.7967 50.9162ZM104.081 52.1818H102.234V49.8295H99.5111V52.1818H98.1688V54.2273H99.5111V59.3409C99.4984 61.2649 100.809 62.2173 102.784 62.1342C103.487 62.1087 103.986 61.968 104.26 61.8786L103.832 59.8523C103.698 59.8778 103.41 59.9418 103.155 59.9418C102.611 59.9418 102.234 59.7372 102.234 58.983V54.2273H104.081V52.1818ZM106.035 62H108.758V56.4453C108.758 55.2372 109.64 54.4062 110.842 54.4062C111.219 54.4062 111.737 54.4702 111.993 54.5533V52.1371C111.75 52.0795 111.411 52.0412 111.136 52.0412C110.037 52.0412 109.135 52.6804 108.777 53.8949H108.675V52.1818H106.035V62ZM116.099 62.1854C117.55 62.1854 118.49 61.5526 118.969 60.6385H119.046V62H121.628V55.3778C121.628 53.0384 119.647 52.054 117.46 52.054C115.108 52.054 113.561 53.179 113.184 54.9688L115.703 55.1733C115.888 54.5213 116.47 54.0419 117.448 54.0419C118.375 54.0419 118.905 54.5085 118.905 55.3139V55.3523C118.905 55.9851 118.234 56.0682 116.527 56.2344C114.584 56.4134 112.839 57.0653 112.839 59.2578C112.839 61.201 114.226 62.1854 116.099 62.1854ZM118.566 50.7756V50.2131C119.25 50.1108 119.934 49.7337 119.928 48.9602C119.934 47.8736 118.72 47.2216 116.444 47.2216L116.374 48.4553C117.102 48.4553 117.659 48.5831 117.652 49.0433C117.659 49.3757 117.307 49.5866 116.406 49.625L116.546 50.7756H118.566ZM116.879 60.3061C116.041 60.3061 115.441 59.9162 115.441 59.1683C115.441 58.4013 116.073 58.0241 117.032 57.8899C117.627 57.8068 118.598 57.6662 118.924 57.4489V58.4908C118.924 59.5199 118.074 60.3061 116.879 60.3061Z" fill="#4F565F"/>
<path d="M190.582 61.4943C194.452 61.4943 196.957 59.8068 198.236 57.3693H198.44V61H205.327V43.3409C205.327 37.1023 200.043 34.4773 194.213 34.4773C187.94 34.4773 183.815 37.4773 182.81 42.25L189.526 42.7955C190.02 41.0568 191.571 39.7784 194.179 39.7784C196.651 39.7784 198.065 41.0227 198.065 43.1705V43.2727C198.065 44.9602 196.276 45.1818 191.724 45.625C186.543 46.1023 181.889 47.8409 181.889 53.6875C181.889 58.8693 185.588 61.4943 190.582 61.4943ZM192.662 56.483C190.429 56.483 188.827 55.4432 188.827 53.4489C188.827 51.4034 190.514 50.3977 193.071 50.0398C194.656 49.8182 197.247 49.4432 198.116 48.8636V51.642C198.116 54.3864 195.849 56.483 192.662 56.483ZM230 54.4545C230.017 58.6477 232.693 62.2102 237.688 62.2102C242.631 62.2102 245.392 58.6477 245.375 54.4545V52.6136C245.392 48.3864 242.699 44.858 237.688 44.858C232.761 44.858 230.017 48.4205 230 52.6136V54.4545ZM212.085 34.4773C212.102 38.6705 214.778 42.1989 219.756 42.1989C224.716 42.1989 227.477 38.7045 227.46 34.4773V32.6364C227.477 28.4091 224.784 24.8807 219.756 24.8807C214.881 24.8807 212.102 28.4091 212.085 32.6364V34.4773ZM213.756 61H218.205L242.205 26.0909H237.756L213.756 61ZM234.96 52.6136C234.977 50.9432 235.642 49.2216 237.688 49.2216C239.835 49.2216 240.398 50.9432 240.381 52.6136V54.4545C240.398 56.125 239.767 57.8125 237.688 57.8125C235.608 57.8125 234.977 56.0739 234.96 54.4545V52.6136ZM217.08 32.6364C217.097 31.017 217.727 29.2443 219.756 29.2443C221.903 29.2443 222.483 30.9659 222.466 32.6364V34.4773C222.483 36.1477 221.835 37.8352 219.756 37.8352C217.744 37.8352 217.097 36.1477 217.08 34.4773V32.6364ZM268.523 40.6648H252.602V46.4261H268.523V40.6648ZM274.114 54.8636H290.869V61H297.926V54.8636H302.256V48.9489H297.926V26.0909H288.688L274.114 49.0511V54.8636ZM291.006 48.9489H281.545V48.6761L290.733 34.1364H291.006V48.9489ZM326.281 54.4545C326.298 58.6477 328.974 62.2102 333.969 62.2102C338.912 62.2102 341.673 58.6477 341.656 54.4545V52.6136C341.673 48.3864 338.98 44.858 333.969 44.858C329.043 44.858 326.298 48.4205 326.281 52.6136V54.4545ZM308.366 34.4773C308.384 38.6705 311.06 42.1989 316.037 42.1989C320.997 42.1989 323.759 38.7045 323.741 34.4773V32.6364C323.759 28.4091 321.065 24.8807 316.037 24.8807C311.162 24.8807 308.384 28.4091 308.366 32.6364V34.4773ZM310.037 61H314.486L338.486 26.0909H334.037L310.037 61ZM331.241 52.6136C331.259 50.9432 331.923 49.2216 333.969 49.2216C336.116 49.2216 336.679 50.9432 336.662 52.6136V54.4545C336.679 56.125 336.048 57.8125 333.969 57.8125C331.889 57.8125 331.259 56.0739 331.241 54.4545V52.6136ZM313.361 32.6364C313.378 31.017 314.009 29.2443 316.037 29.2443C318.185 29.2443 318.764 30.9659 318.747 32.6364V34.4773C318.764 36.1477 318.116 37.8352 316.037 37.8352C314.026 37.8352 313.378 36.1477 313.361 34.4773V32.6364Z" fill="url(#paint0_linear)"/>
<path d="M143.448 35.7222C149.587 35.5916 155.642 34.6438 161.781 34.6438" stroke="white" stroke-width="4" stroke-linecap="round"/>
<path d="M143.448 45.4282H162.86" stroke="white" stroke-width="4" stroke-linecap="round"/>
<path d="M185.165 73.9508C179.961 83.443 180.74 89.4684 187.367 95.9982C189.169 97.7738 196.103 100.648 193.997 99.3313" stroke="white" stroke-width="4" stroke-linecap="round"/>
<path d="M195.676 92.6013C197.909 94.7775 200.606 97.6195 203.148 99.3639C205.169 100.751 204.251 99.883 203.278 100.723C201.62 102.153 190.243 107.587 189.726 106.647" stroke="white" stroke-width="4" stroke-linecap="round"/>
<defs>
<linearGradient id="paint0_linear" x1="208.962" y1="25.1809" x2="292.515" y2="91.9513" gradientUnits="userSpaceOnUse">
<stop stop-color="#0066B3"/>
<stop offset="1" stop-color="#1187E0"/>
</linearGradient>
</defs>
</svg>
