<svg width="299" height="95" viewBox="0 0 299 95" fill="none" xmlns="http://www.w3.org/2000/svg">
<path d="M1.65128 43H5.06037V40.6776C5.06037 39.005 5.61435 37.6946 6.41335 36.4375L4.41051 35.255C2.92969 36.4588 1.65128 38.7493 1.65128 40.6989V43ZM7.03125 43H10.4403V40.6776C10.4403 39.005 10.9943 37.6946 11.7933 36.4375L9.79048 35.255C8.30966 36.4588 7.03125 38.7493 7.03125 40.6989V43ZM14.8526 58H19.4655V51.7997L21.7347 49.0298L27.7112 58H33.2297L25.0372 45.951L33.1338 36.1818H27.6047L19.7531 45.8018H19.4655V36.1818H14.8526V58ZM40.2893 48.5398C40.2999 46.4304 41.589 45.1946 43.4427 45.1946C45.2857 45.1946 46.3724 46.3771 46.3617 48.3906V58H50.9001V47.581C50.9107 43.7457 48.6522 41.4233 45.2431 41.4233C42.7609 41.4233 41.0989 42.5952 40.3532 44.5234H40.1614V36.1818H35.7509V58H40.2893V48.5398ZM62.1651 58.3196C67.1296 58.3196 70.2191 54.9212 70.2191 49.8821C70.2191 44.8111 67.1296 41.4233 62.1651 41.4233C57.2006 41.4233 54.1111 44.8111 54.1111 49.8821C54.1111 54.9212 57.2006 58.3196 62.1651 58.3196ZM62.1864 54.804C59.8959 54.804 58.724 52.7053 58.724 49.8501C58.724 46.995 59.8959 44.8857 62.1864 44.8857C64.4343 44.8857 65.6061 46.995 65.6061 49.8501C65.6061 52.7053 64.4343 54.804 62.1864 54.804ZM60.0238 39.6974L62.1651 37.098L64.3064 39.6974H68.1736V39.5483L63.8483 34.8608H60.4712L56.1566 39.5483V39.6974H60.0238ZM78.0084 48.5398C78.0191 46.4304 79.2762 45.1946 81.1086 45.1946C82.9303 45.1946 84.0276 46.3878 84.0169 48.3906V58H88.5553V47.581C88.5553 43.767 86.3181 41.4233 82.909 41.4233C80.48 41.4233 78.7222 42.6165 77.9871 44.5234H77.7953V41.6364H73.4701V58H78.0084V48.5398ZM99.8043 64.4773C104.481 64.4773 107.805 62.3466 107.805 58.1598V41.6364H103.299V44.3849H103.128C102.521 43.0533 101.189 41.4233 98.4513 41.4233C94.8612 41.4233 91.8249 44.2145 91.8249 49.7862C91.8249 55.2301 94.7759 57.7656 98.462 57.7656C101.072 57.7656 102.532 56.4553 103.128 55.1023H103.32V58.0959C103.32 60.3438 101.882 61.2173 99.9109 61.2173C97.908 61.2173 96.896 60.3438 96.5231 59.353L92.3256 59.9176C92.869 62.4957 95.3938 64.4773 99.8043 64.4773ZM99.9002 54.3565C97.6737 54.3565 96.4592 52.5881 96.4592 49.7649C96.4592 46.9844 97.6523 45.0348 99.9002 45.0348C102.105 45.0348 103.341 46.8991 103.341 49.7649C103.341 52.652 102.084 54.3565 99.9002 54.3565ZM127.664 41.6364H124.585V37.7159H120.047V41.6364H117.809V45.0455H120.047V53.5682C120.025 56.7749 122.209 58.3622 125.501 58.2237C126.673 58.1811 127.504 57.9467 127.962 57.7976L127.248 54.4205C127.025 54.4631 126.545 54.5696 126.119 54.5696C125.213 54.5696 124.585 54.2287 124.585 52.9716V45.0455H127.664V41.6364ZM135.81 48.5398C135.821 46.4304 137.11 45.1946 138.963 45.1946C140.806 45.1946 141.893 46.3771 141.882 48.3906V58H146.421V47.581C146.431 43.7457 144.173 41.4233 140.764 41.4233C138.282 41.4233 136.62 42.5952 135.874 44.5234H135.682V36.1818H131.272V58H135.81V48.5398ZM167.593 40.7308C167.583 42.7976 167.348 43.9588 165.431 44.2464V41.6364H160.892V51.0327C160.903 53.2273 159.401 54.3778 157.771 54.3778C156.056 54.3778 154.948 53.174 154.937 51.2457V41.6364H150.399V52.0554C150.41 55.88 152.647 58.2131 155.939 58.2131C158.4 58.2131 160.168 56.9453 160.903 55.0277H161.074V58H165.431V46.3026C169.032 45.9936 170.214 44.0973 170.225 40.7308H167.593ZM159.603 39.2926V38.3551C160.743 38.1847 161.883 37.5561 161.873 36.267C161.883 34.456 159.859 33.3693 156.066 33.3693L155.949 35.4254C157.164 35.4254 158.091 35.6385 158.08 36.4055C158.091 36.9595 157.505 37.3111 156.003 37.375L156.237 39.2926H159.603ZM194.361 41.6364H189.556L186.168 53.3445H185.998L182.6 41.6364H177.806L183.526 58H188.64L194.361 41.6364ZM196.983 58H201.522V41.6364H196.983V58ZM199.263 39.527C200.616 39.527 201.724 38.4936 201.724 37.2259C201.724 35.9688 200.616 34.9354 199.263 34.9354C197.921 34.9354 196.813 35.9688 196.813 37.2259C196.813 38.4936 197.921 39.527 199.263 39.527ZM212.915 58.3196C216.963 58.3196 219.69 56.3487 220.329 53.3125L216.132 53.0355C215.674 54.282 214.502 54.9318 212.989 54.9318C210.72 54.9318 209.282 53.4297 209.282 50.9901V50.9794H220.425V49.733C220.425 44.1719 217.059 41.4233 212.733 41.4233C207.918 41.4233 204.797 44.843 204.797 49.8928C204.797 55.081 207.875 58.3196 212.915 58.3196ZM210.486 39.6974L212.627 37.098L214.768 39.6974H218.635V39.5483L214.31 34.8608H210.933L206.618 39.5483V39.6974H210.486ZM209.282 48.1669C209.378 46.3026 210.795 44.8111 212.808 44.8111C214.779 44.8111 216.143 46.2173 216.153 48.1669H209.282ZM212.627 64.1364C213.98 64.1364 215.088 63.103 215.088 61.8352C215.088 60.5781 213.98 59.5447 212.627 59.5447C211.285 59.5447 210.177 60.5781 210.177 61.8352C210.177 63.103 211.285 64.1364 212.627 64.1364ZM231.08 58.3196C235.438 58.3196 238.175 55.7628 238.389 52.0021H234.106C233.84 53.7493 232.689 54.7294 231.134 54.7294C229.014 54.7294 227.639 52.9503 227.639 49.8182C227.639 46.7287 229.024 44.9602 231.134 44.9602C232.796 44.9602 233.861 46.0575 234.106 47.6875H238.389C238.197 43.9055 235.331 41.4233 231.059 41.4233C226.095 41.4233 223.026 44.8643 223.026 49.8821C223.026 54.8572 226.041 58.3196 231.08 58.3196ZM245.398 36.1818H241.988V38.5043C241.988 40.3047 241.349 41.6151 240.635 42.7443L242.638 43.9268C244.14 42.6697 245.398 40.4325 245.398 38.483V36.1818ZM250.746 36.1818H247.336V38.5043C247.336 40.3047 246.697 41.6151 245.983 42.7443L247.986 43.9268C249.488 42.6697 250.746 40.4325 250.746 38.483V36.1818Z" fill="url(#paint0_linear)"/>
<path d="M16.2784 21H18.0341V15.9261H23.8352V21H25.5966V9.36364H23.8352V14.4205H18.0341V9.36364H16.2784V21ZM36.3352 11.8523C36.3295 12.9261 36.2784 13.4716 35.267 13.5909V12.2727H33.5625V17.3807C33.5682 18.8636 32.4659 19.5682 31.5114 19.5682C30.4602 19.5682 29.733 18.8068 29.733 17.6193V12.2727H28.0341V17.8239C28.0341 19.9886 29.2216 21.1136 30.8977 21.1136C32.2102 21.1136 33.1023 20.4205 33.5057 19.4886H33.5966V21H35.267V14.5795C37.0455 14.4489 37.5852 13.5227 37.5909 11.8523H36.3352ZM45.7344 11.6648C45.7344 12.5227 45.6321 13.1648 45.1151 13.4489C44.4048 12.625 43.3707 12.1591 42.1151 12.1591C39.6548 12.1591 38.0469 13.9602 38.0469 16.6761C38.0469 19.375 39.6548 21.1761 42.1151 21.1761C44.5753 21.1761 46.1832 19.375 46.1832 16.6761C46.1832 15.7841 46.0071 14.9886 45.6889 14.3295C46.6548 13.9148 47.0469 12.9773 47.0469 11.6648H45.7344ZM42.1207 19.75C40.5128 19.75 39.7628 18.3466 39.7628 16.6705C39.7628 15 40.5128 13.5795 42.1207 13.5795C43.7173 13.5795 44.4673 15 44.4673 16.6705C44.4673 18.3466 43.7173 19.75 42.1207 19.75ZM42.8082 11.0682V10.5227C43.4048 10.4318 44.0014 10.108 43.9957 9.36364C44.0014 8.4375 43.0923 7.85227 41.3764 7.85227L41.3253 8.78977C41.9957 8.78977 42.5241 8.94886 42.5185 9.35795C42.5241 9.69886 42.223 9.86932 41.4219 9.90909L41.4673 11.0682H42.8082ZM49.8878 15.8182C49.8878 14.4261 50.7401 13.6307 51.9219 13.6307C53.0753 13.6307 53.7741 14.3864 53.7741 15.6534V21H55.473V15.4489C55.473 13.2898 54.2855 12.1591 52.5014 12.1591C51.1889 12.1591 50.331 12.767 49.9276 13.6932H49.8196V12.2727H48.1889V21H49.8878V15.8182ZM61.4105 24.4545C63.6321 24.4545 65.348 23.4375 65.348 21.1932V12.2727H63.6832V13.6875H63.5582C63.2571 13.1477 62.6548 12.1591 61.0298 12.1591C58.9219 12.1591 57.3707 13.8239 57.3707 16.6023C57.3707 19.3864 58.956 20.8693 61.0185 20.8693C62.6207 20.8693 63.2401 19.9659 63.5469 19.4091H63.6548V21.125C63.6548 22.4943 62.7173 23.0852 61.4276 23.0852C60.0128 23.0852 59.4616 22.375 59.1605 21.875L57.7003 22.4773C58.1605 23.5455 59.3253 24.4545 61.4105 24.4545ZM61.3935 19.4602C59.8764 19.4602 59.0866 18.2955 59.0866 16.5795C59.0866 14.9034 59.8594 13.6023 61.3935 13.6023C62.8764 13.6023 63.6719 14.8125 63.6719 16.5795C63.6719 18.3807 62.8594 19.4602 61.3935 19.4602ZM73.5597 15.8182C73.5597 14.4261 74.4119 13.6307 75.5938 13.6307C76.7472 13.6307 77.446 14.3864 77.446 15.6534V21H79.1449V15.4489C79.1449 13.2898 77.9574 12.1591 76.1733 12.1591C74.8608 12.1591 74.0028 12.767 73.5994 13.6932H73.4915V12.2727H71.8608V21H73.5597V15.8182ZM85.0824 24.4545C87.304 24.4545 89.0199 23.4375 89.0199 21.1932V12.2727H87.3551V13.6875H87.2301C86.929 13.1477 86.3267 12.1591 84.7017 12.1591C82.5938 12.1591 81.0426 13.8239 81.0426 16.6023C81.0426 19.3864 82.6278 20.8693 84.6903 20.8693C86.2926 20.8693 86.9119 19.9659 87.2188 19.4091H87.3267V21.125C87.3267 22.4943 86.3892 23.0852 85.0994 23.0852C83.6847 23.0852 83.1335 22.375 82.8324 21.875L81.3722 22.4773C81.8324 23.5455 82.9972 24.4545 85.0824 24.4545ZM85.0653 19.4602C83.5483 19.4602 82.7585 18.2955 82.7585 16.5795C82.7585 14.9034 83.5312 13.6023 85.0653 13.6023C86.5483 13.6023 87.3438 14.8125 87.3438 16.5795C87.3438 18.3807 86.5312 19.4602 85.0653 19.4602ZM93.8381 21.1932C95.2812 21.1932 96.0938 20.4602 96.4176 19.8068H96.4858V21H98.1449V15.2045C98.1449 12.6648 96.1449 12.1591 94.7585 12.1591C93.179 12.1591 91.7244 12.7955 91.1562 14.3864L92.7528 14.75C93.0028 14.1307 93.6392 13.5341 94.7812 13.5341C95.8778 13.5341 96.4403 14.108 96.4403 15.0966V15.1364C96.4403 15.7557 95.804 15.7443 94.2358 15.9261C92.5824 16.1193 90.8892 16.5511 90.8892 18.5341C90.8892 20.25 92.179 21.1932 93.8381 21.1932ZM94.2074 19.8295C93.2472 19.8295 92.554 19.3977 92.554 18.5568C92.554 17.6477 93.3608 17.3239 94.3438 17.1932C94.8949 17.1193 96.2017 16.9716 96.446 16.7273V17.8523C96.446 18.8864 95.6222 19.8295 94.2074 19.8295ZM101.169 24.2727C102.572 24.2727 103.459 23.5398 103.964 22.1648L107.572 12.2898L105.737 12.2727L103.527 19.0455H103.436L101.226 12.2727H99.4077L102.601 21.1136L102.391 21.6932C101.959 22.8523 101.351 22.9489 100.419 22.6932L100.01 24.0852C100.214 24.1761 100.658 24.2727 101.169 24.2727ZM117.084 21.1761C119.146 21.1761 120.482 19.9375 120.669 18.2386H119.016C118.8 19.1818 118.067 19.7386 117.095 19.7386C115.658 19.7386 114.732 18.5398 114.732 16.6364C114.732 14.767 115.675 13.5909 117.095 13.5909C118.175 13.5909 118.834 14.2727 119.016 15.0909H120.669C120.487 13.3295 119.05 12.1591 117.067 12.1591C114.607 12.1591 113.016 14.0114 113.016 16.6761C113.016 19.3068 114.55 21.1761 117.084 21.1761ZM124.185 15.8182C124.185 14.4261 125.065 13.6307 126.276 13.6307C127.446 13.6307 128.145 14.375 128.145 15.6534V21H129.844V15.4489C129.844 13.2727 128.651 12.1591 126.855 12.1591C125.497 12.1591 124.679 12.75 124.27 13.6932H124.162V9.36364H122.486V21H124.185V15.8182ZM132.111 21H133.81V12.2727H132.111V21ZM132.27 11.108H133.628L135.389 8.48864H133.599L132.27 11.108ZM137.794 15.8182C137.794 14.4261 138.646 13.6307 139.828 13.6307C140.982 13.6307 141.68 14.3864 141.68 15.6534V21H143.379V15.4489C143.379 13.2898 142.192 12.1591 140.408 12.1591C139.095 12.1591 138.237 12.767 137.834 13.6932H137.726V12.2727H136.095V21H137.794V15.8182ZM147.357 15.8182C147.357 14.4261 148.237 13.6307 149.447 13.6307C150.618 13.6307 151.317 14.375 151.317 15.6534V21H153.016V15.4489C153.016 13.2727 151.822 12.1591 150.027 12.1591C148.669 12.1591 147.851 12.75 147.442 13.6932H147.334V9.36364H145.658V21H147.357V15.8182ZM166.057 14.4034C165.705 13.0455 164.642 12.1591 162.756 12.1591C160.784 12.1591 159.386 13.1989 159.386 14.7443C159.386 15.983 160.136 16.8068 161.773 17.1705L163.25 17.4943C164.091 17.6818 164.483 18.0568 164.483 18.6023C164.483 19.2784 163.761 19.8068 162.648 19.8068C161.631 19.8068 160.977 19.3693 160.773 18.5114L159.131 18.7614C159.415 20.3068 160.699 21.1761 162.659 21.1761C164.767 21.1761 166.227 20.0568 166.227 18.4773C166.227 17.2443 165.443 16.483 163.841 16.1136L162.455 15.7955C161.494 15.5682 161.08 15.2443 161.085 14.6534C161.08 13.983 161.807 13.5057 162.773 13.5057C163.83 13.5057 164.318 14.0909 164.517 14.6761L166.057 14.4034ZM170.635 21.1932C172.078 21.1932 172.891 20.4602 173.214 19.8068H173.283V21H174.942V15.2045C174.942 12.6648 172.942 12.1591 171.555 12.1591C169.976 12.1591 168.521 12.7955 167.953 14.3864L169.55 14.75C169.8 14.1307 170.436 13.5341 171.578 13.5341C172.675 13.5341 173.237 14.108 173.237 15.0966V15.1364C173.237 15.7557 172.601 15.7443 171.033 15.9261C169.379 16.1193 167.686 16.5511 167.686 18.5341C167.686 20.25 168.976 21.1932 170.635 21.1932ZM171.004 19.8295C170.044 19.8295 169.351 19.3977 169.351 18.5568C169.351 17.6477 170.158 17.3239 171.141 17.1932C171.692 17.1193 172.999 16.9716 173.243 16.7273V17.8523C173.243 18.8864 172.419 19.8295 171.004 19.8295ZM170.942 11.108H172.3L174.061 8.48864H172.271L170.942 11.108ZM180.881 21.1761C182.943 21.1761 184.278 19.9375 184.466 18.2386H182.812C182.597 19.1818 181.864 19.7386 180.892 19.7386C179.455 19.7386 178.528 18.5398 178.528 16.6364C178.528 14.767 179.472 13.5909 180.892 13.5909C181.972 13.5909 182.631 14.2727 182.812 15.0909H184.466C184.284 13.3295 182.847 12.1591 180.864 12.1591C178.403 12.1591 176.812 14.0114 176.812 16.6761C176.812 19.3068 178.347 21.1761 180.881 21.1761ZM187.982 15.8182C187.982 14.4261 188.862 13.6307 190.072 13.6307C191.243 13.6307 191.942 14.375 191.942 15.6534V21H193.641V15.4489C193.641 13.2727 192.447 12.1591 190.652 12.1591C189.294 12.1591 188.476 12.75 188.067 13.6932H187.959V9.36364H186.283V21H187.982V15.8182Z" fill="#4F565F"/>
<path d="M16.1508 85.1855L17.8497 85.183L17.8451 82.0864L18.6904 81.2386L21.6622 85.1773L23.7474 85.1742L19.9672 80.1969L23.4958 76.4473L21.4617 76.4504L17.9899 80.1487L17.8422 80.1489L17.8324 73.5467L16.1335 73.5492L16.1508 85.1855ZM26.7482 79.988C26.7461 78.5959 27.6256 77.7992 28.8358 77.7974C30.0063 77.7956 30.7063 78.5389 30.7082 79.8173L30.7161 85.1639L32.415 85.1614L32.4067 79.6102C32.4035 77.4341 31.2087 76.3222 29.4132 76.3249C28.0553 76.3269 27.238 76.919 26.8303 77.8628L26.7223 77.863L26.7159 73.5335L25.0397 73.5359L25.057 85.1723L26.7559 85.1698L26.7482 79.988ZM34.682 85.158L36.3809 85.1555L36.3679 76.4282L34.6691 76.4307L34.682 85.158ZM35.525 75.0829C36.1102 75.082 36.5982 74.6267 36.5974 74.0699C36.5965 73.5131 36.1072 73.0536 35.522 73.0545C34.9311 73.0553 34.4488 73.5163 34.4496 74.0731C34.4505 74.6299 34.9341 75.0837 35.525 75.0829ZM46.1681 85.3114C47.759 85.309 48.3825 84.3365 48.6885 83.7792L48.8306 83.779L48.8326 85.137L50.4917 85.1345L50.4777 75.7084L51.6424 75.7066L51.6407 74.5305L50.4759 74.5322L50.4744 73.4981L48.7755 73.5007L48.777 74.5348L46.4191 74.5383L46.4208 75.7144L48.7788 75.7109L48.7819 77.8245L48.6797 77.8247C48.372 77.2854 47.791 76.2976 46.166 76.3C44.0581 76.3031 42.5094 77.9702 42.5136 80.7998C42.5178 83.6236 44.0487 85.3145 46.1681 85.3114ZM46.5409 83.862C45.0239 83.8642 44.2321 82.5302 44.2295 80.7802C44.2269 79.0472 44.9977 77.7449 46.5318 77.7426C48.0148 77.7404 48.812 78.9495 48.8147 80.7733C48.8175 82.6086 48.0068 83.8598 46.5409 83.862ZM55.4564 85.3203C56.8996 85.3182 57.711 84.584 58.0339 83.9301L58.1021 83.93L58.1039 85.1232L59.763 85.1207L59.7543 79.3253C59.7506 76.7855 57.7498 76.2828 56.3635 76.2849C54.7839 76.2872 53.3303 76.9257 52.7645 78.5175L54.3616 78.8787C54.6107 78.259 55.2462 77.6615 56.3882 77.6598C57.4848 77.6582 58.0482 78.2312 58.0496 79.2198L58.0497 79.2596C58.0506 79.8789 57.4142 79.8685 55.8463 80.0527C54.1932 80.2483 52.5007 80.6826 52.5036 82.6656C52.5062 84.3815 53.7973 85.3228 55.4564 85.3203ZM55.8237 83.9561C54.8635 83.9575 54.1697 83.5268 54.1684 82.6858C54.1671 81.7768 54.9734 81.4517 55.9562 81.3196C56.5072 81.2449 57.8138 81.0952 58.0577 80.8505L58.0594 81.9755C58.061 83.0096 57.2385 83.954 55.8237 83.9561ZM57.5638 73.4422C57.5646 74.016 57.2472 74.5222 56.4518 74.5234C55.6449 74.5246 55.343 74.0136 55.3422 73.4455L53.9502 73.4475C53.9521 74.7259 54.9249 75.6052 56.4534 75.6029C57.9931 75.6006 58.9634 74.7185 58.9615 73.4401L57.5638 73.4422ZM63.7169 79.933C63.7148 78.541 64.5659 77.7443 65.7477 77.7425C66.9011 77.7408 67.6011 78.4954 67.603 79.7625L67.611 85.1091L69.3098 85.1065L69.3016 79.5554C69.2984 77.3963 68.1092 76.2674 66.3251 76.27C65.0126 76.272 64.1555 76.8812 63.7535 77.808L63.6456 77.8081L63.6435 76.3877L62.0128 76.3901L62.0257 85.1174L63.7246 85.1148L63.7169 79.933ZM75.2525 88.5522C77.474 88.5489 79.1884 87.5294 79.1851 85.285L79.1718 76.3646L77.5071 76.3671L77.5092 77.7818L77.3842 77.782C77.0822 77.2427 76.4785 76.255 74.8535 76.2574C72.7455 76.2605 71.1969 77.9276 71.201 80.706C71.2052 83.4901 72.7926 84.9707 74.8551 84.9676C76.4573 84.9652 77.0753 84.0609 77.3813 83.5036L77.4893 83.5035L77.4918 85.2194C77.4939 86.5887 76.5572 87.181 75.2675 87.1829C73.8527 87.185 73.3005 86.4756 72.9986 85.976L71.5393 86.5805C72.0011 87.648 73.1672 88.5553 75.2525 88.5522ZM75.228 83.558C73.7109 83.5602 72.9194 82.3966 72.9169 80.6807C72.9144 79.0046 73.6852 77.7023 75.2193 77.7C76.7022 77.6978 77.4995 78.9069 77.5021 80.6739C77.5048 82.475 76.6939 83.5558 75.228 83.558ZM85.6976 85.0822L87.3965 85.0796L87.3918 81.9831L88.2372 81.1352L91.2089 85.074L93.2942 85.0709L89.514 80.0935L93.0426 76.344L91.0085 76.347L87.5367 80.0453L87.389 80.0456L87.3792 73.4433L85.6803 73.4458L85.6976 85.0822ZM95.7294 88.34C97.1328 88.3379 98.0181 87.6036 98.5217 86.2279L102.115 76.3475L100.28 76.3332L98.0796 83.1092L97.9887 83.1094L95.7684 76.3399L93.9502 76.3426L97.1566 85.1788L96.9472 85.7586C96.5171 86.9184 95.9093 87.0159 94.9771 86.7616L94.5701 88.1542C94.7747 88.2448 95.2181 88.3408 95.7294 88.34ZM97.3178 75.1728L98.6758 75.1708L100.433 72.5489L98.6435 72.5516L97.3178 75.1728ZM109.654 79.8647C109.652 78.4727 110.503 77.676 111.685 77.6742C112.839 77.6725 113.539 78.4272 113.54 79.6942L113.548 85.0408L115.247 85.0383L115.239 79.4871C115.236 77.328 114.047 76.1991 112.263 76.2018C110.95 76.2037 110.093 76.813 109.691 77.7397L109.583 77.7398L109.581 76.3194L107.95 76.3218L107.963 85.0491L109.662 85.0466L109.654 79.8647ZM119.217 79.8505C119.215 78.4585 120.094 77.6617 121.304 77.6599C122.475 77.6582 123.175 78.4015 123.177 79.6799L123.185 85.0265L124.884 85.0239L124.875 79.4728C124.872 77.2967 123.677 76.1848 121.882 76.1875C120.524 76.1895 119.707 76.7816 119.299 77.7254L119.191 77.7256L119.185 73.396L117.508 73.3985L117.526 85.0349L119.225 85.0323L119.217 79.8505ZM129.691 85.21C131.134 85.2078 131.945 84.4737 132.268 83.8198L132.336 83.8197L132.338 85.0129L133.997 85.0104L133.989 79.2149C133.985 76.6752 131.984 76.1725 130.598 76.1745C129.018 76.1769 127.565 76.8154 126.999 78.4071L128.596 78.7684C128.845 78.1487 129.48 77.5512 130.623 77.5495C131.719 77.5479 132.282 78.1209 132.284 79.1095L132.284 79.1493C132.285 79.7686 131.649 79.7582 130.081 79.9423C128.428 80.138 126.735 80.5723 126.738 82.5553C126.74 84.2712 128.032 85.2124 129.691 85.21ZM130.058 83.8458C129.098 83.8472 128.404 83.4164 128.403 82.5755C128.401 81.6664 129.208 81.3414 130.19 81.2092C130.741 81.1345 132.048 80.9849 132.292 80.7402L132.294 81.8652C132.295 82.8993 131.473 83.8437 130.058 83.8458ZM129.517 75.2443L130.685 73.7198L131.852 75.2408L133.392 75.2386L133.392 75.1533L131.388 72.7472L129.973 72.7493L127.983 75.1614L127.983 75.2466L129.517 75.2443ZM130.627 88.0268C131.212 88.0259 131.7 87.5706 131.699 87.0138C131.698 86.457 131.209 85.9975 130.624 85.9984C130.033 85.9992 129.551 86.4602 129.551 87.017C129.552 87.5738 130.036 88.0276 130.627 88.0268ZM137.951 79.8227C137.949 78.4306 138.8 77.6339 139.982 77.6322C141.135 77.6305 141.835 78.3851 141.837 79.6521L141.845 84.9987L143.544 84.9962L143.536 79.4451C143.533 77.286 142.343 76.1571 140.559 76.1597C139.247 76.1617 138.39 76.7709 137.988 77.6976L137.88 77.6978L137.878 76.2773L136.247 76.2798L136.26 85.007L137.959 85.0045L137.951 79.8227ZM154.118 76.2532L152.328 76.2559L152.325 74.165L150.626 74.1675L150.629 76.2584L149.351 76.2603L149.353 77.6239L150.631 77.622L150.639 82.7754C150.636 84.3607 151.847 85.1259 153.188 85.0955C153.728 85.089 154.091 84.9862 154.29 84.9121L153.981 83.5091C153.867 83.532 153.657 83.5834 153.384 83.5838C152.833 83.5847 152.339 83.4036 152.337 82.4206L152.33 77.6195L154.12 77.6168L154.118 76.2532ZM164.315 75.8176C164.311 76.8915 164.26 77.437 163.249 77.5578L163.247 76.2396L161.542 76.2422L161.55 81.3501C161.558 82.8331 160.457 83.5392 159.502 83.5407C158.451 83.5422 157.723 82.7819 157.721 81.5944L157.713 76.2479L156.014 76.2504L156.022 81.8015C156.026 83.9663 157.215 85.0895 158.891 85.087C160.203 85.0851 161.094 84.3906 161.496 83.4582L161.587 83.458L161.59 84.9694L163.26 84.9669L163.25 78.5465C165.029 78.4131 165.567 77.4862 165.57 75.8157L164.315 75.8176ZM178.119 76.2175L176.295 76.2202L174.101 82.9394L174.01 82.9396L171.79 76.2269L169.966 76.2297L173.149 84.9522L174.967 84.9495L178.119 76.2175ZM182.003 85.1322C183.446 85.1301 184.258 84.3959 184.581 83.742L184.649 83.7419L184.651 84.9351L186.31 84.9326L186.301 79.1372C186.297 76.5974 184.297 76.0947 182.91 76.0968C181.331 76.0991 179.877 76.7377 179.311 78.3294L180.908 78.6907C181.157 78.071 181.793 77.4734 182.935 77.4717C184.032 77.4701 184.595 78.0431 184.596 79.0318L184.596 79.0715C184.597 79.6909 183.961 79.6804 182.393 79.8646C180.74 80.0602 179.047 80.4946 179.05 82.4775C179.053 84.1934 180.344 85.1347 182.003 85.1322ZM182.37 83.768C181.41 83.7695 180.716 83.3387 180.715 82.4978C180.714 81.5887 181.52 81.2636 182.503 81.1315C183.054 81.0568 184.361 80.9071 184.604 80.6624L184.606 81.7874C184.608 82.8215 183.785 83.7659 182.37 83.768ZM180.057 75.1692L181.738 75.1667L183.009 74.0398L184.272 75.1629L185.943 75.1605L183.627 73.1923L182.36 73.1942L180.057 75.1692ZM185.333 73.9L186.577 73.8981L188.25 71.8218L186.517 71.8244L185.333 73.9ZM190.264 79.7449C190.262 78.3529 191.113 77.5562 192.294 77.5544C193.448 77.5527 194.148 78.3074 194.15 79.5744L194.158 84.921L195.857 84.9185L195.848 79.3673C195.845 77.2082 194.656 76.0793 192.872 76.082C191.559 76.0839 190.702 76.6932 190.3 77.6199L190.192 77.62L190.19 76.1996L188.56 76.202L188.572 84.9293L190.271 84.9268L190.264 79.7449ZM204.06 79.7244C204.058 78.3324 204.938 77.5356 206.148 77.5338C207.319 77.5321 208.019 78.2754 208.02 79.5538L208.028 84.9004L209.727 84.8978L209.719 79.3467C209.716 77.1706 208.521 76.0587 206.726 76.0614C205.368 76.0634 204.55 76.6555 204.143 77.5993L204.035 77.5995L204.028 73.2699L202.352 73.2724L202.369 84.9088L204.068 84.9063L204.06 79.7244ZM215.671 85.0651C218.131 85.0615 219.736 83.258 219.732 80.5591C219.728 77.8432 218.118 76.0445 215.657 76.0481C213.197 76.0518 211.592 77.8553 211.596 80.5712C211.6 83.2701 213.21 85.0688 215.671 85.0651ZM215.674 83.639C214.066 83.6414 213.314 82.2391 213.312 80.563C213.309 78.8925 214.057 77.4709 215.665 77.4686C217.262 77.4662 218.014 78.8855 218.016 80.556C218.019 82.2321 217.271 83.6366 215.674 83.639ZM214.485 75.118L215.654 73.5936L216.821 75.1146L218.36 75.1123L218.36 75.027L216.357 72.6209L214.942 72.623L212.951 75.0351L212.951 75.1203L214.485 75.118ZM221.635 84.8801L223.334 84.8776L223.326 79.4969C223.324 78.3208 224.147 77.5014 225.113 77.5C226.056 77.4986 226.71 78.1226 226.712 79.0715L226.72 84.8726L228.413 84.8701L228.405 79.3076C228.404 78.2564 229.044 77.4941 230.152 77.4925C231.05 77.4911 231.789 77.99 231.791 79.1719L231.8 84.865L233.499 84.8625L233.49 79.0102C233.487 77.0159 232.372 76.0233 230.792 76.0256C229.537 76.0275 228.594 76.6312 228.175 77.5636L228.084 77.5637C227.702 76.6098 226.9 76.0314 225.735 76.0331C224.582 76.0348 223.725 76.61 223.363 77.5708L223.255 77.5709L223.253 76.1505L221.622 76.1529L221.635 84.8801ZM241.701 79.6685C241.699 78.2765 242.55 77.4797 243.732 77.478C244.885 77.4763 245.585 78.2309 245.587 79.498L245.595 84.8445L247.294 84.842L247.286 79.2909C247.283 77.1318 246.093 76.0029 244.309 76.0055C242.997 76.0075 242.14 76.6167 241.738 77.5434L241.63 77.5436L241.628 76.1231L239.997 76.1256L240.01 84.8528L241.709 84.8503L241.701 79.6685ZM252.112 85.028C253.556 85.0259 254.367 84.2917 254.69 83.6378L254.758 83.6377L254.76 84.8309L256.419 84.8284L256.41 79.033C256.407 76.4932 254.406 75.9905 253.019 75.9926C251.44 75.9949 249.986 76.6335 249.421 78.2252L251.018 78.5865C251.267 77.9668 251.902 77.3692 253.044 77.3675C254.141 77.3659 254.704 77.9389 254.706 78.9276L254.706 78.9674C254.707 79.5867 254.07 79.5763 252.502 79.7604C250.849 79.956 249.157 80.3904 249.16 82.3733C249.162 84.0892 250.453 85.0305 252.112 85.028ZM252.48 83.6638C251.52 83.6653 250.826 83.2345 250.824 82.3936C250.823 81.4845 251.629 81.1594 252.612 81.0273C253.163 80.9526 254.47 80.8029 254.714 80.5583L254.715 81.6832C254.717 82.7173 253.895 83.6617 252.48 83.6638ZM259.448 88.0967C260.851 88.0946 261.737 87.3603 262.24 85.9846L265.834 76.1042L263.998 76.0899L261.798 82.8659L261.707 82.866L259.487 76.0966L257.669 76.0993L260.875 84.9355L260.666 85.5153C260.236 86.6751 259.628 86.7725 258.696 86.5182L258.289 87.9109C258.493 88.0015 258.937 88.0974 259.448 88.0967Z" fill="#4F565F"/>
<path d="M287.485 58C285.591 64.1258 285.139 65.2106 284.043 71.5395C283.793 72.9847 283.151 74.3972 283.151 75.8369" stroke="white" stroke-width="5" stroke-linecap="round"/>
<path d="M296.152 58C294.258 64.1258 293.806 65.2106 292.71 71.5395C292.46 72.9847 291.818 74.3972 291.818 75.8369" stroke="white" stroke-width="5" stroke-linecap="round"/>
<path d="M281.106 81.7009C281.106 82.4243 280.394 83.2121 280 84" stroke="white" stroke-width="4" stroke-linecap="round"/>
<path d="M289.773 81.7009C289.773 82.4243 289.061 83.2121 288.667 84" stroke="white" stroke-width="4" stroke-linecap="round"/>
<defs>
<linearGradient id="paint0_linear" x1="61.3975" y1="35.3192" x2="109.825" y2="110.437" gradientUnits="userSpaceOnUse">
<stop stop-color="#FF5E2C"/>
<stop offset="1" stop-color="#FF6E18"/>
</linearGradient>
</defs>
</svg>
