<svg width="368" height="161" viewBox="0 0 368 161" fill="none" xmlns="http://www.w3.org/2000/svg">
<path d="M221.676 108.182H222.494L222.75 106.307L224.182 107.312L224.71 106.597L223.176 105.727L224.966 104.858L224.659 104.142L222.938 105.148L223.312 103.273H222.494L222.256 105.148L220.824 104.142L220.295 104.858L221.83 105.727L220.04 106.597L220.33 107.312L222.068 106.307L221.676 108.182ZM226.33 104.21H229.074L227.778 112H228.835L230.131 104.21H232.875L233.028 103.273H226.483L226.33 104.21ZM232.395 112H233.4L234.082 107.858C234.235 106.972 235.037 106.324 235.991 106.324C236.264 106.324 236.537 106.375 236.605 106.392L236.775 105.369C236.656 105.352 236.4 105.352 236.247 105.352C235.463 105.352 234.696 105.795 234.355 106.443H234.287L234.457 105.455H233.485L232.395 112ZM239.394 112.136C241.132 112.136 242.513 110.824 242.837 108.83C243.174 106.75 242.189 105.369 240.382 105.369C238.644 105.369 237.263 106.682 236.939 108.693C236.607 110.756 237.587 112.136 239.394 112.136ZM239.411 111.233C238.098 111.233 237.706 110.108 237.911 108.83C238.128 107.483 238.985 106.273 240.365 106.273C241.678 106.273 242.07 107.415 241.865 108.693C241.648 110.044 240.792 111.233 239.411 111.233ZM245.497 108.062C245.702 106.92 246.503 106.273 247.474 106.273C248.412 106.273 248.872 106.886 248.702 107.909L248.02 112H249.026L249.724 107.841C249.997 106.17 249.23 105.369 247.918 105.369C246.929 105.369 246.23 105.812 245.821 106.477H245.736L245.906 105.455H244.935L243.844 112H244.849L245.497 108.062ZM253.096 114.591C254.656 114.591 256.037 113.875 256.318 112.188L257.426 105.455H256.454L256.284 106.494H256.181C256.02 106.153 255.738 105.369 254.46 105.369C252.806 105.369 251.447 106.682 251.119 108.693C250.778 110.739 251.779 111.898 253.369 111.898C254.643 111.898 255.176 111.148 255.449 110.79H255.534L255.329 112.119C255.142 113.21 254.264 113.705 253.216 113.705C252.014 113.705 251.733 113.078 251.528 112.716L250.625 113.278C250.927 113.964 251.626 114.591 253.096 114.591ZM253.625 110.994C252.355 110.994 251.899 110.04 252.125 108.676C252.346 107.347 253.105 106.273 254.392 106.273C255.61 106.273 256.143 107.261 255.909 108.676C255.67 110.125 254.826 110.994 253.625 110.994ZM264.022 112.136C265.279 112.136 265.838 111.352 266.119 110.994H266.238L266.068 112H267.039L268.22 104.892H269.153L269.289 104.108H268.348L268.488 103.273H267.483L267.342 104.108H265.539L265.403 104.892H267.214L266.946 106.494H266.86C266.699 106.153 266.434 105.369 265.156 105.369C263.502 105.369 262.143 106.682 261.798 108.744C261.457 110.824 262.382 112.136 264.022 112.136ZM264.27 111.233C263.008 111.233 262.578 110.125 262.812 108.727C263.038 107.347 263.814 106.273 265.088 106.273C266.319 106.273 266.839 107.261 266.596 108.727C266.349 110.21 265.48 111.233 264.27 111.233ZM271.726 112.136C273.464 112.136 274.845 110.824 275.169 108.83C275.506 106.75 274.521 105.369 272.714 105.369C270.976 105.369 269.595 106.682 269.271 108.693C268.939 110.756 269.919 112.136 271.726 112.136ZM271.743 111.233C270.43 111.233 270.038 110.108 270.243 108.83C270.46 107.483 271.317 106.273 272.697 106.273C274.01 106.273 274.402 107.415 274.197 108.693C273.98 110.044 273.124 111.233 271.743 111.233ZM272.459 104.568H273.345L274.999 102.591H273.822L272.459 104.568ZM277.88 110.807H276.789L276.653 111.284C276.346 112.443 275.903 113.585 275.716 114.131H276.483C276.772 113.551 277.42 112.239 277.727 111.267L277.88 110.807ZM284.823 112.153C285.965 112.153 286.664 111.54 286.937 111.114H286.988L286.835 112H287.84L288.556 107.688C288.897 105.608 287.363 105.369 286.528 105.369C285.539 105.369 284.346 105.71 283.647 106.903L284.533 107.244C284.84 106.767 285.488 106.256 286.442 106.256C287.363 106.256 287.704 106.75 287.567 107.585V107.619C287.482 108.097 286.988 108.062 285.778 108.216C284.533 108.369 283.17 108.642 282.914 110.142C282.71 111.42 283.579 112.153 284.823 112.153ZM285.113 111.25C284.312 111.25 283.8 110.892 283.92 110.193C284.039 109.426 284.789 109.188 285.59 109.085C286.016 109.034 287.175 108.915 287.38 108.71L287.227 109.631C287.09 110.449 286.306 111.25 285.113 111.25ZM290.869 105.369C290.699 106.324 291.176 107.125 292.284 107.125C293.375 107.125 294.091 106.324 294.261 105.369L294.329 104.909C294.483 103.955 294.039 103.153 292.931 103.153C291.841 103.153 291.091 103.955 290.937 104.909L290.869 105.369ZM294.38 110.364C294.227 111.318 294.687 112.119 295.795 112.119C296.886 112.119 297.619 111.318 297.772 110.364L297.858 109.903C298.011 108.949 297.568 108.148 296.46 108.148C295.369 108.148 294.619 108.949 294.466 109.903L294.38 110.364ZM289.974 112H290.997L298.446 103.273H297.423L289.974 112ZM291.806 104.909C291.892 104.381 292.216 103.886 292.812 103.886C293.426 103.886 293.545 104.381 293.46 104.909L293.392 105.369C293.289 105.898 293 106.392 292.403 106.392C291.789 106.392 291.636 105.898 291.738 105.369L291.806 104.909ZM295.335 109.903C295.42 109.375 295.744 108.881 296.341 108.881C296.954 108.881 297.074 109.375 296.988 109.903L296.903 110.364C296.818 110.892 296.511 111.386 295.914 111.386C295.301 111.386 295.164 110.892 295.25 110.364L295.335 109.903ZM305.255 103.273H304.25L302.801 112H303.806L305.255 103.273ZM307.558 112.153C308.7 112.153 309.398 111.54 309.671 111.114H309.722L309.569 112H310.575L311.29 107.688C311.631 105.608 310.097 105.369 309.262 105.369C308.273 105.369 307.08 105.71 306.381 106.903L307.268 107.244C307.575 106.767 308.222 106.256 309.177 106.256C310.097 106.256 310.438 106.75 310.302 107.585V107.619C310.217 108.097 309.722 108.062 308.512 108.216C307.268 108.369 305.904 108.642 305.648 110.142C305.444 111.42 306.313 112.153 307.558 112.153ZM307.847 111.25C307.046 111.25 306.535 110.892 306.654 110.193C306.773 109.426 307.523 109.188 308.325 109.085C308.751 109.034 309.91 108.915 310.114 108.71L309.961 109.631C309.825 110.449 309.04 111.25 307.847 111.25ZM309.023 104.568H309.91L309.211 102.591H308.035L309.023 104.568ZM321.274 106.92C321.103 105.983 320.507 105.369 319.211 105.369C317.831 105.369 316.672 106.153 316.484 107.261C316.331 108.165 316.774 108.761 317.933 109.051L318.973 109.307C319.62 109.46 319.876 109.767 319.791 110.227C319.706 110.79 319.024 111.25 318.086 111.25C317.268 111.25 316.808 110.892 316.757 110.193L315.751 110.432C315.802 111.54 316.62 112.136 317.967 112.136C319.484 112.136 320.66 111.301 320.848 110.176C321.001 109.256 320.524 108.693 319.399 108.403L318.461 108.165C317.728 107.977 317.422 107.705 317.507 107.21C317.592 106.648 318.257 106.239 319.058 106.239C319.944 106.239 320.217 106.716 320.319 107.176L321.274 106.92ZM324.765 112.136C326.504 112.136 327.884 110.824 328.208 108.83C328.545 106.75 327.56 105.369 325.754 105.369C324.015 105.369 322.634 106.682 322.31 108.693C321.978 110.756 322.958 112.136 324.765 112.136ZM324.782 111.233C323.469 111.233 323.077 110.108 323.282 108.83C323.499 107.483 324.356 106.273 325.737 106.273C327.049 106.273 327.441 107.415 327.237 108.693C327.019 110.044 326.163 111.233 324.782 111.233ZM323.759 104.636H325.004L326.112 103.733L326.947 104.636H328.174L326.691 103.085H325.754L323.759 104.636ZM327.884 103.597H328.771L330.219 102.062H328.975L327.884 103.597ZM332.181 114.455H333.186L333.766 110.994H333.851C334.022 111.352 334.311 112.136 335.573 112.136C337.209 112.136 338.573 110.824 338.914 108.744C339.255 106.682 338.334 105.369 336.681 105.369C335.402 105.369 334.874 106.153 334.601 106.494H334.482L334.652 105.455H333.681L332.181 114.455ZM334.124 108.727C334.363 107.261 335.181 106.273 336.408 106.273C337.686 106.273 338.13 107.347 337.908 108.727C337.669 110.125 336.851 111.233 335.59 111.233C334.38 111.233 333.885 110.21 334.124 108.727ZM341.556 108.062C341.76 106.92 342.596 106.273 343.584 106.273C344.522 106.273 344.999 106.869 344.828 107.909L344.147 112H345.152L345.851 107.841C346.124 106.153 345.357 105.369 344.027 105.369C342.988 105.369 342.323 105.795 341.914 106.477H341.828L342.357 103.273H341.351L339.902 112H340.908L341.556 108.062ZM348.901 112.153C350.043 112.153 350.742 111.54 351.015 111.114H351.066L350.913 112H351.918L352.634 107.688C352.975 105.608 351.441 105.369 350.606 105.369C349.617 105.369 348.424 105.71 347.725 106.903L348.612 107.244C348.918 106.767 349.566 106.256 350.521 106.256C351.441 106.256 351.782 106.75 351.646 107.585V107.619C351.56 108.097 351.066 108.062 349.856 108.216C348.612 108.369 347.248 108.642 346.992 110.142C346.788 111.42 347.657 112.153 348.901 112.153ZM349.191 111.25C348.39 111.25 347.879 110.892 347.998 110.193C348.117 109.426 348.867 109.188 349.668 109.085C350.094 109.034 351.254 108.915 351.458 108.71L351.305 109.631C351.168 110.449 350.384 111.25 349.191 111.25ZM351.492 103.102H350.555L348.577 104.653H349.805L350.93 103.75L351.748 104.653H352.975L351.492 103.102ZM348.646 102.062H347.384L348.339 103.614H349.208L348.646 102.062ZM355.407 108.062C355.612 106.92 356.413 106.273 357.385 106.273C358.322 106.273 358.782 106.886 358.612 107.909L357.93 112H358.936L359.635 107.841C359.907 106.17 359.14 105.369 357.828 105.369C356.839 105.369 356.14 105.812 355.731 106.477H355.646L355.816 105.455H354.845L353.754 112H354.76L355.407 108.062ZM223.312 120.455H221.911L222.17 118.886H221.165L220.905 120.455H219.92L219.784 121.307H220.764L220.091 125.398C219.903 126.54 220.722 127.085 221.574 127.085C221.949 127.085 222.205 127.017 222.358 126.966L222.29 126.062C222.205 126.08 222.068 126.114 221.847 126.114C221.403 126.114 220.994 125.977 221.131 125.125L221.766 121.307H223.176L223.312 120.455ZM223.734 127H224.74L225.422 122.858C225.575 121.972 226.376 121.324 227.331 121.324C227.604 121.324 227.876 121.375 227.945 121.392L228.115 120.369C227.996 120.352 227.74 120.352 227.587 120.352C226.803 120.352 226.036 120.795 225.695 121.443H225.626L225.797 120.455H224.825L223.734 127ZM230.132 127.153C231.274 127.153 231.973 126.54 232.245 126.114H232.297L232.143 127H233.149L233.865 122.688C234.206 120.608 232.672 120.369 231.836 120.369C230.848 120.369 229.654 120.71 228.956 121.903L229.842 122.244C230.149 121.767 230.797 121.256 231.751 121.256C232.672 121.256 233.012 121.75 232.876 122.585V122.619C232.791 123.097 232.297 123.062 231.086 123.216C229.842 123.369 228.478 123.642 228.223 125.142C228.018 126.42 228.887 127.153 230.132 127.153ZM230.422 126.25C229.62 126.25 229.109 125.892 229.228 125.193C229.348 124.426 230.098 124.188 230.899 124.085C231.325 124.034 232.484 123.915 232.689 123.71L232.535 124.631C232.399 125.449 231.615 126.25 230.422 126.25ZM233.072 118.273C232.995 118.716 232.697 119.108 232.1 119.108C231.504 119.108 231.342 118.716 231.419 118.273H230.481C230.328 119.193 230.899 119.841 231.973 119.841C233.064 119.841 233.856 119.193 234.01 118.273H233.072ZM234.984 127H235.99L236.672 122.909C236.825 121.955 237.643 121.273 238.428 121.273C239.195 121.273 239.638 121.767 239.518 122.517L238.768 127H239.791L240.507 122.739C240.643 121.886 241.274 121.273 242.195 121.273C242.911 121.273 243.456 121.648 243.303 122.619L242.57 127H243.575L244.308 122.619C244.564 121.085 243.848 120.369 242.689 120.369C241.751 120.369 240.984 120.795 240.541 121.477H240.473C240.268 120.778 239.757 120.369 238.905 120.369C238.053 120.369 237.354 120.778 236.962 121.477H236.876L237.047 120.455H236.075L234.984 127ZM251.244 118.273H250.238L248.789 127H249.795L251.244 118.273ZM253.546 127.153C254.688 127.153 255.387 126.54 255.659 126.114H255.711L255.557 127H256.563L257.279 122.688C257.62 120.608 256.086 120.369 255.25 120.369C254.262 120.369 253.069 120.71 252.37 121.903L253.256 122.244C253.563 121.767 254.211 121.256 255.165 121.256C256.086 121.256 256.426 121.75 256.29 122.585V122.619C256.205 123.097 255.711 123.062 254.5 123.216C253.256 123.369 251.892 123.642 251.637 125.142C251.432 126.42 252.301 127.153 253.546 127.153ZM253.836 126.25C253.034 126.25 252.523 125.892 252.642 125.193C252.762 124.426 253.512 124.188 254.313 124.085C254.739 124.034 255.898 123.915 256.103 123.71L255.949 124.631C255.813 125.449 255.029 126.25 253.836 126.25ZM254.108 119.67C254.176 119.312 254.466 119.023 254.79 119.023C255.438 119.023 255.455 119.568 256.239 119.568C256.972 119.568 257.637 119.006 257.773 118.119L257.023 118.051C256.972 118.409 256.665 118.699 256.341 118.699C255.728 118.699 255.523 118.153 254.875 118.153C254.142 118.153 253.478 118.767 253.341 119.636L254.108 119.67ZM258.398 127H259.404L260.495 120.455H259.489L258.398 127ZM260.299 119.347C260.691 119.347 261.015 119.04 261.015 118.665C261.015 118.29 260.691 117.983 260.299 117.983C259.907 117.983 259.583 118.29 259.583 118.665C259.583 119.04 259.907 119.347 260.299 119.347ZM264.757 127H265.729L265.9 125.994H266.019C266.189 126.352 266.479 127.136 267.74 127.136C269.377 127.136 270.74 125.824 271.081 123.744C271.422 121.682 270.502 120.369 268.848 120.369C267.57 120.369 267.042 121.153 266.769 121.494H266.684L267.212 118.273H266.206L264.757 127ZM266.292 123.727C266.53 122.261 267.348 121.273 268.576 121.273C269.854 121.273 270.297 122.347 270.076 123.727C269.837 125.125 269.019 126.233 267.757 126.233C266.547 126.233 266.053 125.21 266.292 123.727ZM273.983 127.153C275.125 127.153 275.824 126.54 276.097 126.114H276.148L275.995 127H277L277.716 122.688C278.057 120.608 276.523 120.369 275.688 120.369C274.699 120.369 273.506 120.71 272.807 121.903L273.694 122.244C274 121.767 274.648 121.256 275.603 121.256C276.523 121.256 276.864 121.75 276.728 122.585V122.619C276.642 123.097 276.148 123.062 274.938 123.216C273.694 123.369 272.33 123.642 272.074 125.142C271.87 126.42 272.739 127.153 273.983 127.153ZM274.273 126.25C273.472 126.25 272.961 125.892 273.08 125.193C273.199 124.426 273.949 124.188 274.75 124.085C275.176 124.034 276.336 123.915 276.54 123.71L276.387 124.631C276.25 125.449 275.466 126.25 274.273 126.25ZM274.358 129.148C274.75 129.148 275.074 128.841 275.074 128.466C275.074 128.091 274.75 127.784 274.358 127.784C273.966 127.784 273.642 128.091 273.642 128.466C273.642 128.841 273.966 129.148 274.358 129.148ZM280.489 123.062C280.694 121.92 281.495 121.273 282.467 121.273C283.404 121.273 283.864 121.886 283.694 122.909L283.012 127H284.018L284.717 122.841C284.989 121.17 284.222 120.369 282.91 120.369C281.921 120.369 281.222 120.812 280.813 121.477H280.728L280.898 120.455H279.927L278.836 127H279.842L280.489 123.062ZM291.702 127.136C292.959 127.136 293.517 126.352 293.799 125.994H293.918L293.748 127H294.719L295.9 119.892H296.833L296.969 119.108H296.027L296.168 118.273H295.162L295.022 119.108H293.219L293.083 119.892H294.894L294.625 121.494H294.54C294.378 121.153 294.114 120.369 292.836 120.369C291.182 120.369 289.823 121.682 289.478 123.744C289.137 125.824 290.061 127.136 291.702 127.136ZM291.949 126.233C290.688 126.233 290.257 125.125 290.492 123.727C290.718 122.347 291.493 121.273 292.767 121.273C293.999 121.273 294.519 122.261 294.276 123.727C294.029 125.21 293.159 126.233 291.949 126.233ZM298.604 127.153C299.746 127.153 300.445 126.54 300.718 126.114H300.769L300.616 127H301.621L302.337 122.688C302.678 120.608 301.144 120.369 300.309 120.369C299.32 120.369 298.127 120.71 297.428 121.903L298.315 122.244C298.621 121.767 299.269 121.256 300.224 121.256C301.144 121.256 301.485 121.75 301.349 122.585V122.619C301.263 123.097 300.769 123.062 299.559 123.216C298.315 123.369 296.951 123.642 296.695 125.142C296.491 126.42 297.36 127.153 298.604 127.153ZM298.894 126.25C298.093 126.25 297.582 125.892 297.701 125.193C297.82 124.426 298.57 124.188 299.371 124.085C299.798 124.034 300.957 123.915 301.161 123.71L301.008 124.631C300.871 125.449 300.087 126.25 298.894 126.25ZM305.11 123.062C305.315 121.92 306.116 121.273 307.088 121.273C308.025 121.273 308.485 121.886 308.315 122.909L307.633 127H308.639L309.338 122.841C309.61 121.17 308.843 120.369 307.531 120.369C306.542 120.369 305.843 120.812 305.434 121.477H305.349L305.52 120.455H304.548L303.457 127H304.463L305.11 123.062ZM312.71 129.591C314.269 129.591 315.65 128.875 315.931 127.188L317.039 120.455H316.067L315.897 121.494H315.795C315.633 121.153 315.352 120.369 314.073 120.369C312.42 120.369 311.06 121.682 310.732 123.693C310.391 125.739 311.393 126.898 312.982 126.898C314.256 126.898 314.789 126.148 315.062 125.79H315.147L314.942 127.119C314.755 128.21 313.877 128.705 312.829 128.705C311.627 128.705 311.346 128.078 311.141 127.716L310.238 128.278C310.54 128.964 311.239 129.591 312.71 129.591ZM313.238 125.994C311.968 125.994 311.512 125.04 311.738 123.676C311.96 122.347 312.718 121.273 314.005 121.273C315.224 121.273 315.756 122.261 315.522 123.676C315.283 125.125 314.44 125.994 313.238 125.994ZM320.755 129.455H321.761L322.34 125.994H322.425C322.596 126.352 322.886 127.136 324.147 127.136C325.783 127.136 327.147 125.824 327.488 123.744C327.829 121.682 326.908 120.369 325.255 120.369C323.977 120.369 323.448 121.153 323.175 121.494H323.056L323.227 120.455H322.255L320.755 129.455ZM322.698 123.727C322.937 122.261 323.755 121.273 324.982 121.273C326.261 121.273 326.704 122.347 326.482 123.727C326.244 125.125 325.425 126.233 324.164 126.233C322.954 126.233 322.46 125.21 322.698 123.727ZM330.13 123.062C330.335 121.92 331.17 121.273 332.158 121.273C333.096 121.273 333.573 121.869 333.403 122.909L332.721 127H333.727L334.425 122.841C334.698 121.153 333.931 120.369 332.602 120.369C331.562 120.369 330.897 120.795 330.488 121.477H330.403L330.931 118.273H329.925L328.477 127H329.482L330.13 123.062ZM337.475 127.153C338.618 127.153 339.316 126.54 339.589 126.114H339.64L339.487 127H340.493L341.208 122.688C341.549 120.608 340.015 120.369 339.18 120.369C338.191 120.369 336.998 120.71 336.299 121.903L337.186 122.244C337.493 121.767 338.14 121.256 339.095 121.256C340.015 121.256 340.356 121.75 340.22 122.585V122.619C340.135 123.097 339.64 123.062 338.43 123.216C337.186 123.369 335.822 123.642 335.566 125.142C335.362 126.42 336.231 127.153 337.475 127.153ZM337.765 126.25C336.964 126.25 336.453 125.892 336.572 125.193C336.691 124.426 337.441 124.188 338.243 124.085C338.669 124.034 339.828 123.915 340.032 123.71L339.879 124.631C339.743 125.449 338.958 126.25 337.765 126.25ZM339.811 119.568L339.879 119.142C340.339 119.074 340.816 118.835 340.919 118.256C341.021 117.574 340.493 117.131 339.316 117.131L339.163 117.778C339.674 117.778 340.066 117.915 340.015 118.222C339.964 118.494 339.725 118.614 339.129 118.648L338.975 119.568H339.811ZM342.328 127H343.334L344.425 120.455H343.419L342.328 127ZM344.229 119.347C344.621 119.347 344.945 119.04 344.945 118.665C344.945 118.29 344.621 117.983 344.229 117.983C343.837 117.983 343.513 118.29 343.513 118.665C343.513 119.04 343.837 119.347 344.229 119.347ZM223.312 135.455H221.911L222.17 133.886H221.165L220.905 135.455H219.92L219.784 136.307H220.764L220.091 140.398C219.903 141.54 220.722 142.085 221.574 142.085C221.949 142.085 222.205 142.017 222.358 141.966L222.29 141.062C222.205 141.08 222.068 141.114 221.847 141.114C221.403 141.114 220.994 140.977 221.131 140.125L221.766 136.307H223.176L223.312 135.455ZM223.734 142H224.74L225.422 137.858C225.575 136.972 226.376 136.324 227.331 136.324C227.604 136.324 227.876 136.375 227.945 136.392L228.115 135.369C227.996 135.352 227.74 135.352 227.587 135.352C226.803 135.352 226.036 135.795 225.695 136.443H225.626L225.797 135.455H224.825L223.734 142ZM230.132 142.153C231.274 142.153 231.973 141.54 232.245 141.114H232.297L232.143 142H233.149L233.865 137.688C234.206 135.608 232.672 135.369 231.836 135.369C230.848 135.369 229.654 135.71 228.956 136.903L229.842 137.244C230.149 136.767 230.797 136.256 231.751 136.256C232.672 136.256 233.012 136.75 232.876 137.585V137.619C232.791 138.097 232.297 138.062 231.086 138.216C229.842 138.369 228.478 138.642 228.223 140.142C228.018 141.42 228.887 142.153 230.132 142.153ZM230.422 141.25C229.62 141.25 229.109 140.892 229.228 140.193C229.348 139.426 230.098 139.188 230.899 139.085C231.325 139.034 232.484 138.915 232.689 138.71L232.535 139.631C232.399 140.449 231.615 141.25 230.422 141.25ZM232.467 134.568L232.535 134.142C232.995 134.074 233.473 133.835 233.575 133.256C233.677 132.574 233.149 132.131 231.973 132.131L231.819 132.778C232.331 132.778 232.723 132.915 232.672 133.222C232.62 133.494 232.382 133.614 231.785 133.648L231.632 134.568H232.467ZM240.013 138.062C240.217 136.92 241.018 136.273 241.99 136.273C242.928 136.273 243.388 136.886 243.217 137.909L242.536 142H243.541L244.24 137.841C244.513 136.17 243.746 135.369 242.433 135.369C241.445 135.369 240.746 135.812 240.337 136.477H240.251L240.422 135.455H239.45L238.359 142H239.365L240.013 138.062ZM247.612 144.591C249.172 144.591 250.552 143.875 250.833 142.188L251.941 135.455H250.97L250.799 136.494H250.697C250.535 136.153 250.254 135.369 248.975 135.369C247.322 135.369 245.963 136.682 245.635 138.693C245.294 140.739 246.295 141.898 247.885 141.898C249.159 141.898 249.691 141.148 249.964 140.79H250.049L249.845 142.119C249.657 143.21 248.779 143.705 247.731 143.705C246.529 143.705 246.248 143.078 246.044 142.716L245.14 143.278C245.443 143.964 246.142 144.591 247.612 144.591ZM248.14 140.994C246.87 140.994 246.414 140.04 246.64 138.676C246.862 137.347 247.62 136.273 248.907 136.273C250.126 136.273 250.659 137.261 250.424 138.676C250.186 140.125 249.342 140.994 248.14 140.994ZM254.6 142.153C255.743 142.153 256.441 141.54 256.714 141.114H256.765L256.612 142H257.618L258.333 137.688C258.674 135.608 257.14 135.369 256.305 135.369C255.316 135.369 254.123 135.71 253.424 136.903L254.311 137.244C254.618 136.767 255.265 136.256 256.22 136.256C257.14 136.256 257.481 136.75 257.345 137.585V137.619C257.26 138.097 256.765 138.062 255.555 138.216C254.311 138.369 252.947 138.642 252.691 140.142C252.487 141.42 253.356 142.153 254.6 142.153ZM254.89 141.25C254.089 141.25 253.578 140.892 253.697 140.193C253.816 139.426 254.566 139.188 255.368 139.085C255.794 139.034 256.953 138.915 257.157 138.71L257.004 139.631C256.868 140.449 256.083 141.25 254.89 141.25ZM255.585 134.67L256.672 133.477L257.358 134.67H258.312L258.329 134.602L257.247 132.83H256.326L254.647 134.602L254.63 134.67H255.585ZM261.107 138.062C261.311 136.92 262.112 136.273 263.084 136.273C264.021 136.273 264.482 136.886 264.311 137.909L263.629 142H264.635L265.334 137.841C265.607 136.17 264.839 135.369 263.527 135.369C262.538 135.369 261.839 135.812 261.43 136.477H261.345L261.516 135.455H260.544L259.453 142H260.459L261.107 138.062ZM271.501 138.062C271.706 136.92 272.541 136.273 273.529 136.273C274.467 136.273 274.944 136.869 274.774 137.909L274.092 142H275.098L275.797 137.841C276.069 136.153 275.302 135.369 273.973 135.369C272.933 135.369 272.268 135.795 271.859 136.477H271.774L272.302 133.273H271.297L269.848 142H270.853L271.501 138.062ZM278.847 142.153C279.989 142.153 280.688 141.54 280.96 141.114H281.011L280.858 142H281.864L282.58 137.688C282.92 135.608 281.386 135.369 280.551 135.369C279.562 135.369 278.369 135.71 277.67 136.903L278.557 137.244C278.864 136.767 279.511 136.256 280.466 136.256C281.386 136.256 281.727 136.75 281.591 137.585V137.619C281.506 138.097 281.011 138.062 279.801 138.216C278.557 138.369 277.193 138.642 276.938 140.142C276.733 141.42 277.602 142.153 278.847 142.153ZM279.136 141.25C278.335 141.25 277.824 140.892 277.943 140.193C278.062 139.426 278.812 139.188 279.614 139.085C280.04 139.034 281.199 138.915 281.403 138.71L281.25 139.631C281.114 140.449 280.33 141.25 279.136 141.25ZM280.312 134.568H281.199L280.5 132.591H279.324L280.312 134.568ZM285.353 138.062C285.557 136.92 286.358 136.273 287.33 136.273C288.267 136.273 288.728 136.886 288.557 137.909L287.875 142H288.881L289.58 137.841C289.853 136.17 289.086 135.369 287.773 135.369C286.784 135.369 286.086 135.812 285.676 136.477H285.591L285.762 135.455H284.79L283.699 142H284.705L285.353 138.062ZM292.952 144.591C294.511 144.591 295.892 143.875 296.173 142.188L297.281 135.455H296.31L296.139 136.494H296.037C295.875 136.153 295.594 135.369 294.315 135.369C292.662 135.369 291.303 136.682 290.974 138.693C290.634 140.739 291.635 141.898 293.224 141.898C294.499 141.898 295.031 141.148 295.304 140.79H295.389L295.185 142.119C294.997 143.21 294.119 143.705 293.071 143.705C291.869 143.705 291.588 143.078 291.384 142.716L290.48 143.278C290.783 143.964 291.482 144.591 292.952 144.591ZM293.48 140.994C292.21 140.994 291.754 140.04 291.98 138.676C292.202 137.347 292.96 136.273 294.247 136.273C295.466 136.273 295.999 137.261 295.764 138.676C295.526 140.125 294.682 140.994 293.48 140.994Z" fill="#62686D"/>
<path d="M10.3011 30.674H12.9538C12.9154 28.3409 10.9978 26.7301 8.08303 26.7301C5.213 26.7301 3.11002 28.3153 3.1228 30.6932C3.11641 32.6236 4.47791 33.7294 6.68956 34.2599L8.11499 34.6179C9.54042 34.9631 10.333 35.3722 10.3394 36.2543C10.333 37.2131 9.42536 37.8651 8.01911 37.8651C6.5809 37.8651 5.54539 37.2003 5.4559 35.8899H2.77763C2.84794 38.7216 4.87422 40.1854 8.05107 40.1854C11.2471 40.1854 13.1264 38.6577 13.1327 36.2607C13.1264 34.081 11.4836 32.924 9.20803 32.4126L8.03189 32.1314C6.89411 31.8693 5.94169 31.4474 5.96087 30.5078C5.96087 29.6641 6.70874 29.044 8.06385 29.044C9.38701 29.044 10.1988 29.6449 10.3011 30.674ZM19.5594 40.1918C22.5381 40.1918 24.3918 38.1527 24.3918 35.1293C24.3918 32.0866 22.5381 30.054 19.5594 30.054C16.5807 30.054 14.727 32.0866 14.727 35.1293C14.727 38.1527 16.5807 40.1918 19.5594 40.1918ZM19.5722 38.0824C18.1979 38.0824 17.4947 36.8232 17.4947 35.1101C17.4947 33.397 18.1979 32.1314 19.5722 32.1314C20.9209 32.1314 21.624 33.397 21.624 35.1101C21.624 36.8232 20.9209 38.0824 19.5722 38.0824ZM16.2291 29.108H18.1851L19.553 28.0341L20.9017 29.108H22.8641L20.2753 27.12H18.8051L16.2291 29.108ZM22.1929 27.983H23.7334L25.798 25.5859H23.6886L22.1929 27.983ZM35.9107 30.1818H34.0634V27.8295H31.3404V30.1818H29.998V32.2273H31.3404V37.3409C31.3276 39.2649 32.6379 40.2173 34.6131 40.1342C35.3162 40.1087 35.8148 39.968 36.0896 39.8786L35.6614 37.8523C35.5271 37.8778 35.2395 37.9418 34.9838 37.9418C34.4405 37.9418 34.0634 37.7372 34.0634 36.983V32.2273H35.9107V30.1818ZM37.8645 40H40.5875V30.1818H37.8645V40ZM39.2324 28.9162C40.0442 28.9162 40.7089 28.2962 40.7089 27.5355C40.7089 26.7812 40.0442 26.1612 39.2324 26.1612C38.427 26.1612 37.7622 26.7812 37.7622 27.5355C37.7622 28.2962 38.427 28.9162 39.2324 28.9162ZM47.4232 40.1918C49.8522 40.1918 51.4885 39.0092 51.8721 37.1875L49.3536 37.0213C49.0787 37.7692 48.3756 38.1591 47.4679 38.1591C46.1064 38.1591 45.2435 37.2578 45.2435 35.794V35.7876H51.9296V35.0398C51.9296 31.7031 49.9097 30.054 47.3145 30.054C44.4253 30.054 42.5525 32.1058 42.5525 35.1357C42.5525 38.2486 44.3998 40.1918 47.4232 40.1918ZM47.9729 27.1584H46.5091L43.9395 29.1463H45.8891L47.2506 28.0724L48.6057 29.1463H50.5681L47.9729 27.1584ZM45.2435 34.1001C45.301 32.9815 46.1512 32.0866 47.3593 32.0866C48.5418 32.0866 49.36 32.9304 49.3664 34.1001H45.2435ZM43.1022 25.6307H41.012L43.083 28.0213H44.6043L43.1022 25.6307ZM56.6096 34.3239C56.616 33.0582 57.3702 32.3168 58.4697 32.3168C59.5627 32.3168 60.2211 33.0327 60.2147 34.2344V40H62.9377V33.7486C62.9377 31.4602 61.5954 30.054 59.5499 30.054C58.0925 30.054 57.0379 30.7699 56.5968 31.9141H56.4817V30.1818H53.8866V40H56.6096V34.3239ZM72.3329 26.9091H69.6099V40H72.3329V26.9091ZM77.4939 40.1854C78.9449 40.1854 79.8845 39.5526 80.3639 38.6385H80.4406V40H83.023V33.3778C83.023 31.0384 81.0415 30.054 78.8554 30.054C76.5031 30.054 74.9562 31.179 74.5791 32.9688L77.0976 33.1733C77.2829 32.5213 77.8646 32.0419 78.8426 32.0419C79.7694 32.0419 80.3 32.5085 80.3 33.3139V33.3523C80.3 33.9851 79.6288 34.0682 77.9221 34.2344C75.979 34.4134 74.2339 35.0653 74.2339 37.2578C74.2339 39.201 75.621 40.1854 77.4939 40.1854ZM77.1295 28.9737C77.1295 28.3793 77.4236 28.0021 77.8646 28.0021C78.2034 28.0021 78.4591 28.1875 78.7403 28.3984C79.0983 28.6605 79.5074 28.9673 80.2233 28.9609C81.3802 28.9545 82.2879 28.0533 82.3007 26.4361L80.8113 26.3913C80.8049 26.9794 80.5429 27.3757 80.0507 27.3821C79.7311 27.3821 79.4626 27.1967 79.1686 26.9858C78.7851 26.7237 78.3568 26.4169 77.692 26.4233C76.5287 26.4297 75.6146 27.331 75.6146 28.9545L77.1295 28.9737ZM78.2737 38.3061C77.4363 38.3061 76.8355 37.9162 76.8355 37.1683C76.8355 36.4013 77.4683 36.0241 78.4271 35.8899C79.0216 35.8068 79.9932 35.6662 80.3192 35.4489V36.4908C80.3192 37.5199 79.469 38.3061 78.2737 38.3061ZM85.3156 40H88.0386V30.1818H85.3156V40ZM86.6835 28.9162C87.4952 28.9162 88.16 28.2962 88.16 27.5355C88.16 26.7812 87.4952 26.1612 86.6835 26.1612C85.8781 26.1612 85.2133 26.7812 85.2133 27.5355C85.2133 28.2962 85.8781 28.9162 86.6835 28.9162ZM99.182 40.1918C101.796 40.1918 103.439 38.6577 103.567 36.4013H100.997C100.837 37.4496 100.147 38.0376 99.2139 38.0376C97.9419 38.0376 97.1173 36.9702 97.1173 35.0909C97.1173 33.2372 97.9483 32.1761 99.2139 32.1761C100.211 32.1761 100.85 32.8345 100.997 33.8125H103.567C103.452 31.5433 101.732 30.054 99.1692 30.054C96.1905 30.054 94.3496 32.1186 94.3496 35.1293C94.3496 38.1143 96.1585 40.1918 99.182 40.1918ZM109.926 40.1918C112.905 40.1918 114.759 38.1527 114.759 35.1293C114.759 32.0866 112.905 30.054 109.926 30.054C106.948 30.054 105.094 32.0866 105.094 35.1293C105.094 38.1527 106.948 40.1918 109.926 40.1918ZM109.939 38.0824C108.565 38.0824 107.862 36.8232 107.862 35.1101C107.862 33.397 108.565 32.1314 109.939 32.1314C111.288 32.1314 111.991 33.397 111.991 35.1101C111.991 36.8232 111.288 38.0824 109.939 38.0824ZM108.98 28.9162H110.904L109.543 26.0078H107.031L108.98 28.9162ZM119.432 34.3239C119.439 33.0582 120.193 32.3168 121.292 32.3168C122.386 32.3168 123.044 33.0327 123.038 34.2344V40H125.761V33.7486C125.761 31.4602 124.418 30.054 122.373 30.054C120.915 30.054 119.861 30.7699 119.42 31.9141H119.305V30.1818H116.709V40H119.432V34.3239ZM33.4114 48.9091H30.6884V62H33.4114V48.9091ZM38.5724 62.1854C40.0234 62.1854 40.963 61.5526 41.4424 60.6385H41.5191V62H44.1015V55.3778C44.1015 53.0384 42.12 52.054 39.9339 52.054C37.5816 52.054 36.0347 53.179 35.6576 54.9688L38.1761 55.1733C38.3614 54.5213 38.9431 54.0419 39.9211 54.0419C40.8479 54.0419 41.3785 54.5085 41.3785 55.3139V55.3523C41.3785 55.9851 40.7073 56.0682 39.0006 56.2344C37.0575 56.4134 35.3124 57.0653 35.3124 59.2578C35.3124 61.201 36.6995 62.1854 38.5724 62.1854ZM39.3522 60.3061C38.5148 60.3061 37.914 59.9162 37.914 59.1683C37.914 58.4013 38.5468 58.0241 39.5056 57.8899C40.1001 57.8068 41.0717 57.6662 41.3977 57.4489V58.4908C41.3977 59.5199 40.5475 60.3061 39.3522 60.3061ZM39.9211 65.6818C40.7329 65.6818 41.3977 65.0618 41.3977 64.3011C41.3977 63.5469 40.7329 62.9268 39.9211 62.9268C39.1157 62.9268 38.4509 63.5469 38.4509 64.3011C38.4509 65.0618 39.1157 65.6818 39.9211 65.6818ZM46.3941 62H49.1171V52.1818H46.3941V62ZM47.762 50.9162C48.5738 50.9162 49.2385 50.2962 49.2385 49.5355C49.2385 48.7812 48.5738 48.1612 47.762 48.1612C46.9566 48.1612 46.2918 48.7812 46.2918 49.5355C46.2918 50.2962 46.9566 50.9162 47.762 50.9162ZM55.8244 65.6818H58.5474V60.4276H58.6305C59.0076 61.2457 59.8322 62.1598 61.4174 62.1598C63.6546 62.1598 65.3997 60.3892 65.3997 57.1037C65.3997 53.7287 63.5779 52.054 61.4238 52.054C59.7811 52.054 58.9948 53.032 58.6305 53.831H58.509V52.1818H55.8244V65.6818ZM58.4899 57.0909C58.4899 55.3395 59.2313 54.2209 60.5545 54.2209C61.9032 54.2209 62.6191 55.3906 62.6191 57.0909C62.6191 58.804 61.8904 59.9929 60.5545 59.9929C59.2441 59.9929 58.4899 58.8423 58.4899 57.0909ZM70.118 56.3239C70.1244 55.0582 70.8978 54.3168 72.0101 54.3168C73.1159 54.3168 73.7679 55.0263 73.7615 56.2344V62H76.4845V55.7486C76.4909 53.4474 75.1358 52.054 73.0903 52.054C71.601 52.054 70.6038 52.7571 70.1564 53.9141H70.0413V48.9091H67.395V62H70.118V56.3239ZM81.6071 62.1854C83.0581 62.1854 83.9978 61.5526 84.4772 60.6385H84.5539V62H87.1363V55.3778C87.1363 53.0384 85.1547 52.054 82.9686 52.054C80.6164 52.054 79.0695 53.179 78.6924 54.9688L81.2108 55.1733C81.3962 54.5213 81.9779 54.0419 82.9559 54.0419C83.8827 54.0419 84.4133 54.5085 84.4133 55.3139V55.3523C84.4133 55.9851 83.7421 56.0682 82.0354 56.2344C80.0922 56.4134 78.3472 57.0653 78.3472 59.2578C78.3472 61.201 79.7343 62.1854 81.6071 62.1854ZM84.0745 50.7756V50.2131C84.7584 50.1108 85.4424 49.7337 85.436 48.9602C85.4424 47.8736 84.2279 47.2216 81.9523 47.2216L81.882 48.4553C82.6107 48.4553 83.1668 48.5831 83.1604 49.0433C83.1668 49.3757 82.8152 49.5866 81.914 49.625L82.0546 50.7756H84.0745ZM82.387 60.3061C81.5496 60.3061 80.9488 59.9162 80.9488 59.1683C80.9488 58.4013 81.5816 58.0241 82.5404 57.8899C83.1348 57.8068 84.1064 57.6662 84.4324 57.4489V58.4908C84.4324 59.5199 83.5823 60.3061 82.387 60.3061ZM89.4288 62H92.1518V52.1818H89.4288V62ZM90.7967 50.9162C91.6085 50.9162 92.2733 50.2962 92.2733 49.5355C92.2733 48.7812 91.6085 48.1612 90.7967 48.1612C89.9913 48.1612 89.3266 48.7812 89.3266 49.5355C89.3266 50.2962 89.9913 50.9162 90.7967 50.9162ZM104.081 52.1818H102.234V49.8295H99.5111V52.1818H98.1688V54.2273H99.5111V59.3409C99.4984 61.2649 100.809 62.2173 102.784 62.1342C103.487 62.1087 103.986 61.968 104.26 61.8786L103.832 59.8523C103.698 59.8778 103.41 59.9418 103.155 59.9418C102.611 59.9418 102.234 59.7372 102.234 58.983V54.2273H104.081V52.1818ZM106.035 62H108.758V56.4453C108.758 55.2372 109.64 54.4062 110.842 54.4062C111.219 54.4062 111.737 54.4702 111.993 54.5533V52.1371C111.75 52.0795 111.411 52.0412 111.136 52.0412C110.037 52.0412 109.135 52.6804 108.777 53.8949H108.675V52.1818H106.035V62ZM116.099 62.1854C117.55 62.1854 118.49 61.5526 118.969 60.6385H119.046V62H121.628V55.3778C121.628 53.0384 119.647 52.054 117.46 52.054C115.108 52.054 113.561 53.179 113.184 54.9688L115.703 55.1733C115.888 54.5213 116.47 54.0419 117.448 54.0419C118.375 54.0419 118.905 54.5085 118.905 55.3139V55.3523C118.905 55.9851 118.234 56.0682 116.527 56.2344C114.584 56.4134 112.839 57.0653 112.839 59.2578C112.839 61.201 114.226 62.1854 116.099 62.1854ZM118.566 50.7756V50.2131C119.25 50.1108 119.934 49.7337 119.928 48.9602C119.934 47.8736 118.72 47.2216 116.444 47.2216L116.374 48.4553C117.102 48.4553 117.659 48.5831 117.652 49.0433C117.659 49.3757 117.307 49.5866 116.406 49.625L116.546 50.7756H118.566ZM116.879 60.3061C116.041 60.3061 115.441 59.9162 115.441 59.1683C115.441 58.4013 116.073 58.0241 117.032 57.8899C117.627 57.8068 118.598 57.6662 118.924 57.4489V58.4908C118.924 59.5199 118.074 60.3061 116.879 60.3061Z" fill="#4F565F"/>
<path d="M190.582 61.4943C194.452 61.4943 196.957 59.8068 198.236 57.3693H198.44V61H205.327V43.3409C205.327 37.1023 200.043 34.4773 194.213 34.4773C187.94 34.4773 183.815 37.4773 182.81 42.25L189.526 42.7955C190.02 41.0568 191.571 39.7784 194.179 39.7784C196.651 39.7784 198.065 41.0227 198.065 43.1705V43.2727C198.065 44.9602 196.276 45.1818 191.724 45.625C186.543 46.1023 181.889 47.8409 181.889 53.6875C181.889 58.8693 185.588 61.4943 190.582 61.4943ZM192.662 56.483C190.429 56.483 188.827 55.4432 188.827 53.4489C188.827 51.4034 190.514 50.3977 193.071 50.0398C194.656 49.8182 197.247 49.4432 198.116 48.8636V51.642C198.116 54.3864 195.849 56.483 192.662 56.483ZM230 54.4545C230.017 58.6477 232.693 62.2102 237.688 62.2102C242.631 62.2102 245.392 58.6477 245.375 54.4545V52.6136C245.392 48.3864 242.699 44.858 237.688 44.858C232.761 44.858 230.017 48.4205 230 52.6136V54.4545ZM212.085 34.4773C212.102 38.6705 214.778 42.1989 219.756 42.1989C224.716 42.1989 227.477 38.7045 227.46 34.4773V32.6364C227.477 28.4091 224.784 24.8807 219.756 24.8807C214.881 24.8807 212.102 28.4091 212.085 32.6364V34.4773ZM213.756 61H218.205L242.205 26.0909H237.756L213.756 61ZM234.96 52.6136C234.977 50.9432 235.642 49.2216 237.688 49.2216C239.835 49.2216 240.398 50.9432 240.381 52.6136V54.4545C240.398 56.125 239.767 57.8125 237.688 57.8125C235.608 57.8125 234.977 56.0739 234.96 54.4545V52.6136ZM217.08 32.6364C217.097 31.017 217.727 29.2443 219.756 29.2443C221.903 29.2443 222.483 30.9659 222.466 32.6364V34.4773C222.483 36.1477 221.835 37.8352 219.756 37.8352C217.744 37.8352 217.097 36.1477 217.08 34.4773V32.6364ZM268.523 40.6648H252.602V46.4261H268.523V40.6648ZM274.114 54.8636H290.869V61H297.926V54.8636H302.256V48.9489H297.926V26.0909H288.688L274.114 49.0511V54.8636ZM291.006 48.9489H281.545V48.6761L290.733 34.1364H291.006V48.9489ZM326.281 54.4545C326.298 58.6477 328.974 62.2102 333.969 62.2102C338.912 62.2102 341.673 58.6477 341.656 54.4545V52.6136C341.673 48.3864 338.98 44.858 333.969 44.858C329.043 44.858 326.298 48.4205 326.281 52.6136V54.4545ZM308.366 34.4773C308.384 38.6705 311.06 42.1989 316.037 42.1989C320.997 42.1989 323.759 38.7045 323.741 34.4773V32.6364C323.759 28.4091 321.065 24.8807 316.037 24.8807C311.162 24.8807 308.384 28.4091 308.366 32.6364V34.4773ZM310.037 61H314.486L338.486 26.0909H334.037L310.037 61ZM331.241 52.6136C331.259 50.9432 331.923 49.2216 333.969 49.2216C336.116 49.2216 336.679 50.9432 336.662 52.6136V54.4545C336.679 56.125 336.048 57.8125 333.969 57.8125C331.889 57.8125 331.259 56.0739 331.241 54.4545V52.6136ZM313.361 32.6364C313.378 31.017 314.009 29.2443 316.037 29.2443C318.185 29.2443 318.764 30.9659 318.747 32.6364V34.4773C318.764 36.1477 318.116 37.8352 316.037 37.8352C314.026 37.8352 313.378 36.1477 313.361 34.4773V32.6364Z" fill="url(#paint0_linear)"/>
<path d="M143.448 35.7223C149.587 35.5917 155.642 34.6439 161.781 34.6439" stroke="white" stroke-width="4" stroke-linecap="round"/>
<path d="M143.448 45.4283H162.86" stroke="white" stroke-width="4" stroke-linecap="round"/>
<path d="M185.165 73.9508C179.961 83.4429 180.74 89.4683 187.367 95.9981C189.169 97.7738 196.103 100.648 193.997 99.3313" stroke="white" stroke-width="4" stroke-linecap="round"/>
<path d="M195.676 92.6013C197.909 94.7775 200.606 97.6195 203.148 99.3639C205.169 100.751 204.251 99.883 203.278 100.723C201.62 102.153 190.243 107.587 189.726 106.647" stroke="white" stroke-width="4" stroke-linecap="round"/>
<defs>
<linearGradient id="paint0_linear" x1="208.962" y1="25.1809" x2="292.515" y2="91.9513" gradientUnits="userSpaceOnUse">
<stop stop-color="#0066B3"/>
<stop offset="1" stop-color="#1187E0"/>
</linearGradient>
</defs>
</svg>
