<svg width="353" height="112" viewBox="0 0 353 112" fill="none" xmlns="http://www.w3.org/2000/svg">
<path d="M46.8961 14H43.8023V9.6875H37.3336V14H35.0367V18.6875H37.3336V26.8203C37.2867 30.5937 39.6188 32.5039 44.0836 32.2578C45.5484 32.1758 46.6383 31.8711 47.2242 31.6953L46.2867 27.1484C46.0406 27.207 45.4078 27.3359 45.0211 27.3359C44.1773 27.3359 43.8023 26.9609 43.8023 26.2109V18.6875H46.8961V14ZM54.8814 32.2813C57.2251 32.2813 58.9946 31.4844 60.0845 29.4687H60.2251V32H66.272V19.6719C66.272 16.3437 63.1196 13.7656 57.9751 13.7656C52.5962 13.7656 49.9478 16.5781 49.7251 19.8594H55.6782C55.8306 18.7461 56.6509 18.2187 57.8814 18.2187C59.0064 18.2187 59.8032 18.7344 59.8032 19.6719V19.7187C59.8032 20.7617 58.6548 21.0898 55.6314 21.3125C51.9165 21.582 49.022 23.082 49.022 27.0312C49.022 30.6172 51.4361 32.2813 54.8814 32.2813ZM55.8657 11.8672L58.1626 9.28906L60.4595 11.8672H65.8032V11.7266L60.4126 6.38281H55.9126L50.522 11.7266V11.8672H55.8657ZM57.9282 39.2656C59.6861 39.2656 61.1157 37.9414 61.1157 36.3125C61.1157 34.6836 59.6861 33.3594 57.9282 33.3594C56.1704 33.3594 54.7407 34.6836 54.7407 36.3125C54.7407 37.9414 56.1704 39.2656 57.9282 39.2656ZM56.9907 28.2031C55.8892 28.2031 55.1157 27.6641 55.1157 26.6562C55.1157 25.7305 55.772 25.0156 57.272 24.7812C58.3032 24.6172 59.1704 24.4062 59.8501 24.125V25.625C59.8501 27.2656 58.4556 28.2031 56.9907 28.2031ZM81.3647 24.125C81.3764 25.9062 80.3452 26.9844 78.7397 26.9844C77.1108 26.9844 76.1733 25.9062 76.1616 24.125V14H69.6928V25.4844C69.7045 29.4219 72.1889 32.2344 75.9741 32.2344C78.6577 32.2344 80.7202 30.875 81.5053 28.5781H81.6928V32H87.8334V14H81.3647V24.125ZM105.248 8H97.9358L105.061 20L97.7014 32H105.108L109.186 24.875H109.373L113.451 32H120.905L113.451 20L120.623 8H113.358L109.373 14.9844H109.186L105.248 8ZM123.763 32H141.013V26.75H130.279V22.625H140.169V17.375H130.279V13.25H141.06V8H123.763V32ZM150.996 28.7187H146.121V30.0312C146.121 33.2188 145.043 36.5586 144.668 37.8594H148.652C149.215 36.5586 150.656 33.418 150.902 30.0312L150.996 28.7187ZM160.586 32H167.055V21.5C167.055 19.9297 167.875 18.9687 169.211 18.9687C170.547 18.9687 171.414 19.9297 171.414 21.5V32H177.602V21.5C177.602 19.9297 178.422 18.9687 179.758 18.9687C181.094 18.9687 181.961 19.9297 181.961 21.5V32H188.43V19.8594C188.43 16.168 186.062 13.7656 182.617 13.7656C179.945 13.7656 177.789 15.2187 177.18 17.4219H176.992C176.617 15.2187 174.602 13.7656 172.07 13.7656C169.574 13.7656 167.664 15.1719 166.914 17.4219H166.727V14H160.586V32ZM203.622 24.125C203.634 25.9062 202.602 26.9844 200.997 26.9844C199.368 26.9844 198.431 25.9062 198.419 24.125V14H191.95V25.4844C191.962 29.4219 194.446 32.2344 198.231 32.2344C200.915 32.2344 202.977 30.875 203.763 28.5781H203.95V32H210.091V14H203.622V24.125ZM218.726 32.2813C221.07 32.2813 222.84 31.4844 223.929 29.4687H224.07V32H230.117V19.6719C230.117 16.3437 226.965 13.7656 221.82 13.7656C216.441 13.7656 213.793 16.5781 213.57 19.8594H219.523C219.676 18.7461 220.496 18.2187 221.726 18.2187C222.851 18.2187 223.648 18.7344 223.648 19.6719V19.7187C223.648 20.7617 222.5 21.0898 219.476 21.3125C215.762 21.582 212.867 23.082 212.867 27.0312C212.867 30.6172 215.281 32.2813 218.726 32.2813ZM220.836 28.2031C219.734 28.2031 218.961 27.6641 218.961 26.6562C218.961 25.7305 219.617 25.0156 221.117 24.7812C222.148 24.6172 223.015 24.4062 223.695 24.125V25.625C223.695 27.2656 222.301 28.2031 220.836 28.2031ZM261.114 8H254.598V20.5625H254.411L245.88 8H240.348V32H246.864V19.3906H247.005L255.676 32H261.114V8ZM264.526 32H271.042V22.625H279.667V32H286.182V8H279.667V17.375H271.042V8H264.526V32ZM295.84 32L297.223 27.4062H305.145L306.528 32H313.559L305.637 8H296.731L288.809 32H295.84ZM299.075 5.75H303.34L301.09 0.499999H295.559L299.075 5.75ZM298.7 22.5313L301.09 14.6094H301.278L303.668 22.5313H298.7Z" fill="url(#paint0_linear)"/>
<path d="M230.08 55.5455H226.449V73H230.08V55.5455ZM237.681 73.2472C239.616 73.2472 240.868 72.4034 241.508 71.1847H241.61V73H245.053V64.1705C245.053 61.0511 242.411 59.7386 239.496 59.7386C236.36 59.7386 234.297 61.2386 233.795 63.625L237.152 63.8977C237.4 63.0284 238.175 62.3892 239.479 62.3892C240.715 62.3892 241.422 63.0114 241.422 64.0852V64.1364C241.422 64.9801 240.527 65.0909 238.252 65.3125C235.661 65.5511 233.334 66.4205 233.334 69.3438C233.334 71.9347 235.184 73.2472 237.681 73.2472ZM237.195 58.2983C237.195 57.5057 237.587 57.0028 238.175 57.0028C238.627 57.0028 238.968 57.25 239.343 57.5312C239.82 57.8807 240.366 58.2898 241.32 58.2812C242.863 58.2727 244.073 57.071 244.09 54.9148L242.104 54.8551C242.096 55.6392 241.746 56.1676 241.09 56.1761C240.664 56.1761 240.306 55.929 239.914 55.6477C239.402 55.2983 238.831 54.8892 237.945 54.8977C236.394 54.9062 235.175 56.108 235.175 58.2727L237.195 58.2983ZM238.721 70.7415C237.604 70.7415 236.803 70.2216 236.803 69.2244C236.803 68.2017 237.647 67.6989 238.925 67.5199C239.718 67.4091 241.013 67.2216 241.448 66.9318V68.321C241.448 69.6932 240.314 70.7415 238.721 70.7415ZM248.83 73H252.46V59.9091H248.83V73ZM250.654 58.2216C251.736 58.2216 252.622 57.3949 252.622 56.3807C252.622 55.375 251.736 54.5483 250.654 54.5483C249.58 54.5483 248.693 55.375 248.693 56.3807C248.693 57.3949 249.58 58.2216 250.654 58.2216ZM273.736 63.642C273.412 61.2301 271.469 59.7386 268.162 59.7386C264.812 59.7386 262.605 61.2898 262.613 63.8125C262.605 65.7727 263.841 67.0426 266.398 67.554L268.665 68.0057C269.807 68.2358 270.327 68.6534 270.344 69.3097C270.327 70.0852 269.483 70.6392 268.213 70.6392C266.917 70.6392 266.057 70.0852 265.835 69.0199L262.264 69.2074C262.605 71.7131 264.736 73.2557 268.204 73.2557C271.596 73.2557 274.025 71.5256 274.034 68.9432C274.025 67.0511 272.79 65.9176 270.25 65.3977L267.88 64.9205C266.662 64.6562 266.21 64.2386 266.219 63.608C266.21 62.8239 267.096 62.3125 268.221 62.3125C269.483 62.3125 270.233 63.0028 270.412 63.8466L273.736 63.642ZM285.675 67.4261C285.684 69.1818 284.482 70.1023 283.178 70.1023C281.806 70.1023 280.919 69.1392 280.911 67.5966V59.9091H277.28V68.2443C277.289 71.304 279.078 73.1705 281.712 73.1705C283.681 73.1705 285.095 72.1562 285.684 70.6222H285.82V73H289.306V59.9091H285.675V67.4261ZM296.903 73.2472C298.837 73.2472 300.09 72.4034 300.729 71.1847H300.832V73H304.275V64.1705C304.275 61.0511 301.633 59.7386 298.718 59.7386C295.582 59.7386 293.519 61.2386 293.016 63.625L296.374 63.8977C296.622 63.0284 297.397 62.3892 298.701 62.3892C299.937 62.3892 300.644 63.0114 300.644 64.0852V64.1364C300.644 64.9801 299.749 65.0909 297.474 65.3125C294.883 65.5511 292.556 66.4205 292.556 69.3438C292.556 71.9347 294.406 73.2472 296.903 73.2472ZM297.943 70.7415C296.826 70.7415 296.025 70.2216 296.025 69.2244C296.025 68.2017 296.869 67.6989 298.147 67.5199C298.94 67.4091 300.235 67.2216 300.67 66.9318V68.321C300.67 69.6932 299.536 70.7415 297.943 70.7415ZM294.414 58.4773H297.022L298.846 57.0455L300.644 58.4773H303.261L299.809 55.8267H297.849L294.414 58.4773ZM302.366 56.9773H304.42L307.173 53.7812H304.36L302.366 56.9773ZM315.015 59.9091H312.552V56.7727H308.921V59.9091H307.131V62.6364H308.921V69.4545C308.904 72.0199 310.651 73.2898 313.285 73.179C314.222 73.1449 314.887 72.9574 315.253 72.8381L314.682 70.1364C314.503 70.1705 314.12 70.2557 313.779 70.2557C313.055 70.2557 312.552 69.983 312.552 68.9773V62.6364H315.015V59.9091ZM238.653 83.9091H234.81L232.099 93.2756H231.963L229.244 83.9091H225.409L229.986 97H234.077L238.653 83.9091ZM244.829 97.2472C246.764 97.2472 248.017 96.4034 248.656 95.1847H248.758V97H252.201V88.1705C252.201 85.0511 249.559 83.7386 246.645 83.7386C243.508 83.7386 241.446 85.2386 240.943 87.625L244.301 87.8977C244.548 87.0284 245.324 86.3892 246.628 86.3892C247.863 86.3892 248.571 87.0114 248.571 88.0852V88.1364C248.571 88.9801 247.676 89.0909 245.4 89.3125C242.809 89.5511 240.483 90.4205 240.483 93.3438C240.483 95.9347 242.332 97.2472 244.829 97.2472ZM245.869 94.7415C244.753 94.7415 243.951 94.2216 243.951 93.2244C243.951 92.2017 244.795 91.6989 246.074 91.5199C246.866 91.4091 248.162 91.2216 248.596 90.9318V92.321C248.596 93.6932 247.463 94.7415 245.869 94.7415ZM257.751 101.909C260.453 101.909 261.884 100.528 262.626 98.4148L267.714 83.9261L263.87 83.9091L261.134 93.5227H260.998L258.288 83.9091H254.47L259.166 97.375L258.953 97.929C258.475 99.1562 257.563 99.2159 256.285 98.8239L255.467 101.534C255.987 101.756 256.831 101.909 257.751 101.909Z" fill="url(#paint1_linear)"/>
<path d="M133.924 88.2017H155.218V96H164.186V88.2017H169.688V80.685H164.186V51.6364H152.445L133.924 80.815V88.2017ZM155.391 80.685H143.369V80.3384L155.045 61.8608H155.391V80.685Z" fill="url(#paint2_linear)"/>
<path d="M194.879 88.6818C194.901 94.0107 198.301 98.538 204.648 98.538C210.93 98.538 214.44 94.0107 214.418 88.6818V86.3423C214.44 80.9702 211.017 76.4861 204.648 76.4861C198.388 76.4861 194.901 81.0135 194.879 86.3423V88.6818ZM172.112 63.294C172.134 68.6229 175.535 73.1069 181.86 73.1069C188.164 73.1069 191.673 68.6662 191.651 63.294V60.9545C191.673 55.5824 188.25 51.0984 181.86 51.0984C175.665 51.0984 172.134 55.5824 172.112 60.9545V63.294ZM174.235 97H179.889L210.389 52.6364H204.735L174.235 97ZM201.183 86.3423C201.204 84.2195 202.049 82.0316 204.648 82.0316C207.378 82.0316 208.093 84.2195 208.071 86.3423V88.6818C208.093 90.8047 207.291 92.9492 204.648 92.9492C202.006 92.9492 201.204 90.7397 201.183 88.6818V86.3423ZM178.459 60.9545C178.481 58.8967 179.282 56.6438 181.86 56.6438C184.589 56.6438 185.326 58.8317 185.304 60.9545V63.294C185.326 65.4169 184.503 67.5614 181.86 67.5614C179.304 67.5614 178.481 65.4169 178.459 63.294V60.9545Z" fill="url(#paint3_linear)"/>
<path d="M40.1136 56.8864C40.1136 55.625 40.875 54.8977 41.9602 54.8977C43.0227 54.8977 43.6591 55.5966 43.6591 56.7614V62H45.7159V56.4432C45.7216 54.3523 44.5284 53.1591 42.7273 53.1591C41.4205 53.1591 40.5227 53.7841 40.125 54.7557H40.0227V53.2727H38.0568V62H40.1136V56.8864ZM49.8636 56.8864C49.8636 55.625 50.6477 54.8977 51.75 54.8977C52.8295 54.8977 53.4659 55.5852 53.4659 56.7614V62H55.5227V56.4432C55.5227 54.3352 54.3295 53.1591 52.517 53.1591C51.1761 53.1591 50.3239 53.767 49.9205 54.7557H49.8182V50.3636H47.8068V62H49.8636V56.8864ZM60.1307 62.1761C61.5 62.1761 62.3182 61.5341 62.6932 60.8011H62.7614V62H64.7386V56.1591C64.7386 53.8523 62.858 53.1591 61.1932 53.1591C59.358 53.1591 57.9489 53.9773 57.4943 55.5682L59.4148 55.8409C59.6193 55.2443 60.1989 54.733 61.2045 54.733C62.1591 54.733 62.6818 55.2216 62.6818 56.0795V56.1136C62.6818 56.7045 62.0625 56.733 60.5227 56.8977C58.8295 57.0795 57.2102 57.5852 57.2102 59.5511C57.2102 61.267 58.4659 62.1761 60.1307 62.1761ZM60.1307 52.2273L61.2841 50.7727L62.4375 52.2273H64.2386V52.1477L62.0909 49.6932H60.483L58.3295 52.1477V52.2273H60.1307ZM60.6648 60.6648C59.8068 60.6648 59.1932 60.2727 59.1932 59.517C59.1932 58.7273 59.8807 58.3977 60.8011 58.267C61.3409 58.1932 62.4205 58.0568 62.6875 57.8409V58.8693C62.6875 59.8409 61.9034 60.6648 60.6648 60.6648ZM61.2045 65.1364C61.858 65.1364 62.392 64.6364 62.392 64.0227C62.392 63.4034 61.858 62.9034 61.2045 62.9034C60.5455 62.9034 60.0114 63.4034 60.0114 64.0227C60.0114 64.6364 60.5455 65.1364 61.2045 65.1364ZM68.8636 56.8864C68.8636 55.625 69.625 54.8977 70.7102 54.8977C71.7727 54.8977 72.4091 55.5966 72.4091 56.7614V62H74.4659V56.4432C74.4716 54.3523 73.2784 53.1591 71.4773 53.1591C70.1705 53.1591 69.2727 53.7841 68.875 54.7557H68.7727V53.2727H66.8068V62H68.8636V56.8864ZM82.5824 56.8864C82.5824 55.625 83.3665 54.8977 84.4688 54.8977C85.5483 54.8977 86.1847 55.5852 86.1847 56.7614V62H88.2415V56.4432C88.2415 54.3352 87.0483 53.1591 85.2358 53.1591C83.8949 53.1591 83.0426 53.767 82.6392 54.7557H82.5369V50.3636H80.5256V62H82.5824V56.8864ZM94.1449 62.1705C96.7017 62.1705 98.3267 60.3693 98.3267 57.6705C98.3267 54.9659 96.7017 53.1591 94.1449 53.1591C91.5881 53.1591 89.9631 54.9659 89.9631 57.6705C89.9631 60.3693 91.5881 62.1705 94.1449 62.1705ZM94.1562 60.5227C92.7415 60.5227 92.0483 59.2614 92.0483 57.6648C92.0483 56.0682 92.7415 54.7898 94.1562 54.7898C95.5483 54.7898 96.2415 56.0682 96.2415 57.6648C96.2415 59.2614 95.5483 60.5227 94.1562 60.5227ZM94.7472 50.6364H93.5199L91.1903 52.4375H92.7926L94.1335 51.392L95.4915 52.4375H97.071L94.7472 50.6364ZM95.429 48.6818C95.429 48.9602 95.2074 49.2614 94.946 49.2614C94.3778 49.2614 93.8835 48.767 93.2869 48.767C92.5994 48.767 92.1449 49.392 92.1506 49.9886L92.9006 50.1932C92.8949 49.9148 93.1222 49.642 93.3949 49.642C93.9801 49.642 94.3153 50.1648 95.054 50.1648C95.7358 50.1648 96.2017 49.5511 96.2017 48.9375L95.429 48.6818ZM108.399 53.2727H106.678V51.1818H104.621V53.2727H103.382V54.8636H104.621V59.7159C104.609 61.358 105.803 62.1648 107.348 62.1193C107.933 62.1023 108.337 61.9886 108.558 61.9148L108.212 60.3068C108.098 60.3352 107.865 60.3864 107.609 60.3864C107.092 60.3864 106.678 60.2045 106.678 59.375V54.8636H108.399V53.2727ZM110.119 62H112.176V56.8693C112.176 55.7614 113.011 54.9773 114.142 54.9773C114.489 54.9773 114.92 55.0398 115.097 55.0966V53.2045C114.909 53.1705 114.585 53.1477 114.358 53.1477C113.358 53.1477 112.523 53.7159 112.205 54.7273H112.114V53.2727H110.119V62ZM123.604 52.7159C123.604 53.5568 123.496 54.1875 123.047 54.5C122.32 53.6477 121.24 53.1591 119.911 53.1591C117.354 53.1591 115.729 54.9659 115.729 57.6705C115.729 60.3693 117.354 62.1705 119.911 62.1705C122.467 62.1705 124.092 60.3693 124.092 57.6705C124.092 56.8182 123.933 56.0568 123.632 55.4148C124.575 54.9773 124.979 54.0341 124.979 52.7159H123.604ZM119.922 60.5227C118.507 60.5227 117.814 59.2614 117.814 57.6648C117.814 56.0682 118.507 54.7898 119.922 54.7898C121.314 54.7898 122.007 56.0682 122.007 57.6648C122.007 59.2614 121.314 60.5227 119.922 60.5227ZM119.916 65.1364C120.57 65.1364 121.104 64.6364 121.104 64.0227C121.104 63.4034 120.57 62.9034 119.916 62.9034C119.257 62.9034 118.723 63.4034 118.723 64.0227C118.723 64.6364 119.257 65.1364 119.916 65.1364Z" fill="#4F565F"/>
<path d="M72.8972 73.6639C73.2885 84.9229 78.437 89.346 90.9559 90.2818C94.3602 90.5363 104.692 88.2686 101.243 88.5932" stroke="white" stroke-width="4" stroke-linecap="round"/>
<path d="M98.5535 81.9515C102.755 82.2469 107.978 82.7796 112.249 82.5148C115.644 82.3043 113.936 82.2046 113.355 83.5427C112.365 85.8218 102.511 97.8706 101.232 97.4442" stroke="white" stroke-width="4" stroke-linecap="round"/>
<defs>
<linearGradient id="paint0_linear" x1="85.6653" y1="7.02128" x2="133.672" y2="100.529" gradientUnits="userSpaceOnUse">
<stop stop-color="#FF5E2C"/>
<stop offset="1" stop-color="#F17706"/>
</linearGradient>
<linearGradient id="paint1_linear" x1="247.812" y1="60.4255" x2="299.449" y2="82.7449" gradientUnits="userSpaceOnUse">
<stop stop-color="#FF5E2C"/>
<stop offset="1" stop-color="#F17706"/>
</linearGradient>
<linearGradient id="paint2_linear" x1="141.678" y1="49.9894" x2="169.878" y2="53.6903" gradientUnits="userSpaceOnUse">
<stop stop-color="#FF5E2C"/>
<stop offset="1" stop-color="#F17706"/>
</linearGradient>
<linearGradient id="paint3_linear" x1="179.862" y1="50.9894" x2="213.573" y2="56.3185" gradientUnits="userSpaceOnUse">
<stop stop-color="#FF5E2C"/>
<stop offset="1" stop-color="#F17706"/>
</linearGradient>
</defs>
</svg>
