<svg width="230" height="135" viewBox="0 0 230 135" fill="none" xmlns="http://www.w3.org/2000/svg">
<path d="M8.61932 26.8182H3.1733V53H8.61932V26.8182ZM18.9413 53.3707C21.8433 53.3707 23.7226 52.1051 24.6814 50.277H24.8348V53H29.9996V39.7557C29.9996 35.0767 26.0365 33.108 21.6643 33.108C16.9598 33.108 13.866 35.358 13.1118 38.9375L18.1487 39.3466C18.5194 38.0426 19.6828 37.0838 21.6388 37.0838C23.4925 37.0838 24.5535 38.017 24.5535 39.6278V39.7045C24.5535 40.9702 23.2112 41.1364 19.7979 41.4688C15.9115 41.8267 12.4214 43.1307 12.4214 47.5156C12.4214 51.402 15.1956 53.3707 18.9413 53.3707ZM20.501 49.6122C18.8263 49.6122 17.6246 48.8324 17.6246 47.3366C17.6246 45.8026 18.8902 45.0483 20.8078 44.7798C21.9967 44.6136 23.9399 44.3324 24.5919 43.8977V45.9815C24.5919 48.0398 22.8916 49.6122 20.501 49.6122ZM19.9768 30.8324H23.8248L21.1018 25.0156H16.0777L19.9768 30.8324ZM52.1489 53.3835C57.3776 53.3835 60.6631 50.3153 60.9188 45.8026H55.7796C55.46 47.8991 54.0793 49.0753 52.2128 49.0753C49.6688 49.0753 48.0196 46.9403 48.0196 43.1818C48.0196 39.4744 49.6816 37.3523 52.2128 37.3523C54.2071 37.3523 55.4855 38.669 55.7796 40.625H60.9188C60.6887 36.0866 57.2497 33.108 52.1233 33.108C46.1659 33.108 42.4841 37.2372 42.4841 43.2585C42.4841 49.2287 46.102 53.3835 52.1489 53.3835ZM70.3651 53.3707C73.2671 53.3707 75.1463 52.1051 76.1051 50.277H76.2585V53H81.4233V39.7557C81.4233 35.0767 77.4602 33.108 73.0881 33.108C68.3835 33.108 65.2898 35.358 64.5355 38.9375L69.5725 39.3466C69.9432 38.0426 71.1065 37.0838 73.0625 37.0838C74.9162 37.0838 75.9773 38.017 75.9773 39.6278V39.7045C75.9773 40.9702 74.635 41.1364 71.2216 41.4688C67.3352 41.8267 63.8452 43.1307 63.8452 47.5156C63.8452 51.402 66.6193 53.3707 70.3651 53.3707ZM71.9247 49.6122C70.25 49.6122 69.0483 48.8324 69.0483 47.3366C69.0483 45.8026 70.3139 45.0483 72.2315 44.7798C73.4205 44.6136 75.3636 44.3324 76.0156 43.8977V45.9815C76.0156 48.0398 74.3154 49.6122 71.9247 49.6122ZM71.3367 30.8324H75.1847L79.0838 25.0156H74.0469L71.3367 30.8324ZM94.8806 53.3835C100.109 53.3835 103.395 50.3153 103.65 45.8026H98.5113C98.1917 47.8991 96.811 49.0753 94.9445 49.0753C92.4005 49.0753 90.7514 46.9403 90.7514 43.1818C90.7514 39.4744 92.4133 37.3523 94.9445 37.3523C96.9389 37.3523 98.2173 38.669 98.5113 40.625H103.65C103.42 36.0866 99.9815 33.108 94.855 33.108C88.8977 33.108 85.2158 37.2372 85.2158 43.2585C85.2158 49.2287 88.8337 53.3835 94.8806 53.3835ZM130.495 34.348H135.8C135.723 29.6818 131.888 26.4602 126.059 26.4602C120.319 26.4602 116.113 29.6307 116.138 34.3864C116.125 38.2472 118.848 40.4588 123.272 41.5199L126.123 42.2358C128.973 42.9261 130.559 43.7443 130.571 45.5085C130.559 47.4261 128.743 48.7301 125.931 48.7301C123.054 48.7301 120.983 47.4006 120.804 44.7798H115.448C115.589 50.4432 119.641 53.3707 125.995 53.3707C132.387 53.3707 136.145 50.3153 136.158 45.5213C136.145 41.1619 132.86 38.848 128.309 37.8253L125.956 37.2628C123.681 36.7386 121.776 35.8949 121.814 34.0156C121.814 32.3281 123.31 31.0881 126.02 31.0881C128.667 31.0881 130.29 32.2898 130.495 34.348ZM149.088 53.3835C153.946 53.3835 157.219 51.0185 157.986 47.375L152.949 47.0426C152.399 48.5384 150.993 49.3182 149.178 49.3182C146.455 49.3182 144.729 47.5156 144.729 44.5881V44.5753H158.101V43.0795C158.101 36.4062 154.061 33.108 148.871 33.108C143.092 33.108 139.347 37.2116 139.347 43.2713C139.347 49.4972 143.041 53.3835 149.088 53.3835ZM144.729 41.2003C144.844 38.9631 146.544 37.1733 148.96 37.1733C151.325 37.1733 152.962 38.8608 152.974 41.2003H144.729ZM167.461 41.6477C167.474 39.1165 168.982 37.6335 171.181 37.6335C173.367 37.6335 174.684 39.0653 174.671 41.4688V53H180.117V40.4972C180.117 35.9205 177.432 33.108 173.342 33.108C170.427 33.108 168.317 34.5398 167.435 36.8281H167.205V33.3636H162.015V53H167.461V41.6477ZM184.769 53H190.215V33.3636H184.769V53ZM187.505 30.8324C189.129 30.8324 190.458 29.5923 190.458 28.071C190.458 26.5625 189.129 25.3224 187.505 25.3224C185.894 25.3224 184.565 26.5625 184.565 28.071C184.565 29.5923 185.894 30.8324 187.505 30.8324ZM203.81 53.3835C209.768 53.3835 213.475 49.3054 213.475 43.2585C213.475 37.1733 209.768 33.108 203.81 33.108C197.853 33.108 194.145 37.1733 194.145 43.2585C194.145 49.3054 197.853 53.3835 203.81 53.3835ZM203.836 49.1648C201.087 49.1648 199.681 46.6463 199.681 43.2202C199.681 39.794 201.087 37.2628 203.836 37.2628C206.533 37.2628 207.939 39.794 207.939 43.2202C207.939 46.6463 206.533 49.1648 203.836 49.1648ZM217.376 53H222.822V41.8906C222.822 39.4744 224.586 37.8125 226.99 37.8125C227.744 37.8125 228.78 37.9403 229.291 38.1065V33.2741C228.805 33.1591 228.128 33.0824 227.578 33.0824C225.379 33.0824 223.576 34.3608 222.86 36.7898H222.656V33.3636H217.376V53Z" fill="url(#paint0_linear)"/>
<path d="M152.418 91.9545C152.423 90.8295 153.094 90.1705 154.071 90.1705C155.043 90.1705 155.628 90.8068 155.622 91.875V97H158.043V91.4432C158.043 89.4091 156.849 88.1591 155.031 88.1591C153.736 88.1591 152.798 88.7955 152.406 89.8125H152.304V88.2727H149.997V97H152.418V91.9545ZM162.439 97.1648C163.729 97.1648 164.564 96.6023 164.99 95.7898H165.058V97H167.354V91.1136C167.354 89.0341 165.592 88.1591 163.649 88.1591C161.558 88.1591 160.183 89.1591 159.848 90.75L162.087 90.9318C162.251 90.3523 162.768 89.9261 163.638 89.9261C164.462 89.9261 164.933 90.3409 164.933 91.0568V91.0909C164.933 91.6534 164.337 91.7273 162.82 91.875C161.092 92.0341 159.541 92.6136 159.541 94.5625C159.541 96.2898 160.774 97.1648 162.439 97.1648ZM164.865 85.2273C164.865 85.7614 164.547 86.2443 163.74 86.2443C162.911 86.2443 162.604 85.75 162.609 85.2273H160.933C160.933 86.6023 162.018 87.5227 163.74 87.5227C165.462 87.5227 166.547 86.6023 166.553 85.2273H164.865ZM163.132 95.4943C162.388 95.4943 161.854 95.1477 161.854 94.483C161.854 93.8011 162.416 93.4659 163.268 93.3466C163.797 93.2727 164.661 93.1477 164.95 92.9545V93.8807C164.95 94.7955 164.195 95.4943 163.132 95.4943ZM169.232 97H171.652V91.7614C171.652 90.7955 172.266 90.1534 173.072 90.1534C173.868 90.1534 174.402 90.6989 174.402 91.5568V97H176.749V91.6705C176.749 90.767 177.266 90.1534 178.146 90.1534C178.919 90.1534 179.499 90.6364 179.499 91.608V97H181.913V91.1307C181.913 89.2386 180.788 88.1591 179.163 88.1591C177.885 88.1591 176.891 88.8125 176.533 89.8125H176.442C176.163 88.8011 175.271 88.1591 174.072 88.1591C172.896 88.1591 172.004 88.7841 171.641 89.8125H171.538V88.2727H169.232V97ZM112.966 117H115.386V114.227L116.04 113.483L118.42 117H121.256L117.852 112.051L121.091 108.273H118.312L115.517 111.585H115.386V105.364H112.966V117ZM122.278 117H124.699V108.273H122.278V117ZM123.494 107.148C124.216 107.148 124.807 106.597 124.807 105.92C124.807 105.25 124.216 104.699 123.494 104.699C122.778 104.699 122.188 105.25 122.188 105.92C122.188 106.597 122.778 107.148 123.494 107.148ZM129.058 111.955C129.064 110.83 129.734 110.17 130.712 110.17C131.683 110.17 132.268 110.807 132.263 111.875V117H134.683V111.443C134.683 109.409 133.49 108.159 131.672 108.159C130.376 108.159 129.439 108.795 129.047 109.812H128.945V108.273H126.638V117H129.058V111.955ZM139.011 111.955C139.017 110.83 139.705 110.17 140.693 110.17C141.676 110.17 142.256 110.801 142.25 111.875V117H144.67V111.443C144.676 109.398 143.472 108.159 141.653 108.159C140.33 108.159 139.443 108.784 139.045 109.812H138.943V105.364H136.591V117H139.011V111.955ZM152.699 111.955C152.705 110.83 153.375 110.17 154.352 110.17C155.324 110.17 155.909 110.807 155.903 111.875V117H158.324V111.443C158.324 109.409 157.131 108.159 155.312 108.159C154.017 108.159 153.08 108.795 152.688 109.812H152.585V108.273H150.278V117H152.699V111.955ZM164.163 120.455C166.658 120.455 168.43 119.318 168.43 117.085V108.273H166.027V109.739H165.936C165.612 109.028 164.902 108.159 163.442 108.159C161.527 108.159 159.908 109.648 159.908 112.619C159.908 115.523 161.482 116.875 163.447 116.875C164.839 116.875 165.618 116.176 165.936 115.455H166.038V117.051C166.038 118.25 165.271 118.716 164.22 118.716C163.152 118.716 162.612 118.25 162.413 117.722L160.175 118.023C160.464 119.398 161.811 120.455 164.163 120.455ZM164.214 115.057C163.027 115.057 162.379 114.114 162.379 112.608C162.379 111.125 163.016 110.085 164.214 110.085C165.391 110.085 166.05 111.08 166.05 112.608C166.05 114.148 165.379 115.057 164.214 115.057ZM172.777 111.955C172.783 110.83 173.47 110.17 174.459 110.17C175.442 110.17 176.021 110.801 176.016 111.875V117H178.436V111.443C178.442 109.398 177.237 108.159 175.419 108.159C174.095 108.159 173.209 108.784 172.811 109.812H172.709V105.364H170.357V117H172.777V111.955ZM180.341 117H182.761V108.273H180.341V117ZM181.557 107.148C182.278 107.148 182.869 106.597 182.869 105.92C182.869 105.25 182.278 104.699 181.557 104.699C180.841 104.699 180.25 105.25 180.25 105.92C180.25 106.597 180.841 107.148 181.557 107.148ZM188.678 117.17C190.837 117.17 192.291 116.119 192.632 114.5L190.393 114.352C190.149 115.017 189.524 115.364 188.717 115.364C187.507 115.364 186.74 114.562 186.74 113.261V113.256H192.683V112.591C192.683 109.625 190.888 108.159 188.581 108.159C186.013 108.159 184.348 109.983 184.348 112.676C184.348 115.443 185.99 117.17 188.678 117.17ZM187.382 107.239L188.524 105.852L189.666 107.239H191.729V107.159L189.422 104.659H187.621L185.32 107.159V107.239H187.382ZM186.74 111.756C186.791 110.761 187.547 109.966 188.621 109.966C189.672 109.966 190.399 110.716 190.405 111.756H186.74ZM188.524 120.273C189.246 120.273 189.837 119.722 189.837 119.045C189.837 118.375 189.246 117.824 188.524 117.824C187.808 117.824 187.217 118.375 187.217 119.045C187.217 119.722 187.808 120.273 188.524 120.273ZM194.263 117H196.683V111.761C196.683 110.795 197.297 110.153 198.104 110.153C198.899 110.153 199.433 110.699 199.433 111.557V117H201.78V111.67C201.78 110.767 202.297 110.153 203.178 110.153C203.95 110.153 204.53 110.636 204.53 111.608V117H206.945V111.131C206.945 109.239 205.82 108.159 204.195 108.159C202.916 108.159 201.922 108.812 201.564 109.812H201.473C201.195 108.801 200.303 108.159 199.104 108.159C197.928 108.159 197.036 108.784 196.672 109.812H196.57V108.273H194.263V117Z" fill="url(#paint1_linear)"/>
<path d="M125.256 96.8679H130.267V84.608H142.527V79.5966H130.267V67.3366H125.256V79.5966H112.996V84.608H125.256V96.8679Z" fill="url(#paint2_linear)"/>
<path d="M84.5994 118.716C96.3608 118.716 104.773 112.247 104.747 103.298C104.773 96.7784 100.631 92.125 92.9347 91.1534V90.7443C98.7898 89.696 102.83 85.554 102.804 79.6733C102.83 71.4148 95.5938 64.9205 84.7528 64.9205C74.0142 64.9205 65.9347 71.2102 65.7812 80.2614H76.392C76.5199 76.2727 80.1761 73.6903 84.7017 73.6903C89.1761 73.6903 92.1676 76.4006 92.142 80.3381C92.1676 84.4545 88.6648 87.2415 83.6278 87.2415H78.7443V95.3722H83.6278C89.5597 95.3722 93.267 98.3381 93.2415 102.557C93.267 106.724 89.6875 109.588 84.625 109.588C79.7415 109.588 76.0852 107.031 75.8807 103.196H64.733C64.9119 112.349 73.0938 118.716 84.5994 118.716Z" fill="url(#paint3_linear)"/>
<path d="M6.04545 15C9.59091 15 11.642 12.8011 11.642 9.16477C11.642 5.54545 9.59091 3.36364 6.16477 3.36364H2.27841V8.36932H0.539773V9.54545H2.27841V15H6.04545ZM4.03409 13.4659V9.54545H5.76136V8.36932H4.03409V4.89773H6.05682C8.60227 4.89773 9.91477 6.42045 9.91477 9.16477C9.91477 11.9205 8.60227 13.4659 5.94886 13.4659H4.03409ZM18.1651 15.1761C20.6253 15.1761 22.2332 13.375 22.2332 10.6761C22.2332 7.96023 20.6253 6.15909 18.1651 6.15909C15.7048 6.15909 14.0969 7.96023 14.0969 10.6761C14.0969 13.375 15.7048 15.1761 18.1651 15.1761ZM18.1707 13.75C16.5628 13.75 15.8128 12.3466 15.8128 10.6705C15.8128 9 16.5628 7.57955 18.1707 7.57955C19.7673 7.57955 20.5173 9 20.5173 10.6705C20.5173 12.3466 19.7673 13.75 18.1707 13.75ZM15.2276 5.22727H16.9094L18.1821 4.10227L19.4435 5.22727H21.1139L18.8014 3.25568H17.5344L15.2276 5.22727ZM20.506 3.96591H21.7503L23.4264 1.89205H21.6935L20.506 3.96591ZM24.9295 15H26.6284V6.27273H24.9295V15ZM25.7875 4.92614C26.3727 4.92614 26.8614 4.47159 26.8614 3.91477C26.8614 3.35795 26.3727 2.89773 25.7875 2.89773C25.1966 2.89773 24.7136 3.35795 24.7136 3.91477C24.7136 4.47159 25.1966 4.92614 25.7875 4.92614ZM38.8222 6.27273H37.0324V4.18182H35.3335V6.27273H34.0551V7.63636H35.3335V12.7898C35.3278 14.375 36.5381 15.142 37.879 15.1136C38.4188 15.108 38.7824 15.0057 38.9813 14.9318L38.6744 13.5284C38.5608 13.5511 38.3506 13.6023 38.0778 13.6023C37.5267 13.6023 37.0324 13.4205 37.0324 12.4375V7.63636H38.8222V6.27273ZM49.8196 5.85227C49.8139 6.92614 49.7628 7.47159 48.7514 7.59091V6.27273H47.0469V11.3807C47.0526 12.8636 45.9503 13.5682 44.9957 13.5682C43.9446 13.5682 43.2173 12.8068 43.2173 11.6193V6.27273H41.5185V11.8239C41.5185 13.9886 42.706 15.1136 44.3821 15.1136C45.6946 15.1136 46.5866 14.4205 46.9901 13.4886H47.081V15H48.7514V8.57955C50.5298 8.44886 51.0696 7.52273 51.0753 5.85227H49.8196ZM60.0187 5.66477C60.0187 6.52273 59.9165 7.16477 59.3994 7.44886C58.6892 6.625 57.6551 6.15909 56.3994 6.15909C53.9392 6.15909 52.3312 7.96023 52.3312 10.6761C52.3312 13.375 53.9392 15.1761 56.3994 15.1761C58.8597 15.1761 60.4676 13.375 60.4676 10.6761C60.4676 9.78409 60.2915 8.98864 59.9733 8.32955C60.9392 7.91477 61.3312 6.97727 61.3312 5.66477H60.0187ZM56.4051 13.75C54.7972 13.75 54.0472 12.3466 54.0472 10.6705C54.0472 9 54.7972 7.57955 56.4051 7.57955C58.0017 7.57955 58.7517 9 58.7517 10.6705C58.7517 12.3466 58.0017 13.75 56.4051 13.75ZM56.3994 18.0114C56.9847 18.0114 57.4733 17.5568 57.4733 17C57.4733 16.4432 56.9847 15.983 56.3994 15.983C55.8085 15.983 55.3256 16.4432 55.3256 17C55.3256 17.5568 55.8085 18.0114 56.3994 18.0114ZM64.9722 9.81818C64.9722 8.42614 65.8244 7.63068 67.0062 7.63068C68.1597 7.63068 68.8585 8.38636 68.8585 9.65341V15H70.5574V9.44886C70.5574 7.28977 69.3699 6.15909 67.5858 6.15909C66.2733 6.15909 65.4153 6.76705 65.0119 7.69318H64.904V6.27273H63.2733V15H64.9722V9.81818ZM77.2949 18.4545C79.5165 18.4545 81.2324 17.4375 81.2324 15.1932V6.27273H79.5676V7.6875H79.4426C79.1415 7.14773 78.5392 6.15909 76.9142 6.15909C74.8063 6.15909 73.2551 7.82386 73.2551 10.6023C73.2551 13.3864 74.8403 14.8693 76.9028 14.8693C78.5051 14.8693 79.1244 13.9659 79.4313 13.4091H79.5392V15.125C79.5392 16.4943 78.6017 17.0852 77.3119 17.0852C75.8972 17.0852 75.346 16.375 75.0449 15.875L73.5847 16.4773C74.0449 17.5455 75.2097 18.4545 77.2949 18.4545ZM77.2778 13.4602C75.7608 13.4602 74.971 12.2955 74.971 10.5795C74.971 8.90341 75.7438 7.60227 77.2778 7.60227C78.7608 7.60227 79.5563 8.8125 79.5563 10.5795C79.5563 12.3807 78.7438 13.4602 77.2778 13.4602ZM91.8849 15.1932C93.3281 15.1932 94.1406 14.4602 94.4645 13.8068H94.5327V15H96.1918V9.20455C96.1918 6.66477 94.1918 6.15909 92.8054 6.15909C91.2259 6.15909 89.7713 6.79545 89.2031 8.38636L90.7997 8.75C91.0497 8.13068 91.6861 7.53409 92.8281 7.53409C93.9247 7.53409 94.4872 8.10795 94.4872 9.09659V9.13636C94.4872 9.75568 93.8509 9.74432 92.2827 9.92614C90.6293 10.1193 88.9361 10.5511 88.9361 12.5341C88.9361 14.25 90.2259 15.1932 91.8849 15.1932ZM92.2543 13.8295C91.294 13.8295 90.6009 13.3977 90.6009 12.5568C90.6009 11.6477 91.4077 11.3239 92.3906 11.1932C92.9418 11.1193 94.2486 10.9716 94.4929 10.7273V11.8523C94.4929 12.8864 93.669 13.8295 92.2543 13.8295ZM92.1918 5.10795H93.5497L95.3111 2.48864H93.5213L92.1918 5.10795ZM99.2545 18.2727H100.953V13.642H101.056C101.363 14.1989 101.988 15.1705 103.578 15.1705C105.692 15.1705 107.226 13.4773 107.226 10.6534C107.226 7.82386 105.669 6.15909 103.561 6.15909C101.942 6.15909 101.357 7.14773 101.056 7.6875H100.914V6.27273H99.2545V18.2727ZM100.919 10.6364C100.919 8.8125 101.715 7.60227 103.198 7.60227C104.738 7.60227 105.51 8.90341 105.51 10.6364C105.51 12.3864 104.715 13.7216 103.198 13.7216C101.738 13.7216 100.919 12.4716 100.919 10.6364ZM118.231 15.1705C119.822 15.1705 120.447 14.1989 120.754 13.642H120.896V15H122.555V3.36364H120.856V7.6875H120.754C120.447 7.14773 119.867 6.15909 118.242 6.15909C116.134 6.15909 114.583 7.82386 114.583 10.6534C114.583 13.4773 116.112 15.1705 118.231 15.1705ZM118.606 13.7216C117.089 13.7216 116.299 12.3864 116.299 10.6364C116.299 8.90341 117.072 7.60227 118.606 7.60227C120.089 7.60227 120.884 8.8125 120.884 10.6364C120.884 12.4716 120.072 13.7216 118.606 13.7216ZM131.308 11.3807C131.314 12.8636 130.211 13.5682 129.257 13.5682C128.206 13.5682 127.478 12.8068 127.478 11.6193V6.27273H125.78V11.8239C125.78 13.9886 126.967 15.1136 128.643 15.1136C129.956 15.1136 130.848 14.4205 131.251 13.4886H131.342V15H133.012V6.27273H131.308V11.3807ZM129.524 18.0114C130.109 18.0114 130.598 17.5568 130.598 17C130.598 16.4432 130.109 15.983 129.524 15.983C128.933 15.983 128.45 16.4432 128.45 17C128.45 17.5568 128.933 18.0114 129.524 18.0114ZM137.794 9.81818C137.794 8.42614 138.646 7.63068 139.828 7.63068C140.982 7.63068 141.68 8.38636 141.68 9.65341V15H143.379V9.44886C143.379 7.28977 142.192 6.15909 140.408 6.15909C139.095 6.15909 138.237 6.76705 137.834 7.69318H137.726V6.27273H136.095V15H137.794V9.81818ZM150.117 18.4545C152.338 18.4545 154.054 17.4375 154.054 15.1932V6.27273H152.389V7.6875H152.264C151.963 7.14773 151.361 6.15909 149.736 6.15909C147.628 6.15909 146.077 7.82386 146.077 10.6023C146.077 13.3864 147.662 14.8693 149.725 14.8693C151.327 14.8693 151.946 13.9659 152.253 13.4091H152.361V15.125C152.361 16.4943 151.424 17.0852 150.134 17.0852C148.719 17.0852 148.168 16.375 147.867 15.875L146.407 16.4773C146.867 17.5455 148.032 18.4545 150.117 18.4545ZM150.1 13.4602C148.583 13.4602 147.793 12.2955 147.793 10.5795C147.793 8.90341 148.566 7.60227 150.1 7.60227C151.583 7.60227 152.378 8.8125 152.378 10.5795C152.378 12.3807 151.566 13.4602 150.1 13.4602Z" fill="#4F565F"/>
<path d="M19.8562 70C18.1089 80.6831 20.8497 86.1053 29.2722 90.0568C31.5626 91.1313 39.0577 91.5339 36.6333 90.993" stroke="white" stroke-width="4" stroke-linecap="round"/>
<path d="M35.9768 84.0877C38.807 85.3964 42.2956 87.1788 45.2732 87.9776C47.6406 88.6127 46.4862 88.0998 45.8481 89.2155C44.761 91.1158 35.8422 100.028 35.0413 99.3131" stroke="white" stroke-width="4" stroke-linecap="round"/>
<defs>
<linearGradient id="paint0_linear" x1="56.5732" y1="25.7234" x2="120.938" y2="99.661" gradientUnits="userSpaceOnUse">
<stop stop-color="#0DB14B"/>
<stop offset="1" stop-color="#07CB32"/>
</linearGradient>
<linearGradient id="paint1_linear" x1="136.753" y1="88.0213" x2="187.255" y2="116.445" gradientUnits="userSpaceOnUse">
<stop stop-color="#0DB14B"/>
<stop offset="1" stop-color="#07CB32"/>
</linearGradient>
<linearGradient id="paint2_linear" x1="117.192" y1="52.3404" x2="144.173" y2="55.6314" gradientUnits="userSpaceOnUse">
<stop stop-color="#0DB14B"/>
<stop offset="1" stop-color="#07CB32"/>
</linearGradient>
<linearGradient id="paint3_linear" x1="85.7531" y1="63.2713" x2="148.08" y2="79.3995" gradientUnits="userSpaceOnUse">
<stop stop-color="#0DB14B"/>
<stop offset="1" stop-color="#07CB32"/>
</linearGradient>
</defs>
</svg>
