<svg width="400" height="129" viewBox="0 0 400 129" fill="none" xmlns="http://www.w3.org/2000/svg">
<path d="M2.9723 27L4.05256 23.772H8.97443L10.0611 27H12.5923L7.97727 13.9091H5.04972L0.441051 27H2.9723ZM4.69176 21.8672L6.46236 16.5938H6.56463L8.33523 21.8672H4.69176ZM5.625 12.6179H7.35724L9.3196 9.69673H7.05682L5.625 12.6179ZM14.3943 30.6818H16.7082V25.4531H16.8041C17.1685 26.169 17.9291 27.1726 19.6166 27.1726C21.9305 27.1726 23.6628 25.3381 23.6628 22.1037C23.6628 18.831 21.8794 17.054 19.6102 17.054C17.878 17.054 17.1557 18.0959 16.8041 18.8054H16.6699V17.1818H14.3943V30.6818ZM16.6635 22.0909C16.6635 20.1861 17.4817 18.9524 18.971 18.9524C20.5115 18.9524 21.3041 20.2628 21.3041 22.0909C21.3041 23.9318 20.4987 25.2741 18.971 25.2741C17.4945 25.2741 16.6635 23.9957 16.6635 22.0909ZM34.1126 27.1726C35.8001 27.1726 36.5608 26.169 36.9251 25.4531H37.0657V27H39.3413V13.9091H37.021V18.8054H36.9251C36.5736 18.0959 35.8513 17.054 34.119 17.054C31.8498 17.054 30.0665 18.831 30.0665 22.1037C30.0665 25.3381 31.7987 27.1726 34.1126 27.1726ZM34.7582 25.2741C33.2305 25.2741 32.4251 23.9318 32.4251 22.0909C32.4251 20.2628 33.2177 18.9524 34.7582 18.9524C36.2476 18.9524 37.0657 20.1861 37.0657 22.0909C37.0657 23.9957 36.2348 25.2741 34.7582 25.2741ZM48.2449 22.8707C48.2449 24.3665 47.1774 25.108 46.1547 25.108C45.0424 25.108 44.301 24.3217 44.301 23.0753V17.1818H41.987V23.4332C41.987 25.7919 43.3294 27.1278 45.2598 27.1278C46.7299 27.1278 47.7655 26.3544 48.2129 25.255H48.3152V27H50.5588V17.1818H48.2449V22.8707ZM46.5574 30.5284C47.2924 30.5284 47.8933 29.9659 47.8933 29.2756C47.8933 28.5788 47.2924 28.0163 46.5574 28.0163C45.8159 28.0163 45.215 28.5788 45.215 29.2756C45.215 29.9659 45.8159 30.5284 46.5574 30.5284ZM55.4321 21.2472C55.4321 19.8281 56.2887 19.0099 57.5096 19.0099C58.7049 19.0099 59.4208 19.7962 59.4208 21.1065V27H61.7347V20.7486C61.7411 18.3963 60.3988 17.054 58.3725 17.054C56.9023 17.054 55.8924 17.7571 55.4449 18.8501H55.3299V17.1818H53.1182V27H55.4321V21.2472ZM68.5369 30.8864C71.1896 30.8864 73.1455 29.6719 73.1455 27.1598V17.1818H70.8636V18.8054H70.7357C70.3842 18.0959 69.6491 17.054 67.9168 17.054C65.6477 17.054 63.8643 18.831 63.8643 22.0589C63.8643 25.2614 65.6477 26.8594 67.9104 26.8594C69.5915 26.8594 70.3778 25.9581 70.7357 25.2358H70.8508V27.0959C70.8508 28.5405 69.892 29.1349 68.5752 29.1349C67.1817 29.1349 66.5681 28.4766 66.2869 27.9013L64.203 28.4062C64.6249 29.7805 66.0376 30.8864 68.5369 30.8864ZM68.556 25.044C67.0283 25.044 66.2229 23.8551 66.2229 22.0462C66.2229 20.2628 67.0155 18.9524 68.556 18.9524C70.0454 18.9524 70.8636 20.1861 70.8636 22.0462C70.8636 23.919 70.0326 25.044 68.556 25.044Z" fill="url(#paint0_linear)"/>
<path d="M47.8523 54.5881H53.196V69H56.8438V54.5881H62.1875V51.5455H47.8523V54.5881ZM66.4318 69.2472C68.3665 69.2472 69.6193 68.4034 70.2585 67.1847H70.3608V69H73.804V60.1705C73.804 57.0511 71.1619 55.7386 68.2472 55.7386C65.1108 55.7386 63.0483 57.2386 62.5455 59.625L65.9034 59.8977C66.1506 59.0284 66.9261 58.3892 68.2301 58.3892C69.4659 58.3892 70.1733 59.0114 70.1733 60.0852V60.1364C70.1733 60.9801 69.2784 61.0909 67.0028 61.3125C64.4119 61.5511 62.0852 62.4205 62.0852 65.3438C62.0852 67.9347 63.9347 69.2472 66.4318 69.2472ZM66.6705 54.358L68.3835 52.2784L70.0966 54.358H73.1903V54.2386L69.7301 50.4886H67.0284L63.5767 54.2386V54.358H66.6705ZM67.4716 66.7415C66.3551 66.7415 65.554 66.2216 65.554 65.2244C65.554 64.2017 66.3977 63.6989 67.6761 63.5199C68.4688 63.4091 69.7642 63.2216 70.1989 62.9318V64.321C70.1989 65.6932 69.0653 66.7415 67.4716 66.7415ZM68.2301 73.9091C69.3125 73.9091 70.1989 73.0824 70.1989 72.0682C70.1989 71.0625 69.3125 70.2358 68.2301 70.2358C67.1562 70.2358 66.2699 71.0625 66.2699 72.0682C66.2699 73.0824 67.1562 73.9091 68.2301 73.9091ZM85.0156 63.4261C85.0241 65.1818 83.8224 66.1023 82.5185 66.1023C81.1463 66.1023 80.2599 65.1392 80.2514 63.5966V55.9091H76.6207V64.2443C76.6293 67.304 78.419 69.1705 81.0526 69.1705C83.0213 69.1705 84.4361 68.1562 85.0241 66.6222H85.1605V69H88.6463V55.9091H85.0156V63.4261ZM100.139 55.9091H96.3892L100.139 62.4545L96.2528 69H100.003L102.543 64.4744L105.125 69H108.832L104.938 62.4545L108.73 55.9091H105.006L102.543 60.4858L100.139 55.9091ZM116.36 69.2557C119.599 69.2557 121.781 67.679 122.292 65.25L118.934 65.0284C118.567 66.0256 117.63 66.5455 116.42 66.5455C114.604 66.5455 113.454 65.3438 113.454 63.392V63.3835H122.369V62.3864C122.369 57.9375 119.675 55.7386 116.215 55.7386C112.363 55.7386 109.866 58.4744 109.866 62.5142C109.866 66.6648 112.329 69.2557 116.36 69.2557ZM113.454 61.1335C113.531 59.642 114.664 58.4489 116.275 58.4489C117.852 58.4489 118.942 59.5739 118.951 61.1335H113.454ZM128.684 66.6136H125.684L125.641 67.5682C125.539 69.8864 124.874 72.2642 124.627 73.2614H126.979C127.388 72.2301 128.36 69.8097 128.59 67.5511L128.684 66.6136ZM136.738 69H140.369V61.142C140.369 59.6932 141.289 58.7301 142.499 58.7301C143.692 58.7301 144.494 59.5483 144.494 60.8352V69H148.013V61.0057C148.013 59.6506 148.789 58.7301 150.11 58.7301C151.269 58.7301 152.138 59.4545 152.138 60.9119V69H155.761V60.196C155.761 57.358 154.073 55.7386 151.636 55.7386C149.718 55.7386 148.227 56.7188 147.69 58.2188H147.553C147.136 56.7017 145.798 55.7386 143.999 55.7386C142.235 55.7386 140.897 56.6761 140.352 58.2188H140.198V55.9091H136.738V69ZM167.023 63.4261C167.032 65.1818 165.83 66.1023 164.526 66.1023C163.154 66.1023 162.268 65.1392 162.259 63.5966V55.9091H158.629V64.2443C158.637 67.304 160.427 69.1705 163.06 69.1705C165.029 69.1705 166.444 68.1562 167.032 66.6222H167.168V69H170.654V55.9091H167.023V63.4261ZM177.291 69.2472C179.226 69.2472 180.479 68.4034 181.118 67.1847H181.22V69H184.663V60.1705C184.663 57.0511 182.021 55.7386 179.107 55.7386C175.97 55.7386 173.908 57.2386 173.405 59.625L176.763 59.8977C177.01 59.0284 177.786 58.3892 179.089 58.3892C180.325 58.3892 181.033 59.0114 181.033 60.0852V60.1364C181.033 60.9801 180.138 61.0909 177.862 61.3125C175.271 61.5511 172.945 62.4205 172.945 65.3438C172.945 67.9347 174.794 69.2472 177.291 69.2472ZM178.331 66.7415C177.214 66.7415 176.413 66.2216 176.413 65.2244C176.413 64.2017 177.257 63.6989 178.536 63.5199C179.328 63.4091 180.624 63.2216 181.058 62.9318V64.321C181.058 65.6932 179.925 66.7415 178.331 66.7415ZM196.665 61.4318C196.674 59.7443 197.68 58.7557 199.146 58.7557C200.603 58.7557 201.481 59.7102 201.472 61.3125V69H205.103V60.6648C205.103 57.6136 203.313 55.7386 200.586 55.7386C198.643 55.7386 197.237 56.6932 196.648 58.2188H196.495V55.9091H193.035V69H196.665V61.4318ZM211.595 61.4318C211.604 59.7443 212.635 58.7557 214.118 58.7557C215.592 58.7557 216.462 59.7017 216.453 61.3125V69H220.084V60.6648C220.092 57.5966 218.286 55.7386 215.558 55.7386C213.572 55.7386 212.243 56.6761 211.646 58.2188H211.493V51.5455H207.964V69H211.595V61.4318ZM226.674 69.2472C228.609 69.2472 229.862 68.4034 230.501 67.1847H230.603V69H234.046V60.1705C234.046 57.0511 231.404 55.7386 228.489 55.7386C225.353 55.7386 223.29 57.2386 222.788 59.625L226.146 59.8977C226.393 59.0284 227.168 58.3892 228.472 58.3892C229.708 58.3892 230.415 59.0114 230.415 60.0852V60.1364C230.415 60.9801 229.521 61.0909 227.245 61.3125C224.654 61.5511 222.327 62.4205 222.327 65.3438C222.327 67.9347 224.177 69.2472 226.674 69.2472ZM227.714 66.7415C226.597 66.7415 225.796 66.2216 225.796 65.2244C225.796 64.2017 226.64 63.6989 227.918 63.5199C228.711 63.4091 230.006 63.2216 230.441 62.9318V64.321C230.441 65.6932 229.308 66.7415 227.714 66.7415ZM227.364 54.2216H229.93L228.114 50.3438H224.765L227.364 54.2216ZM240.809 66.6136H237.809L237.766 67.5682C237.664 69.8864 236.999 72.2642 236.752 73.2614H239.104C239.513 72.2301 240.485 69.8097 240.715 67.5511L240.809 66.6136ZM57.9858 99.5653H61.5227C61.4716 96.4545 58.9148 94.3068 55.0284 94.3068C51.2017 94.3068 48.3977 96.4205 48.4148 99.5909C48.4062 102.165 50.2216 103.639 53.1705 104.347L55.071 104.824C56.9716 105.284 58.0284 105.83 58.0369 107.006C58.0284 108.284 56.8182 109.153 54.9432 109.153C53.0256 109.153 51.6449 108.267 51.5256 106.52H47.9545C48.0483 110.295 50.75 112.247 54.9858 112.247C59.2472 112.247 61.7528 110.21 61.7614 107.014C61.7528 104.108 59.5625 102.565 56.5284 101.884L54.9602 101.509C53.4432 101.159 52.1733 100.597 52.1989 99.3438C52.1989 98.2188 53.196 97.392 55.0028 97.392C56.767 97.392 57.8494 98.1932 57.9858 99.5653ZM78.0163 98.1847C78.0078 99.8381 77.8203 100.767 76.2862 100.997V98.9091H72.6555V106.426C72.6641 108.182 71.4624 109.102 70.1584 109.102C68.7862 109.102 67.8999 108.139 67.8913 106.597V98.9091H64.2607V107.244C64.2692 110.304 66.0589 112.17 68.6925 112.17C70.6612 112.17 72.076 111.156 72.6641 109.622H72.8004V112H76.2862V102.642C79.1669 102.395 80.1129 100.878 80.1214 98.1847H78.0163ZM71.6243 97.0341V96.2841C72.5362 96.1477 73.4482 95.6449 73.4396 94.6136C73.4482 93.1648 71.8288 92.2955 68.7947 92.2955L68.701 93.9403C69.6726 93.9403 70.4141 94.1108 70.4055 94.7244C70.4141 95.1676 69.9453 95.4489 68.7436 95.5L68.9311 97.0341H71.6243ZM84.924 112.247C86.8587 112.247 88.1115 111.403 88.7507 110.185H88.853V112H92.2962V103.17C92.2962 100.051 89.6541 98.7386 86.7393 98.7386C83.603 98.7386 81.5405 100.239 81.0376 102.625L84.3956 102.898C84.6428 102.028 85.4183 101.389 86.7223 101.389C87.9581 101.389 88.6655 102.011 88.6655 103.085V103.136C88.6655 103.98 87.7706 104.091 85.495 104.312C82.9041 104.551 80.5774 105.42 80.5774 108.344C80.5774 110.935 82.4268 112.247 84.924 112.247ZM85.9638 109.741C84.8473 109.741 84.0462 109.222 84.0462 108.224C84.0462 107.202 84.8899 106.699 86.1683 106.52C86.9609 106.409 88.2564 106.222 88.6911 105.932V107.321C88.6911 108.693 87.5575 109.741 85.9638 109.741ZM104.298 104.432C104.307 102.744 105.312 101.756 106.778 101.756C108.236 101.756 109.114 102.71 109.105 104.312V112H112.736V103.665C112.736 100.614 110.946 98.7386 108.219 98.7386C106.276 98.7386 104.869 99.6932 104.281 101.219H104.128V98.9091H100.668V112H104.298V104.432ZM119.228 104.432C119.237 102.744 120.268 101.756 121.751 101.756C123.225 101.756 124.094 102.702 124.086 104.312V112H127.717V103.665C127.725 100.597 125.918 98.7386 123.191 98.7386C121.205 98.7386 119.876 99.6761 119.279 101.219H119.126V94.5455H115.597V112H119.228V104.432ZM134.307 112.247C136.241 112.247 137.494 111.403 138.134 110.185H138.236V112H141.679V103.17C141.679 100.051 139.037 98.7386 136.122 98.7386C132.986 98.7386 130.923 100.239 130.42 102.625L133.778 102.898C134.026 102.028 134.801 101.389 136.105 101.389C137.341 101.389 138.048 102.011 138.048 103.085V103.136C138.048 103.98 137.153 104.091 134.878 104.312C132.287 104.551 129.96 105.42 129.96 108.344C129.96 110.935 131.81 112.247 134.307 112.247ZM135.347 109.741C134.23 109.741 133.429 109.222 133.429 108.224C133.429 107.202 134.273 106.699 135.551 106.52C136.344 106.409 137.639 106.222 138.074 105.932V107.321C138.074 108.693 136.94 109.741 135.347 109.741ZM134.997 97.2216H137.562L135.747 93.3438H132.398L134.997 97.2216ZM148.442 109.614H145.442L145.399 110.568C145.297 112.886 144.632 115.264 144.385 116.261H146.737C147.146 115.23 148.118 112.81 148.348 110.551L148.442 109.614ZM167.388 102.642C167.064 100.23 165.121 98.7386 161.814 98.7386C158.464 98.7386 156.257 100.29 156.266 102.812C156.257 104.773 157.493 106.043 160.05 106.554L162.317 107.006C163.459 107.236 163.979 107.653 163.996 108.31C163.979 109.085 163.135 109.639 161.865 109.639C160.57 109.639 159.709 109.085 159.487 108.02L155.916 108.207C156.257 110.713 158.388 112.256 161.857 112.256C165.249 112.256 167.678 110.526 167.686 107.943C167.678 106.051 166.442 104.918 163.902 104.398L161.533 103.92C160.314 103.656 159.862 103.239 159.871 102.608C159.862 101.824 160.749 101.312 161.874 101.312C163.135 101.312 163.885 102.003 164.064 102.847L167.388 102.642ZM173.705 112.247C175.64 112.247 176.893 111.403 177.532 110.185H177.634V112H181.077V103.17C181.077 100.051 178.435 98.7386 175.521 98.7386C172.384 98.7386 170.322 100.239 169.819 102.625L173.177 102.898C173.424 102.028 174.2 101.389 175.504 101.389C176.739 101.389 177.447 102.011 177.447 103.085V103.136C177.447 103.98 176.552 104.091 174.276 104.312C171.685 104.551 169.359 105.42 169.359 108.344C169.359 110.935 171.208 112.247 173.705 112.247ZM177.498 94.7585C177.498 95.4318 176.978 96.0881 175.606 96.0881C174.234 96.0881 173.705 95.4318 173.714 94.7585H171.396C171.387 96.4119 173.015 97.5625 175.606 97.5625C178.205 97.5625 179.859 96.4119 179.859 94.7585H177.498ZM174.745 109.741C173.629 109.741 172.827 109.222 172.827 108.224C172.827 107.202 173.671 106.699 174.95 106.52C175.742 106.409 177.038 106.222 177.472 105.932V107.321C177.472 108.693 176.339 109.741 174.745 109.741ZM174.617 94.7756H176.509L178.623 92.5938H176.126L174.617 94.7756ZM183.894 112H187.525V104.142C187.525 102.693 188.445 101.73 189.656 101.73C190.849 101.73 191.65 102.548 191.65 103.835V112H195.17V104.006C195.17 102.651 195.945 101.73 197.266 101.73C198.425 101.73 199.295 102.455 199.295 103.912V112H202.917V103.196C202.917 100.358 201.229 98.7386 198.792 98.7386C196.874 98.7386 195.383 99.7188 194.846 101.219H194.71C194.292 99.7017 192.954 98.7386 191.156 98.7386C189.391 98.7386 188.053 99.6761 187.508 101.219H187.354V98.9091H183.894V112ZM216.163 112.213C218.277 112.213 219.376 110.994 219.879 109.903H220.033V112H223.612V98.0142H225.104V95.875H223.612V94.5455H219.99V95.875H216.598V98.0142H219.99V101.108H219.879C219.393 100.043 218.345 98.7386 216.155 98.7386C213.283 98.7386 210.854 100.972 210.854 105.472C210.854 109.852 213.18 112.213 216.163 112.213ZM217.314 109.324C215.533 109.324 214.561 107.739 214.561 105.455C214.561 103.188 215.516 101.628 217.314 101.628C219.078 101.628 220.067 103.119 220.067 105.455C220.067 107.79 219.061 109.324 217.314 109.324ZM230.33 112.247C232.265 112.247 233.518 111.403 234.157 110.185H234.259V112H237.702V103.17C237.702 100.051 235.06 98.7386 232.146 98.7386C229.009 98.7386 226.947 100.239 226.444 102.625L229.802 102.898C230.049 102.028 230.825 101.389 232.129 101.389C233.364 101.389 234.072 102.011 234.072 103.085V103.136C234.072 103.98 233.177 104.091 230.901 104.312C228.31 104.551 225.984 105.42 225.984 108.344C225.984 110.935 227.833 112.247 230.33 112.247ZM231.37 109.741C230.254 109.741 229.452 109.222 229.452 108.224C229.452 107.202 230.296 106.699 231.575 106.52C232.367 106.409 233.663 106.222 234.097 105.932V107.321C234.097 108.693 232.964 109.741 231.37 109.741ZM227.842 97.4773H230.45L232.273 96.0455L234.072 97.4773H236.688L233.237 94.8267H231.276L227.842 97.4773ZM235.793 95.9773H237.847L240.6 92.7812H237.788L235.793 95.9773ZM247.482 98.9091H245.019V95.7727H241.388V98.9091H239.599V101.636H241.388V108.455C241.371 111.02 243.119 112.29 245.752 112.179C246.69 112.145 247.354 111.957 247.721 111.838L247.15 109.136C246.971 109.17 246.587 109.256 246.246 109.256C245.522 109.256 245.019 108.983 245.019 107.977V101.636H247.482V98.9091ZM251.969 112.222C253.06 112.222 254.006 111.31 254.015 110.176C254.006 109.06 253.06 108.148 251.969 108.148C250.844 108.148 249.915 109.06 249.924 110.176C249.915 111.31 250.844 112.222 251.969 112.222Z" fill="url(#paint1_linear)"/>
<path d="M5 56.0995C6.25331 57.8228 11.9524 66.8693 12.8347 65.4829C17.1454 58.709 21.4383 55.3359 28.7773 52" stroke="white" stroke-width="4" stroke-linecap="round"/>
<path d="M5 104.1C6.25331 105.823 11.9524 114.869 12.8347 113.483C17.1454 106.709 21.4383 103.336 28.7773 100" stroke="white" stroke-width="4" stroke-linecap="round"/>
<defs>
<linearGradient id="paint0_linear" x1="88.5774" y1="22.6436" x2="259.775" y2="129.557" gradientUnits="userSpaceOnUse">
<stop stop-color="#4F565F"/>
<stop offset="1" stop-color="#292D32"/>
</linearGradient>
<linearGradient id="paint1_linear" x1="67.5" y1="39" x2="216.586" y2="143.014" gradientUnits="userSpaceOnUse">
<stop stop-color="#F35D09"/>
<stop offset="1" stop-color="#F3851E"/>
</linearGradient>
</defs>
</svg>
