<svg width="303" height="142" viewBox="0 0 303 142" fill="none" xmlns="http://www.w3.org/2000/svg">
<path d="M0.704545 4.875H4.32955V15H6.07955V4.875H9.71023V3.36364H0.704545V4.875ZM14.0628 9.81818C14.0628 8.42614 14.9435 7.63068 16.1537 7.63068C17.3241 7.63068 18.023 8.375 18.023 9.65341V15H19.7219V9.44886C19.7219 7.27273 18.5287 6.15909 16.7332 6.15909C15.3753 6.15909 14.5571 6.75 14.148 7.69318H14.0401V3.36364H12.3639V15H14.0628V9.81818ZM30.0844 5.66477C30.0844 6.52273 29.9821 7.16477 29.4651 7.44886C28.7548 6.625 27.7207 6.15909 26.4651 6.15909C24.0048 6.15909 22.3969 7.96023 22.3969 10.6761C22.3969 13.375 24.0048 15.1761 26.4651 15.1761C28.9253 15.1761 30.5332 13.375 30.5332 10.6761C30.5332 9.78409 30.3571 8.98864 30.0389 8.32955C31.0048 7.91477 31.3969 6.97727 31.3969 5.66477H30.0844ZM26.4707 13.75C24.8628 13.75 24.1128 12.3466 24.1128 10.6705C24.1128 9 24.8628 7.57955 26.4707 7.57955C28.0673 7.57955 28.8173 9 28.8173 10.6705C28.8173 12.3466 28.0673 13.75 26.4707 13.75ZM25.806 5.10795H27.1639L25.8401 2.48864H24.0503L25.806 5.10795ZM33.3389 15H35.0378V6.27273H33.3389V15ZM34.1969 4.92614C34.7821 4.92614 35.2707 4.47159 35.2707 3.91477C35.2707 3.35795 34.7821 2.89773 34.1969 2.89773C33.606 2.89773 33.123 3.35795 33.123 3.91477C33.123 4.47159 33.606 4.92614 34.1969 4.92614ZM46.8168 18.4545C49.0384 18.4545 50.7543 17.4375 50.7543 15.1932V6.27273H49.0895V7.6875H48.9645C48.6634 7.14773 48.0611 6.15909 46.4361 6.15909C44.3281 6.15909 42.777 7.82386 42.777 10.6023C42.777 13.3864 44.3622 14.8693 46.4247 14.8693C48.027 14.8693 48.6463 13.9659 48.9531 13.4091H49.0611V15.125C49.0611 16.4943 48.1236 17.0852 46.8338 17.0852C45.419 17.0852 44.8679 16.375 44.5668 15.875L43.1065 16.4773C43.5668 17.5455 44.7315 18.4545 46.8168 18.4545ZM46.7997 13.4602C45.2827 13.4602 44.4929 12.2955 44.4929 10.5795C44.4929 8.90341 45.2656 7.60227 46.7997 7.60227C48.2827 7.60227 49.0781 8.8125 49.0781 10.5795C49.0781 12.3807 48.2656 13.4602 46.7997 13.4602ZM53.8327 15H55.5315V6.27273H53.8327V15ZM54.6906 4.92614C55.2759 4.92614 55.7645 4.47159 55.7645 3.91477C55.7645 3.35795 55.2759 2.89773 54.6906 2.89773C54.0997 2.89773 53.6168 3.35795 53.6168 3.91477C53.6168 4.47159 54.0997 4.92614 54.6906 4.92614ZM61.1568 15.1932C62.6 15.1932 63.4125 14.4602 63.7364 13.8068H63.8045V15H65.4636V9.20455C65.4636 6.66477 63.4636 6.15909 62.0773 6.15909C60.4977 6.15909 59.0432 6.79545 58.475 8.38636L60.0716 8.75C60.3216 8.13068 60.958 7.53409 62.1 7.53409C63.1966 7.53409 63.7591 8.10795 63.7591 9.09659V9.13636C63.7591 9.75568 63.1227 9.74432 61.5545 9.92614C59.9011 10.1193 58.208 10.5511 58.208 12.5341C58.208 14.25 59.4977 15.1932 61.1568 15.1932ZM61.5261 13.8295C60.5659 13.8295 59.8727 13.3977 59.8727 12.5568C59.8727 11.6477 60.6795 11.3239 61.6625 11.1932C62.2136 11.1193 63.5205 10.9716 63.7648 10.7273V11.8523C63.7648 12.8864 62.9409 13.8295 61.5261 13.8295ZM70.2253 9.81818C70.2253 8.42614 71.0776 7.63068 72.2594 7.63068C73.4128 7.63068 74.1116 8.38636 74.1116 9.65341V15H75.8105V9.44886C75.8105 7.28977 74.623 6.15909 72.8389 6.15909C71.5264 6.15909 70.6685 6.76705 70.2651 7.69318H70.1571V6.27273H68.5264V15H70.2253V9.81818ZM85.6222 9.81818C85.6222 8.42614 86.4744 7.63068 87.6562 7.63068C88.8097 7.63068 89.5085 8.38636 89.5085 9.65341V15H91.2074V9.44886C91.2074 7.28977 90.0199 6.15909 88.2358 6.15909C86.9233 6.15909 86.0653 6.76705 85.6619 7.69318H85.554V6.27273H83.9233V15H85.6222V9.81818ZM95.9847 9.81818C95.9847 8.42614 96.8653 7.63068 98.0756 7.63068C99.246 7.63068 99.9449 8.375 99.9449 9.65341V15H101.644V9.44886C101.644 7.27273 100.451 6.15909 98.6551 6.15909C97.2972 6.15909 96.479 6.75 96.0699 7.69318H95.9619V3.36364H94.2858V15H95.9847V9.81818ZM107.251 15.1932C108.694 15.1932 109.506 14.4602 109.83 13.8068H109.898V15H111.557V9.20455C111.557 6.66477 109.557 6.15909 108.171 6.15909C106.591 6.15909 105.137 6.79545 104.569 8.38636L106.165 8.75C106.415 8.13068 107.052 7.53409 108.194 7.53409C109.29 7.53409 109.853 8.10795 109.853 9.09659V9.13636C109.853 9.75568 109.216 9.74432 107.648 9.92614C105.995 10.1193 104.302 10.5511 104.302 12.5341C104.302 14.25 105.591 15.1932 107.251 15.1932ZM107.62 13.8295C106.66 13.8295 105.966 13.3977 105.966 12.5568C105.966 11.6477 106.773 11.3239 107.756 11.1932C108.307 11.1193 109.614 10.9716 109.859 10.7273V11.8523C109.859 12.8864 109.035 13.8295 107.62 13.8295ZM107.091 5.22727L108.262 3.70455L109.427 5.22727H110.966V5.14205L108.966 2.73295H107.552L105.557 5.14205V5.22727H107.091ZM108.182 18.0114C108.768 18.0114 109.256 17.5568 109.256 17C109.256 16.4432 108.768 15.983 108.182 15.983C107.591 15.983 107.109 16.4432 107.109 17C107.109 17.5568 107.591 18.0114 108.182 18.0114ZM116.319 9.81818C116.319 8.42614 117.171 7.63068 118.353 7.63068C119.507 7.63068 120.205 8.38636 120.205 9.65341V15H121.904V9.44886C121.904 7.28977 120.717 6.15909 118.933 6.15909C117.62 6.15909 116.762 6.76705 116.359 7.69318H116.251V6.27273H114.62V15H116.319V9.81818ZM131.716 9.81818C131.716 8.42614 132.597 7.63068 133.807 7.63068C134.977 7.63068 135.676 8.375 135.676 9.65341V15H137.375V9.44886C137.375 7.27273 136.182 6.15909 134.386 6.15909C133.028 6.15909 132.21 6.75 131.801 7.69318H131.693V3.36364H130.017V15H131.716V9.81818ZM144.118 15.1761C146.578 15.1761 148.186 13.375 148.186 10.6761C148.186 7.96023 146.578 6.15909 144.118 6.15909C141.658 6.15909 140.05 7.96023 140.05 10.6761C140.05 13.375 141.658 15.1761 144.118 15.1761ZM144.124 13.75C142.516 13.75 141.766 12.3466 141.766 10.6705C141.766 9 142.516 7.57955 144.124 7.57955C145.72 7.57955 146.47 9 146.47 10.6705C146.47 12.3466 145.72 13.75 144.124 13.75ZM144.681 3.61364H143.522L141.164 5.47159H142.669L144.101 4.34659L145.539 5.47159H147.039L144.681 3.61364ZM145.453 1.63636C145.453 1.91477 145.169 2.20455 144.88 2.20455C144.306 2.20455 143.885 1.69318 143.266 1.69318C142.561 1.69318 142.061 2.32386 142.061 2.93182L142.743 3.11364C142.743 2.83523 143.027 2.55114 143.323 2.55114C143.919 2.55114 144.181 3.08523 144.936 3.08523C145.641 3.08523 146.158 2.47159 146.158 1.85795L145.453 1.63636ZM159.991 6.27273H158.201V4.18182H156.502V6.27273H155.224V7.63636H156.502V12.7898C156.497 14.375 157.707 15.142 159.048 15.1136C159.587 15.108 159.951 15.0057 160.15 14.9318L159.843 13.5284C159.73 13.5511 159.519 13.6023 159.247 13.6023C158.695 13.6023 158.201 13.4205 158.201 12.4375V7.63636H159.991V6.27273ZM162.67 15H164.369V9.67045C164.369 8.52841 165.25 7.70455 166.454 7.70455C166.807 7.70455 167.204 7.76705 167.341 7.80682V6.18182C167.17 6.15909 166.835 6.14205 166.619 6.14205C165.596 6.14205 164.721 6.72159 164.403 7.65909H164.312V6.27273H162.67V15ZM176.594 5.66477C176.594 6.52273 176.491 7.16477 175.974 7.44886C175.264 6.625 174.23 6.15909 172.974 6.15909C170.514 6.15909 168.906 7.96023 168.906 10.6761C168.906 13.375 170.514 15.1761 172.974 15.1761C175.435 15.1761 177.043 13.375 177.043 10.6761C177.043 9.78409 176.866 8.98864 176.548 8.32955C177.514 7.91477 177.906 6.97727 177.906 5.66477H176.594ZM172.98 13.75C171.372 13.75 170.622 12.3466 170.622 10.6705C170.622 9 171.372 7.57955 172.98 7.57955C174.577 7.57955 175.327 9 175.327 10.6705C175.327 12.3466 174.577 13.75 172.98 13.75ZM172.974 18.0114C173.56 18.0114 174.048 17.5568 174.048 17C174.048 16.4432 173.56 15.983 172.974 15.983C172.384 15.983 171.901 16.4432 171.901 17C171.901 17.5568 172.384 18.0114 172.974 18.0114Z" fill="#4F565F"/>
<path d="M1.06534 32.9851H7.74503V51H12.3047V32.9851H18.9844V29.1818H1.06534V32.9851ZM26.8706 51.3196C31.8351 51.3196 34.9245 47.9212 34.9245 42.8821C34.9245 37.8111 31.8351 34.4233 26.8706 34.4233C21.9061 34.4233 18.8166 37.8111 18.8166 42.8821C18.8166 47.9212 21.9061 51.3196 26.8706 51.3196ZM26.8919 47.804C24.6014 47.804 23.4295 45.7053 23.4295 42.8501C23.4295 39.995 24.6014 37.8857 26.8919 37.8857C29.1397 37.8857 30.3116 39.995 30.3116 42.8501C30.3116 45.7053 29.1397 47.804 26.8919 47.804ZM21.3201 32.8466H24.5801L26.8599 31.0568L29.1078 32.8466H32.3784L28.0637 29.5334H25.6135L21.3201 32.8466ZM31.2598 30.9716H33.8272L37.2683 26.9766H33.7527L31.2598 30.9716ZM37.8755 51H42.4139V34.6364H37.8755V51ZM40.1554 32.527C41.5083 32.527 42.6163 31.4936 42.6163 30.2259C42.6163 28.9688 41.5083 27.9354 40.1554 27.9354C38.813 27.9354 37.7051 28.9688 37.7051 30.2259C37.7051 31.4936 38.813 32.527 40.1554 32.527ZM59.0226 51.2663C61.6646 51.2663 63.0389 49.7429 63.6674 48.3793H63.8592V51H68.3336V33.5178H70.198V30.8438H68.3336V29.1818H63.8059V30.8438H59.5659V33.5178H63.8059V37.3849H63.6674C63.0602 36.0533 61.7498 34.4233 59.0119 34.4233C55.4217 34.4233 52.3855 37.2145 52.3855 42.8395C52.3855 48.3153 55.2939 51.2663 59.0226 51.2663ZM60.4608 47.6548C58.2342 47.6548 57.0197 45.6733 57.0197 42.8182C57.0197 39.9844 58.2129 38.0348 60.4608 38.0348C62.666 38.0348 63.9018 39.8991 63.9018 42.8182C63.9018 45.7372 62.6447 47.6548 60.4608 47.6548ZM76.7312 51.3089C79.1495 51.3089 80.7156 50.2543 81.5146 48.7308H81.6424V51H85.9464V39.9631C85.9464 36.0639 82.6438 34.4233 79.0004 34.4233C75.0799 34.4233 72.5018 36.2983 71.8732 39.2812L76.0707 39.6222C76.3796 38.5355 77.3491 37.7365 78.979 37.7365C80.5238 37.7365 81.408 38.5142 81.408 39.8565V39.9205C81.408 40.9751 80.2894 41.1136 77.445 41.3906C74.2063 41.6889 71.2979 42.7756 71.2979 46.4297C71.2979 49.6683 73.6097 51.3089 76.7312 51.3089ZM78.0309 48.1768C76.6353 48.1768 75.6339 47.527 75.6339 46.2805C75.6339 45.0021 76.6886 44.3736 78.2866 44.1499C79.2773 44.0114 80.8967 43.777 81.44 43.4148V45.1513C81.44 46.8665 80.0231 48.1768 78.0309 48.1768ZM96.0378 47.1648H106.51V51H110.921V47.1648H113.627V43.468H110.921V29.1818H105.146L96.0378 43.532V47.1648ZM106.595 43.468H100.683V43.2976L106.425 34.2102H106.595V43.468ZM128.224 41.5398C128.235 39.4304 129.492 38.1946 131.325 38.1946C133.146 38.1946 134.244 39.3878 134.233 41.3906V51H138.771V40.581C138.771 36.767 136.534 34.4233 133.125 34.4233C130.696 34.4233 128.938 35.6165 128.203 37.5234H128.011V34.6364H123.686V51H128.224V41.5398ZM147.014 51.3089C149.433 51.3089 150.999 50.2543 151.798 48.7308H151.926V51H156.23V39.9631C156.23 36.0639 152.927 34.4233 149.284 34.4233C145.363 34.4233 142.785 36.2983 142.156 39.2812L146.354 39.6222C146.663 38.5355 147.632 37.7365 149.262 37.7365C150.807 37.7365 151.691 38.5142 151.691 39.8565V39.9205C151.691 40.9751 150.573 41.1136 147.728 41.3906C144.49 41.6889 141.581 42.7756 141.581 46.4297C141.581 49.6683 143.893 51.3089 147.014 51.3089ZM151.563 28.9261C151.563 29.9276 150.967 30.8331 149.454 30.8331C147.899 30.8331 147.323 29.9062 147.334 28.9261H144.191C144.191 31.5043 146.226 33.2301 149.454 33.2301C152.682 33.2301 154.717 31.5043 154.727 28.9261H151.563ZM148.314 48.1768C146.919 48.1768 145.917 47.527 145.917 46.2805C145.917 45.0021 146.972 44.3736 148.57 44.1499C149.561 44.0114 151.18 43.777 151.723 43.4148V45.1513C151.723 46.8665 150.306 48.1768 148.314 48.1768ZM159.751 51H164.289V41.1776C164.289 39.3665 165.439 38.1626 166.952 38.1626C168.444 38.1626 169.445 39.1854 169.445 40.794V51H173.845V41.0071C173.845 39.3132 174.814 38.1626 176.466 38.1626C177.915 38.1626 179.001 39.0682 179.001 40.8899V51H183.529V39.995C183.529 36.4474 181.42 34.4233 178.373 34.4233C175.976 34.4233 174.111 35.6484 173.44 37.5234H173.27C172.748 35.6271 171.075 34.4233 168.827 34.4233C166.622 34.4233 164.949 35.5952 164.268 37.5234H164.076V34.6364H159.751V51Z" fill="url(#paint0_linear)"/>
<path d="M0.704545 88.875H4.32955V99H6.07955V88.875H9.71023V87.3636H0.704545V88.875ZM14.0628 93.8182C14.0628 92.4261 14.9435 91.6307 16.1537 91.6307C17.3241 91.6307 18.023 92.375 18.023 93.6534V99H19.7219V93.4489C19.7219 91.2727 18.5287 90.1591 16.7332 90.1591C15.3753 90.1591 14.5571 90.75 14.148 91.6932H14.0401V87.3636H12.3639V99H14.0628V93.8182ZM30.0844 89.6648C30.0844 90.5227 29.9821 91.1648 29.4651 91.4489C28.7548 90.625 27.7207 90.1591 26.4651 90.1591C24.0048 90.1591 22.3969 91.9602 22.3969 94.6761C22.3969 97.375 24.0048 99.1761 26.4651 99.1761C28.9253 99.1761 30.5332 97.375 30.5332 94.6761C30.5332 93.7841 30.3571 92.9886 30.0389 92.3295C31.0048 91.9148 31.3969 90.9773 31.3969 89.6648H30.0844ZM26.4707 97.75C24.8628 97.75 24.1128 96.3466 24.1128 94.6705C24.1128 93 24.8628 91.5795 26.4707 91.5795C28.0673 91.5795 28.8173 93 28.8173 94.6705C28.8173 96.3466 28.0673 97.75 26.4707 97.75ZM25.806 89.108H27.1639L25.8401 86.4886H24.0503L25.806 89.108ZM33.3389 99H35.0378V90.2727H33.3389V99ZM34.1969 88.9261C34.7821 88.9261 35.2707 88.4716 35.2707 87.9148C35.2707 87.358 34.7821 86.8977 34.1969 86.8977C33.606 86.8977 33.123 87.358 33.123 87.9148C33.123 88.4716 33.606 88.9261 34.1969 88.9261ZM46.8168 102.455C49.0384 102.455 50.7543 101.438 50.7543 99.1932V90.2727H49.0895V91.6875H48.9645C48.6634 91.1477 48.0611 90.1591 46.4361 90.1591C44.3281 90.1591 42.777 91.8239 42.777 94.6023C42.777 97.3864 44.3622 98.8693 46.4247 98.8693C48.027 98.8693 48.6463 97.9659 48.9531 97.4091H49.0611V99.125C49.0611 100.494 48.1236 101.085 46.8338 101.085C45.419 101.085 44.8679 100.375 44.5668 99.875L43.1065 100.477C43.5668 101.545 44.7315 102.455 46.8168 102.455ZM46.7997 97.4602C45.2827 97.4602 44.4929 96.2955 44.4929 94.5795C44.4929 92.9034 45.2656 91.6023 46.7997 91.6023C48.2827 91.6023 49.0781 92.8125 49.0781 94.5795C49.0781 96.3807 48.2656 97.4602 46.7997 97.4602ZM53.8327 99H55.5315V90.2727H53.8327V99ZM54.6906 88.9261C55.2759 88.9261 55.7645 88.4716 55.7645 87.9148C55.7645 87.358 55.2759 86.8977 54.6906 86.8977C54.0997 86.8977 53.6168 87.358 53.6168 87.9148C53.6168 88.4716 54.0997 88.9261 54.6906 88.9261ZM61.1568 99.1932C62.6 99.1932 63.4125 98.4602 63.7364 97.8068H63.8045V99H65.4636V93.2045C65.4636 90.6648 63.4636 90.1591 62.0773 90.1591C60.4977 90.1591 59.0432 90.7955 58.475 92.3864L60.0716 92.75C60.3216 92.1307 60.958 91.5341 62.1 91.5341C63.1966 91.5341 63.7591 92.108 63.7591 93.0966V93.1364C63.7591 93.7557 63.1227 93.7443 61.5545 93.9261C59.9011 94.1193 58.208 94.5511 58.208 96.5341C58.208 98.25 59.4977 99.1932 61.1568 99.1932ZM61.5261 97.8295C60.5659 97.8295 59.8727 97.3977 59.8727 96.5568C59.8727 95.6477 60.6795 95.3239 61.6625 95.1932C62.2136 95.1193 63.5205 94.9716 63.7648 94.7273V95.8523C63.7648 96.8864 62.9409 97.8295 61.5261 97.8295ZM70.2253 93.8182C70.2253 92.4261 71.0776 91.6307 72.2594 91.6307C73.4128 91.6307 74.1116 92.3864 74.1116 93.6534V99H75.8105V93.4489C75.8105 91.2898 74.623 90.1591 72.8389 90.1591C71.5264 90.1591 70.6685 90.767 70.2651 91.6932H70.1571V90.2727H68.5264V99H70.2253V93.8182ZM87.5994 99.1761C89.6619 99.1761 90.9972 97.9375 91.1847 96.2386H89.5312C89.3153 97.1818 88.5824 97.7386 87.6108 97.7386C86.1733 97.7386 85.2472 96.5398 85.2472 94.6364C85.2472 92.767 86.1903 91.5909 87.6108 91.5909C88.6903 91.5909 89.3494 92.2727 89.5312 93.0909H91.1847C91.0028 91.3295 89.5653 90.1591 87.5824 90.1591C85.1222 90.1591 83.5312 92.0114 83.5312 94.6761C83.5312 97.3068 85.0653 99.1761 87.5994 99.1761ZM96.3412 99.1932C97.7844 99.1932 98.5969 98.4602 98.9207 97.8068H98.9889V99H100.648V93.2045C100.648 90.6648 98.648 90.1591 97.2617 90.1591C95.6821 90.1591 94.2276 90.7955 93.6594 92.3864L95.256 92.75C95.506 92.1307 96.1423 91.5341 97.2844 91.5341C98.381 91.5341 98.9435 92.108 98.9435 93.0966V93.1364C98.9435 93.7557 98.3071 93.7443 96.7389 93.9261C95.0855 94.1193 93.3923 94.5511 93.3923 96.5341C93.3923 98.25 94.6821 99.1932 96.3412 99.1932ZM96.7105 97.8295C95.7503 97.8295 95.0571 97.3977 95.0571 96.5568C95.0571 95.6477 95.8639 95.3239 96.8469 95.1932C97.398 95.1193 98.7048 94.9716 98.9492 94.7273V95.8523C98.9492 96.8864 98.1253 97.8295 96.7105 97.8295ZM103.711 99H105.41V93.6193C105.41 92.4432 106.234 91.625 107.199 91.625C108.143 91.625 108.796 92.25 108.796 93.1989V99H110.489V93.4375C110.489 92.3864 111.131 91.625 112.239 91.625C113.137 91.625 113.876 92.125 113.876 93.3068V99H115.574V93.1477C115.574 91.1534 114.461 90.1591 112.881 90.1591C111.626 90.1591 110.682 90.7614 110.262 91.6932H110.171C109.79 90.7386 108.989 90.1591 107.824 90.1591C106.671 90.1591 105.813 90.733 105.449 91.6932H105.341V90.2727H103.711V99ZM123.686 99H125.385V95.9034L126.231 95.0568L129.197 99H131.282L127.51 94.017L131.044 90.2727H129.01L125.532 93.9659H125.385V87.3636H123.686V99ZM136.794 99.1761C138.697 99.1761 140.044 98.2386 140.43 96.8182L138.822 96.5284C138.516 97.3523 137.777 97.7727 136.811 97.7727C135.357 97.7727 134.379 96.8295 134.334 95.1477H140.538V94.5455C140.538 91.392 138.652 90.1591 136.675 90.1591C134.243 90.1591 132.641 92.0114 132.641 94.6932C132.641 97.4034 134.22 99.1761 136.794 99.1761ZM134.339 93.875C134.408 92.6364 135.305 91.5625 136.686 91.5625C138.004 91.5625 138.868 92.5398 138.874 93.875H134.339ZM133.669 89.2273H135.351L136.624 88.1023L137.885 89.2273H139.555L137.243 87.2557H135.976L133.669 89.2273ZM138.947 87.9659H140.192L141.868 85.892H140.135L138.947 87.9659ZM147.297 90.2727H145.507V88.1818H143.809V90.2727H142.53V91.6364H143.809V96.7898C143.803 98.375 145.013 99.142 146.354 99.1136C146.894 99.108 147.257 99.0057 147.456 98.9318L147.149 97.5284C147.036 97.5511 146.826 97.6023 146.553 97.6023C146.002 97.6023 145.507 97.4205 145.507 96.4375V91.6364H147.297V90.2727ZM156.71 87.3636H155.011V99H156.71V87.3636ZM162.335 99.1932C163.778 99.1932 164.591 98.4602 164.914 97.8068H164.983V99H166.642V93.2045C166.642 90.6648 164.642 90.1591 163.255 90.1591C161.676 90.1591 160.221 90.7955 159.653 92.3864L161.25 92.75C161.5 92.1307 162.136 91.5341 163.278 91.5341C164.375 91.5341 164.937 92.108 164.937 93.0966V93.1364C164.937 93.7557 164.301 93.7443 162.733 93.9261C161.079 94.1193 159.386 94.5511 159.386 96.5341C159.386 98.25 160.676 99.1932 162.335 99.1932ZM162.704 97.8295C161.744 97.8295 161.051 97.3977 161.051 96.5568C161.051 95.6477 161.858 95.3239 162.841 95.1932C163.392 95.1193 164.699 94.9716 164.943 94.7273V95.8523C164.943 96.8864 164.119 97.8295 162.704 97.8295ZM162.682 89.108H164.039L162.716 86.4886H160.926L162.682 89.108ZM169.705 99H171.403V93.6193C171.403 92.4432 172.227 91.625 173.193 91.625C174.136 91.625 174.79 92.25 174.79 93.1989V99H176.483V93.4375C176.483 92.3864 177.125 91.625 178.233 91.625C179.131 91.625 179.869 92.125 179.869 93.3068V99H181.568V93.1477C181.568 91.1534 180.455 90.1591 178.875 90.1591C177.619 90.1591 176.676 90.7614 176.256 91.6932H176.165C175.784 90.7386 174.983 90.1591 173.818 90.1591C172.665 90.1591 171.807 90.733 171.443 91.6932H171.335V90.2727H169.705V99ZM197.145 90.2727H195.322L193.117 96.9886H193.026L190.816 90.2727H188.992L192.163 99H193.981L197.145 90.2727ZM199.542 99H201.241V90.2727H199.542V99ZM200.4 88.9261C200.985 88.9261 201.474 88.4716 201.474 87.9148C201.474 87.358 200.985 86.8977 200.4 86.8977C199.809 86.8977 199.326 87.358 199.326 87.9148C199.326 88.4716 199.809 88.9261 200.4 88.9261ZM208.088 99.1761C209.991 99.1761 211.338 98.2386 211.724 96.8182L210.116 96.5284C209.809 97.3523 209.071 97.7727 208.105 97.7727C206.65 97.7727 205.673 96.8295 205.628 95.1477H211.832V94.5455C211.832 91.392 209.946 90.1591 207.968 90.1591C205.537 90.1591 203.934 92.0114 203.934 94.6932C203.934 97.4034 205.514 99.1761 208.088 99.1761ZM205.633 93.875C205.701 92.6364 206.599 91.5625 207.98 91.5625C209.298 91.5625 210.162 92.5398 210.167 93.875H205.633ZM206.736 89.2273L207.906 87.7045L209.071 89.2273H210.611V89.142L208.611 86.733H207.196L205.201 89.142V89.2273H206.736ZM207.9 102.011C208.486 102.011 208.974 101.557 208.974 101C208.974 100.443 208.486 99.983 207.9 99.983C207.309 99.983 206.826 100.443 206.826 101C206.826 101.557 207.309 102.011 207.9 102.011ZM218.193 99.1761C220.256 99.1761 221.591 97.9375 221.778 96.2386H220.125C219.909 97.1818 219.176 97.7386 218.205 97.7386C216.767 97.7386 215.841 96.5398 215.841 94.6364C215.841 92.767 216.784 91.5909 218.205 91.5909C219.284 91.5909 219.943 92.2727 220.125 93.0909H221.778C221.597 91.3295 220.159 90.1591 218.176 90.1591C215.716 90.1591 214.125 92.0114 214.125 94.6761C214.125 97.3068 215.659 99.1761 218.193 99.1761Z" fill="#4F565F"/>
<path d="M1.06534 116.985H7.74503V135H12.3047V116.985H18.9844V113.182H1.06534V116.985ZM36.9247 117.731C36.9141 119.798 36.6797 120.959 34.7621 121.246V118.636H30.2237V128.033C30.2344 130.227 28.7322 131.378 27.1023 131.378C25.3871 131.378 24.2791 130.174 24.2685 128.246V118.636H19.7301V129.055C19.7408 132.88 21.978 135.213 25.2699 135.213C27.7308 135.213 29.4993 133.945 30.2344 132.028H30.4048V135H34.7621V123.303C38.3629 122.994 39.5455 121.097 39.5561 117.731H36.9247ZM25.696 116.527H28.9027L26.6335 111.68H22.4467L25.696 116.527ZM47.7939 135H63.3478V131.229H54.1859V131.08L57.3713 127.958C61.8564 123.867 63.0602 121.822 63.0602 119.339C63.0602 115.558 59.9707 112.884 55.2939 112.884C50.7129 112.884 47.5701 115.621 47.5808 119.904H51.9593C51.9487 117.816 53.2697 116.538 55.2619 116.538C57.1795 116.538 58.6071 117.731 58.6071 119.648C58.6071 121.385 57.5417 122.578 55.5602 124.485L47.7939 131.676V135ZM78.2147 125.54C78.2253 123.43 79.4824 122.195 81.3148 122.195C83.1365 122.195 84.2338 123.388 84.2232 125.391V135H88.7615V124.581C88.7615 120.767 86.5243 118.423 83.1152 118.423C80.6863 118.423 78.9284 119.616 78.1934 121.523H78.0016V118.636H73.6763V135H78.2147V125.54ZM97.0046 135.309C99.4229 135.309 100.989 134.254 101.788 132.731H101.916V135H106.22V123.963C106.22 120.064 102.917 118.423 99.2738 118.423C95.3533 118.423 92.7752 120.298 92.1467 123.281L96.3441 123.622C96.6531 122.536 97.6225 121.737 99.2525 121.737C100.797 121.737 101.681 122.514 101.681 123.857V123.92C101.681 124.975 100.563 125.114 97.7184 125.391C94.4798 125.689 91.5714 126.776 91.5714 130.43C91.5714 133.668 93.8832 135.309 97.0046 135.309ZM101.554 112.926C101.554 113.928 100.957 114.833 99.4442 114.833C97.8888 114.833 97.3136 113.906 97.3242 112.926H94.1815C94.1815 115.504 96.2163 117.23 99.4442 117.23C102.672 117.23 104.707 115.504 104.718 112.926H101.554ZM98.3043 132.177C96.9087 132.177 95.9073 131.527 95.9073 130.281C95.9073 129.002 96.962 128.374 98.56 128.15C99.5508 128.011 101.17 127.777 101.713 127.415V129.151C101.713 130.866 100.297 132.177 98.3043 132.177ZM109.741 135H114.279V125.178C114.279 123.366 115.43 122.163 116.942 122.163C118.434 122.163 119.435 123.185 119.435 124.794V135H123.835V125.007C123.835 123.313 124.805 122.163 126.456 122.163C127.905 122.163 128.991 123.068 128.991 124.89V135H133.519V123.995C133.519 120.447 131.41 118.423 128.363 118.423C125.966 118.423 124.102 119.648 123.43 121.523H123.26C122.738 119.627 121.065 118.423 118.817 118.423C116.612 118.423 114.94 119.595 114.258 121.523H114.066V118.636H109.741V135Z" fill="url(#paint1_linear)"/>
<defs>
<linearGradient id="paint0_linear" x1="73.5314" y1="28.3192" x2="117.913" y2="110.767" gradientUnits="userSpaceOnUse">
<stop stop-color="#0066B3"/>
<stop offset="1" stop-color="#1187E0"/>
</linearGradient>
<linearGradient id="paint1_linear" x1="73.5314" y1="112.319" x2="117.913" y2="194.767" gradientUnits="userSpaceOnUse">
<stop stop-color="#0066B3"/>
<stop offset="1" stop-color="#1187E0"/>
</linearGradient>
</defs>
</svg>
