<svg width="371" height="135" viewBox="0 0 371 135" fill="none" xmlns="http://www.w3.org/2000/svg">
<path d="M7.61932 27.8182H2.1733V54H7.61932V27.8182ZM17.9413 54.3707C20.8433 54.3707 22.7226 53.1051 23.6814 51.277H23.8348V54H28.9996V40.7557C28.9996 36.0767 25.0365 34.108 20.6643 34.108C15.9598 34.108 12.866 36.358 12.1118 39.9375L17.1487 40.3466C17.5194 39.0426 18.6828 38.0838 20.6388 38.0838C22.4925 38.0838 23.5535 39.017 23.5535 40.6278V40.7045C23.5535 41.9702 22.2112 42.1364 18.7979 42.4688C14.9115 42.8267 11.4214 44.1307 11.4214 48.5156C11.4214 52.402 14.1956 54.3707 17.9413 54.3707ZM19.501 50.6122C17.8263 50.6122 16.6246 49.8324 16.6246 48.3366C16.6246 46.8026 17.8902 46.0483 19.8078 45.7798C20.9967 45.6136 22.9399 45.3324 23.5919 44.8977V46.9815C23.5919 49.0398 21.8916 50.6122 19.501 50.6122ZM18.9768 31.8324H22.8248L20.1018 26.0156H15.0777L18.9768 31.8324ZM51.1489 54.3835C56.3776 54.3835 59.6631 51.3153 59.9188 46.8026H54.7796C54.46 48.8991 53.0793 50.0753 51.2128 50.0753C48.6688 50.0753 47.0196 47.9403 47.0196 44.1818C47.0196 40.4744 48.6816 38.3523 51.2128 38.3523C53.2071 38.3523 54.4855 39.669 54.7796 41.625H59.9188C59.6887 37.0866 56.2497 34.108 51.1233 34.108C45.1659 34.108 41.4841 38.2372 41.4841 44.2585C41.4841 50.2287 45.102 54.3835 51.1489 54.3835ZM69.3651 54.3707C72.2671 54.3707 74.1463 53.1051 75.1051 51.277H75.2585V54H80.4233V40.7557C80.4233 36.0767 76.4602 34.108 72.0881 34.108C67.3835 34.108 64.2898 36.358 63.5355 39.9375L68.5725 40.3466C68.9432 39.0426 70.1065 38.0838 72.0625 38.0838C73.9162 38.0838 74.9773 39.017 74.9773 40.6278V40.7045C74.9773 41.9702 73.635 42.1364 70.2216 42.4688C66.3352 42.8267 62.8452 44.1307 62.8452 48.5156C62.8452 52.402 65.6193 54.3707 69.3651 54.3707ZM70.9247 50.6122C69.25 50.6122 68.0483 49.8324 68.0483 48.3366C68.0483 46.8026 69.3139 46.0483 71.2315 45.7798C72.4205 45.6136 74.3636 45.3324 75.0156 44.8977V46.9815C75.0156 49.0398 73.3154 50.6122 70.9247 50.6122ZM70.3367 31.8324H74.1847L78.0838 26.0156H73.0469L70.3367 31.8324ZM93.8806 54.3835C99.1093 54.3835 102.395 51.3153 102.65 46.8026H97.5113C97.1917 48.8991 95.811 50.0753 93.9445 50.0753C91.4005 50.0753 89.7514 47.9403 89.7514 44.1818C89.7514 40.4744 91.4133 38.3523 93.9445 38.3523C95.9389 38.3523 97.2173 39.669 97.5113 41.625H102.65C102.42 37.0866 98.9815 34.108 93.855 34.108C87.8977 34.108 84.2158 38.2372 84.2158 44.2585C84.2158 50.2287 87.8337 54.3835 93.8806 54.3835ZM115.292 54H132.052V49.4361H120.827V27.8182H115.292V54ZM141.575 54.3707C144.477 54.3707 146.356 53.1051 147.315 51.277H147.468V54H152.633V40.7557C152.633 36.0767 148.67 34.108 144.298 34.108C139.593 34.108 136.499 36.358 135.745 39.9375L140.782 40.3466C141.153 39.0426 142.316 38.0838 144.272 38.0838C146.126 38.0838 147.187 39.017 147.187 40.6278V40.7045C147.187 41.9702 145.844 42.1364 142.431 42.4688C138.545 42.8267 135.055 44.1307 135.055 48.5156C135.055 52.402 137.829 54.3707 141.575 54.3707ZM141.933 32.0369L144.502 28.9176L147.072 32.0369H151.712V31.858L146.522 26.233H142.469L137.292 31.858V32.0369H141.933ZM143.134 50.6122C141.46 50.6122 140.258 49.8324 140.258 48.3366C140.258 46.8026 141.523 46.0483 143.441 45.7798C144.63 45.6136 146.573 45.3324 147.225 44.8977V46.9815C147.225 49.0398 145.525 50.6122 143.134 50.6122ZM144.272 61.3636C145.896 61.3636 147.225 60.1236 147.225 58.6023C147.225 57.0938 145.896 55.8537 144.272 55.8537C142.661 55.8537 141.332 57.0938 141.332 58.6023C141.332 60.1236 142.661 61.3636 144.272 61.3636ZM157.218 61.3636H162.664V50.8551H162.83C163.584 52.4915 165.234 54.3196 168.404 54.3196C172.879 54.3196 176.369 50.7784 176.369 44.2074C176.369 37.4574 172.725 34.108 168.417 34.108C165.131 34.108 163.559 36.0639 162.83 37.6619H162.587V34.3636H157.218V61.3636ZM162.549 44.1818C162.549 40.679 164.032 38.4418 166.678 38.4418C169.376 38.4418 170.807 40.7812 170.807 44.1818C170.807 47.608 169.35 49.9858 166.678 49.9858C164.057 49.9858 162.549 47.6847 162.549 44.1818ZM188.156 32.3821H196.172V54H201.644V32.3821H209.659V27.8182H188.156V32.3821ZM211.419 54H216.865V42.8906C216.865 40.4744 218.629 38.8125 221.033 38.8125C221.787 38.8125 222.822 38.9403 223.334 39.1065V34.2741C222.848 34.1591 222.171 34.0824 221.621 34.0824C219.422 34.0824 217.619 35.3608 216.903 37.7898H216.699V34.3636H211.419V54ZM226.51 54H231.956V34.3636H226.51V54ZM227.353 31.8324H231.201L228.478 26.0156H223.454L227.353 31.8324ZM242.124 42.6477C242.137 40.1165 243.645 38.6335 245.844 38.6335C248.03 38.6335 249.347 40.0653 249.334 42.4688V54H254.78V41.4972C254.78 36.9205 252.096 34.108 248.005 34.108C245.09 34.108 242.981 35.5398 242.099 37.8281H241.868V34.3636H236.678V54H242.124V42.6477ZM264.879 42.6477C264.891 40.1165 266.438 38.6335 268.663 38.6335C270.874 38.6335 272.178 40.0526 272.166 42.4688V54H277.612V41.4972C277.624 36.8949 274.914 34.108 270.823 34.108C267.845 34.108 265.85 35.5142 264.955 37.8281H264.725V27.8182H259.433V54H264.879V42.6477ZM295.782 27.8182H289.633L298.671 54H305.805L314.83 27.8182H308.694L302.353 47.7102H302.11L295.782 27.8182ZM318.239 54H323.685V34.3636H318.239V54ZM320.975 31.8324C322.599 31.8324 323.928 30.5923 323.928 29.071C323.928 27.5625 322.599 26.3224 320.975 26.3224C319.364 26.3224 318.035 27.5625 318.035 29.071C318.035 30.5923 319.364 31.8324 320.975 31.8324ZM337.357 54.3835C342.215 54.3835 345.487 52.0185 346.254 48.375L341.217 48.0426C340.668 49.5384 339.262 50.3182 337.446 50.3182C334.723 50.3182 332.997 48.5156 332.997 45.5881V45.5753H346.369V44.0795C346.369 37.4062 342.33 34.108 337.139 34.108C331.361 34.108 327.615 38.2116 327.615 44.2713C327.615 50.4972 331.31 54.3835 337.357 54.3835ZM334.442 32.0369L337.012 28.9176L339.581 32.0369H344.222V31.858L339.031 26.233H334.979L329.801 31.858V32.0369H334.442ZM332.997 42.2003C333.112 39.9631 334.813 38.1733 337.229 38.1733C339.594 38.1733 341.23 39.8608 341.243 42.2003H332.997ZM355.729 42.6477C355.742 40.1165 357.251 38.6335 359.45 38.6335C361.636 38.6335 362.952 40.0653 362.94 42.4688V54H368.386V41.4972C368.386 36.9205 365.701 34.108 361.61 34.108C358.695 34.108 356.586 35.5398 355.704 37.8281H355.474V34.3636H350.283V54H355.729V42.6477Z" fill="url(#paint0_linear)"/>
<path d="M251.418 91.9545C251.423 90.8295 252.094 90.1705 253.071 90.1705C254.043 90.1705 254.628 90.8068 254.622 91.875V97H257.043V91.4432C257.043 89.4091 255.849 88.1591 254.031 88.1591C252.736 88.1591 251.798 88.7955 251.406 89.8125H251.304V88.2727H248.997V97H251.418V91.9545ZM261.439 97.1648C262.729 97.1648 263.564 96.6023 263.99 95.7898H264.058V97H266.354V91.1136C266.354 89.0341 264.592 88.1591 262.649 88.1591C260.558 88.1591 259.183 89.1591 258.848 90.75L261.087 90.9318C261.251 90.3523 261.768 89.9261 262.638 89.9261C263.462 89.9261 263.933 90.3409 263.933 91.0568V91.0909C263.933 91.6534 263.337 91.7273 261.82 91.875C260.092 92.0341 258.541 92.6136 258.541 94.5625C258.541 96.2898 259.774 97.1648 261.439 97.1648ZM263.865 85.2273C263.865 85.7614 263.547 86.2443 262.74 86.2443C261.911 86.2443 261.604 85.75 261.609 85.2273H259.933C259.933 86.6023 261.018 87.5227 262.74 87.5227C264.462 87.5227 265.547 86.6023 265.553 85.2273H263.865ZM262.132 95.4943C261.388 95.4943 260.854 95.1477 260.854 94.483C260.854 93.8011 261.416 93.4659 262.268 93.3466C262.797 93.2727 263.661 93.1477 263.95 92.9545V93.8807C263.95 94.7955 263.195 95.4943 262.132 95.4943ZM268.232 97H270.652V91.7614C270.652 90.7955 271.266 90.1534 272.072 90.1534C272.868 90.1534 273.402 90.6989 273.402 91.5568V97H275.749V91.6705C275.749 90.767 276.266 90.1534 277.146 90.1534C277.919 90.1534 278.499 90.6364 278.499 91.608V97H280.913V91.1307C280.913 89.2386 279.788 88.1591 278.163 88.1591C276.885 88.1591 275.891 88.8125 275.533 89.8125H275.442C275.163 88.8011 274.271 88.1591 273.072 88.1591C271.896 88.1591 271.004 88.7841 270.641 89.8125H270.538V88.2727H268.232V97ZM211.966 117H214.386V114.227L215.04 113.483L217.42 117H220.256L216.852 112.051L220.091 108.273H217.312L214.517 111.585H214.386V105.364H211.966V117ZM221.278 117H223.699V108.273H221.278V117ZM222.494 107.148C223.216 107.148 223.807 106.597 223.807 105.92C223.807 105.25 223.216 104.699 222.494 104.699C221.778 104.699 221.188 105.25 221.188 105.92C221.188 106.597 221.778 107.148 222.494 107.148ZM228.058 111.955C228.064 110.83 228.734 110.17 229.712 110.17C230.683 110.17 231.268 110.807 231.263 111.875V117H233.683V111.443C233.683 109.409 232.49 108.159 230.672 108.159C229.376 108.159 228.439 108.795 228.047 109.812H227.945V108.273H225.638V117H228.058V111.955ZM238.011 111.955C238.017 110.83 238.705 110.17 239.693 110.17C240.676 110.17 241.256 110.801 241.25 111.875V117H243.67V111.443C243.676 109.398 242.472 108.159 240.653 108.159C239.33 108.159 238.443 108.784 238.045 109.812H237.943V105.364H235.591V117H238.011V111.955ZM251.699 111.955C251.705 110.83 252.375 110.17 253.352 110.17C254.324 110.17 254.909 110.807 254.903 111.875V117H257.324V111.443C257.324 109.409 256.131 108.159 254.312 108.159C253.017 108.159 252.08 108.795 251.688 109.812H251.585V108.273H249.278V117H251.699V111.955ZM263.163 120.455C265.658 120.455 267.43 119.318 267.43 117.085V108.273H265.027V109.739H264.936C264.612 109.028 263.902 108.159 262.442 108.159C260.527 108.159 258.908 109.648 258.908 112.619C258.908 115.523 260.482 116.875 262.447 116.875C263.839 116.875 264.618 116.176 264.936 115.455H265.038V117.051C265.038 118.25 264.271 118.716 263.22 118.716C262.152 118.716 261.612 118.25 261.413 117.722L259.175 118.023C259.464 119.398 260.811 120.455 263.163 120.455ZM263.214 115.057C262.027 115.057 261.379 114.114 261.379 112.608C261.379 111.125 262.016 110.085 263.214 110.085C264.391 110.085 265.05 111.08 265.05 112.608C265.05 114.148 264.379 115.057 263.214 115.057ZM271.777 111.955C271.783 110.83 272.47 110.17 273.459 110.17C274.442 110.17 275.021 110.801 275.016 111.875V117H277.436V111.443C277.442 109.398 276.237 108.159 274.419 108.159C273.095 108.159 272.209 108.784 271.811 109.812H271.709V105.364H269.357V117H271.777V111.955ZM279.341 117H281.761V108.273H279.341V117ZM280.557 107.148C281.278 107.148 281.869 106.597 281.869 105.92C281.869 105.25 281.278 104.699 280.557 104.699C279.841 104.699 279.25 105.25 279.25 105.92C279.25 106.597 279.841 107.148 280.557 107.148ZM287.678 117.17C289.837 117.17 291.291 116.119 291.632 114.5L289.393 114.352C289.149 115.017 288.524 115.364 287.717 115.364C286.507 115.364 285.74 114.562 285.74 113.261V113.256H291.683V112.591C291.683 109.625 289.888 108.159 287.581 108.159C285.013 108.159 283.348 109.983 283.348 112.676C283.348 115.443 284.99 117.17 287.678 117.17ZM286.382 107.239L287.524 105.852L288.666 107.239H290.729V107.159L288.422 104.659H286.621L284.32 107.159V107.239H286.382ZM285.74 111.756C285.791 110.761 286.547 109.966 287.621 109.966C288.672 109.966 289.399 110.716 289.405 111.756H285.74ZM287.524 120.273C288.246 120.273 288.837 119.722 288.837 119.045C288.837 118.375 288.246 117.824 287.524 117.824C286.808 117.824 286.217 118.375 286.217 119.045C286.217 119.722 286.808 120.273 287.524 120.273ZM293.263 117H295.683V111.761C295.683 110.795 296.297 110.153 297.104 110.153C297.899 110.153 298.433 110.699 298.433 111.557V117H300.78V111.67C300.78 110.767 301.297 110.153 302.178 110.153C302.95 110.153 303.53 110.636 303.53 111.608V117H305.945V111.131C305.945 109.239 304.82 108.159 303.195 108.159C301.916 108.159 300.922 108.812 300.564 109.812H300.473C300.195 108.801 299.303 108.159 298.104 108.159C296.928 108.159 296.036 108.784 295.672 109.812H295.57V108.273H293.263V117Z" fill="url(#paint1_linear)"/>
<path d="M224.256 96.8679H229.267V84.608H241.527V79.5966H229.267V67.3366H224.256V79.5966H211.996V84.608H224.256V96.8679Z" fill="url(#paint2_linear)"/>
<path d="M183.599 118.716C195.361 118.716 203.773 112.247 203.747 103.298C203.773 96.7784 199.631 92.125 191.935 91.1534V90.7443C197.79 89.696 201.83 85.554 201.804 79.6733C201.83 71.4148 194.594 64.9205 183.753 64.9205C173.014 64.9205 164.935 71.2102 164.781 80.2614H175.392C175.52 76.2727 179.176 73.6903 183.702 73.6903C188.176 73.6903 191.168 76.4006 191.142 80.3381C191.168 84.4545 187.665 87.2415 182.628 87.2415H177.744V95.3722H182.628C188.56 95.3722 192.267 98.3381 192.241 102.557C192.267 106.724 188.688 109.588 183.625 109.588C178.741 109.588 175.085 107.031 174.881 103.196H163.733C163.912 112.349 172.094 118.716 183.599 118.716Z" fill="url(#paint3_linear)"/>
<path d="M105.045 15C108.591 15 110.642 12.8011 110.642 9.16477C110.642 5.54545 108.591 3.36364 105.165 3.36364H101.278V8.36932H99.5398V9.54545H101.278V15H105.045ZM103.034 13.4659V9.54545H104.761V8.36932H103.034V4.89773H105.057C107.602 4.89773 108.915 6.42045 108.915 9.16477C108.915 11.9205 107.602 13.4659 104.949 13.4659H103.034ZM117.165 15.1761C119.625 15.1761 121.233 13.375 121.233 10.6761C121.233 7.96023 119.625 6.15909 117.165 6.15909C114.705 6.15909 113.097 7.96023 113.097 10.6761C113.097 13.375 114.705 15.1761 117.165 15.1761ZM117.171 13.75C115.563 13.75 114.813 12.3466 114.813 10.6705C114.813 9 115.563 7.57955 117.171 7.57955C118.767 7.57955 119.517 9 119.517 10.6705C119.517 12.3466 118.767 13.75 117.171 13.75ZM114.228 5.22727H115.909L117.182 4.10227L118.443 5.22727H120.114L117.801 3.25568H116.534L114.228 5.22727ZM119.506 3.96591H120.75L122.426 1.89205H120.693L119.506 3.96591ZM123.93 15H125.628V6.27273H123.93V15ZM124.788 4.92614C125.373 4.92614 125.861 4.47159 125.861 3.91477C125.861 3.35795 125.373 2.89773 124.788 2.89773C124.197 2.89773 123.714 3.35795 123.714 3.91477C123.714 4.47159 124.197 4.92614 124.788 4.92614ZM137.822 6.27273H136.032V4.18182H134.334V6.27273H133.055V7.63636H134.334V12.7898C134.328 14.375 135.538 15.142 136.879 15.1136C137.419 15.108 137.782 15.0057 137.981 14.9318L137.674 13.5284C137.561 13.5511 137.351 13.6023 137.078 13.6023C136.527 13.6023 136.032 13.4205 136.032 12.4375V7.63636H137.822V6.27273ZM148.82 5.85227C148.814 6.92614 148.763 7.47159 147.751 7.59091V6.27273H146.047V11.3807C146.053 12.8636 144.95 13.5682 143.996 13.5682C142.945 13.5682 142.217 12.8068 142.217 11.6193V6.27273H140.518V11.8239C140.518 13.9886 141.706 15.1136 143.382 15.1136C144.695 15.1136 145.587 14.4205 145.99 13.4886H146.081V15H147.751V8.57955C149.53 8.44886 150.07 7.52273 150.075 5.85227H148.82ZM159.019 5.66477C159.019 6.52273 158.916 7.16477 158.399 7.44886C157.689 6.625 156.655 6.15909 155.399 6.15909C152.939 6.15909 151.331 7.96023 151.331 10.6761C151.331 13.375 152.939 15.1761 155.399 15.1761C157.86 15.1761 159.468 13.375 159.468 10.6761C159.468 9.78409 159.291 8.98864 158.973 8.32955C159.939 7.91477 160.331 6.97727 160.331 5.66477H159.019ZM155.405 13.75C153.797 13.75 153.047 12.3466 153.047 10.6705C153.047 9 153.797 7.57955 155.405 7.57955C157.002 7.57955 157.752 9 157.752 10.6705C157.752 12.3466 157.002 13.75 155.405 13.75ZM155.399 18.0114C155.985 18.0114 156.473 17.5568 156.473 17C156.473 16.4432 155.985 15.983 155.399 15.983C154.809 15.983 154.326 16.4432 154.326 17C154.326 17.5568 154.809 18.0114 155.399 18.0114ZM163.972 9.81818C163.972 8.42614 164.824 7.63068 166.006 7.63068C167.16 7.63068 167.859 8.38636 167.859 9.65341V15H169.557V9.44886C169.557 7.28977 168.37 6.15909 166.586 6.15909C165.273 6.15909 164.415 6.76705 164.012 7.69318H163.904V6.27273H162.273V15H163.972V9.81818ZM176.295 18.4545C178.516 18.4545 180.232 17.4375 180.232 15.1932V6.27273H178.568V7.6875H178.443C178.141 7.14773 177.539 6.15909 175.914 6.15909C173.806 6.15909 172.255 7.82386 172.255 10.6023C172.255 13.3864 173.84 14.8693 175.903 14.8693C177.505 14.8693 178.124 13.9659 178.431 13.4091H178.539V15.125C178.539 16.4943 177.602 17.0852 176.312 17.0852C174.897 17.0852 174.346 16.375 174.045 15.875L172.585 16.4773C173.045 17.5455 174.21 18.4545 176.295 18.4545ZM176.278 13.4602C174.761 13.4602 173.971 12.2955 173.971 10.5795C173.971 8.90341 174.744 7.60227 176.278 7.60227C177.761 7.60227 178.556 8.8125 178.556 10.5795C178.556 12.3807 177.744 13.4602 176.278 13.4602ZM190.885 15.1932C192.328 15.1932 193.141 14.4602 193.464 13.8068H193.533V15H195.192V9.20455C195.192 6.66477 193.192 6.15909 191.805 6.15909C190.226 6.15909 188.771 6.79545 188.203 8.38636L189.8 8.75C190.05 8.13068 190.686 7.53409 191.828 7.53409C192.925 7.53409 193.487 8.10795 193.487 9.09659V9.13636C193.487 9.75568 192.851 9.74432 191.283 9.92614C189.629 10.1193 187.936 10.5511 187.936 12.5341C187.936 14.25 189.226 15.1932 190.885 15.1932ZM191.254 13.8295C190.294 13.8295 189.601 13.3977 189.601 12.5568C189.601 11.6477 190.408 11.3239 191.391 11.1932C191.942 11.1193 193.249 10.9716 193.493 10.7273V11.8523C193.493 12.8864 192.669 13.8295 191.254 13.8295ZM191.192 5.10795H192.55L194.311 2.48864H192.521L191.192 5.10795ZM198.255 18.2727H199.953V13.642H200.056C200.363 14.1989 200.988 15.1705 202.578 15.1705C204.692 15.1705 206.226 13.4773 206.226 10.6534C206.226 7.82386 204.669 6.15909 202.561 6.15909C200.942 6.15909 200.357 7.14773 200.056 7.6875H199.914V6.27273H198.255V18.2727ZM199.919 10.6364C199.919 8.8125 200.715 7.60227 202.198 7.60227C203.738 7.60227 204.51 8.90341 204.51 10.6364C204.51 12.3864 203.715 13.7216 202.198 13.7216C200.738 13.7216 199.919 12.4716 199.919 10.6364ZM217.231 15.1705C218.822 15.1705 219.447 14.1989 219.754 13.642H219.896V15H221.555V3.36364H219.856V7.6875H219.754C219.447 7.14773 218.867 6.15909 217.242 6.15909C215.134 6.15909 213.583 7.82386 213.583 10.6534C213.583 13.4773 215.112 15.1705 217.231 15.1705ZM217.606 13.7216C216.089 13.7216 215.299 12.3864 215.299 10.6364C215.299 8.90341 216.072 7.60227 217.606 7.60227C219.089 7.60227 219.884 8.8125 219.884 10.6364C219.884 12.4716 219.072 13.7216 217.606 13.7216ZM230.308 11.3807C230.314 12.8636 229.211 13.5682 228.257 13.5682C227.206 13.5682 226.478 12.8068 226.478 11.6193V6.27273H224.78V11.8239C224.78 13.9886 225.967 15.1136 227.643 15.1136C228.956 15.1136 229.848 14.4205 230.251 13.4886H230.342V15H232.012V6.27273H230.308V11.3807ZM228.524 18.0114C229.109 18.0114 229.598 17.5568 229.598 17C229.598 16.4432 229.109 15.983 228.524 15.983C227.933 15.983 227.45 16.4432 227.45 17C227.45 17.5568 227.933 18.0114 228.524 18.0114ZM236.794 9.81818C236.794 8.42614 237.646 7.63068 238.828 7.63068C239.982 7.63068 240.68 8.38636 240.68 9.65341V15H242.379V9.44886C242.379 7.28977 241.192 6.15909 239.408 6.15909C238.095 6.15909 237.237 6.76705 236.834 7.69318H236.726V6.27273H235.095V15H236.794V9.81818ZM249.117 18.4545C251.338 18.4545 253.054 17.4375 253.054 15.1932V6.27273H251.389V7.6875H251.264C250.963 7.14773 250.361 6.15909 248.736 6.15909C246.628 6.15909 245.077 7.82386 245.077 10.6023C245.077 13.3864 246.662 14.8693 248.725 14.8693C250.327 14.8693 250.946 13.9659 251.253 13.4091H251.361V15.125C251.361 16.4943 250.424 17.0852 249.134 17.0852C247.719 17.0852 247.168 16.375 246.867 15.875L245.407 16.4773C245.867 17.5455 247.032 18.4545 249.117 18.4545ZM249.1 13.4602C247.583 13.4602 246.793 12.2955 246.793 10.5795C246.793 8.90341 247.566 7.60227 249.1 7.60227C250.583 7.60227 251.378 8.8125 251.378 10.5795C251.378 12.3807 250.566 13.4602 249.1 13.4602Z" fill="#4F565F"/>
<path d="M118.856 70C117.109 80.6831 119.85 86.1053 128.272 90.0568C130.563 91.1313 138.058 91.5339 135.633 90.993" stroke="white" stroke-width="4" stroke-linecap="round"/>
<path d="M134.977 84.0878C137.807 85.3965 141.296 87.1789 144.273 87.9776C146.641 88.6127 145.486 88.0999 144.848 89.2155C143.761 91.1158 134.842 100.028 134.041 99.3131" stroke="white" stroke-width="4" stroke-linecap="round"/>
<defs>
<linearGradient id="paint0_linear" x1="90.0335" y1="26.7234" x2="144.224" y2="127.574" gradientUnits="userSpaceOnUse">
<stop stop-color="#0DB14B"/>
<stop offset="1" stop-color="#07CB32"/>
</linearGradient>
<linearGradient id="paint1_linear" x1="235.753" y1="88.0213" x2="286.255" y2="116.445" gradientUnits="userSpaceOnUse">
<stop stop-color="#0DB14B"/>
<stop offset="1" stop-color="#07CB32"/>
</linearGradient>
<linearGradient id="paint2_linear" x1="216.192" y1="52.3404" x2="243.173" y2="55.6314" gradientUnits="userSpaceOnUse">
<stop stop-color="#0DB14B"/>
<stop offset="1" stop-color="#07CB32"/>
</linearGradient>
<linearGradient id="paint3_linear" x1="184.753" y1="63.2713" x2="247.08" y2="79.3995" gradientUnits="userSpaceOnUse">
<stop stop-color="#0DB14B"/>
<stop offset="1" stop-color="#07CB32"/>
</linearGradient>
</defs>
</svg>
