<svg width="313" height="129" viewBox="0 0 313 129" fill="none" xmlns="http://www.w3.org/2000/svg">
<g filter="url(#filter0_d)">
<path d="M77.3223 12H72.416L77.6973 28H83.6348L88.916 12H84.0098L80.7285 23.2812H80.6035L77.3223 12ZM92.4023 28.1875C93.9648 28.1875 95.1445 27.6562 95.8711 26.3125H95.9648V28H99.9961V19.7812C99.9961 17.5625 97.8945 15.8438 94.4648 15.8438C90.8789 15.8438 89.1133 17.7187 88.9648 19.9062H92.9336C93.0352 19.1641 93.582 18.8125 94.4023 18.8125C95.1523 18.8125 95.6836 19.1562 95.6836 19.7812V19.8125C95.6836 20.5078 94.918 20.7266 92.9023 20.875C90.4258 21.0547 88.4961 22.0547 88.4961 24.6875C88.4961 27.0781 90.1055 28.1875 92.4023 28.1875ZM93.8086 25.4687C93.0742 25.4687 92.5586 25.1094 92.5586 24.4375C92.5586 23.8203 92.9961 23.3437 93.9961 23.1875C94.6836 23.0781 95.2617 22.9375 95.7148 22.75V23.75C95.7148 24.8438 94.7852 25.4687 93.8086 25.4687ZM104.252 32.5C107.268 32.5 108.682 30.9844 109.346 29L113.721 16H109.189L107.221 24.3125H107.096L105.158 16H100.658L104.877 28.5313L104.783 28.75C104.494 29.4141 103.658 29.3906 102.596 29.0156L101.658 32.0781C102.33 32.3438 103.26 32.5 104.252 32.5ZM123.643 21.25C123.65 20.0625 124.322 19.3438 125.393 19.3438C126.479 19.3438 127.119 20.0625 127.111 21.25V28H131.424V20.3437C131.432 17.7344 129.783 15.8438 127.236 15.8438C125.471 15.8438 124.072 16.7656 123.549 18.2812H123.424V16H119.33V28H123.643V21.25ZM139.334 32.75C143.131 32.75 145.646 31.0156 145.646 27.9687V16H141.334V18.0937H141.24C140.771 16.875 139.646 15.8438 137.865 15.8438C135.49 15.8438 133.178 17.6562 133.178 22C133.178 26.1562 135.334 27.8437 137.896 27.8437C139.521 27.8437 140.803 27.1562 141.271 25.9375H141.396V27.9687C141.396 29.3828 140.576 29.8438 139.459 29.8438C138.467 29.8438 137.74 29.5469 137.615 28.7812H133.459C133.623 31.0938 135.725 32.75 139.334 32.75ZM139.49 24.7812C138.303 24.7812 137.615 23.7812 137.615 22C137.615 20.2187 138.303 19.1562 139.49 19.1562C140.678 19.1562 141.396 20.2187 141.396 22C141.396 23.75 140.678 24.7812 139.49 24.7812ZM151.184 28.1875C152.746 28.1875 153.926 27.6562 154.652 26.3125H154.746V28H158.777V19.7812C158.777 17.5625 156.676 15.8438 153.246 15.8438C149.66 15.8438 147.895 17.7187 147.746 19.9062H151.715C151.816 19.1641 152.363 18.8125 153.184 18.8125C153.934 18.8125 154.465 19.1562 154.465 19.7812V19.8125C154.465 20.5078 153.699 20.7266 151.684 20.875C149.207 21.0547 147.277 22.0547 147.277 24.6875C147.277 27.0781 148.887 28.1875 151.184 28.1875ZM151.84 14.5781L153.371 12.8594L154.902 14.5781H158.465V14.4844L154.871 10.9219H151.871L148.277 14.4844V14.5781H151.84ZM152.59 25.4687C151.855 25.4687 151.34 25.1094 151.34 24.4375C151.34 23.8203 151.777 23.3437 152.777 23.1875C153.465 23.0781 154.043 22.9375 154.496 22.75V23.75C154.496 24.8438 153.566 25.4687 152.59 25.4687ZM165.15 21.25C165.158 20.0625 165.83 19.3438 166.9 19.3438C167.986 19.3438 168.627 20.0625 168.619 21.25V28H172.932V20.3437C172.939 17.7344 171.291 15.8438 168.744 15.8438C166.979 15.8438 165.58 16.7656 165.057 18.2812H164.932V16H160.838V28H165.15V21.25ZM183.756 21.25C183.764 20.0625 184.451 19.3438 185.506 19.3438C186.607 19.3438 187.232 20.0625 187.225 21.25V28H191.537V20.3437C191.545 17.7187 189.889 15.8438 187.35 15.8438C185.576 15.8438 184.264 16.75 183.725 18.2812H183.6V12H179.443V28H183.756V21.25ZM197.01 28.1875C198.572 28.1875 199.752 27.6562 200.479 26.3125H200.572V28H204.604V19.7812C204.604 17.5625 202.502 15.8438 199.072 15.8438C195.486 15.8438 193.721 17.7187 193.572 19.9062H197.541C197.643 19.1641 198.189 18.8125 199.01 18.8125C199.76 18.8125 200.291 19.1562 200.291 19.7812V19.8125C200.291 20.5078 199.525 20.7266 197.51 20.875C195.033 21.0547 193.104 22.0547 193.104 24.6875C193.104 27.0781 194.713 28.1875 197.01 28.1875ZM197.791 14.5H200.635L199.135 11H195.447L197.791 14.5ZM198.416 25.4687C197.682 25.4687 197.166 25.1094 197.166 24.4375C197.166 23.8203 197.604 23.3437 198.604 23.1875C199.291 23.0781 199.869 22.9375 200.322 22.75V23.75C200.322 24.8438 199.393 25.4687 198.416 25.4687ZM210.977 21.25C210.984 20.0625 211.656 19.3438 212.727 19.3438C213.813 19.3438 214.453 20.0625 214.445 21.25V28H218.758V20.3437C218.766 17.7344 217.117 15.8438 214.57 15.8438C212.805 15.8438 211.406 16.7656 210.883 18.2812H210.758V16H206.664V28H210.977V21.25ZM226.668 32.75C230.465 32.75 232.98 31.0156 232.98 27.9687V16H228.668V18.0937H228.574C228.105 16.875 226.98 15.8438 225.199 15.8438C222.824 15.8438 220.512 17.6562 220.512 22C220.512 26.1562 222.668 27.8437 225.23 27.8437C226.855 27.8437 228.137 27.1562 228.605 25.9375H228.73V27.9687C228.73 29.3828 227.91 29.8438 226.793 29.8438C225.801 29.8438 225.074 29.5469 224.949 28.7812H220.793C220.957 31.0938 223.059 32.75 226.668 32.75ZM226.824 24.7812C225.637 24.7812 224.949 23.7812 224.949 22C224.949 20.2187 225.637 19.1562 226.824 19.1562C228.012 19.1562 228.73 20.2187 228.73 22C228.73 23.75 228.012 24.7812 226.824 24.7812ZM239.361 25.8125H236.111V26.6875C236.111 28.8125 235.393 31.0391 235.143 31.9063H237.799C238.174 31.0391 239.135 28.9453 239.299 26.6875L239.361 25.8125Z" fill="url(#paint0_linear)"/>
</g>
<g filter="url(#filter1_d)">
<path d="M56.6152 88H52.084L50.1465 95.9375H50.0215L48.084 88H43.5527L47.584 100H52.584L56.6152 88ZM68.6328 87.4375C68.6328 88.5 68.5 89.3203 68.0938 89.8437C67.0313 88.5781 65.375 87.8438 63.2578 87.8438C59.3516 87.8438 57.0391 90.3437 57.0391 94.0313C57.0391 97.7187 59.3516 100.219 63.2578 100.219C67.1641 100.219 69.4766 97.7187 69.4766 94.0313C69.4766 93.0156 69.3047 92.0938 68.9687 91.2891C70.2031 90.6016 70.7891 89.2812 70.7891 87.4375H68.6328ZM63.2891 97.0312C62.1328 97.0312 61.4453 95.8828 61.4453 94C61.4453 92.1172 62.1328 90.9687 63.2891 90.9687C64.3828 90.9687 65.0703 92.1172 65.0703 94C65.0703 95.8828 64.3828 97.0312 63.2891 97.0312ZM61.8203 86.5H64.6641L67.0078 83H63.3203L61.8203 86.5ZM71.8926 100H76.2051V88H71.8926V100ZM74.0488 86.75C75.2207 86.75 76.1738 85.8672 76.1738 84.7812C76.1738 83.6953 75.2207 82.8125 74.0488 82.8125C72.877 82.8125 71.9238 83.6953 71.9238 84.7812C71.9238 85.8672 72.877 86.75 74.0488 86.75ZM87.0977 93.25C87.1055 92.0625 87.793 91.3438 88.8477 91.3438C89.9492 91.3438 90.5742 92.0625 90.5664 93.25V100H94.8789V92.3437C94.8867 89.7187 93.2305 87.8438 90.6914 87.8438C88.918 87.8438 87.6055 88.75 87.0664 90.2812H86.9414V84H82.7852V100H87.0977V93.25ZM102.789 100.219C106.695 100.219 109.008 97.7187 109.008 94.0313C109.008 90.3437 106.695 87.8438 102.789 87.8438C98.8828 87.8438 96.5703 90.3437 96.5703 94.0313C96.5703 97.7187 98.8828 100.219 102.789 100.219ZM102.82 97.0312C101.664 97.0312 100.977 95.8828 100.977 94C100.977 92.1172 101.664 90.9687 102.82 90.9687C103.914 90.9687 104.602 92.1172 104.602 94C104.602 95.8828 103.914 97.0312 102.82 97.0312ZM103.789 84.4687H101.82L98.7266 86.7187H101.32L102.789 85.625L104.32 86.7187H106.852L103.789 84.4687ZM104.352 81.875C104.344 82.2812 104.281 82.75 104.039 82.75C103.313 82.75 102.312 82.125 101.57 82.125C100.719 82.125 100.281 82.9687 100.289 83.75L101.602 84.125C101.594 83.7188 101.656 83.4062 101.945 83.4062C102.688 83.4062 103.469 84.0625 104.414 84.0625C105.25 84.0625 105.688 83.2187 105.695 82.375L104.352 81.875ZM122.297 88H120.234V85.125H115.922V88H114.391V91.125H115.922V96.5469C115.891 99.0625 117.445 100.336 120.422 100.172C121.398 100.117 122.125 99.9141 122.516 99.7969L121.891 96.7656C121.727 96.8047 121.305 96.8906 121.047 96.8906C120.484 96.8906 120.234 96.6406 120.234 96.1406V91.125H122.297V88ZM124.057 100H128.369V93.75C128.369 92.375 129.314 91.4687 130.588 91.4687C131.033 91.4687 131.752 91.5391 132.182 91.6875V88.0078C131.838 87.9062 131.463 87.8438 131.088 87.8438C129.807 87.8438 128.807 88.5937 128.369 90.2812H128.244V88H124.057V100ZM144.064 87.4375C144.064 88.5 143.932 89.3203 143.525 89.8437C142.463 88.5781 140.807 87.8438 138.689 87.8438C134.783 87.8438 132.471 90.3437 132.471 94.0313C132.471 97.7187 134.783 100.219 138.689 100.219C142.596 100.219 144.908 97.7187 144.908 94.0313C144.908 93.0156 144.736 92.0938 144.4 91.2891C145.635 90.6016 146.221 89.2812 146.221 87.4375H144.064ZM138.721 97.0312C137.564 97.0312 136.877 95.8828 136.877 94C136.877 92.1172 137.564 90.9687 138.721 90.9687C139.814 90.9687 140.502 92.1172 140.502 94C140.502 95.8828 139.814 97.0312 138.721 97.0312ZM138.689 104.844C139.861 104.844 140.814 103.961 140.814 102.875C140.814 101.789 139.861 100.906 138.689 100.906C137.518 100.906 136.564 101.789 136.564 102.875C136.564 103.961 137.518 104.844 138.689 104.844ZM151.52 97.5H159.301V100H163.457V97.5H165.301V94.125H163.457V84H157.957L151.52 94.125V97.5ZM159.395 94.125H155.801V94L159.27 88.5H159.395V94.125ZM176.279 97C176.295 99.0312 177.607 100.781 180.061 100.781C182.514 100.781 183.889 99.0312 183.873 97V96.1562C183.889 94.0938 182.545 92.375 180.061 92.375C177.639 92.375 176.295 94.125 176.279 96.1562V97ZM167.904 87.8438C167.92 89.875 169.232 91.5937 171.686 91.5937C174.139 91.5937 175.514 89.9062 175.498 87.8438V87C175.514 84.9375 174.17 83.2187 171.686 83.2187C169.295 83.2187 167.92 84.9375 167.904 87V87.8438ZM168.779 100H170.998L181.998 84H179.779L168.779 100ZM178.998 96.1562C179.014 95.5312 179.232 94.8125 180.061 94.8125C180.951 94.8125 181.139 95.5312 181.123 96.1562V97C181.139 97.625 180.92 98.3125 180.061 98.3125C179.232 98.3125 179.014 97.5938 178.998 97V96.1562ZM170.654 87C170.67 86.4062 170.857 85.6562 171.686 85.6562C172.576 85.6562 172.764 86.375 172.748 87V87.8438C172.764 88.4687 172.545 89.1562 171.686 89.1562C170.889 89.1562 170.67 88.4687 170.654 87.8438V87ZM195.443 84H191.131V100H195.443V84ZM200.984 100.188C202.547 100.188 203.727 99.6562 204.453 98.3125H204.547V100H208.578V91.7812C208.578 89.5625 206.477 87.8438 203.047 87.8438C199.461 87.8438 197.695 89.7187 197.547 91.9062H201.516C201.617 91.1641 202.164 90.8125 202.984 90.8125C203.734 90.8125 204.266 91.1562 204.266 91.7812V91.8125C204.266 92.5078 203.5 92.7266 201.484 92.875C199.008 93.0547 197.078 94.0547 197.078 96.6875C197.078 99.0781 198.688 100.188 200.984 100.188ZM201.047 86.5C201.047 85.7187 201.359 85.3125 201.859 85.3125C202.188 85.3125 202.461 85.5312 202.781 85.7891C203.242 86.1562 203.805 86.6016 204.766 86.5938C206.227 86.5781 207.391 85.4297 207.422 83.2187H205.328C205.312 83.9766 205.086 84.4297 204.484 84.4375C204.188 84.4375 203.914 84.2266 203.594 83.9766C203.125 83.6094 202.539 83.1484 201.578 83.1562C200.102 83.1641 198.922 84.25 198.922 86.5H201.047ZM202.391 97.4687C201.656 97.4687 201.141 97.1094 201.141 96.4375C201.141 95.8203 201.578 95.3437 202.578 95.1875C203.266 95.0781 203.844 94.9375 204.297 94.75V95.75C204.297 96.8438 203.367 97.4687 202.391 97.4687ZM210.639 100H214.951V88H210.639V100ZM212.795 86.75C213.967 86.75 214.92 85.8672 214.92 84.7812C214.92 83.6953 213.967 82.8125 212.795 82.8125C211.623 82.8125 210.67 83.6953 210.67 84.7812C210.67 85.8672 211.623 86.75 212.795 86.75ZM232.5 91.9062C232.391 89.3672 230.281 87.8438 226.813 87.8438C223.383 87.8438 221.266 89.25 221.281 91.75C221.266 93.6406 222.492 94.8516 224.938 95.2812L227.063 95.6562C228 95.8281 228.422 96.0781 228.438 96.5313C228.422 97.0312 227.852 97.3125 227.063 97.3125C226.086 97.3125 225.398 96.8906 225.281 96.125H221C221.234 98.5859 223.359 100.219 227.031 100.219C230.352 100.219 232.797 98.6016 232.812 96.0312C232.797 94.2578 231.609 93.2266 229.156 92.7812L226.719 92.3437C225.805 92.1797 225.547 91.8516 225.563 91.5C225.547 91 226.164 90.7188 226.906 90.7188C227.758 90.7188 228.469 91.1719 228.531 91.9062H232.5ZM242.246 94.75C242.254 95.9375 241.566 96.6562 240.496 96.6562C239.41 96.6562 238.785 95.9375 238.777 94.75V88H234.465V95.6562C234.473 98.2812 236.129 100.156 238.652 100.156C240.441 100.156 241.816 99.25 242.34 97.7187H242.465V100H246.559V88H242.246V94.75ZM252.096 100.188C253.658 100.188 254.838 99.6562 255.564 98.3125H255.658V100H259.689V91.7812C259.689 89.5625 257.588 87.8438 254.158 87.8438C250.572 87.8438 248.807 89.7187 248.658 91.9062H252.627C252.729 91.1641 253.275 90.8125 254.096 90.8125C254.846 90.8125 255.377 91.1562 255.377 91.7812V91.8125C255.377 92.5078 254.611 92.7266 252.596 92.875C250.119 93.0547 248.189 94.0547 248.189 96.6875C248.189 99.0781 249.799 100.188 252.096 100.188ZM250.189 86.8125H252.658L254.252 85.7187L255.814 86.8125H258.314L255.158 84.6562H253.314L250.189 86.8125ZM257.502 85.7813H259.564L262.314 82.7812H259.533L257.502 85.7813ZM253.502 97.4687C252.768 97.4687 252.252 97.1094 252.252 96.4375C252.252 95.8203 252.689 95.3437 253.689 95.1875C254.377 95.0781 254.955 94.9375 255.408 94.75V95.75C255.408 96.8438 254.479 97.4687 253.502 97.4687ZM268.906 88H266.844V85.125H262.531V88H261V91.125H262.531V96.5469C262.5 99.0625 264.055 100.336 267.031 100.172C268.008 100.117 268.734 99.9141 269.125 99.7969L268.5 96.7656C268.336 96.8047 267.914 96.8906 267.656 96.8906C267.094 96.8906 266.844 96.6406 266.844 96.1406V91.125H268.906V88Z" fill="url(#paint1_linear)"/>
</g>
<g filter="url(#filter2_d)">
<path d="M98.4545 69C105.545 69 110.045 64.6364 110.045 57.3636C110.045 50.0909 105.545 45.7273 98.3636 45.7273H89.5V69H98.4545ZM95.8182 63.6364V51.0909H98.0455C101.682 51.0909 103.682 52.5 103.682 57.3636C103.682 62.2273 101.682 63.6364 98.2273 63.6364H95.8182ZM112.969 69H129.696V63.9091H119.287V59.9091H128.878V54.8182H119.287V50.8182H129.741V45.7273H112.969V69ZM122.878 40.5909H120.014L115.514 43.8636H119.287L121.423 42.2727L123.651 43.8636H127.332L122.878 40.5909ZM123.696 36.8182C123.685 37.4091 123.594 38.0909 123.241 38.0909C122.185 38.0909 120.73 37.1818 119.651 37.1818C118.412 37.1818 117.776 38.4091 117.787 39.5455L119.696 40.0909C119.685 39.5 119.776 39.0455 120.196 39.0455C121.276 39.0455 122.412 40 123.787 40C125.003 40 125.639 38.7727 125.651 37.5455L123.696 36.8182ZM148.205 69C155.295 69 159.795 64.6364 159.795 57.3636C159.795 50.0909 155.295 45.7273 148.114 45.7273H139.25V69H148.205ZM145.568 63.6364V51.0909H147.795C151.432 51.0909 153.432 52.5 153.432 57.3636C153.432 62.2273 151.432 63.6364 147.977 63.6364H145.568ZM167.295 69L168.636 64.5455H176.318L177.659 69H184.477L176.795 45.7273H168.159L160.477 69H167.295ZM170.432 43.5455H174.568L172.386 38.4545H167.023L170.432 43.5455ZM170.068 59.8182L172.386 52.1364H172.568L174.886 59.8182H170.068ZM206.855 45.7273H200.537V57.9091H200.355L192.082 45.7273H186.719V69H193.037V56.7727H193.173L201.582 69H206.855V45.7273ZM224.957 53.4091H231.344C230.855 48.7386 226.616 45.4091 221.116 45.4091C214.844 45.4091 209.753 49.7273 209.753 57.4091C209.753 64.7727 214.366 69.3182 221.162 69.3182C227.253 69.3182 231.616 65.5909 231.616 59.2273V56H221.298V60.5H225.526C225.469 62.5227 224.037 63.8182 221.207 63.8182C217.935 63.8182 216.253 61.4091 216.253 57.3182C216.253 53.2841 218.071 50.9091 221.253 50.9091C223.23 50.9091 224.571 51.8182 224.957 53.4091Z" fill="url(#paint2_linear)"/>
</g>
<defs>
<filter id="filter0_d" x="56.416" y="2.92188" width="198.945" height="53.8281" filterUnits="userSpaceOnUse" color-interpolation-filters="sRGB">
<feFlood flood-opacity="0" result="BackgroundImageFix"/>
<feColorMatrix in="SourceAlpha" type="matrix" values="0 0 0 0 0 0 0 0 0 0 0 0 0 0 0 0 0 0 127 0" result="hardAlpha"/>
<feOffset dy="8"/>
<feGaussianBlur stdDeviation="8"/>
<feComposite in2="hardAlpha" operator="out"/>
<feColorMatrix type="matrix" values="0 0 0 0 0 0 0 0 0 0 0 0 0 0 0 0 0 0 0.08 0"/>
<feBlend mode="normal" in2="BackgroundImageFix" result="effect1_dropShadow"/>
<feBlend mode="normal" in="SourceGraphic" in2="effect1_dropShadow" result="shape"/>
</filter>
<filter id="filter1_d" x="27.5527" y="73.875" width="257.572" height="54.9688" filterUnits="userSpaceOnUse" color-interpolation-filters="sRGB">
<feFlood flood-opacity="0" result="BackgroundImageFix"/>
<feColorMatrix in="SourceAlpha" type="matrix" values="0 0 0 0 0 0 0 0 0 0 0 0 0 0 0 0 0 0 127 0" result="hardAlpha"/>
<feOffset dy="8"/>
<feGaussianBlur stdDeviation="8"/>
<feComposite in2="hardAlpha" operator="out"/>
<feColorMatrix type="matrix" values="0 0 0 0 0 0 0 0 0 0 0 0 0 0 0 0 0 0 0.08 0"/>
<feBlend mode="normal" in2="BackgroundImageFix" result="effect1_dropShadow"/>
<feBlend mode="normal" in="SourceGraphic" in2="effect1_dropShadow" result="shape"/>
</filter>
<filter id="filter2_d" x="73.5" y="28.8184" width="174.116" height="64.5" filterUnits="userSpaceOnUse" color-interpolation-filters="sRGB">
<feFlood flood-opacity="0" result="BackgroundImageFix"/>
<feColorMatrix in="SourceAlpha" type="matrix" values="0 0 0 0 0 0 0 0 0 0 0 0 0 0 0 0 0 0 127 0" result="hardAlpha"/>
<feOffset dy="8"/>
<feGaussianBlur stdDeviation="8"/>
<feComposite in2="hardAlpha" operator="out"/>
<feColorMatrix type="matrix" values="0 0 0 0 0 0 0 0 0 0 0 0 0 0 0 0 0 0 0.08 0"/>
<feBlend mode="normal" in2="BackgroundImageFix" result="effect1_dropShadow"/>
<feBlend mode="normal" in="SourceGraphic" in2="effect1_dropShadow" result="shape"/>
</filter>
<linearGradient id="paint0_linear" x1="18.177" y1="4.27498e-06" x2="89.1554" y2="94.4032" gradientUnits="userSpaceOnUse">
<stop stop-color="#D6E0E2"/>
<stop offset="1" stop-color="#E8EAEC"/>
</linearGradient>
<linearGradient id="paint1_linear" x1="18.177" y1="72" x2="89.1554" y2="166.403" gradientUnits="userSpaceOnUse">
<stop stop-color="#D6E0E2"/>
<stop offset="1" stop-color="#E8EAEC"/>
</linearGradient>
<linearGradient id="paint2_linear" x1="96.4788" y1="40" x2="157.485" y2="83.2552" gradientUnits="userSpaceOnUse">
<stop stop-color="#D6E0E2"/>
<stop offset="1" stop-color="#E8EAEC"/>
</linearGradient>
</defs>
</svg>
