<svg width="226" height="104" viewBox="0 0 226 104" fill="none" xmlns="http://www.w3.org/2000/svg">
<g filter="url(#filter0_d)">
<path d="M63.0923 31.9997L64.4332 27.5452H72.1151L73.456 31.9997H80.2741L72.5923 8.72701H63.956L56.2741 31.9997H63.0923ZM65.8651 22.8179L68.1832 15.1361H68.3651L70.6832 22.8179H65.8651Z" fill="url(#paint0_linear)"/>
<path d="M102.652 8.72701H96.3338V20.9088H96.152L87.8793 8.72701H82.5156V31.9997H88.8338V19.7725H88.9702L97.3793 31.9997H102.652V8.72701Z" fill="url(#paint1_linear)"/>
<path d="M133.743 17.4543C133.243 11.6816 129.016 8.40882 123.152 8.40882C116.879 8.40882 111.925 12.5906 111.925 20.3634C111.925 28.102 116.743 32.3179 123.152 32.3179C129.97 32.3179 133.425 27.5906 133.743 23.6361L127.334 23.5906C127.016 25.5793 125.607 26.8179 123.288 26.8179C120.209 26.8179 118.425 24.6361 118.425 20.3634C118.425 16.3179 120.152 13.9088 123.334 13.9088C125.766 13.9088 127.152 15.3406 127.334 17.4543H133.743Z" fill="url(#paint2_linear)"/>
<path d="M158.746 8.27246C158.746 8.30655 158.746 8.34064 158.746 8.3861C158.746 10.8066 158.746 12.5338 156.7 13.0566V8.72701H150.382V23.0906C150.382 25.2611 148.825 26.8179 146.655 26.8179C144.484 26.8179 142.928 25.2611 142.928 23.0906V8.72701H136.609V23.6361C136.609 28.9543 140.632 32.2725 146.655 32.2725C152.632 32.2725 156.7 28.9543 156.7 23.6361V15.9088C161.064 15.3861 162.2 12.5679 162.2 8.27246H158.746Z" fill="url(#paint3_linear)"/>
<path d="M16.1562 71.9997H31.8835V66.9088H22.4744V48.727H16.1562V71.9997Z" fill="url(#paint4_linear)"/>
<path d="M40.483 71.9997L41.8239 67.5452H49.5057L50.8466 71.9997H57.6648L49.983 48.727H41.3466L33.6648 71.9997H40.483ZM45.6648 79.0452C47.3693 79.0452 48.7557 77.7611 48.7557 76.1815C48.7557 74.602 47.3693 73.3179 45.6648 73.3179C43.9602 73.3179 42.5739 74.602 42.5739 76.1815C42.5739 77.7611 43.9602 79.0452 45.6648 79.0452ZM43.2557 62.8179L45.5739 55.1361H45.7557L48.0739 62.8179H43.2557Z" fill="url(#paint5_linear)"/>
<path d="M80.5398 57.4543C80.0398 51.6815 75.8125 48.4088 69.9489 48.4088C63.6761 48.4088 58.7216 52.5906 58.7216 60.3634C58.7216 68.102 63.5398 72.3179 69.9489 72.3179C76.7671 72.3179 80.2216 67.5906 80.5398 63.6361L74.1307 63.5906C73.8125 65.5793 72.4034 66.8179 70.0852 66.8179C67.0057 66.8179 65.2216 64.6361 65.2216 60.3634C65.2216 56.3179 66.9489 53.9088 70.1307 53.9088C72.5625 53.9088 73.9489 55.3406 74.1307 57.4543H80.5398Z" fill="url(#paint6_linear)"/>
<path d="M109.918 48.727H103.599V60.9088H103.418L95.1449 48.727H89.7812V71.9997H96.0994V59.7725H96.2358L104.645 71.9997H109.918V48.727Z" fill="url(#paint7_linear)"/>
<path d="M128.02 56.4088H134.406C133.918 51.7384 129.679 48.4088 124.179 48.4088C117.906 48.4088 112.815 52.727 112.815 60.4088C112.815 67.7725 117.429 72.3179 124.224 72.3179C130.315 72.3179 134.679 68.5906 134.679 62.227V58.9997H124.361V63.4997H128.588C128.531 65.5225 127.099 66.8179 124.27 66.8179C120.997 66.8179 119.315 64.4088 119.315 60.3179C119.315 56.2838 121.134 53.9088 124.315 53.9088C126.293 53.9088 127.634 54.8179 128.02 56.4088Z" fill="url(#paint8_linear)"/>
<path d="M137.625 71.9997H143.943V62.9088H152.307V71.9997H158.625V48.727H152.307V57.8179H143.943V48.727H137.625V71.9997Z" fill="url(#paint9_linear)"/>
<path d="M167.943 48.727H161.625V71.9997H167.943V48.727Z" fill="url(#paint10_linear)"/>
<path d="M170.938 71.9997H187.665V66.9088H177.256V62.9088H186.847V57.8179H177.256V53.8179H187.71V48.727H170.938V71.9997ZM177.165 46.6588L179.392 44.1588L181.619 46.6588H186.801V46.5225L181.574 41.3406H177.21L171.983 46.5225V46.6588H177.165ZM179.392 79.0452C181.097 79.0452 182.483 77.7611 182.483 76.1815C182.483 74.602 181.097 73.3179 179.392 73.3179C177.688 73.3179 176.301 74.602 176.301 76.1815C176.301 77.7611 177.688 79.0452 179.392 79.0452Z" fill="url(#paint11_linear)"/>
<path d="M190.844 71.9997H197.162V65.0906H200.662C205.969 65.0906 209.526 61.9656 209.526 56.9543C209.526 51.9997 206.06 48.727 200.889 48.727H190.844V71.9997ZM197.162 60.1815V53.7725H199.389C201.605 53.7725 202.935 54.9543 202.935 56.9543C202.935 58.9429 201.605 60.1815 199.389 60.1815H197.162Z" fill="url(#paint12_linear)"/>
</g>
<path d="M42.9454 97.165C44.879 97.165 46.1308 96.0038 46.3066 94.4111H44.7565C44.5541 95.2954 43.867 95.8174 42.9561 95.8174C41.6085 95.8174 40.7402 94.6934 40.7402 92.909C40.7402 91.1565 41.6244 90.0539 42.9561 90.0539C43.9682 90.0539 44.5861 90.6931 44.7565 91.4601H46.3066C46.1361 89.8089 44.7885 88.7116 42.9295 88.7116C40.623 88.7116 39.1315 90.4481 39.1315 92.9463C39.1315 95.4126 40.5697 97.165 42.9454 97.165Z" fill="#292D32"/>
<path d="M53.3427 93.6068C53.348 94.9971 52.3146 95.6576 51.4198 95.6576C50.4343 95.6576 49.7525 94.9438 49.7525 93.8305V88.8181H48.1598V94.0223C48.1598 96.0518 49.2731 97.1064 50.8445 97.1064C52.0749 97.1064 52.9112 96.4566 53.2894 95.583H53.3747V96.9999H54.9407V88.8181H53.3427V93.6068ZM50.9404 87.7261H52.2134L50.9723 85.2705H49.2944L50.9404 87.7261Z" fill="#292D32"/>
<path d="M58.8234 92.142C58.8234 90.8369 59.6224 90.0912 60.7304 90.0912C61.8117 90.0912 62.4669 90.7996 62.4669 91.9875V96.9999H64.0596V91.7957C64.0596 89.7716 62.9463 88.7116 61.2737 88.7116C60.0432 88.7116 59.2389 89.2815 58.8607 90.1498H58.7595V88.8181H57.2307V96.9999H58.8234V92.142Z" fill="#292D32"/>
<path d="M69.776 100.239C71.8587 100.239 73.4674 99.2851 73.4674 97.181V88.8181H71.9066V90.1444H71.7894C71.5071 89.6384 70.9425 88.7116 69.4191 88.7116C67.4429 88.7116 65.9887 90.2723 65.9887 92.877C65.9887 95.4871 67.4748 96.8774 69.4084 96.8774C70.9105 96.8774 71.4911 96.0305 71.7788 95.5084H71.88V97.1171C71.88 98.4008 71.0011 98.9548 69.7919 98.9548C68.4656 98.9548 67.9489 98.289 67.6666 97.8202L66.2976 98.3849C66.7291 99.3863 67.8211 100.239 69.776 100.239ZM69.76 95.5564C68.3377 95.5564 67.5973 94.4644 67.5973 92.8557C67.5973 91.2844 68.3218 90.0645 69.76 90.0645C71.1502 90.0645 71.896 91.1991 71.896 92.8557C71.896 94.5443 71.1343 95.5564 69.76 95.5564Z" fill="#292D32"/>
<path d="M80.0009 96.9999H81.6469V92.2432H86.2811V90.8316H81.6469V87.5077H86.7659V86.0908H80.0009V96.9999Z" fill="#292D32"/>
<path d="M88.94 96.9999H90.586V93.1647H92.8232C95.3534 93.1647 96.6051 91.6359 96.6051 89.6224C96.6051 87.6143 95.364 86.0908 92.8285 86.0908H88.94V96.9999ZM90.586 91.7691V87.5024H92.6527C94.2827 87.5024 94.9485 88.3866 94.9485 89.6224C94.9485 90.8582 94.2827 91.7691 92.674 91.7691H90.586Z" fill="#292D32"/>
<path d="M98.1467 87.5077H101.545V96.9999H103.186V87.5077H106.59V86.0908H98.1467V87.5077Z" fill="#292D32"/>
<path d="M118.675 88.9566H120.262C120.214 87.2094 118.67 85.9417 116.454 85.9417C114.264 85.9417 112.586 87.1934 112.586 89.0738C112.586 90.5919 113.673 91.4814 115.426 91.9555L116.715 92.3071C117.881 92.616 118.781 92.9996 118.781 93.969C118.781 95.0344 117.764 95.7375 116.363 95.7375C115.095 95.7375 114.041 95.1729 113.945 93.985H112.293C112.4 95.9612 113.929 97.181 116.374 97.181C118.936 97.181 120.411 95.8334 120.411 93.985C120.411 92.0194 118.659 91.2577 117.274 90.9168L116.209 90.6398C115.356 90.4214 114.222 90.0219 114.227 88.9779C114.227 88.051 115.074 87.3639 116.416 87.3639C117.668 87.3639 118.558 87.9498 118.675 88.9566Z" fill="#292D32"/>
<path d="M125.847 97.165C128.153 97.165 129.661 95.4765 129.661 92.9463C129.661 90.4001 128.153 88.7116 125.847 88.7116C123.54 88.7116 122.033 90.4001 122.033 92.9463C122.033 95.4765 123.54 97.165 125.847 97.165ZM125.852 95.828C124.345 95.828 123.642 94.5123 123.642 92.941C123.642 91.3749 124.345 90.0432 125.852 90.0432C127.349 90.0432 128.052 91.3749 128.052 92.941C128.052 94.5123 127.349 95.828 125.852 95.828Z" fill="#292D32"/>
<path d="M135.482 88.8181H133.719V88.083C133.719 87.3586 134.018 86.9644 134.795 86.9644C135.125 86.9644 135.36 87.039 135.509 87.0869L135.882 85.7979C135.658 85.7126 135.195 85.5795 134.55 85.5795C133.256 85.5795 132.121 86.3358 132.121 87.8699V88.8181H130.859V90.0965H132.121V96.9999H133.719V90.0965H135.482V88.8181Z" fill="#292D32"/>
<path d="M141.095 88.8181H139.417V86.8579H137.824V88.8181H136.626V90.0965H137.824V94.9278C137.819 96.414 138.954 97.1331 140.211 97.1064C140.717 97.1011 141.058 97.0052 141.244 96.936L140.956 95.6203C140.85 95.6416 140.653 95.6895 140.397 95.6895C139.88 95.6895 139.417 95.5191 139.417 94.5976V90.0965H141.095V88.8181Z" fill="#292D32"/>
<path d="M144.78 96.9999H146.4L148.062 91.0926H148.184L149.846 96.9999H151.471L153.873 88.8181H152.227L150.635 94.8H150.555L148.957 88.8181H147.311L145.702 94.8266H145.622L144.019 88.8181H142.373L144.78 96.9999Z" fill="#292D32"/>
<path d="M157.916 97.181C159.269 97.181 160.03 96.4939 160.334 95.8813H160.398V96.9999H161.953V91.5667C161.953 89.1856 160.078 88.7116 158.779 88.7116C157.298 88.7116 155.934 89.3081 155.401 90.7996L156.898 91.1405C157.133 90.5599 157.729 90.0006 158.8 90.0006C159.828 90.0006 160.355 90.5386 160.355 91.4655V91.5028C160.355 92.0834 159.759 92.0727 158.289 92.2432C156.738 92.4243 155.151 92.8291 155.151 94.6881C155.151 96.2968 156.36 97.181 157.916 97.181ZM158.262 95.9026C157.362 95.9026 156.712 95.4978 156.712 94.7094C156.712 93.8572 157.468 93.5535 158.39 93.431C158.906 93.3618 160.132 93.2233 160.361 92.9942V94.0489C160.361 95.0184 159.588 95.9026 158.262 95.9026Z" fill="#292D32"/>
<path d="M164.225 96.9999H165.817V92.0035C165.817 90.9328 166.643 90.1604 167.772 90.1604C168.103 90.1604 168.475 90.219 168.603 90.2563V88.7329C168.443 88.7116 168.129 88.6956 167.927 88.6956C166.968 88.6956 166.148 89.2389 165.849 90.1178H165.764V88.8181H164.225V96.9999Z" fill="#292D32"/>
<path d="M173.365 97.165C175.149 97.165 176.412 96.2861 176.774 94.9545L175.266 94.6828C174.979 95.4552 174.286 95.8493 173.381 95.8493C172.017 95.8493 171.101 94.9651 171.058 93.3884H176.875V92.8238C176.875 89.8675 175.107 88.7116 173.253 88.7116C170.973 88.7116 169.471 90.4481 169.471 92.9623C169.471 95.5031 170.952 97.165 173.365 97.165ZM171.064 92.1952C171.128 91.034 171.969 90.0273 173.264 90.0273C174.499 90.0273 175.309 90.9434 175.314 92.1952H171.064Z" fill="#292D32"/>
<defs>
<filter id="filter0_d" x="0.15625" y="0.272461" width="225.369" height="102.773" filterUnits="userSpaceOnUse" color-interpolation-filters="sRGB">
<feFlood flood-opacity="0" result="BackgroundImageFix"/>
<feColorMatrix in="SourceAlpha" type="matrix" values="0 0 0 0 0 0 0 0 0 0 0 0 0 0 0 0 0 0 127 0" result="hardAlpha"/>
<feOffset dy="8"/>
<feGaussianBlur stdDeviation="8"/>
<feComposite in2="hardAlpha" operator="out"/>
<feColorMatrix type="matrix" values="0 0 0 0 0 0 0 0 0 0 0 0 0 0 0 0 0 0 0.08 0"/>
<feBlend mode="normal" in2="BackgroundImageFix" result="effect1_dropShadow"/>
<feBlend mode="normal" in="SourceGraphic" in2="effect1_dropShadow" result="shape"/>
</filter>
<linearGradient id="paint0_linear" x1="14.8343" y1="6.90059e-06" x2="128.535" y2="53.3879" gradientUnits="userSpaceOnUse">
<stop stop-color="#D6E0E2"/>
<stop offset="1" stop-color="#E8EAEC"/>
</linearGradient>
<linearGradient id="paint1_linear" x1="14.8343" y1="6.90059e-06" x2="128.535" y2="53.3879" gradientUnits="userSpaceOnUse">
<stop stop-color="#D6E0E2"/>
<stop offset="1" stop-color="#E8EAEC"/>
</linearGradient>
<linearGradient id="paint2_linear" x1="14.8343" y1="6.90059e-06" x2="128.535" y2="53.3879" gradientUnits="userSpaceOnUse">
<stop stop-color="#D6E0E2"/>
<stop offset="1" stop-color="#E8EAEC"/>
</linearGradient>
<linearGradient id="paint3_linear" x1="14.8343" y1="6.90059e-06" x2="128.535" y2="53.3879" gradientUnits="userSpaceOnUse">
<stop stop-color="#D6E0E2"/>
<stop offset="1" stop-color="#E8EAEC"/>
</linearGradient>
<linearGradient id="paint4_linear" x1="14.8343" y1="6.90059e-06" x2="128.535" y2="53.3879" gradientUnits="userSpaceOnUse">
<stop stop-color="#D6E0E2"/>
<stop offset="1" stop-color="#E8EAEC"/>
</linearGradient>
<linearGradient id="paint5_linear" x1="14.8343" y1="6.90059e-06" x2="128.535" y2="53.3879" gradientUnits="userSpaceOnUse">
<stop stop-color="#D6E0E2"/>
<stop offset="1" stop-color="#E8EAEC"/>
</linearGradient>
<linearGradient id="paint6_linear" x1="14.8343" y1="6.90059e-06" x2="128.535" y2="53.3879" gradientUnits="userSpaceOnUse">
<stop stop-color="#D6E0E2"/>
<stop offset="1" stop-color="#E8EAEC"/>
</linearGradient>
<linearGradient id="paint7_linear" x1="14.8343" y1="6.90059e-06" x2="128.535" y2="53.3879" gradientUnits="userSpaceOnUse">
<stop stop-color="#D6E0E2"/>
<stop offset="1" stop-color="#E8EAEC"/>
</linearGradient>
<linearGradient id="paint8_linear" x1="14.8343" y1="6.90059e-06" x2="128.535" y2="53.3879" gradientUnits="userSpaceOnUse">
<stop stop-color="#D6E0E2"/>
<stop offset="1" stop-color="#E8EAEC"/>
</linearGradient>
<linearGradient id="paint9_linear" x1="14.8343" y1="6.90059e-06" x2="128.535" y2="53.3879" gradientUnits="userSpaceOnUse">
<stop stop-color="#D6E0E2"/>
<stop offset="1" stop-color="#E8EAEC"/>
</linearGradient>
<linearGradient id="paint10_linear" x1="14.8343" y1="6.90059e-06" x2="128.535" y2="53.3879" gradientUnits="userSpaceOnUse">
<stop stop-color="#D6E0E2"/>
<stop offset="1" stop-color="#E8EAEC"/>
</linearGradient>
<linearGradient id="paint11_linear" x1="14.8343" y1="6.90059e-06" x2="128.535" y2="53.3879" gradientUnits="userSpaceOnUse">
<stop stop-color="#D6E0E2"/>
<stop offset="1" stop-color="#E8EAEC"/>
</linearGradient>
<linearGradient id="paint12_linear" x1="14.8343" y1="6.90059e-06" x2="128.535" y2="53.3879" gradientUnits="userSpaceOnUse">
<stop stop-color="#D6E0E2"/>
<stop offset="1" stop-color="#E8EAEC"/>
</linearGradient>
</defs>
</svg>
