<svg width="242" height="65" viewBox="0 0 242 65" fill="none" xmlns="http://www.w3.org/2000/svg">
<g filter="url(#filter0_d)">
<path d="M16.7031 9.72727V33H22.8849V19.4545H23.0668L28.2486 32.8182H31.9759L37.1577 19.5455H37.3395V33H43.5213V9.72727H35.6577L30.2486 22.9091H29.9759L24.5668 9.72727H16.7031ZM57.9247 25.3636C57.9361 27.0909 56.9361 28.1364 55.3793 28.1364C53.7997 28.1364 52.8906 27.0909 52.8793 25.3636V15.5455H46.6065V26.6818C46.6179 30.5 49.027 33.2273 52.6974 33.2273C55.2997 33.2273 57.2997 31.9091 58.0611 29.6818H58.2429V33H64.1974V15.5455H57.9247V25.3636ZM56.6065 40.0455C58.3111 40.0455 59.6974 38.7614 59.6974 37.1818C59.6974 35.6023 58.3111 34.3182 56.6065 34.3182C54.902 34.3182 53.5156 35.6023 53.5156 37.1818C53.5156 38.7614 54.902 40.0455 56.6065 40.0455ZM75.7969 33.3182C80.9673 33.3182 84.1378 30.3523 84.206 25.7273H78.3878C78.2514 27.5568 77.2628 28.5455 75.8878 28.5455C74.2401 28.5455 73.1605 27.1364 73.1605 24.2727C73.1605 21.4091 74.2401 20 75.8878 20C77.2741 20 78.2173 20.9886 78.3878 22.8182H84.206C84.1719 18.2727 80.9332 15.3182 75.7969 15.3182C70.1151 15.3182 66.7514 18.9545 66.7514 24.3182C66.7514 29.6818 70.1151 33.3182 75.7969 33.3182ZM99.4872 33.2273C101.942 33.2273 103.624 31.9091 104.351 30.1364H104.487V33H110.714V14.5455H112.351V11.1818H110.714V9.72727H104.442V11.1818H100.124V14.5455H104.442V18.5909H104.351C103.669 16.8182 102.033 15.3182 99.4418 15.3182C95.9872 15.3182 92.6236 17.9545 92.6236 24.2727C92.6236 30.3182 95.7599 33.2273 99.4872 33.2273ZM101.805 28.4091C100.078 28.4091 99.0781 26.8636 99.0781 24.2727C99.0781 21.6818 100.078 20.1364 101.805 20.1364C103.533 20.1364 104.578 21.6818 104.578 24.2727C104.578 26.8182 103.533 28.4091 101.805 28.4091ZM114.888 33H121.161V15.5455H114.888V33ZM115.933 13.3636H120.07L123.479 8.27273H118.115L115.933 13.3636ZM132.766 33.3182C137.936 33.3182 141.107 30.3523 141.175 25.7273H135.357C135.22 27.5568 134.232 28.5455 132.857 28.5455C131.209 28.5455 130.129 27.1364 130.129 24.2727C130.129 21.4091 131.209 20 132.857 20C134.243 20 135.186 20.9886 135.357 22.8182H141.175C141.141 18.2727 137.902 15.3182 132.766 15.3182C127.084 15.3182 123.72 18.9545 123.72 24.3182C123.72 29.6818 127.084 33.3182 132.766 33.3182ZM150.036 23.1818C150.047 21.4545 151.047 20.4091 152.581 20.4091C154.183 20.4091 155.092 21.4545 155.081 23.1818V33H161.354V21.8636C161.365 18.0455 158.956 15.3182 155.263 15.3182C152.683 15.3182 150.774 16.6364 149.99 18.8636H149.808V9.72727H143.763V33H150.036V23.1818ZM188.416 15.5455H181.825L179.007 27.0909H178.825L176.007 15.5455H169.416L175.28 33H182.553L188.416 15.5455ZM194.595 33.2727C196.868 33.2727 198.584 32.5 199.641 30.5455H199.777V33H205.641V21.0455C205.641 17.8182 202.584 15.3182 197.595 15.3182C192.379 15.3182 189.811 18.0455 189.595 21.2273H195.368C195.516 20.1477 196.311 19.6364 197.504 19.6364C198.595 19.6364 199.368 20.1364 199.368 21.0455V21.0909C199.368 22.1023 198.254 22.4205 195.322 22.6364C191.72 22.8977 188.913 24.3523 188.913 28.1818C188.913 31.6591 191.254 33.2727 194.595 33.2727ZM196.641 29.3182C195.572 29.3182 194.822 28.7955 194.822 27.8182C194.822 26.9205 195.459 26.2273 196.913 26C197.913 25.8409 198.754 25.6364 199.413 25.3636V26.8182C199.413 28.4091 198.061 29.3182 196.641 29.3182ZM211.831 39.5455C216.217 39.5455 218.274 37.3409 219.24 34.4545L225.604 15.5455H219.013L216.149 27.6364H215.967L213.149 15.5455H206.604L212.74 33.7727L212.604 34.0909C212.183 35.0568 210.967 35.0227 209.422 34.4773L208.058 38.9318C209.036 39.3182 210.388 39.5455 211.831 39.5455Z" fill="url(#paint0_linear)"/>
</g>
<defs>
<filter id="filter0_d" x="0.703125" y="0.272705" width="240.901" height="63.7727" filterUnits="userSpaceOnUse" color-interpolation-filters="sRGB">
<feFlood flood-opacity="0" result="BackgroundImageFix"/>
<feColorMatrix in="SourceAlpha" type="matrix" values="0 0 0 0 0 0 0 0 0 0 0 0 0 0 0 0 0 0 127 0" result="hardAlpha"/>
<feOffset dy="8"/>
<feGaussianBlur stdDeviation="8"/>
<feComposite in2="hardAlpha" operator="out"/>
<feColorMatrix type="matrix" values="0 0 0 0 0 0 0 0 0 0 0 0 0 0 0 0 0 0 0.08 0"/>
<feBlend mode="normal" in2="BackgroundImageFix" result="effect1_dropShadow"/>
<feBlend mode="normal" in="SourceGraphic" in2="effect1_dropShadow" result="shape"/>
</filter>
<linearGradient id="paint0_linear" x1="22.8343" y1="1" x2="96.5732" y2="70.2478" gradientUnits="userSpaceOnUse">
<stop stop-color="#D6E0E2"/>
<stop offset="1" stop-color="#E8EAEC"/>
</linearGradient>
</defs>
</svg>
