<svg width="195" height="95" viewBox="0 0 195 95" fill="none" xmlns="http://www.w3.org/2000/svg">
<g filter="url(#filter0_d)">
<path d="M69.0489 30.0001H74.5773V22.0456H81.8955V30.0001H87.4239V9.63649H81.8955V17.591H74.5773V9.63649H69.0489V30.0001Z" fill="url(#paint0_linear)"/>
<path d="M94.3841 30.2388C96.3727 30.2388 97.8742 29.5626 98.7989 27.8524H98.9182V30.0001H104.049V19.5399C104.049 16.716 101.374 14.5285 97.0091 14.5285C92.4452 14.5285 90.198 16.9149 90.0091 19.699H95.0602C95.1895 18.7544 95.8855 18.3069 96.9296 18.3069C97.8841 18.3069 98.5602 18.7444 98.5602 19.5399V19.5797C98.5602 20.4646 97.5858 20.743 95.0205 20.9319C91.8685 21.1606 89.4125 22.4334 89.4125 25.7842C89.4125 28.8268 91.4608 30.2388 94.3841 30.2388ZM94.4636 12.8183C94.4636 11.824 94.8614 11.3069 95.4977 11.3069C95.9153 11.3069 96.2634 11.5854 96.671 11.9135C97.2577 12.3808 97.9736 12.9476 99.1966 12.9376C101.056 12.9177 102.538 11.4561 102.577 8.64217H99.9125C99.8926 9.60666 99.6043 10.1834 98.8386 10.1933C98.4608 10.1933 98.1128 9.92484 97.7051 9.60666C97.1085 9.13933 96.3628 8.55268 95.1398 8.56262C93.2605 8.57257 91.7591 9.95467 91.7591 12.8183H94.4636ZM96.1739 26.7785C95.2392 26.7785 94.583 26.3211 94.583 25.466C94.583 24.6805 95.1398 24.074 96.4125 23.8751C97.2875 23.7359 98.0233 23.5569 98.6 23.3183V24.591C98.6 25.9831 97.4168 26.7785 96.1739 26.7785Z" fill="url(#paint1_linear)"/>
<path d="M109.465 35.7274C113.303 35.7274 115.103 33.7984 115.948 31.2729L121.517 14.7274H115.75L113.244 25.3069H113.085L110.619 14.7274H104.892L110.261 30.6763L110.142 30.9547C109.774 31.7998 108.71 31.77 107.357 31.2927L106.164 35.1905C107.019 35.5285 108.203 35.7274 109.465 35.7274Z" fill="url(#paint2_linear)"/>
<path d="M22.1991 43.6365H16.7104V64.0001H22.1991V43.6365Z" fill="url(#paint3_linear)"/>
<path d="M29.2513 64.2388C31.2399 64.2388 32.7413 63.5626 33.6661 61.8524H33.7854V64.0001H38.9161V53.5399C38.9161 50.716 36.2413 48.5285 31.8763 48.5285C27.3124 48.5285 25.0652 50.9149 24.8763 53.699H29.9274C30.0567 52.7544 30.7527 52.3069 31.7967 52.3069C32.7513 52.3069 33.4274 52.7444 33.4274 53.5399V53.5797C33.4274 54.4646 32.453 54.743 29.8877 54.9319C26.7357 55.1606 24.2797 56.4334 24.2797 59.7842C24.2797 62.8268 26.328 64.2388 29.2513 64.2388ZM34.382 43.7558C34.372 44.5115 33.7357 45.3069 31.9956 45.3069C30.2754 45.3069 29.5993 44.5115 29.6092 43.7558H26.5865C26.5766 45.8638 28.6845 47.2956 31.9956 47.2956C35.3266 47.2956 37.4743 45.8638 37.4842 43.7558H34.382ZM31.0411 60.7785C30.1064 60.7785 29.4502 60.3211 29.4502 59.466C29.4502 58.6805 30.007 58.074 31.2797 57.8751C32.1547 57.7359 32.8905 57.5569 33.4672 57.3183V58.591C33.4672 59.9831 32.284 60.7785 31.0411 60.7785ZM30.6036 43.9944H33.3081L35.9331 41.5683H32.5524L30.6036 43.9944Z" fill="url(#paint4_linear)"/>
<path d="M47.0272 55.4092C47.0372 53.8979 47.8923 52.9831 49.2545 52.9831C50.6366 52.9831 51.4519 53.8979 51.442 55.4092V64.0001H56.9306V54.2558C56.9406 50.9348 54.8426 48.5285 51.6011 48.5285C49.3539 48.5285 47.5741 49.7018 46.9079 51.6308H46.7488V48.7274H41.5386V64.0001H47.0272V55.4092Z" fill="url(#paint5_linear)"/>
<path d="M66.9981 70.0456C71.8305 70.0456 75.0322 67.8382 75.0322 63.9604V48.7274H69.5435V51.3922H69.4242C68.8276 49.841 67.3958 48.5285 65.1288 48.5285C62.106 48.5285 59.1629 50.8354 59.1629 56.3638C59.1629 61.6535 61.9072 63.8013 65.1685 63.8013C67.2367 63.8013 68.8674 62.9263 69.464 61.3751H69.6231V63.9604C69.6231 65.7601 68.5791 66.3467 67.1572 66.3467C65.8944 66.3467 64.9697 65.9689 64.8106 64.9944H59.5208C59.7296 67.9376 62.4043 70.0456 66.9981 70.0456ZM67.197 59.9035C65.6856 59.9035 64.8106 58.6308 64.8106 56.3638C64.8106 54.0967 65.6856 52.7444 67.197 52.7444C68.7083 52.7444 69.6231 54.0967 69.6231 56.3638C69.6231 58.591 68.7083 59.9035 67.197 59.9035Z" fill="url(#paint6_linear)"/>
<path d="M88.8905 55.4092C88.9004 53.8979 89.7556 52.9831 91.1178 52.9831C92.4999 52.9831 93.3152 53.8979 93.3053 55.4092V64.0001H98.7939V54.2558C98.8038 50.9348 96.7058 48.5285 93.4644 48.5285C91.2172 48.5285 89.4374 49.7018 88.7712 51.6308H88.6121V48.7274H83.4019V64.0001H88.8905V55.4092Z" fill="url(#paint7_linear)"/>
<path d="M108.861 70.0456C113.694 70.0456 116.895 67.8382 116.895 63.9604V48.7274H111.407V51.3922H111.288C110.691 49.841 109.259 48.5285 106.992 48.5285C103.969 48.5285 101.026 50.8354 101.026 56.3638C101.026 61.6535 103.77 63.8013 107.032 63.8013C109.1 63.8013 110.731 62.9263 111.327 61.3751H111.486V63.9604C111.486 65.7601 110.442 66.3467 109.02 66.3467C107.758 66.3467 106.833 65.9689 106.674 64.9944H101.384C101.593 67.9376 104.268 70.0456 108.861 70.0456ZM109.06 59.9035C107.549 59.9035 106.674 58.6308 106.674 56.3638C106.674 54.0967 107.549 52.7444 109.06 52.7444C110.572 52.7444 111.486 54.0967 111.486 56.3638C111.486 58.591 110.572 59.9035 109.06 59.9035Z" fill="url(#paint8_linear)"/>
<path d="M125.176 55.4092C125.186 53.8979 126.061 52.9831 127.403 52.9831C128.805 52.9831 129.6 53.8979 129.59 55.4092V64.0001H135.079V54.2558C135.089 50.9149 132.981 48.5285 129.75 48.5285C127.492 48.5285 125.822 49.6819 125.136 51.6308H124.977V43.6365H119.687V64.0001H125.176V55.4092Z" fill="url(#paint9_linear)"/>
<path d="M145.107 64.2785C149.343 64.2785 152.067 62.2501 152.584 59.0683H147.573C147.254 59.9334 146.35 60.4206 145.226 60.4206C143.595 60.4206 142.641 59.3467 142.641 57.8751V57.6365H152.584V56.3638C152.584 51.5015 149.601 48.5285 144.987 48.5285C140.254 48.5285 137.232 51.6706 137.232 56.4035C137.232 61.3453 140.215 64.2785 145.107 64.2785ZM142.641 54.6138C142.671 53.2913 143.764 52.3865 145.107 52.3865C146.469 52.3865 147.503 53.3013 147.533 54.6138H142.641Z" fill="url(#paint10_linear)"/>
<path d="M157.807 64.3183C159.268 64.3183 160.571 63.0854 160.591 61.5342C160.571 60.0229 159.268 58.7899 157.807 58.7899C156.265 58.7899 155.003 60.0229 155.023 61.5342C155.003 63.0854 156.265 64.3183 157.807 64.3183Z" fill="url(#paint11_linear)"/>
<path d="M166.557 64.3183C168.018 64.3183 169.321 63.0854 169.341 61.5342C169.321 60.0229 168.018 58.7899 166.557 58.7899C165.015 58.7899 163.753 60.0229 163.773 61.5342C163.753 63.0854 165.015 64.3183 166.557 64.3183Z" fill="url(#paint12_linear)"/>
<path d="M175.307 64.3183C176.768 64.3183 178.071 63.0854 178.091 61.5342C178.071 60.0229 176.768 58.7899 175.307 58.7899C173.765 58.7899 172.503 60.0229 172.523 61.5342C172.503 63.0854 173.765 64.3183 175.307 64.3183Z" fill="url(#paint13_linear)"/>
</g>
<defs>
<filter id="filter0_d" x="0.710449" y="0.5625" width="193.38" height="93.4831" filterUnits="userSpaceOnUse" color-interpolation-filters="sRGB">
<feFlood flood-opacity="0" result="BackgroundImageFix"/>
<feColorMatrix in="SourceAlpha" type="matrix" values="0 0 0 0 0 0 0 0 0 0 0 0 0 0 0 0 0 0 127 0" result="hardAlpha"/>
<feOffset dy="8"/>
<feGaussianBlur stdDeviation="8"/>
<feComposite in2="hardAlpha" operator="out"/>
<feColorMatrix type="matrix" values="0 0 0 0 0 0 0 0 0 0 0 0 0 0 0 0 0 0 0.08 0"/>
<feBlend mode="normal" in2="BackgroundImageFix" result="effect1_dropShadow"/>
<feBlend mode="normal" in="SourceGraphic" in2="effect1_dropShadow" result="shape"/>
</filter>
<linearGradient id="paint0_linear" x1="-12.5397" y1="3.00001" x2="101.068" y2="72.6844" gradientUnits="userSpaceOnUse">
<stop stop-color="#D6E0E2"/>
<stop offset="1" stop-color="#E8EAEC"/>
</linearGradient>
<linearGradient id="paint1_linear" x1="-12.5397" y1="3.00001" x2="101.068" y2="72.6844" gradientUnits="userSpaceOnUse">
<stop stop-color="#D6E0E2"/>
<stop offset="1" stop-color="#E8EAEC"/>
</linearGradient>
<linearGradient id="paint2_linear" x1="-12.5397" y1="3.00001" x2="101.068" y2="72.6844" gradientUnits="userSpaceOnUse">
<stop stop-color="#D6E0E2"/>
<stop offset="1" stop-color="#E8EAEC"/>
</linearGradient>
<linearGradient id="paint3_linear" x1="-12.5397" y1="3.00001" x2="101.068" y2="72.6844" gradientUnits="userSpaceOnUse">
<stop stop-color="#D6E0E2"/>
<stop offset="1" stop-color="#E8EAEC"/>
</linearGradient>
<linearGradient id="paint4_linear" x1="-12.5397" y1="3.00001" x2="101.068" y2="72.6844" gradientUnits="userSpaceOnUse">
<stop stop-color="#D6E0E2"/>
<stop offset="1" stop-color="#E8EAEC"/>
</linearGradient>
<linearGradient id="paint5_linear" x1="-12.5397" y1="3.00001" x2="101.068" y2="72.6844" gradientUnits="userSpaceOnUse">
<stop stop-color="#D6E0E2"/>
<stop offset="1" stop-color="#E8EAEC"/>
</linearGradient>
<linearGradient id="paint6_linear" x1="-12.5397" y1="3.00001" x2="101.068" y2="72.6844" gradientUnits="userSpaceOnUse">
<stop stop-color="#D6E0E2"/>
<stop offset="1" stop-color="#E8EAEC"/>
</linearGradient>
<linearGradient id="paint7_linear" x1="-12.5397" y1="3.00001" x2="101.068" y2="72.6844" gradientUnits="userSpaceOnUse">
<stop stop-color="#D6E0E2"/>
<stop offset="1" stop-color="#E8EAEC"/>
</linearGradient>
<linearGradient id="paint8_linear" x1="-12.5397" y1="3.00001" x2="101.068" y2="72.6844" gradientUnits="userSpaceOnUse">
<stop stop-color="#D6E0E2"/>
<stop offset="1" stop-color="#E8EAEC"/>
</linearGradient>
<linearGradient id="paint9_linear" x1="-12.5397" y1="3.00001" x2="101.068" y2="72.6844" gradientUnits="userSpaceOnUse">
<stop stop-color="#D6E0E2"/>
<stop offset="1" stop-color="#E8EAEC"/>
</linearGradient>
<linearGradient id="paint10_linear" x1="-12.5397" y1="3.00001" x2="101.068" y2="72.6844" gradientUnits="userSpaceOnUse">
<stop stop-color="#D6E0E2"/>
<stop offset="1" stop-color="#E8EAEC"/>
</linearGradient>
<linearGradient id="paint11_linear" x1="-12.5397" y1="3.00001" x2="101.068" y2="72.6844" gradientUnits="userSpaceOnUse">
<stop stop-color="#D6E0E2"/>
<stop offset="1" stop-color="#E8EAEC"/>
</linearGradient>
<linearGradient id="paint12_linear" x1="-12.5397" y1="3.00001" x2="101.068" y2="72.6844" gradientUnits="userSpaceOnUse">
<stop stop-color="#D6E0E2"/>
<stop offset="1" stop-color="#E8EAEC"/>
</linearGradient>
<linearGradient id="paint13_linear" x1="-12.5397" y1="3.00001" x2="101.068" y2="72.6844" gradientUnits="userSpaceOnUse">
<stop stop-color="#D6E0E2"/>
<stop offset="1" stop-color="#E8EAEC"/>
</linearGradient>
</defs>
</svg>
