<svg width="190" height="132" viewBox="0 0 190 132" fill="none" xmlns="http://www.w3.org/2000/svg">
<path d="M23.517 128.165C25.4506 128.165 26.7024 127.004 26.8782 125.411H25.3281C25.1257 126.295 24.4386 126.817 23.5277 126.817C22.18 126.817 21.3118 125.693 21.3118 123.909C21.3118 122.157 22.196 121.054 23.5277 121.054C24.5398 121.054 25.1577 121.693 25.3281 122.46H26.8782C26.7077 120.809 25.3601 119.712 23.5011 119.712C21.1946 119.712 19.7031 121.448 19.7031 123.946C19.7031 126.413 21.1413 128.165 23.517 128.165Z" fill="#292D32"/>
<path d="M33.9143 124.607C33.9196 125.997 32.8862 126.658 31.9914 126.658C31.0059 126.658 30.3241 125.944 30.3241 124.831V119.818H28.7314V125.022C28.7314 127.052 29.8447 128.106 31.4161 128.106C32.6465 128.106 33.4828 127.457 33.861 126.583H33.9463V128H35.5123V119.818H33.9143V124.607ZM31.5119 118.726H32.785L31.5439 116.271H29.866L31.5119 118.726Z" fill="#292D32"/>
<path d="M39.395 123.142C39.395 121.837 40.194 121.091 41.302 121.091C42.3833 121.091 43.0385 121.8 43.0385 122.987V128H44.6311V122.796C44.6311 120.772 43.5179 119.712 41.8453 119.712C40.6148 119.712 39.8105 120.282 39.4323 121.15H39.3311V119.818H37.8023V128H39.395V123.142Z" fill="#292D32"/>
<path d="M50.3476 131.239C52.4303 131.239 54.039 130.285 54.039 128.181V119.818H52.4782V121.144H52.361C52.0787 120.638 51.5141 119.712 49.9907 119.712C48.0145 119.712 46.5603 121.272 46.5603 123.877C46.5603 126.487 48.0464 127.877 49.98 127.877C51.4821 127.877 52.0627 127.03 52.3504 126.508H52.4516V128.117C52.4516 129.401 51.5727 129.955 50.3635 129.955C49.0372 129.955 48.5205 129.289 48.2382 128.82L46.8692 129.385C47.3007 130.386 48.3927 131.239 50.3476 131.239ZM50.3316 126.556C48.9093 126.556 48.1689 125.464 48.1689 123.856C48.1689 122.284 48.8934 121.065 50.3316 121.065C51.7218 121.065 52.4676 122.199 52.4676 123.856C52.4676 125.544 51.7059 126.556 50.3316 126.556Z" fill="#292D32"/>
<path d="M60.5725 128H62.2185V123.243H66.8527V121.832H62.2185V118.508H67.3374V117.091H60.5725V128Z" fill="#292D32"/>
<path d="M69.5116 128H71.1575V124.165H73.3948C75.9249 124.165 77.1767 122.636 77.1767 120.622C77.1767 118.614 75.9356 117.091 73.4001 117.091H69.5116V128ZM71.1575 122.769V118.502H73.2243C74.8543 118.502 75.5201 119.387 75.5201 120.622C75.5201 121.858 74.8543 122.769 73.2456 122.769H71.1575Z" fill="#292D32"/>
<path d="M78.7183 118.508H82.1168V128H83.7574V118.508H87.1611V117.091H78.7183V118.508Z" fill="#292D32"/>
<path d="M99.2465 119.957H100.834C100.786 118.209 99.2412 116.942 97.0252 116.942C94.836 116.942 93.1581 118.193 93.1581 120.074C93.1581 121.592 94.2447 122.481 95.9972 122.956L97.2863 123.307C98.4528 123.616 99.353 124 99.353 124.969C99.353 126.034 98.3356 126.737 96.9347 126.737C95.6669 126.737 94.6123 126.173 94.5164 124.985H92.8651C92.9716 126.961 94.5004 128.181 96.9453 128.181C99.5075 128.181 100.983 126.833 100.983 124.985C100.983 123.019 99.2305 122.258 97.8456 121.917L96.7802 121.64C95.9279 121.421 94.7934 121.022 94.7987 119.978C94.7987 119.051 95.6456 118.364 96.988 118.364C98.2397 118.364 99.1293 118.95 99.2465 119.957Z" fill="#292D32"/>
<path d="M106.418 128.165C108.725 128.165 110.232 126.476 110.232 123.946C110.232 121.4 108.725 119.712 106.418 119.712C104.112 119.712 102.604 121.4 102.604 123.946C102.604 126.476 104.112 128.165 106.418 128.165ZM106.424 126.828C104.916 126.828 104.213 125.512 104.213 123.941C104.213 122.375 104.916 121.043 106.424 121.043C107.921 121.043 108.624 122.375 108.624 123.941C108.624 125.512 107.921 126.828 106.424 126.828Z" fill="#292D32"/>
<path d="M116.054 119.818H114.291V119.083C114.291 118.359 114.589 117.964 115.367 117.964C115.697 117.964 115.931 118.039 116.081 118.087L116.453 116.798C116.23 116.713 115.766 116.579 115.122 116.579C113.827 116.579 112.693 117.336 112.693 118.87V119.818H111.43V121.097H112.693V128H114.291V121.097H116.054V119.818Z" fill="#292D32"/>
<path d="M121.666 119.818H119.989V117.858H118.396V119.818H117.197V121.097H118.396V125.928C118.391 127.414 119.525 128.133 120.782 128.106C121.288 128.101 121.629 128.005 121.816 127.936L121.528 126.62C121.421 126.642 121.224 126.69 120.969 126.69C120.452 126.69 119.989 126.519 119.989 125.598V121.097H121.666V119.818Z" fill="#292D32"/>
<path d="M125.352 128H126.971L128.633 122.093H128.756L130.418 128H132.042L134.445 119.818H132.799L131.206 125.8H131.126L129.528 119.818H127.882L126.274 125.827H126.194L124.59 119.818H122.944L125.352 128Z" fill="#292D32"/>
<path d="M138.487 128.181C139.84 128.181 140.602 127.494 140.906 126.881H140.969V128H142.525V122.567C142.525 120.186 140.65 119.712 139.35 119.712C137.869 119.712 136.506 120.308 135.973 121.8L137.47 122.141C137.704 121.56 138.301 121.001 139.371 121.001C140.4 121.001 140.927 121.539 140.927 122.465V122.503C140.927 123.083 140.33 123.073 138.86 123.243C137.31 123.424 135.723 123.829 135.723 125.688C135.723 127.297 136.932 128.181 138.487 128.181ZM138.833 126.903C137.933 126.903 137.283 126.498 137.283 125.709C137.283 124.857 138.04 124.554 138.961 124.431C139.478 124.362 140.703 124.223 140.932 123.994V125.049C140.932 126.018 140.16 126.903 138.833 126.903Z" fill="#292D32"/>
<path d="M144.796 128H146.389V123.003C146.389 121.933 147.215 121.16 148.344 121.16C148.674 121.16 149.047 121.219 149.175 121.256V119.733C149.015 119.712 148.701 119.696 148.498 119.696C147.539 119.696 146.719 120.239 146.421 121.118H146.336V119.818H144.796V128Z" fill="#292D32"/>
<path d="M153.936 128.165C155.721 128.165 156.983 127.286 157.345 125.954L155.838 125.683C155.55 126.455 154.858 126.849 153.952 126.849C152.589 126.849 151.673 125.965 151.63 124.388H157.447V123.824C157.447 120.867 155.678 119.712 153.825 119.712C151.545 119.712 150.043 121.448 150.043 123.962C150.043 126.503 151.523 128.165 153.936 128.165ZM151.635 123.195C151.699 122.034 152.541 121.027 153.835 121.027C155.071 121.027 155.881 121.943 155.886 123.195H151.635Z" fill="#292D32"/>
<g filter="url(#filter0_d)">
<path d="M16.2656 28.0003H21.0043V21.1821H27.277V28.0003H32.0156V10.5457H27.277V17.3639H21.0043V10.5457H16.2656V28.0003Z" fill="url(#paint0_linear)"/>
<path d="M40.6406 28.2389C44.902 28.2389 47.4247 25.5116 47.4247 21.4889C47.4247 17.4662 44.902 14.7389 40.6406 14.7389C36.3793 14.7389 33.8565 17.4662 33.8565 21.4889C33.8565 25.5116 36.3793 28.2389 40.6406 28.2389ZM40.6747 24.7616C39.4133 24.7616 38.6634 23.5088 38.6634 21.4548C38.6634 19.4008 39.4133 18.148 40.6747 18.148C41.8679 18.148 42.6179 19.4008 42.6179 21.4548C42.6179 23.5088 41.8679 24.7616 40.6747 24.7616ZM41.7315 11.0571H39.5838L36.2088 13.5116H39.0384L40.6406 12.3184L42.3111 13.5116H45.0724L41.7315 11.0571ZM42.3452 8.22754C42.3366 8.67072 42.2685 9.18209 42.0043 9.18209C41.2117 9.18209 40.1207 8.50027 39.3111 8.50027C38.3821 8.50027 37.9048 9.42072 37.9134 10.273L39.3452 10.6821C39.3366 10.2389 39.4048 9.89799 39.7202 9.89799C40.5298 9.89799 41.3821 10.6139 42.4134 10.6139C43.3253 10.6139 43.8026 9.69345 43.8111 8.77299L42.3452 8.22754Z" fill="url(#paint1_linear)"/>
<path d="M61.9219 14.9094H59.6719V11.773H54.9673V14.9094H53.2969V18.3184H54.9673V24.2332C54.9332 26.9775 56.6293 28.3667 59.8764 28.1878C60.9418 28.1281 61.7344 27.9065 62.1605 27.7787L61.4787 24.4719C61.2997 24.5145 60.8395 24.6082 60.5582 24.6082C59.9446 24.6082 59.6719 24.3355 59.6719 23.79V18.3184H61.9219V14.9094Z" fill="url(#paint2_linear)"/>
<path d="M63.8416 28.0003H68.5462V21.1821C68.5462 19.6821 69.5774 18.6934 70.9666 18.6934C71.4524 18.6934 72.2365 18.7702 72.7053 18.9321V14.9179C72.3303 14.8071 71.9212 14.7389 71.5121 14.7389C70.1143 14.7389 69.0234 15.5571 68.5462 17.398H68.4098V14.9094H63.8416V28.0003Z" fill="url(#paint3_linear)"/>
<path d="M85.6683 14.2957C85.6683 15.4548 85.5234 16.3497 85.0803 16.9207C83.9212 15.54 82.1143 14.7389 79.8047 14.7389C75.5433 14.7389 73.0206 17.4662 73.0206 21.4889C73.0206 25.5116 75.5433 28.2389 79.8047 28.2389C84.0661 28.2389 86.5888 25.5116 86.5888 21.4889C86.5888 20.3809 86.4013 19.3753 86.0348 18.4974C87.3814 17.7474 88.0206 16.3071 88.0206 14.2957H85.6683ZM79.8388 24.7616C78.5774 24.7616 77.8274 23.5088 77.8274 21.4548C77.8274 19.4008 78.5774 18.148 79.8388 18.148C81.032 18.148 81.782 19.4008 81.782 21.4548C81.782 23.5088 81.032 24.7616 79.8388 24.7616ZM79.8047 33.2844C81.0831 33.2844 82.1229 32.3213 82.1229 31.1366C82.1229 29.952 81.0831 28.9889 79.8047 28.9889C78.5263 28.9889 77.4865 29.952 77.4865 31.1366C77.4865 32.3213 78.5263 33.2844 79.8047 33.2844Z" fill="url(#paint4_linear)"/>
<path d="M98.7102 10.5457H94.0057V28.0003H98.7102V10.5457Z" fill="url(#paint5_linear)"/>
<path d="M104.755 28.2048C106.46 28.2048 107.746 27.6253 108.539 26.1594H108.641V28.0003H113.039V19.0344C113.039 16.6139 110.746 14.7389 107.005 14.7389C103.093 14.7389 101.167 16.7844 101.005 19.1707H105.335C105.445 18.3611 106.042 17.9775 106.937 17.9775C107.755 17.9775 108.335 18.3525 108.335 19.0344V19.0684C108.335 19.827 107.499 20.0656 105.3 20.2275C102.599 20.4236 100.494 21.5145 100.494 24.3866C100.494 26.9946 102.249 28.2048 104.755 28.2048ZM104.823 13.273C104.823 12.4207 105.164 11.9775 105.71 11.9775C106.067 11.9775 106.366 12.2162 106.715 12.4974C107.218 12.898 107.832 13.3838 108.88 13.3753C110.474 13.3582 111.744 12.1054 111.778 9.69345H109.494C109.477 10.5202 109.229 11.0145 108.573 11.023C108.249 11.023 107.951 10.7929 107.602 10.5202C107.09 10.1196 106.451 9.61674 105.403 9.62527C103.792 9.63379 102.505 10.8184 102.505 13.273H104.823ZM106.289 25.2389C105.488 25.2389 104.925 24.8469 104.925 24.1139C104.925 23.4406 105.403 22.9207 106.494 22.7503C107.244 22.6309 107.874 22.4775 108.369 22.273V23.3639C108.369 24.5571 107.354 25.2389 106.289 25.2389Z" fill="url(#paint6_linear)"/>
<path d="M115.287 28.0003H119.991V14.9094H115.287V28.0003ZM117.639 13.5457C118.918 13.5457 119.957 12.5827 119.957 11.398C119.957 10.2133 118.918 9.25027 117.639 9.25027C116.361 9.25027 115.321 10.2133 115.321 11.398C115.321 12.5827 116.361 13.5457 117.639 13.5457Z" fill="url(#paint7_linear)"/>
<path d="M140.363 14.9094H135.42L133.306 23.5684H133.17L131.056 14.9094H126.113L130.511 28.0003H135.965L140.363 14.9094Z" fill="url(#paint8_linear)"/>
<path d="M144.997 28.2048C146.702 28.2048 147.989 27.6253 148.781 26.1594H148.884V28.0003H153.281V19.0344C153.281 16.6139 150.989 14.7389 147.247 14.7389C143.335 14.7389 141.409 16.7844 141.247 19.1707H145.577C145.688 18.3611 146.284 17.9775 147.179 17.9775C147.997 17.9775 148.577 18.3525 148.577 19.0344V19.0684C148.577 19.827 147.741 20.0656 145.543 20.2275C142.841 20.4236 140.736 21.5145 140.736 24.3866C140.736 26.9946 142.491 28.2048 144.997 28.2048ZM146.531 25.2389C145.73 25.2389 145.168 24.8469 145.168 24.1139C145.168 23.4406 145.645 22.9207 146.736 22.7503C147.486 22.6309 148.116 22.4775 148.611 22.273V23.3639C148.611 24.5571 147.597 25.2389 146.531 25.2389Z" fill="url(#paint9_linear)"/>
<path d="M157.924 32.9094C161.214 32.9094 162.756 31.2559 163.481 29.0912L168.254 14.9094H163.31L161.163 23.9775H161.026L158.913 14.9094H154.004L158.606 28.5798L158.504 28.8184C158.188 29.5429 157.276 29.5173 156.117 29.1082L155.094 32.4491C155.827 32.7389 156.842 32.9094 157.924 32.9094Z" fill="url(#paint10_linear)"/>
<path d="M173.339 25.6139H169.794V26.5684C169.794 28.8866 169.01 31.3156 168.737 32.2616H171.635C172.044 31.3156 173.092 29.0315 173.271 26.5684L173.339 25.6139Z" fill="url(#paint11_linear)"/>
</g>
<g filter="url(#filter1_d)">
<path d="M26.8636 47.8181H33.8636V65.9999H40.0909V47.8181H47.0909V42.7272H26.8636V47.8181Z" fill="url(#paint12_linear)"/>
<path d="M52.5455 65.9999L53.8864 61.5454H61.5682L62.9091 65.9999H69.7273L62.0455 42.7272H53.4091L45.7273 65.9999H52.5455ZM55.5 40.659L57.7273 38.159L59.9545 40.659H65.1364V40.5226L59.9091 35.3408H55.5455L50.3182 40.5226V40.659H55.5ZM57.7273 73.0454C59.4318 73.0454 60.8182 71.7613 60.8182 70.1817C60.8182 68.6022 59.4318 67.3181 57.7273 67.3181C56.0227 67.3181 54.6364 68.6022 54.6364 70.1817C54.6364 71.7613 56.0227 73.0454 57.7273 73.0454ZM55.3182 56.8181L57.6364 49.1363H57.8182L60.1364 56.8181H55.3182Z" fill="url(#paint13_linear)"/>
<path d="M85.7415 42.7272V57.0908C85.7415 59.2613 84.1847 60.8181 82.0142 60.8181C79.8438 60.8181 78.2869 59.2613 78.2869 57.0908V42.7272H71.9688V57.6363C71.9688 62.9545 75.9915 66.2726 82.0142 66.2726C87.9915 66.2726 92.0597 62.9545 92.0597 57.6363V42.7272H85.7415Z" fill="url(#paint14_linear)"/>
<path d="M104.241 58.6363C104.25 57.3408 104.983 56.5567 106.151 56.5567C107.335 56.5567 108.034 57.3408 108.026 58.6363V65.9999H112.73V57.6476C112.739 54.801 110.94 52.7385 108.162 52.7385C106.236 52.7385 104.71 53.7442 104.139 55.3976H104.003V52.909H99.5369V65.9999H104.241V58.6363Z" fill="url(#paint15_linear)"/>
<path d="M121.359 71.1817C125.501 71.1817 128.246 69.2897 128.246 65.9658V52.909H123.541V55.1931H123.439C122.928 53.8635 121.7 52.7385 119.757 52.7385C117.166 52.7385 114.643 54.7158 114.643 59.4545C114.643 63.9885 116.996 65.8295 119.791 65.8295C121.564 65.8295 122.962 65.0795 123.473 63.7499H123.609V65.9658C123.609 67.5084 122.714 68.0113 121.496 68.0113C120.413 68.0113 119.621 67.6874 119.484 66.8522H114.95C115.129 69.3749 117.422 71.1817 121.359 71.1817ZM121.53 62.4885C120.234 62.4885 119.484 61.3976 119.484 59.4545C119.484 57.5113 120.234 56.3522 121.53 56.3522C122.825 56.3522 123.609 57.5113 123.609 59.4545C123.609 61.3635 122.825 62.4885 121.53 62.4885Z" fill="url(#paint16_linear)"/>
<path d="M134.286 66.2045C135.991 66.2045 137.278 65.6249 138.07 64.159H138.173V65.9999H142.57V57.034C142.57 54.6135 140.278 52.7385 136.536 52.7385C132.624 52.7385 130.698 54.784 130.536 57.1704H134.866C134.977 56.3607 135.573 55.9772 136.468 55.9772C137.286 55.9772 137.866 56.3522 137.866 57.034V57.0681C137.866 57.8266 137.031 58.0653 134.832 58.2272C132.13 58.4232 130.025 59.5141 130.025 62.3863C130.025 64.9942 131.781 66.2045 134.286 66.2045ZM135.82 63.2385C135.019 63.2385 134.457 62.8465 134.457 62.1135C134.457 61.4403 134.934 60.9204 136.025 60.7499C136.775 60.6306 137.406 60.4772 137.9 60.2726V61.3635C137.9 62.5567 136.886 63.2385 135.82 63.2385Z" fill="url(#paint17_linear)"/>
<path d="M147.213 70.909C150.503 70.909 152.045 69.2556 152.77 67.0908L157.543 52.909H152.599L150.452 61.9772H150.315L148.202 52.909H143.293L147.895 66.5795L147.793 66.8181C147.477 67.5425 146.565 67.517 145.406 67.1079L144.384 70.4488C145.116 70.7385 146.131 70.909 147.213 70.909Z" fill="url(#paint18_linear)"/>
<path d="M47.6364 82.7272H41.3182V94.909H41.1364L32.8636 82.7272H27.5V106H33.8182V93.7726H33.9545L42.3636 106H47.6364V82.7272Z" fill="url(#paint19_linear)"/>
<path d="M50.625 106H56.9432V96.909H65.3068V106H71.625V82.7272H65.3068V91.8181H56.9432V82.7272H50.625V106Z" fill="url(#paint20_linear)"/>
<path d="M80.6705 106L82.0114 101.545H89.6932L91.0341 106H97.8523L90.1705 82.7272H81.5341L73.8523 106H80.6705ZM83.8068 80.5454H87.9432L85.7614 75.4545H80.3977L83.8068 80.5454ZM83.4432 96.8181L85.7614 89.1363H85.9432L88.2614 96.8181H83.4432Z" fill="url(#paint21_linear)"/>
<path d="M106.162 106H110.866V98.3636C110.866 97.2215 111.463 96.5226 112.435 96.5226C113.406 96.5226 114.037 97.2215 114.037 98.3636V106H118.537V98.3636C118.537 97.2215 119.134 96.5226 120.105 96.5226C121.077 96.5226 121.707 97.2215 121.707 98.3636V106H126.412V97.1704C126.412 94.4857 124.69 92.7385 122.185 92.7385C120.241 92.7385 118.673 93.7954 118.23 95.3976H118.094C117.821 93.7954 116.355 92.7385 114.514 92.7385C112.699 92.7385 111.31 93.7613 110.764 95.3976H110.628V92.909H106.162V106Z" fill="url(#paint22_linear)"/>
<path d="M140.903 92.2954C140.903 93.4545 140.758 94.3493 140.315 94.9204C139.156 93.5397 137.349 92.7385 135.039 92.7385C130.778 92.7385 128.255 95.4658 128.255 99.4886C128.255 103.511 130.778 106.239 135.039 106.239C139.3 106.239 141.823 103.511 141.823 99.4886C141.823 98.3806 141.636 97.3749 141.269 96.4971C142.616 95.7471 143.255 94.3067 143.255 92.2954H140.903ZM135.073 102.761C133.812 102.761 133.062 101.508 133.062 99.4545C133.062 97.4005 133.812 96.1476 135.073 96.1476C136.266 96.1476 137.016 97.4005 137.016 99.4545C137.016 101.508 136.266 102.761 135.073 102.761ZM133.471 91.2726H136.573L139.13 87.4545H135.107L133.471 91.2726Z" fill="url(#paint23_linear)"/>
<path d="M144.459 106H149.163V92.909H144.459V106ZM146.811 91.5454C148.089 91.5454 149.129 90.5823 149.129 89.3976C149.129 88.213 148.089 87.2499 146.811 87.2499C145.533 87.2499 144.493 88.213 144.493 89.3976C144.493 90.5823 145.533 91.5454 146.811 91.5454Z" fill="url(#paint24_linear)"/>
</g>
<defs>
<filter id="filter0_d" x="0.265625" y="0.227539" width="189.074" height="57.0568" filterUnits="userSpaceOnUse" color-interpolation-filters="sRGB">
<feFlood flood-opacity="0" result="BackgroundImageFix"/>
<feColorMatrix in="SourceAlpha" type="matrix" values="0 0 0 0 0 0 0 0 0 0 0 0 0 0 0 0 0 0 127 0" result="hardAlpha"/>
<feOffset dy="8"/>
<feGaussianBlur stdDeviation="8"/>
<feComposite in2="hardAlpha" operator="out"/>
<feColorMatrix type="matrix" values="0 0 0 0 0 0 0 0 0 0 0 0 0 0 0 0 0 0 0.08 0"/>
<feBlend mode="normal" in2="BackgroundImageFix" result="effect1_dropShadow"/>
<feBlend mode="normal" in="SourceGraphic" in2="effect1_dropShadow" result="shape"/>
</filter>
<filter id="filter1_d" x="10.8636" y="27.3408" width="162.679" height="102.898" filterUnits="userSpaceOnUse" color-interpolation-filters="sRGB">
<feFlood flood-opacity="0" result="BackgroundImageFix"/>
<feColorMatrix in="SourceAlpha" type="matrix" values="0 0 0 0 0 0 0 0 0 0 0 0 0 0 0 0 0 0 127 0" result="hardAlpha"/>
<feOffset dy="8"/>
<feGaussianBlur stdDeviation="8"/>
<feComposite in2="hardAlpha" operator="out"/>
<feColorMatrix type="matrix" values="0 0 0 0 0 0 0 0 0 0 0 0 0 0 0 0 0 0 0.08 0"/>
<feBlend mode="normal" in2="BackgroundImageFix" result="effect1_dropShadow"/>
<feBlend mode="normal" in="SourceGraphic" in2="effect1_dropShadow" result="shape"/>
</filter>
<linearGradient id="paint0_linear" x1="-43.8229" y1="-0.999998" x2="27.1554" y2="93.4032" gradientUnits="userSpaceOnUse">
<stop stop-color="#D6E0E2"/>
<stop offset="1" stop-color="#E8EAEC"/>
</linearGradient>
<linearGradient id="paint1_linear" x1="-43.8229" y1="-0.999998" x2="27.1554" y2="93.4032" gradientUnits="userSpaceOnUse">
<stop stop-color="#D6E0E2"/>
<stop offset="1" stop-color="#E8EAEC"/>
</linearGradient>
<linearGradient id="paint2_linear" x1="-43.8229" y1="-0.999998" x2="27.1554" y2="93.4032" gradientUnits="userSpaceOnUse">
<stop stop-color="#D6E0E2"/>
<stop offset="1" stop-color="#E8EAEC"/>
</linearGradient>
<linearGradient id="paint3_linear" x1="-43.8229" y1="-0.999998" x2="27.1554" y2="93.4032" gradientUnits="userSpaceOnUse">
<stop stop-color="#D6E0E2"/>
<stop offset="1" stop-color="#E8EAEC"/>
</linearGradient>
<linearGradient id="paint4_linear" x1="-43.8229" y1="-0.999998" x2="27.1554" y2="93.4032" gradientUnits="userSpaceOnUse">
<stop stop-color="#D6E0E2"/>
<stop offset="1" stop-color="#E8EAEC"/>
</linearGradient>
<linearGradient id="paint5_linear" x1="-43.8229" y1="-0.999998" x2="27.1554" y2="93.4032" gradientUnits="userSpaceOnUse">
<stop stop-color="#D6E0E2"/>
<stop offset="1" stop-color="#E8EAEC"/>
</linearGradient>
<linearGradient id="paint6_linear" x1="-43.8229" y1="-0.999998" x2="27.1554" y2="93.4032" gradientUnits="userSpaceOnUse">
<stop stop-color="#D6E0E2"/>
<stop offset="1" stop-color="#E8EAEC"/>
</linearGradient>
<linearGradient id="paint7_linear" x1="-43.8229" y1="-0.999998" x2="27.1554" y2="93.4032" gradientUnits="userSpaceOnUse">
<stop stop-color="#D6E0E2"/>
<stop offset="1" stop-color="#E8EAEC"/>
</linearGradient>
<linearGradient id="paint8_linear" x1="-43.8229" y1="-0.999998" x2="27.1554" y2="93.4032" gradientUnits="userSpaceOnUse">
<stop stop-color="#D6E0E2"/>
<stop offset="1" stop-color="#E8EAEC"/>
</linearGradient>
<linearGradient id="paint9_linear" x1="-43.8229" y1="-0.999998" x2="27.1554" y2="93.4032" gradientUnits="userSpaceOnUse">
<stop stop-color="#D6E0E2"/>
<stop offset="1" stop-color="#E8EAEC"/>
</linearGradient>
<linearGradient id="paint10_linear" x1="-43.8229" y1="-0.999998" x2="27.1554" y2="93.4032" gradientUnits="userSpaceOnUse">
<stop stop-color="#D6E0E2"/>
<stop offset="1" stop-color="#E8EAEC"/>
</linearGradient>
<linearGradient id="paint11_linear" x1="-43.8229" y1="-0.999998" x2="27.1554" y2="93.4032" gradientUnits="userSpaceOnUse">
<stop stop-color="#D6E0E2"/>
<stop offset="1" stop-color="#E8EAEC"/>
</linearGradient>
<linearGradient id="paint12_linear" x1="33.6657" y1="34" x2="110.507" y2="55.5503" gradientUnits="userSpaceOnUse">
<stop stop-color="#D6E0E2"/>
<stop offset="1" stop-color="#E8EAEC"/>
</linearGradient>
<linearGradient id="paint13_linear" x1="33.6657" y1="34" x2="110.507" y2="55.5503" gradientUnits="userSpaceOnUse">
<stop stop-color="#D6E0E2"/>
<stop offset="1" stop-color="#E8EAEC"/>
</linearGradient>
<linearGradient id="paint14_linear" x1="33.6657" y1="34" x2="110.507" y2="55.5503" gradientUnits="userSpaceOnUse">
<stop stop-color="#D6E0E2"/>
<stop offset="1" stop-color="#E8EAEC"/>
</linearGradient>
<linearGradient id="paint15_linear" x1="33.6657" y1="34" x2="110.507" y2="55.5503" gradientUnits="userSpaceOnUse">
<stop stop-color="#D6E0E2"/>
<stop offset="1" stop-color="#E8EAEC"/>
</linearGradient>
<linearGradient id="paint16_linear" x1="33.6657" y1="34" x2="110.507" y2="55.5503" gradientUnits="userSpaceOnUse">
<stop stop-color="#D6E0E2"/>
<stop offset="1" stop-color="#E8EAEC"/>
</linearGradient>
<linearGradient id="paint17_linear" x1="33.6657" y1="34" x2="110.507" y2="55.5503" gradientUnits="userSpaceOnUse">
<stop stop-color="#D6E0E2"/>
<stop offset="1" stop-color="#E8EAEC"/>
</linearGradient>
<linearGradient id="paint18_linear" x1="33.6657" y1="34" x2="110.507" y2="55.5503" gradientUnits="userSpaceOnUse">
<stop stop-color="#D6E0E2"/>
<stop offset="1" stop-color="#E8EAEC"/>
</linearGradient>
<linearGradient id="paint19_linear" x1="33.6657" y1="34" x2="110.507" y2="55.5503" gradientUnits="userSpaceOnUse">
<stop stop-color="#D6E0E2"/>
<stop offset="1" stop-color="#E8EAEC"/>
</linearGradient>
<linearGradient id="paint20_linear" x1="33.6657" y1="34" x2="110.507" y2="55.5503" gradientUnits="userSpaceOnUse">
<stop stop-color="#D6E0E2"/>
<stop offset="1" stop-color="#E8EAEC"/>
</linearGradient>
<linearGradient id="paint21_linear" x1="33.6657" y1="34" x2="110.507" y2="55.5503" gradientUnits="userSpaceOnUse">
<stop stop-color="#D6E0E2"/>
<stop offset="1" stop-color="#E8EAEC"/>
</linearGradient>
<linearGradient id="paint22_linear" x1="33.6657" y1="34" x2="110.507" y2="55.5503" gradientUnits="userSpaceOnUse">
<stop stop-color="#D6E0E2"/>
<stop offset="1" stop-color="#E8EAEC"/>
</linearGradient>
<linearGradient id="paint23_linear" x1="33.6657" y1="34" x2="110.507" y2="55.5503" gradientUnits="userSpaceOnUse">
<stop stop-color="#D6E0E2"/>
<stop offset="1" stop-color="#E8EAEC"/>
</linearGradient>
<linearGradient id="paint24_linear" x1="33.6657" y1="34" x2="110.507" y2="55.5503" gradientUnits="userSpaceOnUse">
<stop stop-color="#D6E0E2"/>
<stop offset="1" stop-color="#E8EAEC"/>
</linearGradient>
</defs>
</svg>
