<svg width="251" height="128" viewBox="0 0 251 128" fill="none" xmlns="http://www.w3.org/2000/svg">
<g filter="url(#filter0_d)">
<path d="M16.3726 12.1911H20.3804V23.0001H23.1162V12.1911H27.124V9.90918H16.3726V12.1911Z" fill="url(#paint0_linear)"/>
<path d="M31.5664 17.324C31.5728 16.0583 32.3463 15.3169 33.4585 15.3169C34.5643 15.3169 35.2163 16.0264 35.2099 17.2345V23.0001H37.9329V16.7487C37.9393 14.4475 36.5842 13.0541 34.5387 13.0541C33.0494 13.0541 32.0522 13.7572 31.6048 14.9142H31.4897V9.90918H28.8434V23.0001H31.5664V17.324Z" fill="url(#paint1_linear)"/>
<path d="M48.7435 12.6066C48.7435 13.5335 48.6284 14.2366 48.1938 14.6201C47.3564 13.6293 46.0908 13.0541 44.5119 13.0541C41.5332 13.0541 39.6796 15.0867 39.6796 18.1294C39.6796 21.1528 41.5332 23.1919 44.5119 23.1919C47.4906 23.1919 49.3443 21.1528 49.3443 18.1294C49.3443 17.2153 49.1781 16.3907 48.8585 15.6876C49.9004 15.1698 50.3671 14.1024 50.3671 12.6066H48.7435ZM44.5247 21.0825C43.1504 21.0825 42.4473 19.8232 42.4473 18.1102C42.4473 16.3971 43.1504 15.1315 44.5247 15.1315C45.8734 15.1315 46.5766 16.3971 46.5766 18.1102C46.5766 19.8232 45.8734 21.0825 44.5247 21.0825ZM43.5659 11.9163H45.4899L44.1284 9.0079H41.6163L43.5659 11.9163Z" fill="url(#paint2_linear)"/>
<path d="M51.4489 23.0001H54.1719V13.1819H51.4489V23.0001ZM52.8168 11.9163C53.6286 11.9163 54.2934 11.2963 54.2934 10.5356C54.2934 9.78134 53.6286 9.16131 52.8168 9.16131C52.0114 9.16131 51.3466 9.78134 51.3466 10.5356C51.3466 11.2963 52.0114 11.9163 52.8168 11.9163Z" fill="url(#paint3_linear)"/>
<path d="M64.9425 26.8865C67.7486 26.8865 69.7429 25.608 69.7429 23.096V13.1819H67.0391V14.8311H66.9368C66.5725 14.032 65.7735 13.0541 64.1307 13.0541C61.9766 13.0541 60.1549 14.7288 60.1549 18.0718C60.1549 21.3382 61.9255 22.8595 64.1371 22.8595C65.7032 22.8595 66.5789 22.0732 66.9368 21.2615H67.0519V23.0576C67.0519 24.4063 66.189 24.9305 65.0064 24.9305C63.8047 24.9305 63.1975 24.4063 62.9738 23.8119L60.4553 24.1507C60.7813 25.6975 62.2962 26.8865 64.9425 26.8865ZM65 20.814C63.6641 20.814 62.9354 19.7529 62.9354 18.059C62.9354 16.3907 63.6513 15.221 65 15.221C66.3232 15.221 67.0647 16.3396 67.0647 18.059C67.0647 19.7913 66.3104 20.814 65 20.814Z" fill="url(#paint4_linear)"/>
<path d="M71.9098 23.0001H74.6329V13.1819H71.9098V23.0001ZM73.2777 11.9163C74.0895 11.9163 74.7543 11.2963 74.7543 10.5356C74.7543 9.78134 74.0895 9.16131 73.2777 9.16131C72.4723 9.16131 71.8076 9.78134 71.8076 10.5356C71.8076 11.2963 72.4723 11.9163 73.2777 11.9163Z" fill="url(#paint5_linear)"/>
<path d="M79.6139 23.1855C81.0648 23.1855 82.0045 22.5526 82.4839 21.6386H82.5606V23.0001H85.143V16.3779C85.143 14.0384 83.1614 13.0541 80.9754 13.0541C78.6231 13.0541 77.0762 14.1791 76.6991 15.9688L79.2176 16.1734C79.4029 15.5214 79.9846 15.042 80.9626 15.042C81.8894 15.042 82.42 15.5086 82.42 16.314V16.3524C82.42 16.9852 81.7488 17.0683 80.0421 17.2345C78.0989 17.4134 76.3539 18.0654 76.3539 20.2579C76.3539 22.2011 77.741 23.1855 79.6139 23.1855ZM80.3937 21.3062C79.5563 21.3062 78.9555 20.9163 78.9555 20.1684C78.9555 19.4014 79.5883 19.0242 80.5471 18.89C81.1416 18.8069 82.1131 18.6663 82.4391 18.449V19.4909C82.4391 20.52 81.589 21.3062 80.3937 21.3062Z" fill="url(#paint6_linear)"/>
<path d="M89.9786 17.324C89.985 16.0583 90.7392 15.3169 91.8386 15.3169C92.9317 15.3169 93.5901 16.0328 93.5837 17.2345V23.0001H96.3067V16.7487C96.3067 14.4603 94.9644 13.0541 92.9189 13.0541C91.4615 13.0541 90.4068 13.77 89.9658 14.9142H89.8507V13.1819H87.2555V23.0001H89.9786V17.324Z" fill="url(#paint7_linear)"/>
<path d="M107.055 23.1919C109.669 23.1919 111.312 21.6578 111.44 19.4014H108.87C108.71 20.4497 108.02 21.0377 107.087 21.0377C105.815 21.0377 104.99 19.9703 104.99 18.091C104.99 16.2373 105.821 15.1762 107.087 15.1762C108.084 15.1762 108.723 15.8346 108.87 16.8126H111.44C111.325 14.5434 109.605 13.0541 107.042 13.0541C104.063 13.0541 102.223 15.1187 102.223 18.1294C102.223 21.1144 104.031 23.1919 107.055 23.1919Z" fill="url(#paint8_linear)"/>
<path d="M115.906 17.324C115.913 16.0583 116.686 15.3169 117.798 15.3169C118.904 15.3169 119.556 16.0264 119.55 17.2345V23.0001H122.273V16.7487C122.279 14.4475 120.924 13.0541 118.879 13.0541C117.389 13.0541 116.392 13.7572 115.945 14.9142H115.83V9.90918H113.183V23.0001H115.906V17.324Z" fill="url(#paint9_linear)"/>
<path d="M124.416 23.0001H127.139V13.1819H124.416V23.0001ZM126.787 11.7757V11.2132C127.471 11.1109 128.155 10.7338 128.149 9.96032C128.155 8.87367 126.941 8.22168 124.665 8.22168L124.595 9.45535C125.323 9.45535 125.879 9.58319 125.873 10.0434C125.879 10.3758 125.528 10.5867 124.627 10.6251L124.767 11.7757H126.787Z" fill="url(#paint10_linear)"/>
<path d="M137.104 23.1599C138.689 23.1599 139.514 22.2458 139.891 21.4276H140.006V23.0001H142.691V12.5107H143.809V10.9063H142.691V9.90918H139.974V10.9063H137.43V12.5107H139.974V14.8311H139.891C139.526 14.032 138.74 13.0541 137.098 13.0541C134.943 13.0541 133.122 14.7288 133.122 18.1038C133.122 21.3893 134.867 23.1599 137.104 23.1599ZM137.967 20.993C136.631 20.993 135.902 19.8041 135.902 18.091C135.902 16.3907 136.618 15.221 137.967 15.221C139.29 15.221 140.031 16.3396 140.031 18.091C140.031 19.8424 139.277 20.993 137.967 20.993Z" fill="url(#paint11_linear)"/>
<path d="M149.365 23.1919C152.344 23.1919 154.198 21.1528 154.198 18.1294C154.198 15.0867 152.344 13.0541 149.365 13.0541C146.387 13.0541 144.533 15.0867 144.533 18.1294C144.533 21.1528 146.387 23.1919 149.365 23.1919ZM149.378 21.0825C148.004 21.0825 147.301 19.8232 147.301 18.1102C147.301 16.3971 148.004 15.1315 149.378 15.1315C150.727 15.1315 151.43 16.3971 151.43 18.1102C151.43 19.8232 150.727 21.0825 149.378 21.0825ZM148.081 12.0186L149.365 10.4589L150.65 12.0186H152.971V11.9291L150.375 9.11657H148.349L145.76 11.9291V12.0186H148.081ZM149.359 26.6819C150.171 26.6819 150.836 26.0619 150.836 25.3012C150.836 24.547 150.171 23.9269 149.359 23.9269C148.554 23.9269 147.889 24.547 147.889 25.3012C147.889 26.0619 148.554 26.6819 149.359 26.6819Z" fill="url(#paint12_linear)"/>
<path d="M164.558 26.8865C167.364 26.8865 169.358 25.608 169.358 23.096V13.1819H166.654V14.8311H166.552C166.188 14.032 165.389 13.0541 163.746 13.0541C161.592 13.0541 159.77 14.7288 159.77 18.0718C159.77 21.3382 161.541 22.8595 163.752 22.8595C165.318 22.8595 166.194 22.0732 166.552 21.2615H166.667V23.0576C166.667 24.4063 165.804 24.9305 164.622 24.9305C163.42 24.9305 162.813 24.4063 162.589 23.8119L160.071 24.1507C160.397 25.6975 161.911 26.8865 164.558 26.8865ZM164.615 20.814C163.279 20.814 162.551 19.7529 162.551 18.059C162.551 16.3907 163.267 15.221 164.615 15.221C165.938 15.221 166.68 16.3396 166.68 18.059C166.68 19.7913 165.926 20.814 164.615 20.814Z" fill="url(#paint13_linear)"/>
<path d="M174.325 23.1855C175.776 23.1855 176.715 22.5526 177.195 21.6386H177.272V23.0001H179.854V16.3779C179.854 14.0384 177.872 13.0541 175.686 13.0541C173.334 13.0541 171.787 14.1791 171.41 15.9688L173.928 16.1734C174.114 15.5214 174.696 15.042 175.674 15.042C176.6 15.042 177.131 15.5086 177.131 16.314V16.3524C177.131 16.9852 176.46 17.0683 174.753 17.2345C172.81 17.4134 171.065 18.0654 171.065 20.2579C171.065 22.2011 172.452 23.1855 174.325 23.1855ZM175.105 21.3062C174.267 21.3062 173.666 20.9163 173.666 20.1684C173.666 19.4014 174.299 19.0242 175.258 18.89C175.852 18.8069 176.824 18.6663 177.15 18.449V19.4909C177.15 20.52 176.3 21.3062 175.105 21.3062Z" fill="url(#paint14_linear)"/>
<path d="M184.689 17.324C184.696 16.0583 185.45 15.3169 186.55 15.3169C187.643 15.3169 188.301 16.0328 188.295 17.2345V23.0001H191.018V16.7487C191.018 14.4603 189.675 13.0541 187.63 13.0541C186.172 13.0541 185.118 13.77 184.677 14.9142H184.562V13.1819H181.966V23.0001H184.689V17.324Z" fill="url(#paint15_linear)"/>
<path d="M197.587 26.8865C200.393 26.8865 202.387 25.608 202.387 23.096V13.1819H199.684V14.8311H199.581C199.217 14.032 198.418 13.0541 196.775 13.0541C194.621 13.0541 192.799 14.7288 192.799 18.0718C192.799 21.3382 194.57 22.8595 196.782 22.8595C198.348 22.8595 199.223 22.0732 199.581 21.2615H199.696V23.0576C199.696 24.4063 198.833 24.9305 197.651 24.9305C196.449 24.9305 195.842 24.4063 195.618 23.8119L193.1 24.1507C193.426 25.6975 194.941 26.8865 197.587 26.8865ZM197.645 20.814C196.309 20.814 195.58 19.7529 195.58 18.059C195.58 16.3907 196.296 15.221 197.645 15.221C198.968 15.221 199.709 16.3396 199.709 18.059C199.709 19.7913 198.955 20.814 197.645 20.814Z" fill="url(#paint16_linear)"/>
<path d="M213.943 13.1819H212.095V10.8296H209.372V13.1819H208.03V15.2274H209.372V20.341C209.36 22.265 210.67 23.2174 212.645 23.1343C213.348 23.1088 213.847 22.9681 214.122 22.8786L213.693 20.8524C213.559 20.8779 213.272 20.9419 213.016 20.9419C212.473 20.9419 212.095 20.7373 212.095 19.983V15.2274H213.943V13.1819Z" fill="url(#paint17_linear)"/>
<path d="M218.516 23.1855C219.967 23.1855 220.907 22.5526 221.386 21.6386H221.463V23.0001H224.045V16.3779C224.045 14.0384 222.064 13.0541 219.878 13.0541C217.525 13.0541 215.979 14.1791 215.601 15.9688L218.12 16.1734C218.305 15.5214 218.887 15.042 219.865 15.042C220.792 15.042 221.322 15.5086 221.322 16.314V16.3524C221.322 16.9852 220.651 17.0683 218.944 17.2345C217.001 17.4134 215.256 18.0654 215.256 20.2579C215.256 22.2011 216.643 23.1855 218.516 23.1855ZM219.296 21.3062C218.459 21.3062 217.858 20.9163 217.858 20.1684C217.858 19.4014 218.491 19.0242 219.449 18.89C220.044 18.8069 221.016 18.6663 221.341 18.449V19.4909C221.341 20.52 220.491 21.3062 219.296 21.3062Z" fill="url(#paint18_linear)"/>
<path d="M227.487 26.6819C229.514 26.6819 230.588 25.6464 231.144 24.0612L234.96 13.1947L232.077 13.1819L230.025 20.3921H229.923L227.89 13.1819H225.027L228.549 23.2813L228.389 23.6968C228.031 24.6173 227.347 24.662 226.388 24.368L225.774 26.4007C226.164 26.5669 226.797 26.6819 227.487 26.6819Z" fill="url(#paint19_linear)"/>
</g>
<g filter="url(#filter1_d)">
<path d="M42.6846 100C46.6732 100 49.0894 97.5328 49.0894 93.4419C49.0894 89.3638 46.6732 86.9093 42.7229 86.9093H38.0439V100H42.6846ZM40.8117 97.6287V89.2807H42.5759C45.0304 89.2807 46.328 90.5336 46.328 93.4419C46.328 96.3631 45.0304 97.6287 42.5695 97.6287H40.8117Z" fill="url(#paint20_linear)"/>
<path d="M55.5629 100.192C57.9919 100.192 59.6283 99.0094 60.0118 97.1877L57.4933 97.0215C57.2185 97.7694 56.5154 98.1593 55.6077 98.1593C54.2462 98.1593 53.3833 97.258 53.3833 95.7942V95.7878H60.0693V95.04C60.0693 91.7033 58.0494 90.0542 55.4543 90.0542C52.5651 90.0542 50.6922 92.106 50.6922 95.1358C50.6922 98.2488 52.5395 100.192 55.5629 100.192ZM53.3833 94.1003C53.4408 92.9817 54.2909 92.0868 55.499 92.0868C56.6816 92.0868 57.4997 92.9306 57.5061 94.1003H53.3833ZM56.119 87.2417H54.6617L52.0665 89.204H53.9713L55.3776 88.1301L56.8158 89.204H58.695L56.119 87.2417ZM56.7838 85.0684C56.7774 85.3944 56.5921 85.7459 56.33 85.7459C55.71 85.7459 55.0644 85.2026 54.4124 85.2026C53.6709 85.2026 53.2107 85.9057 53.2107 86.5641L54.1311 86.8198C54.1311 86.4938 54.3101 86.2125 54.5977 86.2125C55.2369 86.2125 55.7036 86.775 56.5154 86.775C57.2504 86.775 57.7235 86.0847 57.7298 85.3944L56.7838 85.0684Z" fill="url(#paint21_linear)"/>
<path d="M69.6302 100.16C71.2155 100.16 72.04 99.2459 72.4172 98.4277H72.5322V100H75.2169V86.9093H72.5003V91.8311H72.4172C72.0528 91.0321 71.2666 90.0542 69.6238 90.0542C67.4697 90.0542 65.648 91.7289 65.648 95.1039C65.648 98.3894 67.393 100.16 69.6302 100.16ZM70.4932 97.9931C69.1572 97.9931 68.4285 96.8042 68.4285 95.0911C68.4285 93.3908 69.1444 92.2211 70.4932 92.2211C71.8163 92.2211 72.5578 93.3397 72.5578 95.0911C72.5578 96.8425 71.8035 97.9931 70.4932 97.9931Z" fill="url(#paint22_linear)"/>
<path d="M80.2554 100.186C81.7064 100.186 82.646 99.5527 83.1254 98.6387H83.2021V100H85.7845V93.378C85.7845 91.0385 83.803 90.0542 81.6169 90.0542C79.2646 90.0542 77.7178 91.1792 77.3406 92.9689L79.8591 93.1735C80.0445 92.5215 80.6262 92.0421 81.6041 92.0421C82.531 92.0421 83.0615 92.5087 83.0615 93.3141V93.3525C83.0615 93.9853 82.3904 94.0684 80.6837 94.2346C78.7405 94.4135 76.9955 95.0655 76.9955 97.258C76.9955 99.2012 78.3825 100.186 80.2554 100.186ZM81.0352 98.3063C80.1979 98.3063 79.597 97.9164 79.597 97.1685C79.597 96.4015 80.2298 96.0243 81.1887 95.8901C81.7831 95.807 82.7547 95.6664 83.0807 95.449V96.4909C83.0807 97.5201 82.2306 98.3063 81.0352 98.3063ZM80.7732 88.9164H82.6972L81.3357 86.008H78.8236L80.7732 88.9164Z" fill="url(#paint23_linear)"/>
<path d="M90.6201 94.324C90.6265 93.0584 91.3808 92.3169 92.4802 92.3169C93.5732 92.3169 94.2316 93.0328 94.2252 94.2346V100H96.9482V93.7488C96.9482 91.4604 95.6059 90.0542 93.5605 90.0542C92.1031 90.0542 91.0484 90.7701 90.6073 91.9142H90.4923V90.182H87.8971V100H90.6201V94.324Z" fill="url(#paint24_linear)"/>
<path d="M103.518 103.887C106.324 103.887 108.318 102.608 108.318 100.096V90.182H105.614V91.8311H105.512C105.148 91.0321 104.349 90.0542 102.706 90.0542C100.552 90.0542 98.73 91.7289 98.73 95.0719C98.73 98.3382 100.501 99.8596 102.712 99.8596C104.278 99.8596 105.154 99.0733 105.512 98.2615H105.627V100.058C105.627 101.406 104.764 101.931 103.582 101.931C102.38 101.931 101.773 101.406 101.549 100.812L99.0304 101.151C99.3564 102.698 100.871 103.887 103.518 103.887ZM103.575 97.8141C102.239 97.8141 101.511 96.753 101.511 95.0591C101.511 93.3908 102.226 92.2211 103.575 92.2211C104.898 92.2211 105.64 93.3397 105.64 95.0591C105.64 96.7914 104.886 97.8141 103.575 97.8141Z" fill="url(#paint25_linear)"/>
<path d="M117.374 94.324C117.38 93.0584 118.135 92.3169 119.234 92.3169C120.327 92.3169 120.986 93.0328 120.979 94.2346V100H123.702V93.7488C123.702 91.4604 122.36 90.0542 120.314 90.0542C118.857 90.0542 117.802 90.7701 117.361 91.9142H117.246V90.182H114.651V100H117.374V94.324Z" fill="url(#paint26_linear)"/>
<path d="M128.571 94.324C128.578 93.0584 129.351 92.3169 130.463 92.3169C131.569 92.3169 132.221 93.0265 132.215 94.2346V100H134.938V93.7488C134.944 91.4476 133.589 90.0542 131.544 90.0542C130.054 90.0542 129.057 90.7573 128.61 91.9142H128.495V86.9093H125.848V100H128.571V94.324Z" fill="url(#paint27_linear)"/>
<path d="M147.461 89.6387C147.455 90.8787 147.314 91.5755 146.164 91.748V90.182H143.441V95.8198C143.447 97.1365 142.546 97.8269 141.568 97.8269C140.539 97.8269 139.874 97.1046 139.868 95.9476V90.182H137.145V96.4334C137.151 98.7282 138.493 100.128 140.468 100.128C141.945 100.128 143.006 99.3674 143.447 98.2168H143.549V100H146.164V92.9817C148.324 92.7963 149.034 91.6586 149.04 89.6387H147.461Z" fill="url(#paint28_linear)"/>
<path d="M154.008 100H156.731V96.8809L157.467 96.0435L160.145 100H163.334L159.506 94.4327L163.149 90.182H160.023L156.878 93.9086H156.731V86.9093H154.008V100Z" fill="url(#paint29_linear)"/>
<path d="M167.208 94.324C167.214 93.0584 167.988 92.3169 169.1 92.3169C170.206 92.3169 170.858 93.0265 170.851 94.2346V100H173.574V93.7488C173.581 91.4476 172.226 90.0542 170.18 90.0542C168.691 90.0542 167.694 90.7573 167.246 91.9142H167.131V86.9093H164.485V100H167.208V94.324Z" fill="url(#paint30_linear)"/>
<path d="M180.153 100.192C183.132 100.192 184.986 98.1529 184.986 95.1294C184.986 92.0868 183.132 90.0542 180.153 90.0542C177.175 90.0542 175.321 92.0868 175.321 95.1294C175.321 98.1529 177.175 100.192 180.153 100.192ZM180.166 98.0826C178.792 98.0826 178.089 96.8233 178.089 95.1103C178.089 93.3972 178.792 92.1316 180.166 92.1316C181.515 92.1316 182.218 93.3972 182.218 95.1103C182.218 96.8233 181.515 98.0826 180.166 98.0826ZM178.869 89.0186L180.153 87.459L181.438 89.0186H183.759V88.9292L181.163 86.1167H179.137L176.548 88.9292V89.0186H178.869Z" fill="url(#paint31_linear)"/>
<path d="M189.479 94.324C189.486 93.0584 190.24 92.3169 191.34 92.3169C192.433 92.3169 193.091 93.0328 193.085 94.2346V100H195.808V93.7488C195.808 91.4604 194.465 90.0542 192.42 90.0542C190.962 90.0542 189.908 90.7701 189.467 91.9142H189.352V90.182H186.756V100H189.479V94.324Z" fill="url(#paint32_linear)"/>
<path d="M202.377 103.887C205.183 103.887 207.177 102.608 207.177 100.096V90.182H204.474V91.8311H204.371C204.007 91.0321 203.208 90.0542 201.565 90.0542C199.411 90.0542 197.589 91.7289 197.589 95.0719C197.589 98.3382 199.36 99.8596 201.572 99.8596C203.138 99.8596 204.013 99.0733 204.371 98.2615H204.486V100.058C204.486 101.406 203.623 101.931 202.441 101.931C201.239 101.931 200.632 101.406 200.408 100.812L197.89 101.151C198.216 102.698 199.731 103.887 202.377 103.887ZM202.435 97.8141C201.099 97.8141 200.37 96.753 200.37 95.0591C200.37 93.3908 201.086 92.2211 202.435 92.2211C203.758 92.2211 204.499 93.3397 204.499 95.0591C204.499 96.7914 203.745 97.8141 202.435 97.8141Z" fill="url(#paint33_linear)"/>
<path d="M212.598 86.9093H209.753L210.009 96.0755H212.349L212.598 86.9093ZM211.179 100.166C211.997 100.166 212.707 99.4824 212.713 98.6323C212.707 97.7949 211.997 97.111 211.179 97.111C210.335 97.111 209.638 97.7949 209.645 98.6323C209.638 99.4824 210.335 100.166 211.179 100.166Z" fill="url(#paint34_linear)"/>
</g>
<g filter="url(#filter2_d)">
<path d="M64.5226 73.9542C74.017 73.9712 79.9147 67.1701 79.9317 55.6133C79.9488 44.1246 74.017 37.6133 64.5226 37.6133C55.0113 37.6133 49.1476 44.0906 49.1135 55.6133C49.0795 67.119 55.0113 73.9371 64.5226 73.9542ZM64.5226 66.2496C61.2499 66.2496 58.8976 62.9599 58.9317 55.6133C58.9658 48.4371 61.2499 45.2496 64.5226 45.2496C67.7954 45.2496 70.0965 48.4371 70.1135 55.6133C70.1306 62.9599 67.7954 66.2496 64.5226 66.2496Z" fill="url(#paint35_linear)"/>
<path d="M84.3806 72.9996H111.176V65.4315H97.5397V65.2269L100.812 62.4996C108.773 55.869 110.801 52.4258 110.801 48.386C110.801 41.8746 105.466 37.6133 97.0965 37.6133C88.9658 37.6133 83.6817 42.1303 83.6988 49.4769H92.6988C92.6817 46.5451 94.4715 44.9087 97.0965 44.9087C99.7045 44.9087 101.562 46.5281 101.562 49.2042C101.562 51.6758 99.9772 53.2781 97.4033 55.4087L84.3806 66.1815V72.9996Z" fill="url(#paint36_linear)"/>
</g>
<g filter="url(#filter3_d)">
<path d="M122.898 47.6369C122.906 46.3414 123.639 45.5574 124.807 45.5574C125.991 45.5574 126.69 46.3414 126.682 47.6369V55.0005H131.386V46.6483C131.395 43.8017 129.597 41.7392 126.818 41.7392C124.892 41.7392 123.366 42.7449 122.795 44.3983H122.659V41.9096H118.193V55.0005H122.898V47.6369Z" fill="url(#paint37_linear)"/>
<path d="M137.356 55.2051C139.061 55.2051 140.348 54.6255 141.141 53.1596H141.243V55.0005H145.641V46.0346C145.641 43.6142 143.348 41.7392 139.606 41.7392C135.695 41.7392 133.768 43.7846 133.606 46.171H137.936C138.047 45.3613 138.643 44.9778 139.538 44.9778C140.356 44.9778 140.936 45.3528 140.936 46.0346V46.0687C140.936 46.8272 140.101 47.0659 137.902 47.2278C135.2 47.4238 133.095 48.5147 133.095 51.3869C133.095 53.9949 134.851 55.2051 137.356 55.2051ZM141.447 37.2051C141.439 37.9551 140.962 38.6369 139.743 38.6369C138.473 38.6369 137.996 37.921 138.004 37.2051H135.072C135.064 39.421 136.871 40.8528 139.743 40.8528C142.598 40.8528 144.405 39.421 144.413 37.2051H141.447ZM138.891 52.2392C138.089 52.2392 137.527 51.8471 137.527 51.1142C137.527 50.4409 138.004 49.921 139.095 49.7505C139.845 49.6312 140.476 49.4778 140.97 49.2733V50.3642C140.97 51.5574 139.956 52.2392 138.891 52.2392Z" fill="url(#paint38_linear)"/>
<path d="M147.888 55.0005H152.593V47.3642C152.593 46.2221 153.19 45.5233 154.161 45.5233C155.133 45.5233 155.763 46.2221 155.763 47.3642V55.0005H160.263V47.3642C160.263 46.2221 160.86 45.5233 161.832 45.5233C162.803 45.5233 163.434 46.2221 163.434 47.3642V55.0005H168.138V46.171C168.138 43.4863 166.417 41.7392 163.911 41.7392C161.968 41.7392 160.4 42.796 159.957 44.3983H159.82C159.547 42.796 158.082 41.7392 156.241 41.7392C154.425 41.7392 153.036 42.7619 152.491 44.3983H152.354V41.9096H147.888V55.0005Z" fill="url(#paint39_linear)"/>
<path d="M124.5 74.2392C128.378 74.2392 130.756 72.0147 130.807 68.546H126.443C126.341 69.9181 125.599 70.6596 124.568 70.6596C123.332 70.6596 122.523 69.6028 122.523 67.4551C122.523 65.3074 123.332 64.2505 124.568 64.2505C125.608 64.2505 126.315 64.992 126.443 66.3642H130.807C130.781 62.9551 128.352 60.7392 124.5 60.7392C120.239 60.7392 117.716 63.4664 117.716 67.4892C117.716 71.5119 120.239 74.2392 124.5 74.2392Z" fill="url(#paint40_linear)"/>
<path d="M136.396 74.2051C138.1 74.2051 139.387 73.6255 140.18 72.1596H140.282V74.0005H144.68V65.0346C144.68 62.6142 142.387 60.7392 138.646 60.7392C134.734 60.7392 132.807 62.7846 132.646 65.171H136.975C137.086 64.3613 137.682 63.9778 138.577 63.9778C139.396 63.9778 139.975 64.3528 139.975 65.0346V65.0687C139.975 65.8272 139.14 66.0659 136.941 66.2278C134.239 66.4238 132.134 67.5147 132.134 70.3869C132.134 72.9949 133.89 74.2051 136.396 74.2051ZM137.93 71.2392C137.128 71.2392 136.566 70.8471 136.566 70.1142C136.566 69.4409 137.043 68.921 138.134 68.7505C138.884 68.6312 139.515 68.4778 140.009 68.2733V69.3642C140.009 70.5574 138.995 71.2392 137.93 71.2392Z" fill="url(#paint41_linear)"/>
<path d="M146.927 74.0005H151.632V66.3642C151.632 65.2221 152.229 64.5233 153.2 64.5233C154.172 64.5233 154.802 65.2221 154.802 66.3642V74.0005H159.302V66.3642C159.302 65.2221 159.899 64.5233 160.871 64.5233C161.842 64.5233 162.473 65.2221 162.473 66.3642V74.0005H167.177V65.171C167.177 62.4863 165.456 60.7392 162.95 60.7392C161.007 60.7392 159.439 61.796 158.996 63.3983H158.859C158.587 61.796 157.121 60.7392 155.28 60.7392C153.464 60.7392 152.075 61.7619 151.53 63.3983H151.393V60.9096H146.927V74.0005Z" fill="url(#paint42_linear)"/>
<path d="M174.279 74.0005H178.984V70.2846L179.691 69.3897L182.359 74.0005H187.745L183.16 66.6454L187.609 60.9096H182.324L179.154 65.3074H178.984V56.546H174.279V74.0005Z" fill="url(#paint43_linear)"/>
<path d="M194.567 74.2392C198.198 74.2392 200.533 72.5005 200.976 69.7733H196.681C196.408 70.5147 195.633 70.9324 194.67 70.9324C193.272 70.9324 192.454 70.0119 192.454 68.7505V68.546H200.976V67.4551C200.976 63.2875 198.42 60.7392 194.465 60.7392C190.408 60.7392 187.817 63.4324 187.817 67.4892C187.817 71.725 190.374 74.2392 194.567 74.2392ZM189.931 59.6142H192.624L194.363 58.421L196.067 59.6142H198.795L195.351 57.2619H193.34L189.931 59.6142ZM197.908 58.4892H200.158L203.158 55.2164H200.124L197.908 58.4892ZM192.454 65.9551C192.479 64.8216 193.417 64.046 194.567 64.046C195.735 64.046 196.621 64.8301 196.647 65.9551H192.454Z" fill="url(#paint44_linear)"/>
<path d="M210.703 60.9096H208.453V57.7733H203.748V60.9096H202.078V64.3187H203.748V70.2335C203.714 72.9778 205.41 74.367 208.658 74.188C209.723 74.1284 210.516 73.9068 210.942 73.7789L210.26 70.4721C210.081 70.5147 209.621 70.6085 209.339 70.6085C208.726 70.6085 208.453 70.3358 208.453 69.7903V64.3187H210.703V60.9096Z" fill="url(#paint45_linear)"/>
</g>
<defs>
<filter id="filter0_d" x="0.372559" y="0.22168" width="250.587" height="50.6648" filterUnits="userSpaceOnUse" color-interpolation-filters="sRGB">
<feFlood flood-opacity="0" result="BackgroundImageFix"/>
<feColorMatrix in="SourceAlpha" type="matrix" values="0 0 0 0 0 0 0 0 0 0 0 0 0 0 0 0 0 0 127 0" result="hardAlpha"/>
<feOffset dy="8"/>
<feGaussianBlur stdDeviation="8"/>
<feComposite in2="hardAlpha" operator="out"/>
<feColorMatrix type="matrix" values="0 0 0 0 0 0 0 0 0 0 0 0 0 0 0 0 0 0 0.08 0"/>
<feBlend mode="normal" in2="BackgroundImageFix" result="effect1_dropShadow"/>
<feBlend mode="normal" in="SourceGraphic" in2="effect1_dropShadow" result="shape"/>
</filter>
<filter id="filter1_d" x="22.0439" y="77.0684" width="206.669" height="50.8182" filterUnits="userSpaceOnUse" color-interpolation-filters="sRGB">
<feFlood flood-opacity="0" result="BackgroundImageFix"/>
<feColorMatrix in="SourceAlpha" type="matrix" values="0 0 0 0 0 0 0 0 0 0 0 0 0 0 0 0 0 0 127 0" result="hardAlpha"/>
<feOffset dy="8"/>
<feGaussianBlur stdDeviation="8"/>
<feComposite in2="hardAlpha" operator="out"/>
<feColorMatrix type="matrix" values="0 0 0 0 0 0 0 0 0 0 0 0 0 0 0 0 0 0 0.08 0"/>
<feBlend mode="normal" in2="BackgroundImageFix" result="effect1_dropShadow"/>
<feBlend mode="normal" in="SourceGraphic" in2="effect1_dropShadow" result="shape"/>
</filter>
<filter id="filter2_d" x="33.1134" y="29.6133" width="94.0626" height="68.3409" filterUnits="userSpaceOnUse" color-interpolation-filters="sRGB">
<feFlood flood-opacity="0" result="BackgroundImageFix"/>
<feColorMatrix in="SourceAlpha" type="matrix" values="0 0 0 0 0 0 0 0 0 0 0 0 0 0 0 0 0 0 127 0" result="hardAlpha"/>
<feOffset dy="8"/>
<feGaussianBlur stdDeviation="8"/>
<feComposite in2="hardAlpha" operator="out"/>
<feColorMatrix type="matrix" values="0 0 0 0 0 0 0 0 0 0 0 0 0 0 0 0 0 0 0.08 0"/>
<feBlend mode="normal" in2="BackgroundImageFix" result="effect1_dropShadow"/>
<feBlend mode="normal" in="SourceGraphic" in2="effect1_dropShadow" result="shape"/>
</filter>
<filter id="filter3_d" x="101.716" y="29.2051" width="125.226" height="69.0341" filterUnits="userSpaceOnUse" color-interpolation-filters="sRGB">
<feFlood flood-opacity="0" result="BackgroundImageFix"/>
<feColorMatrix in="SourceAlpha" type="matrix" values="0 0 0 0 0 0 0 0 0 0 0 0 0 0 0 0 0 0 127 0" result="hardAlpha"/>
<feOffset dy="8"/>
<feGaussianBlur stdDeviation="8"/>
<feComposite in2="hardAlpha" operator="out"/>
<feColorMatrix type="matrix" values="0 0 0 0 0 0 0 0 0 0 0 0 0 0 0 0 0 0 0.08 0"/>
<feBlend mode="normal" in2="BackgroundImageFix" result="effect1_dropShadow"/>
<feBlend mode="normal" in="SourceGraphic" in2="effect1_dropShadow" result="shape"/>
</filter>
<linearGradient id="paint0_linear" x1="-12.823" y1="-3.99999" x2="58.1554" y2="90.4032" gradientUnits="userSpaceOnUse">
<stop stop-color="#D6E0E2"/>
<stop offset="1" stop-color="#E8EAEC"/>
</linearGradient>
<linearGradient id="paint1_linear" x1="-12.823" y1="-3.99999" x2="58.1554" y2="90.4032" gradientUnits="userSpaceOnUse">
<stop stop-color="#D6E0E2"/>
<stop offset="1" stop-color="#E8EAEC"/>
</linearGradient>
<linearGradient id="paint2_linear" x1="-12.823" y1="-3.99999" x2="58.1554" y2="90.4032" gradientUnits="userSpaceOnUse">
<stop stop-color="#D6E0E2"/>
<stop offset="1" stop-color="#E8EAEC"/>
</linearGradient>
<linearGradient id="paint3_linear" x1="-12.823" y1="-3.99999" x2="58.1554" y2="90.4032" gradientUnits="userSpaceOnUse">
<stop stop-color="#D6E0E2"/>
<stop offset="1" stop-color="#E8EAEC"/>
</linearGradient>
<linearGradient id="paint4_linear" x1="-12.823" y1="-3.99999" x2="58.1554" y2="90.4032" gradientUnits="userSpaceOnUse">
<stop stop-color="#D6E0E2"/>
<stop offset="1" stop-color="#E8EAEC"/>
</linearGradient>
<linearGradient id="paint5_linear" x1="-12.823" y1="-3.99999" x2="58.1554" y2="90.4032" gradientUnits="userSpaceOnUse">
<stop stop-color="#D6E0E2"/>
<stop offset="1" stop-color="#E8EAEC"/>
</linearGradient>
<linearGradient id="paint6_linear" x1="-12.823" y1="-3.99999" x2="58.1554" y2="90.4032" gradientUnits="userSpaceOnUse">
<stop stop-color="#D6E0E2"/>
<stop offset="1" stop-color="#E8EAEC"/>
</linearGradient>
<linearGradient id="paint7_linear" x1="-12.823" y1="-3.99999" x2="58.1554" y2="90.4032" gradientUnits="userSpaceOnUse">
<stop stop-color="#D6E0E2"/>
<stop offset="1" stop-color="#E8EAEC"/>
</linearGradient>
<linearGradient id="paint8_linear" x1="-12.823" y1="-3.99999" x2="58.1554" y2="90.4032" gradientUnits="userSpaceOnUse">
<stop stop-color="#D6E0E2"/>
<stop offset="1" stop-color="#E8EAEC"/>
</linearGradient>
<linearGradient id="paint9_linear" x1="-12.823" y1="-3.99999" x2="58.1554" y2="90.4032" gradientUnits="userSpaceOnUse">
<stop stop-color="#D6E0E2"/>
<stop offset="1" stop-color="#E8EAEC"/>
</linearGradient>
<linearGradient id="paint10_linear" x1="-12.823" y1="-3.99999" x2="58.1554" y2="90.4032" gradientUnits="userSpaceOnUse">
<stop stop-color="#D6E0E2"/>
<stop offset="1" stop-color="#E8EAEC"/>
</linearGradient>
<linearGradient id="paint11_linear" x1="-12.823" y1="-3.99999" x2="58.1554" y2="90.4032" gradientUnits="userSpaceOnUse">
<stop stop-color="#D6E0E2"/>
<stop offset="1" stop-color="#E8EAEC"/>
</linearGradient>
<linearGradient id="paint12_linear" x1="-12.823" y1="-3.99999" x2="58.1554" y2="90.4032" gradientUnits="userSpaceOnUse">
<stop stop-color="#D6E0E2"/>
<stop offset="1" stop-color="#E8EAEC"/>
</linearGradient>
<linearGradient id="paint13_linear" x1="-12.823" y1="-3.99999" x2="58.1554" y2="90.4032" gradientUnits="userSpaceOnUse">
<stop stop-color="#D6E0E2"/>
<stop offset="1" stop-color="#E8EAEC"/>
</linearGradient>
<linearGradient id="paint14_linear" x1="-12.823" y1="-3.99999" x2="58.1554" y2="90.4032" gradientUnits="userSpaceOnUse">
<stop stop-color="#D6E0E2"/>
<stop offset="1" stop-color="#E8EAEC"/>
</linearGradient>
<linearGradient id="paint15_linear" x1="-12.823" y1="-3.99999" x2="58.1554" y2="90.4032" gradientUnits="userSpaceOnUse">
<stop stop-color="#D6E0E2"/>
<stop offset="1" stop-color="#E8EAEC"/>
</linearGradient>
<linearGradient id="paint16_linear" x1="-12.823" y1="-3.99999" x2="58.1554" y2="90.4032" gradientUnits="userSpaceOnUse">
<stop stop-color="#D6E0E2"/>
<stop offset="1" stop-color="#E8EAEC"/>
</linearGradient>
<linearGradient id="paint17_linear" x1="-12.823" y1="-3.99999" x2="58.1554" y2="90.4032" gradientUnits="userSpaceOnUse">
<stop stop-color="#D6E0E2"/>
<stop offset="1" stop-color="#E8EAEC"/>
</linearGradient>
<linearGradient id="paint18_linear" x1="-12.823" y1="-3.99999" x2="58.1554" y2="90.4032" gradientUnits="userSpaceOnUse">
<stop stop-color="#D6E0E2"/>
<stop offset="1" stop-color="#E8EAEC"/>
</linearGradient>
<linearGradient id="paint19_linear" x1="-12.823" y1="-3.99999" x2="58.1554" y2="90.4032" gradientUnits="userSpaceOnUse">
<stop stop-color="#D6E0E2"/>
<stop offset="1" stop-color="#E8EAEC"/>
</linearGradient>
<linearGradient id="paint20_linear" x1="-12.8231" y1="73" x2="58.1553" y2="167.403" gradientUnits="userSpaceOnUse">
<stop stop-color="#D6E0E2"/>
<stop offset="1" stop-color="#E8EAEC"/>
</linearGradient>
<linearGradient id="paint21_linear" x1="-12.8231" y1="73" x2="58.1553" y2="167.403" gradientUnits="userSpaceOnUse">
<stop stop-color="#D6E0E2"/>
<stop offset="1" stop-color="#E8EAEC"/>
</linearGradient>
<linearGradient id="paint22_linear" x1="-12.8231" y1="73" x2="58.1553" y2="167.403" gradientUnits="userSpaceOnUse">
<stop stop-color="#D6E0E2"/>
<stop offset="1" stop-color="#E8EAEC"/>
</linearGradient>
<linearGradient id="paint23_linear" x1="-12.8231" y1="73" x2="58.1553" y2="167.403" gradientUnits="userSpaceOnUse">
<stop stop-color="#D6E0E2"/>
<stop offset="1" stop-color="#E8EAEC"/>
</linearGradient>
<linearGradient id="paint24_linear" x1="-12.8231" y1="73" x2="58.1553" y2="167.403" gradientUnits="userSpaceOnUse">
<stop stop-color="#D6E0E2"/>
<stop offset="1" stop-color="#E8EAEC"/>
</linearGradient>
<linearGradient id="paint25_linear" x1="-12.8231" y1="73" x2="58.1553" y2="167.403" gradientUnits="userSpaceOnUse">
<stop stop-color="#D6E0E2"/>
<stop offset="1" stop-color="#E8EAEC"/>
</linearGradient>
<linearGradient id="paint26_linear" x1="-12.8231" y1="73" x2="58.1553" y2="167.403" gradientUnits="userSpaceOnUse">
<stop stop-color="#D6E0E2"/>
<stop offset="1" stop-color="#E8EAEC"/>
</linearGradient>
<linearGradient id="paint27_linear" x1="-12.8231" y1="73" x2="58.1553" y2="167.403" gradientUnits="userSpaceOnUse">
<stop stop-color="#D6E0E2"/>
<stop offset="1" stop-color="#E8EAEC"/>
</linearGradient>
<linearGradient id="paint28_linear" x1="-12.8231" y1="73" x2="58.1553" y2="167.403" gradientUnits="userSpaceOnUse">
<stop stop-color="#D6E0E2"/>
<stop offset="1" stop-color="#E8EAEC"/>
</linearGradient>
<linearGradient id="paint29_linear" x1="-12.8231" y1="73" x2="58.1553" y2="167.403" gradientUnits="userSpaceOnUse">
<stop stop-color="#D6E0E2"/>
<stop offset="1" stop-color="#E8EAEC"/>
</linearGradient>
<linearGradient id="paint30_linear" x1="-12.8231" y1="73" x2="58.1553" y2="167.403" gradientUnits="userSpaceOnUse">
<stop stop-color="#D6E0E2"/>
<stop offset="1" stop-color="#E8EAEC"/>
</linearGradient>
<linearGradient id="paint31_linear" x1="-12.8231" y1="73" x2="58.1553" y2="167.403" gradientUnits="userSpaceOnUse">
<stop stop-color="#D6E0E2"/>
<stop offset="1" stop-color="#E8EAEC"/>
</linearGradient>
<linearGradient id="paint32_linear" x1="-12.8231" y1="73" x2="58.1553" y2="167.403" gradientUnits="userSpaceOnUse">
<stop stop-color="#D6E0E2"/>
<stop offset="1" stop-color="#E8EAEC"/>
</linearGradient>
<linearGradient id="paint33_linear" x1="-12.8231" y1="73" x2="58.1553" y2="167.403" gradientUnits="userSpaceOnUse">
<stop stop-color="#D6E0E2"/>
<stop offset="1" stop-color="#E8EAEC"/>
</linearGradient>
<linearGradient id="paint34_linear" x1="-12.8231" y1="73" x2="58.1553" y2="167.403" gradientUnits="userSpaceOnUse">
<stop stop-color="#D6E0E2"/>
<stop offset="1" stop-color="#E8EAEC"/>
</linearGradient>
<linearGradient id="paint35_linear" x1="50.8908" y1="38" x2="88.9336" y2="50.3781" gradientUnits="userSpaceOnUse">
<stop stop-color="#D6E0E2"/>
<stop offset="1" stop-color="#E8EAEC"/>
</linearGradient>
<linearGradient id="paint36_linear" x1="50.8908" y1="38" x2="88.9336" y2="50.3781" gradientUnits="userSpaceOnUse">
<stop stop-color="#D6E0E2"/>
<stop offset="1" stop-color="#E8EAEC"/>
</linearGradient>
<linearGradient id="paint37_linear" x1="122.517" y1="37.001" x2="173.045" y2="58.4719" gradientUnits="userSpaceOnUse">
<stop stop-color="#D6E0E2"/>
<stop offset="1" stop-color="#E8EAEC"/>
</linearGradient>
<linearGradient id="paint38_linear" x1="122.517" y1="37.001" x2="173.045" y2="58.4719" gradientUnits="userSpaceOnUse">
<stop stop-color="#D6E0E2"/>
<stop offset="1" stop-color="#E8EAEC"/>
</linearGradient>
<linearGradient id="paint39_linear" x1="122.517" y1="37.001" x2="173.045" y2="58.4719" gradientUnits="userSpaceOnUse">
<stop stop-color="#D6E0E2"/>
<stop offset="1" stop-color="#E8EAEC"/>
</linearGradient>
<linearGradient id="paint40_linear" x1="122.517" y1="37.001" x2="173.045" y2="58.4719" gradientUnits="userSpaceOnUse">
<stop stop-color="#D6E0E2"/>
<stop offset="1" stop-color="#E8EAEC"/>
</linearGradient>
<linearGradient id="paint41_linear" x1="122.517" y1="37.001" x2="173.045" y2="58.4719" gradientUnits="userSpaceOnUse">
<stop stop-color="#D6E0E2"/>
<stop offset="1" stop-color="#E8EAEC"/>
</linearGradient>
<linearGradient id="paint42_linear" x1="122.517" y1="37.001" x2="173.045" y2="58.4719" gradientUnits="userSpaceOnUse">
<stop stop-color="#D6E0E2"/>
<stop offset="1" stop-color="#E8EAEC"/>
</linearGradient>
<linearGradient id="paint43_linear" x1="122.517" y1="37.001" x2="173.045" y2="58.4719" gradientUnits="userSpaceOnUse">
<stop stop-color="#D6E0E2"/>
<stop offset="1" stop-color="#E8EAEC"/>
</linearGradient>
<linearGradient id="paint44_linear" x1="122.517" y1="37.001" x2="173.045" y2="58.4719" gradientUnits="userSpaceOnUse">
<stop stop-color="#D6E0E2"/>
<stop offset="1" stop-color="#E8EAEC"/>
</linearGradient>
<linearGradient id="paint45_linear" x1="122.517" y1="37.001" x2="173.045" y2="58.4719" gradientUnits="userSpaceOnUse">
<stop stop-color="#D6E0E2"/>
<stop offset="1" stop-color="#E8EAEC"/>
</linearGradient>
</defs>
</svg>
