<svg width="313" height="133" viewBox="0 0 313 133" fill="none" xmlns="http://www.w3.org/2000/svg">
<path d="M85.517 129.165C87.4506 129.165 88.7024 128.004 88.8782 126.411H87.3281C87.1257 127.295 86.4386 127.817 85.5277 127.817C84.18 127.817 83.3118 126.694 83.3118 124.909C83.3118 123.157 84.196 122.054 85.5277 122.054C86.5398 122.054 87.1577 122.693 87.3281 123.46H88.8782C88.7077 121.809 87.3601 120.712 85.5011 120.712C83.1946 120.712 81.7031 122.448 81.7031 124.946C81.7031 127.413 83.1413 129.165 85.517 129.165ZM95.9143 125.607C95.9196 126.997 94.8862 127.658 93.9914 127.658C93.0059 127.658 92.3241 126.944 92.3241 125.831V120.818H90.7314V126.022C90.7314 128.052 91.8447 129.107 93.4161 129.107C94.6465 129.107 95.4828 128.457 95.861 127.583H95.9463V129H97.5123V120.818H95.9143V125.607ZM93.5119 119.726H94.785L93.5439 117.271H91.866L93.5119 119.726ZM101.395 124.142C101.395 122.837 102.194 122.091 103.302 122.091C104.383 122.091 105.038 122.8 105.038 123.988V129H106.631V123.796C106.631 121.772 105.518 120.712 103.845 120.712C102.615 120.712 101.81 121.282 101.432 122.15H101.331V120.818H99.8023V129H101.395V124.142ZM112.348 132.239C114.43 132.239 116.039 131.285 116.039 129.181V120.818H114.478V122.145H114.361C114.079 121.638 113.514 120.712 111.991 120.712C110.014 120.712 108.56 122.272 108.56 124.877C108.56 127.487 110.046 128.877 111.98 128.877C113.482 128.877 114.063 128.031 114.35 127.509H114.452V129.117C114.452 130.401 113.573 130.955 112.364 130.955C111.037 130.955 110.52 130.289 110.238 129.82L108.869 130.385C109.301 131.386 110.393 132.239 112.348 132.239ZM112.332 127.556C110.909 127.556 110.169 126.464 110.169 124.856C110.169 123.284 110.893 122.065 112.332 122.065C113.722 122.065 114.468 123.199 114.468 124.856C114.468 126.544 113.706 127.556 112.332 127.556ZM122.573 129H124.218V124.243H128.853V122.832H124.218V119.508H129.337V118.091H122.573V129ZM131.512 129H133.158V125.165H135.395C137.925 125.165 139.177 123.636 139.177 121.623C139.177 119.614 137.936 118.091 135.4 118.091H131.512V129ZM133.158 123.769V119.502H135.224C136.854 119.502 137.52 120.387 137.52 121.623C137.52 122.858 136.854 123.769 135.246 123.769H133.158ZM140.718 119.508H144.117V129H145.757V119.508H149.161V118.091H140.718V119.508ZM161.246 120.957H162.834C162.786 119.21 161.241 117.942 159.025 117.942C156.836 117.942 155.158 119.194 155.158 121.074C155.158 122.592 156.245 123.482 157.997 123.956L159.286 124.307C160.453 124.616 161.353 125 161.353 125.969C161.353 127.034 160.336 127.738 158.935 127.738C157.667 127.738 156.612 127.173 156.516 125.985H154.865C154.972 127.961 156.5 129.181 158.945 129.181C161.507 129.181 162.983 127.833 162.983 125.985C162.983 124.02 161.231 123.258 159.846 122.917L158.78 122.64C157.928 122.422 156.793 122.022 156.799 120.978C156.799 120.051 157.646 119.364 158.988 119.364C160.24 119.364 161.129 119.95 161.246 120.957ZM168.418 129.165C170.725 129.165 172.232 127.477 172.232 124.946C172.232 122.4 170.725 120.712 168.418 120.712C166.112 120.712 164.604 122.4 164.604 124.946C164.604 127.477 166.112 129.165 168.418 129.165ZM168.424 127.828C166.916 127.828 166.213 126.512 166.213 124.941C166.213 123.375 166.916 122.043 168.424 122.043C169.921 122.043 170.624 123.375 170.624 124.941C170.624 126.512 169.921 127.828 168.424 127.828ZM178.054 120.818H176.291V120.083C176.291 119.359 176.589 118.964 177.367 118.964C177.697 118.964 177.931 119.039 178.081 119.087L178.453 117.798C178.23 117.713 177.766 117.58 177.122 117.58C175.827 117.58 174.693 118.336 174.693 119.87V120.818H173.43V122.097H174.693V129H176.291V122.097H178.054V120.818ZM183.666 120.818H181.989V118.858H180.396V120.818H179.197V122.097H180.396V126.928C180.391 128.414 181.525 129.133 182.782 129.107C183.288 129.101 183.629 129.005 183.816 128.936L183.528 127.62C183.421 127.642 183.224 127.69 182.969 127.69C182.452 127.69 181.989 127.519 181.989 126.598V122.097H183.666V120.818ZM187.352 129H188.971L190.633 123.093H190.756L192.418 129H194.042L196.445 120.818H194.799L193.206 126.8H193.126L191.528 120.818H189.882L188.274 126.827H188.194L186.59 120.818H184.944L187.352 129ZM200.487 129.181C201.84 129.181 202.602 128.494 202.906 127.881H202.969V129H204.525V123.567C204.525 121.186 202.65 120.712 201.35 120.712C199.869 120.712 198.506 121.308 197.973 122.8L199.47 123.141C199.704 122.56 200.301 122.001 201.371 122.001C202.4 122.001 202.927 122.539 202.927 123.466V123.503C202.927 124.083 202.33 124.073 200.86 124.243C199.31 124.424 197.723 124.829 197.723 126.688C197.723 128.297 198.932 129.181 200.487 129.181ZM200.833 127.903C199.933 127.903 199.283 127.498 199.283 126.71C199.283 125.857 200.04 125.554 200.961 125.431C201.478 125.362 202.703 125.223 202.932 124.994V126.049C202.932 127.018 202.16 127.903 200.833 127.903ZM206.796 129H208.389V124.004C208.389 122.933 209.215 122.161 210.344 122.161C210.674 122.161 211.047 122.219 211.175 122.256V120.733C211.015 120.712 210.701 120.696 210.498 120.696C209.54 120.696 208.719 121.239 208.421 122.118H208.336V120.818H206.796V129ZM215.936 129.165C217.721 129.165 218.983 128.286 219.345 126.955L217.838 126.683C217.55 127.455 216.858 127.849 215.952 127.849C214.589 127.849 213.673 126.965 213.63 125.388H219.447V124.824C219.447 121.868 217.678 120.712 215.825 120.712C213.545 120.712 212.043 122.448 212.043 124.962C212.043 127.503 213.523 129.165 215.936 129.165ZM213.635 124.195C213.699 123.034 214.541 122.027 215.835 122.027C217.071 122.027 217.881 122.944 217.886 124.195H213.635Z" fill="#292D32"/>
<g filter="url(#filter0_d)">
<path d="M78.2656 29H83.0043V22.1818H89.277V29H94.0156V11.5455H89.277V18.3636H83.0043V11.5455H78.2656V29ZM102.641 29.2386C106.902 29.2386 109.425 26.5114 109.425 22.4886C109.425 18.4659 106.902 15.7386 102.641 15.7386C98.3793 15.7386 95.8565 18.4659 95.8565 22.4886C95.8565 26.5114 98.3793 29.2386 102.641 29.2386ZM102.675 25.7614C101.413 25.7614 100.663 24.5085 100.663 22.4545C100.663 20.4006 101.413 19.1477 102.675 19.1477C103.868 19.1477 104.618 20.4006 104.618 22.4545C104.618 24.5085 103.868 25.7614 102.675 25.7614ZM103.732 12.0568H101.584L98.2088 14.5114H101.038L102.641 13.3182L104.311 14.5114H107.072L103.732 12.0568ZM104.345 9.22727C104.337 9.67045 104.268 10.1818 104.004 10.1818C103.212 10.1818 102.121 9.5 101.311 9.5C100.382 9.5 99.9048 10.4205 99.9134 11.2727L101.345 11.6818C101.337 11.2386 101.405 10.8977 101.72 10.8977C102.53 10.8977 103.382 11.6136 104.413 11.6136C105.325 11.6136 105.803 10.6932 105.811 9.77273L104.345 9.22727ZM123.922 15.9091H121.672V12.7727H116.967V15.9091H115.297V19.3182H116.967V25.233C116.933 27.9773 118.629 29.3665 121.876 29.1875C122.942 29.1278 123.734 28.9062 124.161 28.7784L123.479 25.4716C123.3 25.5142 122.839 25.608 122.558 25.608C121.945 25.608 121.672 25.3352 121.672 24.7898V19.3182H123.922V15.9091ZM125.842 29H130.546V22.1818C130.546 20.6818 131.577 19.6932 132.967 19.6932C133.452 19.6932 134.237 19.7699 134.705 19.9318V15.9176C134.33 15.8068 133.921 15.7386 133.512 15.7386C132.114 15.7386 131.023 16.5568 130.546 18.3977H130.41V15.9091H125.842V29ZM147.668 15.2955C147.668 16.4545 147.523 17.3494 147.08 17.9205C145.921 16.5398 144.114 15.7386 141.805 15.7386C137.543 15.7386 135.021 18.4659 135.021 22.4886C135.021 26.5114 137.543 29.2386 141.805 29.2386C146.066 29.2386 148.589 26.5114 148.589 22.4886C148.589 21.3807 148.401 20.375 148.035 19.4972C149.381 18.7472 150.021 17.3068 150.021 15.2955H147.668ZM141.839 25.7614C140.577 25.7614 139.827 24.5085 139.827 22.4545C139.827 20.4006 140.577 19.1477 141.839 19.1477C143.032 19.1477 143.782 20.4006 143.782 22.4545C143.782 24.5085 143.032 25.7614 141.839 25.7614ZM141.805 34.2841C143.083 34.2841 144.123 33.321 144.123 32.1364C144.123 30.9517 143.083 29.9886 141.805 29.9886C140.526 29.9886 139.487 30.9517 139.487 32.1364C139.487 33.321 140.526 34.2841 141.805 34.2841ZM160.71 11.5455H156.006V29H160.71V11.5455ZM166.755 29.2045C168.46 29.2045 169.746 28.625 170.539 27.1591H170.641V29H175.039V20.0341C175.039 17.6136 172.746 15.7386 169.005 15.7386C165.093 15.7386 163.167 17.7841 163.005 20.1705H167.335C167.445 19.3608 168.042 18.9773 168.937 18.9773C169.755 18.9773 170.335 19.3523 170.335 20.0341V20.0682C170.335 20.8267 169.499 21.0653 167.3 21.2273C164.599 21.4233 162.494 22.5142 162.494 25.3864C162.494 27.9943 164.249 29.2045 166.755 29.2045ZM166.823 14.2727C166.823 13.4205 167.164 12.9773 167.71 12.9773C168.067 12.9773 168.366 13.2159 168.715 13.4972C169.218 13.8977 169.832 14.3835 170.88 14.375C172.474 14.358 173.744 13.1051 173.778 10.6932H171.494C171.477 11.5199 171.229 12.0142 170.573 12.0227C170.249 12.0227 169.951 11.7926 169.602 11.5199C169.09 11.1193 168.451 10.6165 167.403 10.625C165.792 10.6335 164.505 11.8182 164.505 14.2727H166.823ZM168.289 26.2386C167.488 26.2386 166.925 25.8466 166.925 25.1136C166.925 24.4403 167.403 23.9205 168.494 23.75C169.244 23.6307 169.874 23.4773 170.369 23.2727V24.3636C170.369 25.5568 169.354 26.2386 168.289 26.2386ZM177.287 29H181.991V15.9091H177.287V29ZM179.639 14.5455C180.918 14.5455 181.957 13.5824 181.957 12.3977C181.957 11.2131 180.918 10.25 179.639 10.25C178.361 10.25 177.321 11.2131 177.321 12.3977C177.321 13.5824 178.361 14.5455 179.639 14.5455ZM202.363 15.9091H197.42L195.306 24.5682H195.17L193.056 15.9091H188.113L192.511 29H197.965L202.363 15.9091ZM206.997 29.2045C208.702 29.2045 209.989 28.625 210.781 27.1591H210.884V29H215.281V20.0341C215.281 17.6136 212.989 15.7386 209.247 15.7386C205.335 15.7386 203.409 17.7841 203.247 20.1705H207.577C207.688 19.3608 208.284 18.9773 209.179 18.9773C209.997 18.9773 210.577 19.3523 210.577 20.0341V20.0682C210.577 20.8267 209.741 21.0653 207.543 21.2273C204.841 21.4233 202.736 22.5142 202.736 25.3864C202.736 27.9943 204.491 29.2045 206.997 29.2045ZM208.531 26.2386C207.73 26.2386 207.168 25.8466 207.168 25.1136C207.168 24.4403 207.645 23.9205 208.736 23.75C209.486 23.6307 210.116 23.4773 210.611 23.2727V24.3636C210.611 25.5568 209.597 26.2386 208.531 26.2386ZM219.924 33.9091C223.214 33.9091 224.756 32.2557 225.481 30.0909L230.254 15.9091H225.31L223.163 24.9773H223.026L220.913 15.9091H216.004L220.606 29.5795L220.504 29.8182C220.188 30.5426 219.276 30.517 218.117 30.108L217.094 33.4489C217.827 33.7386 218.842 33.9091 219.924 33.9091ZM235.339 26.6136H231.794V27.5682C231.794 29.8864 231.01 32.3153 230.737 33.2614H233.635C234.044 32.3153 235.092 30.0312 235.271 27.5682L235.339 26.6136Z" fill="url(#paint0_linear)"/>
</g>
<g filter="url(#filter1_d)">
<path d="M88.8636 48.8182H95.8636V67H102.091V48.8182H109.091V43.7273H88.8636V48.8182ZM114.545 67L115.886 62.5455H123.568L124.909 67H131.727L124.045 43.7273H115.409L107.727 67H114.545ZM117.5 41.6591L119.727 39.1591L121.955 41.6591H127.136V41.5227L121.909 36.3409H117.545L112.318 41.5227V41.6591H117.5ZM119.727 74.0455C121.432 74.0455 122.818 72.7614 122.818 71.1818C122.818 69.6023 121.432 68.3182 119.727 68.3182C118.023 68.3182 116.636 69.6023 116.636 71.1818C116.636 72.7614 118.023 74.0455 119.727 74.0455ZM117.318 57.8182L119.636 50.1364H119.818L122.136 57.8182H117.318ZM147.741 43.7273V58.0909C147.741 60.2614 146.185 61.8182 144.014 61.8182C141.844 61.8182 140.287 60.2614 140.287 58.0909V43.7273H133.969V58.6364C133.969 63.9545 137.991 67.2727 144.014 67.2727C149.991 67.2727 154.06 63.9545 154.06 58.6364V43.7273H147.741ZM166.241 59.6364C166.25 58.3409 166.983 57.5568 168.151 57.5568C169.335 57.5568 170.034 58.3409 170.026 59.6364V67H174.73V58.6477C174.739 55.8011 172.94 53.7386 170.162 53.7386C168.236 53.7386 166.71 54.7443 166.139 56.3977H166.003V53.9091H161.537V67H166.241V59.6364ZM183.359 72.1818C187.501 72.1818 190.246 70.2898 190.246 66.9659V53.9091H185.541V56.1932H185.439C184.928 54.8636 183.7 53.7386 181.757 53.7386C179.166 53.7386 176.643 55.7159 176.643 60.4545C176.643 64.9886 178.996 66.8295 181.791 66.8295C183.564 66.8295 184.962 66.0795 185.473 64.75H185.609V66.9659C185.609 68.5085 184.714 69.0114 183.496 69.0114C182.413 69.0114 181.621 68.6875 181.484 67.8523H176.95C177.129 70.375 179.422 72.1818 183.359 72.1818ZM183.53 63.4886C182.234 63.4886 181.484 62.3977 181.484 60.4545C181.484 58.5114 182.234 57.3523 183.53 57.3523C184.825 57.3523 185.609 58.5114 185.609 60.4545C185.609 62.3636 184.825 63.4886 183.53 63.4886ZM196.286 67.2045C197.991 67.2045 199.278 66.625 200.07 65.1591H200.173V67H204.57V58.0341C204.57 55.6136 202.278 53.7386 198.536 53.7386C194.624 53.7386 192.698 55.7841 192.536 58.1705H196.866C196.977 57.3608 197.573 56.9773 198.468 56.9773C199.286 56.9773 199.866 57.3523 199.866 58.0341V58.0682C199.866 58.8267 199.031 59.0653 196.832 59.2273C194.13 59.4233 192.025 60.5142 192.025 63.3864C192.025 65.9943 193.781 67.2045 196.286 67.2045ZM197.82 64.2386C197.019 64.2386 196.457 63.8466 196.457 63.1136C196.457 62.4403 196.934 61.9205 198.025 61.75C198.775 61.6307 199.406 61.4773 199.9 61.2727V62.3636C199.9 63.5568 198.886 64.2386 197.82 64.2386ZM209.213 71.9091C212.503 71.9091 214.045 70.2557 214.77 68.0909L219.543 53.9091H214.599L212.452 62.9773H212.315L210.202 53.9091H205.293L209.895 67.5795L209.793 67.8182C209.477 68.5426 208.565 68.517 207.406 68.108L206.384 71.4489C207.116 71.7386 208.131 71.9091 209.213 71.9091ZM109.636 83.7273H103.318V95.9091H103.136L94.8636 83.7273H89.5V107H95.8182V94.7727H95.9545L104.364 107H109.636V83.7273ZM112.625 107H118.943V97.9091H127.307V107H133.625V83.7273H127.307V92.8182H118.943V83.7273H112.625V107ZM142.67 107L144.011 102.545H151.693L153.034 107H159.852L152.17 83.7273H143.534L135.852 107H142.67ZM145.807 81.5455H149.943L147.761 76.4545H142.398L145.807 81.5455ZM145.443 97.8182L147.761 90.1364H147.943L150.261 97.8182H145.443ZM168.162 107H172.866V99.3636C172.866 98.2216 173.463 97.5227 174.435 97.5227C175.406 97.5227 176.037 98.2216 176.037 99.3636V107H180.537V99.3636C180.537 98.2216 181.134 97.5227 182.105 97.5227C183.077 97.5227 183.707 98.2216 183.707 99.3636V107H188.412V98.1705C188.412 95.4858 186.69 93.7386 184.185 93.7386C182.241 93.7386 180.673 94.7955 180.23 96.3977H180.094C179.821 94.7955 178.355 93.7386 176.514 93.7386C174.699 93.7386 173.31 94.7614 172.764 96.3977H172.628V93.9091H168.162V107ZM202.903 93.2955C202.903 94.4545 202.758 95.3494 202.315 95.9205C201.156 94.5398 199.349 93.7386 197.039 93.7386C192.778 93.7386 190.255 96.4659 190.255 100.489C190.255 104.511 192.778 107.239 197.039 107.239C201.3 107.239 203.823 104.511 203.823 100.489C203.823 99.3807 203.636 98.375 203.269 97.4972C204.616 96.7472 205.255 95.3068 205.255 93.2955H202.903ZM197.073 103.761C195.812 103.761 195.062 102.509 195.062 100.455C195.062 98.4006 195.812 97.1477 197.073 97.1477C198.266 97.1477 199.016 98.4006 199.016 100.455C199.016 102.509 198.266 103.761 197.073 103.761ZM195.471 92.2727H198.573L201.13 88.4545H197.107L195.471 92.2727ZM206.459 107H211.163V93.9091H206.459V107ZM208.811 92.5455C210.089 92.5455 211.129 91.5824 211.129 90.3977C211.129 89.2131 210.089 88.25 208.811 88.25C207.533 88.25 206.493 89.2131 206.493 90.3977C206.493 91.5824 207.533 92.5455 208.811 92.5455Z" fill="url(#paint1_linear)"/>
</g>
<defs>
<filter id="filter0_d" x="62.2656" y="1.22705" width="189.074" height="57.0568" filterUnits="userSpaceOnUse" color-interpolation-filters="sRGB">
<feFlood flood-opacity="0" result="BackgroundImageFix"/>
<feColorMatrix in="SourceAlpha" type="matrix" values="0 0 0 0 0 0 0 0 0 0 0 0 0 0 0 0 0 0 127 0" result="hardAlpha"/>
<feOffset dy="8"/>
<feGaussianBlur stdDeviation="8"/>
<feComposite in2="hardAlpha" operator="out"/>
<feColorMatrix type="matrix" values="0 0 0 0 0 0 0 0 0 0 0 0 0 0 0 0 0 0 0.08 0"/>
<feBlend mode="normal" in2="BackgroundImageFix" result="effect1_dropShadow"/>
<feBlend mode="normal" in="SourceGraphic" in2="effect1_dropShadow" result="shape"/>
</filter>
<filter id="filter1_d" x="72.8636" y="28.3408" width="162.679" height="102.898" filterUnits="userSpaceOnUse" color-interpolation-filters="sRGB">
<feFlood flood-opacity="0" result="BackgroundImageFix"/>
<feColorMatrix in="SourceAlpha" type="matrix" values="0 0 0 0 0 0 0 0 0 0 0 0 0 0 0 0 0 0 127 0" result="hardAlpha"/>
<feOffset dy="8"/>
<feGaussianBlur stdDeviation="8"/>
<feComposite in2="hardAlpha" operator="out"/>
<feColorMatrix type="matrix" values="0 0 0 0 0 0 0 0 0 0 0 0 0 0 0 0 0 0 0.08 0"/>
<feBlend mode="normal" in2="BackgroundImageFix" result="effect1_dropShadow"/>
<feBlend mode="normal" in="SourceGraphic" in2="effect1_dropShadow" result="shape"/>
</filter>
<linearGradient id="paint0_linear" x1="18.177" y1="4.27498e-06" x2="89.1554" y2="94.4032" gradientUnits="userSpaceOnUse">
<stop stop-color="#D6E0E2"/>
<stop offset="1" stop-color="#E8EAEC"/>
</linearGradient>
<linearGradient id="paint1_linear" x1="95.6657" y1="35" x2="172.507" y2="56.5503" gradientUnits="userSpaceOnUse">
<stop stop-color="#D6E0E2"/>
<stop offset="1" stop-color="#E8EAEC"/>
</linearGradient>
</defs>
</svg>
