<svg width="313" height="132" viewBox="0 0 313 132" fill="none" xmlns="http://www.w3.org/2000/svg">
<g filter="url(#filter0_d)">
<path d="M47.3726 16.1911H51.3804V27H54.1162V16.1911H58.124V13.9091H47.3726V16.1911ZM62.5665 21.3239C62.5729 20.0582 63.3463 19.3168 64.4585 19.3168C65.5644 19.3168 66.2164 20.0263 66.21 21.2344V27H68.933V20.7486C68.9394 18.4474 67.5843 17.054 65.5388 17.054C64.0494 17.054 63.0523 17.7571 62.6048 18.9141H62.4898V13.9091H59.8435V27H62.5665V21.3239ZM79.7435 16.6065C79.7435 17.5334 79.6285 18.2365 79.1938 18.62C78.3564 17.6293 77.0908 17.054 75.512 17.054C72.5333 17.054 70.6796 19.0866 70.6796 22.1293C70.6796 25.1527 72.5333 27.1918 75.512 27.1918C78.4907 27.1918 80.3444 25.1527 80.3444 22.1293C80.3444 21.2152 80.1782 20.3906 79.8586 19.6875C80.9005 19.1697 81.3671 18.1023 81.3671 16.6065H79.7435ZM75.5248 25.0824C74.1505 25.0824 73.4474 23.8232 73.4474 22.1101C73.4474 20.397 74.1505 19.1314 75.5248 19.1314C76.8735 19.1314 77.5766 20.397 77.5766 22.1101C77.5766 23.8232 76.8735 25.0824 75.5248 25.0824ZM74.566 15.9162H76.49L75.1285 13.0078H72.6164L74.566 15.9162ZM82.449 27H85.172V17.1818H82.449V27ZM83.8169 15.9162C84.6286 15.9162 85.2934 15.2962 85.2934 14.5355C85.2934 13.7812 84.6286 13.1612 83.8169 13.1612C83.0115 13.1612 82.3467 13.7812 82.3467 14.5355C82.3467 15.2962 83.0115 15.9162 83.8169 15.9162ZM95.9426 30.8864C98.7487 30.8864 100.743 29.608 100.743 27.0959V17.1818H98.0392V18.831H97.9369C97.5725 18.032 96.7735 17.054 95.1308 17.054C92.9767 17.054 91.1549 18.7287 91.1549 22.0717C91.1549 25.3381 92.9255 26.8594 95.1372 26.8594C96.7032 26.8594 97.5789 26.0732 97.9369 25.2614H98.0519V27.0575C98.0519 28.4062 97.189 28.9304 96.0065 28.9304C94.8048 28.9304 94.1975 28.4062 93.9738 27.8118L91.4553 28.1506C91.7813 29.6974 93.2963 30.8864 95.9426 30.8864ZM96.0001 24.8139C94.6642 24.8139 93.9355 23.7528 93.9355 22.0589C93.9355 20.3906 94.6514 19.2209 96.0001 19.2209C97.3232 19.2209 98.0647 20.3395 98.0647 22.0589C98.0647 23.7912 97.3105 24.8139 96.0001 24.8139ZM102.91 27H105.633V17.1818H102.91V27ZM104.278 15.9162C105.09 15.9162 105.754 15.2962 105.754 14.5355C105.754 13.7812 105.09 13.1612 104.278 13.1612C103.472 13.1612 102.808 13.7812 102.808 14.5355C102.808 15.2962 103.472 15.9162 104.278 15.9162ZM110.614 27.1854C112.065 27.1854 113.005 26.5526 113.484 25.6385H113.561V27H116.143V20.3778C116.143 18.0384 114.161 17.054 111.975 17.054C109.623 17.054 108.076 18.179 107.699 19.9688L110.218 20.1733C110.403 19.5213 110.985 19.0419 111.963 19.0419C112.889 19.0419 113.42 19.5085 113.42 20.3139V20.3523C113.42 20.9851 112.749 21.0682 111.042 21.2344C109.099 21.4134 107.354 22.0653 107.354 24.2578C107.354 26.201 108.741 27.1854 110.614 27.1854ZM111.394 25.3061C110.556 25.3061 109.956 24.9162 109.956 24.1683C109.956 23.4013 110.588 23.0241 111.547 22.8899C112.142 22.8068 113.113 22.6662 113.439 22.4489V23.4908C113.439 24.5199 112.589 25.3061 111.394 25.3061ZM120.979 21.3239C120.985 20.0582 121.739 19.3168 122.839 19.3168C123.932 19.3168 124.59 20.0327 124.584 21.2344V27H127.307V20.7486C127.307 18.4602 125.964 17.054 123.919 17.054C122.462 17.054 121.407 17.7699 120.966 18.9141H120.851V17.1818H118.256V27H120.979V21.3239ZM138.055 27.1918C140.669 27.1918 142.312 25.6577 142.44 23.4013H139.87C139.71 24.4496 139.02 25.0376 138.087 25.0376C136.815 25.0376 135.99 23.9702 135.99 22.0909C135.99 20.2372 136.821 19.1761 138.087 19.1761C139.084 19.1761 139.723 19.8345 139.87 20.8125H142.44C142.325 18.5433 140.605 17.054 138.042 17.054C135.063 17.054 133.223 19.1186 133.223 22.1293C133.223 25.1143 135.032 27.1918 138.055 27.1918ZM146.906 21.3239C146.913 20.0582 147.686 19.3168 148.798 19.3168C149.904 19.3168 150.556 20.0263 150.55 21.2344V27H153.273V20.7486C153.279 18.4474 151.924 17.054 149.879 17.054C148.389 17.054 147.392 17.7571 146.945 18.9141H146.83V13.9091H144.183V27H146.906V21.3239ZM155.416 27H158.139V17.1818H155.416V27ZM157.787 15.7756V15.2131C158.471 15.1108 159.155 14.7337 159.149 13.9602C159.155 12.8736 157.941 12.2216 155.665 12.2216L155.595 13.4553C156.323 13.4553 156.88 13.5831 156.873 14.0433C156.88 14.3757 156.528 14.5866 155.627 14.625L155.767 15.7756H157.787ZM168.104 27.1598C169.689 27.1598 170.514 26.2457 170.891 25.4276H171.006V27H173.691V16.5107H174.809V14.9062H173.691V13.9091H170.974V14.9062H168.43V16.5107H170.974V18.831H170.891C170.527 18.032 169.74 17.054 168.098 17.054C165.943 17.054 164.122 18.7287 164.122 22.1037C164.122 25.3892 165.867 27.1598 168.104 27.1598ZM168.967 24.9929C167.631 24.9929 166.902 23.804 166.902 22.0909C166.902 20.3906 167.618 19.2209 168.967 19.2209C170.29 19.2209 171.032 20.3395 171.032 22.0909C171.032 23.8423 170.277 24.9929 168.967 24.9929ZM180.366 27.1918C183.344 27.1918 185.198 25.1527 185.198 22.1293C185.198 19.0866 183.344 17.054 180.366 17.054C177.387 17.054 175.533 19.0866 175.533 22.1293C175.533 25.1527 177.387 27.1918 180.366 27.1918ZM180.378 25.0824C179.004 25.0824 178.301 23.8232 178.301 22.1101C178.301 20.397 179.004 19.1314 180.378 19.1314C181.727 19.1314 182.43 20.397 182.43 22.1101C182.43 23.8232 181.727 25.0824 180.378 25.0824ZM179.081 16.0185L180.366 14.4588L181.65 16.0185H183.971V15.929L181.375 13.1165H179.349L176.76 15.929V16.0185H179.081ZM180.359 30.6818C181.171 30.6818 181.836 30.0618 181.836 29.3011C181.836 28.5469 181.171 27.9268 180.359 27.9268C179.554 27.9268 178.889 28.5469 178.889 29.3011C178.889 30.0618 179.554 30.6818 180.359 30.6818ZM195.558 30.8864C198.364 30.8864 200.358 29.608 200.358 27.0959V17.1818H197.654V18.831H197.552C197.188 18.032 196.389 17.054 194.746 17.054C192.592 17.054 190.77 18.7287 190.77 22.0717C190.77 25.3381 192.541 26.8594 194.752 26.8594C196.318 26.8594 197.194 26.0732 197.552 25.2614H197.667V27.0575C197.667 28.4062 196.804 28.9304 195.622 28.9304C194.42 28.9304 193.813 28.4062 193.589 27.8118L191.071 28.1506C191.397 29.6974 192.911 30.8864 195.558 30.8864ZM195.615 24.8139C194.279 24.8139 193.551 23.7528 193.551 22.0589C193.551 20.3906 194.267 19.2209 195.615 19.2209C196.938 19.2209 197.68 20.3395 197.68 22.0589C197.68 23.7912 196.926 24.8139 195.615 24.8139ZM205.325 27.1854C206.776 27.1854 207.715 26.5526 208.195 25.6385H208.272V27H210.854V20.3778C210.854 18.0384 208.872 17.054 206.686 17.054C204.334 17.054 202.787 18.179 202.41 19.9688L204.929 20.1733C205.114 19.5213 205.696 19.0419 206.674 19.0419C207.6 19.0419 208.131 19.5085 208.131 20.3139V20.3523C208.131 20.9851 207.46 21.0682 205.753 21.2344C203.81 21.4134 202.065 22.0653 202.065 24.2578C202.065 26.201 203.452 27.1854 205.325 27.1854ZM206.105 25.3061C205.267 25.3061 204.666 24.9162 204.666 24.1683C204.666 23.4013 205.299 23.0241 206.258 22.8899C206.853 22.8068 207.824 22.6662 208.15 22.4489V23.4908C208.15 24.5199 207.3 25.3061 206.105 25.3061ZM215.69 21.3239C215.696 20.0582 216.45 19.3168 217.55 19.3168C218.643 19.3168 219.301 20.0327 219.295 21.2344V27H222.018V20.7486C222.018 18.4602 220.675 17.054 218.63 17.054C217.172 17.054 216.118 17.7699 215.677 18.9141H215.562V17.1818H212.967V27H215.69V21.3239ZM228.587 30.8864C231.393 30.8864 233.388 29.608 233.388 27.0959V17.1818H230.684V18.831H230.581C230.217 18.032 229.418 17.054 227.775 17.054C225.621 17.054 223.799 18.7287 223.799 22.0717C223.799 25.3381 225.57 26.8594 227.782 26.8594C229.348 26.8594 230.223 26.0732 230.581 25.2614H230.696V27.0575C230.696 28.4062 229.834 28.9304 228.651 28.9304C227.449 28.9304 226.842 28.4062 226.618 27.8118L224.1 28.1506C224.426 29.6974 225.941 30.8864 228.587 30.8864ZM228.645 24.8139C227.309 24.8139 226.58 23.7528 226.58 22.0589C226.58 20.3906 227.296 19.2209 228.645 19.2209C229.968 19.2209 230.709 20.3395 230.709 22.0589C230.709 23.7912 229.955 24.8139 228.645 24.8139ZM244.943 17.1818H243.095V14.8295H240.372V17.1818H239.03V19.2273H240.372V24.3409C240.36 26.2649 241.67 27.2173 243.645 27.1342C244.348 27.1087 244.847 26.968 245.122 26.8786L244.693 24.8523C244.559 24.8778 244.272 24.9418 244.016 24.9418C243.473 24.9418 243.095 24.7372 243.095 23.983V19.2273H244.943V17.1818ZM249.516 27.1854C250.967 27.1854 251.907 26.5526 252.386 25.6385H252.463V27H255.045V20.3778C255.045 18.0384 253.064 17.054 250.878 17.054C248.525 17.054 246.979 18.179 246.601 19.9688L249.12 20.1733C249.305 19.5213 249.887 19.0419 250.865 19.0419C251.792 19.0419 252.322 19.5085 252.322 20.3139V20.3523C252.322 20.9851 251.651 21.0682 249.945 21.2344C248.001 21.4134 246.256 22.0653 246.256 24.2578C246.256 26.201 247.643 27.1854 249.516 27.1854ZM250.296 25.3061C249.459 25.3061 248.858 24.9162 248.858 24.1683C248.858 23.4013 249.491 23.0241 250.449 22.8899C251.044 22.8068 252.016 22.6662 252.342 22.4489V23.4908C252.342 24.5199 251.491 25.3061 250.296 25.3061ZM258.487 30.6818C260.514 30.6818 261.588 29.6463 262.144 28.0611L265.96 17.1946L263.077 17.1818L261.025 24.392H260.923L258.89 17.1818H256.027L259.549 27.2812L259.389 27.6967C259.031 28.6172 258.347 28.6619 257.388 28.3679L256.774 30.4006C257.164 30.5668 257.797 30.6818 258.487 30.6818Z" fill="url(#paint0_linear)"/>
</g>
<g filter="url(#filter1_d)">
<path d="M73.6847 104C77.6733 104 80.0895 101.533 80.0895 97.4418C80.0895 93.3636 77.6733 90.9091 73.723 90.9091H69.044V104H73.6847ZM71.8118 101.629V93.2805H73.576C76.0305 93.2805 77.3281 94.5334 77.3281 97.4418C77.3281 100.363 76.0305 101.629 73.5696 101.629H71.8118ZM86.563 104.192C88.992 104.192 90.6284 103.009 91.0119 101.188L88.4934 101.021C88.2186 101.769 87.5154 102.159 86.6078 102.159C85.2463 102.159 84.3833 101.258 84.3833 99.794V99.7876H91.0694V99.0398C91.0694 95.7031 89.0495 94.054 86.4544 94.054C83.5652 94.054 81.6923 96.1058 81.6923 99.1357C81.6923 102.249 83.5396 104.192 86.563 104.192ZM84.3833 98.1001C84.4409 96.9815 85.291 96.0866 86.4991 96.0866C87.6816 96.0866 88.4998 96.9304 88.5062 98.1001H84.3833ZM87.1191 91.2415H85.6618L83.0666 93.2038H84.9714L86.3777 92.13L87.8159 93.2038H89.6951L87.1191 91.2415ZM87.7839 89.0682C87.7775 89.3942 87.5922 89.7457 87.3301 89.7457C86.7101 89.7457 86.0645 89.2024 85.4125 89.2024C84.671 89.2024 84.2108 89.9055 84.2108 90.5639L85.1312 90.8196C85.1312 90.4936 85.3102 90.2124 85.5978 90.2124C86.237 90.2124 86.7037 90.7749 87.5154 90.7749C88.2505 90.7749 88.7235 90.0845 88.7299 89.3942L87.7839 89.0682ZM100.63 104.16C102.216 104.16 103.04 103.246 103.417 102.428H103.532V104H106.217V90.9091H103.5V95.831H103.417C103.053 95.032 102.267 94.054 100.624 94.054C98.4698 94.054 96.6481 95.7287 96.6481 99.1037C96.6481 102.389 98.3931 104.16 100.63 104.16ZM101.493 101.993C100.157 101.993 99.4286 100.804 99.4286 99.0909C99.4286 97.3906 100.145 96.2209 101.493 96.2209C102.816 96.2209 103.558 97.3395 103.558 99.0909C103.558 100.842 102.804 101.993 101.493 101.993ZM111.256 104.185C112.706 104.185 113.646 103.553 114.126 102.638H114.202V104H116.785V97.3778C116.785 95.0384 114.803 94.054 112.617 94.054C110.265 94.054 108.718 95.179 108.341 96.9688L110.859 97.1733C111.045 96.5213 111.626 96.0419 112.604 96.0419C113.531 96.0419 114.062 96.5085 114.062 97.3139V97.3523C114.062 97.9851 113.39 98.0682 111.684 98.2344C109.741 98.4134 107.996 99.0653 107.996 101.258C107.996 103.201 109.383 104.185 111.256 104.185ZM112.035 102.306C111.198 102.306 110.597 101.916 110.597 101.168C110.597 100.401 111.23 100.024 112.189 99.8899C112.783 99.8068 113.755 99.6662 114.081 99.4489V100.491C114.081 101.52 113.231 102.306 112.035 102.306ZM111.773 92.9162H113.697L112.336 90.0078H109.824L111.773 92.9162ZM121.62 98.3239C121.627 97.0582 122.381 96.3168 123.48 96.3168C124.573 96.3168 125.232 97.0327 125.225 98.2344V104H127.948V97.7486C127.948 95.4602 126.606 94.054 124.561 94.054C123.103 94.054 122.048 94.7699 121.607 95.9141H121.492V94.1818H118.897V104H121.62V98.3239ZM134.518 107.886C137.324 107.886 139.318 106.608 139.318 104.096V94.1818H136.614V95.831H136.512C136.148 95.032 135.349 94.054 133.706 94.054C131.552 94.054 129.73 95.7287 129.73 99.0717C129.73 102.338 131.501 103.859 133.712 103.859C135.278 103.859 136.154 103.073 136.512 102.261H136.627V104.058C136.627 105.406 135.764 105.93 134.582 105.93C133.38 105.93 132.773 105.406 132.549 104.812L130.031 105.151C130.357 106.697 131.871 107.886 134.518 107.886ZM134.575 101.814C133.239 101.814 132.511 100.753 132.511 99.0589C132.511 97.3906 133.227 96.2209 134.575 96.2209C135.898 96.2209 136.64 97.3395 136.64 99.0589C136.64 100.791 135.886 101.814 134.575 101.814ZM148.374 98.3239C148.381 97.0582 149.135 96.3168 150.234 96.3168C151.327 96.3168 151.986 97.0327 151.979 98.2344V104H154.702V97.7486C154.702 95.4602 153.36 94.054 151.314 94.054C149.857 94.054 148.802 94.7699 148.361 95.9141H148.246V94.1818H145.651V104H148.374V98.3239ZM159.571 98.3239C159.578 97.0582 160.351 96.3168 161.463 96.3168C162.569 96.3168 163.221 97.0263 163.215 98.2344V104H165.938V97.7486C165.944 95.4474 164.589 94.054 162.544 94.054C161.054 94.054 160.057 94.7571 159.61 95.9141H159.495V90.9091H156.848V104H159.571V98.3239ZM178.461 93.6385C178.455 94.8786 178.314 95.5753 177.164 95.7479V94.1818H174.441V99.8196C174.447 101.136 173.546 101.827 172.568 101.827C171.539 101.827 170.874 101.104 170.868 99.9474V94.1818H168.145V100.433C168.151 102.728 169.493 104.128 171.469 104.128C172.945 104.128 174.006 103.367 174.447 102.217H174.55V104H177.164V96.9815C179.324 96.7962 180.034 95.6584 180.04 93.6385H178.461ZM185.009 104H187.732V100.881L188.467 100.043L191.145 104H194.335L190.506 98.4325L194.149 94.1818H191.023L187.879 97.9084H187.732V90.9091H185.009V104ZM198.208 98.3239C198.214 97.0582 198.988 96.3168 200.1 96.3168C201.206 96.3168 201.858 97.0263 201.852 98.2344V104H204.575V97.7486C204.581 95.4474 203.226 94.054 201.18 94.054C199.691 94.054 198.694 94.7571 198.246 95.9141H198.131V90.9091H195.485V104H198.208V98.3239ZM211.154 104.192C214.132 104.192 215.986 102.153 215.986 99.1293C215.986 96.0866 214.132 94.054 211.154 94.054C208.175 94.054 206.321 96.0866 206.321 99.1293C206.321 102.153 208.175 104.192 211.154 104.192ZM211.166 102.082C209.792 102.082 209.089 100.823 209.089 99.1101C209.089 97.397 209.792 96.1314 211.166 96.1314C212.515 96.1314 213.218 97.397 213.218 99.1101C213.218 100.823 212.515 102.082 211.166 102.082ZM209.869 93.0185L211.154 91.4588L212.438 93.0185H214.759V92.929L212.164 90.1165H210.137L207.548 92.929V93.0185H209.869ZM220.48 98.3239C220.486 97.0582 221.24 96.3168 222.34 96.3168C223.433 96.3168 224.091 97.0327 224.085 98.2344V104H226.808V97.7486C226.808 95.4602 225.465 94.054 223.42 94.054C221.963 94.054 220.908 94.7699 220.467 95.9141H220.352V94.1818H217.757V104H220.48V98.3239ZM233.377 107.886C236.183 107.886 238.178 106.608 238.178 104.096V94.1818H235.474V95.831H235.371C235.007 95.032 234.208 94.054 232.565 94.054C230.411 94.054 228.589 95.7287 228.589 99.0717C228.589 102.338 230.36 103.859 232.572 103.859C234.138 103.859 235.013 103.073 235.371 102.261H235.487V104.058C235.487 105.406 234.624 105.93 233.441 105.93C232.239 105.93 231.632 105.406 231.408 104.812L228.89 105.151C229.216 106.697 230.731 107.886 233.377 107.886ZM233.435 101.814C232.099 101.814 231.37 100.753 231.37 99.0589C231.37 97.3906 232.086 96.2209 233.435 96.2209C234.758 96.2209 235.499 97.3395 235.499 99.0589C235.499 100.791 234.745 101.814 233.435 101.814ZM243.598 90.9091H240.754L241.009 100.075H243.349L243.598 90.9091ZM242.179 104.166C242.997 104.166 243.707 103.482 243.713 102.632C243.707 101.795 242.997 101.111 242.179 101.111C241.335 101.111 240.638 101.795 240.645 102.632C240.638 103.482 241.335 104.166 242.179 104.166Z" fill="url(#paint1_linear)"/>
</g>
<g filter="url(#filter2_d)">
<path d="M95.5227 77.9545C105.017 77.9716 110.915 71.1705 110.932 59.6136C110.949 48.125 105.017 41.6136 95.5227 41.6136C86.0114 41.6136 80.1477 48.0909 80.1136 59.6136C80.0795 71.1193 86.0114 77.9375 95.5227 77.9545ZM95.5227 70.25C92.25 70.25 89.8977 66.9602 89.9318 59.6136C89.9659 52.4375 92.25 49.25 95.5227 49.25C98.7955 49.25 101.097 52.4375 101.114 59.6136C101.131 66.9602 98.7955 70.25 95.5227 70.25ZM115.381 77H142.176V69.4318H128.54V69.2273L131.812 66.5C139.773 59.8693 141.801 56.4261 141.801 52.3864C141.801 45.875 136.466 41.6136 128.097 41.6136C119.966 41.6136 114.682 46.1307 114.699 53.4773H123.699C123.682 50.5455 125.472 48.9091 128.097 48.9091C130.705 48.9091 132.562 50.5284 132.562 53.2045C132.562 55.6761 130.977 57.2784 128.403 59.4091L115.381 70.1818V77Z" fill="url(#paint2_linear)"/>
</g>
<g filter="url(#filter3_d)">
<path d="M153.898 51.6364C153.906 50.3409 154.639 49.5568 155.807 49.5568C156.991 49.5568 157.69 50.3409 157.682 51.6364V59H162.386V50.6477C162.395 47.8011 160.597 45.7386 157.818 45.7386C155.892 45.7386 154.366 46.7443 153.795 48.3977H153.659V45.9091H149.193V59H153.898V51.6364ZM168.357 59.2045C170.061 59.2045 171.348 58.625 172.141 57.1591H172.243V59H176.641V50.0341C176.641 47.6136 174.348 45.7386 170.607 45.7386C166.695 45.7386 164.768 47.7841 164.607 50.1705H168.936C169.047 49.3608 169.643 48.9773 170.538 48.9773C171.357 48.9773 171.936 49.3523 171.936 50.0341V50.0682C171.936 50.8267 171.101 51.0653 168.902 51.2273C166.2 51.4233 164.095 52.5142 164.095 55.3864C164.095 57.9943 165.851 59.2045 168.357 59.2045ZM172.447 41.2045C172.439 41.9545 171.962 42.6364 170.743 42.6364C169.473 42.6364 168.996 41.9205 169.004 41.2045H166.072C166.064 43.4205 167.871 44.8523 170.743 44.8523C173.598 44.8523 175.405 43.4205 175.413 41.2045H172.447ZM169.891 56.2386C169.089 56.2386 168.527 55.8466 168.527 55.1136C168.527 54.4403 169.004 53.9205 170.095 53.75C170.845 53.6307 171.476 53.4773 171.97 53.2727V54.3636C171.97 55.5568 170.956 56.2386 169.891 56.2386ZM178.888 59H183.593V51.3636C183.593 50.2216 184.19 49.5227 185.161 49.5227C186.133 49.5227 186.763 50.2216 186.763 51.3636V59H191.263V51.3636C191.263 50.2216 191.86 49.5227 192.832 49.5227C193.803 49.5227 194.434 50.2216 194.434 51.3636V59H199.138V50.1705C199.138 47.4858 197.417 45.7386 194.911 45.7386C192.968 45.7386 191.4 46.7955 190.957 48.3977H190.82C190.548 46.7955 189.082 45.7386 187.241 45.7386C185.425 45.7386 184.036 46.7614 183.491 48.3977H183.354V45.9091H178.888V59ZM155.5 78.2386C159.378 78.2386 161.756 76.0142 161.807 72.5455H157.443C157.341 73.9176 156.599 74.6591 155.568 74.6591C154.332 74.6591 153.523 73.6023 153.523 71.4545C153.523 69.3068 154.332 68.25 155.568 68.25C156.608 68.25 157.315 68.9915 157.443 70.3636H161.807C161.781 66.9545 159.352 64.7386 155.5 64.7386C151.239 64.7386 148.716 67.4659 148.716 71.4886C148.716 75.5114 151.239 78.2386 155.5 78.2386ZM167.396 78.2045C169.1 78.2045 170.387 77.625 171.18 76.1591H171.282V78H175.68V69.0341C175.68 66.6136 173.387 64.7386 169.646 64.7386C165.734 64.7386 163.808 66.7841 163.646 69.1705H167.975C168.086 68.3608 168.683 67.9773 169.577 67.9773C170.396 67.9773 170.975 68.3523 170.975 69.0341V69.0682C170.975 69.8267 170.14 70.0653 167.941 70.2273C165.239 70.4233 163.134 71.5142 163.134 74.3864C163.134 76.9943 164.89 78.2045 167.396 78.2045ZM168.93 75.2386C168.129 75.2386 167.566 74.8466 167.566 74.1136C167.566 73.4403 168.043 72.9205 169.134 72.75C169.884 72.6307 170.515 72.4773 171.009 72.2727V73.3636C171.009 74.5568 169.995 75.2386 168.93 75.2386ZM177.928 78H182.632V70.3636C182.632 69.2216 183.229 68.5227 184.2 68.5227C185.172 68.5227 185.803 69.2216 185.803 70.3636V78H190.303V70.3636C190.303 69.2216 190.899 68.5227 191.871 68.5227C192.842 68.5227 193.473 69.2216 193.473 70.3636V78H198.178V69.1705C198.178 66.4858 196.456 64.7386 193.95 64.7386C192.007 64.7386 190.439 65.7955 189.996 67.3977H189.859C189.587 65.7955 188.121 64.7386 186.28 64.7386C184.464 64.7386 183.075 65.7614 182.53 67.3977H182.393V64.9091H177.928V78ZM205.279 78H209.984V74.2841L210.691 73.3892L213.359 78H218.745L214.16 70.6449L218.609 64.9091H213.325L210.154 69.3068H209.984V60.5455H205.279V78ZM225.567 78.2386C229.198 78.2386 231.533 76.5 231.977 73.7727H227.681C227.408 74.5142 226.633 74.9318 225.67 74.9318C224.272 74.9318 223.454 74.0114 223.454 72.75V72.5455H231.977V71.4545C231.977 67.2869 229.42 64.7386 225.465 64.7386C221.408 64.7386 218.817 67.4318 218.817 71.4886C218.817 75.7244 221.374 78.2386 225.567 78.2386ZM220.931 63.6136H223.624L225.363 62.4205L227.067 63.6136H229.795L226.352 61.2614H224.34L220.931 63.6136ZM228.908 62.4886H231.158L234.158 59.2159H231.124L228.908 62.4886ZM223.454 69.9545C223.479 68.821 224.417 68.0455 225.567 68.0455C226.735 68.0455 227.621 68.8295 227.647 69.9545H223.454ZM241.703 64.9091H239.453V61.7727H234.749V64.9091H233.078V68.3182H234.749V74.233C234.714 76.9773 236.411 78.3665 239.658 78.1875C240.723 78.1278 241.516 77.9062 241.942 77.7784L241.26 74.4716C241.081 74.5142 240.621 74.608 240.339 74.608C239.726 74.608 239.453 74.3352 239.453 73.7898V68.3182H241.703V64.9091Z" fill="url(#paint3_linear)"/>
</g>
<defs>
<filter id="filter0_d" x="31.3726" y="4.22168" width="250.587" height="50.6648" filterUnits="userSpaceOnUse" color-interpolation-filters="sRGB">
<feFlood flood-opacity="0" result="BackgroundImageFix"/>
<feColorMatrix in="SourceAlpha" type="matrix" values="0 0 0 0 0 0 0 0 0 0 0 0 0 0 0 0 0 0 127 0" result="hardAlpha"/>
<feOffset dy="8"/>
<feGaussianBlur stdDeviation="8"/>
<feComposite in2="hardAlpha" operator="out"/>
<feColorMatrix type="matrix" values="0 0 0 0 0 0 0 0 0 0 0 0 0 0 0 0 0 0 0.08 0"/>
<feBlend mode="normal" in2="BackgroundImageFix" result="effect1_dropShadow"/>
<feBlend mode="normal" in="SourceGraphic" in2="effect1_dropShadow" result="shape"/>
</filter>
<filter id="filter1_d" x="53.0441" y="81.0684" width="206.669" height="50.8182" filterUnits="userSpaceOnUse" color-interpolation-filters="sRGB">
<feFlood flood-opacity="0" result="BackgroundImageFix"/>
<feColorMatrix in="SourceAlpha" type="matrix" values="0 0 0 0 0 0 0 0 0 0 0 0 0 0 0 0 0 0 127 0" result="hardAlpha"/>
<feOffset dy="8"/>
<feGaussianBlur stdDeviation="8"/>
<feComposite in2="hardAlpha" operator="out"/>
<feColorMatrix type="matrix" values="0 0 0 0 0 0 0 0 0 0 0 0 0 0 0 0 0 0 0.08 0"/>
<feBlend mode="normal" in2="BackgroundImageFix" result="effect1_dropShadow"/>
<feBlend mode="normal" in="SourceGraphic" in2="effect1_dropShadow" result="shape"/>
</filter>
<filter id="filter2_d" x="64.1135" y="33.6138" width="94.0626" height="68.3409" filterUnits="userSpaceOnUse" color-interpolation-filters="sRGB">
<feFlood flood-opacity="0" result="BackgroundImageFix"/>
<feColorMatrix in="SourceAlpha" type="matrix" values="0 0 0 0 0 0 0 0 0 0 0 0 0 0 0 0 0 0 127 0" result="hardAlpha"/>
<feOffset dy="8"/>
<feGaussianBlur stdDeviation="8"/>
<feComposite in2="hardAlpha" operator="out"/>
<feColorMatrix type="matrix" values="0 0 0 0 0 0 0 0 0 0 0 0 0 0 0 0 0 0 0.08 0"/>
<feBlend mode="normal" in2="BackgroundImageFix" result="effect1_dropShadow"/>
<feBlend mode="normal" in="SourceGraphic" in2="effect1_dropShadow" result="shape"/>
</filter>
<filter id="filter3_d" x="132.716" y="33.2046" width="125.226" height="69.0341" filterUnits="userSpaceOnUse" color-interpolation-filters="sRGB">
<feFlood flood-opacity="0" result="BackgroundImageFix"/>
<feColorMatrix in="SourceAlpha" type="matrix" values="0 0 0 0 0 0 0 0 0 0 0 0 0 0 0 0 0 0 127 0" result="hardAlpha"/>
<feOffset dy="8"/>
<feGaussianBlur stdDeviation="8"/>
<feComposite in2="hardAlpha" operator="out"/>
<feColorMatrix type="matrix" values="0 0 0 0 0 0 0 0 0 0 0 0 0 0 0 0 0 0 0.08 0"/>
<feBlend mode="normal" in2="BackgroundImageFix" result="effect1_dropShadow"/>
<feBlend mode="normal" in="SourceGraphic" in2="effect1_dropShadow" result="shape"/>
</filter>
<linearGradient id="paint0_linear" x1="18.177" y1="4.27498e-06" x2="89.1554" y2="94.4032" gradientUnits="userSpaceOnUse">
<stop stop-color="#D6E0E2"/>
<stop offset="1" stop-color="#E8EAEC"/>
</linearGradient>
<linearGradient id="paint1_linear" x1="18.177" y1="77" x2="89.1554" y2="171.403" gradientUnits="userSpaceOnUse">
<stop stop-color="#D6E0E2"/>
<stop offset="1" stop-color="#E8EAEC"/>
</linearGradient>
<linearGradient id="paint2_linear" x1="81.8909" y1="42" x2="119.934" y2="54.3781" gradientUnits="userSpaceOnUse">
<stop stop-color="#D6E0E2"/>
<stop offset="1" stop-color="#E8EAEC"/>
</linearGradient>
<linearGradient id="paint3_linear" x1="153.517" y1="41" x2="204.045" y2="62.4709" gradientUnits="userSpaceOnUse">
<stop stop-color="#D6E0E2"/>
<stop offset="1" stop-color="#E8EAEC"/>
</linearGradient>
</defs>
</svg>
