<svg width="242" height="65" viewBox="0 0 242 65" fill="none" xmlns="http://www.w3.org/2000/svg">
<g filter="url(#filter0_d)">
<path d="M16.7031 9.72701V32.9997H22.8849V19.4543H23.0668L28.2486 32.8179H31.9759L37.1577 19.5452H37.3395V32.9997H43.5213V9.72701H35.6577L30.2486 22.9088H29.9759L24.5668 9.72701H16.7031Z" fill="url(#paint0_linear)"/>
<path d="M57.9247 25.3634C57.9361 27.0906 56.9361 28.1361 55.3793 28.1361C53.7997 28.1361 52.8906 27.0906 52.8793 25.3634V15.5452H46.6065V26.6816C46.6179 30.4997 49.027 33.227 52.6974 33.227C55.2997 33.227 57.2997 31.9088 58.0611 29.6816H58.2429V32.9997H64.1974V15.5452H57.9247V25.3634ZM56.6065 40.0452C58.3111 40.0452 59.6974 38.7611 59.6974 37.1816C59.6974 35.602 58.3111 34.3179 56.6065 34.3179C54.902 34.3179 53.5156 35.602 53.5156 37.1816C53.5156 38.7611 54.902 40.0452 56.6065 40.0452Z" fill="url(#paint1_linear)"/>
<path d="M75.7969 33.3179C80.9673 33.3179 84.1378 30.352 84.206 25.727H78.3878C78.2514 27.5566 77.2628 28.5452 75.8878 28.5452C74.2401 28.5452 73.1605 27.1361 73.1605 24.2725C73.1605 21.4088 74.2401 19.9997 75.8878 19.9997C77.2742 19.9997 78.2173 20.9884 78.3878 22.8179H84.206C84.1719 18.2725 80.9332 15.3179 75.7969 15.3179C70.1151 15.3179 66.7514 18.9543 66.7514 24.3179C66.7514 29.6816 70.1151 33.3179 75.7969 33.3179Z" fill="url(#paint2_linear)"/>
<path d="M99.4872 33.227C101.942 33.227 103.624 31.9088 104.351 30.1361H104.487V32.9997H110.714V14.5452H112.351V11.1816H110.714V9.72701H104.442V11.1816H100.124V14.5452H104.442V18.5906H104.351C103.669 16.8179 102.033 15.3179 99.4418 15.3179C95.9872 15.3179 92.6236 17.9543 92.6236 24.2725C92.6236 30.3179 95.7599 33.227 99.4872 33.227ZM101.805 28.4088C100.078 28.4088 99.0781 26.8634 99.0781 24.2725C99.0781 21.6816 100.078 20.1361 101.805 20.1361C103.533 20.1361 104.578 21.6816 104.578 24.2725C104.578 26.8179 103.533 28.4088 101.805 28.4088Z" fill="url(#paint3_linear)"/>
<path d="M114.888 32.9997H121.161V15.5452H114.888V32.9997ZM115.933 13.3634H120.07L123.479 8.27246H118.115L115.933 13.3634Z" fill="url(#paint4_linear)"/>
<path d="M132.766 33.3179C137.936 33.3179 141.107 30.352 141.175 25.727H135.357C135.22 27.5566 134.232 28.5452 132.857 28.5452C131.209 28.5452 130.129 27.1361 130.129 24.2725C130.129 21.4088 131.209 19.9997 132.857 19.9997C134.243 19.9997 135.186 20.9884 135.357 22.8179H141.175C141.141 18.2725 137.902 15.3179 132.766 15.3179C127.084 15.3179 123.72 18.9543 123.72 24.3179C123.72 29.6816 127.084 33.3179 132.766 33.3179Z" fill="url(#paint5_linear)"/>
<path d="M150.036 23.1816C150.047 21.4543 151.047 20.4088 152.581 20.4088C154.183 20.4088 155.092 21.4543 155.081 23.1816V32.9997H161.354V21.8634C161.365 18.0452 158.956 15.3179 155.263 15.3179C152.683 15.3179 150.774 16.6361 149.99 18.8634H149.808V9.72701H143.763V32.9997H150.036V23.1816Z" fill="url(#paint6_linear)"/>
<path d="M188.416 15.5452H181.825L179.007 27.0906H178.825L176.007 15.5452H169.416L175.28 32.9997H182.553L188.416 15.5452Z" fill="url(#paint7_linear)"/>
<path d="M194.595 33.2725C196.868 33.2725 198.584 32.4997 199.641 30.5452H199.777V32.9997H205.641V21.0452C205.641 17.8179 202.584 15.3179 197.595 15.3179C192.379 15.3179 189.811 18.0452 189.595 21.227H195.368C195.516 20.1475 196.311 19.6361 197.504 19.6361C198.595 19.6361 199.368 20.1361 199.368 21.0452V21.0906C199.368 22.102 198.254 22.4202 195.322 22.6361C191.72 22.8975 188.913 24.352 188.913 28.1816C188.913 31.6588 191.254 33.2725 194.595 33.2725ZM196.641 29.3179C195.572 29.3179 194.822 28.7952 194.822 27.8179C194.822 26.9202 195.459 26.227 196.913 25.9997C197.913 25.8406 198.754 25.6361 199.413 25.3634V26.8179C199.413 28.4088 198.061 29.3179 196.641 29.3179Z" fill="url(#paint8_linear)"/>
<path d="M211.831 39.5452C216.217 39.5452 218.274 37.3406 219.24 34.4543L225.604 15.5452H219.013L216.149 27.6361H215.967L213.149 15.5452H206.604L212.74 33.7725L212.604 34.0906C212.183 35.0566 210.967 35.0225 209.422 34.477L208.058 38.9316C209.036 39.3179 210.388 39.5452 211.831 39.5452Z" fill="url(#paint9_linear)"/>
</g>
<defs>
<filter id="filter0_d" x="0.703125" y="0.272461" width="240.901" height="63.7727" filterUnits="userSpaceOnUse" color-interpolation-filters="sRGB">
<feFlood flood-opacity="0" result="BackgroundImageFix"/>
<feColorMatrix in="SourceAlpha" type="matrix" values="0 0 0 0 0 0 0 0 0 0 0 0 0 0 0 0 0 0 127 0" result="hardAlpha"/>
<feOffset dy="8"/>
<feGaussianBlur stdDeviation="8"/>
<feComposite in2="hardAlpha" operator="out"/>
<feColorMatrix type="matrix" values="0 0 0 0 0 0 0 0 0 0 0 0 0 0 0 0 0 0 0.08 0"/>
<feBlend mode="normal" in2="BackgroundImageFix" result="effect1_dropShadow"/>
<feBlend mode="normal" in="SourceGraphic" in2="effect1_dropShadow" result="shape"/>
</filter>
<linearGradient id="paint0_linear" x1="22.8343" y1="1.00001" x2="96.5732" y2="70.2478" gradientUnits="userSpaceOnUse">
<stop stop-color="#D6E0E2"/>
<stop offset="1" stop-color="#E8EAEC"/>
</linearGradient>
<linearGradient id="paint1_linear" x1="22.8343" y1="1.00001" x2="96.5732" y2="70.2478" gradientUnits="userSpaceOnUse">
<stop stop-color="#D6E0E2"/>
<stop offset="1" stop-color="#E8EAEC"/>
</linearGradient>
<linearGradient id="paint2_linear" x1="22.8343" y1="1.00001" x2="96.5732" y2="70.2478" gradientUnits="userSpaceOnUse">
<stop stop-color="#D6E0E2"/>
<stop offset="1" stop-color="#E8EAEC"/>
</linearGradient>
<linearGradient id="paint3_linear" x1="22.8343" y1="1.00001" x2="96.5732" y2="70.2478" gradientUnits="userSpaceOnUse">
<stop stop-color="#D6E0E2"/>
<stop offset="1" stop-color="#E8EAEC"/>
</linearGradient>
<linearGradient id="paint4_linear" x1="22.8343" y1="1.00001" x2="96.5732" y2="70.2478" gradientUnits="userSpaceOnUse">
<stop stop-color="#D6E0E2"/>
<stop offset="1" stop-color="#E8EAEC"/>
</linearGradient>
<linearGradient id="paint5_linear" x1="22.8343" y1="1.00001" x2="96.5732" y2="70.2478" gradientUnits="userSpaceOnUse">
<stop stop-color="#D6E0E2"/>
<stop offset="1" stop-color="#E8EAEC"/>
</linearGradient>
<linearGradient id="paint6_linear" x1="22.8343" y1="1.00001" x2="96.5732" y2="70.2478" gradientUnits="userSpaceOnUse">
<stop stop-color="#D6E0E2"/>
<stop offset="1" stop-color="#E8EAEC"/>
</linearGradient>
<linearGradient id="paint7_linear" x1="22.8343" y1="1.00001" x2="96.5732" y2="70.2478" gradientUnits="userSpaceOnUse">
<stop stop-color="#D6E0E2"/>
<stop offset="1" stop-color="#E8EAEC"/>
</linearGradient>
<linearGradient id="paint8_linear" x1="22.8343" y1="1.00001" x2="96.5732" y2="70.2478" gradientUnits="userSpaceOnUse">
<stop stop-color="#D6E0E2"/>
<stop offset="1" stop-color="#E8EAEC"/>
</linearGradient>
<linearGradient id="paint9_linear" x1="22.8343" y1="1.00001" x2="96.5732" y2="70.2478" gradientUnits="userSpaceOnUse">
<stop stop-color="#D6E0E2"/>
<stop offset="1" stop-color="#E8EAEC"/>
</linearGradient>
</defs>
</svg>
