<svg width="223" height="135" viewBox="0 0 223 135" fill="none" xmlns="http://www.w3.org/2000/svg">
<g filter="url(#filter0_d)">
<path d="M29.3984 27H37.6143C41.407 27 43.7507 24.929 43.7507 22.0568C43.7507 19.5938 41.9354 17.983 39.6939 17.8977V17.7273C41.7138 17.3267 43.0689 15.8352 43.0689 13.9091C43.0689 11.25 40.9553 9.54545 36.9666 9.54545H29.3984V27ZM34.1371 23.2159V19.5341H36.4212C37.8615 19.5341 38.7393 20.2159 38.7393 21.4432C38.7393 22.6108 37.9467 23.2159 36.353 23.2159H34.1371ZM34.1371 16.6023V13.2614H36.1484C37.3246 13.2614 38.1939 13.858 38.1939 14.9318C38.1939 16.0057 37.3246 16.6023 36.0803 16.6023H34.1371ZM49.1456 27.2045C50.8501 27.2045 52.1371 26.625 52.9297 25.1591H53.032V27H57.4297V18.0341C57.4297 15.6136 55.1371 13.7386 51.3956 13.7386C47.4837 13.7386 45.5575 15.7841 45.3956 18.1705H49.7251C49.8359 17.3608 50.4325 16.9773 51.3274 16.9773C52.1456 16.9773 52.7251 17.3523 52.7251 18.0341V18.0682C52.7251 18.8267 51.8899 19.0653 49.6911 19.2273C46.9893 19.4233 44.8842 20.5142 44.8842 23.3864C44.8842 25.9943 46.6399 27.2045 49.1456 27.2045ZM51.3615 32.2841C52.6399 32.2841 53.6797 31.321 53.6797 30.1364C53.6797 28.9517 52.6399 27.9886 51.3615 27.9886C50.0831 27.9886 49.0433 28.9517 49.0433 30.1364C49.0433 31.321 50.0831 32.2841 51.3615 32.2841ZM50.6797 24.2386C49.8786 24.2386 49.3161 23.8466 49.3161 23.1136C49.3161 22.4403 49.7933 21.9205 50.8842 21.75C51.6342 21.6307 52.2649 21.4773 52.7592 21.2727V22.3636C52.7592 23.5568 51.745 24.2386 50.6797 24.2386ZM64.3821 19.6364C64.3906 18.3409 65.1236 17.5568 66.2912 17.5568C67.4759 17.5568 68.1747 18.3409 68.1662 19.6364V27H72.8707V18.6477C72.8793 15.8011 71.081 13.7386 68.3026 13.7386C66.3764 13.7386 64.8509 14.7443 64.2798 16.3977H64.1435V13.9091H59.6776V27H64.3821V19.6364ZM79.9744 27H84.679V19.3636C84.679 18.2216 85.2756 17.5227 86.2472 17.5227C87.2188 17.5227 87.8494 18.2216 87.8494 19.3636V27H92.3494V19.3636C92.3494 18.2216 92.946 17.5227 93.9176 17.5227C94.8892 17.5227 95.5199 18.2216 95.5199 19.3636V27H100.224V18.1705C100.224 15.4858 98.5028 13.7386 95.9972 13.7386C94.054 13.7386 92.4858 14.7955 92.0426 16.3977H91.9062C91.6335 14.7955 90.1676 13.7386 88.3267 13.7386C86.5114 13.7386 85.1222 14.7614 84.5767 16.3977H84.4403V13.9091H79.9744V27ZM111.033 21.2727C111.042 22.5682 110.292 23.3523 109.124 23.3523C107.94 23.3523 107.258 22.5682 107.249 21.2727V13.9091H102.545V22.2614C102.553 25.125 104.36 27.1705 107.113 27.1705C109.065 27.1705 110.565 26.1818 111.136 24.5114H111.272V27H115.738V13.9091H111.033V21.2727ZM121.778 27.2045C123.483 27.2045 124.77 26.625 125.562 25.1591H125.665V27H130.062V18.0341C130.062 15.6136 127.77 13.7386 124.028 13.7386C120.116 13.7386 118.19 15.7841 118.028 18.1705H122.358C122.469 17.3608 123.065 16.9773 123.96 16.9773C124.778 16.9773 125.358 17.3523 125.358 18.0341V18.0682C125.358 18.8267 124.523 19.0653 122.324 19.2273C119.622 19.4233 117.517 20.5142 117.517 23.3864C117.517 25.9943 119.273 27.2045 121.778 27.2045ZM123.312 24.2386C122.511 24.2386 121.949 23.8466 121.949 23.1136C121.949 22.4403 122.426 21.9205 123.517 21.75C124.267 21.6307 124.898 21.4773 125.392 21.2727V22.3636C125.392 23.5568 124.378 24.2386 123.312 24.2386ZM141.796 19.6364C141.805 18.3409 142.538 17.5568 143.705 17.5568C144.89 17.5568 145.589 18.3409 145.58 19.6364V27H150.285V18.6477C150.293 15.8011 148.495 13.7386 145.717 13.7386C143.79 13.7386 142.265 14.7443 141.694 16.3977H141.558V13.9091H137.092V27H141.796V19.6364ZM157.312 19.6364C157.32 18.3409 158.07 17.5568 159.221 17.5568C160.423 17.5568 161.104 18.3409 161.096 19.6364V27H165.8V18.6477C165.809 15.7841 164.002 13.7386 161.232 13.7386C159.298 13.7386 157.866 14.7273 157.278 16.3977H157.141V9.54545H152.607V27H157.312V19.6364ZM171.771 27.2045C173.475 27.2045 174.762 26.625 175.555 25.1591H175.657V27H180.055V18.0341C180.055 15.6136 177.762 13.7386 174.021 13.7386C170.109 13.7386 168.183 15.7841 168.021 18.1705H172.35C172.461 17.3608 173.058 16.9773 173.952 16.9773C174.771 16.9773 175.35 17.3523 175.35 18.0341V18.0682C175.35 18.8267 174.515 19.0653 172.316 19.2273C169.614 19.4233 167.509 20.5142 167.509 23.3864C167.509 25.9943 169.265 27.2045 171.771 27.2045ZM172.623 12.2727H175.725L174.089 8.45454H170.066L172.623 12.2727ZM173.305 24.2386C172.504 24.2386 171.941 23.8466 171.941 23.1136C171.941 22.4403 172.418 21.9205 173.509 21.75C174.259 21.6307 174.89 21.4773 175.384 21.2727V22.3636C175.384 23.5568 174.37 24.2386 173.305 24.2386ZM186.871 24.6136H183.325V25.5682C183.325 27.8864 182.541 30.3153 182.268 31.2614H185.166C185.575 30.3153 186.624 28.0312 186.803 25.5682L186.871 24.6136ZM28.5918 70.4375C35.7012 70.4375 40.0605 66.3594 40.1543 60H32.1543C31.9668 62.5156 30.6074 63.875 28.7168 63.875C26.4512 63.875 24.9668 61.9375 24.9668 58C24.9668 54.0625 26.4512 52.125 28.7168 52.125C30.623 52.125 31.9199 53.4844 32.1543 56H40.1543C40.1074 49.75 35.6543 45.6875 28.5918 45.6875C20.7793 45.6875 16.1543 50.6875 16.1543 58.0625C16.1543 65.4375 20.7793 70.4375 28.5918 70.4375ZM52.3379 56.5C52.3535 54.125 53.7285 52.6875 55.8379 52.6875C58.041 52.6875 59.291 54.125 59.2754 56.5V70H67.9004V54.6875C67.916 49.4375 64.6035 45.6875 59.5254 45.6875C55.9785 45.6875 53.3535 47.5 52.2754 50.5625H52.0254V38H43.7129V70H52.3379V56.5ZM87.7207 59.5C87.7363 61.875 86.3613 63.3125 84.2207 63.3125C82.0488 63.3125 80.7988 61.875 80.7832 59.5V46H72.1582V61.3125C72.1738 66.5625 75.4863 70.3125 80.5332 70.3125C84.1113 70.3125 86.8613 68.5 87.9082 65.4375H88.1582V70H96.3457V46H87.7207V59.5ZM81.4082 43H87.0957L91.7832 36H84.4082L81.4082 43ZM109.357 56.5C109.373 54.125 110.717 52.6875 112.857 52.6875C115.029 52.6875 116.311 54.125 116.295 56.5V70H124.92V54.6875C124.936 49.4687 121.639 45.6875 116.545 45.6875C113.014 45.6875 110.217 47.5312 109.17 50.5625H108.92V46H100.732V70H109.357V56.5ZM140.74 79.5C148.334 79.5 153.365 76.0313 153.365 69.9375V46H144.74V50.1875H144.553C143.615 47.75 141.365 45.6875 137.803 45.6875C133.053 45.6875 128.428 49.3125 128.428 58C128.428 66.3125 132.74 69.6875 137.865 69.6875C141.115 69.6875 143.678 68.3125 144.615 65.875H144.865V69.9375C144.865 72.7656 143.225 73.6875 140.99 73.6875C139.006 73.6875 137.553 73.0938 137.303 71.5625H128.99C129.318 76.1875 133.521 79.5 140.74 79.5ZM141.053 63.5625C138.678 63.5625 137.303 61.5625 137.303 58C137.303 54.4375 138.678 52.3125 141.053 52.3125C143.428 52.3125 144.865 54.4375 144.865 58C144.865 61.5 143.428 63.5625 141.053 63.5625ZM180.83 46H176.705V40.25H168.08V46H165.018V52.25H168.08V63.0937C168.018 68.125 171.127 70.6719 177.08 70.3438C179.033 70.2344 180.486 69.8281 181.268 69.5937L180.018 63.5312C179.689 63.6094 178.846 63.7812 178.33 63.7812C177.205 63.7812 176.705 63.2812 176.705 62.2812V52.25H180.83V46ZM191.037 70.375C194.162 70.375 196.521 69.3125 197.975 66.625H198.162V70H206.225V53.5625C206.225 49.125 202.021 45.6875 195.162 45.6875C187.99 45.6875 184.459 49.4375 184.162 53.8125H192.1C192.303 52.3281 193.396 51.625 195.037 51.625C196.537 51.625 197.6 52.3125 197.6 53.5625V53.625C197.6 55.0156 196.068 55.4531 192.037 55.75C187.084 56.1094 183.225 58.1094 183.225 63.375C183.225 68.1562 186.443 70.375 191.037 70.375ZM193.85 64.9375C192.381 64.9375 191.35 64.2187 191.35 62.875C191.35 61.6406 192.225 60.6875 194.225 60.375C195.6 60.1562 196.756 59.875 197.662 59.5V61.5C197.662 63.6875 195.803 64.9375 193.85 64.9375ZM52.5547 105.239C56.4325 105.239 58.8104 103.014 58.8615 99.5455H54.4979C54.3956 100.918 53.6541 101.659 52.6229 101.659C51.3871 101.659 50.5774 100.602 50.5774 98.4545C50.5774 96.3068 51.3871 95.25 52.6229 95.25C53.6626 95.25 54.37 95.9915 54.4979 97.3636H58.8615C58.8359 93.9545 56.407 91.7386 52.5547 91.7386C48.2933 91.7386 45.7706 94.4659 45.7706 98.4886C45.7706 102.511 48.2933 105.239 52.5547 105.239ZM69.2912 99.2727C69.2997 100.568 68.5497 101.352 67.3821 101.352C66.1974 101.352 65.5156 100.568 65.5071 99.2727V91.9091H60.8026V100.261C60.8111 103.125 62.6179 105.17 65.3707 105.17C67.3224 105.17 68.8224 104.182 69.3935 102.511H69.5298V105H73.9957V91.9091H69.2912V99.2727ZM65.8821 90.2727H68.9844L67.348 86.4545H63.3253L65.8821 90.2727ZM81.093 97.6364C81.1016 96.3409 81.8345 95.5568 83.0021 95.5568C84.1868 95.5568 84.8857 96.3409 84.8771 97.6364V105H89.5817V96.6477C89.5902 93.8011 87.7919 91.7386 85.0135 91.7386C83.0874 91.7386 81.5618 92.7443 80.9908 94.3977H80.8544V91.9091H76.3885V105H81.093V97.6364ZM98.2109 110.182C102.353 110.182 105.097 108.29 105.097 104.966V91.9091H100.393V94.1932H100.29C99.7791 92.8636 98.5518 91.7386 96.6087 91.7386C94.0178 91.7386 91.495 93.7159 91.495 98.4545C91.495 102.989 93.8473 104.83 96.6428 104.83C98.4155 104.83 99.8132 104.08 100.325 102.75H100.461V104.966C100.461 106.509 99.5661 107.011 98.3473 107.011C97.2649 107.011 96.4723 106.688 96.3359 105.852H91.8018C91.9808 108.375 94.2734 110.182 98.2109 110.182ZM98.3814 101.489C97.0859 101.489 96.3359 100.398 96.3359 98.4545C96.3359 96.5114 97.0859 95.3523 98.3814 95.3523C99.6768 95.3523 100.461 96.5114 100.461 98.4545C100.461 100.364 99.6768 101.489 98.3814 101.489ZM120.078 91.9091H117.828V88.7727H113.124V91.9091H111.453V95.3182H113.124V101.233C113.089 103.977 114.786 105.366 118.033 105.188C119.098 105.128 119.891 104.906 120.317 104.778L119.635 101.472C119.456 101.514 118.996 101.608 118.714 101.608C118.101 101.608 117.828 101.335 117.828 100.79V95.3182H120.078V91.9091ZM121.998 105H126.702V98.1818C126.702 96.6818 127.734 95.6932 129.123 95.6932C129.609 95.6932 130.393 95.7699 130.862 95.9318V91.9176C130.487 91.8068 130.077 91.7386 129.668 91.7386C128.271 91.7386 127.18 92.5568 126.702 94.3977H126.566V91.9091H121.998V105ZM135.442 105.205C137.147 105.205 138.434 104.625 139.227 103.159H139.329V105H143.727V96.0341C143.727 93.6136 141.434 91.7386 137.692 91.7386C133.781 91.7386 131.854 93.7841 131.692 96.1705H136.022C136.133 95.3608 136.729 94.9773 137.624 94.9773C138.442 94.9773 139.022 95.3523 139.022 96.0341V96.0682C139.022 96.8267 138.187 97.0653 135.988 97.2273C133.286 97.4233 131.181 98.5142 131.181 101.386C131.181 103.994 132.937 105.205 135.442 105.205ZM139.465 89.9659V89.2841C140.403 89.1477 141.323 88.6364 141.306 87.6818C141.323 86.1818 139.448 85.3295 135.954 85.3295L135.852 87.2045C136.789 87.2045 137.471 87.3068 137.454 87.9205C137.471 88.2955 136.994 88.6023 135.783 88.6364L136.09 89.9659H139.465ZM136.977 102.239C136.175 102.239 135.613 101.847 135.613 101.114C135.613 100.44 136.09 99.9205 137.181 99.75C137.931 99.6307 138.562 99.4773 139.056 99.2727V100.364C139.056 101.557 138.042 102.239 136.977 102.239ZM155.46 87.5455H150.756V105H155.46V87.5455ZM161.505 105.205C163.21 105.205 164.496 104.625 165.289 103.159H165.391V105H169.789V96.0341C169.789 93.6136 167.496 91.7386 163.755 91.7386C159.843 91.7386 157.917 93.7841 157.755 96.1705H162.085C162.195 95.3608 162.792 94.9773 163.687 94.9773C164.505 94.9773 165.085 95.3523 165.085 96.0341V96.0682C165.085 96.8267 164.249 97.0653 162.05 97.2273C159.349 97.4233 157.244 98.5142 157.244 101.386C157.244 103.994 158.999 105.205 161.505 105.205ZM161.573 90.2727C161.573 89.4205 161.914 88.9773 162.46 88.9773C162.817 88.9773 163.116 89.2159 163.465 89.4972C163.968 89.8977 164.582 90.3835 165.63 90.375C167.224 90.358 168.494 89.1051 168.528 86.6932H166.244C166.227 87.5199 165.979 88.0142 165.323 88.0227C164.999 88.0227 164.701 87.7926 164.352 87.5199C163.84 87.1193 163.201 86.6165 162.153 86.625C160.542 86.6335 159.255 87.8182 159.255 90.2727H161.573ZM163.039 102.239C162.238 102.239 161.675 101.847 161.675 101.114C161.675 100.44 162.153 99.9205 163.244 99.75C163.994 99.6307 164.624 99.4773 165.119 99.2727V100.364C165.119 101.557 164.104 102.239 163.039 102.239ZM172.037 105H176.741V91.9091H172.037V105ZM174.389 90.5455C175.668 90.5455 176.707 89.5824 176.707 88.3977C176.707 87.2131 175.668 86.25 174.389 86.25C173.111 86.25 172.071 87.2131 172.071 88.3977C172.071 89.5824 173.111 90.5455 174.389 90.5455Z" fill="url(#paint0_linear)"/>
</g>
<defs>
<filter id="filter0_d" x="0.154297" y="0.454529" width="222.07" height="133.727" filterUnits="userSpaceOnUse" color-interpolation-filters="sRGB">
<feFlood flood-opacity="0" result="BackgroundImageFix"/>
<feColorMatrix in="SourceAlpha" type="matrix" values="0 0 0 0 0 0 0 0 0 0 0 0 0 0 0 0 0 0 127 0" result="hardAlpha"/>
<feOffset dy="8"/>
<feGaussianBlur stdDeviation="8"/>
<feComposite in2="hardAlpha" operator="out"/>
<feColorMatrix type="matrix" values="0 0 0 0 0 0 0 0 0 0 0 0 0 0 0 0 0 0 0.08 0"/>
<feBlend mode="normal" in2="BackgroundImageFix" result="effect1_dropShadow"/>
<feBlend mode="normal" in="SourceGraphic" in2="effect1_dropShadow" result="shape"/>
</filter>
<linearGradient id="paint0_linear" x1="-26.823" y1="-3.99999" x2="136.513" y2="69.6411" gradientUnits="userSpaceOnUse">
<stop stop-color="#D6E0E2"/>
<stop offset="1" stop-color="#E8EAEC"/>
</linearGradient>
</defs>
</svg>
