<svg width="259" height="127" viewBox="0 0 259 127" fill="none" xmlns="http://www.w3.org/2000/svg">
<g filter="url(#filter0_d)">
<path d="M50.3223 10H45.416L50.6973 26H56.6348L61.916 10H57.0098L53.7285 21.2813H53.6035L50.3223 10Z" fill="url(#paint0_linear)"/>
<path d="M65.4023 26.1875C66.9648 26.1875 68.1445 25.6562 68.8711 24.3125H68.9648V26H72.9961V17.7813C72.9961 15.5625 70.8945 13.8438 67.4648 13.8438C63.8789 13.8438 62.1133 15.7188 61.9648 17.9063H65.9336C66.0352 17.1641 66.582 16.8125 67.4023 16.8125C68.1523 16.8125 68.6836 17.1563 68.6836 17.7813V17.8125C68.6836 18.5078 67.918 18.7266 65.9023 18.875C63.4258 19.0547 61.4961 20.0547 61.4961 22.6875C61.4961 25.0781 63.1055 26.1875 65.4023 26.1875ZM66.8086 23.4688C66.0742 23.4688 65.5586 23.1094 65.5586 22.4375C65.5586 21.8203 65.9961 21.3438 66.9961 21.1875C67.6836 21.0781 68.2617 20.9375 68.7148 20.75V21.75C68.7148 22.8438 67.7852 23.4688 66.8086 23.4688Z" fill="url(#paint1_linear)"/>
<path d="M77.252 30.5C80.2676 30.5 81.6816 28.9844 82.3457 27L86.7207 14H82.1895L80.2207 22.3125H80.0957L78.1582 14H73.6582L77.877 26.5312L77.7832 26.75C77.4941 27.4141 76.6582 27.3906 75.5957 27.0156L74.6582 30.0781C75.3301 30.3438 76.2598 30.5 77.252 30.5Z" fill="url(#paint2_linear)"/>
<path d="M96.6426 19.25C96.6504 18.0625 97.3223 17.3438 98.3926 17.3438C99.4785 17.3438 100.119 18.0625 100.111 19.25V26H104.424V18.3438C104.432 15.7344 102.783 13.8438 100.236 13.8438C98.4707 13.8438 97.0723 14.7656 96.5488 16.2813H96.4238V14H92.3301V26H96.6426V19.25Z" fill="url(#paint3_linear)"/>
<path d="M112.334 30.75C116.131 30.75 118.646 29.0156 118.646 25.9688V14H114.334V16.0938H114.24C113.771 14.875 112.646 13.8438 110.865 13.8438C108.49 13.8438 106.178 15.6563 106.178 20C106.178 24.1563 108.334 25.8438 110.896 25.8438C112.521 25.8438 113.803 25.1562 114.271 23.9375H114.396V25.9688C114.396 27.3828 113.576 27.8438 112.459 27.8438C111.467 27.8438 110.74 27.5469 110.615 26.7812H106.459C106.623 29.0938 108.725 30.75 112.334 30.75ZM112.49 22.7813C111.303 22.7813 110.615 21.7813 110.615 20C110.615 18.2188 111.303 17.1563 112.49 17.1563C113.678 17.1563 114.396 18.2188 114.396 20C114.396 21.75 113.678 22.7813 112.49 22.7813Z" fill="url(#paint4_linear)"/>
<path d="M124.184 26.1875C125.746 26.1875 126.926 25.6562 127.652 24.3125H127.746V26H131.777V17.7813C131.777 15.5625 129.676 13.8438 126.246 13.8438C122.66 13.8438 120.895 15.7188 120.746 17.9063H124.715C124.816 17.1641 125.363 16.8125 126.184 16.8125C126.934 16.8125 127.465 17.1563 127.465 17.7813V17.8125C127.465 18.5078 126.699 18.7266 124.684 18.875C122.207 19.0547 120.277 20.0547 120.277 22.6875C120.277 25.0781 121.887 26.1875 124.184 26.1875ZM124.84 12.5781L126.371 10.8594L127.902 12.5781H131.465V12.4844L127.871 8.92188H124.871L121.277 12.4844V12.5781H124.84ZM125.59 23.4688C124.855 23.4688 124.34 23.1094 124.34 22.4375C124.34 21.8203 124.777 21.3438 125.777 21.1875C126.465 21.0781 127.043 20.9375 127.496 20.75V21.75C127.496 22.8438 126.566 23.4688 125.59 23.4688Z" fill="url(#paint5_linear)"/>
<path d="M138.15 19.25C138.158 18.0625 138.83 17.3438 139.9 17.3438C140.986 17.3438 141.627 18.0625 141.619 19.25V26H145.932V18.3438C145.939 15.7344 144.291 13.8438 141.744 13.8438C139.979 13.8438 138.58 14.7656 138.057 16.2813H137.932V14H133.838V26H138.15V19.25Z" fill="url(#paint6_linear)"/>
<path d="M156.756 19.25C156.764 18.0625 157.451 17.3438 158.506 17.3438C159.607 17.3438 160.232 18.0625 160.225 19.25V26H164.537V18.3438C164.545 15.7188 162.889 13.8438 160.35 13.8438C158.576 13.8438 157.264 14.75 156.725 16.2813H156.6V10H152.443V26H156.756V19.25Z" fill="url(#paint7_linear)"/>
<path d="M170.01 26.1875C171.572 26.1875 172.752 25.6562 173.479 24.3125H173.572V26H177.604V17.7813C177.604 15.5625 175.502 13.8438 172.072 13.8438C168.486 13.8438 166.721 15.7188 166.572 17.9063H170.541C170.643 17.1641 171.189 16.8125 172.01 16.8125C172.76 16.8125 173.291 17.1563 173.291 17.7813V17.8125C173.291 18.5078 172.525 18.7266 170.51 18.875C168.033 19.0547 166.104 20.0547 166.104 22.6875C166.104 25.0781 167.713 26.1875 170.01 26.1875ZM170.791 12.5H173.635L172.135 9H168.447L170.791 12.5ZM171.416 23.4688C170.682 23.4688 170.166 23.1094 170.166 22.4375C170.166 21.8203 170.604 21.3438 171.604 21.1875C172.291 21.0781 172.869 20.9375 173.322 20.75V21.75C173.322 22.8438 172.393 23.4688 171.416 23.4688Z" fill="url(#paint8_linear)"/>
<path d="M183.977 19.25C183.984 18.0625 184.656 17.3438 185.727 17.3438C186.812 17.3438 187.453 18.0625 187.445 19.25V26H191.758V18.3438C191.766 15.7344 190.117 13.8438 187.57 13.8438C185.805 13.8438 184.406 14.7656 183.883 16.2813H183.758V14H179.664V26H183.977V19.25Z" fill="url(#paint9_linear)"/>
<path d="M199.668 30.75C203.465 30.75 205.98 29.0156 205.98 25.9688V14H201.668V16.0938H201.574C201.105 14.875 199.98 13.8438 198.199 13.8438C195.824 13.8438 193.512 15.6563 193.512 20C193.512 24.1563 195.668 25.8438 198.23 25.8438C199.855 25.8438 201.137 25.1562 201.605 23.9375H201.73V25.9688C201.73 27.3828 200.91 27.8438 199.793 27.8438C198.801 27.8438 198.074 27.5469 197.949 26.7812H193.793C193.957 29.0938 196.059 30.75 199.668 30.75ZM199.824 22.7813C198.637 22.7813 197.949 21.7813 197.949 20C197.949 18.2188 198.637 17.1563 199.824 17.1563C201.012 17.1563 201.73 18.2188 201.73 20C201.73 21.75 201.012 22.7813 199.824 22.7813Z" fill="url(#paint10_linear)"/>
<path d="M212.361 23.8125H209.111V24.6875C209.111 26.8125 208.393 29.0391 208.143 29.9062H210.799C211.174 29.0391 212.135 26.9453 212.299 24.6875L212.361 23.8125Z" fill="url(#paint11_linear)"/>
</g>
<g filter="url(#filter1_d)">
<path d="M29.6152 86H25.084L23.1465 93.9375H23.0215L21.084 86H16.5527L20.584 98H25.584L29.6152 86Z" fill="url(#paint12_linear)"/>
<path d="M41.6328 85.4375C41.6328 86.5 41.5 87.3203 41.0938 87.8438C40.0312 86.5781 38.375 85.8438 36.2578 85.8438C32.3516 85.8438 30.0391 88.3438 30.0391 92.0313C30.0391 95.7188 32.3516 98.2188 36.2578 98.2188C40.1641 98.2188 42.4766 95.7188 42.4766 92.0313C42.4766 91.0156 42.3047 90.0938 41.9688 89.2891C43.2031 88.6016 43.7891 87.2813 43.7891 85.4375H41.6328ZM36.2891 95.0313C35.1328 95.0313 34.4453 93.8828 34.4453 92C34.4453 90.1172 35.1328 88.9688 36.2891 88.9688C37.3828 88.9688 38.0703 90.1172 38.0703 92C38.0703 93.8828 37.3828 95.0313 36.2891 95.0313ZM34.8203 84.5H37.6641L40.0078 81H36.3203L34.8203 84.5Z" fill="url(#paint13_linear)"/>
<path d="M44.8926 98H49.2051V86H44.8926V98ZM47.0488 84.75C48.2207 84.75 49.1738 83.8672 49.1738 82.7813C49.1738 81.6953 48.2207 80.8125 47.0488 80.8125C45.877 80.8125 44.9238 81.6953 44.9238 82.7813C44.9238 83.8672 45.877 84.75 47.0488 84.75Z" fill="url(#paint14_linear)"/>
<path d="M60.0977 91.25C60.1055 90.0625 60.793 89.3438 61.8477 89.3438C62.9492 89.3438 63.5742 90.0625 63.5664 91.25V98H67.8789V90.3438C67.8867 87.7188 66.2305 85.8438 63.6914 85.8438C61.918 85.8438 60.6055 86.75 60.0664 88.2813H59.9414V82H55.7852V98H60.0977V91.25Z" fill="url(#paint15_linear)"/>
<path d="M75.7891 98.2188C79.6953 98.2188 82.0078 95.7188 82.0078 92.0313C82.0078 88.3438 79.6953 85.8438 75.7891 85.8438C71.8828 85.8438 69.5703 88.3438 69.5703 92.0313C69.5703 95.7188 71.8828 98.2188 75.7891 98.2188ZM75.8203 95.0313C74.6641 95.0313 73.9766 93.8828 73.9766 92C73.9766 90.1172 74.6641 88.9688 75.8203 88.9688C76.9141 88.9688 77.6016 90.1172 77.6016 92C77.6016 93.8828 76.9141 95.0313 75.8203 95.0313ZM76.7891 82.4688H74.8203L71.7266 84.7188H74.3203L75.7891 83.625L77.3203 84.7188H79.8516L76.7891 82.4688ZM77.3516 79.875C77.3438 80.2813 77.2812 80.75 77.0391 80.75C76.3125 80.75 75.3125 80.125 74.5703 80.125C73.7188 80.125 73.2812 80.9688 73.2891 81.75L74.6016 82.125C74.5938 81.7188 74.6562 81.4063 74.9453 81.4063C75.6875 81.4063 76.4688 82.0625 77.4141 82.0625C78.25 82.0625 78.6875 81.2188 78.6953 80.375L77.3516 79.875Z" fill="url(#paint16_linear)"/>
<path d="M95.2969 86H93.2344V83.125H88.9219V86H87.3906V89.125H88.9219V94.5469C88.8906 97.0625 90.4453 98.3359 93.4219 98.1719C94.3984 98.1172 95.125 97.9141 95.5156 97.7969L94.8906 94.7656C94.7266 94.8047 94.3047 94.8906 94.0469 94.8906C93.4844 94.8906 93.2344 94.6406 93.2344 94.1406V89.125H95.2969V86Z" fill="url(#paint17_linear)"/>
<path d="M97.0566 98H101.369V91.75C101.369 90.375 102.314 89.4688 103.588 89.4688C104.033 89.4688 104.752 89.5391 105.182 89.6875V86.0078C104.838 85.9063 104.463 85.8438 104.088 85.8438C102.807 85.8438 101.807 86.5938 101.369 88.2813H101.244V86H97.0566V98Z" fill="url(#paint18_linear)"/>
<path d="M117.064 85.4375C117.064 86.5 116.932 87.3203 116.525 87.8438C115.463 86.5781 113.807 85.8438 111.689 85.8438C107.783 85.8438 105.471 88.3438 105.471 92.0313C105.471 95.7188 107.783 98.2188 111.689 98.2188C115.596 98.2188 117.908 95.7188 117.908 92.0313C117.908 91.0156 117.736 90.0938 117.4 89.2891C118.635 88.6016 119.221 87.2813 119.221 85.4375H117.064ZM111.721 95.0313C110.564 95.0313 109.877 93.8828 109.877 92C109.877 90.1172 110.564 88.9688 111.721 88.9688C112.814 88.9688 113.502 90.1172 113.502 92C113.502 93.8828 112.814 95.0313 111.721 95.0313ZM111.689 102.844C112.861 102.844 113.814 101.961 113.814 100.875C113.814 99.7891 112.861 98.9062 111.689 98.9062C110.518 98.9062 109.564 99.7891 109.564 100.875C109.564 101.961 110.518 102.844 111.689 102.844Z" fill="url(#paint19_linear)"/>
<path d="M124.52 95.5H132.301V98H136.457V95.5H138.301V92.125H136.457V82H130.957L124.52 92.125V95.5ZM132.395 92.125H128.801V92L132.27 86.5H132.395V92.125Z" fill="url(#paint20_linear)"/>
<path d="M149.279 95C149.295 97.0312 150.607 98.7812 153.061 98.7812C155.514 98.7812 156.889 97.0312 156.873 95V94.1563C156.889 92.0938 155.545 90.375 153.061 90.375C150.639 90.375 149.295 92.125 149.279 94.1563V95ZM140.904 85.8438C140.92 87.875 142.232 89.5938 144.686 89.5938C147.139 89.5938 148.514 87.9062 148.498 85.8438V85C148.514 82.9375 147.17 81.2188 144.686 81.2188C142.295 81.2188 140.92 82.9375 140.904 85V85.8438ZM141.779 98H143.998L154.998 82H152.779L141.779 98ZM151.998 94.1563C152.014 93.5313 152.232 92.8125 153.061 92.8125C153.951 92.8125 154.139 93.5313 154.123 94.1563V95C154.139 95.625 153.92 96.3125 153.061 96.3125C152.232 96.3125 152.014 95.5938 151.998 95V94.1563ZM143.654 85C143.67 84.4062 143.857 83.6562 144.686 83.6562C145.576 83.6562 145.764 84.375 145.748 85V85.8438C145.764 86.4688 145.545 87.1563 144.686 87.1563C143.889 87.1563 143.67 86.4688 143.654 85.8438V85Z" fill="url(#paint21_linear)"/>
<path d="M168.443 82H164.131V98H168.443V82Z" fill="url(#paint22_linear)"/>
<path d="M173.984 98.1875C175.547 98.1875 176.727 97.6562 177.453 96.3125H177.547V98H181.578V89.7813C181.578 87.5625 179.477 85.8438 176.047 85.8438C172.461 85.8438 170.695 87.7188 170.547 89.9063H174.516C174.617 89.1641 175.164 88.8125 175.984 88.8125C176.734 88.8125 177.266 89.1563 177.266 89.7813V89.8125C177.266 90.5078 176.5 90.7266 174.484 90.875C172.008 91.0547 170.078 92.0547 170.078 94.6875C170.078 97.0781 171.688 98.1875 173.984 98.1875ZM174.047 84.5C174.047 83.7188 174.359 83.3125 174.859 83.3125C175.188 83.3125 175.461 83.5312 175.781 83.7891C176.242 84.1563 176.805 84.6016 177.766 84.5938C179.227 84.5781 180.391 83.4297 180.422 81.2188H178.328C178.312 81.9766 178.086 82.4297 177.484 82.4375C177.188 82.4375 176.914 82.2266 176.594 81.9766C176.125 81.6094 175.539 81.1484 174.578 81.1563C173.102 81.1641 171.922 82.25 171.922 84.5H174.047ZM175.391 95.4688C174.656 95.4688 174.141 95.1094 174.141 94.4375C174.141 93.8203 174.578 93.3438 175.578 93.1875C176.266 93.0781 176.844 92.9375 177.297 92.75V93.75C177.297 94.8438 176.367 95.4688 175.391 95.4688Z" fill="url(#paint23_linear)"/>
<path d="M183.639 98H187.951V86H183.639V98ZM185.795 84.75C186.967 84.75 187.92 83.8672 187.92 82.7813C187.92 81.6953 186.967 80.8125 185.795 80.8125C184.623 80.8125 183.67 81.6953 183.67 82.7813C183.67 83.8672 184.623 84.75 185.795 84.75Z" fill="url(#paint24_linear)"/>
<path d="M205.5 89.9063C205.391 87.3672 203.281 85.8438 199.812 85.8438C196.383 85.8438 194.266 87.25 194.281 89.75C194.266 91.6406 195.492 92.8516 197.938 93.2813L200.062 93.6563C201 93.8281 201.422 94.0781 201.438 94.5313C201.422 95.0313 200.852 95.3125 200.062 95.3125C199.086 95.3125 198.398 94.8906 198.281 94.125H194C194.234 96.5859 196.359 98.2188 200.031 98.2188C203.352 98.2188 205.797 96.6016 205.812 94.0313C205.797 92.2578 204.609 91.2266 202.156 90.7813L199.719 90.3438C198.805 90.1797 198.547 89.8516 198.562 89.5C198.547 89 199.164 88.7188 199.906 88.7188C200.758 88.7188 201.469 89.1719 201.531 89.9063H205.5Z" fill="url(#paint25_linear)"/>
<path d="M215.246 92.75C215.254 93.9375 214.566 94.6563 213.496 94.6563C212.41 94.6563 211.785 93.9375 211.777 92.75V86H207.465V93.6563C207.473 96.2812 209.129 98.1562 211.652 98.1562C213.441 98.1562 214.816 97.25 215.34 95.7188H215.465V98H219.559V86H215.246V92.75Z" fill="url(#paint26_linear)"/>
<path d="M225.096 98.1875C226.658 98.1875 227.838 97.6562 228.564 96.3125H228.658V98H232.689V89.7813C232.689 87.5625 230.588 85.8438 227.158 85.8438C223.572 85.8438 221.807 87.7188 221.658 89.9063H225.627C225.729 89.1641 226.275 88.8125 227.096 88.8125C227.846 88.8125 228.377 89.1563 228.377 89.7813V89.8125C228.377 90.5078 227.611 90.7266 225.596 90.875C223.119 91.0547 221.189 92.0547 221.189 94.6875C221.189 97.0781 222.799 98.1875 225.096 98.1875ZM223.189 84.8125H225.658L227.252 83.7188L228.814 84.8125H231.314L228.158 82.6563H226.314L223.189 84.8125ZM230.502 83.7813H232.564L235.314 80.7812H232.533L230.502 83.7813ZM226.502 95.4688C225.768 95.4688 225.252 95.1094 225.252 94.4375C225.252 93.8203 225.689 93.3438 226.689 93.1875C227.377 93.0781 227.955 92.9375 228.408 92.75V93.75C228.408 94.8438 227.479 95.4688 226.502 95.4688Z" fill="url(#paint27_linear)"/>
<path d="M241.906 86H239.844V83.125H235.531V86H234V89.125H235.531V94.5469C235.5 97.0625 237.055 98.3359 240.031 98.1719C241.008 98.1172 241.734 97.9141 242.125 97.7969L241.5 94.7656C241.336 94.8047 240.914 94.8906 240.656 94.8906C240.094 94.8906 239.844 94.6406 239.844 94.1406V89.125H241.906V86Z" fill="url(#paint28_linear)"/>
</g>
<g filter="url(#filter2_d)">
<path d="M71.4545 67.0002C78.5455 67.0002 83.0455 62.6365 83.0455 55.3638C83.0455 48.0911 78.5455 43.7275 71.3636 43.7275H62.5V67.0002H71.4545ZM68.8182 61.6365V49.0911H71.0455C74.6818 49.0911 76.6818 50.5002 76.6818 55.3638C76.6818 60.2275 74.6818 61.6365 71.2273 61.6365H68.8182Z" fill="url(#paint29_linear)"/>
<path d="M85.9688 67.0002H102.696V61.9093H92.2869V57.9093H101.878V52.8184H92.2869V48.8184H102.741V43.7275H85.9688V67.0002ZM95.8778 38.5911H93.0142L88.5142 41.8638H92.2869L94.4233 40.2729L96.6506 41.8638H100.332L95.8778 38.5911ZM96.696 34.8184C96.6847 35.4093 96.5938 36.0911 96.2415 36.0911C95.1847 36.0911 93.7301 35.182 92.6506 35.182C91.4119 35.182 90.7756 36.4093 90.7869 37.5456L92.696 38.0911C92.6847 37.5002 92.7756 37.0456 93.196 37.0456C94.2756 37.0456 95.4119 38.0002 96.7869 38.0002C98.0028 38.0002 98.6392 36.7729 98.6506 35.5456L96.696 34.8184Z" fill="url(#paint30_linear)"/>
<path d="M121.205 67.0002C128.295 67.0002 132.795 62.6365 132.795 55.3638C132.795 48.0911 128.295 43.7275 121.114 43.7275H112.25V67.0002H121.205ZM118.568 61.6365V49.0911H120.795C124.432 49.0911 126.432 50.5002 126.432 55.3638C126.432 60.2275 124.432 61.6365 120.977 61.6365H118.568Z" fill="url(#paint31_linear)"/>
<path d="M140.295 67.0002L141.636 62.5456H149.318L150.659 67.0002H157.477L149.795 43.7275H141.159L133.477 67.0002H140.295ZM143.432 41.5456H147.568L145.386 36.4547H140.023L143.432 41.5456ZM143.068 57.8184L145.386 50.1365H145.568L147.886 57.8184H143.068Z" fill="url(#paint32_linear)"/>
<path d="M179.855 43.7275H173.537V55.9093H173.355L165.082 43.7275H159.719V67.0002H166.037V54.7729H166.173L174.582 67.0002H179.855V43.7275Z" fill="url(#paint33_linear)"/>
<path d="M197.957 51.4093H204.344C203.855 46.7388 199.616 43.4093 194.116 43.4093C187.844 43.4093 182.753 47.7275 182.753 55.4093C182.753 62.7729 187.366 67.3184 194.162 67.3184C200.253 67.3184 204.616 63.5911 204.616 57.2275V54.0002H194.298V58.5002H198.526C198.469 60.5229 197.037 61.8184 194.207 61.8184C190.935 61.8184 189.253 59.4093 189.253 55.3184C189.253 51.2843 191.071 48.9093 194.253 48.9093C196.23 48.9093 197.571 49.8184 197.957 51.4093Z" fill="url(#paint34_linear)"/>
</g>
<defs>
<filter id="filter0_d" x="29.416" y="0.921875" width="198.945" height="53.8281" filterUnits="userSpaceOnUse" color-interpolation-filters="sRGB">
<feFlood flood-opacity="0" result="BackgroundImageFix"/>
<feColorMatrix in="SourceAlpha" type="matrix" values="0 0 0 0 0 0 0 0 0 0 0 0 0 0 0 0 0 0 127 0" result="hardAlpha"/>
<feOffset dy="8"/>
<feGaussianBlur stdDeviation="8"/>
<feComposite in2="hardAlpha" operator="out"/>
<feColorMatrix type="matrix" values="0 0 0 0 0 0 0 0 0 0 0 0 0 0 0 0 0 0 0.08 0"/>
<feBlend mode="normal" in2="BackgroundImageFix" result="effect1_dropShadow"/>
<feBlend mode="normal" in="SourceGraphic" in2="effect1_dropShadow" result="shape"/>
</filter>
<filter id="filter1_d" x="0.552734" y="71.875" width="257.572" height="54.9688" filterUnits="userSpaceOnUse" color-interpolation-filters="sRGB">
<feFlood flood-opacity="0" result="BackgroundImageFix"/>
<feColorMatrix in="SourceAlpha" type="matrix" values="0 0 0 0 0 0 0 0 0 0 0 0 0 0 0 0 0 0 127 0" result="hardAlpha"/>
<feOffset dy="8"/>
<feGaussianBlur stdDeviation="8"/>
<feComposite in2="hardAlpha" operator="out"/>
<feColorMatrix type="matrix" values="0 0 0 0 0 0 0 0 0 0 0 0 0 0 0 0 0 0 0.08 0"/>
<feBlend mode="normal" in2="BackgroundImageFix" result="effect1_dropShadow"/>
<feBlend mode="normal" in="SourceGraphic" in2="effect1_dropShadow" result="shape"/>
</filter>
<filter id="filter2_d" x="46.5" y="26.8184" width="174.116" height="64.5" filterUnits="userSpaceOnUse" color-interpolation-filters="sRGB">
<feFlood flood-opacity="0" result="BackgroundImageFix"/>
<feColorMatrix in="SourceAlpha" type="matrix" values="0 0 0 0 0 0 0 0 0 0 0 0 0 0 0 0 0 0 127 0" result="hardAlpha"/>
<feOffset dy="8"/>
<feGaussianBlur stdDeviation="8"/>
<feComposite in2="hardAlpha" operator="out"/>
<feColorMatrix type="matrix" values="0 0 0 0 0 0 0 0 0 0 0 0 0 0 0 0 0 0 0.08 0"/>
<feBlend mode="normal" in2="BackgroundImageFix" result="effect1_dropShadow"/>
<feBlend mode="normal" in="SourceGraphic" in2="effect1_dropShadow" result="shape"/>
</filter>
<linearGradient id="paint0_linear" x1="-8.82295" y1="-2" x2="62.1554" y2="92.4032" gradientUnits="userSpaceOnUse">
<stop stop-color="#D6E0E2"/>
<stop offset="1" stop-color="#E8EAEC"/>
</linearGradient>
<linearGradient id="paint1_linear" x1="-8.82295" y1="-2" x2="62.1554" y2="92.4032" gradientUnits="userSpaceOnUse">
<stop stop-color="#D6E0E2"/>
<stop offset="1" stop-color="#E8EAEC"/>
</linearGradient>
<linearGradient id="paint2_linear" x1="-8.82295" y1="-2" x2="62.1554" y2="92.4032" gradientUnits="userSpaceOnUse">
<stop stop-color="#D6E0E2"/>
<stop offset="1" stop-color="#E8EAEC"/>
</linearGradient>
<linearGradient id="paint3_linear" x1="-8.82295" y1="-2" x2="62.1554" y2="92.4032" gradientUnits="userSpaceOnUse">
<stop stop-color="#D6E0E2"/>
<stop offset="1" stop-color="#E8EAEC"/>
</linearGradient>
<linearGradient id="paint4_linear" x1="-8.82295" y1="-2" x2="62.1554" y2="92.4032" gradientUnits="userSpaceOnUse">
<stop stop-color="#D6E0E2"/>
<stop offset="1" stop-color="#E8EAEC"/>
</linearGradient>
<linearGradient id="paint5_linear" x1="-8.82295" y1="-2" x2="62.1554" y2="92.4032" gradientUnits="userSpaceOnUse">
<stop stop-color="#D6E0E2"/>
<stop offset="1" stop-color="#E8EAEC"/>
</linearGradient>
<linearGradient id="paint6_linear" x1="-8.82295" y1="-2" x2="62.1554" y2="92.4032" gradientUnits="userSpaceOnUse">
<stop stop-color="#D6E0E2"/>
<stop offset="1" stop-color="#E8EAEC"/>
</linearGradient>
<linearGradient id="paint7_linear" x1="-8.82295" y1="-2" x2="62.1554" y2="92.4032" gradientUnits="userSpaceOnUse">
<stop stop-color="#D6E0E2"/>
<stop offset="1" stop-color="#E8EAEC"/>
</linearGradient>
<linearGradient id="paint8_linear" x1="-8.82295" y1="-2" x2="62.1554" y2="92.4032" gradientUnits="userSpaceOnUse">
<stop stop-color="#D6E0E2"/>
<stop offset="1" stop-color="#E8EAEC"/>
</linearGradient>
<linearGradient id="paint9_linear" x1="-8.82295" y1="-2" x2="62.1554" y2="92.4032" gradientUnits="userSpaceOnUse">
<stop stop-color="#D6E0E2"/>
<stop offset="1" stop-color="#E8EAEC"/>
</linearGradient>
<linearGradient id="paint10_linear" x1="-8.82295" y1="-2" x2="62.1554" y2="92.4032" gradientUnits="userSpaceOnUse">
<stop stop-color="#D6E0E2"/>
<stop offset="1" stop-color="#E8EAEC"/>
</linearGradient>
<linearGradient id="paint11_linear" x1="-8.82295" y1="-2" x2="62.1554" y2="92.4032" gradientUnits="userSpaceOnUse">
<stop stop-color="#D6E0E2"/>
<stop offset="1" stop-color="#E8EAEC"/>
</linearGradient>
<linearGradient id="paint12_linear" x1="-8.82295" y1="70" x2="62.1554" y2="164.403" gradientUnits="userSpaceOnUse">
<stop stop-color="#D6E0E2"/>
<stop offset="1" stop-color="#E8EAEC"/>
</linearGradient>
<linearGradient id="paint13_linear" x1="-8.82295" y1="70" x2="62.1554" y2="164.403" gradientUnits="userSpaceOnUse">
<stop stop-color="#D6E0E2"/>
<stop offset="1" stop-color="#E8EAEC"/>
</linearGradient>
<linearGradient id="paint14_linear" x1="-8.82295" y1="70" x2="62.1554" y2="164.403" gradientUnits="userSpaceOnUse">
<stop stop-color="#D6E0E2"/>
<stop offset="1" stop-color="#E8EAEC"/>
</linearGradient>
<linearGradient id="paint15_linear" x1="-8.82295" y1="70" x2="62.1554" y2="164.403" gradientUnits="userSpaceOnUse">
<stop stop-color="#D6E0E2"/>
<stop offset="1" stop-color="#E8EAEC"/>
</linearGradient>
<linearGradient id="paint16_linear" x1="-8.82295" y1="70" x2="62.1554" y2="164.403" gradientUnits="userSpaceOnUse">
<stop stop-color="#D6E0E2"/>
<stop offset="1" stop-color="#E8EAEC"/>
</linearGradient>
<linearGradient id="paint17_linear" x1="-8.82295" y1="70" x2="62.1554" y2="164.403" gradientUnits="userSpaceOnUse">
<stop stop-color="#D6E0E2"/>
<stop offset="1" stop-color="#E8EAEC"/>
</linearGradient>
<linearGradient id="paint18_linear" x1="-8.82295" y1="70" x2="62.1554" y2="164.403" gradientUnits="userSpaceOnUse">
<stop stop-color="#D6E0E2"/>
<stop offset="1" stop-color="#E8EAEC"/>
</linearGradient>
<linearGradient id="paint19_linear" x1="-8.82295" y1="70" x2="62.1554" y2="164.403" gradientUnits="userSpaceOnUse">
<stop stop-color="#D6E0E2"/>
<stop offset="1" stop-color="#E8EAEC"/>
</linearGradient>
<linearGradient id="paint20_linear" x1="-8.82295" y1="70" x2="62.1554" y2="164.403" gradientUnits="userSpaceOnUse">
<stop stop-color="#D6E0E2"/>
<stop offset="1" stop-color="#E8EAEC"/>
</linearGradient>
<linearGradient id="paint21_linear" x1="-8.82295" y1="70" x2="62.1554" y2="164.403" gradientUnits="userSpaceOnUse">
<stop stop-color="#D6E0E2"/>
<stop offset="1" stop-color="#E8EAEC"/>
</linearGradient>
<linearGradient id="paint22_linear" x1="-8.82295" y1="70" x2="62.1554" y2="164.403" gradientUnits="userSpaceOnUse">
<stop stop-color="#D6E0E2"/>
<stop offset="1" stop-color="#E8EAEC"/>
</linearGradient>
<linearGradient id="paint23_linear" x1="-8.82295" y1="70" x2="62.1554" y2="164.403" gradientUnits="userSpaceOnUse">
<stop stop-color="#D6E0E2"/>
<stop offset="1" stop-color="#E8EAEC"/>
</linearGradient>
<linearGradient id="paint24_linear" x1="-8.82295" y1="70" x2="62.1554" y2="164.403" gradientUnits="userSpaceOnUse">
<stop stop-color="#D6E0E2"/>
<stop offset="1" stop-color="#E8EAEC"/>
</linearGradient>
<linearGradient id="paint25_linear" x1="-8.82295" y1="70" x2="62.1554" y2="164.403" gradientUnits="userSpaceOnUse">
<stop stop-color="#D6E0E2"/>
<stop offset="1" stop-color="#E8EAEC"/>
</linearGradient>
<linearGradient id="paint26_linear" x1="-8.82295" y1="70" x2="62.1554" y2="164.403" gradientUnits="userSpaceOnUse">
<stop stop-color="#D6E0E2"/>
<stop offset="1" stop-color="#E8EAEC"/>
</linearGradient>
<linearGradient id="paint27_linear" x1="-8.82295" y1="70" x2="62.1554" y2="164.403" gradientUnits="userSpaceOnUse">
<stop stop-color="#D6E0E2"/>
<stop offset="1" stop-color="#E8EAEC"/>
</linearGradient>
<linearGradient id="paint28_linear" x1="-8.82295" y1="70" x2="62.1554" y2="164.403" gradientUnits="userSpaceOnUse">
<stop stop-color="#D6E0E2"/>
<stop offset="1" stop-color="#E8EAEC"/>
</linearGradient>
<linearGradient id="paint29_linear" x1="69.4787" y1="38" x2="130.485" y2="81.2552" gradientUnits="userSpaceOnUse">
<stop stop-color="#D6E0E2"/>
<stop offset="1" stop-color="#E8EAEC"/>
</linearGradient>
<linearGradient id="paint30_linear" x1="69.4787" y1="38" x2="130.485" y2="81.2552" gradientUnits="userSpaceOnUse">
<stop stop-color="#D6E0E2"/>
<stop offset="1" stop-color="#E8EAEC"/>
</linearGradient>
<linearGradient id="paint31_linear" x1="69.4787" y1="38" x2="130.485" y2="81.2552" gradientUnits="userSpaceOnUse">
<stop stop-color="#D6E0E2"/>
<stop offset="1" stop-color="#E8EAEC"/>
</linearGradient>
<linearGradient id="paint32_linear" x1="69.4787" y1="38" x2="130.485" y2="81.2552" gradientUnits="userSpaceOnUse">
<stop stop-color="#D6E0E2"/>
<stop offset="1" stop-color="#E8EAEC"/>
</linearGradient>
<linearGradient id="paint33_linear" x1="69.4787" y1="38" x2="130.485" y2="81.2552" gradientUnits="userSpaceOnUse">
<stop stop-color="#D6E0E2"/>
<stop offset="1" stop-color="#E8EAEC"/>
</linearGradient>
<linearGradient id="paint34_linear" x1="69.4787" y1="38" x2="130.485" y2="81.2552" gradientUnits="userSpaceOnUse">
<stop stop-color="#D6E0E2"/>
<stop offset="1" stop-color="#E8EAEC"/>
</linearGradient>
</defs>
</svg>
