<svg width="195" height="95" viewBox="0 0 195 95" fill="none" xmlns="http://www.w3.org/2000/svg">
<g filter="url(#filter0_d)">
<path d="M69.0488 30H74.5772V22.0455H81.8954V30H87.4238V9.63636H81.8954V17.5909H74.5772V9.63636H69.0488V30ZM94.3841 30.2386C96.3727 30.2386 97.8741 29.5625 98.7988 27.8523H98.9181V30H104.049V19.5398C104.049 16.7159 101.374 14.5284 97.0091 14.5284C92.4451 14.5284 90.198 16.9148 90.0091 19.6989H95.0602C95.1895 18.7543 95.8855 18.3068 96.9295 18.3068C97.8841 18.3068 98.5602 18.7443 98.5602 19.5398V19.5795C98.5602 20.4645 97.5858 20.7429 95.0204 20.9318C91.8684 21.1605 89.4125 22.4332 89.4125 25.7841C89.4125 28.8267 91.4608 30.2386 94.3841 30.2386ZM94.4636 12.8182C94.4636 11.8239 94.8613 11.3068 95.4977 11.3068C95.9153 11.3068 96.2633 11.5852 96.671 11.9134C97.2576 12.3807 97.9735 12.9474 99.1966 12.9375C101.056 12.9176 102.537 11.456 102.577 8.64204H99.9125C99.8926 9.60653 99.6042 10.1832 98.8386 10.1932C98.4608 10.1932 98.1127 9.92472 97.7051 9.60653C97.1085 9.1392 96.3627 8.55256 95.1397 8.5625C93.2605 8.57244 91.7591 9.95454 91.7591 12.8182H94.4636ZM96.1738 26.7784C95.2392 26.7784 94.5829 26.321 94.5829 25.4659C94.5829 24.6804 95.1397 24.0739 96.4125 23.875C97.2875 23.7358 98.0233 23.5568 98.6 23.3182V24.5909C98.6 25.983 97.4167 26.7784 96.1738 26.7784ZM109.465 35.7273C113.303 35.7273 115.103 33.7983 115.948 31.2727L121.517 14.7273H115.749L113.244 25.3068H113.085L110.619 14.7273H104.892L110.261 30.6761L110.142 30.9545C109.774 31.7997 108.71 31.7699 107.357 31.2926L106.164 35.1903C107.019 35.5284 108.203 35.7273 109.465 35.7273ZM22.199 43.6364H16.7104V64H22.199V43.6364ZM29.2512 64.2386C31.2399 64.2386 32.7413 63.5625 33.666 61.8523H33.7853V64H38.916V53.5398C38.916 50.7159 36.2413 48.5284 31.8762 48.5284C27.3123 48.5284 25.0652 50.9148 24.8762 53.6989H29.9274C30.0566 52.7543 30.7527 52.3068 31.7967 52.3068C32.7512 52.3068 33.4274 52.7443 33.4274 53.5398V53.5795C33.4274 54.4645 32.4529 54.7429 29.8876 54.9318C26.7356 55.1605 24.2797 56.4332 24.2797 59.7841C24.2797 62.8267 26.3279 64.2386 29.2512 64.2386ZM34.3819 43.7557C34.372 44.5114 33.7356 45.3068 31.9956 45.3068C30.2754 45.3068 29.5993 44.5114 29.6092 43.7557H26.5865C26.5765 45.8636 28.6845 47.2955 31.9956 47.2955C35.3265 47.2955 37.4743 45.8636 37.4842 43.7557H34.3819ZM31.041 60.7784C30.1064 60.7784 29.4501 60.321 29.4501 59.4659C29.4501 58.6804 30.0069 58.0739 31.2797 57.875C32.1547 57.7358 32.8904 57.5568 33.4672 57.3182V58.5909C33.4672 59.983 32.2839 60.7784 31.041 60.7784ZM30.6035 43.9943H33.3081L35.9331 41.5682H32.5524L30.6035 43.9943ZM47.0272 55.4091C47.0371 53.8977 47.8922 52.983 49.2544 52.983C50.6365 52.983 51.4519 53.8977 51.4419 55.4091V64H56.9306V54.2557C56.9405 50.9347 54.8425 48.5284 51.601 48.5284C49.3539 48.5284 47.574 49.7017 46.9078 51.6307H46.7488V48.7273H41.5385V64H47.0272V55.4091ZM66.998 70.0455C71.8304 70.0455 75.0321 67.8381 75.0321 63.9602V48.7273H69.5435V51.392H69.4242C68.8276 49.8409 67.3958 48.5284 65.1287 48.5284C62.106 48.5284 59.1628 50.8352 59.1628 56.3636C59.1628 61.6534 61.9071 63.8011 65.1685 63.8011C67.2367 63.8011 68.8674 62.9261 69.464 61.375H69.623V63.9602C69.623 65.7599 68.579 66.3466 67.1571 66.3466C65.8944 66.3466 64.9696 65.9688 64.8105 64.9943H59.5208C59.7296 67.9375 62.4043 70.0455 66.998 70.0455ZM67.1969 59.9034C65.6855 59.9034 64.8105 58.6307 64.8105 56.3636C64.8105 54.0966 65.6855 52.7443 67.1969 52.7443C68.7083 52.7443 69.623 54.0966 69.623 56.3636C69.623 58.5909 68.7083 59.9034 67.1969 59.9034ZM88.8904 55.4091C88.9004 53.8977 89.7555 52.983 91.1177 52.983C92.4998 52.983 93.3152 53.8977 93.3052 55.4091V64H98.7939V54.2557C98.8038 50.9347 96.7058 48.5284 93.4643 48.5284C91.2172 48.5284 89.4373 49.7017 88.7711 51.6307H88.612V48.7273H83.4018V64H88.8904V55.4091ZM108.861 70.0455C113.694 70.0455 116.895 67.8381 116.895 63.9602V48.7273H111.407V51.392H111.287C110.691 49.8409 109.259 48.5284 106.992 48.5284C103.969 48.5284 101.026 50.8352 101.026 56.3636C101.026 61.6534 103.77 63.8011 107.032 63.8011C109.1 63.8011 110.731 62.9261 111.327 61.375H111.486V63.9602C111.486 65.7599 110.442 66.3466 109.02 66.3466C107.758 66.3466 106.833 65.9688 106.674 64.9943H101.384C101.593 67.9375 104.268 70.0455 108.861 70.0455ZM109.06 59.9034C107.549 59.9034 106.674 58.6307 106.674 56.3636C106.674 54.0966 107.549 52.7443 109.06 52.7443C110.572 52.7443 111.486 54.0966 111.486 56.3636C111.486 58.5909 110.572 59.9034 109.06 59.9034ZM125.176 55.4091C125.186 53.8977 126.061 52.983 127.403 52.983C128.805 52.983 129.6 53.8977 129.59 55.4091V64H135.079V54.2557C135.089 50.9148 132.981 48.5284 129.749 48.5284C127.492 48.5284 125.822 49.6818 125.136 51.6307H124.977V43.6364H119.687V64H125.176V55.4091ZM145.107 64.2784C149.343 64.2784 152.067 62.25 152.584 59.0682H147.573C147.254 59.9332 146.35 60.4205 145.226 60.4205C143.595 60.4205 142.641 59.3466 142.641 57.875V57.6364H152.584V56.3636C152.584 51.5014 149.601 48.5284 144.987 48.5284C140.254 48.5284 137.232 51.6705 137.232 56.4034C137.232 61.3452 140.215 64.2784 145.107 64.2784ZM142.641 54.6136C142.671 53.2912 143.764 52.3864 145.107 52.3864C146.469 52.3864 147.503 53.3011 147.533 54.6136H142.641ZM157.807 64.3182C159.268 64.3182 160.571 63.0852 160.591 61.5341C160.571 60.0227 159.268 58.7898 157.807 58.7898C156.265 58.7898 155.003 60.0227 155.023 61.5341C155.003 63.0852 156.265 64.3182 157.807 64.3182ZM166.557 64.3182C168.018 64.3182 169.321 63.0852 169.341 61.5341C169.321 60.0227 168.018 58.7898 166.557 58.7898C165.015 58.7898 163.753 60.0227 163.773 61.5341C163.753 63.0852 165.015 64.3182 166.557 64.3182ZM175.307 64.3182C176.768 64.3182 178.071 63.0852 178.091 61.5341C178.071 60.0227 176.768 58.7898 175.307 58.7898C173.765 58.7898 172.503 60.0227 172.523 61.5341C172.503 63.0852 173.765 64.3182 175.307 64.3182Z" fill="url(#paint0_linear)"/>
</g>
<defs>
<filter id="filter0_d" x="0.710449" y="0.562378" width="193.38" height="93.4831" filterUnits="userSpaceOnUse" color-interpolation-filters="sRGB">
<feFlood flood-opacity="0" result="BackgroundImageFix"/>
<feColorMatrix in="SourceAlpha" type="matrix" values="0 0 0 0 0 0 0 0 0 0 0 0 0 0 0 0 0 0 127 0" result="hardAlpha"/>
<feOffset dy="8"/>
<feGaussianBlur stdDeviation="8"/>
<feComposite in2="hardAlpha" operator="out"/>
<feColorMatrix type="matrix" values="0 0 0 0 0 0 0 0 0 0 0 0 0 0 0 0 0 0 0.08 0"/>
<feBlend mode="normal" in2="BackgroundImageFix" result="effect1_dropShadow"/>
<feBlend mode="normal" in="SourceGraphic" in2="effect1_dropShadow" result="shape"/>
</filter>
<linearGradient id="paint0_linear" x1="-12.5397" y1="3" x2="53.0954" y2="80.163" gradientUnits="userSpaceOnUse">
<stop stop-color="#D6E0E2"/>
<stop offset="1" stop-color="#E8EAEC"/>
</linearGradient>
</defs>
</svg>
