<svg width="292" height="104" viewBox="0 0 292 104" fill="none" xmlns="http://www.w3.org/2000/svg">
<g filter="url(#filter0_d)">
<path d="M101.092 32L102.433 27.5455H110.115L111.456 32H118.274L110.592 8.72727H101.956L94.2741 32H101.092ZM103.865 22.8182L106.183 15.1364H106.365L108.683 22.8182H103.865ZM140.652 8.72727H134.334V20.9091H134.152L125.879 8.72727H120.516V32H126.834V19.7727H126.97L135.379 32H140.652V8.72727ZM171.743 17.4545C171.243 11.6818 167.016 8.40909 161.152 8.40909C154.879 8.40909 149.925 12.5909 149.925 20.3636C149.925 28.1023 154.743 32.3182 161.152 32.3182C167.97 32.3182 171.425 27.5909 171.743 23.6364L165.334 23.5909C165.016 25.5795 163.607 26.8182 161.288 26.8182C158.209 26.8182 156.425 24.6364 156.425 20.3636C156.425 16.3182 158.152 13.9091 161.334 13.9091C163.766 13.9091 165.152 15.3409 165.334 17.4545H171.743ZM196.746 8.27273C196.746 8.30682 196.746 8.34091 196.746 8.38636C196.746 10.8068 196.746 12.5341 194.7 13.0568V8.72727H188.382V23.0909C188.382 25.2614 186.825 26.8182 184.655 26.8182C182.484 26.8182 180.928 25.2614 180.928 23.0909V8.72727H174.609V23.6364C174.609 28.9545 178.632 32.2727 184.655 32.2727C190.632 32.2727 194.7 28.9545 194.7 23.6364V15.9091C199.064 15.3864 200.2 12.5682 200.2 8.27273H196.746ZM54.1562 72H69.8835V66.9091H60.4744V48.7273H54.1562V72ZM78.483 72L79.8239 67.5455H87.5057L88.8466 72H95.6648L87.983 48.7273H79.3466L71.6648 72H78.483ZM83.6648 79.0455C85.3693 79.0455 86.7557 77.7614 86.7557 76.1818C86.7557 74.6023 85.3693 73.3182 83.6648 73.3182C81.9602 73.3182 80.5739 74.6023 80.5739 76.1818C80.5739 77.7614 81.9602 79.0455 83.6648 79.0455ZM81.2557 62.8182L83.5739 55.1364H83.7557L86.0739 62.8182H81.2557ZM118.54 57.4545C118.04 51.6818 113.812 48.4091 107.949 48.4091C101.676 48.4091 96.7216 52.5909 96.7216 60.3636C96.7216 68.1023 101.54 72.3182 107.949 72.3182C114.767 72.3182 118.222 67.5909 118.54 63.6364L112.131 63.5909C111.812 65.5795 110.403 66.8182 108.085 66.8182C105.006 66.8182 103.222 64.6364 103.222 60.3636C103.222 56.3182 104.949 53.9091 108.131 53.9091C110.562 53.9091 111.949 55.3409 112.131 57.4545H118.54ZM147.918 48.7273H141.599V60.9091H141.418L133.145 48.7273H127.781V72H134.099V59.7727H134.236L142.645 72H147.918V48.7273ZM166.02 56.4091H172.406C171.918 51.7386 167.679 48.4091 162.179 48.4091C155.906 48.4091 150.815 52.7273 150.815 60.4091C150.815 67.7727 155.429 72.3182 162.224 72.3182C168.315 72.3182 172.679 68.5909 172.679 62.2273V59H162.361V63.5H166.588C166.531 65.5227 165.099 66.8182 162.27 66.8182C158.997 66.8182 157.315 64.4091 157.315 60.3182C157.315 56.2841 159.134 53.9091 162.315 53.9091C164.293 53.9091 165.634 54.8182 166.02 56.4091ZM175.625 72H181.943V62.9091H190.307V72H196.625V48.7273H190.307V57.8182H181.943V48.7273H175.625V72ZM205.943 48.7273H199.625V72H205.943V48.7273ZM208.938 72H225.665V66.9091H215.256V62.9091H224.847V57.8182H215.256V53.8182H225.71V48.7273H208.938V72ZM215.165 46.6591L217.392 44.1591L219.619 46.6591H224.801V46.5227L219.574 41.3409H215.21L209.983 46.5227V46.6591H215.165ZM217.392 79.0455C219.097 79.0455 220.483 77.7614 220.483 76.1818C220.483 74.6023 219.097 73.3182 217.392 73.3182C215.688 73.3182 214.301 74.6023 214.301 76.1818C214.301 77.7614 215.688 79.0455 217.392 79.0455ZM228.844 72H235.162V65.0909H238.662C243.969 65.0909 247.526 61.9659 247.526 56.9545C247.526 52 244.06 48.7273 238.889 48.7273H228.844V72ZM235.162 60.1818V53.7727H237.389C239.605 53.7727 240.935 54.9545 240.935 56.9545C240.935 58.9432 239.605 60.1818 237.389 60.1818H235.162Z" fill="url(#paint0_linear)"/>
</g>
<path d="M80.9455 97.1651C82.8791 97.1651 84.1308 96.0039 84.3066 94.4112H82.7565C82.5541 95.2955 81.867 95.8175 80.9561 95.8175C79.6085 95.8175 78.7402 94.6935 78.7402 92.9091C78.7402 91.1566 79.6244 90.054 80.9561 90.054C81.9682 90.054 82.5861 90.6932 82.7565 91.4602H84.3066C84.1362 89.8089 82.7885 88.7116 80.9295 88.7116C78.623 88.7116 77.1315 90.4482 77.1315 92.9464C77.1315 95.4126 78.5698 97.1651 80.9455 97.1651ZM91.3427 93.6069C91.348 94.9972 90.3147 95.6577 89.4198 95.6577C88.4343 95.6577 87.7525 94.9439 87.7525 93.8306V88.8182H86.1598V94.0224C86.1598 96.0518 87.2731 97.1065 88.8445 97.1065C90.075 97.1065 90.9113 96.4567 91.2894 95.5831H91.3747V97H92.9407V88.8182H91.3427V93.6069ZM88.9404 87.7262H90.2135L88.9723 85.2706H87.2944L88.9404 87.7262ZM96.8234 92.142C96.8234 90.837 97.6224 90.0913 98.7304 90.0913C99.8117 90.0913 100.467 90.7997 100.467 91.9876V97H102.06V91.7958C102.06 89.7717 100.946 88.7116 99.2737 88.7116C98.0432 88.7116 97.2389 89.2816 96.8607 90.1499H96.7595V88.8182H95.2307V97H96.8234V92.142ZM107.776 100.239C109.859 100.239 111.467 99.2852 111.467 97.1811V88.8182H109.907V90.1445H109.789C109.507 89.6385 108.943 88.7116 107.419 88.7116C105.443 88.7116 103.989 90.2724 103.989 92.8771C103.989 95.4872 105.475 96.8775 107.408 96.8775C108.911 96.8775 109.491 96.0305 109.779 95.5085H109.88V97.1172C109.88 98.4009 109.001 98.9549 107.792 98.9549C106.466 98.9549 105.949 98.2891 105.667 97.8203L104.298 98.3849C104.729 99.3864 105.821 100.239 107.776 100.239ZM107.76 95.5565C106.338 95.5565 105.597 94.4645 105.597 92.8558C105.597 91.2844 106.322 90.0646 107.76 90.0646C109.15 90.0646 109.896 91.1992 109.896 92.8558C109.896 94.5444 109.134 95.5565 107.76 95.5565ZM118.001 97H119.647V92.2433H124.281V90.8317H119.647V87.5078H124.766V86.0909H118.001V97ZM126.94 97H128.586V93.1648H130.823C133.353 93.1648 134.605 91.636 134.605 89.6225C134.605 87.6143 133.364 86.0909 130.829 86.0909H126.94V97ZM128.586 91.7692V87.5025H130.653C132.283 87.5025 132.949 88.3867 132.949 89.6225C132.949 90.8583 132.283 91.7692 130.674 91.7692H128.586ZM136.147 87.5078H139.545V97H141.186V87.5078H144.59V86.0909H136.147V87.5078ZM156.675 88.9567H158.262C158.214 87.2095 156.67 85.9418 154.454 85.9418C152.264 85.9418 150.586 87.1935 150.586 89.0739C150.586 90.592 151.673 91.4815 153.426 91.9556L154.715 92.3072C155.881 92.6161 156.781 92.9996 156.781 93.9691C156.781 95.0344 155.764 95.7376 154.363 95.7376C153.095 95.7376 152.041 95.1729 151.945 93.9851H150.294C150.4 95.9613 151.929 97.1811 154.374 97.1811C156.936 97.1811 158.411 95.8335 158.411 93.9851C158.411 92.0195 156.659 91.2578 155.274 90.9169L154.209 90.6399C153.356 90.4215 152.222 90.022 152.227 88.978C152.227 88.0511 153.074 87.364 154.416 87.364C155.668 87.364 156.558 87.9499 156.675 88.9567ZM163.847 97.1651C166.153 97.1651 167.661 95.4766 167.661 92.9464C167.661 90.4002 166.153 88.7116 163.847 88.7116C161.54 88.7116 160.033 90.4002 160.033 92.9464C160.033 95.4766 161.54 97.1651 163.847 97.1651ZM163.852 95.8281C162.345 95.8281 161.642 94.5124 161.642 92.9411C161.642 91.375 162.345 90.0433 163.852 90.0433C165.349 90.0433 166.052 91.375 166.052 92.9411C166.052 94.5124 165.349 95.8281 163.852 95.8281ZM173.482 88.8182H171.719V88.0831C171.719 87.3587 172.018 86.9645 172.795 86.9645C173.125 86.9645 173.36 87.0391 173.509 87.087L173.882 85.7979C173.658 85.7127 173.195 85.5795 172.55 85.5795C171.256 85.5795 170.121 86.3359 170.121 87.87V88.8182H168.859V90.0966H170.121V97H171.719V90.0966H173.482V88.8182ZM179.095 88.8182H177.417V86.858H175.824V88.8182H174.626V90.0966H175.824V94.9279C175.819 96.4141 176.954 97.1332 178.211 97.1065C178.717 97.1012 179.058 97.0053 179.244 96.9361L178.956 95.6204C178.85 95.6417 178.653 95.6896 178.397 95.6896C177.88 95.6896 177.417 95.5192 177.417 94.5977V90.0966H179.095V88.8182ZM182.78 97H184.4L186.062 91.0927H186.184L187.846 97H189.471L191.873 88.8182H190.227L188.635 94.8001H188.555L186.957 88.8182H185.311L183.702 94.8267H183.622L182.019 88.8182H180.373L182.78 97ZM195.916 97.1811C197.269 97.1811 198.03 96.494 198.334 95.8814H198.398V97H199.953V91.5668C199.953 89.1857 198.078 88.7116 196.779 88.7116C195.298 88.7116 193.934 89.3082 193.401 90.7997L194.898 91.1406C195.133 90.56 195.729 90.0007 196.8 90.0007C197.828 90.0007 198.355 90.5387 198.355 91.4656V91.5028C198.355 92.0835 197.759 92.0728 196.289 92.2433C194.738 92.4244 193.151 92.8292 193.151 94.6882C193.151 96.2969 194.36 97.1811 195.916 97.1811ZM196.262 95.9027C195.362 95.9027 194.712 95.4979 194.712 94.7095C194.712 93.8572 195.468 93.5536 196.39 93.4311C196.906 93.3619 198.132 93.2234 198.361 92.9943V94.049C198.361 95.0185 197.588 95.9027 196.262 95.9027ZM202.225 97H203.817V92.0036C203.817 90.9329 204.643 90.1605 205.772 90.1605C206.103 90.1605 206.475 90.2191 206.603 90.2564V88.733C206.443 88.7116 206.129 88.6957 205.927 88.6957C204.968 88.6957 204.148 89.239 203.849 90.1179H203.764V88.8182H202.225V97ZM211.365 97.1651C213.149 97.1651 214.412 96.2862 214.774 94.9545L213.266 94.6829C212.979 95.4553 212.286 95.8494 211.381 95.8494C210.017 95.8494 209.101 94.9652 209.058 93.3885H214.875V92.8239C214.875 89.8675 213.107 88.7116 211.253 88.7116C208.973 88.7116 207.471 90.4482 207.471 92.9624C207.471 95.5032 208.952 97.1651 211.365 97.1651ZM209.064 92.1953C209.128 91.0341 209.969 90.0273 211.264 90.0273C212.499 90.0273 213.309 90.9435 213.314 92.1953H209.064Z" fill="#292D32"/>
<defs>
<filter id="filter0_d" x="38.1562" y="0.272705" width="225.369" height="102.773" filterUnits="userSpaceOnUse" color-interpolation-filters="sRGB">
<feFlood flood-opacity="0" result="BackgroundImageFix"/>
<feColorMatrix in="SourceAlpha" type="matrix" values="0 0 0 0 0 0 0 0 0 0 0 0 0 0 0 0 0 0 127 0" result="hardAlpha"/>
<feOffset dy="8"/>
<feGaussianBlur stdDeviation="8"/>
<feComposite in2="hardAlpha" operator="out"/>
<feColorMatrix type="matrix" values="0 0 0 0 0 0 0 0 0 0 0 0 0 0 0 0 0 0 0.08 0"/>
<feBlend mode="normal" in2="BackgroundImageFix" result="effect1_dropShadow"/>
<feBlend mode="normal" in="SourceGraphic" in2="effect1_dropShadow" result="shape"/>
</filter>
<linearGradient id="paint0_linear" x1="52.8343" y1="8.54996e-06" x2="166.535" y2="53.3879" gradientUnits="userSpaceOnUse">
<stop stop-color="#D6E0E2"/>
<stop offset="1" stop-color="#E8EAEC"/>
</linearGradient>
</defs>
</svg>
